<svg xmlns="http://www.w3.org/2000/svg" viewBox="0 0 60.62 60.62"><defs><style>.cls-1{fill:none;}.cls-2{fill:#fff;}.cls-3,.cls-4{fill:#f9ba00;}.cls-3{stroke:#f9ba00;stroke-linejoin:round;}</style></defs><g id="Calque_2" data-name="Calque 2"><g id="Calque_1-2" data-name="Calque 1"><rect class="cls-1" width="60.62" height="60.62"/><path class="cls-2" d="M38.58,23.12c-8,0-14.1-3.06-14.1-7.13s6.06-7.12,14.1-7.12,14.1,3.06,14.1,7.12S46.62,23.12,38.58,23.12Zm0-11.25c-6.78,0-11.1,2.44-11.1,4.12s4.32,4.13,11.1,4.13,11.1-2.44,11.1-4.13S45.35,11.87,38.58,11.87Z"/><path class="cls-2" d="M38.53,32.72c-8,0-14-3.06-14-7.12h3c0,1.68,4.31,4.12,11.05,4.12s11.06-2.44,11.06-4.12h3C52.59,29.66,46.55,32.72,38.53,32.72Z"/><path class="cls-2" d="M38.53,51.92c-8,0-14-3.06-14-7.12h3c0,1.68,4.31,4.12,11.05,4.12s11.06-2.44,11.06-4.12h3C52.59,48.86,46.55,51.92,38.53,51.92Z"/><path class="cls-2" d="M26,46.3a1.5,1.5,0,0,1-1.5-1.5V16a1.5,1.5,0,1,1,3,0V44.8A1.5,1.5,0,0,1,26,46.3Z"/><path class="cls-2" d="M51.09,46.3h0a1.49,1.49,0,0,1-1.49-1.5L49.68,16a1.5,1.5,0,0,1,1.5-1.5h0A1.51,1.51,0,0,1,52.68,16l-.09,28.81A1.51,1.51,0,0,1,51.09,46.3Z"/><polygon class="cls-3" points="5.22 37.01 18.23 44.42 18.23 29.6 5.22 37.01"/><path class="cls-2" d="M38.58,42.32c-8,0-14-3.06-14-7.12h3c0,1.68,4.3,4.12,11,4.12s11.05-2.44,11.05-4.12h3C52.63,39.26,46.59,42.32,38.58,42.32Z"/><line class="cls-2" x1="14.24" y1="37.01" x2="32.27" y2="37.01"/><path class="cls-4" d="M32.27,39.51h-18a2.5,2.5,0,0,1,0-5h18a2.5,2.5,0,0,1,0,5Z"/></g></g></svg>