<?xml version="1.0" encoding="UTF-8"?>
<svg id="Calque_2" data-name="Calque 2" xmlns="http://www.w3.org/2000/svg" viewBox="0 0 56.5 39.54">
  <defs>
    <style>
      .cls-1 {
        fill: #fab600;
      }

      .cls-2 {
        fill: #fff;
      }
    </style>
  </defs>
  <g id="Calque_1-2" data-name="Calque 1">
    <g>
      <g>
        <path class="cls-2" d="m12.62,39.54c-6.69,0-9.64-3.49-9.64-10.24v-3.44c0-2.33-.76-3.35-2.18-3.35h-.8v-5.43h.8c1.42,0,2.18-1.02,2.18-3.35v-3.49C2.98,3.49,5.93,0,12.62,0v4.42c-3.64.48-4.55,2.33-4.55,6.31v1.5c0,5.24-1.09,6.65-3.46,7.57,2.36.92,3.46,2.33,3.46,7.57v1.45c0,3.98.91,5.82,4.55,6.31v4.41Z"/>
        <path class="cls-2" d="m43.88,0C50.57,0,53.52,3.49,53.52,10.24v3.44c0,2.33.76,3.35,2.18,3.35h.8v5.43h-.8c-1.42,0-2.18,1.02-2.18,3.35v3.49c0,6.74-2.95,10.24-9.64,10.24v-4.42c3.64-.48,4.55-2.33,4.55-6.31v-1.5c0-5.24,1.09-6.65,3.46-7.57-2.36-.92-3.46-2.33-3.46-7.57v-1.45c0-3.98-.91-5.82-4.55-6.31V0Z"/>
      </g>
      <g>
        <path class="cls-1" d="m20.96,10.1v-1.52c0-1-.81-1.82-1.82-1.82s-1.81.81-1.81,1.82v1.52c-1.03.62-1.67,1.76-1.67,2.97s.63,2.34,1.67,2.98v14.9c0,1,.81,1.82,1.81,1.82s1.82-.81,1.82-1.82v-14.9c1.04-.63,1.67-1.75,1.67-2.98s-.65-2.34-1.67-2.97Zm-.2,2.97c0,.5-.22.95-.61,1.25h0c-.58.47-1.42.47-2.01,0-.39-.3-.61-.76-.61-1.25s.22-.94.61-1.25c.29-.23.63-.35,1-.35s.71.12,1.01.36c.39.3.61.76.61,1.25Z"/>
        <path class="cls-1" d="m30.06,24.19v-15.61c0-1-.81-1.82-1.81-1.82s-1.82.81-1.82,1.82v15.61c-1.04.64-1.67,1.75-1.67,2.98s.64,2.33,1.67,2.97v.81c0,1,.81,1.82,1.82,1.82s1.81-.81,1.81-1.82v-.81c1.04-.63,1.67-1.74,1.67-2.97s-.63-2.34-1.67-2.98Zm-.2,2.98c0,.49-.22.94-.61,1.25h0c-.57.47-1.43.47-2,0-.38-.31-.6-.76-.6-1.25s.22-.95.6-1.26c.29-.23.63-.35,1-.35s.71.12,1.01.36c.39.3.61.76.61,1.25Z"/>
        <path class="cls-1" d="m39.17,18.28v-9.69c0-1-.81-1.82-1.81-1.82s-1.82.81-1.82,1.82v9.69c-1.03.62-1.67,1.76-1.67,2.98s.65,2.34,1.67,2.97v6.73c0,1,.81,1.82,1.82,1.82s1.81-.81,1.81-1.82v-6.73c1.04-.63,1.67-1.74,1.67-2.97s-.63-2.34-1.67-2.98Zm-.21,2.98c0,.49-.22.94-.6,1.25h0c-.57.46-1.43.46-2.01,0-.39-.3-.61-.76-.61-1.25s.22-.95.61-1.26c.28-.23.64-.35,1-.35s.72.13,1,.36c.38.31.6.76.6,1.26Z"/>
      </g>
    </g>
  </g>
</svg>