<?xml version="1.0" encoding="UTF-8"?>
<svg id="Calque_2" data-name="Calque 2" xmlns="http://www.w3.org/2000/svg" viewBox="0 0 43.06 43.06">
  <defs>
    <style>
      .cls-1 {
        fill: #fab600;
      }

      .cls-2 {
        fill: #fff;
      }
    </style>
  </defs>
  <g id="Calque_1-2" data-name="Calque 1">
    <g>
      <g>
        <path class="cls-1" d="m12.65,10.85v-2.07c0-.83-.67-1.5-1.5-1.5s-1.5.67-1.5,1.5v2.07c-1.13.55-1.91,1.71-1.91,3.05s.78,2.5,1.91,3.06v17.33c0,.83.67,1.5,1.5,1.5s1.5-.67,1.5-1.5v-17.33c1.13-.56,1.91-1.72,1.91-3.06s-.78-2.5-1.91-3.05Zm0,4.93c-.41.33-.93.53-1.5.53s-1.09-.2-1.5-.53c-.56-.44-.91-1.12-.91-1.88s.35-1.43.91-1.87c.41-.33.93-.53,1.5-.53s1.09.2,1.5.53c.56.44.91,1.11.91,1.87s-.35,1.44-.91,1.88Z"/>
        <path class="cls-1" d="m23.03,26.92V8.78c0-.83-.67-1.5-1.5-1.5s-1.5.67-1.5,1.5v18.14c-1.12.56-1.9,1.72-1.9,3.06s.78,2.49,1.9,3.05v1.26c0,.83.68,1.5,1.5,1.5s1.5-.67,1.5-1.5v-1.26c1.13-.56,1.91-1.72,1.91-3.05s-.78-2.5-1.91-3.06Zm0,4.93c-.41.33-.93.53-1.5.53s-1.09-.2-1.5-.53c-.55-.44-.9-1.12-.9-1.87s.35-1.43.9-1.88c.41-.33.93-.53,1.5-.53s1.09.2,1.5.53c.56.44.91,1.12.91,1.88s-.35,1.43-.91,1.87Z"/>
        <path class="cls-1" d="m33.42,20.17v-11.39c0-.83-.67-1.5-1.5-1.5s-1.5.67-1.5,1.5v11.39c-1.13.55-1.91,1.72-1.91,3.06s.78,2.5,1.91,3.05v8.01c0,.83.67,1.5,1.5,1.5s1.5-.67,1.5-1.5v-8.01c1.13-.55,1.9-1.71,1.9-3.05s-.77-2.5-1.9-3.06Zm0,4.93c-.41.33-.94.53-1.5.53s-1.09-.2-1.5-.53c-.56-.44-.91-1.11-.91-1.87s.35-1.44.91-1.88c.41-.33.94-.53,1.5-.53s1.09.2,1.5.53c.55.44.9,1.12.9,1.88s-.35,1.43-.9,1.87Z"/>
      </g>
      <path class="cls-2" d="m37.03,43.06H6.03c-3.33,0-6.03-2.71-6.03-6.03V6.03C0,2.71,2.71,0,6.03,0h31c3.33,0,6.03,2.71,6.03,6.03v31c0,3.33-2.71,6.03-6.03,6.03ZM6.03,3.2c-1.56,0-2.83,1.27-2.83,2.83v31c0,1.56,1.27,2.83,2.83,2.83h31c1.56,0,2.83-1.27,2.83-2.83V6.03c0-1.56-1.27-2.83-2.83-2.83H6.03Z"/>
    </g>
  </g>
</svg>