<?xml version="1.0" encoding="UTF-8"?>
<svg id="Calque_2" data-name="Calque 2" xmlns="http://www.w3.org/2000/svg" viewBox="0 0 62.37 38.12">
  <defs>
    <style>
      .cls-1 {
        fill: none;
      }

      .cls-2 {
        fill: #fab600;
      }

      .cls-3 {
        fill: #fff;
      }
    </style>
  </defs>
  <g id="Calque_1-2" data-name="Calque 1">
    <path class="cls-3" d="m58.34,36.04H4.23V2.34h54.12v33.7Zm-52.12-2h50.12V4.34H6.23v29.7Z"/>
    <rect class="cls-3" x="5.02" y="20.48" width="10.5" height="2.07"/>
    <rect class="cls-3" x="4.23" y="14.2" width="11.48" height="1.94"/>
    <rect class="cls-3" x="4.23" y="7.41" width="52.12" height="2"/>
    <rect class="cls-3" x="14.7" y="7.72" width="2" height="26.59"/>
    <rect class="cls-3" x="46.43" y="8.13" width="2" height="26.59"/>
    <rect class="cls-2" x="4.23" y="2.34" width="54.12" height="7.14"/>
    <rect class="cls-3" x="46.43" y="14.19" width="10.71" height="1.95"/>
    <rect class="cls-3" x="46.43" y="20.48" width="11.92" height="1.88"/>
    <rect class="cls-3" x="5.2" y="27.39" width="10.51" height="2.07"/>
    <rect class="cls-3" x="46.43" y="27.39" width="10.71" height="1.88"/>
    <path class="cls-2" d="m31.31,22.87c-.25,0-.51-.07-.74-.22-.63-.41-.81-1.25-.4-1.88l2.79-4.3c.41-.63,1.25-.81,1.88-.4.63.41.81,1.25.4,1.88l-2.79,4.3c-.26.4-.7.62-1.14.62Z"/>
    <path class="cls-2" d="m31.31,25.74c-.75,0-1.36-.61-1.36-1.36v-2.87c0-.75.61-1.36,1.36-1.36s1.36.61,1.36,1.36v2.87c0,.75-.61,1.36-1.36,1.36Z"/>
    <path class="cls-3" d="m42.58,21.51c0-.46-.04-.91-.09-1.36h0c-.67-5.58-5.43-9.92-11.18-9.92s-10.51,4.34-11.18,9.92c-.05.45-.09.9-.09,1.36s.04.91.09,1.36c.67,5.58,5.43,9.92,11.18,9.92s10.51-4.34,11.18-9.92h0c.05-.45.09-.9.09-1.36Zm-11.27,8.56c-4.25,0-7.78-3.13-8.44-7.2-.07-.44-.12-.9-.12-1.36s.05-.92.12-1.36c.65-4.07,4.18-7.2,8.44-7.2s7.78,3.12,8.44,7.2h0c.07.44.12.9.12,1.36s-.05.92-.12,1.36h0c-.65,4.07-4.18,7.2-8.44,7.2Z"/>
    <rect class="cls-1" width="62.37" height="38.12"/>
  </g>
</svg>