<?xml version="1.0" encoding="UTF-8"?>
<svg id="Calque_1" data-name="Calque 1" xmlns="http://www.w3.org/2000/svg" viewBox="0 0 56.5 39.54">
  <defs>
    <style>
      .cls-1 {
        fill: #f8b905;
      }

      .cls-2 {
        fill: #fff;
      }
    </style>
  </defs>
  <g>
    <path class="cls-2" d="m12.62,39.54c-6.69,0-9.64-3.49-9.64-10.24v-3.44c0-2.33-.76-3.35-2.18-3.35h-.8v-5.43h.8c1.42,0,2.18-1.02,2.18-3.35v-3.49C2.98,3.49,5.93,0,12.62,0v4.42c-3.64.48-4.55,2.33-4.55,6.31v1.5c0,5.24-1.09,6.65-3.46,7.57,2.36.92,3.46,2.33,3.46,7.57v1.45c0,3.98.91,5.82,4.55,6.31v4.41Z"/>
    <path class="cls-2" d="m43.88,0C50.57,0,53.52,3.49,53.52,10.24v3.44c0,2.33.76,3.35,2.18,3.35h.8v5.43h-.8c-1.42,0-2.18,1.02-2.18,3.35v3.49c0,6.74-2.95,10.24-9.64,10.24v-4.42c3.64-.48,4.55-2.33,4.55-6.31v-1.5c0-5.24,1.09-6.65,3.46-7.57-2.36-.92-3.46-2.33-3.46-7.57v-1.45c0-3.98-.91-5.82-4.55-6.31V0Z"/>
  </g>
  <path class="cls-1" d="m38.02,12.56c-2.36-2.47-5.53-3.88-8.94-3.96-2.94-.08-5.76.85-8.06,2.62l-.37-.71c-.08-.16-.18-.29-.33-.42-.35-.28-.82-.35-1.24-.19-.42.16-.71.53-.79.97l-.88,5.49c-.07.45.1.89.45,1.17.35.28.83.35,1.23.19l5.2-1.98c.42-.16.72-.52.79-.97.07-.44-.1-.89-.45-1.18-.13-.11-.28-.19-.45-.23l-.07-.02c1.47-.85,3.19-1.28,4.88-1.25,2.47.06,4.77,1.08,6.48,2.88s2.62,4.14,2.56,6.61c-.06,2.47-1.08,4.77-2.88,6.48-1.8,1.71-4.2,2.6-6.61,2.56-2.47-.06-4.77-1.08-6.48-2.88s-2.62-4.14-2.56-6.61c0-.27-.09-.52-.28-.71-.18-.19-.43-.3-.7-.31l-1.51-.04s-.02,0-.02,0c-.54,0-.99.43-1,.98-.08,3.41,1.17,6.65,3.53,9.12,2.36,2.47,5.53,3.88,8.94,3.96.11,0,.21,0,.32,0,6.9,0,12.6-5.53,12.77-12.47.08-3.41-1.17-6.65-3.53-9.12Z"/>
</svg>