<?xml version="1.0" encoding="UTF-8"?>
<svg id="Calque_2" data-name="Calque 2" xmlns="http://www.w3.org/2000/svg" viewBox="0 0 56.5 39.54">
  <defs>
    <style>
      .cls-1 {
        fill: #fab600;
      }

      .cls-2 {
        fill: #fff;
      }
    </style>
  </defs>
  <g id="Calque_1-2" data-name="Calque 1">
    <g>
      <path class="cls-2" d="m12.62,39.54c-6.69,0-9.64-3.49-9.64-10.24v-3.44c0-2.33-.76-3.35-2.18-3.35h-.8v-5.43h.8c1.42,0,2.18-1.02,2.18-3.35v-3.49C2.98,3.49,5.93,0,12.62,0v4.42c-3.64.48-4.55,2.33-4.55,6.31v1.5c0,5.24-1.09,6.65-3.46,7.57,2.36.92,3.46,2.33,3.46,7.57v1.45c0,3.98.91,5.82,4.55,6.31v4.41Z"/>
      <path class="cls-2" d="m43.88,0C50.57,0,53.52,3.49,53.52,10.24v3.44c0,2.33.76,3.35,2.18,3.35h.8v5.43h-.8c-1.42,0-2.18,1.02-2.18,3.35v3.49c0,6.74-2.95,10.24-9.64,10.24v-4.42c3.64-.48,4.55-2.33,4.55-6.31v-1.5c0-5.24,1.09-6.65,3.46-7.57-2.36-.92-3.46-2.33-3.46-7.57v-1.45c0-3.98-.91-5.82-4.55-6.31V0Z"/>
    </g>
    <g>
      <circle class="cls-1" cx="17.26" cy="12.06" r="1.7"/>
      <rect class="cls-1" x="21.18" y="10.36" width="19.75" height="3.4" rx="1.7" ry="1.7"/>
    </g>
    <g>
      <circle class="cls-1" cx="17.26" cy="19.77" r="1.7"/>
      <rect class="cls-1" x="21.18" y="18.07" width="19.75" height="3.4" rx="1.7" ry="1.7"/>
    </g>
    <g>
      <circle class="cls-1" cx="17.26" cy="27.47" r="1.7"/>
      <rect class="cls-1" x="21.18" y="25.77" width="19.75" height="3.4" rx="1.7" ry="1.7"/>
    </g>
  </g>
</svg>