<?xml version="1.0" encoding="UTF-8"?>
<svg id="Calque_1" data-name="Calque 1" xmlns="http://www.w3.org/2000/svg" viewBox="0 0 56.5 39.54">
  <defs>
    <style>
      .cls-1 {
        fill: #f9b500;
      }

      .cls-2 {
        fill: #fff;
      }
    </style>
  </defs>
  <path class="cls-2" d="m12.62,39.54c-6.69,0-9.64-3.49-9.64-10.24v-3.44c0-2.33-.76-3.35-2.18-3.35h-.8v-5.43h.8c1.42,0,2.18-1.02,2.18-3.35v-3.49C2.98,3.49,5.93,0,12.62,0v4.42c-3.64.48-4.55,2.33-4.55,6.31v1.5c0,5.24-1.09,6.65-3.46,7.57,2.36.92,3.46,2.33,3.46,7.57v1.45c0,3.98.91,5.82,4.55,6.31v4.41Z"/>
  <path class="cls-2" d="m43.88,0C50.57,0,53.52,3.49,53.52,10.24v3.44c0,2.33.76,3.35,2.18,3.35h.8v5.43h-.8c-1.42,0-2.18,1.02-2.18,3.35v3.49c0,6.74-2.95,10.24-9.64,10.24v-4.42c3.64-.48,4.55-2.33,4.55-6.31v-1.5c0-5.24,1.09-6.65,3.46-7.57-2.36-.92-3.46-2.33-3.46-7.57v-1.45c0-3.98-.91-5.82-4.55-6.31V0Z"/>
  <path class="cls-1" d="m19.46,13.12c.11,0,.22.03.33.07l8.14,3.52c.1.04.2.06.31.06s.22-.02.32-.06l8.14-3.52c.11-.05.22-.07.32-.07.57,0,1.01.64.69,1.2l-2.32,4.03-.1.16-2.98,5.16-.02.03-3.35,5.81c-.16.26-.42.39-.69.39s-.54-.13-.69-.39l-3.35-5.81-.02-.03-2.98-5.16-.1-.16-2.32-4.03c-.33-.56.12-1.2.68-1.2Z"/>
</svg>