<?xml version="1.0" encoding="UTF-8"?>
<svg id="Calque_2" data-name="Calque 2" xmlns="http://www.w3.org/2000/svg" viewBox="0 0 804 617">
  <defs>
    <style>
      .cls-1 {
        fill: #fab911;
      }

      .cls-1, .cls-2, .cls-3, .cls-4, .cls-5, .cls-6, .cls-7, .cls-8, .cls-9 {
        stroke-width: 0px;
      }

      .cls-2 {
        fill: #0a9cd8;
      }

      .cls-3 {
        fill: #2c3c45;
      }

      .cls-4 {
        fill: #273d46;
      }

      .cls-5 {
        fill: #c2d1d9;
      }

      .cls-6 {
        fill: #ffe698;
      }

      .cls-7 {
        fill: #fab612;
      }

      .cls-10 {
        opacity: .9;
      }

      .cls-8 {
        fill: #fbba0e;
      }

      .cls-9 {
        fill: #fff;
      }
    </style>
  </defs>
  <g id="Calque_1-2" data-name="Calque 1">
    <rect class="cls-3" x="0" width="804" height="617" rx="14.17" ry="14.17"/>
    <g>
      <path class="cls-2" d="M609.14,106.55h-4.66v4.06h5.35v.71h-6.19v-9.95h6.16v.71h-5.32v3.76h4.66v.71Z"/>
      <path class="cls-2" d="M612.2,103.92l.03,1.26c.28-.46.62-.8,1.04-1.04.41-.24.87-.36,1.37-.36.79,0,1.38.22,1.77.67.39.45.58,1.12.59,2.01v4.85h-.81v-4.86c0-.66-.14-1.15-.42-1.48-.28-.32-.72-.49-1.32-.49-.51,0-.95.16-1.34.47-.39.32-.68.74-.86,1.28v5.07h-.81v-7.4h.78Z"/>
      <path class="cls-2" d="M620.38,102.03v1.89h1.53v.67h-1.53v4.93c0,.41.07.72.22.92.15.2.4.3.74.3.14,0,.36-.02.66-.07l.03.66c-.21.08-.51.12-.88.12-.56,0-.97-.16-1.22-.49-.26-.33-.38-.81-.38-1.44v-4.94h-1.36v-.67h1.36v-1.89h.82Z"/>
      <path class="cls-2" d="M626.47,111.46c-.63,0-1.2-.16-1.71-.46-.51-.31-.9-.74-1.19-1.29-.28-.55-.42-1.17-.42-1.86v-.29c0-.71.14-1.35.41-1.92.28-.57.66-1.02,1.15-1.34.49-.33,1.03-.49,1.6-.49.9,0,1.61.31,2.14.92.53.61.79,1.45.79,2.51v.46h-5.28v.16c0,.84.24,1.54.72,2.1.48.56,1.09.84,1.82.84.44,0,.82-.08,1.16-.24s.64-.42.91-.77l.51.39c-.6.87-1.47,1.31-2.62,1.31ZM626.32,104.48c-.62,0-1.13.23-1.56.68-.42.45-.68,1.06-.77,1.82h4.44v-.09c-.02-.71-.23-1.29-.61-1.74s-.88-.67-1.5-.67Z"/>
      <path class="cls-2" d="M634.25,104.62c-.17-.03-.36-.05-.55-.05-.51,0-.94.14-1.3.43-.35.29-.6.7-.75,1.24v5.08h-.81v-7.4h.8v1.18c.45-.88,1.14-1.31,2.1-1.31.23,0,.41.03.54.09l-.02.75Z"/>
      <path class="cls-2" d="M641.49,107.7c0,1.15-.26,2.07-.77,2.74-.51.68-1.19,1.02-2.05,1.02-1.01,0-1.79-.36-2.32-1.07v3.77h-.81v-10.24h.76l.04,1.05c.53-.79,1.31-1.18,2.32-1.18.88,0,1.58.33,2.08,1,.5.67.76,1.6.76,2.79v.12ZM640.67,107.55c0-.94-.19-1.69-.58-2.24-.39-.55-.93-.82-1.62-.82-.5,0-.93.12-1.29.36-.36.24-.64.59-.83,1.05v3.55c.2.42.48.75.84.97.36.22.79.33,1.29.33.69,0,1.22-.27,1.61-.82.39-.55.58-1.35.58-2.39Z"/>
      <path class="cls-2" d="M646.72,104.62c-.17-.03-.36-.05-.55-.05-.51,0-.94.14-1.3.43-.35.29-.6.7-.75,1.24v5.08h-.81v-7.4h.8v1.18c.45-.88,1.14-1.31,2.1-1.31.23,0,.41.03.54.09l-.02.75Z"/>
      <path class="cls-2" d="M647.97,101.79c0-.15.05-.28.15-.39.1-.11.24-.16.41-.16s.31.05.41.16c.1.11.15.24.15.39s-.05.28-.15.39-.24.16-.41.16-.31-.05-.41-.16c-.1-.1-.15-.23-.15-.39ZM648.93,111.32h-.82v-7.4h.82v7.4Z"/>
      <path class="cls-2" d="M655.58,109.44c0-.41-.16-.73-.49-.98-.33-.25-.82-.44-1.47-.58-.66-.14-1.17-.3-1.53-.48-.36-.18-.63-.4-.81-.66-.17-.26-.26-.57-.26-.94,0-.58.24-1.07.73-1.45.49-.38,1.11-.57,1.87-.57.82,0,1.49.2,1.99.61.5.41.75.94.75,1.6h-.82c0-.43-.18-.79-.54-1.08s-.82-.43-1.37-.43-.97.12-1.3.36c-.33.24-.49.55-.49.93s.14.66.41.86c.27.2.77.39,1.48.56s1.26.35,1.61.54c.36.19.62.42.8.69.17.27.26.59.26.98,0,.62-.25,1.12-.76,1.5-.5.37-1.16.56-1.97.56-.86,0-1.56-.21-2.1-.62-.54-.42-.8-.95-.8-1.58h.82c.03.48.23.85.6,1.12.37.27.86.4,1.47.4.57,0,1.03-.12,1.38-.38.35-.25.53-.57.53-.95Z"/>
      <path class="cls-2" d="M661.11,111.46c-.63,0-1.2-.16-1.71-.46-.51-.31-.9-.74-1.19-1.29-.28-.55-.42-1.17-.42-1.86v-.29c0-.71.14-1.35.41-1.92.28-.57.66-1.02,1.15-1.34.49-.33,1.03-.49,1.6-.49.9,0,1.61.31,2.14.92.53.61.79,1.45.79,2.51v.46h-5.28v.16c0,.84.24,1.54.72,2.1.48.56,1.09.84,1.82.84.44,0,.82-.08,1.16-.24s.64-.42.91-.77l.51.39c-.6.87-1.47,1.31-2.62,1.31ZM660.96,104.48c-.62,0-1.13.23-1.56.68-.42.45-.68,1.06-.77,1.82h4.44v-.09c-.02-.71-.23-1.29-.61-1.74s-.88-.67-1.5-.67Z"/>
      <path class="cls-2" d="M676.48,111.32h-.84l-5.72-8.52v8.52h-.85v-9.95h.85l5.73,8.52v-8.52h.83v9.95Z"/>
      <path class="cls-2" d="M681.68,111.46c-.63,0-1.2-.16-1.71-.46-.51-.31-.9-.74-1.19-1.29-.28-.55-.42-1.17-.42-1.86v-.29c0-.71.14-1.35.41-1.92.28-.57.66-1.02,1.15-1.34.49-.33,1.03-.49,1.6-.49.9,0,1.61.31,2.14.92.53.61.79,1.45.79,2.51v.46h-5.28v.16c0,.84.24,1.54.72,2.1.48.56,1.09.84,1.82.84.44,0,.82-.08,1.16-.24s.64-.42.91-.77l.51.39c-.6.87-1.47,1.31-2.62,1.31ZM681.53,104.48c-.62,0-1.13.23-1.56.68-.42.45-.68,1.06-.77,1.82h4.44v-.09c-.02-.71-.23-1.29-.61-1.74s-.88-.67-1.5-.67Z"/>
      <path class="cls-2" d="M687.32,102.03v1.89h1.53v.67h-1.53v4.93c0,.41.07.72.22.92.15.2.4.3.74.3.14,0,.36-.02.66-.07l.03.66c-.21.08-.51.12-.88.12-.56,0-.97-.16-1.22-.49-.26-.33-.38-.81-.38-1.44v-4.94h-1.36v-.67h1.36v-1.89h.82Z"/>
      <path class="cls-2" d="M692.32,109.62l.12.64.16-.67,1.78-5.66h.7l1.76,5.61.19.78.16-.72,1.52-5.67h.85l-2.15,7.4h-.7l-1.9-5.87-.09-.4-.09.41-1.87,5.86h-.7l-2.15-7.4h.84l1.57,5.69Z"/>
      <path class="cls-2" d="M700.65,107.51c0-.71.14-1.35.41-1.92.28-.57.67-1.01,1.17-1.33.5-.32,1.07-.47,1.71-.47.98,0,1.78.35,2.39,1.04.61.69.92,1.61.92,2.75v.17c0,.72-.14,1.36-.41,1.93-.28.57-.66,1.01-1.17,1.32-.5.31-1.07.46-1.72.46-.98,0-1.78-.35-2.39-1.04-.61-.69-.92-1.61-.92-2.75v-.16ZM701.47,107.74c0,.88.23,1.61.69,2.18.46.57,1.06.85,1.8.85s1.34-.28,1.79-.85c.46-.57.69-1.32.69-2.25v-.16c0-.57-.11-1.08-.31-1.55-.21-.47-.5-.83-.88-1.09-.38-.26-.81-.39-1.3-.39-.73,0-1.32.29-1.78.86-.46.57-.69,1.32-.69,2.25v.15Z"/>
      <path class="cls-2" d="M712.36,104.62c-.17-.03-.36-.05-.55-.05-.51,0-.94.14-1.3.43-.35.29-.6.7-.75,1.24v5.08h-.81v-7.4h.8v1.18c.45-.88,1.14-1.31,2.1-1.31.23,0,.41.03.54.09l-.02.75Z"/>
      <path class="cls-2" d="M715.41,107.59l-.94.9v2.82h-.82v-10.5h.82v6.72l.77-.83,2.83-2.78h1.03l-3.14,3.12,3.41,4.28h-.98l-2.99-3.73Z"/>
    </g>
    <path class="cls-2" d="M804,94.3h-4v-2h4v2ZM792,94.3h-8v-2h8v2ZM776,94.3h-8v-2h8v2ZM760,94.3h-8v-2h8v2ZM744,94.3h-8v-2h8v2ZM728,94.3h-8v-2h8v2ZM712,94.3h-8v-2h8v2ZM696,94.3h-8v-2h8v2ZM680,94.3h-8v-2h8v2ZM664,94.3h-8v-2h8v2ZM648,94.3h-8v-2h8v2ZM632,94.3h-8v-2h8v2ZM616,94.3h-8v-2h8v2ZM600,94.3h-8v-2h8v2ZM584,94.3h-8v-2h8v2ZM568,94.3h-8v-2h8v2ZM552,94.3h-8v-2h8v2ZM536,94.3h-8v-2h8v2ZM520,94.3h-8v-2h8v2ZM504,94.3h-8v-2h8v2ZM488,94.3h-8v-2h8v2ZM472,94.3h-8v-2h8v2ZM456,94.3h-8v-2h8v2ZM440,94.3h-8v-2h8v2ZM424,94.3h-8v-2h8v2ZM408,94.3h-8v-2h8v2ZM392,94.3h-8v-2h8v2ZM376,94.3h-8v-2h8v2ZM360,94.3h-8v-2h8v2ZM344,94.3h-8v-2h8v2ZM328,94.3h-8v-2h8v2ZM312,94.3h-8v-2h8v2ZM296,94.3h-8v-2h8v2ZM280,94.3h-8v-2h8v2ZM264,94.3h-8v-2h8v2ZM248,94.3h-8v-2h8v2ZM232,94.3h-8v-2h8v2ZM216,94.3h-8v-2h8v2ZM200,94.3h-8v-2h8v2ZM184,94.3h-8v-2h8v2ZM168,94.3h-8v-2h8v2ZM152,94.3h-8v-2h8v2ZM136,94.3h-8v-2h8v2ZM120,94.3h-8v-2h8v2ZM104,94.3h-8v-2h8v2ZM88,94.3h-8v-2h8v2ZM72,94.3h-8v-2h8v2ZM56,94.3h-8v-2h8v2ZM40,94.3h-8v-2h8v2ZM24,94.3h-8v-2h8v2ZM8,94.3H0v-2h8v2Z"/>
    <polygon class="cls-9" points="411.66 494.89 280.66 486.93 280.66 486.69 281.04 403.38 281.25 403.35 409.3 382.94 409.38 383.44 281.54 403.81 281.16 486.46 411.69 494.39 411.66 494.89"/>
    <g>
      <g>
        <path class="cls-3" d="M238.71,405.16h46.05c9.39,0,17.02,7.63,17.02,17.02v46.04c0,9.39-7.63,17.02-17.02,17.02h-46.05c-9.39,0-17.02-7.63-17.02-17.02v-46.04c0-9.39,7.63-17.02,17.02-17.02Z"/>
        <path class="cls-9" d="M284.75,407.07c8.35,0,15.11,6.77,15.11,15.11v46.04c0,8.35-6.77,15.11-15.11,15.11h-46.04c-8.35,0-15.11-6.77-15.11-15.11v-46.04c0-8.35,6.77-15.11,15.11-15.11h46.04M284.75,403.26h-46.04c-10.44,0-18.93,8.49-18.93,18.93v46.04c0,10.44,8.49,18.93,18.93,18.93h46.04c10.44,0,18.93-8.49,18.93-18.93v-46.04c0-10.44-8.49-18.93-18.93-18.93h0Z"/>
      </g>
      <g>
        <path class="cls-7" d="M255.63,470.96h-1.6v2.58h-1.46v-7.28h3.18c1.37,0,2.51.76,2.51,2.31,0,1.68-1.12,2.39-2.63,2.39ZM255.7,467.67h-1.67v1.87h1.69c.68,0,1.04-.31,1.04-.95s-.42-.92-1.06-.92Z"/>
        <path class="cls-7" d="M259.64,473.53v-7.28h1.46v5.84h3.65v1.43h-5.11Z"/>
        <path class="cls-7" d="M269.96,468.38c-.26-.5-.68-.79-1.33-.79-1.09,0-1.72.96-1.72,2.31s.63,2.31,1.73,2.31c.65,0,1.04-.28,1.42-.92l1.23.73c-.5,1.03-1.37,1.64-2.69,1.64-1.9,0-3.18-1.45-3.18-3.75s1.33-3.75,3.23-3.75c1.37,0,2.2.67,2.66,1.61l-1.35.62Z"/>
      </g>
      <rect class="cls-7" x="236.67" y="424.86" width="50.12" height="28.03" rx="1.43" ry="1.43"/>
      <rect class="cls-7" x="260.1" y="419.45" width="2.43" height="5.4" rx=".95" ry=".95"/>
      <rect class="cls-7" x="265.5" y="419.45" width="2.43" height="5.4" rx=".95" ry=".95"/>
      <rect class="cls-7" x="270.91" y="419.45" width="2.43" height="5.4" rx=".95" ry=".95"/>
      <rect class="cls-7" x="276.32" y="419.45" width="2.43" height="5.4" rx=".95" ry=".95"/>
      <rect class="cls-7" x="281.72" y="419.45" width="2.43" height="5.4" rx=".95" ry=".95"/>
      <rect class="cls-7" x="260" y="452.92" width="2.45" height="5.4" rx=".95" ry=".95"/>
      <rect class="cls-7" x="265.45" y="452.92" width="2.45" height="5.4" rx=".95" ry=".95"/>
      <rect class="cls-7" x="270.9" y="452.92" width="2.45" height="5.4" rx=".95" ry=".95"/>
      <rect class="cls-7" x="239.46" y="452.92" width="2.45" height="5.4" rx=".95" ry=".95"/>
      <rect class="cls-7" x="244.91" y="452.92" width="2.45" height="5.4" rx=".95" ry=".95"/>
      <rect class="cls-7" x="250.36" y="452.92" width="2.45" height="5.4" rx=".95" ry=".95"/>
      <rect class="cls-7" x="276.35" y="452.92" width="2.45" height="5.4" rx=".95" ry=".95"/>
      <path class="cls-9" d="M239.46,452.89h44.66v1.36c0,.78-.63,1.41-1.41,1.41h-43.25v-2.77h0Z"/>
      <rect class="cls-9" x="240.12" y="428.42" width="13.35" height="16.02" rx=".57" ry=".57"/>
      <rect class="cls-4" x="275.09" y="435.45" width="4.23" height="8.99" rx=".29" ry=".29"/>
      <rect class="cls-9" x="240.12" y="445.69" width="2.74" height="2.74" rx=".29" ry=".29"/>
      <rect class="cls-4" x="243.66" y="445.69" width="2.74" height="2.74" rx=".29" ry=".29"/>
      <rect class="cls-9" x="247.19" y="445.69" width="2.74" height="2.74" rx=".29" ry=".29"/>
      <rect class="cls-4" x="250.73" y="445.69" width="2.74" height="2.74" rx=".29" ry=".29"/>
      <rect class="cls-4" x="259.43" y="437.69" width="2.74" height="2.74" rx=".29" ry=".29"/>
      <rect class="cls-9" x="262.97" y="437.69" width="2.74" height="2.74" rx=".29" ry=".29"/>
      <rect class="cls-4" x="266.5" y="437.69" width="2.74" height="2.74" rx=".29" ry=".29"/>
      <rect class="cls-4" x="270.04" y="437.69" width="2.74" height="2.74" rx=".29" ry=".29"/>
      <rect class="cls-9" x="259.43" y="441.69" width="2.74" height="2.74" rx=".29" ry=".29"/>
      <rect class="cls-4" x="262.97" y="441.69" width="2.74" height="2.74" rx=".29" ry=".29"/>
      <rect class="cls-9" x="266.5" y="441.69" width="2.74" height="2.74" rx=".29" ry=".29"/>
      <rect class="cls-9" x="270.04" y="441.69" width="2.74" height="2.74" rx=".29" ry=".29"/>
      <path class="cls-4" d="M280.59,435.45h3.66v3.37c0,.16-.13.29-.29.29h-3.37v-3.66h0Z"/>
      <rect class="cls-9" x="280.59" y="440.78" width="3.66" height="3.66" rx=".29" ry=".29"/>
      <rect class="cls-4" x="281.62" y="441.8" width="1.6" height="1.6"/>
      <path class="cls-9" d="M276.13,443.05v-6.21l1.94.97c.12.06.19.18.19.31v3.64c0,.13-.08.25-.19.31l-1.94.97Z"/>
      <polygon class="cls-9" points="281.53 438.41 281.53 436.14 283.3 436.53 283.3 438.02 281.53 438.41"/>
      <g>
        <path class="cls-4" d="M259.91,434.46v-4.48h1.77c.34,0,.63.06.87.19.24.13.42.31.55.54s.19.49.19.79-.06.56-.19.79c-.13.23-.31.4-.56.53-.24.13-.54.19-.88.19h-1.13v-.76h.97c.18,0,.33-.03.45-.09.12-.06.21-.15.27-.27.06-.11.09-.24.09-.39s-.03-.28-.09-.39-.15-.2-.27-.26-.27-.09-.46-.09h-.64v3.71h-.95Z"/>
        <path class="cls-4" d="M263.9,434.46v-4.48h.95v3.7h1.92v.78h-2.87Z"/>
        <path class="cls-4" d="M271.18,431.55h-.96c-.02-.12-.05-.23-.11-.33-.05-.1-.12-.18-.21-.25-.08-.07-.18-.12-.29-.16-.11-.04-.23-.05-.36-.05-.23,0-.43.06-.61.17-.17.11-.31.28-.4.5-.09.22-.14.48-.14.79s.05.59.14.81.23.38.4.49.37.17.6.17c.13,0,.24-.02.35-.05.11-.03.21-.08.29-.15.08-.06.15-.14.21-.24s.1-.2.12-.32h.96c-.02.21-.09.41-.18.6-.1.19-.23.36-.4.51-.17.15-.36.27-.59.35s-.49.13-.77.13c-.4,0-.76-.09-1.07-.27-.31-.18-.56-.44-.74-.79-.18-.34-.27-.76-.27-1.25s.09-.9.28-1.25c.18-.34.43-.6.75-.78.32-.18.67-.27,1.06-.27.26,0,.5.04.72.11.22.07.42.18.59.32.17.14.31.31.42.51.11.2.18.43.21.69Z"/>
      </g>
      <path class="cls-9" d="M240.88,422.09h43.25v2.77h-44.66v-1.36c0-.78.63-1.41,1.41-1.41Z"/>
    </g>
    <path class="cls-5" d="M563.73,523.61v-2h8.08s0,2,0,2h-8.08ZM555.76,523.61h-7.96v-2h7.96v2ZM539.84,523.61h-7.96v-2h7.96v2ZM523.91,523.61h-7.96v-2h7.96v2ZM507.99,523.61h-7.96v-2h7.96v2ZM492.06,523.61h-7.96v-2h7.96v2ZM476.14,523.61h-7.96v-2h7.96v2ZM460.21,523.61h-7.96v-2h7.96v2ZM444.29,523.61h-7.96v-2h7.96v2ZM428.36,523.61h-7.96v-2h7.96v2ZM412.44,523.61h-7.96v-2h7.96v2ZM396.51,523.61h-7.96v-2h7.96v2ZM380.59,523.61h-7.96v-2h7.96v2ZM364.66,523.61h-7.96v-2h7.96v2ZM348.74,523.61h-7.96v-2h7.96v2ZM332.81,523.61h-7.96v-2h7.96v2ZM316.89,523.61h-7.96v-2h7.96v2ZM300.96,523.61h-7.96v-2h7.96v2ZM285.04,523.61h-7.96v-2h7.96v2ZM269.11,523.61h-7.96v-2h7.96v2ZM253.19,523.61h-7.96v-2h7.96v2ZM237.26,523.61h-4.95c-1.04,0-2.09-.06-3.11-.16l.21-1.99c.95.1,1.93.15,2.9.15h4.95v2ZM579.93,522.43l-.56-1.92c2.46-.72,4.8-1.78,6.97-3.16l1.07,1.69c-2.33,1.48-4.84,2.62-7.48,3.39ZM221.23,521.44c-2.54-1.04-4.93-2.43-7.1-4.14l1.24-1.57c2.02,1.59,4.24,2.89,6.61,3.86l-.76,1.85ZM593.66,513.71l-1.5-1.33c1.7-1.92,3.13-4.07,4.23-6.38l1.81.86c-1.18,2.48-2.71,4.79-4.54,6.85ZM208.46,511.36c-1.61-2.24-2.89-4.69-3.81-7.28l1.88-.67c.86,2.41,2.05,4.69,3.55,6.78l-1.62,1.17ZM600.65,499.02l-1.97-.32c.24-1.46.36-2.95.36-4.43v-3.35h2v3.35c0,1.59-.13,3.19-.38,4.76ZM203.02,496.04c-.04-.59-.05-1.18-.05-1.77v-6.25h2v6.25c0,.56.02,1.11.05,1.66l-2,.12ZM601.03,482.95h-2v-7.96h2v7.96ZM204.97,480.05h-2v-7.96h2v7.96ZM601.03,467.03h-2v-7.96h2v7.96ZM204.97,464.13h-2v-7.96h2v7.96ZM601.03,451.1h-2v-7.96h2v7.96ZM204.97,448.2h-2v-7.96h2v7.96ZM601.03,435.18h-2v-7.96h2v7.96ZM204.97,432.28h-2v-7.96h2v7.96ZM601.03,419.25h-2v-7.96h2v7.96ZM204.97,416.35h-2v-7.96h2v7.96ZM601.03,403.33h-2v-7.96h2v7.96ZM204.97,400.43h-2v-7.96h2v7.96ZM601.03,387.4h-2v-7.96h2v7.96ZM204.97,384.5h-2v-7.96h2v7.96ZM601.03,371.48h-2v-7.96h2v7.96ZM204.97,368.58h-2v-7.96h2v7.96ZM601.03,355.55h-2v-7.96h2v7.96ZM204.97,352.65h-2v-7.96h2v7.96ZM601.03,339.63h-2v-7.96h2v7.96ZM204.97,336.73h-2v-7.96h2v7.96ZM601.03,323.7h-2v-7.96h2v7.96ZM204.97,320.8h-2v-7.96h2v7.96ZM601.03,307.78h-2v-7.96h2v7.96ZM204.97,304.88h-2v-7.96h2v7.96ZM601.03,291.85h-2v-7.96h2v7.96ZM204.97,288.95h-2v-7.96h2v7.96ZM601.03,275.93h-2v-7.96h2v7.96ZM204.97,273.03h-2v-7.96h2v7.96ZM601.03,260h-2v-7.96h2v7.96ZM204.97,257.1h-2v-7.96h2v7.96ZM601.03,244.08h-2v-7.96h2v7.96ZM204.97,241.18h-2v-7.96h2v7.96ZM601.03,228.15h-2v-7.96h2v7.96ZM204.97,225.25h-2v-7.96h2v7.96ZM601.03,212.23h-2v-7.96h2v7.96ZM204.97,209.33h-2v-7.96h2v7.96ZM601.03,196.3h-2v-7.96h2v7.96ZM204.97,193.4h-2v-7.96h2v7.96ZM601.03,180.38h-2v-7.96h2v7.96ZM204.97,177.48h-2v-7.96h2v7.96ZM601.03,164.45h-2v-6.19c0-.58-.02-1.15-.05-1.71l2-.12c.04.61.06,1.22.06,1.83v6.19ZM204.97,161.55h-2v-3.29c0-1.61.13-3.23.39-4.81l1.97.33c-.24,1.47-.37,2.98-.37,4.49v3.29ZM597.45,149.06c-.86-2.41-2.06-4.69-3.56-6.77l1.62-1.17c1.61,2.24,2.9,4.68,3.83,7.27l-1.88.67ZM207.63,146.48l-1.8-.86c1.19-2.48,2.72-4.78,4.55-6.84l1.49,1.33c-1.71,1.92-3.13,4.07-4.24,6.38ZM588.58,136.76c-2.02-1.59-4.25-2.88-6.62-3.85l.75-1.85c2.55,1.03,4.94,2.42,7.1,4.13l-1.24,1.57ZM217.7,135.14l-1.07-1.69c2.33-1.47,4.85-2.61,7.49-3.38l.56,1.92c-2.46.71-4.81,1.77-6.98,3.15ZM574.53,131.06c-.94-.1-1.9-.15-2.85-.15h-5.01v-2h5.01c1.02,0,2.05.05,3.05.16l-.21,1.99ZM558.72,130.92h-7.96v-2h7.96v2ZM542.79,130.92h-7.96v-2h7.96v2ZM526.87,130.92h-7.96v-2h7.96v2ZM510.94,130.92h-7.96v-2h7.96v2ZM495.02,130.92h-7.96v-2h7.96v2ZM479.09,130.92h-7.96v-2h7.96v2ZM463.17,130.92h-7.96v-2h7.96v2ZM447.24,130.92h-7.96v-2h7.96v2ZM431.32,130.92h-7.96v-2h7.96v2ZM415.39,130.92h-7.96v-2h7.96v2ZM399.47,130.92h-7.96v-2h7.96v2ZM383.54,130.92h-7.96v-2h7.96v2ZM367.62,130.92h-7.96v-2h7.96v2ZM351.69,130.92h-7.96v-2h7.96v2ZM335.77,130.92h-7.96v-2h7.96v2ZM319.84,130.92h-7.96v-2h7.96v2ZM303.92,130.92h-7.96v-2h7.96v2ZM287.99,130.92h-7.96v-2h7.96v2ZM272.07,130.92h-7.96v-2h7.96v2ZM256.14,130.92h-7.96v-2h7.96v2ZM240.22,130.92h-7.91l-.06-2h7.96v2Z"/>
    <g>
      <path class="cls-5" d="M218.73,508.83h-.84v-9.95h.84v9.95Z"/>
      <path class="cls-5" d="M222.02,501.43l.03,1.26c.28-.46.62-.8,1.04-1.04.41-.24.87-.36,1.37-.36.79,0,1.38.22,1.77.67.39.45.58,1.12.59,2.01v4.85h-.81v-4.86c0-.66-.14-1.15-.42-1.48-.28-.32-.72-.49-1.32-.49-.51,0-.95.16-1.34.47-.39.32-.68.74-.86,1.28v5.07h-.81v-7.4h.78Z"/>
      <path class="cls-5" d="M228.6,505.06c0-1.15.26-2.06.77-2.75.51-.68,1.21-1.02,2.09-1.02,1,0,1.76.39,2.28,1.18v-4.15h.81v10.5h-.77l-.03-.98c-.52.75-1.29,1.12-2.31,1.12-.85,0-1.54-.34-2.06-1.03-.52-.69-.78-1.61-.78-2.78v-.1ZM229.43,505.2c0,.94.19,1.69.57,2.23.38.54.91.82,1.6.82,1.01,0,1.72-.44,2.15-1.33v-3.47c-.42-.96-1.13-1.44-2.13-1.44-.69,0-1.22.27-1.61.81-.38.54-.57,1.34-.57,2.39Z"/>
      <path class="cls-5" d="M241.46,507.89c-.49.72-1.28,1.07-2.36,1.07-.79,0-1.39-.23-1.8-.69-.41-.46-.62-1.14-.63-2.03v-4.81h.81v4.71c0,1.41.57,2.11,1.71,2.11s1.93-.49,2.25-1.47v-5.35h.82v7.4h-.79v-.94Z"/>
      <path class="cls-5" d="M248.83,506.95c0-.41-.16-.73-.49-.98-.33-.25-.82-.44-1.47-.58-.66-.14-1.17-.3-1.53-.48-.36-.18-.63-.4-.81-.66-.17-.26-.26-.57-.26-.94,0-.58.24-1.07.73-1.45.49-.38,1.11-.57,1.87-.57.82,0,1.49.2,1.99.61.5.41.75.94.75,1.6h-.82c0-.43-.18-.79-.54-1.08s-.82-.43-1.37-.43-.97.12-1.3.36c-.33.24-.49.55-.49.93s.14.66.41.86c.27.2.77.39,1.48.56s1.26.35,1.61.54c.36.19.62.42.8.69.17.27.26.59.26.98,0,.62-.25,1.12-.76,1.5-.5.37-1.16.56-1.97.56-.86,0-1.56-.21-2.1-.62-.54-.42-.8-.95-.8-1.58h.82c.03.48.23.85.6,1.12.37.27.86.4,1.47.4.57,0,1.03-.12,1.38-.38.35-.25.53-.57.53-.95Z"/>
      <path class="cls-5" d="M252.76,499.54v1.89h1.53v.67h-1.53v4.93c0,.41.07.72.22.92.15.2.4.3.74.3.14,0,.36-.02.66-.07l.03.66c-.21.08-.51.12-.88.12-.56,0-.97-.16-1.22-.49-.26-.33-.38-.81-.38-1.44v-4.94h-1.36v-.67h1.36v-1.89h.82Z"/>
      <path class="cls-5" d="M259.4,502.13c-.17-.03-.36-.05-.55-.05-.51,0-.94.14-1.3.43-.35.29-.6.7-.75,1.24v5.08h-.81v-7.4h.8v1.18c.45-.88,1.14-1.31,2.1-1.31.23,0,.41.03.54.09l-.02.75Z"/>
      <path class="cls-5" d="M260.65,499.29c0-.15.05-.28.15-.39.1-.11.24-.16.41-.16s.31.05.41.16c.1.11.15.24.15.39s-.05.28-.15.39-.24.16-.41.16-.31-.05-.41-.16c-.1-.1-.15-.23-.15-.39ZM261.61,508.83h-.82v-7.4h.82v7.4Z"/>
      <path class="cls-5" d="M268.5,508.83c-.08-.23-.13-.58-.16-1.03-.29.37-.65.66-1.1.86-.44.2-.92.3-1.41.3-.71,0-1.29-.2-1.73-.59-.44-.4-.66-.9-.66-1.5,0-.72.3-1.29.9-1.71.6-.42,1.43-.63,2.51-.63h1.48v-.84c0-.53-.16-.94-.49-1.25-.33-.3-.8-.45-1.42-.45-.57,0-1.04.15-1.42.44-.37.29-.56.64-.56,1.05h-.82c0-.59.27-1.1.82-1.53.55-.43,1.22-.65,2.02-.65s1.48.21,1.95.62c.48.41.72.99.74,1.73v3.5c0,.72.08,1.25.23,1.61v.08h-.88ZM265.93,508.24c.55,0,1.04-.13,1.47-.4s.74-.62.94-1.06v-1.63h-1.46c-.82,0-1.45.16-1.91.45-.46.29-.69.69-.69,1.19,0,.42.15.76.46,1.03s.71.41,1.2.41Z"/>
      <path class="cls-5" d="M272.25,508.83h-.82v-10.5h.82v10.5Z"/>
      <path class="cls-5" d="M285.47,508.83h-.84l-5.72-8.52v8.52h-.85v-9.95h.85l5.73,8.52v-8.52h.83v9.95Z"/>
      <path class="cls-5" d="M290.68,508.96c-.63,0-1.2-.16-1.71-.46-.51-.31-.9-.74-1.19-1.29-.28-.55-.42-1.17-.42-1.86v-.29c0-.71.14-1.35.41-1.92.28-.57.66-1.02,1.15-1.34.49-.33,1.03-.49,1.6-.49.9,0,1.61.31,2.14.92.53.61.79,1.45.79,2.51v.46h-5.28v.16c0,.84.24,1.54.72,2.1.48.56,1.09.84,1.82.84.44,0,.82-.08,1.16-.24s.64-.42.91-.77l.51.39c-.6.87-1.47,1.31-2.62,1.31ZM290.53,501.99c-.62,0-1.13.23-1.56.68-.42.45-.68,1.06-.77,1.82h4.44v-.09c-.02-.71-.23-1.29-.61-1.74s-.88-.67-1.5-.67Z"/>
      <path class="cls-5" d="M296.32,499.54v1.89h1.53v.67h-1.53v4.93c0,.41.07.72.22.92.15.2.4.3.74.3.14,0,.36-.02.66-.07l.03.66c-.21.08-.51.12-.88.12-.56,0-.97-.16-1.22-.49-.26-.33-.38-.81-.38-1.44v-4.94h-1.36v-.67h1.36v-1.89h.82Z"/>
      <path class="cls-5" d="M301.31,507.12l.12.64.16-.67,1.78-5.66h.7l1.76,5.61.19.78.16-.72,1.52-5.67h.85l-2.15,7.4h-.7l-1.9-5.87-.09-.4-.09.41-1.87,5.86h-.7l-2.15-7.4h.84l1.57,5.69Z"/>
      <path class="cls-5" d="M309.65,505.02c0-.71.14-1.35.41-1.92.28-.57.67-1.01,1.17-1.33.5-.32,1.07-.47,1.71-.47.98,0,1.78.35,2.39,1.04.61.69.92,1.61.92,2.75v.17c0,.72-.14,1.36-.41,1.93-.28.57-.66,1.01-1.17,1.32-.5.31-1.07.46-1.72.46-.98,0-1.78-.35-2.39-1.04-.61-.69-.92-1.61-.92-2.75v-.16ZM310.47,505.24c0,.88.23,1.61.69,2.18.46.57,1.06.85,1.8.85s1.34-.28,1.79-.85c.46-.57.69-1.32.69-2.25v-.16c0-.57-.11-1.08-.31-1.55-.21-.47-.5-.83-.88-1.09-.38-.26-.81-.39-1.3-.39-.73,0-1.32.29-1.78.86-.46.57-.69,1.32-.69,2.25v.15Z"/>
      <path class="cls-5" d="M321.36,502.13c-.17-.03-.36-.05-.55-.05-.51,0-.94.14-1.3.43-.35.29-.6.7-.75,1.24v5.08h-.81v-7.4h.8v1.18c.45-.88,1.14-1.31,2.1-1.31.23,0,.41.03.54.09l-.02.75Z"/>
      <path class="cls-5" d="M324.4,505.1l-.94.9v2.82h-.82v-10.5h.82v6.72l.77-.83,2.83-2.78h1.03l-3.14,3.12,3.41,4.28h-.98l-2.99-3.73Z"/>
    </g>
    <g>
      <rect class="cls-4" x="448.08" y="145.57" width="36.9" height="36.9" rx="6.82" ry="6.82"/>
      <path class="cls-9" d="M478.17,146.57c3.21,0,5.82,2.6,5.82,5.82v23.27c0,3.21-2.6,5.82-5.82,5.82h-23.27c-3.21,0-5.82-2.6-5.82-5.82v-23.27c0-3.21,2.6-5.82,5.82-5.82h23.27M478.17,144.57h-23.27c-4.31,0-7.82,3.51-7.82,7.82v23.27c0,4.31,3.51,7.82,7.82,7.82h23.27c4.31,0,7.82-3.51,7.82-7.82v-23.27c0-4.31-3.51-7.82-7.82-7.82h0Z"/>
    </g>
    <path class="cls-7" d="M476.75,153.56h-11.87s0-2.73-2.91-2.73h-5.66c-1.61,0-2.91,1.3-2.91,2.91h0v13.1c0,1.61,1.3,2.91,2.91,2.91h20.44c1.61,0,2.91-1.3,2.91-2.91v-10.36c0-1.61-1.3-2.91-2.91-2.91Z"/>
    <g>
      <path class="cls-7" d="M458.21,178.47h-1.29v-3.64h1.3c.37,0,.68.07.94.22.26.15.47.35.61.62.14.27.21.6.21.97s-.07.7-.21.98c-.14.27-.35.48-.61.63s-.58.22-.95.22ZM457.69,177.81h.49c.23,0,.42-.04.57-.12s.27-.21.35-.38c.08-.17.12-.39.12-.66s-.04-.49-.12-.66-.2-.3-.35-.38c-.16-.08-.35-.12-.57-.12h-.49v2.32Z"/>
      <path class="cls-7" d="M460.98,176.26c-.12,0-.22-.04-.3-.12-.08-.08-.13-.18-.13-.3s.04-.22.13-.3c.08-.08.18-.12.3-.12s.21.04.3.12c.09.08.13.18.13.3,0,.08-.02.15-.06.22-.04.06-.09.12-.16.15-.06.04-.13.06-.21.06ZM460.98,178.05c-.12,0-.22-.04-.3-.12-.08-.08-.13-.18-.13-.3s.04-.22.13-.3c.08-.08.18-.12.3-.12s.21.04.3.12c.09.08.13.18.13.3,0,.08-.02.15-.06.21-.04.06-.09.12-.16.15-.06.04-.13.06-.21.06Z"/>
      <path class="cls-7" d="M462.96,179.02l-1.17-4.35h.65l1.17,4.35h-.65Z"/>
      <path class="cls-7" d="M465.28,178.47h-1.29v-3.64h1.3c.37,0,.68.07.94.22.26.15.47.35.61.62.14.27.21.6.21.97s-.07.7-.21.98c-.14.27-.35.48-.61.63s-.58.22-.95.22ZM464.76,177.81h.49c.23,0,.42-.04.57-.12s.27-.21.35-.38c.08-.17.12-.39.12-.66s-.04-.49-.12-.66-.2-.3-.35-.38c-.16-.08-.35-.12-.57-.12h-.49v2.32Z"/>
      <path class="cls-7" d="M468.05,178.47h-.82l1.25-3.64h.99l1.25,3.64h-.82l-.91-2.81h-.03l-.91,2.81ZM468,177.04h1.95v.6h-1.95v-.6Z"/>
      <path class="cls-7" d="M470.58,175.47v-.63h2.99v.63h-1.11v3h-.76v-3h-1.11Z"/>
      <path class="cls-7" d="M474.24,178.47h-.82l1.25-3.64h.99l1.25,3.64h-.82l-.91-2.81h-.03l-.91,2.81ZM474.18,177.04h1.95v.6h-1.95v-.6Z"/>
    </g>
    <path class="cls-5" d="M564.14,300.31H239.49c-16.18,0-29.35-13.16-29.35-29.35v-105.56c0-16.18,13.17-29.35,29.35-29.35h324.66c16.18,0,29.35,13.17,29.35,29.35v105.56c0,16.18-13.17,29.35-29.35,29.35ZM239.49,138.05c-15.08,0-27.35,12.27-27.35,27.35v105.56c0,15.08,12.27,27.35,27.35,27.35h324.66c15.08,0,27.35-12.27,27.35-27.35v-105.56c0-15.08-12.27-27.35-27.35-27.35H239.49Z"/>
    <g>
      <path class="cls-5" d="M527.64,158.76l.05.21.06-.21,3.13-8.72h.92l-3.71,9.95h-.81l-3.71-9.95h.92l3.13,8.72Z"/>
      <path class="cls-5" d="M534.39,150.04l3.67,8.78,3.68-8.78h1.12v9.95h-.84v-4.33l.07-4.44-3.71,8.78h-.65l-3.69-8.74.07,4.38v4.36h-.84v-9.95h1.11Z"/>
      <path class="cls-5" d="M548.79,159.99v-9.95h2.78c.82,0,1.55.19,2.19.56.65.37,1.15.9,1.51,1.6s.54,1.48.54,2.37v.92c0,.89-.18,1.68-.54,2.37-.36.69-.87,1.22-1.52,1.59-.65.37-1.41.56-2.25.56h-2.72ZM549.64,150.75v8.53h1.89c1.05,0,1.89-.35,2.52-1.04.63-.7.95-1.64.95-2.82v-.88c0-1.14-.31-2.06-.94-2.75-.62-.69-1.45-1.04-2.47-1.04h-1.96Z"/>
      <path class="cls-5" d="M559.08,150.04l3.67,8.78,3.68-8.78h1.12v9.95h-.84v-4.33l.07-4.44-3.71,8.78h-.65l-3.69-8.74.07,4.38v4.36h-.84v-9.95h1.11Z"/>
      <path class="cls-5" d="M570.45,159.28h6.15v.71h-7.16v-.64l5.91-8.61h-5.73v-.71h6.77v.6l-5.93,8.65Z"/>
    </g>
    <g>
      <rect class="cls-7" x="303.42" y="161.52" width="138.02" height="5"/>
      <polygon class="cls-7" points="431.48 172.5 439.96 164.02 431.48 155.54 438.68 155.54 447.16 164.02 438.68 172.5 431.48 172.5"/>
    </g>
    <g>
      <g class="cls-10">
        <rect class="cls-3" x="405.19" y="382.18" width="187.3" height="112.46" rx="9.25" ry="9.25"/>
      </g>
      <path class="cls-9" d="M583.25,496.14h-168.81c-5.92,0-10.75-4.82-10.75-10.75v-93.97c0-5.92,4.82-10.75,10.75-10.75h168.81c5.92,0,10.75,4.82,10.75,10.75v93.97c0,5.92-4.82,10.75-10.75,10.75ZM414.44,383.68c-4.27,0-7.75,3.47-7.75,7.75v93.97c0,4.27,3.47,7.75,7.75,7.75h168.81c4.27,0,7.75-3.47,7.75-7.75v-93.97c0-4.27-3.47-7.75-7.75-7.75h-168.81Z"/>
    </g>
    <g>
      <path class="cls-9" d="M509.52,460.26v4.01h-2.34v-11.38h4.44c.85,0,1.61.16,2.25.47s1.15.76,1.5,1.33.52,1.23.52,1.96c0,1.11-.38,1.99-1.14,2.64s-1.82.96-3.17.96h-2.05ZM509.52,458.36h2.09c.62,0,1.09-.15,1.42-.44s.49-.71.49-1.25-.16-1.01-.49-1.35-.78-.52-1.36-.53h-2.15v3.57Z"/>
      <path class="cls-9" d="M516.89,459.96c0-.84.16-1.59.48-2.24s.79-1.16,1.39-1.52,1.31-.54,2.11-.54c1.14,0,2.07.35,2.79,1.05s1.12,1.65,1.21,2.84l.02.58c0,1.3-.36,2.34-1.09,3.12s-1.7,1.18-2.91,1.18-2.19-.39-2.92-1.17-1.09-1.84-1.09-3.19v-.1ZM519.15,460.12c0,.8.15,1.42.45,1.84s.73.64,1.3.64.97-.21,1.28-.63.46-1.09.46-2.01c0-.79-.15-1.4-.46-1.83s-.74-.65-1.3-.65-.98.21-1.28.65-.45,1.1-.45,2Z"/>
      <path class="cls-9" d="M531.04,457.93c-.31-.04-.58-.06-.81-.06-.85,0-1.41.29-1.68.87v5.53h-2.26v-8.45h2.13l.06,1.01c.45-.78,1.08-1.16,1.88-1.16.25,0,.48.03.7.1l-.03,2.17Z"/>
      <path class="cls-9" d="M535.22,453.73v2.08h1.45v1.66h-1.45v4.22c0,.31.06.54.18.67s.35.2.69.2c.25,0,.47-.02.66-.05v1.71c-.44.14-.9.2-1.37.2-1.58,0-2.39-.8-2.42-2.4v-4.55h-1.23v-1.66h1.23v-2.08h2.26Z"/>
      <path class="cls-9" d="M538.03,456.76c0-.36.12-.65.36-.88s.55-.34.91-.34.68.11.92.34.36.52.36.88-.12.64-.36.86-.55.33-.92.33-.67-.11-.91-.33-.36-.51-.36-.86ZM538.03,463.15c0-.36.12-.65.36-.88s.55-.34.91-.34.68.11.92.34.36.52.36.88-.12.64-.36.86-.55.33-.92.33-.67-.11-.91-.33-.36-.51-.36-.86Z"/>
    </g>
    <g>
      <path class="cls-9" d="M421.11,464.88h-2.34v-11.38h2.34v11.38Z"/>
      <path class="cls-9" d="M425.62,460.87v4.01h-2.34v-11.38h4.44c.85,0,1.61.16,2.25.47s1.15.76,1.5,1.33.52,1.23.52,1.96c0,1.11-.38,1.99-1.14,2.64s-1.82.96-3.17.96h-2.05ZM425.62,458.97h2.09c.62,0,1.09-.15,1.42-.44s.49-.71.49-1.25-.16-1.01-.49-1.35-.78-.52-1.36-.53h-2.15v3.57Z"/>
      <path class="cls-9" d="M433.56,457.37c0-.36.12-.65.36-.88s.55-.34.91-.34.68.11.92.34.36.52.36.88-.12.64-.36.86-.55.33-.92.33-.67-.11-.91-.33-.36-.51-.36-.86ZM433.56,463.77c0-.36.12-.65.36-.88s.55-.34.91-.34.68.11.92.34.36.52.36.88-.12.64-.36.86-.55.33-.92.33-.67-.11-.91-.33-.36-.51-.36-.86Z"/>
    </g>
    <g>
      <path class="cls-6" d="M418.72,480.07v-.86h2.4v-7.07l-2.38,1.78v-1.09l2.04-1.51h1.28v7.9h1.98v.86h-5.33Z"/>
      <path class="cls-6" d="M428.4,480.19c-.79,0-1.42-.23-1.89-.7-.47-.47-.7-1.09-.7-1.88v-3.84c0-.78.23-1.41.7-1.88s1.1-.7,1.89-.7,1.43.23,1.9.7c.46.47.7,1.09.7,1.88v3.84c0,.78-.23,1.41-.7,1.88s-1.1.7-1.89.7ZM428.4,479.38c.5,0,.91-.16,1.21-.49.3-.32.46-.75.46-1.28v-3.84c0-.53-.15-.95-.46-1.28-.3-.32-.71-.49-1.21-.49s-.91.16-1.21.49c-.3.32-.46.75-.46,1.28v3.84c0,.53.15.95.46,1.28.3.32.71.49,1.21.49ZM428.4,476.32c-.21,0-.37-.06-.5-.17s-.19-.28-.19-.49.06-.37.19-.47c.12-.11.29-.16.5-.16s.37.05.5.16c.12.11.19.27.19.47s-.06.37-.19.49c-.12.12-.29.17-.5.17Z"/>
      <path class="cls-6" d="M435.6,480.19c-.29,0-.52-.09-.7-.26s-.26-.4-.26-.68.09-.51.26-.69.41-.27.7-.27.52.09.7.27.26.41.26.69-.09.51-.26.68-.41.26-.7.26Z"/>
      <path class="cls-6" d="M442.8,480.19c-.79,0-1.42-.23-1.89-.7s-.7-1.09-.7-1.88v-3.84c0-.78.23-1.41.7-1.88.47-.47,1.1-.7,1.89-.7s1.43.23,1.9.7c.46.47.7,1.09.7,1.88v3.84c0,.78-.23,1.41-.7,1.88-.47.47-1.1.7-1.89.7ZM442.8,479.38c.5,0,.91-.16,1.21-.49.3-.32.46-.75.46-1.28v-3.84c0-.53-.15-.95-.46-1.28s-.71-.49-1.21-.49-.91.16-1.21.49-.46.75-.46,1.28v3.84c0,.53.15.95.46,1.28.3.32.71.49,1.21.49ZM442.8,476.32c-.21,0-.37-.06-.5-.17s-.19-.28-.19-.49.06-.37.19-.47c.12-.11.29-.16.5-.16s.37.05.5.16c.12.11.19.27.19.47s-.06.37-.19.49-.29.17-.5.17Z"/>
      <path class="cls-6" d="M450,480.19c-.29,0-.52-.09-.7-.26-.18-.17-.26-.4-.26-.68s.09-.51.26-.69c.18-.18.41-.27.7-.27s.52.09.7.27.26.41.26.69-.09.51-.26.68-.41.26-.7.26Z"/>
      <path class="cls-6" d="M457.2,480.19c-.79,0-1.42-.23-1.89-.7-.47-.47-.7-1.09-.7-1.88v-3.84c0-.78.23-1.41.7-1.88s1.1-.7,1.89-.7,1.43.23,1.9.7c.46.47.7,1.09.7,1.88v3.84c0,.78-.23,1.41-.7,1.88s-1.1.7-1.89.7ZM457.2,479.38c.5,0,.91-.16,1.21-.49.3-.32.46-.75.46-1.28v-3.84c0-.53-.15-.95-.46-1.28-.3-.32-.71-.49-1.21-.49s-.91.16-1.21.49c-.3.32-.46.75-.46,1.28v3.84c0,.53.15.95.46,1.28.3.32.71.49,1.21.49ZM457.2,476.32c-.21,0-.37-.06-.5-.17s-.19-.28-.19-.49.06-.37.19-.47c.12-.11.29-.16.5-.16s.37.05.5.16c.12.11.19.27.19.47s-.06.37-.19.49c-.12.12-.29.17-.5.17Z"/>
      <path class="cls-6" d="M464.4,480.19c-.29,0-.52-.09-.7-.26-.18-.17-.26-.4-.26-.68s.09-.51.26-.69c.18-.18.41-.27.7-.27s.52.09.7.27.26.41.26.69-.09.51-.26.68-.41.26-.7.26Z"/>
      <path class="cls-6" d="M469.12,480.07v-.86h2.4v-7.07l-2.38,1.78v-1.09l2.04-1.51h1.28v7.9h1.98v.86h-5.33Z"/>
    </g>
    <g>
      <path class="cls-6" d="M509.28,480.18c-.79,0-1.42-.23-1.88-.68s-.7-1.06-.7-1.83h.95c0,.51.15.92.45,1.21.3.3.7.44,1.19.44s.89-.15,1.19-.44.45-.7.45-1.21v-.54c0-.52-.14-.93-.43-1.23s-.68-.45-1.18-.45h-2.33v-4.15h4.6v.86h-3.71l.02,2.42h1.46c.79,0,1.41.22,1.85.67.44.44.66,1.07.66,1.88v.54c0,.77-.23,1.38-.7,1.83-.47.45-1.1.68-1.9.68Z"/>
      <path class="cls-6" d="M516.55,480.18c-.79,0-1.42-.23-1.89-.7s-.7-1.09-.7-1.88v-3.84c0-.78.23-1.41.7-1.88.47-.47,1.1-.7,1.89-.7s1.43.23,1.9.7c.46.47.7,1.09.7,1.88v3.84c0,.78-.23,1.41-.7,1.88-.47.47-1.1.7-1.89.7ZM516.55,479.37c.5,0,.91-.16,1.21-.49.3-.32.46-.75.46-1.28v-3.84c0-.53-.15-.95-.46-1.28s-.71-.49-1.21-.49-.91.16-1.21.49-.46.75-.46,1.28v3.84c0,.53.15.95.46,1.28.3.32.71.49,1.21.49ZM516.55,476.31c-.21,0-.37-.06-.5-.17s-.19-.28-.19-.49.06-.37.19-.47c.12-.11.29-.16.5-.16s.37.05.5.16c.12.11.19.27.19.47s-.06.37-.19.49-.29.17-.5.17Z"/>
      <path class="cls-6" d="M521.22,480.06v-.88l2.98-3.18c.42-.43.72-.84.9-1.21.18-.38.28-.74.28-1.1,0-.5-.15-.91-.44-1.21s-.7-.46-1.2-.46-.92.16-1.23.47c-.31.31-.46.72-.46,1.24h-.95c.02-.78.26-1.39.74-1.85.48-.46,1.11-.69,1.9-.69s1.43.23,1.9.68c.48.46.71,1.07.71,1.84,0,.43-.12.88-.35,1.36s-.61.98-1.13,1.54l-2.5,2.6h4.08v.86h-5.23Z"/>
    </g>
    <g>
      <g>
        <path class="cls-3" d="M430,391.48h27.45c5.6,0,10.15,4.55,10.15,10.15v27.45c0,5.6-4.55,10.15-10.15,10.15h-27.46c-5.6,0-10.15-4.55-10.15-10.15v-27.45c0-5.6,4.55-10.15,10.15-10.15Z"/>
        <path class="cls-9" d="M457.45,392.62c4.98,0,9.01,4.03,9.01,9.01v27.45c0,4.98-4.03,9.01-9.01,9.01h-27.45c-4.98,0-9.01-4.03-9.01-9.01v-27.45c0-4.98,4.03-9.01,9.01-9.01h27.45M457.45,390.34h-27.45c-6.22,0-11.29,5.06-11.29,11.28v27.45c0,6.22,5.06,11.28,11.29,11.28h27.45c6.22,0,11.29-5.06,11.29-11.28v-27.45c0-6.22-5.06-11.28-11.29-11.28h0Z"/>
      </g>
      <g>
        <path class="cls-7" d="M440.09,430.71h-.95v1.54h-.87v-4.34h1.9c.82,0,1.49.45,1.49,1.38,0,1-.67,1.43-1.57,1.43ZM440.13,428.75h-1v1.12h1.01c.4,0,.62-.19.62-.56s-.25-.55-.63-.55Z"/>
        <path class="cls-7" d="M442.48,432.24v-4.34h.87v3.48h2.18v.86h-3.04Z"/>
        <path class="cls-7" d="M448.63,429.17c-.15-.3-.4-.47-.79-.47-.65,0-1.02.57-1.02,1.38s.38,1.38,1.03,1.38c.39,0,.62-.17.85-.55l.73.43c-.3.61-.82.98-1.61.98-1.13,0-1.9-.87-1.9-2.24s.79-2.24,1.93-2.24c.82,0,1.31.4,1.59.96l-.81.37Z"/>
      </g>
      <rect class="cls-7" x="428.78" y="403.22" width="29.89" height="16.71" rx="1.43" ry="1.43"/>
      <rect class="cls-7" x="442.75" y="400" width="1.45" height="3.22" rx=".72" ry=".72"/>
      <rect class="cls-7" x="445.98" y="400" width="1.45" height="3.22" rx=".72" ry=".72"/>
      <rect class="cls-7" x="449.2" y="400" width="1.45" height="3.22" rx=".72" ry=".72"/>
      <rect class="cls-7" x="452.42" y="400" width="1.45" height="3.22" rx=".72" ry=".72"/>
      <rect class="cls-7" x="455.65" y="400" width="1.45" height="3.22" rx=".72" ry=".72"/>
      <rect class="cls-7" x="442.69" y="419.96" width="1.46" height="3.22" rx=".73" ry=".73"/>
      <rect class="cls-7" x="445.94" y="419.96" width="1.46" height="3.22" rx=".73" ry=".73"/>
      <rect class="cls-7" x="449.19" y="419.96" width="1.46" height="3.22" rx=".73" ry=".73"/>
      <rect class="cls-7" x="430.45" y="419.96" width="1.46" height="3.22" rx=".73" ry=".73"/>
      <rect class="cls-7" x="433.7" y="419.96" width="1.46" height="3.22" rx=".73" ry=".73"/>
      <rect class="cls-7" x="436.95" y="419.96" width="1.46" height="3.22" rx=".73" ry=".73"/>
      <rect class="cls-7" x="452.44" y="419.96" width="1.46" height="3.22" rx=".73" ry=".73"/>
      <path class="cls-9" d="M430.45,419.93h26.63v.24c0,.78-.63,1.41-1.41,1.41h-25.22v-1.65h0Z"/>
      <rect class="cls-9" x="430.84" y="405.34" width="7.96" height="9.55" rx=".57" ry=".57"/>
      <rect class="cls-4" x="451.69" y="409.54" width="2.52" height="5.36" rx=".29" ry=".29"/>
      <rect class="cls-9" x="430.84" y="415.64" width="1.64" height="1.64" rx=".29" ry=".29"/>
      <rect class="cls-4" x="432.95" y="415.64" width="1.64" height="1.64" rx=".29" ry=".29"/>
      <rect class="cls-9" x="435.06" y="415.64" width="1.64" height="1.64" rx=".29" ry=".29"/>
      <rect class="cls-4" x="437.17" y="415.64" width="1.64" height="1.64" rx=".29" ry=".29"/>
      <rect class="cls-4" x="442.36" y="410.87" width="1.64" height="1.64" rx=".29" ry=".29"/>
      <rect class="cls-9" x="444.46" y="410.87" width="1.64" height="1.64" rx=".29" ry=".29"/>
      <rect class="cls-4" x="446.57" y="410.87" width="1.64" height="1.64" rx=".29" ry=".29"/>
      <rect class="cls-4" x="448.68" y="410.87" width="1.64" height="1.64" rx=".29" ry=".29"/>
      <rect class="cls-9" x="442.36" y="413.26" width="1.64" height="1.64" rx=".29" ry=".29"/>
      <rect class="cls-4" x="444.46" y="413.26" width="1.64" height="1.64" rx=".29" ry=".29"/>
      <rect class="cls-9" x="446.57" y="413.26" width="1.64" height="1.64" rx=".29" ry=".29"/>
      <rect class="cls-9" x="448.68" y="413.26" width="1.64" height="1.64" rx=".29" ry=".29"/>
      <path class="cls-4" d="M454.97,409.54h2.18v1.89c0,.16-.13.29-.29.29h-1.9v-2.18h0Z"/>
      <rect class="cls-9" x="454.97" y="412.71" width="2.18" height="2.18" rx=".29" ry=".29"/>
      <rect class="cls-4" x="455.58" y="413.33" width=".96" height=".96"/>
      <path class="cls-9" d="M452.32,414.07v-3.7l1.16.58c.07.04.12.11.12.19v2.17c0,.08-.04.15-.12.19l-1.16.58Z"/>
      <polygon class="cls-9" points="455.53 411.3 455.53 409.95 456.59 410.18 456.59 411.07 455.53 411.3"/>
      <g>
        <path class="cls-4" d="M442.64,408.95v-2.67h1.05c.2,0,.38.04.52.12.14.08.25.18.33.32s.11.29.11.47-.04.33-.11.47c-.08.14-.19.24-.33.32-.14.08-.32.11-.53.11h-.67v-.45h.58c.11,0,.2-.02.27-.06.07-.04.12-.09.16-.16.04-.07.05-.14.05-.23s-.02-.17-.05-.23-.09-.12-.16-.16-.16-.06-.27-.06h-.38v2.21h-.57Z"/>
        <path class="cls-4" d="M445.02,408.95v-2.67h.57v2.21h1.15v.47h-1.71Z"/>
        <path class="cls-4" d="M449.36,407.21h-.57c-.01-.07-.03-.14-.06-.2-.03-.06-.07-.11-.12-.15-.05-.04-.11-.07-.17-.09-.07-.02-.14-.03-.21-.03-.14,0-.26.03-.36.1-.1.07-.18.17-.24.3-.06.13-.08.29-.08.47s.03.35.09.48.14.23.24.29.22.1.36.1c.08,0,.15,0,.21-.03.06-.02.12-.05.17-.09.05-.04.09-.09.13-.14s.06-.12.07-.19h.57c-.01.13-.05.24-.11.36-.06.11-.14.21-.24.3-.1.09-.22.16-.35.21s-.29.08-.46.08c-.24,0-.45-.05-.64-.16-.19-.11-.34-.26-.44-.47-.11-.2-.16-.45-.16-.74s.05-.54.16-.74c.11-.2.26-.36.45-.47.19-.11.4-.16.63-.16.15,0,.3.02.43.07.13.04.25.11.35.19.1.08.19.18.25.3.06.12.11.26.12.41Z"/>
      </g>
      <path class="cls-9" d="M431.86,401.57h25.22v1.65h-26.63v-.24c0-.78.63-1.41,1.41-1.41Z"/>
    </g>
    <g>
      <rect class="cls-8" x="259.23" y="294.22" width="5" height="109.03"/>
      <polygon class="cls-8" points="270.21 304.18 261.73 295.7 253.25 304.18 253.25 296.98 261.73 288.51 270.21 296.98 270.21 304.18"/>
    </g>
    <g>
      <g>
        <path class="cls-3" d="M238.57,223.25c-9.44,0-17.13-7.58-17.13-16.9v-42.32c0-9.32,7.68-16.9,17.13-16.9h46.32c9.44,0,17.13,7.58,17.13,16.9v42.32c0,9.32-7.68,16.9-17.13,16.9h-46.32Z"/>
        <path class="cls-9" d="M284.89,149.01c8.4,0,15.21,6.72,15.21,15.01v42.32c0,8.29-6.81,15.01-15.21,15.01h-46.32c-8.4,0-15.21-6.72-15.21-15.01v-42.32c0-8.29,6.81-15.01,15.21-15.01h46.32M284.89,145.22h-46.32c-10.5,0-19.04,8.43-19.04,18.8v42.32c0,10.37,8.54,18.8,19.04,18.8h46.32c10.5,0,19.04-8.43,19.04-18.8v-42.32c0-10.37-8.54-18.8-19.04-18.8h0Z"/>
      </g>
      <g>
        <rect class="cls-3" x="221.38" y="204.78" width="80.7" height="81.84" rx="16.25" ry="16.25"/>
        <path class="cls-9" d="M285.84,206.67c7.91,0,14.35,6.44,14.35,14.35v49.35c0,7.91-6.44,14.35-14.35,14.35h-48.21c-7.91,0-14.35-6.44-14.35-14.35v-49.35c0-7.91,6.44-14.35,14.35-14.35h48.21M285.84,202.89h-48.21c-10,0-18.14,8.14-18.14,18.14v49.35c0,10,8.14,18.14,18.14,18.14h48.21c10,0,18.14-8.14,18.14-18.14v-49.35c0-10-8.14-18.14-18.14-18.14h0Z"/>
      </g>
      <g>
        <g>
          <path class="cls-3" d="M238.54,257.61c-9.46,0-17.15-7.58-17.15-16.9v-45.72c0-9.32,7.69-16.9,17.15-16.9h46.37c9.46,0,17.15,7.58,17.15,16.9v45.72c0,9.32-7.69,16.9-17.15,16.9h-46.37Z"/>
          <path class="cls-9" d="M284.92,179.98c8.41,0,15.23,6.72,15.23,15.01v45.72c0,8.29-6.82,15.01-15.23,15.01h-46.37c-8.41,0-15.23-6.72-15.23-15.01v-45.72c0-8.29,6.82-15.01,15.23-15.01h46.37M284.92,176.2h-46.37c-10.51,0-19.07,8.43-19.07,18.8v45.72c0,10.37,8.55,18.8,19.07,18.8h46.37c10.51,0,19.07-8.43,19.07-18.8v-45.72c0-10.37-8.55-18.8-19.07-18.8h0Z"/>
        </g>
        <path class="cls-9" d="M248.46,213.5h19.25c.48,0,.86-.38.86-.85s-.39-.85-.86-.85h-4.09v-4.84l2,1.95c.34.33.89.33,1.22,0,.34-.33.33-.87,0-1.21h0l-3.49-3.41c-.34-.33-.88-.33-1.22,0l-3.49,3.45c-.34.33-.34.87,0,1.21s.89.33,1.22,0l2.04-2.01v4.86h-6.92v-9.11l2,1.95c.33.34.88.35,1.22.03.34-.33.36-.87.03-1.21-.01-.01-.02-.02-.03-.03l-3.49-3.41c-.34-.33-.88-.33-1.22,0l-3.5,3.45c-.34.33-.34.87,0,1.21.34.33.89.33,1.22,0l2.03-2.01v9.13h-4.77c-.48,0-.86.38-.86.85s.39.85.86.85Z"/>
        <path class="cls-9" d="M267.7,214.78h-19.25c-.48,0-.86.38-.86.85s.39.85.86.85h19.25c.48,0,.86-.38.86-.85s-.39-.85-.86-.85Z"/>
        <path class="cls-1" d="M258.07,194.37c8.34,0,15.11,6.67,15.11,14.89,0,8.22-6.76,14.89-15.1,14.89-8.34,0-15.11-6.67-15.11-14.89,0,0,0,0,0,0,0-8.22,6.77-14.88,15.1-14.89M258.07,190.14c-10.72,0-19.4,8.56-19.4,19.13s8.69,19.13,19.4,19.13,19.4-8.56,19.4-19.13h0c0-10.56-8.68-19.13-19.4-19.13,0,0,0,0,0,0Z"/>
        <rect class="cls-1" x="280.63" y="198.04" width="4.16" height="30.3"/>
        <rect class="cls-1" x="280.63" y="190.09" width="4.16" height="3.85"/>
        <g>
          <path class="cls-7" d="M254.17,241.18c0,.82-.16,1.51-.47,2.09-.31.57-.74,1.01-1.28,1.31-.54.3-1.14.45-1.82.45s-1.28-.15-1.82-.45c-.54-.3-.96-.74-1.27-1.32-.31-.57-.47-1.27-.47-2.09s.16-1.51.47-2.09c.31-.57.74-1.01,1.27-1.31s1.15-.45,1.82-.45,1.28.15,1.82.45c.54.3.97.74,1.28,1.31.31.57.47,1.27.47,2.09ZM252.54,241.18c0-.53-.08-.98-.24-1.34-.16-.36-.38-.64-.67-.83-.29-.19-.63-.28-1.02-.28s-.73.09-1.02.28c-.29.19-.52.46-.68.83-.16.36-.24.81-.24,1.34s.08.98.24,1.34c.16.36.39.64.68.83.29.19.63.28,1.02.28s.73-.09,1.02-.28c.29-.19.52-.46.67-.83.16-.36.24-.81.24-1.34Z"/>
          <path class="cls-7" d="M256.97,237.43v7.51h-1.61v-7.51h1.61Z"/>
          <path class="cls-7" d="M258.3,244.94v-7.51h3.05c.56,0,1.03.08,1.4.25.37.16.66.39.84.68s.28.62.28,1c0,.29-.06.55-.18.77-.12.22-.28.4-.49.54s-.44.24-.71.3v.07c.29.01.56.09.82.24s.46.36.62.62c.16.27.24.59.24.95,0,.4-.1.75-.3,1.07-.2.31-.49.56-.88.74-.39.18-.87.27-1.44.27h-3.25ZM259.91,240.57h1.19c.22,0,.42-.04.59-.12.17-.08.31-.19.41-.33.1-.14.15-.31.15-.51,0-.27-.1-.49-.29-.66-.2-.17-.47-.25-.83-.25h-1.22v1.86ZM259.91,243.64h1.31c.45,0,.78-.08.98-.25s.31-.4.31-.68c0-.21-.05-.39-.15-.55-.1-.16-.25-.28-.43-.37s-.41-.14-.67-.14h-1.35v1.99Z"/>
          <path class="cls-7" d="M268.85,242.54v-3.23h1.58v5.63h-1.52v-1.02h-.06c-.13.33-.34.6-.64.8-.3.2-.66.3-1.09.3-.38,0-.72-.09-1.01-.26-.29-.17-.52-.41-.68-.73-.16-.32-.24-.69-.25-1.13v-3.58h1.58v3.31c0,.33.09.6.27.79.18.19.42.29.72.29.19,0,.37-.04.54-.13.17-.09.3-.22.4-.39.1-.17.15-.38.15-.63Z"/>
          <path class="cls-7" d="M276.45,240.91l-1.45.09c-.02-.12-.08-.23-.16-.33-.08-.1-.19-.18-.32-.24-.13-.06-.29-.09-.47-.09-.25,0-.45.05-.62.15s-.25.24-.25.41c0,.13.05.25.16.34.11.09.3.17.56.22l1.03.21c.56.11.97.29,1.24.54s.41.58.41.98c0,.37-.11.69-.33.97s-.52.5-.9.65c-.38.16-.82.23-1.31.23-.76,0-1.36-.16-1.8-.47-.45-.31-.71-.74-.79-1.27l1.56-.08c.05.23.16.4.34.52s.41.18.7.18.5-.05.67-.16c.17-.11.26-.24.26-.41,0-.14-.06-.26-.18-.35-.12-.09-.3-.16-.55-.21l-.99-.19c-.56-.11-.97-.3-1.24-.57-.27-.27-.41-.62-.41-1.04,0-.36.1-.67.3-.93s.48-.46.84-.61.79-.21,1.28-.21c.72,0,1.29.15,1.7.45.42.3.66.71.73,1.23Z"/>
        </g>
      </g>
    </g>
    <g>
      <path class="cls-2" d="M240.54,165.38v-7.27h4.81v1.27h-3.28v1.73h2.96v1.27h-2.96v3h-1.54Z"/>
      <path class="cls-2" d="M247.12,159.22c-.23,0-.42-.08-.58-.23-.16-.15-.24-.33-.24-.54s.08-.39.24-.54c.16-.15.35-.23.58-.23s.42.08.58.23c.16.15.24.33.24.54s-.08.39-.24.54c-.16.15-.35.23-.58.23ZM246.36,165.38v-5.45h1.51v5.45h-1.51Z"/>
      <path class="cls-2" d="M250.6,158.11v7.27h-1.51v-7.27h1.51Z"/>
      <path class="cls-2" d="M254.29,165.49c-.56,0-1.04-.11-1.45-.34-.4-.23-.71-.55-.93-.97s-.33-.92-.33-1.49.11-1.05.33-1.48.53-.75.92-.99c.4-.24.86-.35,1.4-.35.36,0,.7.06,1.01.17.31.12.58.29.82.52s.42.52.54.87.2.75.2,1.22v.42h-4.61v-.94h3.18c0-.22-.05-.41-.14-.58s-.23-.3-.39-.4c-.17-.1-.36-.14-.58-.14s-.43.05-.61.16c-.18.11-.31.25-.41.42-.1.18-.15.37-.15.59v.89c0,.27.05.5.15.7.1.2.24.35.43.45s.4.16.66.16c.17,0,.32-.02.46-.07.14-.05.26-.12.36-.21s.17-.21.23-.35l1.4.09c-.07.34-.22.63-.43.88s-.5.44-.85.58c-.34.14-.74.21-1.19.21Z"/>
      <path class="cls-2" d="M261.77,165.38l-2.08-7.27h1.68l1.2,5.05h.06l1.33-5.05h1.44l1.33,5.06h.06l1.2-5.06h1.68l-2.08,7.27h-1.5l-1.38-4.75h-.06l-1.38,4.75h-1.5Z"/>
      <path class="cls-2" d="M270.12,165.38v-5.45h1.47v.95h.06c.1-.34.27-.59.5-.77s.5-.26.81-.26c.08,0,.16,0,.25.01.09,0,.16.02.23.04v1.34c-.07-.02-.17-.04-.29-.06-.12-.02-.24-.02-.34-.02-.22,0-.42.05-.59.14-.17.1-.31.23-.41.4-.1.17-.15.37-.15.59v3.09h-1.51Z"/>
      <path class="cls-2" d="M274.96,159.22c-.22,0-.42-.08-.58-.23-.16-.15-.24-.33-.24-.54s.08-.39.24-.54c.16-.15.35-.23.58-.23s.42.08.58.23.24.33.24.54-.08.39-.24.54-.35.23-.58.23ZM274.21,165.38v-5.45h1.51v5.45h-1.51Z"/>
      <path class="cls-2" d="M279.83,159.92v1.14h-3.28v-1.14h3.28ZM277.29,158.62h1.51v5.09c0,.14.02.25.06.32.04.08.1.13.18.16.08.03.17.05.27.05.07,0,.14,0,.21-.02.07-.01.13-.02.16-.03l.24,1.13c-.08.02-.18.05-.32.08-.14.03-.3.05-.5.06-.36.01-.68-.03-.96-.15s-.49-.28-.64-.52c-.15-.23-.23-.53-.22-.89v-5.28Z"/>
      <path class="cls-2" d="M283.24,165.49c-.56,0-1.04-.11-1.45-.34s-.71-.55-.93-.97c-.22-.42-.33-.92-.33-1.49s.11-1.05.33-1.48c.22-.42.52-.75.92-.99.4-.24.86-.35,1.4-.35.36,0,.7.06,1.01.17.31.12.58.29.82.52.23.23.42.52.55.87.13.35.2.75.2,1.22v.42h-4.61v-.94h3.18c0-.22-.05-.41-.14-.58s-.23-.3-.39-.4c-.17-.1-.36-.14-.58-.14-.23,0-.43.05-.61.16-.18.11-.31.25-.41.42-.1.18-.15.37-.15.59v.89c0,.27.05.5.15.7.1.2.24.35.43.45s.4.16.66.16c.17,0,.32-.02.46-.07.14-.05.26-.12.36-.21.1-.09.18-.21.23-.35l1.4.09c-.07.34-.22.63-.44.88-.22.25-.5.44-.84.58-.34.14-.74.21-1.19.21Z"/>
      <path class="cls-2" d="M286.73,165.38v-5.45h1.47v.95h.06c.1-.34.27-.59.5-.77s.5-.26.81-.26c.08,0,.16,0,.25.01s.17.02.23.04v1.34c-.07-.02-.17-.04-.29-.06-.13-.02-.24-.02-.34-.02-.22,0-.42.05-.59.14s-.31.23-.41.4c-.1.17-.15.37-.15.59v3.09h-1.51Z"/>
    </g>
    <g>
      <path class="cls-2" d="M242.8,268.35h1.9l2,4.89h.09l2-4.89h1.9v7.27h-1.49v-4.73h-.06l-1.88,4.7h-1.02l-1.88-4.72h-.06v4.75h-1.49v-7.27Z"/>
      <path class="cls-2" d="M254.38,275.73c-.55,0-1.03-.12-1.43-.35-.4-.24-.71-.56-.93-.99-.22-.42-.33-.91-.33-1.47s.11-1.06.33-1.48c.22-.42.53-.75.93-.99.4-.24.88-.35,1.43-.35s1.03.12,1.43.35c.4.24.71.56.93.99.22.42.33.92.33,1.48s-.11,1.05-.33,1.47c-.22.42-.53.75-.93.99-.4.24-.88.35-1.43.35ZM254.39,274.56c.25,0,.46-.07.63-.21s.29-.34.38-.59c.09-.25.13-.53.13-.85s-.04-.6-.13-.85c-.09-.25-.21-.45-.38-.59-.17-.14-.38-.22-.63-.22s-.47.07-.64.22c-.17.14-.3.34-.39.59-.09.25-.13.53-.13.85s.04.6.13.85c.09.25.22.44.39.59.17.14.38.21.64.21Z"/>
      <path class="cls-2" d="M260.07,275.71c-.42,0-.79-.11-1.12-.32-.33-.21-.6-.53-.8-.95s-.29-.93-.29-1.54.1-1.15.3-1.56c.2-.42.47-.73.8-.93s.7-.31,1.1-.31c.31,0,.56.05.77.15.2.1.37.23.5.38.13.15.22.3.29.45h.05v-2.73h1.51v7.27h-1.49v-.87h-.06c-.07.15-.17.3-.3.45-.13.15-.3.27-.5.37-.21.1-.45.15-.75.15ZM260.55,274.51c.24,0,.45-.07.62-.2s.3-.32.39-.56c.09-.24.14-.52.14-.85s-.04-.61-.13-.84-.22-.42-.39-.55c-.17-.13-.38-.2-.62-.2s-.46.07-.63.2c-.17.13-.3.32-.39.56-.09.24-.13.52-.13.83s.04.6.13.84c.09.24.22.43.39.57.17.14.38.2.63.2Z"/>
      <path class="cls-2" d="M264.44,275.62v-7.27h1.51v2.73h.05c.07-.15.16-.3.29-.45.13-.15.29-.28.5-.38.21-.1.46-.15.77-.15.4,0,.76.1,1.1.31s.61.52.81.93c.2.42.3.94.3,1.56s-.1,1.12-.29,1.54-.46.73-.8.95c-.33.21-.71.32-1.12.32-.29,0-.54-.05-.75-.15-.21-.1-.37-.22-.5-.37-.13-.15-.23-.3-.3-.45h-.07v.87h-1.49ZM265.92,272.9c0,.32.04.61.13.85.09.24.22.43.39.56.17.13.38.2.62.2s.46-.07.62-.2c.17-.14.3-.33.39-.57.09-.24.13-.52.13-.84s-.04-.59-.13-.83c-.09-.24-.22-.43-.39-.56-.17-.13-.38-.2-.63-.2s-.45.06-.62.2c-.17.13-.3.31-.39.55s-.13.52-.13.84Z"/>
      <path class="cls-2" d="M274.26,273.3v-3.13h1.51v5.45h-1.45v-.99h-.06c-.12.32-.33.58-.61.77-.29.19-.63.29-1.04.29-.37,0-.69-.08-.96-.25-.28-.17-.49-.4-.65-.71-.16-.31-.23-.67-.24-1.1v-3.47h1.51v3.2c0,.32.09.58.26.76.17.19.4.28.69.28.18,0,.35-.04.51-.13.16-.08.29-.21.38-.38.1-.17.15-.37.14-.61Z"/>
      <path class="cls-2" d="M281.52,271.72l-1.38.09c-.02-.12-.07-.23-.15-.32-.08-.1-.18-.17-.31-.23-.13-.06-.28-.09-.45-.09-.23,0-.43.05-.59.15s-.24.23-.24.39c0,.13.05.24.16.33s.28.16.54.22l.99.2c.53.11.93.28,1.19.53.26.24.39.56.39.95,0,.36-.1.67-.31.94-.21.27-.5.48-.86.63s-.78.23-1.26.23c-.72,0-1.3-.15-1.72-.45-.43-.3-.68-.71-.75-1.23l1.49-.08c.04.22.15.39.33.5.17.12.39.17.66.17s.48-.05.64-.15c.16-.1.24-.24.25-.4,0-.14-.06-.25-.17-.34-.11-.09-.29-.16-.53-.2l-.95-.19c-.53-.11-.93-.29-1.19-.55-.26-.26-.39-.6-.39-1,0-.35.09-.65.29-.91.19-.25.46-.45.81-.59.35-.14.75-.21,1.22-.21.69,0,1.23.15,1.63.44s.63.69.69,1.19Z"/>
    </g>
  </g>
</svg>