<?xml version="1.0" encoding="UTF-8"?>
<svg id="Calque_2" data-name="Calque 2" xmlns="http://www.w3.org/2000/svg" viewBox="0 0 804 617">
  <defs>
    <style>
      .cls-1 {
        fill: #fab911;
      }

      .cls-1, .cls-2, .cls-3, .cls-4, .cls-5, .cls-6, .cls-7, .cls-8, .cls-9 {
        stroke-width: 0px;
      }

      .cls-2 {
        fill: #0a9cd8;
      }

      .cls-3 {
        fill: #2c3c45;
      }

      .cls-4 {
        fill: #273d46;
      }

      .cls-5 {
        fill: #c2d1d9;
      }

      .cls-6 {
        fill: #ffe698;
      }

      .cls-7 {
        fill: #fab612;
      }

      .cls-10 {
        opacity: .9;
      }

      .cls-8 {
        fill: #fbba0e;
      }

      .cls-9 {
        fill: #fff;
      }
    </style>
  </defs>
  <g id="Calque_1-2" data-name="Calque 1">
    <rect class="cls-3" x="0" width="804" height="617" rx="14.17" ry="14.17"/>
    <polygon class="cls-9" points="205.99 183.3 205.88 182.81 243.77 174.47 243.77 91 213.66 38.6 214.1 38.35 244.27 90.87 244.27 174.87 244.08 174.91 205.99 183.3"/>
    <path class="cls-2" d="M804,201.92h-4v-2h4v2ZM792,201.92h-8v-2h8v2ZM776,201.92h-8v-2h8v2ZM760,201.92h-8v-2h8v2ZM744,201.92h-8v-2h8v2ZM728,201.92h-8v-2h8v2ZM712,201.92h-8v-2h8v2ZM696,201.92h-8v-2h8v2ZM680,201.92h-8v-2h8v2ZM664,201.92h-8v-2h8v2ZM648,201.92h-8v-2h8v2ZM632,201.92h-8v-2h8v2ZM616,201.92h-8v-2h8v2ZM600,201.92h-8v-2h8v2ZM584,201.92h-8v-2h8v2ZM568,201.92h-8v-2h8v2ZM552,201.92h-8v-2h8v2ZM536,201.92h-8v-2h8v2ZM520,201.92h-8v-2h8v2ZM504,201.92h-8v-2h8v2ZM488,201.92h-8v-2h8v2ZM472,201.92h-8v-2h8v2ZM456,201.92h-8v-2h8v2ZM440,201.92h-8v-2h8v2ZM424,201.92h-8v-2h8v2ZM408,201.92h-8v-2h8v2ZM392,201.92h-8v-2h8v2ZM376,201.92h-8v-2h8v2ZM360,201.92h-8v-2h8v2ZM344,201.92h-8v-2h8v2ZM328,201.92h-8v-2h8v2ZM312,201.92h-8v-2h8v2ZM296,201.92h-8v-2h8v2ZM280,201.92h-8v-2h8v2ZM264,201.92h-8v-2h8v2ZM248,201.92h-8v-2h8v2ZM232,201.92h-8v-2h8v2ZM216,201.92h-8v-2h8v2ZM200,201.92h-8v-2h8v2ZM184,201.92h-8v-2h8v2ZM168,201.92h-8v-2h8v2ZM152,201.92h-8v-2h8v2ZM136,201.92h-8v-2h8v2ZM120,201.92h-8v-2h8v2ZM104,201.92h-8v-2h8v2ZM88,201.92h-8v-2h8v2ZM72,201.92h-8v-2h8v2ZM56,201.92h-8v-2h8v2ZM40,201.92h-8v-2h8v2ZM24,201.92h-8v-2h8v2ZM8,201.92H0v-2h8v2Z"/>
    <g>
      <path class="cls-5" d="M679.05,188.82h-.84v-9.95h.84v9.95Z"/>
      <path class="cls-5" d="M682.33,181.42l.03,1.26c.28-.46.62-.8,1.04-1.04.41-.24.87-.36,1.37-.36.79,0,1.38.22,1.77.67s.58,1.12.59,2.01v4.85h-.81v-4.86c0-.66-.14-1.15-.42-1.48s-.72-.49-1.32-.49c-.51,0-.95.16-1.34.47-.39.32-.68.74-.86,1.28v5.07h-.81v-7.4h.78Z"/>
      <path class="cls-5" d="M690.52,179.53v1.89h1.53v.67h-1.53v4.93c0,.41.07.72.22.92.15.2.4.3.74.3.14,0,.36-.02.66-.07l.03.66c-.21.08-.51.12-.88.12-.56,0-.97-.16-1.22-.49-.26-.33-.38-.81-.38-1.44v-4.94h-1.36v-.67h1.36v-1.89h.82Z"/>
      <path class="cls-5" d="M696.61,188.96c-.63,0-1.2-.16-1.71-.46s-.9-.74-1.19-1.29c-.28-.55-.42-1.17-.42-1.86v-.29c0-.71.14-1.35.41-1.92s.66-1.02,1.15-1.34c.49-.33,1.03-.49,1.6-.49.9,0,1.61.31,2.14.92.53.61.79,1.45.79,2.51v.46h-5.28v.16c0,.84.24,1.54.72,2.1.48.56,1.09.84,1.81.84.44,0,.82-.08,1.16-.24s.64-.42.91-.77l.51.39c-.6.87-1.47,1.31-2.62,1.31ZM696.46,181.98c-.62,0-1.13.23-1.56.68s-.68,1.06-.77,1.82h4.44v-.09c-.02-.71-.23-1.29-.61-1.74s-.88-.67-1.5-.67Z"/>
      <path class="cls-5" d="M704.39,182.12c-.17-.03-.36-.05-.55-.05-.51,0-.94.14-1.3.43-.35.29-.6.7-.76,1.24v5.08h-.81v-7.4h.8v1.18c.45-.88,1.14-1.31,2.1-1.31.23,0,.41.03.54.09l-.02.75Z"/>
      <path class="cls-5" d="M706.47,181.42l.03,1.26c.28-.46.62-.8,1.04-1.04.41-.24.87-.36,1.37-.36.79,0,1.38.22,1.77.67s.58,1.12.59,2.01v4.85h-.81v-4.86c0-.66-.14-1.15-.42-1.48s-.72-.49-1.32-.49c-.51,0-.95.16-1.34.47-.39.32-.68.74-.86,1.28v5.07h-.81v-7.4h.78Z"/>
      <path class="cls-5" d="M716.24,188.96c-.63,0-1.2-.16-1.71-.46s-.9-.74-1.19-1.29c-.28-.55-.42-1.17-.42-1.86v-.29c0-.71.14-1.35.41-1.92s.66-1.02,1.15-1.34c.49-.33,1.03-.49,1.6-.49.9,0,1.61.31,2.14.92.53.61.79,1.45.79,2.51v.46h-5.28v.16c0,.84.24,1.54.72,2.1.48.56,1.09.84,1.81.84.44,0,.82-.08,1.16-.24s.64-.42.91-.77l.51.39c-.6.87-1.47,1.31-2.62,1.31ZM716.09,181.98c-.62,0-1.13.23-1.56.68s-.68,1.06-.77,1.82h4.44v-.09c-.02-.71-.23-1.29-.61-1.74s-.88-.67-1.5-.67Z"/>
      <path class="cls-5" d="M721.88,179.53v1.89h1.53v.67h-1.53v4.93c0,.41.07.72.22.92.15.2.4.3.74.3.14,0,.36-.02.66-.07l.03.66c-.21.08-.51.12-.88.12-.56,0-.97-.16-1.22-.49-.26-.33-.38-.81-.38-1.44v-4.94h-1.36v-.67h1.36v-1.89h.82Z"/>
    </g>
    <g>
      <path class="cls-2" d="M682.26,213.74h-4.66v4.06h5.35v.71h-6.19v-9.95h6.16v.71h-5.32v3.76h4.66v.71Z"/>
      <path class="cls-2" d="M685.32,211.11l.03,1.26c.28-.46.62-.8,1.04-1.04.41-.24.87-.36,1.37-.36.79,0,1.38.22,1.77.67s.58,1.12.59,2.01v4.85h-.81v-4.86c0-.66-.14-1.15-.42-1.48s-.72-.49-1.32-.49c-.51,0-.95.16-1.34.47-.39.32-.68.74-.86,1.28v5.07h-.81v-7.4h.78Z"/>
      <path class="cls-2" d="M693.5,209.22v1.89h1.53v.67h-1.53v4.93c0,.41.07.72.22.92.15.2.4.3.74.3.14,0,.36-.02.66-.07l.03.66c-.21.08-.51.12-.88.12-.56,0-.97-.16-1.22-.49-.26-.33-.38-.81-.38-1.44v-4.94h-1.36v-.67h1.36v-1.89h.82Z"/>
      <path class="cls-2" d="M699.59,218.65c-.63,0-1.2-.16-1.71-.46s-.9-.74-1.19-1.29c-.28-.55-.42-1.17-.42-1.86v-.29c0-.71.14-1.35.41-1.92s.66-1.02,1.15-1.34c.49-.33,1.03-.49,1.6-.49.9,0,1.61.31,2.14.92.53.61.79,1.45.79,2.51v.46h-5.28v.16c0,.84.24,1.54.72,2.1.48.56,1.09.84,1.81.84.44,0,.82-.08,1.16-.24s.64-.42.91-.77l.51.39c-.6.87-1.47,1.31-2.62,1.31ZM699.44,211.67c-.62,0-1.13.23-1.56.68s-.68,1.06-.77,1.82h4.44v-.09c-.02-.71-.23-1.29-.61-1.74s-.88-.67-1.5-.67Z"/>
      <path class="cls-2" d="M707.38,211.81c-.17-.03-.36-.05-.55-.05-.51,0-.94.14-1.3.43-.35.29-.6.7-.76,1.24v5.08h-.81v-7.4h.8v1.18c.45-.88,1.14-1.31,2.1-1.31.23,0,.41.03.54.09l-.02.75Z"/>
      <path class="cls-2" d="M714.61,214.89c0,1.15-.26,2.07-.77,2.74-.51.68-1.19,1.02-2.05,1.02-1.01,0-1.79-.36-2.32-1.07v3.77h-.81v-10.24h.76l.04,1.05c.53-.79,1.31-1.18,2.32-1.18.88,0,1.58.33,2.08,1s.76,1.6.76,2.79v.12ZM713.79,214.74c0-.94-.19-1.69-.58-2.24s-.93-.82-1.62-.82c-.5,0-.93.12-1.29.36s-.64.59-.83,1.05v3.55c.2.42.48.75.84.97s.8.33,1.29.33c.69,0,1.22-.27,1.61-.82.39-.55.58-1.35.58-2.39Z"/>
      <path class="cls-2" d="M719.84,211.81c-.17-.03-.36-.05-.55-.05-.51,0-.94.14-1.3.43-.35.29-.6.7-.76,1.24v5.08h-.81v-7.4h.8v1.18c.45-.88,1.14-1.31,2.1-1.31.23,0,.41.03.54.09l-.02.75Z"/>
      <path class="cls-2" d="M721.09,208.98c0-.15.05-.28.15-.39.1-.11.24-.16.41-.16s.31.05.41.16c.1.11.15.24.15.39s-.05.28-.15.39-.24.16-.41.16-.31-.05-.41-.16-.15-.23-.15-.39ZM722.05,218.51h-.82v-7.4h.82v7.4Z"/>
      <path class="cls-2" d="M728.7,216.63c0-.41-.16-.73-.49-.98s-.82-.44-1.47-.58c-.66-.14-1.17-.3-1.53-.48-.36-.18-.63-.4-.81-.66s-.26-.57-.26-.94c0-.58.24-1.07.73-1.45.49-.38,1.11-.57,1.87-.57.82,0,1.49.2,1.99.61.5.41.75.94.75,1.6h-.82c0-.43-.18-.79-.54-1.08s-.82-.43-1.37-.43-.97.12-1.3.36c-.33.24-.49.55-.49.93s.14.66.41.86c.27.2.77.39,1.48.56s1.26.35,1.61.54.62.42.8.69.26.59.26.98c0,.62-.25,1.12-.76,1.5s-1.16.56-1.97.56c-.86,0-1.56-.21-2.1-.62-.54-.42-.8-.95-.8-1.58h.82c.03.48.23.85.6,1.12.37.27.86.4,1.47.4.57,0,1.03-.12,1.38-.38s.53-.57.53-.95Z"/>
      <path class="cls-2" d="M734.23,218.65c-.63,0-1.2-.16-1.71-.46s-.9-.74-1.19-1.29c-.28-.55-.42-1.17-.42-1.86v-.29c0-.71.14-1.35.41-1.92s.66-1.02,1.15-1.34c.49-.33,1.03-.49,1.6-.49.9,0,1.61.31,2.14.92.53.61.79,1.45.79,2.51v.46h-5.28v.16c0,.84.24,1.54.72,2.1.48.56,1.09.84,1.81.84.44,0,.82-.08,1.16-.24s.64-.42.91-.77l.51.39c-.6.87-1.47,1.31-2.62,1.31ZM734.08,211.67c-.62,0-1.13.23-1.56.68s-.68,1.06-.77,1.82h4.44v-.09c-.02-.71-.23-1.29-.61-1.74s-.88-.67-1.5-.67Z"/>
      <path class="cls-2" d="M749.6,218.51h-.84l-5.72-8.52v8.52h-.85v-9.95h.85l5.73,8.52v-8.52h.83v9.95Z"/>
      <path class="cls-2" d="M754.8,218.65c-.63,0-1.2-.16-1.71-.46s-.9-.74-1.19-1.29c-.28-.55-.42-1.17-.42-1.86v-.29c0-.71.14-1.35.41-1.92s.66-1.02,1.15-1.34c.49-.33,1.03-.49,1.6-.49.9,0,1.61.31,2.14.92.53.61.79,1.45.79,2.51v.46h-5.28v.16c0,.84.24,1.54.72,2.1.48.56,1.09.84,1.81.84.44,0,.82-.08,1.16-.24s.64-.42.91-.77l.51.39c-.6.87-1.47,1.31-2.62,1.31ZM754.65,211.67c-.62,0-1.13.23-1.56.68s-.68,1.06-.77,1.82h4.44v-.09c-.02-.71-.23-1.29-.61-1.74s-.88-.67-1.5-.67Z"/>
      <path class="cls-2" d="M760.44,209.22v1.89h1.53v.67h-1.53v4.93c0,.41.07.72.22.92.15.2.4.3.74.3.14,0,.36-.02.66-.07l.03.66c-.21.08-.51.12-.88.12-.56,0-.97-.16-1.22-.49-.26-.33-.38-.81-.38-1.44v-4.94h-1.36v-.67h1.36v-1.89h.82Z"/>
      <path class="cls-2" d="M765.44,216.81l.12.64.16-.67,1.78-5.66h.7l1.76,5.61.19.78.16-.72,1.52-5.67h.85l-2.15,7.4h-.7l-1.9-5.87-.09-.4-.09.41-1.87,5.86h-.7l-2.15-7.4h.84l1.57,5.69Z"/>
      <path class="cls-2" d="M773.77,214.7c0-.71.14-1.35.41-1.92s.67-1.01,1.17-1.33c.5-.32,1.07-.47,1.71-.47.98,0,1.78.35,2.39,1.04.61.69.92,1.61.92,2.75v.17c0,.72-.14,1.36-.41,1.93-.28.57-.66,1.01-1.17,1.32s-1.07.46-1.72.46c-.98,0-1.78-.35-2.39-1.04-.61-.69-.92-1.61-.92-2.75v-.16ZM774.59,214.93c0,.88.23,1.61.69,2.18.46.57,1.06.85,1.8.85s1.34-.28,1.79-.85c.46-.57.69-1.32.69-2.25v-.16c0-.57-.1-1.08-.31-1.55s-.5-.83-.88-1.09c-.38-.26-.81-.39-1.3-.39-.73,0-1.32.29-1.78.86-.46.57-.69,1.32-.69,2.25v.15Z"/>
      <path class="cls-2" d="M785.48,211.81c-.17-.03-.36-.05-.55-.05-.51,0-.94.14-1.3.43-.35.29-.6.7-.76,1.24v5.08h-.81v-7.4h.8v1.18c.45-.88,1.14-1.31,2.1-1.31.23,0,.41.03.54.09l-.02.75Z"/>
      <path class="cls-2" d="M788.53,214.78l-.94.9v2.82h-.82v-10.5h.82v6.72l.77-.83,2.83-2.78h1.03l-3.14,3.12,3.41,4.28h-.98l-2.99-3.73Z"/>
    </g>
    <g>
      <path class="cls-6" d="M508.9,180.86c-.9,0-1.6-.26-2.12-.79-.52-.53-.78-1.27-.78-2.22v-4.48c0-.95.26-1.69.78-2.22.52-.53,1.23-.79,2.12-.79s1.6.26,2.12.79c.52.53.78,1.26.78,2.21v4.49c0,.95-.26,1.69-.78,2.22-.52.53-1.22.79-2.12.79ZM508.9,179.87c.57,0,1.01-.17,1.32-.5.31-.33.47-.8.47-1.41v-4.7c0-.61-.16-1.08-.47-1.41-.31-.33-.75-.5-1.32-.5s-1.01.17-1.32.5c-.31.33-.47.8-.47,1.41v4.7c0,.61.16,1.08.47,1.41.31.33.75.5,1.32.5Z"/>
      <path class="cls-6" d="M517.29,180.86c-.88,0-1.57-.26-2.09-.78-.51-.52-.77-1.23-.77-2.13v-4.93h1.11v4.93c0,.6.16,1.07.47,1.41.31.35.74.52,1.28.52s.98-.17,1.3-.52c.32-.34.48-.82.48-1.41v-4.93h1.11v4.93c0,.9-.26,1.61-.78,2.13-.52.52-1.22.78-2.1.78Z"/>
      <path class="cls-6" d="M526.47,180.72c-.63,0-1.12-.17-1.48-.53-.36-.35-.55-.83-.55-1.43v-4.73h-2.23v-1.01h2.23v-2.17h1.12v2.17h3.16v1.01h-3.16v4.73c0,.3.08.53.25.7.16.17.38.25.67.25h2.18v1.01h-2.18Z"/>
      <path class="cls-6" d="M534.48,180.86c-.57,0-1.04-.14-1.41-.41-.37-.27-.61-.65-.7-1.13v1.4h-1.11v-10.22h1.11v3.92c.07-.48.3-.85.69-1.13s.86-.41,1.43-.41c.77,0,1.39.26,1.85.77.46.51.69,1.21.69,2.09v2.28c0,.88-.23,1.57-.69,2.08s-1.08.76-1.84.76ZM534.13,179.9c.56,0,1-.15,1.31-.46.31-.3.47-.78.47-1.42v-2.28c0-.64-.16-1.12-.47-1.43-.31-.31-.75-.46-1.31-.46s-.98.17-1.29.51c-.31.34-.47.81-.47,1.42v2.18c0,.61.16,1.08.48,1.42s.75.51,1.29.51Z"/>
      <path class="cls-6" d="M542.5,180.85c-.9,0-1.61-.27-2.14-.8-.53-.53-.8-1.27-.8-2.21v-1.93c0-.94.26-1.68.79-2.21.53-.53,1.24-.8,2.15-.8s1.62.27,2.15.8c.53.53.79,1.27.79,2.21v1.93c0,.94-.27,1.68-.8,2.21-.53.53-1.25.8-2.14.8ZM542.5,179.86c.57,0,1.02-.16,1.34-.49.33-.33.49-.8.49-1.43v-2.13c0-.62-.16-1.1-.49-1.43-.33-.33-.77-.49-1.34-.49s-1.02.16-1.34.49c-.33.33-.49.8-.49,1.43v2.13c0,.63.16,1.1.49,1.43.33.33.77.49,1.34.49Z"/>
      <path class="cls-6" d="M550.89,180.86c-.88,0-1.57-.26-2.09-.78-.51-.52-.77-1.23-.77-2.13v-4.93h1.11v4.93c0,.6.16,1.07.47,1.41.31.35.74.52,1.28.52s.98-.17,1.3-.52c.32-.34.48-.82.48-1.41v-4.93h1.11v4.93c0,.9-.26,1.61-.78,2.13-.52.52-1.22.78-2.1.78Z"/>
      <path class="cls-6" d="M556.46,180.72v-7.7h1.11v1.43c.08-.49.31-.88.67-1.15s.83-.41,1.42-.41c.77,0,1.38.24,1.83.72.46.48.69,1.13.69,1.95v5.17h-1.11v-4.98c0-.62-.15-1.09-.46-1.42-.31-.33-.73-.5-1.26-.5s-.98.17-1.3.52c-.32.34-.48.83-.48,1.44v4.94h-1.11Z"/>
      <path class="cls-6" d="M567.32,180.86c-.77,0-1.38-.25-1.84-.76s-.69-1.2-.69-2.08v-2.28c0-.88.23-1.57.69-2.09.46-.51,1.07-.77,1.85-.77.57,0,1.05.14,1.43.41s.62.65.7,1.13v-1.72s-.01-2.2-.01-2.2h1.11v10.22h-1.11v-1.4c-.09.48-.33.85-.7,1.13-.37.28-.84.41-1.41.41ZM567.67,179.9c.54,0,.97-.17,1.29-.51s.48-.81.48-1.42v-2.18c0-.61-.16-1.08-.47-1.42-.31-.34-.74-.51-1.29-.51s-1,.15-1.31.46c-.31.31-.47.78-.47,1.43v2.28c0,.64.16,1.12.47,1.42.31.3.75.46,1.31.46Z"/>
      <path class="cls-6" d="M506.06,195.72v-10.22h3.21c.94,0,1.69.27,2.25.8.56.54.83,1.26.83,2.16s-.28,1.62-.83,2.16c-.56.54-1.3.81-2.25.81h-2.1v4.28h-1.11ZM507.17,190.43h2.1c.59,0,1.06-.18,1.41-.53.35-.35.52-.83.52-1.43s-.17-1.08-.52-1.43c-.35-.35-.82-.53-1.41-.53h-2.1v3.92Z"/>
      <path class="cls-6" d="M517.3,195.85c-.9,0-1.61-.27-2.14-.8-.53-.53-.8-1.27-.8-2.21v-1.93c0-.94.26-1.68.79-2.21.53-.53,1.24-.8,2.15-.8s1.62.27,2.15.8c.53.53.79,1.27.79,2.21v1.93c0,.94-.27,1.68-.8,2.21-.53.53-1.25.8-2.14.8ZM517.3,194.86c.57,0,1.02-.16,1.34-.49.33-.33.49-.8.49-1.43v-2.13c0-.62-.16-1.1-.49-1.43-.33-.33-.77-.49-1.34-.49s-1.02.16-1.34.49c-.33.33-.49.8-.49,1.43v2.13c0,.63.16,1.1.49,1.43.33.33.77.49,1.34.49Z"/>
      <path class="cls-6" d="M523.14,195.72v-7.7h1.12v1.43c.08-.48.31-.87.67-1.15s.83-.42,1.41-.42c.81,0,1.43.24,1.86.72s.64,1.16.64,2.04v.67h-1.11v-.67c0-1.19-.57-1.79-1.72-1.79-.57,0-1,.17-1.3.5-.3.34-.45.81-.45,1.43v4.94h-1.12Z"/>
      <path class="cls-6" d="M534.87,195.72c-.63,0-1.12-.17-1.48-.53-.36-.35-.55-.83-.55-1.43v-4.73h-2.23v-1.01h2.23v-2.17h1.12v2.17h3.16v1.01h-3.16v4.73c0,.3.08.53.25.7.16.17.38.25.67.25h2.18v1.01h-2.18Z"/>
      <path class="cls-6" d="M553.49,197.4c-1.31-.3-2.32-.92-3.03-1.87-.71-.95-1.07-2.13-1.07-3.55v-2.6c0-1.42.36-2.6,1.07-3.55.71-.95,1.72-1.57,3.03-1.87v1.06c-.93.22-1.67.72-2.2,1.5-.53.78-.8,1.73-.8,2.86v2.6c0,1.13.27,2.08.8,2.86.53.77,1.26,1.27,2.2,1.5v1.06Z"/>
      <path class="cls-6" d="M560.77,195.72v-2.28h-4.63v-1.82l3.79-6.12h1.26l-3.95,6.38v.55h3.53v-2.59h1.12v5.88h-1.12Z"/>
      <path class="cls-6" d="M569.17,195.72v-2.28h-4.63v-1.82l3.79-6.12h1.26l-3.95,6.38v.55h3.53v-2.59h1.12v5.88h-1.12Z"/>
      <path class="cls-6" d="M575.95,195.86c-.92,0-1.66-.26-2.2-.79-.54-.53-.81-1.24-.81-2.13h1.11c0,.6.17,1.07.52,1.41.35.35.81.52,1.39.52s1.04-.17,1.39-.52c.35-.34.52-.82.52-1.41v-.76c0-.59-.17-1.05-.52-1.39s-.81-.5-1.4-.5h-1.04v-.97l2.59-2.81h-4.28v-1.01h5.53v1.04l-2.53,2.77c.85.05,1.52.33,2.02.84.49.51.74,1.19.74,2.03v.76c0,.9-.27,1.61-.82,2.13-.55.53-1.29.79-2.22.79Z"/>
      <path class="cls-6" d="M581.91,197.4v-1.06c.93-.22,1.67-.72,2.2-1.5.53-.77.8-1.73.8-2.86v-2.6c0-1.13-.27-2.08-.8-2.86-.53-.77-1.27-1.27-2.2-1.5v-1.06c1.31.3,2.32.92,3.03,1.87.71.95,1.07,2.13,1.07,3.55v2.6c0,1.42-.36,2.6-1.07,3.55-.71.95-1.72,1.57-3.03,1.87Z"/>
    </g>
    <g>
      <g>
        <path class="cls-3" d="M429.96,242.39c-9.43,0-17.1-7.58-17.1-16.9v-45.72c0-9.32,7.67-16.9,17.1-16.9h46.26c9.43,0,17.1,7.58,17.1,16.9v45.72c0,9.32-7.67,16.9-17.1,16.9h-46.26Z"/>
        <path class="cls-9" d="M476.22,164.76c8.39,0,15.18,6.72,15.18,15.01v45.72c0,8.29-6.8,15.01-15.18,15.01h-46.26c-8.39,0-15.18-6.72-15.18-15.01v-45.72c0-8.29,6.8-15.01,15.18-15.01h46.26M476.22,160.98h-46.26c-10.49,0-19.02,8.43-19.02,18.8v45.72c0,10.36,8.53,18.8,19.02,18.8h46.26c10.49,0,19.02-8.43,19.02-18.8v-45.72c0-10.36-8.53-18.8-19.02-18.8h0Z"/>
      </g>
      <g>
        <path class="cls-7" d="M435.61,224.96v1.36h2.2v1.4h-2.2v3.05h-1.46v-7.23h5.23v1.42h-3.77Z"/>
        <path class="cls-7" d="M441.2,224.91c-.45,0-.82-.37-.82-.82s.38-.81.82-.81.82.37.82.81-.38.82-.82.82ZM440.48,230.77v-5.42h1.44v5.42h-1.44Z"/>
        <path class="cls-7" d="M446.58,227.01c-.23-.21-.51-.35-.84-.35-.56,0-.93.24-.93,1.18v2.93h-1.44v-5.42h1.44v.36c.25-.26.62-.47,1.13-.47.47,0,.82.19,1.01.38l-.38,1.39Z"/>
        <path class="cls-7" d="M452.14,228.52h-3.28c.05.74.61,1.02,1.13,1.02.4,0,.73-.14.94-.38l1.02.85c-.44.56-1.23.88-1.96.88-1.58,0-2.58-1.1-2.58-2.82s1.06-2.83,2.44-2.83c1.46,0,2.31,1.28,2.31,2.83,0,.21-.01.35-.02.45ZM449.77,226.47c-.52,0-.85.42-.9.97h1.88c-.04-.48-.33-.97-.98-.97Z"/>
        <path class="cls-7" d="M459.76,230.77h-1.43l-.9-3.72c-.1-.43-.21-.97-.25-1.24-.03.27-.14.82-.24,1.24l-.92,3.72h-1.37l-1.53-7.23h1.53l.64,3.52c.06.35.15.89.18,1.19.05-.3.17-.84.25-1.19l.86-3.52h1.27l.87,3.52c.08.35.2.89.25,1.19.03-.3.11-.85.18-1.19l.64-3.52h1.5l-1.52,7.23Z"/>
        <path class="cls-7" d="M465,230.77v-.36c-.26.27-.72.47-1.23.47-1.02,0-2.05-.62-2.05-1.93,0-1.2.98-1.8,2.22-1.8.5,0,.82.1,1.06.22v-.27c0-.38-.26-.69-.78-.69-.66,0-1,.09-1.5.36l-.55-.99c.64-.36,1.17-.55,2.06-.55,1.33,0,2.22.68,2.22,1.9v3.63h-1.44ZM465,228.5c-.25-.15-.49-.23-1-.23-.54,0-.84.25-.84.68,0,.38.22.72.84.72.47,0,.85-.24,1-.5v-.68Z"/>
        <path class="cls-7" d="M467.84,230.77v-6.81l1.44-.71v7.53h-1.44Z"/>
        <path class="cls-7" d="M470.78,230.77v-6.81l1.44-.71v7.53h-1.44Z"/>
      </g>
      <path class="cls-4" d="M469.15,183.85c0,1.96-.03,3.93-.16,5.85-.76,11.14-5.96,19.13-15.9,24.43-8.83-4.66-13.92-11.56-15.52-21.08-.36-2.1-.44-4.34-.5-6.46-.06-2.27-.05-4.6-.03-6.85,0-.62.01-1.24.01-1.86,1.04-.08,2.11-.18,3.16-.3,4.59-.53,8.9-1.67,12.82-3.39,4.72,2.23,9.88,3.53,15.77,3.99.1.01.21.02.32.02,0,.84.01,1.67.02,2.51.01,1.04.02,2.09.02,3.14Z"/>
      <path class="cls-7" d="M473.68,180.67c-.02-1.35-.03-2.7-.02-4.04,0-.35-.06-.63-.09-.81l-.02-.07c-.16-1.04-1.03-1.82-2.09-1.89l-.73-.04c-.53-.03-1.06-.07-1.58-.11-5.48-.43-10.24-1.65-14.54-3.74-1.02-.5-2.03-.51-3.07-.04-3.61,1.62-7.6,2.7-11.88,3.19-1.13.13-2.25.23-3.45.33-.55.04-1.1.09-1.66.14-1.17.11-2.07,1.08-2.07,2.23v.91c0,.99,0,1.99-.01,2.99-.01,2.28-.02,4.65.04,6.99.06,2.27.15,4.69.56,7.08,1.83,10.85,7.85,19.03,17.9,24.31.72.38,1.42.57,2.12.57s1.37-.18,2.07-.55c11.32-6,17.5-15.46,18.36-28.12.21-3.13.18-6.28.15-9.33ZM468.99,189.7c-.76,11.14-5.96,19.13-15.9,24.43-8.83-4.66-13.92-11.56-15.52-21.08-.36-2.1-.44-4.34-.5-6.46-.06-2.27-.05-4.6-.03-6.85,0-.62.01-1.24.01-1.86,1.04-.08,2.11-.18,3.16-.3,4.59-.53,8.9-1.67,12.82-3.39,4.72,2.23,9.88,3.53,15.77,3.99.1.01.21.02.32.02,0,.84.01,1.67.02,2.51.01,1.04.02,2.09.02,3.14,0,1.96-.03,3.93-.16,5.85Z"/>
      <path class="cls-9" d="M460.97,191.12c-.27-.46-.58-.92-.93-1.36-.26-.32-.53-.64-.9-.94.04.3.08.53.1.77,0,.02,0,.04,0,.05.06.72.08,1.43-.14,2.12-.07.23-.17.46-.31.67-.33.57-.83.89-1.51.82-.7-.07-1.01-.55-1.19-1.15-.01-.02-.02-.05-.03-.07-.2-.7-.17-1.42-.09-2.14.14-1.2-.01-2.34-.39-3.44-.18-.54-.43-1.07-.73-1.59-.83-1.45-1.91-2.72-3.06-3.93-.09-.06-.12-.09-.21-.14-.02-.01-.11-.05-.12-.07,0,0,.49,3.33-3.16,7.33-.48.39-.93.84-1.35,1.33-.3.34-.58.7-.84,1.08h0c-1.4,2.01-2.27,4.42-2.27,6.6,0,4.32,3.25,7.61,7.42,8.32,0,0,.02,0,.04,0,1.81.48,3.46-.02,3.46-.02,0,0,.01,0,.04-.01h0c1.25-.24,2.43-.71,3.46-1.4,0,0,0-.01.01-.01,1.36-.86,2.44-2.06,3.13-3.67,0-.01.01-.03.01-.04.32-.69.55-1.43.69-2.23.48-2.42.11-4.73-1.16-6.88ZM459.69,200.81c-.39.95-.96,1.78-1.72,2.48-.6.55-1.22,1.09-2.07,1.26.14-.18.29-.35.45-.52.81-.91,1.07-1.98.92-3.17-.17-1.43-.99-2.5-1.91-3.54-.64-.73-1.25-1.5-1.61-2.43-.14-.36-.18-.73-.24-1.1-.04-.18-.09-.17-.2-.06-.82.84-1.38,1.79-1.47,2.99-.05.69.19,1.34.14,2.02-.05.58-.6,1.05-1.15.91-.36-.08-.71-.59-.77-1.06-.03-.29-.07-.58-.04-.88-.35.41-.64.82-.83,1.29-.35.85-.48,1.74-.36,2.63.1.73.33,1.44.76,2.07.26.36.58.65.87.98,0,0,.02.01.03.01-.04,0-.06-.01-.09-.03-.02,0-.04,0-.06-.01-.01,0-.02,0-.03,0h-.01c-.06-.01-.11-.03-.16-.05-.31-.12-.58-.3-.87-.46-.99-.58-1.76-1.39-2.35-2.35-.44-.73-.67-1.55-.8-2.38-.16-1.03,0-2.02.28-2.99.27-.92.73-1.77,1.27-2.57.41-.6.87-1.17,1.33-1.73.68-.81,1.4-1.6,2.05-2.43.6-.78,1.14-1.6,1.56-2.49.04-.09.06-.21.16-.22.11-.01.14.11.19.18.43.56.82,1.14,1.09,1.78.28.66.42,1.36.44,2.07.01.38,0,.76.03,1.14.01.44.08.87.23,1.31.44,1.17,1.44,1.94,2.72,1.9.74-.02,1.36-.34,1.9-.82.36-.33.34-.34.5.11.34,1.05.52,2.12.48,3.23-.04,1.03-.26,2.02-.66,2.97Z"/>
      <path class="cls-7" d="M455.9,204.55c.14-.18.29-.35.45-.52.81-.91,1.07-1.98.92-3.17-.17-1.43-.99-2.5-1.91-3.54-.64-.73-1.25-1.5-1.61-2.43-.14-.36-.18-.73-.24-1.1-.04-.18-.09-.17-.2-.06-.82.84-1.38,1.79-1.47,2.99-.05.69.19,1.34.14,2.02-.05.58-.6,1.05-1.15.91-.36-.08-.71-.59-.77-1.06-.03-.29-.07-.58-.04-.88-.35.41-.64.82-.83,1.29-.35.85-.48,1.74-.36,2.63.1.73.33,1.44.76,2.07.26.36.58.65.87.98,0,0,.02.01.03.01-.04,0-.06-.01-.09-.03-.02,0-.04,0-.06-.01-.01,0-.02,0-.03,0h-.01c-.06-.01-.11-.03-.16-.05-.31-.12-.58-.3-.87-.46-.99-.58-1.76-1.39-2.35-2.35-.44-.73-.67-1.55-.8-2.38-.16-1.03,0-2.02.28-2.99.27-.92.73-1.77,1.27-2.57.41-.6.87-1.17,1.33-1.73.68-.81,1.4-1.6,2.05-2.43.6-.78,1.14-1.6,1.56-2.49.04-.09.06-.21.16-.22.11-.01.14.11.19.18.43.56.82,1.14,1.09,1.78.28.66.42,1.36.44,2.07.01.38,0,.76.03,1.14.01.44.08.87.23,1.31.44,1.17,1.44,1.94,2.72,1.9.74-.02,1.36-.34,1.9-.82.36-.33.34-.34.5.11.34,1.05.52,2.12.48,3.23-.04,1.03-.26,2.02-.66,2.97-.39.95-.96,1.78-1.72,2.48-.6.55-1.22,1.09-2.07,1.26Z"/>
    </g>
    <g>
      <g>
        <path class="cls-3" d="M429.93,382.63c-9.44,0-17.13-7.58-17.13-16.9v-42.32c0-9.32,7.68-16.9,17.13-16.9h46.32c9.44,0,17.13,7.58,17.13,16.9v42.32c0,9.32-7.68,16.9-17.13,16.9h-46.32Z"/>
        <path class="cls-9" d="M476.25,308.39c8.4,0,15.21,6.72,15.21,15.01v42.32c0,8.29-6.81,15.01-15.21,15.01h-46.32c-8.4,0-15.21-6.72-15.21-15.01v-42.32c0-8.29,6.81-15.01,15.21-15.01h46.32M476.25,304.6h-46.32c-10.5,0-19.04,8.43-19.04,18.8v42.32c0,10.37,8.54,18.8,19.04,18.8h46.32c10.5,0,19.04-8.43,19.04-18.8v-42.32c0-10.37-8.54-18.8-19.04-18.8h0Z"/>
      </g>
      <g>
        <rect class="cls-3" x="412.74" y="364.16" width="80.7" height="81.84" rx="16.25" ry="16.25"/>
        <path class="cls-9" d="M477.2,366.05c7.91,0,14.35,6.44,14.35,14.35v49.35c0,7.91-6.44,14.35-14.35,14.35h-48.21c-7.91,0-14.35-6.44-14.35-14.35v-49.35c0-7.91,6.44-14.35,14.35-14.35h48.21M477.2,362.26h-48.21c-10,0-18.14,8.14-18.14,18.14v49.35c0,10,8.14,18.14,18.14,18.14h48.21c10,0,18.14-8.14,18.14-18.14v-49.35c0-10-8.14-18.14-18.14-18.14h0Z"/>
      </g>
      <g>
        <g>
          <path class="cls-3" d="M429.9,416.99c-9.46,0-17.15-7.58-17.15-16.9v-45.72c0-9.32,7.69-16.9,17.15-16.9h46.37c9.46,0,17.15,7.58,17.15,16.9v45.72c0,9.32-7.69,16.9-17.15,16.9h-46.37Z"/>
          <path class="cls-9" d="M476.28,339.36c8.41,0,15.23,6.72,15.23,15.01v45.72c0,8.29-6.82,15.01-15.23,15.01h-46.37c-8.41,0-15.23-6.72-15.23-15.01v-45.72c0-8.29,6.82-15.01,15.23-15.01h46.37M476.28,335.57h-46.37c-10.51,0-19.07,8.43-19.07,18.8v45.72c0,10.37,8.55,18.8,19.07,18.8h46.37c10.51,0,19.07-8.43,19.07-18.8v-45.72c0-10.37-8.55-18.8-19.07-18.8h0Z"/>
        </g>
        <path class="cls-9" d="M439.81,372.88h19.25c.48,0,.86-.38.86-.85s-.39-.85-.86-.85h-4.09v-4.84l2,1.95c.34.33.89.33,1.22,0,.34-.33.33-.87,0-1.21h0l-3.49-3.41c-.34-.33-.88-.33-1.22,0l-3.49,3.45c-.34.33-.34.87,0,1.21s.89.33,1.22,0l2.04-2.01v4.86h-6.92v-9.11l2,1.95c.33.34.88.35,1.22.03s.36-.87.03-1.21c-.01-.01-.02-.02-.03-.03l-3.49-3.41c-.34-.33-.88-.33-1.22,0l-3.5,3.45c-.34.33-.34.87,0,1.21s.89.33,1.22,0l2.03-2.01v9.13h-4.77c-.48,0-.86.38-.86.85s.39.85.86.85Z"/>
        <path class="cls-9" d="M459.06,374.15h-19.25c-.48,0-.86.38-.86.85s.39.85.86.85h19.25c.48,0,.86-.38.86-.85s-.39-.85-.86-.85Z"/>
        <path class="cls-1" d="M449.43,353.75c8.34,0,15.11,6.67,15.11,14.89,0,8.22-6.76,14.89-15.1,14.89-8.34,0-15.11-6.67-15.11-14.89,0,0,0,0,0,0,0-8.22,6.77-14.88,15.1-14.89M449.43,349.51c-10.72,0-19.4,8.56-19.4,19.13s8.69,19.13,19.4,19.13,19.4-8.56,19.4-19.13h0c0-10.56-8.68-19.13-19.4-19.13,0,0,0,0,0,0Z"/>
        <rect class="cls-1" x="471.99" y="357.42" width="4.16" height="30.3"/>
        <rect class="cls-1" x="471.99" y="349.47" width="4.16" height="3.85"/>
        <g>
          <path class="cls-7" d="M445.53,400.56c0,.82-.16,1.51-.47,2.09-.31.57-.74,1.01-1.28,1.31-.54.3-1.14.45-1.82.45s-1.28-.15-1.82-.45c-.54-.3-.96-.74-1.27-1.32-.31-.57-.47-1.27-.47-2.09s.16-1.51.47-2.09c.31-.57.74-1.01,1.27-1.31s1.15-.45,1.82-.45,1.28.15,1.82.45c.54.3.97.74,1.28,1.31.31.57.47,1.27.47,2.09ZM443.9,400.56c0-.53-.08-.98-.24-1.34-.16-.36-.38-.64-.67-.83-.29-.19-.63-.28-1.02-.28s-.73.09-1.02.28c-.29.19-.52.46-.68.83-.16.36-.24.81-.24,1.34s.08.98.24,1.34c.16.36.39.64.68.83.29.19.63.28,1.02.28s.73-.09,1.02-.28c.29-.19.52-.46.67-.83.16-.36.24-.81.24-1.34Z"/>
          <path class="cls-7" d="M448.33,396.81v7.51h-1.61v-7.51h1.61Z"/>
          <path class="cls-7" d="M449.66,404.32v-7.51h3.05c.56,0,1.03.08,1.4.25.37.16.66.39.84.68s.28.62.28,1c0,.29-.06.55-.18.77-.12.22-.28.4-.49.54s-.44.24-.71.3v.07c.29.01.56.09.82.24s.46.36.62.62.24.59.24.95c0,.4-.1.75-.3,1.07s-.49.56-.88.74c-.39.18-.87.27-1.44.27h-3.25ZM451.27,399.95h1.19c.22,0,.42-.04.59-.12.17-.08.31-.19.41-.33.1-.14.15-.31.15-.51,0-.27-.1-.49-.29-.66-.2-.17-.47-.25-.83-.25h-1.22v1.86ZM451.27,403.02h1.31c.45,0,.78-.08.98-.25s.31-.4.31-.68c0-.21-.05-.39-.15-.55-.1-.16-.25-.28-.43-.37s-.41-.14-.67-.14h-1.35v1.99Z"/>
          <path class="cls-7" d="M460.21,401.92v-3.23h1.58v5.63h-1.52v-1.02h-.06c-.13.33-.34.6-.64.8-.3.2-.66.3-1.09.3-.38,0-.72-.09-1.01-.26-.29-.17-.52-.41-.68-.73-.16-.32-.24-.69-.25-1.13v-3.58h1.58v3.31c0,.33.09.6.27.79.18.19.42.29.72.29.19,0,.37-.04.54-.13.17-.09.3-.22.4-.39.1-.17.15-.38.15-.63Z"/>
          <path class="cls-7" d="M467.81,400.29l-1.45.09c-.02-.12-.08-.23-.16-.33-.08-.1-.19-.18-.32-.24-.13-.06-.29-.09-.47-.09-.25,0-.45.05-.62.15s-.25.24-.25.41c0,.13.05.25.16.34.11.09.3.17.56.22l1.03.21c.56.11.97.29,1.24.54s.41.58.41.98c0,.37-.11.69-.33.97s-.52.5-.9.65c-.38.16-.82.23-1.31.23-.76,0-1.36-.16-1.8-.47-.45-.31-.71-.74-.79-1.27l1.56-.08c.05.23.16.4.34.52s.41.18.7.18.5-.05.67-.16c.17-.11.26-.24.26-.41,0-.14-.06-.26-.18-.35-.12-.09-.3-.16-.55-.21l-.99-.19c-.56-.11-.97-.3-1.24-.57-.27-.27-.41-.62-.41-1.04,0-.36.1-.67.3-.93s.48-.46.84-.61.79-.21,1.28-.21c.72,0,1.29.15,1.7.45.42.3.66.71.73,1.23Z"/>
        </g>
      </g>
    </g>
    <g>
      <path class="cls-8" d="M456.02,160.98h-5v-14c0-6.44-5.47-11.67-12.19-11.67h-125.03v-5h125.03c9.48,0,17.19,7.48,17.19,16.67v14Z"/>
      <polygon class="cls-8" points="323.77 141.28 315.28 132.8 323.77 124.32 316.57 124.32 308.09 132.8 316.57 141.28 323.77 141.28"/>
    </g>
    <g>
      <path class="cls-2" d="M435.85,427h1.9l2,4.89h.09l2-4.89h1.9v7.27h-1.49v-4.73h-.06l-1.88,4.7h-1.02l-1.88-4.72h-.06v4.75h-1.49v-7.27Z"/>
      <path class="cls-2" d="M448.94,429.09c-.03-.29-.15-.51-.37-.67-.22-.16-.51-.24-.88-.24-.25,0-.46.04-.64.11-.17.07-.3.17-.4.29-.09.12-.14.26-.14.42,0,.13.02.24.08.34.06.1.14.18.25.25.11.07.23.13.37.18s.29.09.45.13l.65.16c.32.07.61.17.87.28.27.12.49.26.69.44.19.17.35.38.45.61.11.23.16.5.17.81,0,.45-.12.83-.34,1.16-.22.33-.55.58-.97.76-.42.18-.93.27-1.52.27s-1.1-.09-1.53-.27c-.43-.18-.77-.45-1.02-.8-.24-.35-.37-.79-.38-1.32h1.49c.02.24.09.45.21.61.12.16.29.28.5.37s.45.12.71.12.49-.04.68-.11c.19-.08.34-.18.45-.32.11-.13.16-.29.16-.46,0-.16-.05-.3-.14-.41-.1-.11-.24-.21-.42-.28-.18-.08-.41-.15-.67-.21l-.79-.2c-.61-.15-1.1-.38-1.45-.7s-.53-.74-.53-1.28c0-.44.12-.82.35-1.15s.56-.59.98-.77c.42-.19.89-.28,1.42-.28s1.01.09,1.42.28c.4.18.72.44.94.77s.34.71.35,1.14h-1.47Z"/>
      <path class="cls-2" d="M455.49,429.09c-.03-.29-.15-.51-.37-.67-.22-.16-.51-.24-.88-.24-.25,0-.46.04-.64.11-.17.07-.3.17-.4.29-.09.12-.14.26-.14.42,0,.13.02.24.08.34.06.1.14.18.25.25.11.07.23.13.37.18s.29.09.45.13l.65.16c.32.07.61.17.87.28.27.12.49.26.69.44.19.17.35.38.45.61.11.23.16.5.17.81,0,.45-.12.83-.34,1.16-.22.33-.55.58-.97.76-.42.18-.93.27-1.52.27s-1.1-.09-1.53-.27c-.43-.18-.77-.45-1.02-.8-.24-.35-.37-.79-.38-1.32h1.49c.02.24.09.45.21.61.12.16.29.28.5.37s.45.12.71.12.49-.04.68-.11c.19-.08.34-.18.45-.32.11-.13.16-.29.16-.46,0-.16-.05-.3-.14-.41-.1-.11-.24-.21-.42-.28-.18-.08-.41-.15-.67-.21l-.79-.2c-.61-.15-1.1-.38-1.45-.7s-.53-.74-.53-1.28c0-.44.12-.82.35-1.15s.56-.59.98-.77c.42-.19.89-.28,1.42-.28s1.01.09,1.42.28c.4.18.72.44.94.77s.34.71.35,1.14h-1.47Z"/>
      <path class="cls-2" d="M464.78,430.64c0,.79-.15,1.47-.45,2.02-.3.56-.71.98-1.22,1.27-.52.29-1.09.44-1.73.44s-1.23-.15-1.74-.44c-.51-.29-.92-.72-1.22-1.28-.3-.56-.45-1.23-.45-2.02s.15-1.47.45-2.02c.3-.56.7-.98,1.22-1.27.51-.29,1.09-.44,1.74-.44s1.22.15,1.73.44.92.72,1.22,1.27c.3.56.45,1.23.45,2.02ZM463.22,430.64c0-.51-.08-.95-.23-1.3-.15-.35-.37-.62-.64-.8-.28-.18-.6-.27-.97-.27s-.7.09-.97.27c-.28.18-.49.45-.64.8-.15.35-.23.79-.23,1.3s.08.95.23,1.3c.15.35.37.62.64.8.28.18.6.27.97.27s.7-.09.97-.27.49-.45.64-.8c.15-.35.23-.79.23-1.3ZM460.84,431.74h1.31l.66.84.65.75,1.22,1.53h-1.43l-.84-1.03-.43-.61-1.13-1.48Z"/>
      <path class="cls-2" d="M465.92,434.27v-7.27h1.54v6h3.12v1.27h-4.66Z"/>
    </g>
    <g>
      <path class="cls-6" d="M466.39,279.02v-6h-.11c-.27,0-.45-.03-.55-.09s-.15-.17-.15-.33c0-.14.04-.25.12-.32s.2-.11.35-.11h.89c.11,0,.19.02.25.06s.09.1.09.18v2.65c.29-.27.57-.46.85-.59s.57-.19.87-.19c.59,0,1.05.18,1.39.55s.51.88.51,1.52v2.65h.28c.2,0,.34.03.42.1s.13.17.13.31-.04.25-.12.32c-.08.07-.2.11-.35.11h-1.56c-.18,0-.31-.03-.37-.09-.06-.06-.1-.17-.1-.33s.04-.26.12-.32c.08-.06.23-.08.46-.08h.21v-2.44c0-.46-.1-.81-.31-1.05-.21-.24-.51-.36-.9-.36s-.76.13-1.06.4c-.3.27-.46.6-.46,1v2.44h.21c.23,0,.39.03.47.09s.12.16.12.32c0,.16-.03.27-.1.33s-.19.09-.37.09h-1.56c-.15,0-.27-.04-.34-.11s-.11-.18-.11-.32c0-.16.05-.26.14-.32s.27-.08.54-.08h.12Z"/>
      <path class="cls-6" d="M477.4,274.76c.19,0,.33.03.42.1s.13.17.13.32c0,.14-.04.24-.12.31s-.21.1-.37.1h-2.37v1.96c0,.64.08,1.06.25,1.27s.45.3.85.3c.36,0,.78-.1,1.28-.31s.8-.31.92-.31c.11,0,.2.04.28.12s.11.17.11.29c0,.13-.05.24-.14.34s-.26.19-.49.28c-.38.15-.73.26-1.03.33s-.59.11-.86.11c-.46,0-.84-.07-1.15-.22s-.54-.36-.69-.65c-.08-.14-.13-.3-.17-.49s-.05-.48-.05-.87v-2.14h-1c-.16,0-.28-.03-.36-.1s-.11-.17-.11-.31c0-.16.05-.27.15-.33s.32-.09.65-.09h.66v-1.51c0-.17.04-.29.11-.37s.18-.12.34-.12c.17,0,.29.05.36.15s.1.32.1.67v1.19h2.31Z"/>
      <path class="cls-6" d="M484.6,274.76c.19,0,.33.03.42.1s.13.17.13.32c0,.14-.04.24-.12.31s-.21.1-.37.1h-2.37v1.96c0,.64.08,1.06.25,1.27s.45.3.85.3c.36,0,.78-.1,1.28-.31s.8-.31.92-.31c.11,0,.2.04.28.12s.11.17.11.29c0,.13-.05.24-.14.34s-.26.19-.49.28c-.38.15-.73.26-1.03.33s-.59.11-.86.11c-.46,0-.84-.07-1.15-.22s-.54-.36-.69-.65c-.08-.14-.13-.3-.17-.49s-.05-.48-.05-.87v-2.14h-1c-.16,0-.28-.03-.36-.1s-.11-.17-.11-.31c0-.16.05-.27.15-.33s.32-.09.65-.09h.66v-1.51c0-.17.04-.29.11-.37s.18-.12.34-.12c.17,0,.29.05.36.15s.1.32.1.67v1.19h2.31Z"/>
      <path class="cls-6" d="M488.69,281.35h1.41c.15,0,.26.04.33.11s.11.18.11.32c0,.15-.04.26-.11.32s-.2.09-.38.09h-2.58c-.16,0-.27-.04-.35-.11s-.12-.17-.12-.31c0-.16.05-.27.15-.33s.28-.09.55-.09h.11v-6.08h-.11c-.27,0-.45-.03-.55-.09s-.15-.17-.15-.33c0-.14.04-.24.12-.31s.2-.1.35-.1h.89c.12,0,.2.02.25.06s.08.1.08.18v.57c.27-.27.56-.48.88-.62s.67-.21,1.04-.21c.79,0,1.44.27,1.97.8s.79,1.2.79,2-.25,1.4-.75,1.9-1.14.74-1.92.74c-.41,0-.79-.07-1.14-.22s-.64-.36-.87-.63v2.34ZM490.5,279c.54,0,.99-.17,1.34-.51s.52-.78.52-1.33-.17-.97-.52-1.32-.79-.52-1.33-.52-.98.17-1.32.52-.52.78-.52,1.32.17.98.51,1.32.78.52,1.33.52Z"/>
      <path class="cls-6" d="M494.85,279.42v-1.04c0-.17.03-.29.1-.37s.17-.11.31-.11c.16,0,.29.11.38.33.06.13.12.23.17.3.16.21.41.38.73.51s.67.19,1.06.19c.41,0,.75-.08,1-.25s.38-.39.38-.66-.1-.47-.3-.59-.55-.18-1.03-.18h-.32c-.8,0-1.4-.14-1.82-.42s-.63-.68-.63-1.21.2-.92.61-1.2.98-.43,1.72-.43c.3,0,.61.04.92.13s.48.13.49.13c.04,0,.12-.04.25-.11s.24-.11.36-.11c.13,0,.23.05.3.15s.1.24.1.44v.69c0,.21-.03.36-.09.45s-.16.14-.3.14c-.12,0-.26-.1-.43-.3-.12-.14-.22-.24-.3-.31-.21-.19-.43-.33-.66-.41s-.51-.13-.83-.13c-.37,0-.66.08-.89.24s-.34.37-.34.62.12.42.35.53.73.17,1.49.18c.81.02,1.41.16,1.78.42s.56.67.56,1.22-.21.95-.62,1.27-.97.47-1.68.47c-.22,0-.47-.02-.74-.06s-.62-.11-1.03-.21c-.14.09-.25.16-.35.2s-.18.07-.25.07c-.14,0-.24-.05-.31-.14s-.11-.23-.11-.41Z"/>
    </g>
    <g>
      <g>
        <g>
          <path class="cls-3" d="M429.9,574.85c-9.51,0-17.25-7.63-17.25-17.01v-45.72c0-9.38,7.74-17.01,17.25-17.01h46.47c9.51,0,17.25,7.63,17.25,17.01v45.72c0,9.38-7.74,17.01-17.25,17.01h-46.47Z"/>
          <path class="cls-9" d="M476.37,497.11c8.42,0,15.25,6.72,15.25,15.01v45.72c0,8.29-6.83,15.01-15.25,15.01h-46.47c-8.42,0-15.25-6.72-15.25-15.01v-45.72c0-8.29,6.83-15.01,15.25-15.01h46.47M476.37,493.11h-46.47c-10.62,0-19.25,8.53-19.25,19.01v45.72c0,10.48,8.64,19.01,19.25,19.01h46.47c10.62,0,19.25-8.53,19.25-19.01v-45.72c0-10.48-8.64-19.01-19.25-19.01h0Z"/>
        </g>
        <g>
          <path class="cls-9" d="M453.13,508.25c-9.3,0-16.84,1.82-16.84,4.05v7.98c0,2.25,7.54,4.05,16.84,4.05s16.84-1.82,16.84-4.05v-7.98c0-2.25-7.54-4.05-16.84-4.05ZM463.24,513.16c-2.84.56-6.41.86-10.11.86s-7.27-.3-10.11-.86c-1.45-.28-2.49-.59-3.22-.86.72-.28,1.77-.58,3.22-.86,2.84-.54,6.43-.86,10.11-.86s7.27.3,10.11.86c1.45.28,2.49.59,3.22.86-.72.27-1.77.58-3.22.86Z"/>
          <path class="cls-9" d="M453.13,527.47c-9.3,0-16.84-1.82-16.84-4.05v7.98c0,2.23,7.54,4.05,16.84,4.05s16.84-1.82,16.84-4.05v-7.98c0,2.23-7.54,4.05-16.84,4.05Z"/>
          <path class="cls-9" d="M453.13,538.57c-9.3,0-16.84-1.82-16.84-4.05v7.98c0,2.23,7.54,4.05,16.84,4.05s16.84-1.82,16.84-4.05v-7.98c0,2.23-7.54,4.05-16.84,4.05Z"/>
        </g>
      </g>
      <g>
        <path class="cls-7" d="M433.97,555.19h2.11l2.23,5.34h.09l2.23-5.34h2.11v7.95h-1.66v-5.18h-.07l-2.09,5.14h-1.13l-2.09-5.16h-.07v5.2h-1.66v-7.95Z"/>
        <path class="cls-7" d="M448.52,557.48c-.03-.31-.17-.56-.41-.73-.24-.17-.56-.26-.98-.26-.28,0-.51.04-.71.11-.19.08-.34.18-.44.32s-.15.29-.15.46c0,.14.03.27.09.37.07.11.16.2.28.27.12.08.26.14.41.2s.32.1.5.14l.73.17c.35.08.68.18.97.31.29.13.55.29.77.48.22.19.38.41.5.67.12.26.18.55.18.88,0,.49-.13.91-.38,1.26-.25.36-.61.63-1.07.83s-1.03.29-1.69.29-1.22-.1-1.7-.29c-.48-.2-.86-.49-1.13-.88-.27-.39-.41-.87-.42-1.44h1.65c.02.27.1.49.24.67.14.18.32.31.56.4.23.09.5.13.79.13s.54-.04.76-.12c.21-.08.38-.2.5-.34.12-.15.18-.32.18-.51,0-.18-.05-.33-.16-.45-.11-.12-.26-.22-.47-.31-.2-.08-.45-.16-.75-.23l-.88-.22c-.68-.16-1.22-.42-1.61-.77-.39-.35-.59-.81-.59-1.4,0-.48.13-.9.39-1.26.26-.36.63-.64,1.09-.84.46-.2.99-.3,1.58-.3s1.12.1,1.57.3.8.48,1.05.84c.25.36.38.78.39,1.25h-1.64Z"/>
        <path class="cls-7" d="M455.8,557.48c-.03-.31-.17-.56-.41-.73-.24-.17-.56-.26-.98-.26-.28,0-.51.04-.71.11-.19.08-.34.18-.44.32s-.15.29-.15.46c0,.14.03.27.09.37.07.11.16.2.28.27.12.08.26.14.41.2s.32.1.5.14l.73.17c.35.08.68.18.97.31.29.13.55.29.77.48.22.19.38.41.5.67.12.26.18.55.18.88,0,.49-.13.91-.38,1.26-.25.36-.61.63-1.07.83s-1.03.29-1.69.29-1.22-.1-1.7-.29c-.48-.2-.86-.49-1.13-.88-.27-.39-.41-.87-.42-1.44h1.65c.02.27.1.49.24.67.14.18.32.31.56.4.23.09.5.13.79.13s.54-.04.76-.12c.21-.08.38-.2.5-.34.12-.15.18-.32.18-.51,0-.18-.05-.33-.16-.45-.11-.12-.26-.22-.47-.31-.2-.08-.45-.16-.75-.23l-.88-.22c-.68-.16-1.22-.42-1.61-.77-.39-.35-.59-.81-.59-1.4,0-.48.13-.9.39-1.26.26-.36.63-.64,1.09-.84.46-.2.99-.3,1.58-.3s1.12.1,1.57.3.8.48,1.05.84c.25.36.38.78.39,1.25h-1.64Z"/>
        <path class="cls-7" d="M466.12,559.17c0,.87-.17,1.6-.5,2.21-.33.61-.79,1.07-1.36,1.39-.57.32-1.22.48-1.93.48s-1.36-.16-1.93-.48c-.57-.32-1.02-.79-1.35-1.39-.33-.61-.5-1.35-.5-2.21s.17-1.61.5-2.21c.33-.61.78-1.07,1.35-1.39.57-.32,1.21-.48,1.93-.48s1.36.16,1.93.48c.57.32,1.02.78,1.36,1.39s.5,1.35.5,2.21ZM464.39,559.17c0-.56-.08-1.04-.25-1.42s-.41-.68-.72-.88c-.31-.2-.67-.3-1.08-.3s-.77.1-1.08.3c-.31.2-.55.49-.72.88s-.25.86-.25,1.42.08,1.04.25,1.42.41.68.72.88c.31.2.67.3,1.08.3s.77-.1,1.08-.3c.31-.2.55-.49.72-.88s.25-.86.25-1.42ZM461.75,560.38h1.45l.73.92.72.82,1.35,1.67h-1.59l-.93-1.13-.48-.67-1.25-1.62Z"/>
        <path class="cls-7" d="M467.39,563.14v-7.95h1.71v6.57h3.46v1.39h-5.17Z"/>
      </g>
    </g>
    <path class="cls-5" d="M483.87,456.19h-153.44c-11.81,0-21.42-9.61-21.42-21.42v-117.82c0-11.81,9.61-21.42,21.42-21.42h153.44c11.81,0,21.42,9.61,21.42,21.42v117.82c0,11.81-9.61,21.42-21.42,21.42ZM330.43,297.53c-10.71,0-19.42,8.71-19.42,19.42v117.82c0,10.71,8.71,19.42,19.42,19.42h153.44c10.71,0,19.42-8.71,19.42-19.42v-117.82c0-10.71-8.71-19.42-19.42-19.42h-153.44Z"/>
    <path class="cls-5" d="M628.01,589.55h-205.74c-11.81,0-21.42-9.61-21.42-21.42v-65.62c0-11.81,9.61-21.42,21.42-21.42h205.74c11.81,0,21.42,9.61,21.42,21.42v65.62c0,11.81-9.61,21.42-21.42,21.42ZM422.27,483.09c-10.71,0-19.42,8.71-19.42,19.42v65.62c0,10.71,8.71,19.42,19.42,19.42h205.74c10.71,0,19.42-8.71,19.42-19.42v-65.62c0-10.71-8.71-19.42-19.42-19.42h-205.74Z"/>
    <g>
      <path class="cls-9" d="M324.57,373.22h-2.34v-11.38h2.34v11.38Z"/>
      <path class="cls-9" d="M329.09,369.21v4.01h-2.34v-11.38h4.44c.85,0,1.61.16,2.25.47s1.15.76,1.5,1.33c.35.58.52,1.23.52,1.96,0,1.11-.38,1.99-1.14,2.64-.76.64-1.82.96-3.17.96h-2.05ZM329.09,367.31h2.09c.62,0,1.09-.15,1.42-.44.33-.29.49-.71.49-1.25s-.16-1.01-.49-1.35-.78-.52-1.36-.53h-2.15v3.57Z"/>
      <path class="cls-9" d="M337.03,365.71c0-.36.12-.65.36-.88s.55-.34.91-.34.68.11.92.34.36.52.36.88-.12.64-.36.86c-.24.22-.55.33-.92.33s-.67-.11-.91-.33c-.24-.22-.36-.51-.36-.86ZM337.03,372.11c0-.36.12-.65.36-.88s.55-.34.91-.34.68.11.92.34.36.52.36.88-.12.64-.36.86c-.24.22-.55.33-.92.33s-.67-.11-.91-.33c-.24-.22-.36-.51-.36-.86Z"/>
    </g>
    <g>
      <path class="cls-6" d="M322.18,389.02v-.86h2.4v-7.07l-2.38,1.78v-1.09l2.04-1.51h1.28v7.9h1.98v.86h-5.33Z"/>
      <path class="cls-6" d="M330.67,389.02l2.26-3.85-.04-.02c-.09.13-.25.24-.49.34-.24.1-.51.14-.8.14-.5,0-.93-.11-1.31-.34-.38-.22-.67-.54-.88-.94s-.32-.86-.32-1.39c0-.56.12-1.05.35-1.48s.56-.75.98-.99c.42-.24.9-.35,1.44-.35s1.04.12,1.46.35c.42.24.75.56.98.98.24.42.35.9.35,1.45,0,.38-.07.77-.2,1.17-.14.4-.32.8-.56,1.22l-2.11,3.71h-1.1ZM331.87,384.87c.54,0,.98-.18,1.32-.53.34-.36.51-.82.52-1.4,0-.58-.17-1.04-.51-1.4-.34-.36-.78-.54-1.33-.54s-.98.18-1.32.54c-.34.36-.5.83-.5,1.42s.17,1.03.5,1.39c.34.36.78.53,1.32.53Z"/>
      <path class="cls-6" d="M336.53,389.02v-.88l2.98-3.18c.42-.43.72-.84.9-1.21s.28-.74.28-1.1c0-.5-.15-.91-.44-1.21s-.7-.46-1.2-.46-.92.16-1.23.47c-.31.31-.46.72-.46,1.24h-.95c.02-.78.26-1.39.74-1.85.48-.46,1.11-.69,1.9-.69s1.43.23,1.9.68.71,1.07.71,1.84c0,.43-.12.88-.35,1.36-.23.47-.61.98-1.13,1.54l-2.5,2.6h4.08v.86h-5.23Z"/>
      <path class="cls-6" d="M346.27,389.14c-.29,0-.52-.09-.7-.26-.18-.17-.26-.4-.26-.68s.09-.51.26-.69c.18-.18.41-.27.7-.27s.52.09.7.27.26.41.26.69-.09.51-.26.68-.41.26-.7.26Z"/>
      <path class="cls-6" d="M350.98,389.02v-.86h2.4v-7.07l-2.38,1.78v-1.09l2.04-1.51h1.28v7.9h1.98v.86h-5.33Z"/>
      <path class="cls-6" d="M360.68,389.14c-.56,0-1.05-.12-1.47-.35-.42-.24-.75-.56-.98-.98-.23-.42-.35-.9-.35-1.45,0-.38.07-.77.22-1.17.14-.4.33-.8.56-1.22l2.09-3.71h1.06l-2.23,3.85.04.02c.1-.14.27-.25.5-.34.23-.09.49-.14.78-.14.51,0,.96.11,1.34.34.38.23.68.54.89.94.21.4.32.86.32,1.39s-.12,1.04-.35,1.46c-.23.42-.56.75-.98.99-.42.24-.9.35-1.45.35ZM360.67,388.29c.54,0,.99-.18,1.33-.53.34-.36.51-.82.51-1.4s-.17-1.04-.51-1.4c-.34-.36-.78-.54-1.33-.54s-.99.18-1.33.54c-.34.36-.51.83-.51,1.4,0,.58.16,1.04.5,1.4.34.36.79.53,1.34.53Z"/>
      <path class="cls-6" d="M367.86,389.14c-.54,0-1.02-.11-1.44-.32-.42-.22-.74-.51-.97-.89s-.35-.82-.35-1.33c0-.54.16-1.02.47-1.42.32-.4.73-.65,1.25-.75v-.04c-.45-.1-.81-.33-1.08-.69-.27-.36-.41-.77-.41-1.24s.11-.86.32-1.21c.21-.35.51-.62.89-.82.38-.2.82-.29,1.31-.29s.93.1,1.31.29.68.47.89.82c.21.35.32.75.32,1.21s-.14.89-.41,1.24c-.27.36-.63.59-1.08.69v.04c.52.1.94.35,1.25.75.32.4.47.88.47,1.42,0,.5-.12.95-.35,1.33-.23.38-.56.68-.97.89s-.9.32-1.44.32ZM367.86,388.29c.54,0,.97-.16,1.3-.47.33-.32.5-.73.5-1.23s-.17-.92-.5-1.24-.77-.48-1.3-.48-.97.16-1.3.48-.5.73-.5,1.24.17.91.5,1.23c.33.32.77.47,1.3.47ZM367.86,384.03c.46,0,.84-.14,1.13-.42s.43-.65.43-1.1-.14-.81-.43-1.1c-.29-.28-.66-.43-1.13-.43s-.84.14-1.13.43c-.29.28-.43.65-.43,1.1s.14.82.43,1.1c.29.28.66.42,1.13.42Z"/>
      <path class="cls-6" d="M375.06,389.14c-.29,0-.52-.09-.7-.26-.18-.17-.26-.4-.26-.68s.09-.51.26-.69c.18-.18.41-.27.7-.27s.52.09.7.27.26.41.26.69-.09.51-.26.68-.41.26-.7.26Z"/>
      <path class="cls-6" d="M382.26,389.14c-.79,0-1.42-.23-1.89-.7-.47-.47-.7-1.09-.7-1.88v-3.84c0-.78.23-1.41.7-1.88.47-.47,1.1-.7,1.89-.7s1.43.23,1.9.7c.46.47.7,1.09.7,1.88v3.84c0,.78-.23,1.41-.7,1.88-.47.47-1.1.7-1.89.7ZM382.26,388.32c.5,0,.91-.16,1.21-.49.3-.32.46-.75.46-1.28v-3.84c0-.53-.15-.95-.46-1.28-.3-.32-.71-.49-1.21-.49s-.91.16-1.21.49c-.3.32-.46.75-.46,1.28v3.84c0,.53.15.95.46,1.28.3.32.71.49,1.21.49ZM382.26,385.26c-.21,0-.37-.06-.5-.17s-.19-.28-.19-.49.06-.37.19-.47c.12-.11.29-.16.5-.16s.37.05.5.16c.12.11.19.27.19.47s-.06.37-.19.49c-.12.12-.29.17-.5.17Z"/>
      <path class="cls-6" d="M389.46,389.14c-.29,0-.52-.09-.7-.26-.18-.17-.26-.4-.26-.68s.09-.51.26-.69c.18-.18.41-.27.7-.27s.52.09.7.27.26.41.26.69-.09.51-.26.68-.41.26-.7.26Z"/>
      <path class="cls-6" d="M394.18,389.02v-.86h2.4v-7.07l-2.38,1.78v-1.09l2.04-1.51h1.28v7.9h1.98v.86h-5.33Z"/>
    </g>
    <g>
      <path class="cls-5" d="M325.32,317.25l.05.21.06-.21,3.13-8.72h.92l-3.71,9.95h-.81l-3.71-9.95h.92l3.13,8.72Z"/>
      <path class="cls-5" d="M332.07,308.53l3.67,8.78,3.68-8.78h1.12v9.95h-.84v-4.33l.07-4.44-3.71,8.78h-.65l-3.69-8.74.07,4.38v4.36h-.84v-9.95h1.11Z"/>
      <path class="cls-5" d="M346.47,318.48v-9.95h2.78c.82,0,1.55.19,2.19.56.65.37,1.15.9,1.51,1.6s.54,1.48.54,2.37v.92c0,.89-.18,1.68-.54,2.37s-.87,1.22-1.52,1.59-1.4.56-2.25.56h-2.72ZM347.31,309.24v8.53h1.89c1.05,0,1.89-.35,2.52-1.04.63-.7.95-1.64.95-2.82v-.88c0-1.14-.31-2.06-.94-2.75s-1.45-1.04-2.47-1.04h-1.96Z"/>
      <path class="cls-5" d="M356.76,308.53l3.67,8.78,3.68-8.78h1.12v9.95h-.84v-4.33l.07-4.44-3.71,8.78h-.65l-3.69-8.74.07,4.38v4.36h-.84v-9.95h1.11Z"/>
      <path class="cls-5" d="M368.13,317.77h6.15v.71h-7.16v-.64l5.91-8.61h-5.73v-.71h6.77v.6l-5.93,8.65Z"/>
    </g>
    <g>
      <rect class="cls-8" x="451.37" y="453.55" width="5" height="33.84"/>
      <polygon class="cls-8" points="462.35 477.44 453.87 485.92 445.39 477.44 445.39 484.63 453.87 493.11 462.35 484.63 462.35 477.44"/>
      <polygon class="cls-8" points="462.35 463.51 453.87 455.03 445.39 463.51 445.39 456.32 453.87 447.84 462.35 456.32 462.35 463.51"/>
    </g>
    <g>
      <rect class="cls-8" x="451.37" y="250" width="5" height="54.6"/>
      <polygon class="cls-8" points="462.35 259.96 453.87 251.48 445.39 259.96 445.39 252.77 453.87 244.29 462.35 252.77 462.35 259.96"/>
    </g>
    <g>
      <g class="cls-10">
        <rect class="cls-3" x="17.47" y="33.95" width="197.71" height="149.11" rx="9.25" ry="9.25"/>
      </g>
      <path class="cls-9" d="M205.94,184.56H26.72c-5.92,0-10.75-4.82-10.75-10.75V43.19c0-5.92,4.82-10.75,10.75-10.75h179.22c5.92,0,10.75,4.82,10.75,10.75v130.62c0,5.92-4.82,10.75-10.75,10.75ZM26.72,35.45c-4.27,0-7.75,3.47-7.75,7.75v130.62c0,4.27,3.47,7.75,7.75,7.75h179.22c4.27,0,7.75-3.47,7.75-7.75V43.19c0-4.27-3.47-7.75-7.75-7.75H26.72Z"/>
    </g>
    <g>
      <g>
        <rect class="cls-3" x="227.01" y="92.93" width="79.74" height="79.74" rx="17.01" ry="17.01"/>
        <path class="cls-9" d="M289.74,94.93c8.29,0,15.01,6.72,15.01,15.01v45.72c0,8.29-6.72,15.01-15.01,15.01h-45.72c-8.29,0-15.01-6.72-15.01-15.01v-45.72c0-8.29,6.72-15.01,15.01-15.01h45.72M289.74,90.93h-45.72c-10.48,0-19.01,8.53-19.01,19.01v45.72c0,10.48,8.53,19.01,19.01,19.01h45.72c10.48,0,19.01-8.53,19.01-19.01v-45.72c0-10.48-8.53-19.01-19.01-19.01h0Z"/>
      </g>
      <g>
        <path class="cls-9" d="M266.88,106.17c-9.16,0-16.6,1.82-16.6,4.06v7.97c0,1.25,2.28,2.35,5.87,3.11l4.33-7.6c.28-.48.78-.77,1.33-.77s1.06.3,1.33.77l4.87,8.56c.34,0,.69,0,1.02-.03v-4.51c0-1.6,1.31-2.9,2.9-2.9s2.9,1.3,2.9,2.9v4.04c5.15-.69,8.63-2.02,8.63-3.56v-7.97c0-2.25-7.43-4.06-16.6-4.06h.01ZM276.84,111.09c-2.79.54-6.32.86-9.96.86s-7.16-.3-9.96-.86c-1.43-.29-2.46-.59-3.17-.86.71-.28,1.74-.58,3.17-.87,2.79-.54,6.34-.86,9.96-.86s7.16.3,9.96.86c1.44.29,2.46.59,3.17.87-.71.27-1.73.57-3.17.86Z"/>
        <path class="cls-9" d="M258.63,124.89c.1,0,.2.03.3.04v7.98c-5.15-.69-8.63-2.02-8.63-3.56v-7.98c0,1.17,2.04,2.23,5.31,2.97h0c.29.35.71.56,1.15.56h1.87Z"/>
        <path class="cls-9" d="M265.57,126.54c-.14.24-.21.5-.21.77s.08.53.2.76l3.02,5.3c-.56,0-1.11.03-1.69.03-.74,0-1.49,0-2.2-.04.03-.13.04-.28.04-.42v-7.57c.71.03,1.43.04,2.16.04s1.46,0,2.16-.04v.4h-2.16c-.54,0-1.05.3-1.31.76h0Z"/>
        <path class="cls-9" d="M283.48,121.35v7.98c0,1.46-3.13,2.73-7.83,3.46l2.69-4.72c.28-.47.28-1.06,0-1.51-.28-.48-.78-.77-1.33-.77h-2.16v-.87c5.15-.69,8.63-2.02,8.63-3.56h-.01Z"/>
        <path class="cls-9" d="M283.48,132.46v7.98c0,2.25-7.43,4.06-16.6,4.06s-16.6-1.82-16.6-4.06v-7.98c0,2.25,7.43,4.06,16.6,4.06,1.17,0,2.32-.04,3.43-.09l.3.52c.28.48.78.77,1.33.77s1.06-.3,1.33-.77l.47-.81c5.74-.63,9.74-2.04,9.74-3.7h0Z"/>
        <path class="cls-7" d="M277.3,127.49l-3.13,5.5-1.89,3.32-.05.09c-.06.1-.16.16-.3.16-.11,0-.24-.06-.3-.16v-.03l-1.73-3.03-3.33-5.84s-.05-.1-.05-.16.03-.11.05-.16c.06-.1.18-.18.3-.18h3.35v-9.24c0-.95.77-1.72,1.72-1.72s1.72.76,1.72,1.72v9.24h3.35c.13,0,.24.08.3.18s.08.24,0,.33h.01Z"/>
        <path class="cls-7" d="M267.17,123.52c-.06.1-.18.16-.3.16h-3.35v9.25c0,.13,0,.25-.05.37-.16.76-.86,1.34-1.67,1.34-.91,0-1.67-.72-1.7-1.62v-9.35h-3.35c-.11,0-.24-.08-.3-.16-.04-.06-.05-.11-.05-.18s0-.11.05-.16l.93-1.64,4.13-7.25c.06-.1.18-.18.3-.18s.24.08.3.18l4.53,7.97.52.92c.06.1.06.24,0,.34h0Z"/>
      </g>
      <g>
        <path class="cls-7" d="M242.78,160.95h-1.7l2.6-7.55h2.06l2.6,7.55h-1.7l-1.89-5.83h-.06l-1.89,5.83ZM242.68,157.98h4.04v1.25h-4.04v-1.25Z"/>
        <path class="cls-7" d="M248.84,160.95v-.93l2.78-3.43v-.04h-2.68v-1.26h4.57v1.02l-2.6,3.35v.04h2.7v1.26h-4.77Z"/>
        <path class="cls-7" d="M258.1,158.55v-3.26h1.57v5.67h-1.5v-1.04h-.06c-.13.33-.34.59-.63.8s-.66.3-1.09.3c-.38,0-.71-.09-1-.25-.29-.16-.52-.42-.67-.73-.16-.32-.24-.69-.24-1.14v-3.61h1.57v3.33c0,.33.09.59.27.78.18.19.42.29.72.29.19,0,.37-.04.53-.13s.29-.21.4-.39c.1-.18.15-.38.15-.63h-.01Z"/>
        <path class="cls-7" d="M260.58,160.95v-5.67h1.51v1h.06c.1-.35.28-.62.52-.8s.52-.27.83-.27h.25c.09,0,.16.03.24.04v1.39c-.08-.03-.18-.04-.3-.06-.13-.01-.25-.03-.37-.03-.23,0-.43.05-.62.15s-.33.24-.43.42c-.1.18-.15.38-.15.61v3.21h-1.57.01Z"/>
        <path class="cls-7" d="M266.81,161.06c-.58,0-1.09-.11-1.5-.35s-.74-.58-.97-1.01c-.23-.44-.34-.96-.34-1.55s.11-1.09.34-1.53.54-.78.95-1.04.9-.37,1.45-.37c.38,0,.72.06,1.05.18s.61.3.85.54.43.54.57.9.2.78.2,1.26v.43h-4.78v-.97h4.03l-.73.25c0-.29-.04-.54-.13-.74-.09-.21-.21-.38-.39-.49s-.39-.18-.64-.18-.48.06-.66.18-.32.28-.4.48c-.1.2-.14.44-.14.69v.68c0,.3.05.57.16.78.11.21.27.38.45.5.19.11.42.18.67.18.18,0,.34-.03.48-.08s.27-.13.37-.23c.1-.1.18-.21.23-.35l1.45.1c-.08.35-.21.66-.44.91-.23.27-.52.45-.87.61-.35.14-.77.21-1.24.21Z"/>
        <path class="cls-7" d="M272.16,160.95v-7.55h3.02c.56,0,1.02.09,1.39.25s.66.39.83.68c.19.29.28.63.28,1,0,.29-.06.56-.18.77-.13.23-.28.4-.49.54-.2.14-.44.24-.71.3v.08c.29.01.56.1.81.24.25.15.45.35.62.63.15.27.24.59.24.96,0,.4-.1.76-.29,1.07-.2.32-.49.57-.87.74s-.86.27-1.43.27h-3.22ZM273.75,156.56h1.19c.21,0,.42-.04.58-.11s.3-.19.4-.33c.1-.14.15-.32.15-.52,0-.27-.1-.49-.29-.66-.19-.16-.47-.25-.82-.25h-1.21v1.87ZM273.75,159.64h1.31c.44,0,.77-.09.97-.25s.3-.4.3-.68c0-.21-.05-.39-.15-.56-.1-.16-.24-.29-.43-.38s-.4-.14-.67-.14h-1.34v2.01Z"/>
        <path class="cls-7" d="M280.22,153.4v7.55h-1.57v-7.55h1.57Z"/>
        <path class="cls-7" d="M283.7,161.06c-.57,0-1.06-.13-1.48-.37-.42-.24-.73-.58-.96-1.02-.23-.44-.34-.95-.34-1.53s.11-1.1.34-1.54c.23-.44.54-.78.96-1.02.42-.24.91-.37,1.48-.37s1.07.13,1.49.37c.42.24.73.58.96,1.02.23.44.34.95.34,1.54s-.11,1.09-.34,1.53-.54.78-.96,1.02c-.42.24-.91.37-1.49.37ZM283.7,159.84c.27,0,.48-.08.66-.21.18-.15.3-.35.4-.61.09-.25.14-.54.14-.87s-.05-.62-.14-.87c-.09-.25-.23-.45-.4-.59s-.39-.21-.66-.21-.48.08-.66.21c-.18.15-.32.34-.4.59s-.14.54-.14.87.05.62.14.87c.09.25.23.45.4.61s.4.21.66.21Z"/>
        <path class="cls-7" d="M290.39,161.05c-.3,0-.57-.05-.77-.15-.21-.1-.39-.23-.52-.38-.14-.15-.24-.3-.32-.47h-.08v.91h-1.54v-7.55h1.57v2.84h.05c.08-.15.18-.32.3-.47.13-.15.3-.29.52-.39s.48-.16.8-.16c.42,0,.8.1,1.15.32s.62.54.83.97.32.97.32,1.62-.1,1.16-.3,1.59-.48.76-.82.98-.73.33-1.17.33h-.01ZM289.89,159.8c.25,0,.47-.08.64-.21s.32-.34.4-.59.14-.54.14-.87-.05-.62-.14-.86c-.09-.25-.23-.44-.4-.58s-.39-.21-.66-.21-.47.06-.64.2-.32.33-.4.58-.14.54-.14.88.05.63.14.87c.09.25.23.44.4.58s.39.21.64.21h.01Z"/>
      </g>
    </g>
    <g>
      <path class="cls-2" d="M429.1,326h-1.7l2.6-7.55h2.06l2.6,7.55h-1.7l-1.89-5.83h-.06l-1.89,5.83ZM429,323.03h4.04v1.25h-4.04v-1.25Z"/>
      <path class="cls-2" d="M435.16,326v-.93l2.78-3.43v-.04h-2.68v-1.26h4.57v1.02l-2.6,3.35v.04h2.7v1.26h-4.77Z"/>
      <path class="cls-2" d="M444.42,323.6v-3.26h1.57v5.67h-1.5v-1.04h-.06c-.13.33-.34.59-.63.8s-.66.3-1.09.3c-.38,0-.71-.09-1-.25-.29-.16-.52-.42-.67-.73-.16-.32-.24-.69-.24-1.14v-3.61h1.57v3.33c0,.33.09.59.27.78.18.19.42.29.72.29.19,0,.37-.04.53-.13s.29-.21.4-.39c.1-.18.15-.38.15-.63h-.01Z"/>
      <path class="cls-2" d="M446.9,326v-5.67h1.51v1h.06c.1-.35.28-.62.52-.8s.52-.27.83-.27h.25c.09,0,.16.03.24.04v1.39c-.08-.03-.18-.04-.3-.06-.13-.01-.25-.03-.37-.03-.23,0-.43.05-.62.15s-.33.24-.43.42c-.1.18-.15.38-.15.61v3.21h-1.57.01Z"/>
      <path class="cls-2" d="M453.13,326.11c-.58,0-1.09-.11-1.5-.35s-.74-.58-.97-1.01c-.23-.44-.34-.96-.34-1.55s.11-1.09.34-1.53.54-.78.95-1.04.9-.37,1.45-.37c.38,0,.72.06,1.05.18s.61.3.85.54.43.54.57.9.2.78.2,1.26v.43h-4.78v-.97h4.03l-.73.25c0-.29-.04-.54-.13-.74-.09-.21-.21-.38-.39-.49s-.39-.18-.64-.18-.48.06-.66.18-.32.28-.4.48c-.1.2-.14.44-.14.69v.68c0,.3.05.57.16.78.11.21.27.38.45.5.19.11.42.18.67.18.18,0,.34-.03.48-.08s.27-.13.37-.23c.1-.1.18-.21.23-.35l1.45.1c-.08.35-.21.66-.44.91-.23.27-.52.45-.87.61-.35.14-.77.21-1.24.21Z"/>
      <path class="cls-2" d="M458.48,326v-7.55h3.02c.56,0,1.02.09,1.39.25s.66.39.83.68c.19.29.28.63.28,1,0,.29-.06.56-.18.77-.13.23-.28.4-.49.54-.2.14-.44.24-.71.3v.08c.29.01.56.1.81.24.25.15.45.35.62.63.15.27.24.59.24.96,0,.4-.1.76-.29,1.07-.2.32-.49.57-.87.74s-.86.27-1.43.27h-3.22ZM460.07,321.61h1.19c.21,0,.42-.04.58-.11s.3-.19.4-.33c.1-.14.15-.32.15-.52,0-.27-.1-.49-.29-.66-.19-.16-.47-.25-.82-.25h-1.21v1.87ZM460.07,324.69h1.31c.44,0,.77-.09.97-.25s.3-.4.3-.68c0-.21-.05-.39-.15-.56-.1-.16-.24-.29-.43-.38s-.4-.14-.67-.14h-1.34v2.01Z"/>
      <path class="cls-2" d="M466.54,318.45v7.55h-1.57v-7.55h1.57Z"/>
      <path class="cls-2" d="M470.01,326.11c-.57,0-1.06-.13-1.48-.37-.42-.24-.73-.58-.96-1.02-.23-.44-.34-.95-.34-1.53s.11-1.1.34-1.54c.23-.44.54-.78.96-1.02.42-.24.91-.37,1.48-.37s1.07.13,1.49.37c.42.24.73.58.96,1.02.23.44.34.95.34,1.54s-.11,1.09-.34,1.53-.54.78-.96,1.02c-.42.24-.91.37-1.49.37ZM470.01,324.89c.27,0,.48-.08.66-.21.18-.15.3-.35.4-.61.09-.25.14-.54.14-.87s-.05-.62-.14-.87c-.09-.25-.23-.45-.4-.59s-.39-.21-.66-.21-.48.08-.66.21c-.18.15-.32.34-.4.59s-.14.54-.14.87.05.62.14.87c.09.25.23.45.4.61s.4.21.66.21Z"/>
      <path class="cls-2" d="M476.71,326.1c-.3,0-.57-.05-.77-.15-.21-.1-.39-.23-.52-.38-.14-.15-.24-.3-.32-.47h-.08v.91h-1.54v-7.55h1.57v2.84h.05c.08-.15.18-.32.3-.47.13-.15.3-.29.52-.39s.48-.16.8-.16c.42,0,.8.1,1.15.32s.62.54.83.97.32.97.32,1.62-.1,1.16-.3,1.59-.48.76-.82.98c-.34.23-.73.33-1.17.33h-.01ZM476.21,324.85c.25,0,.47-.08.64-.21s.32-.34.4-.59.14-.54.14-.87-.05-.62-.14-.86c-.09-.25-.23-.44-.4-.58s-.39-.21-.66-.21-.47.06-.64.2-.32.33-.4.58-.14.54-.14.88.05.63.14.87c.09.25.23.44.4.58s.39.21.64.21h.01Z"/>
    </g>
    <g>
      <g>
        <rect class="cls-3" x="28.13" y="45.17" width="47.79" height="47.79" rx="10.19" ry="10.19"/>
        <path class="cls-9" d="M65.73,46.37c4.97,0,8.99,4.03,8.99,8.99v27.4c0,4.97-4.03,8.99-8.99,8.99h-27.4c-4.97,0-8.99-4.03-8.99-8.99v-27.4c0-4.97,4.03-8.99,8.99-8.99h27.4M65.73,43.97h-27.4c-6.28,0-11.39,5.11-11.39,11.39v27.4c0,6.28,5.11,11.39,11.39,11.39h27.4c6.28,0,11.39-5.11,11.39-11.39v-27.4c0-6.28-5.11-11.39-11.39-11.39h0Z"/>
      </g>
      <g>
        <path class="cls-9" d="M52.03,53.1c-5.49,0-9.95,1.09-9.95,2.44v4.77c0,.75,1.37,1.41,3.52,1.86l2.59-4.55c.17-.29.47-.46.79-.46s.64.18.79.46l2.92,5.13c.2,0,.42,0,.61-.02v-2.7c0-.96.79-1.74,1.74-1.74s1.74.78,1.74,1.74v2.42c3.09-.42,5.17-1.21,5.17-2.13v-4.77c0-1.35-4.46-2.44-9.95-2.44h0ZM58,56.05c-1.67.33-3.79.51-5.97.51s-4.29-.18-5.97-.51c-.85-.17-1.48-.36-1.9-.51.42-.17,1.04-.35,1.9-.52,1.67-.33,3.8-.51,5.97-.51s4.29.18,5.97.51c.86.17,1.48.36,1.9.52-.42.16-1.04.34-1.9.51Z"/>
        <path class="cls-9" d="M47.08,64.32c.06,0,.12.02.18.02v4.78c-3.09-.42-5.17-1.21-5.17-2.13v-4.78c0,.7,1.23,1.34,3.18,1.78h0c.17.21.42.33.69.33h1.12Z"/>
        <path class="cls-9" d="M51.24,65.31c-.08.14-.13.3-.13.46s.05.32.12.45l1.81,3.18c-.33,0-.67.02-1.01.02-.45,0-.89,0-1.32-.02.02-.08.02-.17.02-.25v-4.54c.42.02.85.02,1.29.02s.88,0,1.29-.02v.24h-1.29c-.33,0-.63.18-.79.45h0Z"/>
        <path class="cls-9" d="M61.97,62.2v4.78c0,.88-1.88,1.63-4.69,2.07l1.61-2.83c.17-.28.17-.64,0-.91-.17-.29-.47-.46-.79-.46h-1.29v-.52c3.09-.42,5.17-1.21,5.17-2.13h0Z"/>
        <path class="cls-9" d="M61.97,68.86v4.78c0,1.35-4.46,2.44-9.95,2.44s-9.95-1.09-9.95-2.44v-4.78c0,1.35,4.46,2.44,9.95,2.44.7,0,1.39-.02,2.06-.05l.18.31c.17.29.47.46.79.46s.64-.18.79-.46l.28-.48c3.44-.38,5.84-1.23,5.84-2.22h0Z"/>
        <path class="cls-7" d="M58.27,65.88l-1.88,3.3-1.13,1.99-.03.05c-.04.06-.1.1-.18.1-.07,0-.14-.04-.18-.1v-.02l-1.04-1.82-2-3.5s-.03-.06-.03-.1.02-.07.03-.1c.04-.06.11-.11.18-.11h2v-5.54c0-.57.46-1.03,1.03-1.03s1.03.45,1.03,1.03v5.54h2c.08,0,.14.05.18.11s.05.14,0,.2h0Z"/>
        <path class="cls-7" d="M52.2,63.5c-.04.06-.11.1-.18.1h-2v5.55c0,.08,0,.15-.03.22-.1.45-.51.8-1,.8-.54,0-1-.43-1.02-.97v-5.61h-2c-.07,0-.14-.05-.18-.1-.02-.04-.03-.07-.03-.11s0-.07.03-.1l.56-.98,2.47-4.34c.04-.06.11-.11.18-.11s.14.05.18.11l2.72,4.77.31.55c.04.06.04.14,0,.2h0Z"/>
      </g>
      <g>
        <path class="cls-7" d="M37.59,85.93h-1.02l1.56-4.52h1.23l1.56,4.52h-1.02l-1.13-3.49h-.04l-1.13,3.49ZM37.53,84.15h2.42v.75h-2.42v-.75Z"/>
        <path class="cls-7" d="M41.22,85.93v-.56l1.66-2.06v-.02h-1.6v-.76h2.74v.61l-1.56,2v.02h1.62v.76h-2.86Z"/>
        <path class="cls-7" d="M46.76,84.49v-1.95h.94v3.4h-.9v-.62h-.04c-.08.2-.2.36-.38.48s-.39.18-.65.18c-.23,0-.42-.05-.6-.15-.17-.1-.31-.25-.4-.44-.1-.19-.14-.42-.14-.68v-2.16h.94v2c0,.2.05.36.16.47.11.11.25.17.43.17.11,0,.22-.02.32-.08s.17-.13.24-.23c.06-.11.09-.23.09-.38h0Z"/>
        <path class="cls-7" d="M48.25,85.93v-3.4h.91v.6h.04c.06-.21.17-.37.31-.48s.31-.16.5-.16h.15c.05,0,.1.02.14.02v.83s-.11-.02-.18-.04c-.08,0-.15-.02-.22-.02-.14,0-.26.03-.37.09s-.2.14-.26.25c-.06.11-.09.23-.09.36v1.92h-.94,0Z"/>
        <path class="cls-7" d="M51.98,86c-.35,0-.65-.07-.9-.21s-.45-.35-.58-.61c-.14-.26-.2-.57-.2-.93s.07-.65.2-.92.33-.47.57-.62.54-.22.87-.22c.23,0,.43.04.63.11s.36.18.51.33.26.33.34.54.12.47.12.76v.26h-2.87v-.58h2.41l-.44.15c0-.17-.02-.33-.08-.45-.05-.13-.13-.23-.23-.3s-.23-.11-.39-.11-.29.04-.39.11-.19.17-.24.29c-.06.12-.08.26-.08.42v.41c0,.18.03.34.1.47.07.13.16.23.27.3.11.07.25.11.4.11.11,0,.2-.02.29-.05s.16-.08.22-.14c.06-.06.11-.13.14-.21l.87.06c-.05.21-.13.39-.26.54-.14.16-.31.27-.52.36-.21.08-.46.13-.74.13Z"/>
        <path class="cls-7" d="M55.19,85.93v-4.52h1.81c.33,0,.61.05.83.15s.39.23.5.41c.11.17.17.38.17.6,0,.17-.04.33-.11.46-.08.14-.17.24-.3.33-.12.08-.26.14-.42.18v.05c.17,0,.33.06.48.14.15.09.27.21.37.38.09.16.14.36.14.57,0,.24-.06.45-.17.64-.12.19-.3.34-.52.45s-.51.16-.85.16h-1.93ZM56.14,83.3h.71c.13,0,.25-.02.35-.07s.18-.11.24-.2c.06-.08.09-.19.09-.31,0-.16-.06-.3-.17-.39-.11-.1-.28-.15-.49-.15h-.73v1.12ZM56.14,85.14h.79c.26,0,.46-.05.58-.15s.18-.24.18-.41c0-.13-.03-.23-.09-.33-.06-.1-.14-.17-.26-.23s-.24-.08-.4-.08h-.8v1.2Z"/>
        <path class="cls-7" d="M60.02,81.41v4.52h-.94v-4.52h.94Z"/>
        <path class="cls-7" d="M62.1,86c-.34,0-.64-.08-.89-.22-.25-.14-.44-.35-.57-.61-.14-.26-.2-.57-.2-.92s.07-.66.2-.92c.14-.26.33-.47.57-.61.25-.14.54-.22.89-.22s.64.08.89.22c.25.14.44.35.57.61.14.26.2.57.2.92s-.07.65-.2.92-.33.47-.57.61c-.25.14-.54.22-.89.22ZM62.1,85.26c.16,0,.29-.05.39-.13.11-.09.18-.21.24-.36.05-.15.08-.33.08-.52s-.03-.37-.08-.52c-.05-.15-.14-.27-.24-.36s-.23-.13-.39-.13-.29.05-.39.13c-.11.09-.19.2-.24.36s-.08.33-.08.52.03.37.08.52c.05.15.14.27.24.36s.24.13.39.13Z"/>
        <path class="cls-7" d="M66.11,85.99c-.18,0-.34-.03-.46-.09-.13-.06-.23-.14-.31-.23-.08-.09-.14-.18-.19-.28h-.05v.54h-.92v-4.52h.94v1.7h.03c.05-.09.11-.19.18-.28.08-.09.18-.17.31-.23s.29-.1.48-.1c.25,0,.48.06.69.19s.37.33.5.58.19.58.19.97-.06.7-.18.95-.29.45-.49.59-.44.2-.7.2h0ZM65.82,85.24c.15,0,.28-.05.39-.13s.19-.2.24-.36.08-.33.08-.52-.03-.37-.08-.51c-.05-.15-.14-.26-.24-.35s-.23-.13-.39-.13-.28.04-.39.12-.19.2-.24.35-.08.33-.08.53.03.38.08.52c.05.15.14.26.24.35s.23.13.39.13h0Z"/>
      </g>
    </g>
    <g>
      <path class="cls-9" d="M31.32,154.07v4.01h-2.34v-11.38h4.44c.85,0,1.61.16,2.25.47s1.15.76,1.5,1.33c.35.58.52,1.23.52,1.96,0,1.11-.38,1.99-1.14,2.64-.76.64-1.82.96-3.17.96h-2.05ZM31.32,152.17h2.09c.62,0,1.09-.15,1.42-.44.33-.29.49-.71.49-1.25s-.16-1.01-.49-1.35-.78-.52-1.36-.53h-2.15v3.57Z"/>
      <path class="cls-9" d="M43.96,158.07c-.1-.2-.18-.46-.23-.76-.55.61-1.26.91-2.13.91-.83,0-1.51-.24-2.06-.72-.54-.48-.82-1.08-.82-1.81,0-.9.33-1.58,1-2.06s1.62-.72,2.88-.73h1.04v-.48c0-.39-.1-.7-.3-.94-.2-.23-.52-.35-.95-.35-.38,0-.68.09-.89.27-.22.18-.32.43-.32.75h-2.26c0-.49.15-.94.45-1.36.3-.42.73-.74,1.28-.98.55-.24,1.17-.36,1.86-.36,1.04,0,1.87.26,2.48.79.61.52.92,1.26.92,2.21v3.66c0,.8.12,1.41.34,1.82v.13h-2.28ZM42.09,156.5c.33,0,.64-.07.92-.22s.49-.35.62-.6v-1.45h-.84c-1.13,0-1.73.39-1.8,1.17v.13c0,.28.09.51.29.7.2.18.47.27.81.27Z"/>
      <path class="cls-9" d="M50.34,147.54v2.08h1.45v1.66h-1.45v4.22c0,.31.06.54.18.67.12.14.35.2.69.2.25,0,.47-.02.66-.05v1.71c-.44.14-.9.2-1.37.2-1.58,0-2.39-.8-2.42-2.4v-4.55h-1.23v-1.66h1.23v-2.08h2.26Z"/>
      <path class="cls-9" d="M55.25,150.54c.6-.72,1.35-1.08,2.26-1.08,1.83,0,2.76,1.07,2.79,3.2v5.41h-2.26v-5.35c0-.48-.1-.84-.31-1.07-.21-.23-.55-.35-1.04-.35-.66,0-1.14.25-1.44.77v6.01h-2.26v-12h2.26v4.47Z"/>
      <path class="cls-9" d="M62.11,150.57c0-.36.12-.65.36-.88s.55-.34.91-.34.68.11.92.34.36.52.36.88-.12.64-.36.86c-.24.22-.55.33-.92.33s-.67-.11-.91-.33c-.24-.22-.36-.51-.36-.86ZM62.11,156.96c0-.36.12-.65.36-.88s.55-.34.91-.34.68.11.92.34.36.52.36.88-.12.64-.36.86c-.24.22-.55.33-.92.33s-.67-.11-.91-.33c-.24-.22-.36-.51-.36-.86Z"/>
    </g>
    <g>
      <path class="cls-9" d="M131.31,117.98c-.09,1.22-.54,2.19-1.36,2.89-.82.7-1.89,1.05-3.22,1.05-1.46,0-2.61-.49-3.44-1.47s-1.25-2.33-1.25-4.04v-.7c0-1.09.19-2.06.58-2.89.39-.83.94-1.47,1.65-1.92.72-.45,1.55-.67,2.5-.67,1.31,0,2.37.35,3.17,1.05.8.7,1.27,1.69,1.39,2.96h-2.34c-.06-.73-.26-1.27-.61-1.6s-.89-.5-1.61-.5c-.78,0-1.37.28-1.75.84-.39.56-.59,1.43-.6,2.61v.86c0,1.23.19,2.13.56,2.7.37.57.96.85,1.76.85.72,0,1.26-.17,1.62-.5.36-.33.56-.84.61-1.54h2.34Z"/>
      <path class="cls-9" d="M132.35,117.47c0-.84.16-1.59.48-2.24.32-.66.79-1.16,1.39-1.52.61-.36,1.31-.54,2.11-.54,1.14,0,2.07.35,2.79,1.05.72.7,1.12,1.65,1.21,2.84l.02.58c0,1.3-.36,2.34-1.09,3.12-.72.78-1.7,1.18-2.91,1.18s-2.19-.39-2.92-1.17-1.09-1.84-1.09-3.19v-.1ZM134.61,117.63c0,.8.15,1.42.45,1.84.3.42.73.64,1.3.64s.97-.21,1.28-.63c.31-.42.46-1.09.46-2.01,0-.79-.15-1.4-.46-1.83-.31-.43-.74-.65-1.3-.65s-.98.21-1.28.65c-.3.43-.45,1.1-.45,2Z"/>
      <path class="cls-9" d="M143.83,113.32l.07.98c.6-.75,1.41-1.13,2.43-1.13.9,0,1.56.26,2,.79s.66,1.31.67,2.36v5.46h-2.26v-5.41c0-.48-.1-.83-.31-1.04-.21-.22-.55-.32-1.04-.32-.64,0-1.11.27-1.43.81v5.96h-2.26v-8.45h2.12Z"/>
      <path class="cls-9" d="M153.41,111.24v2.08h1.45v1.66h-1.45v4.22c0,.31.06.54.18.67.12.14.35.2.69.2.25,0,.47-.02.66-.05v1.71c-.44.14-.9.2-1.37.2-1.58,0-2.39-.8-2.42-2.4v-4.55h-1.23v-1.66h1.23v-2.08h2.26Z"/>
      <path class="cls-9" d="M161.01,121.77c-.1-.2-.18-.46-.23-.76-.55.61-1.26.91-2.13.91-.83,0-1.51-.24-2.06-.72-.54-.48-.82-1.08-.82-1.81,0-.9.33-1.58,1-2.06s1.62-.72,2.88-.73h1.04v-.48c0-.39-.1-.7-.3-.94-.2-.23-.52-.35-.95-.35-.38,0-.68.09-.89.27-.22.18-.32.43-.32.75h-2.26c0-.49.15-.94.45-1.36.3-.42.73-.74,1.28-.98.55-.24,1.17-.36,1.86-.36,1.04,0,1.87.26,2.48.79.61.52.92,1.26.92,2.21v3.66c0,.8.12,1.41.34,1.82v.13h-2.28ZM159.15,120.2c.33,0,.64-.07.92-.22s.49-.35.62-.6v-1.45h-.84c-1.13,0-1.73.39-1.8,1.17v.13c0,.28.09.51.29.7.2.18.47.27.81.27Z"/>
      <path class="cls-9" d="M164.68,111.13c0-.34.11-.62.34-.84s.54-.33.93-.33.69.11.92.33c.23.22.34.5.34.84s-.12.62-.35.84c-.23.22-.54.33-.92.33s-.69-.11-.92-.33c-.23-.22-.35-.5-.35-.84ZM167.08,121.77h-2.27v-8.45h2.27v8.45Z"/>
      <path class="cls-9" d="M171.01,113.32l.07.98c.6-.75,1.41-1.13,2.43-1.13.9,0,1.56.26,2,.79s.66,1.31.67,2.36v5.46h-2.26v-5.41c0-.48-.1-.83-.31-1.04-.21-.22-.55-.32-1.04-.32-.64,0-1.11.27-1.43.81v5.96h-2.26v-8.45h2.12Z"/>
      <path class="cls-9" d="M181.79,121.93c-1.24,0-2.25-.38-3.03-1.14-.78-.76-1.17-1.77-1.17-3.04v-.22c0-.85.16-1.61.49-2.28s.79-1.18,1.39-1.55,1.29-.54,2.06-.54c1.16,0,2.07.36,2.73,1.09s1,1.76,1,3.1v.92h-5.38c.07.55.29,1,.66,1.33s.83.5,1.39.5c.87,0,1.55-.32,2.04-.95l1.11,1.24c-.34.48-.8.85-1.38,1.12s-1.22.4-1.92.4ZM181.53,114.98c-.45,0-.81.15-1.09.46-.28.3-.46.74-.54,1.3h3.14v-.18c-.01-.5-.15-.89-.41-1.17-.26-.27-.63-.41-1.11-.41Z"/>
      <path class="cls-9" d="M191.29,115.44c-.31-.04-.58-.06-.81-.06-.85,0-1.41.29-1.68.87v5.53h-2.26v-8.45h2.13l.06,1.01c.45-.78,1.08-1.16,1.88-1.16.25,0,.48.03.7.1l-.03,2.17Z"/>
      <path class="cls-9" d="M192.49,114.27c0-.36.12-.65.36-.88s.55-.34.91-.34.68.11.92.34.36.52.36.88-.12.64-.36.86c-.24.22-.55.33-.92.33s-.67-.11-.91-.33c-.24-.22-.36-.51-.36-.86ZM192.49,120.66c0-.36.12-.65.36-.88s.55-.34.91-.34.68.11.92.34.36.52.36.88-.12.64-.36.86c-.24.22-.55.33-.92.33s-.67-.11-.91-.33c-.24-.22-.36-.51-.36-.86Z"/>
    </g>
    <g>
      <path class="cls-9" d="M34.32,119.48h-4.11l-.78,2.34h-2.49l4.23-11.38h2.17l4.26,11.38h-2.49l-.79-2.34ZM30.84,117.58h2.84l-1.43-4.26-1.41,4.26Z"/>
      <path class="cls-9" d="M42.03,120.16c.42,0,.75-.11,1.02-.34.26-.23.4-.53.41-.91h2.12c0,.57-.16,1.1-.47,1.57-.31.48-.73.85-1.26,1.11-.53.26-1.12.39-1.77.39-1.21,0-2.16-.38-2.86-1.15-.7-.77-1.05-1.83-1.05-3.18v-.15c0-1.3.35-2.34,1.04-3.12.69-.78,1.64-1.16,2.85-1.16,1.06,0,1.9.3,2.54.9.64.6.96,1.4.97,2.4h-2.12c-.01-.44-.15-.8-.41-1.07-.26-.27-.6-.41-1.03-.41-.53,0-.92.19-1.19.58-.27.38-.4,1-.4,1.87v.23c0,.87.13,1.5.4,1.88s.67.57,1.21.57Z"/>
      <path class="cls-9" d="M50.37,120.16c.42,0,.75-.11,1.02-.34.26-.23.4-.53.41-.91h2.12c0,.57-.16,1.1-.47,1.57-.31.48-.73.85-1.26,1.11-.53.26-1.12.39-1.77.39-1.21,0-2.16-.38-2.86-1.15-.7-.77-1.05-1.83-1.05-3.18v-.15c0-1.3.35-2.34,1.04-3.12.69-.78,1.64-1.16,2.85-1.16,1.06,0,1.9.3,2.54.9.64.6.96,1.4.97,2.4h-2.12c-.01-.44-.15-.8-.41-1.07-.26-.27-.6-.41-1.03-.41-.53,0-.92.19-1.19.58-.27.38-.4,1-.4,1.87v.23c0,.87.13,1.5.4,1.88s.67.57,1.21.57Z"/>
      <path class="cls-9" d="M54.85,117.52c0-.84.16-1.59.48-2.24.32-.66.79-1.16,1.39-1.52.61-.36,1.31-.54,2.11-.54,1.14,0,2.07.35,2.79,1.05.72.7,1.12,1.65,1.21,2.84l.02.58c0,1.3-.36,2.34-1.09,3.12-.72.78-1.7,1.18-2.91,1.18s-2.19-.39-2.92-1.17-1.09-1.84-1.09-3.19v-.1ZM57.11,117.68c0,.8.15,1.42.45,1.84.3.42.73.64,1.3.64s.97-.21,1.28-.63c.31-.42.46-1.09.46-2.01,0-.79-.15-1.4-.46-1.83-.31-.43-.74-.65-1.3-.65s-.98.21-1.28.65c-.3.43-.45,1.1-.45,2Z"/>
      <path class="cls-9" d="M69.31,120.96c-.56.68-1.33,1.02-2.31,1.02-.91,0-1.6-.26-2.07-.78s-.72-1.28-.73-2.29v-5.54h2.26v5.47c0,.88.4,1.32,1.2,1.32s1.29-.27,1.58-.8v-5.99h2.27v8.45h-2.12l-.06-.86Z"/>
      <path class="cls-9" d="M75.28,113.37l.07.98c.6-.75,1.41-1.13,2.43-1.13.9,0,1.56.26,2,.79s.66,1.31.67,2.36v5.46h-2.26v-5.41c0-.48-.1-.83-.31-1.04-.21-.22-.55-.32-1.04-.32-.64,0-1.11.27-1.43.81v5.96h-2.26v-8.45h2.12Z"/>
      <path class="cls-9" d="M84.86,111.29v2.08h1.45v1.66h-1.45v4.22c0,.31.06.54.18.67.12.14.35.2.69.2.25,0,.47-.02.66-.05v1.71c-.44.14-.9.2-1.37.2-1.58,0-2.39-.8-2.42-2.4v-4.55h-1.23v-1.66h1.23v-2.08h2.26Z"/>
      <path class="cls-9" d="M87.68,114.32c0-.36.12-.65.36-.88s.55-.34.91-.34.68.11.92.34.36.52.36.88-.12.64-.36.86c-.24.22-.55.33-.92.33s-.67-.11-.91-.33c-.24-.22-.36-.51-.36-.86ZM87.68,120.71c0-.36.12-.65.36-.88s.55-.34.91-.34.68.11.92.34.36.52.36.88-.12.64-.36.86c-.24.22-.55.33-.92.33s-.67-.11-.91-.33c-.24-.22-.36-.51-.36-.86Z"/>
    </g>
    <g>
      <path class="cls-6" d="M29.13,172.7v-6.6h.95v1.22c.07-.42.26-.75.57-.99.31-.24.71-.35,1.22-.35.66,0,1.18.21,1.57.62.39.41.59.97.59,1.67v4.43h-.95v-4.27c0-.53-.13-.93-.4-1.22-.26-.28-.62-.43-1.08-.43s-.84.15-1.12.44-.41.71-.41,1.24v4.24h-.95Z"/>
      <path class="cls-6" d="M38.76,172.81c-.77,0-1.38-.23-1.84-.68s-.68-1.09-.68-1.9v-1.66c0-.81.23-1.44.68-1.9.45-.46,1.07-.68,1.84-.68s1.39.23,1.84.68.68,1.09.68,1.9v1.66c0,.81-.23,1.44-.68,1.9s-1.07.68-1.84.68ZM38.76,171.95c.49,0,.87-.14,1.15-.42.28-.28.42-.69.42-1.22v-1.82c0-.54-.14-.94-.42-1.22-.28-.28-.66-.42-1.15-.42s-.87.14-1.15.42c-.28.28-.42.69-.42,1.22v1.82c0,.54.14.94.42,1.22.28.28.66.42,1.15.42Z"/>
      <path class="cls-6" d="M43.77,172.7v-6.6h.96v1.22c.07-.42.26-.74.57-.98.31-.24.71-.36,1.21-.36.7,0,1.23.21,1.6.62.37.41.55.99.55,1.75v.58h-.95v-.58c0-1.02-.49-1.54-1.48-1.54-.49,0-.86.14-1.12.43-.26.29-.38.7-.38,1.22v4.24h-.96Z"/>
      <path class="cls-6" d="M53.82,172.7c-.54,0-.96-.15-1.27-.45s-.47-.71-.47-1.23v-4.06h-1.91v-.86h1.91v-1.86h.96v1.86h2.71v.86h-2.71v4.06c0,.26.07.46.21.6.14.14.33.22.57.22h1.87v.86h-1.87Z"/>
      <path class="cls-6" d="M57.93,172.7v-8.76h.95v3.37h.01c.06-.42.25-.75.56-.98.31-.23.72-.35,1.21-.35.66,0,1.18.21,1.57.62.39.41.59.97.59,1.67v4.43h-.95v-4.27c0-.53-.13-.93-.4-1.22-.26-.28-.62-.43-1.08-.43s-.84.15-1.12.44-.41.71-.41,1.24v4.24h-.95Z"/>
      <path class="cls-6" d="M65.64,169.16v-.84h3.84v.84h-3.84Z"/>
      <path class="cls-6" d="M75.68,172.7c-.57,0-1.02-.16-1.35-.49-.33-.32-.5-.76-.5-1.31v-6.1h-2.26v-.86h3.2v6.96c0,.3.08.53.24.69.16.16.38.25.66.25h2.04v.86h-2.04Z"/>
      <path class="cls-6" d="M81.96,172.81c-.77,0-1.38-.23-1.84-.68s-.68-1.09-.68-1.9v-1.66c0-.81.23-1.44.68-1.9.45-.46,1.07-.68,1.84-.68s1.39.23,1.84.68.68,1.09.68,1.9v1.66c0,.81-.23,1.44-.68,1.9s-1.07.68-1.84.68ZM81.96,171.95c.49,0,.87-.14,1.15-.42.28-.28.42-.69.42-1.22v-1.82c0-.54-.14-.94-.42-1.22-.28-.28-.66-.42-1.15-.42s-.87.14-1.15.42c-.28.28-.42.69-.42,1.22v1.82c0,.54.14.94.42,1.22.28.28.66.42,1.15.42Z"/>
      <path class="cls-6" d="M89.26,172.82c-.78,0-1.4-.22-1.87-.67-.47-.44-.7-1.05-.7-1.82v-1.87c0-.77.23-1.37.7-1.82.47-.44,1.09-.67,1.87-.67s1.36.2,1.82.61c.46.41.7.96.71,1.67h-.96c-.02-.45-.16-.8-.44-1.05-.28-.25-.66-.38-1.13-.38s-.88.14-1.17.43c-.29.28-.44.69-.44,1.21v1.87c0,.52.15.92.44,1.21.29.28.68.43,1.17.43s.85-.13,1.13-.38c.28-.25.43-.6.44-1.05h.96c-.02.7-.25,1.26-.71,1.67-.46.41-1.07.61-1.82.61Z"/>
      <path class="cls-6" d="M95.83,172.82c-.69,0-1.23-.19-1.62-.57-.39-.38-.59-.87-.59-1.48,0-.4.09-.75.27-1.05.18-.3.43-.54.75-.71.32-.17.69-.26,1.1-.26h2.1v-.55c0-.93-.49-1.39-1.46-1.39-.44,0-.79.09-1.06.26s-.41.41-.44.71h-.95c.04-.52.28-.95.71-1.29s1.01-.51,1.73-.51c.78,0,1.37.19,1.79.58.42.38.62.92.62,1.62v4.52h-.94v-1.24h-.01c-.06.42-.27.75-.63.99s-.82.37-1.39.37ZM96.07,172c.54,0,.98-.13,1.3-.4.32-.27.48-.63.48-1.1v-1h-2.02c-.37,0-.67.11-.9.34-.23.23-.35.52-.35.88,0,.38.13.69.4.92.26.23.63.35,1.09.35Z"/>
      <path class="cls-6" d="M104.48,172.7c-.57,0-1.02-.16-1.35-.49-.33-.32-.5-.76-.5-1.31v-6.1h-2.26v-.86h3.2v6.96c0,.3.08.53.24.69.16.16.38.25.66.25h2.04v.86h-2.04Z"/>
      <path class="cls-6" d="M108.84,169.16v-.84h3.84v.84h-3.84Z"/>
      <path class="cls-6" d="M117.96,172.81c-.77,0-1.38-.23-1.84-.68s-.68-1.09-.68-1.9v-1.66c0-.81.23-1.44.68-1.9.45-.46,1.07-.68,1.84-.68s1.39.23,1.84.68.68,1.09.68,1.9v1.66c0,.81-.23,1.44-.68,1.9s-1.07.68-1.84.68ZM117.96,171.95c.49,0,.87-.14,1.15-.42.28-.28.42-.69.42-1.22v-1.82c0-.54-.14-.94-.42-1.22-.28-.28-.66-.42-1.15-.42s-.87.14-1.15.42c-.28.28-.42.69-.42,1.22v1.82c0,.54.14.94.42,1.22.28.28.66.42,1.15.42Z"/>
      <path class="cls-6" d="M122.62,172.7v-.86h2.35v-4.87h-2.1v-.86h3.06v5.74h2.23v.86h-5.54ZM125.34,164.89c-.25,0-.45-.06-.59-.19s-.22-.3-.22-.53.07-.42.22-.55.35-.2.59-.2.45.07.59.2.22.32.22.55-.07.4-.22.53-.35.19-.59.19Z"/>
      <path class="cls-6" d="M132.68,172.82c-.49,0-.89-.12-1.21-.35-.32-.24-.52-.56-.6-.97v1.2h-.95v-8.76h.95v3.36c.06-.41.26-.73.59-.97.33-.24.74-.35,1.22-.35.66,0,1.19.22,1.58.66.39.44.59,1.04.59,1.79v1.96c0,.75-.2,1.35-.59,1.78-.4.44-.92.65-1.58.65ZM132.38,171.99c.48,0,.85-.13,1.12-.39s.4-.67.4-1.22v-1.96c0-.55-.13-.96-.4-1.22s-.64-.4-1.12-.4-.84.15-1.11.44c-.27.29-.4.7-.4,1.22v1.87c0,.52.14.93.41,1.22.27.29.64.44,1.1.44Z"/>
    </g>
    <g>
      <path class="cls-6" d="M30.48,137.13c-.77,0-1.38-.23-1.84-.68s-.68-1.09-.68-1.9v-1.66c0-.81.23-1.44.68-1.9.45-.46,1.07-.68,1.84-.68s1.39.23,1.84.68.68,1.09.68,1.9v1.66c0,.81-.23,1.44-.68,1.9s-1.07.68-1.84.68ZM30.48,136.27c.49,0,.87-.14,1.15-.42.28-.28.42-.69.42-1.22v-1.82c0-.54-.14-.94-.42-1.22-.28-.28-.66-.42-1.15-.42s-.87.14-1.15.42c-.28.28-.42.69-.42,1.22v1.82c0,.54.14.94.42,1.22.28.28.66.42,1.15.42Z"/>
      <path class="cls-6" d="M35.14,137.02v-.86h2.35v-4.87h-2.1v-.86h3.06v5.74h2.23v.86h-5.54ZM37.86,129.21c-.25,0-.45-.06-.59-.19s-.22-.3-.22-.53.07-.42.22-.55.35-.2.59-.2.45.07.59.2.22.32.22.55-.07.4-.22.53-.35.19-.59.19Z"/>
      <path class="cls-6" d="M45.2,137.14c-.49,0-.89-.12-1.21-.35-.32-.24-.52-.56-.6-.97v1.2h-.95v-8.76h.95v3.36c.06-.41.26-.73.59-.97.33-.24.74-.35,1.22-.35.66,0,1.19.22,1.58.66.39.44.59,1.04.59,1.79v1.96c0,.75-.2,1.35-.59,1.78-.4.44-.92.65-1.58.65ZM44.9,136.31c.48,0,.85-.13,1.12-.39s.4-.67.4-1.22v-1.96c0-.55-.13-.96-.4-1.22s-.64-.4-1.12-.4-.84.15-1.11.44c-.27.29-.4.7-.4,1.22v1.87c0,.52.14.93.41,1.22.27.29.64.44,1.1.44Z"/>
      <path class="cls-6" d="M52.07,137.14c-.75,0-1.35-.22-1.79-.67s-.66-1.06-.66-1.82v-4.22h.95v4.22c0,.51.13.92.4,1.21.27.3.63.44,1.1.44s.84-.15,1.12-.44.41-.7.41-1.21v-4.22h.95v4.22c0,.77-.22,1.38-.67,1.82-.45.45-1.05.67-1.8.67Z"/>
      <path class="cls-6" d="M58.99,137.13c-.7,0-1.26-.17-1.66-.5-.4-.33-.61-.79-.62-1.37h.96c.02.32.14.57.37.76.23.18.55.28.95.28h.61c.42,0,.74-.09.97-.28.23-.19.34-.45.34-.79,0-.3-.07-.55-.22-.74-.15-.19-.37-.3-.65-.33l-1.73-.24c-.48-.07-.85-.26-1.12-.56-.26-.3-.4-.7-.4-1.21,0-.57.2-1.02.59-1.34.39-.33.93-.49,1.61-.49h.56c.63,0,1.15.16,1.54.47.4.31.61.72.65,1.22h-.96c-.03-.25-.16-.46-.38-.62s-.51-.25-.86-.25h-.56c-.39,0-.7.09-.92.28-.22.18-.34.43-.34.74,0,.51.27.8.8.88l1.63.23c.54.07.96.28,1.25.61.29.34.43.78.43,1.33,0,.61-.2,1.08-.59,1.42-.4.34-.95.51-1.65.51h-.61Z"/>
    </g>
    <g>
      <path class="cls-6" d="M125.22,137.57c-.54,0-.96-.15-1.27-.45s-.47-.71-.47-1.23v-4.06h-1.91v-.86h1.91v-1.86h.96v1.86h2.71v.86h-2.71v4.06c0,.26.07.46.21.6.14.14.33.22.57.22h1.87v.86h-1.87Z"/>
      <path class="cls-6" d="M131.76,137.69c-.77,0-1.38-.23-1.84-.69s-.68-1.09-.68-1.89v-1.68c0-.8.23-1.43.68-1.89s1.07-.69,1.84-.69,1.38.23,1.84.68.68,1.05.68,1.81v1.18h-4.12v.7c0,.5.14.91.43,1.21s.68.45,1.16.45c.42,0,.76-.09,1.03-.26s.44-.41.49-.7h.95c-.07.55-.33.99-.78,1.31-.45.32-1.01.48-1.69.48ZM130.16,133.76h3.19v-.42c0-.54-.14-.95-.42-1.25-.28-.3-.67-.44-1.18-.44s-.9.15-1.18.44c-.28.3-.42.71-.42,1.25v.42Z"/>
      <path class="cls-6" d="M138.67,137.68c-.7,0-1.26-.17-1.66-.5-.4-.33-.61-.79-.62-1.37h.96c.02.32.14.57.37.76.23.18.55.28.95.28h.61c.42,0,.74-.09.97-.28.23-.19.34-.45.34-.79,0-.3-.07-.55-.22-.74-.15-.19-.37-.3-.65-.33l-1.73-.24c-.48-.07-.85-.26-1.12-.56-.26-.3-.4-.7-.4-1.21,0-.57.2-1.02.59-1.34.39-.33.93-.49,1.61-.49h.56c.63,0,1.15.16,1.54.47.4.31.61.72.65,1.22h-.96c-.03-.25-.16-.46-.38-.62s-.51-.25-.86-.25h-.56c-.39,0-.7.09-.92.28-.22.18-.34.43-.34.74,0,.51.27.8.8.88l1.63.23c.54.07.96.28,1.25.61.29.34.43.78.43,1.33,0,.61-.2,1.08-.59,1.42-.4.34-.95.51-1.65.51h-.61Z"/>
      <path class="cls-6" d="M146.82,137.57c-.54,0-.96-.15-1.27-.45s-.47-.71-.47-1.23v-4.06h-1.91v-.86h1.91v-1.86h.96v1.86h2.71v.86h-2.71v4.06c0,.26.07.46.21.6.14.14.33.22.57.22h1.87v.86h-1.87Z"/>
      <path class="cls-6" d="M151.44,134.03v-.84h3.84v.84h-3.84Z"/>
      <path class="cls-6" d="M160.56,137.68c-.77,0-1.38-.23-1.84-.68s-.68-1.09-.68-1.9v-1.66c0-.81.23-1.44.68-1.9.45-.46,1.07-.68,1.84-.68s1.39.23,1.84.68.68,1.09.68,1.9v1.66c0,.81-.23,1.44-.68,1.9s-1.07.68-1.84.68ZM160.56,136.83c.49,0,.87-.14,1.15-.42.28-.28.42-.69.42-1.22v-1.82c0-.54-.14-.94-.42-1.22-.28-.28-.66-.42-1.15-.42s-.87.14-1.15.42c-.28.28-.42.69-.42,1.22v1.82c0,.54.14.94.42,1.22.28.28.66.42,1.15.42Z"/>
      <path class="cls-6" d="M165.21,137.57v-.86h2.35v-4.87h-2.1v-.86h3.06v5.74h2.23v.86h-5.54ZM167.94,129.76c-.25,0-.45-.06-.59-.19s-.22-.3-.22-.53.07-.42.22-.55.35-.2.59-.2.45.07.59.2.22.32.22.55-.07.4-.22.53-.35.19-.59.19Z"/>
      <path class="cls-6" d="M175.28,137.69c-.49,0-.89-.12-1.21-.35-.32-.24-.52-.56-.6-.97v1.2h-.95v-8.76h.95v3.36c.06-.41.26-.73.59-.97.33-.24.74-.35,1.22-.35.66,0,1.19.22,1.58.66.39.44.59,1.04.59,1.79v1.96c0,.75-.2,1.35-.59,1.78-.4.44-.92.65-1.58.65ZM174.98,136.87c.48,0,.85-.13,1.12-.39s.4-.67.4-1.22v-1.96c0-.55-.13-.96-.4-1.22s-.64-.4-1.12-.4-.84.15-1.11.44c-.27.29-.4.7-.4,1.22v1.87c0,.52.14.93.41,1.22.27.29.64.44,1.1.44Z"/>
      <path class="cls-6" d="M182.15,137.69c-.75,0-1.35-.22-1.79-.67s-.66-1.06-.66-1.82v-4.22h.95v4.22c0,.51.13.92.4,1.21.27.3.63.44,1.1.44s.84-.15,1.12-.44.41-.7.41-1.21v-4.22h.95v4.22c0,.77-.22,1.38-.67,1.82-.45.45-1.05.67-1.8.67Z"/>
      <path class="cls-6" d="M189.07,137.68c-.7,0-1.26-.17-1.66-.5-.4-.33-.61-.79-.62-1.37h.96c.02.32.14.57.37.76.23.18.55.28.95.28h.61c.42,0,.74-.09.97-.28.23-.19.34-.45.34-.79,0-.3-.07-.55-.22-.74-.15-.19-.37-.3-.65-.33l-1.73-.24c-.48-.07-.85-.26-1.12-.56-.26-.3-.4-.7-.4-1.21,0-.57.2-1.02.59-1.34.39-.33.93-.49,1.61-.49h.56c.63,0,1.15.16,1.54.47.4.31.61.72.65,1.22h-.96c-.03-.25-.16-.46-.38-.62s-.51-.25-.86-.25h-.56c-.39,0-.7.09-.92.28-.22.18-.34.43-.34.74,0,.51.27.8.8.88l1.63.23c.54.07.96.28,1.25.61.29.34.43.78.43,1.33,0,.61-.2,1.08-.59,1.42-.4.34-.95.51-1.65.51h-.61Z"/>
    </g>
    <g>
      <path class="cls-9" d="M594.55,546.62v4.01h-2.34v-11.38h4.44c.85,0,1.61.16,2.25.47s1.15.76,1.5,1.33c.35.58.52,1.23.52,1.96,0,1.11-.38,1.99-1.14,2.64-.76.64-1.82.96-3.17.96h-2.05ZM594.55,544.72h2.09c.62,0,1.09-.15,1.42-.44.33-.29.49-.71.49-1.25s-.16-1.01-.49-1.35-.78-.52-1.36-.53h-2.15v3.57Z"/>
      <path class="cls-9" d="M601.93,546.33c0-.84.16-1.59.48-2.24.32-.66.79-1.16,1.39-1.52.61-.36,1.31-.54,2.11-.54,1.14,0,2.07.35,2.79,1.05.72.7,1.12,1.65,1.21,2.84l.02.58c0,1.3-.36,2.34-1.09,3.12-.72.78-1.7,1.18-2.91,1.18s-2.19-.39-2.92-1.17-1.09-1.84-1.09-3.19v-.1ZM604.18,546.49c0,.8.15,1.42.45,1.84.3.42.73.64,1.3.64s.97-.21,1.28-.63c.31-.42.46-1.09.46-2.01,0-.79-.15-1.4-.46-1.83-.31-.43-.74-.65-1.3-.65s-.98.21-1.28.65c-.3.43-.45,1.1-.45,2Z"/>
      <path class="cls-9" d="M616.07,544.29c-.31-.04-.58-.06-.81-.06-.85,0-1.41.29-1.68.87v5.53h-2.26v-8.45h2.13l.06,1.01c.45-.78,1.08-1.16,1.88-1.16.25,0,.48.03.7.1l-.03,2.17Z"/>
      <path class="cls-9" d="M620.25,540.1v2.08h1.45v1.66h-1.45v4.22c0,.31.06.54.18.67.12.14.35.2.69.2.25,0,.47-.02.66-.05v1.71c-.44.14-.9.2-1.37.2-1.58,0-2.39-.8-2.42-2.4v-4.55h-1.23v-1.66h1.23v-2.08h2.26Z"/>
      <path class="cls-9" d="M623.07,543.12c0-.36.12-.65.36-.88s.55-.34.91-.34.68.11.92.34.36.52.36.88-.12.64-.36.86c-.24.22-.55.33-.92.33s-.67-.11-.91-.33c-.24-.22-.36-.51-.36-.86ZM623.07,549.52c0-.36.12-.65.36-.88s.55-.34.91-.34.68.11.92.34.36.52.36.88-.12.64-.36.86c-.24.22-.55.33-.92.33s-.67-.11-.91-.33c-.24-.22-.36-.51-.36-.86Z"/>
    </g>
    <g>
      <path class="cls-9" d="M508.2,550.63h-2.34v-11.38h2.34v11.38Z"/>
      <path class="cls-9" d="M512.71,546.62v4.01h-2.34v-11.38h4.44c.85,0,1.61.16,2.25.47s1.15.76,1.5,1.33c.35.58.52,1.23.52,1.96,0,1.11-.38,1.99-1.14,2.64-.76.64-1.82.96-3.17.96h-2.05ZM512.71,544.72h2.09c.62,0,1.09-.15,1.42-.44.33-.29.49-.71.49-1.25s-.16-1.01-.49-1.35-.78-.52-1.36-.53h-2.15v3.57Z"/>
      <path class="cls-9" d="M520.65,543.12c0-.36.12-.65.36-.88s.55-.34.91-.34.68.11.92.34.36.52.36.88-.12.64-.36.86c-.24.22-.55.33-.92.33s-.67-.11-.91-.33c-.24-.22-.36-.51-.36-.86ZM520.65,549.52c0-.36.12-.65.36-.88s.55-.34.91-.34.68.11.92.34.36.52.36.88-.12.64-.36.86c-.24.22-.55.33-.92.33s-.67-.11-.91-.33c-.24-.22-.36-.51-.36-.86Z"/>
    </g>
    <g>
      <path class="cls-9" d="M505.71,514.39v-11.38h3.5c1,0,1.89.23,2.68.68s1.4,1.09,1.85,1.92c.44.83.66,1.77.66,2.83v.52c0,1.06-.22,2-.65,2.82-.44.82-1.05,1.46-1.84,1.91-.79.45-1.69.68-2.68.69h-3.52ZM508.05,504.92v7.59h1.13c.92,0,1.62-.3,2.1-.9s.73-1.46.74-2.57v-.6c0-1.16-.24-2.03-.72-2.63-.48-.6-1.18-.89-2.1-.89h-1.16Z"/>
      <path class="cls-9" d="M520.85,514.39c-.1-.2-.18-.46-.23-.76-.55.61-1.26.91-2.13.91-.83,0-1.51-.24-2.06-.72-.54-.48-.82-1.08-.82-1.81,0-.9.33-1.58,1-2.06s1.62-.72,2.88-.73h1.04v-.48c0-.39-.1-.7-.3-.94-.2-.23-.52-.35-.95-.35-.38,0-.68.09-.89.27-.22.18-.32.43-.32.75h-2.26c0-.49.15-.94.45-1.36.3-.42.73-.74,1.28-.98.55-.24,1.17-.36,1.86-.36,1.04,0,1.87.26,2.48.79.61.52.92,1.26.92,2.21v3.66c0,.8.12,1.41.34,1.82v.13h-2.28ZM518.99,512.82c.33,0,.64-.07.92-.22s.49-.35.62-.6v-1.45h-.84c-1.13,0-1.73.39-1.8,1.17v.13c0,.28.09.51.29.7.2.18.47.27.81.27Z"/>
      <path class="cls-9" d="M527.24,503.86v2.08h1.45v1.66h-1.45v4.22c0,.31.06.54.18.67.12.14.35.2.69.2.25,0,.47-.02.66-.05v1.71c-.44.14-.9.2-1.37.2-1.58,0-2.39-.8-2.42-2.4v-4.55h-1.23v-1.66h1.23v-2.08h2.26Z"/>
      <path class="cls-9" d="M534.84,514.39c-.1-.2-.18-.46-.23-.76-.55.61-1.26.91-2.13.91-.83,0-1.51-.24-2.06-.72-.54-.48-.82-1.08-.82-1.81,0-.9.33-1.58,1-2.06s1.62-.72,2.88-.73h1.04v-.48c0-.39-.1-.7-.3-.94-.2-.23-.52-.35-.95-.35-.38,0-.68.09-.89.27-.22.18-.32.43-.32.75h-2.26c0-.49.15-.94.45-1.36.3-.42.73-.74,1.28-.98.55-.24,1.17-.36,1.86-.36,1.04,0,1.87.26,2.48.79.61.52.92,1.26.92,2.21v3.66c0,.8.12,1.41.34,1.82v.13h-2.28ZM532.97,512.82c.33,0,.64-.07.92-.22s.49-.35.62-.6v-1.45h-.84c-1.13,0-1.73.39-1.8,1.17v.13c0,.28.09.51.29.7.2.18.47.27.81.27Z"/>
      <path class="cls-9" d="M546.14,510.25c0,1.35-.29,2.41-.87,3.17s-1.39,1.14-2.42,1.14c-.92,0-1.65-.35-2.2-1.05l-.1.9h-2.03v-12h2.26v4.3c.52-.61,1.21-.91,2.05-.91,1.03,0,1.84.38,2.43,1.14s.88,1.82.88,3.2v.12ZM543.88,510.08c0-.85-.14-1.48-.41-1.87-.27-.39-.67-.59-1.21-.59-.72,0-1.21.29-1.48.88v3.34c.28.59.78.89,1.5.89s1.21-.36,1.44-1.08c.11-.34.16-.87.16-1.57Z"/>
      <path class="cls-9" d="M552.42,514.39c-.1-.2-.18-.46-.23-.76-.55.61-1.26.91-2.13.91-.83,0-1.51-.24-2.06-.72-.54-.48-.82-1.08-.82-1.81,0-.9.33-1.58,1-2.06s1.62-.72,2.88-.73h1.04v-.48c0-.39-.1-.7-.3-.94-.2-.23-.52-.35-.95-.35-.38,0-.68.09-.89.27-.22.18-.32.43-.32.75h-2.26c0-.49.15-.94.45-1.36.3-.42.73-.74,1.28-.98.55-.24,1.17-.36,1.86-.36,1.04,0,1.87.26,2.48.79.61.52.92,1.26.92,2.21v3.66c0,.8.12,1.41.34,1.82v.13h-2.28ZM550.56,512.82c.33,0,.64-.07.92-.22s.49-.35.62-.6v-1.45h-.84c-1.13,0-1.73.39-1.8,1.17v.13c0,.28.09.51.29.7.2.18.47.27.81.27Z"/>
      <path class="cls-9" d="M560.68,512.06c0-.28-.14-.49-.41-.65s-.71-.3-1.32-.43c-2.01-.42-3.02-1.28-3.02-2.56,0-.75.31-1.38.93-1.88.62-.5,1.44-.75,2.44-.75,1.07,0,1.93.25,2.57.76.64.5.96,1.16.96,1.97h-2.26c0-.32-.1-.59-.31-.8-.21-.21-.53-.32-.98-.32-.38,0-.67.09-.88.26-.21.17-.31.39-.31.66,0,.25.12.45.36.61.24.15.64.29,1.2.4s1.04.24,1.42.38c1.19.44,1.79,1.2,1.79,2.27,0,.77-.33,1.39-.99,1.87-.66.48-1.52.71-2.56.71-.71,0-1.34-.13-1.89-.38-.55-.25-.98-.6-1.29-1.04s-.47-.92-.47-1.43h2.14c.02.4.17.71.45.92.28.21.65.32,1.11.32.43,0,.76-.08.98-.25.22-.16.33-.38.33-.64Z"/>
      <path class="cls-9" d="M568.22,514.55c-1.24,0-2.25-.38-3.03-1.14-.78-.76-1.17-1.77-1.17-3.04v-.22c0-.85.16-1.61.49-2.28s.79-1.18,1.39-1.55,1.29-.54,2.06-.54c1.16,0,2.07.36,2.73,1.09s1,1.76,1,3.1v.92h-5.38c.07.55.29,1,.66,1.33s.83.5,1.39.5c.87,0,1.55-.32,2.04-.95l1.11,1.24c-.34.48-.8.85-1.38,1.12s-1.22.4-1.92.4ZM567.96,507.6c-.45,0-.81.15-1.09.46-.28.3-.46.74-.54,1.3h3.14v-.18c-.01-.5-.15-.89-.41-1.17-.26-.27-.63-.41-1.11-.41Z"/>
      <path class="cls-9" d="M573.09,506.89c0-.36.12-.65.36-.88s.55-.34.91-.34.68.11.92.34.36.52.36.88-.12.64-.36.86c-.24.22-.55.33-.92.33s-.67-.11-.91-.33c-.24-.22-.36-.51-.36-.86ZM573.09,513.28c0-.36.12-.65.36-.88s.55-.34.91-.34.68.11.92.34.36.52.36.88-.12.64-.36.86c-.24.22-.55.33-.92.33s-.67-.11-.91-.33c-.24-.22-.36-.51-.36-.86Z"/>
    </g>
    <g>
      <path class="cls-6" d="M592.31,565.26v-.86h2.4v-7.07l-2.38,1.78v-1.09l2.04-1.51h1.28v7.9h1.98v.86h-5.33Z"/>
      <path class="cls-6" d="M603.25,565.26v-1.96h-3.97v-1.56l3.25-5.24h1.08l-3.38,5.47v.47h3.02v-2.22h.96v5.04h-.96Z"/>
      <path class="cls-6" d="M609.06,565.38c-.79,0-1.42-.23-1.88-.68s-.7-1.06-.7-1.83h.95c0,.51.15.92.45,1.21.3.3.7.44,1.19.44s.89-.15,1.19-.44c.3-.3.45-.7.45-1.21v-.65c0-.5-.15-.9-.44-1.19-.3-.29-.7-.43-1.2-.43h-.89v-.83l2.22-2.41h-3.67v-.86h4.74v.89l-2.17,2.38c.73.04,1.3.28,1.73.72.42.44.64,1.02.64,1.74v.65c0,.77-.23,1.38-.7,1.83-.47.45-1.1.68-1.9.68Z"/>
      <path class="cls-6" d="M616.26,565.38c-.79,0-1.42-.23-1.88-.68s-.7-1.06-.7-1.83h.95c0,.51.15.92.45,1.21.3.3.7.44,1.19.44s.89-.15,1.19-.44c.3-.3.45-.7.45-1.21v-.65c0-.5-.15-.9-.44-1.19-.3-.29-.7-.43-1.2-.43h-.89v-.83l2.22-2.41h-3.67v-.86h4.74v.89l-2.17,2.38c.73.04,1.3.28,1.73.72.42.44.64,1.02.64,1.74v.65c0,.77-.23,1.38-.7,1.83-.47.45-1.1.68-1.9.68Z"/>
    </g>
    <g>
      <path class="cls-6" d="M508.29,529.7c-.77,0-1.38-.23-1.84-.68s-.68-1.09-.68-1.9v-1.66c0-.81.23-1.44.68-1.9.45-.46,1.07-.68,1.84-.68s1.39.23,1.84.68.68,1.09.68,1.9v1.66c0,.81-.23,1.44-.68,1.9s-1.07.68-1.84.68ZM508.29,528.84c.49,0,.87-.14,1.15-.42.28-.28.42-.69.42-1.22v-1.82c0-.54-.14-.94-.42-1.22-.28-.28-.66-.42-1.15-.42s-.87.14-1.15.42c-.28.28-.42.69-.42,1.22v1.82c0,.54.14.94.42,1.22.28.28.66.42,1.15.42Z"/>
      <path class="cls-6" d="M512.95,529.59v-.86h2.35v-4.87h-2.1v-.86h3.06v5.74h2.23v.86h-5.54ZM515.67,521.78c-.25,0-.45-.06-.59-.19s-.22-.3-.22-.53.07-.42.22-.55.35-.2.59-.2.45.07.59.2.22.32.22.55-.07.4-.22.53-.35.19-.59.19Z"/>
      <path class="cls-6" d="M523.01,529.71c-.49,0-.89-.12-1.21-.35-.32-.24-.52-.56-.6-.97v1.2h-.95v-8.76h.95v3.36c.06-.41.26-.73.59-.97.33-.24.74-.35,1.22-.35.66,0,1.19.22,1.58.66.39.44.59,1.04.59,1.79v1.96c0,.75-.2,1.35-.59,1.78-.4.44-.92.65-1.58.65ZM522.71,528.88c.48,0,.85-.13,1.12-.39s.4-.67.4-1.22v-1.96c0-.55-.13-.96-.4-1.22s-.64-.4-1.12-.4-.84.15-1.11.44c-.27.29-.4.7-.4,1.22v1.87c0,.52.14.93.41,1.22.27.29.64.44,1.1.44Z"/>
      <path class="cls-6" d="M529.88,529.71c-.75,0-1.35-.22-1.79-.67s-.66-1.06-.66-1.82v-4.22h.95v4.22c0,.51.13.92.4,1.21.27.3.63.44,1.1.44s.84-.15,1.12-.44.41-.7.41-1.21v-4.22h.95v4.22c0,.77-.22,1.38-.67,1.82-.45.45-1.05.67-1.8.67Z"/>
      <path class="cls-6" d="M536.8,529.7c-.7,0-1.26-.17-1.66-.5-.4-.33-.61-.79-.62-1.37h.96c.02.32.14.57.37.76.23.18.55.28.95.28h.61c.42,0,.74-.09.97-.28.23-.19.34-.45.34-.79,0-.3-.07-.55-.22-.74-.15-.19-.37-.3-.65-.33l-1.73-.24c-.48-.07-.85-.26-1.12-.56-.26-.3-.4-.7-.4-1.21,0-.57.2-1.02.59-1.34.39-.33.93-.49,1.61-.49h.56c.63,0,1.15.16,1.54.47.4.31.61.72.65,1.22h-.96c-.03-.25-.16-.46-.38-.62s-.51-.25-.86-.25h-.56c-.39,0-.7.09-.92.28-.22.18-.34.43-.34.74,0,.51.27.8.8.88l1.63.23c.54.07.96.28,1.25.61.29.34.43.78.43,1.33,0,.61-.2,1.08-.59,1.42-.4.34-.95.51-1.65.51h-.61Z"/>
      <path class="cls-6" d="M542.37,526.05v-.84h3.84v.84h-3.84Z"/>
      <path class="cls-6" d="M552.15,529.59c-.54,0-.96-.15-1.27-.45s-.47-.71-.47-1.23v-4.06h-1.91v-.86h1.91v-1.86h.96v1.86h2.71v.86h-2.71v4.06c0,.26.07.46.21.6.14.14.33.22.57.22h1.87v.86h-1.87Z"/>
      <path class="cls-6" d="M558.69,529.71c-.77,0-1.38-.23-1.84-.69s-.68-1.09-.68-1.89v-1.68c0-.8.23-1.43.68-1.89s1.07-.69,1.84-.69,1.38.23,1.84.68.68,1.05.68,1.81v1.18h-4.12v.7c0,.5.14.91.43,1.21s.68.45,1.16.45c.42,0,.76-.09,1.03-.26s.44-.41.49-.7h.95c-.07.55-.33.99-.78,1.31-.45.32-1.01.48-1.69.48ZM557.09,525.77h3.19v-.42c0-.54-.14-.95-.42-1.25-.28-.3-.67-.44-1.18-.44s-.9.15-1.18.44c-.28.3-.42.71-.42,1.25v.42Z"/>
      <path class="cls-6" d="M565.6,529.7c-.7,0-1.26-.17-1.66-.5-.4-.33-.61-.79-.62-1.37h.96c.02.32.14.57.37.76.23.18.55.28.95.28h.61c.42,0,.74-.09.97-.28.23-.19.34-.45.34-.79,0-.3-.07-.55-.22-.74-.15-.19-.37-.3-.65-.33l-1.73-.24c-.48-.07-.85-.26-1.12-.56-.26-.3-.4-.7-.4-1.21,0-.57.2-1.02.59-1.34.39-.33.93-.49,1.61-.49h.56c.63,0,1.15.16,1.54.47.4.31.61.72.65,1.22h-.96c-.03-.25-.16-.46-.38-.62s-.51-.25-.86-.25h-.56c-.39,0-.7.09-.92.28-.22.18-.34.43-.34.74,0,.51.27.8.8.88l1.63.23c.54.07.96.28,1.25.61.29.34.43.78.43,1.33,0,.61-.2,1.08-.59,1.42-.4.34-.95.51-1.65.51h-.61Z"/>
      <path class="cls-6" d="M573.75,529.59c-.54,0-.96-.15-1.27-.45s-.47-.71-.47-1.23v-4.06h-1.91v-.86h1.91v-1.86h.96v1.86h2.71v.86h-2.71v4.06c0,.26.07.46.21.6.14.14.33.22.57.22h1.87v.86h-1.87Z"/>
    </g>
    <g>
      <path class="cls-6" d="M505.4,566.43v-.86h2.4v-7.07l-2.38,1.78v-1.09l2.04-1.51h1.28v7.9h1.98v.86h-5.33Z"/>
      <path class="cls-6" d="M515.08,566.55c-.79,0-1.42-.23-1.89-.7-.47-.47-.7-1.09-.7-1.88v-3.84c0-.78.23-1.41.7-1.88.47-.47,1.1-.7,1.89-.7s1.43.23,1.9.7c.46.47.7,1.09.7,1.88v3.84c0,.78-.23,1.41-.7,1.88-.47.47-1.1.7-1.89.7ZM515.08,565.73c.5,0,.91-.16,1.21-.49.3-.32.46-.75.46-1.28v-3.84c0-.53-.15-.95-.46-1.28-.3-.32-.71-.49-1.21-.49s-.91.16-1.21.49c-.3.32-.46.75-.46,1.28v3.84c0,.53.15.95.46,1.28.3.32.71.49,1.21.49ZM515.08,562.67c-.21,0-.37-.06-.5-.17s-.19-.28-.19-.49.06-.37.19-.47c.12-.11.29-.16.5-.16s.37.05.5.16c.12.11.19.27.19.47s-.06.37-.19.49c-.12.12-.29.17-.5.17Z"/>
      <path class="cls-6" d="M522.29,566.55c-.29,0-.52-.09-.7-.26-.18-.17-.26-.4-.26-.68s.09-.51.26-.69c.18-.18.41-.27.7-.27s.52.09.7.27.26.41.26.69-.09.51-.26.68-.41.26-.7.26Z"/>
      <path class="cls-6" d="M529.48,566.55c-.79,0-1.42-.23-1.89-.7-.47-.47-.7-1.09-.7-1.88v-3.84c0-.78.23-1.41.7-1.88.47-.47,1.1-.7,1.89-.7s1.43.23,1.9.7c.46.47.7,1.09.7,1.88v3.84c0,.78-.23,1.41-.7,1.88-.47.47-1.1.7-1.89.7ZM529.48,565.73c.5,0,.91-.16,1.21-.49.3-.32.46-.75.46-1.28v-3.84c0-.53-.15-.95-.46-1.28-.3-.32-.71-.49-1.21-.49s-.91.16-1.21.49c-.3.32-.46.75-.46,1.28v3.84c0,.53.15.95.46,1.28.3.32.71.49,1.21.49ZM529.48,562.67c-.21,0-.37-.06-.5-.17s-.19-.28-.19-.49.06-.37.19-.47c.12-.11.29-.16.5-.16s.37.05.5.16c.12.11.19.27.19.47s-.06.37-.19.49c-.12.12-.29.17-.5.17Z"/>
      <path class="cls-6" d="M536.68,566.55c-.29,0-.52-.09-.7-.26-.18-.17-.26-.4-.26-.68s.09-.51.26-.69c.18-.18.41-.27.7-.27s.52.09.7.27.26.41.26.69-.09.51-.26.68-.41.26-.7.26Z"/>
      <path class="cls-6" d="M543.88,566.55c-.79,0-1.42-.23-1.89-.7-.47-.47-.7-1.09-.7-1.88v-3.84c0-.78.23-1.41.7-1.88.47-.47,1.1-.7,1.89-.7s1.43.23,1.9.7c.46.47.7,1.09.7,1.88v3.84c0,.78-.23,1.41-.7,1.88-.47.47-1.1.7-1.89.7ZM543.88,565.73c.5,0,.91-.16,1.21-.49.3-.32.46-.75.46-1.28v-3.84c0-.53-.15-.95-.46-1.28-.3-.32-.71-.49-1.21-.49s-.91.16-1.21.49c-.3.32-.46.75-.46,1.28v3.84c0,.53.15.95.46,1.28.3.32.71.49,1.21.49ZM543.88,562.67c-.21,0-.37-.06-.5-.17s-.19-.28-.19-.49.06-.37.19-.47c.12-.11.29-.16.5-.16s.37.05.5.16c.12.11.19.27.19.47s-.06.37-.19.49c-.12.12-.29.17-.5.17Z"/>
      <path class="cls-6" d="M551.08,566.55c-.29,0-.52-.09-.7-.26-.18-.17-.26-.4-.26-.68s.09-.51.26-.69c.18-.18.41-.27.7-.27s.52.09.7.27.26.41.26.69-.09.51-.26.68-.41.26-.7.26Z"/>
      <path class="cls-6" d="M555.8,566.43v-.86h2.4v-7.07l-2.38,1.78v-1.09l2.04-1.51h1.28v7.9h1.98v.86h-5.33Z"/>
    </g>
  </g>
</svg>