<?xml version="1.0" encoding="UTF-8"?>
<svg id="Calque_2" xmlns="http://www.w3.org/2000/svg" version="1.1" viewBox="0 0 804 617">
  <!-- Generator: Adobe Illustrator 29.1.0, SVG Export Plug-In . SVG Version: 2.1.0 Build 142)  -->
  <defs>
    <style>
      .st0 {
        fill: #fab906;
      }

      .st1 {
        fill: #ffe597;
      }

      .st2 {
        fill: #fbba05;
      }

      .st3 {
        fill: #f9b80e;
      }

      .st4 {
        fill: #f9b510;
      }

      .st5 {
        fill: #fff;
      }

      .st6 {
        fill: #273d46;
      }

      .st7 {
        fill: #0e9cd9;
      }

      .st8 {
        opacity: .9;
      }

      .st9 {
        opacity: .6;
      }

      .st10 {
        fill: #c3d1d9;
      }

      .st11 {
        fill: #f9b509;
      }

      .st12 {
        fill: #2c3c45;
      }
    </style>
  </defs>
  <rect class="st12" y="0" width="804" height="617" rx="14.2" ry="14.2"/>
  <g>
    <path class="st2" d="M232.8,378.7h-5v-42.8c0-5.3,4.3-9.6,9.6-9.6h129.4c1.8,0,3.2-1.4,3.2-3.2v-45.4c0-4.5,3.7-8.2,8.2-8.2h71.3c1.8,0,3.2-1.4,3.2-3.2l-.4-16.4h5c0-.1.4,16.3.4,16.3,0,4.6-3.7,8.2-8.2,8.2h-71.3c-1.8,0-3.2,1.4-3.2,3.2v45.4c0,4.5-3.7,8.2-8.2,8.2h-129.4c-2.5,0-4.6,2-4.6,4.6v42.8h0Z"/>
    <polygon class="st2" points="446.4 260.2 454.6 251.5 463.3 259.7 463.1 252.5 454.4 244.3 446.2 253 446.4 260.2"/>
  </g>
  <polygon class="st5" points="244.9 183.3 244.6 182.8 333 123.3 333 40.6 245.6 34.2 245.6 33.7 333.5 40.1 333.5 123.6 244.9 183.3"/>
  <path class="st7" d="M804,201.9h-4v-2h4v2ZM792,201.9h-8v-2h8v2ZM776,201.9h-8v-2h8v2ZM760,201.9h-8v-2h8v2ZM744,201.9h-8v-2h8v2ZM728,201.9h-8v-2h8v2ZM712,201.9h-8v-2h8v2ZM696,201.9h-8v-2h8v2ZM680,201.9h-8v-2h8v2ZM664,201.9h-8v-2h8v2ZM648,201.9h-8v-2h8v2ZM632,201.9h-8v-2h8v2ZM616,201.9h-8v-2h8v2ZM600,201.9h-8v-2h8v2ZM584,201.9h-8v-2h8v2ZM568,201.9h-8v-2h8v2ZM552,201.9h-8v-2h8v2ZM536,201.9h-8v-2h8v2ZM520,201.9h-8v-2h8v2ZM504,201.9h-8v-2h8v2ZM488,201.9h-8v-2h8v2ZM472,201.9h-8v-2h8v2ZM456,201.9h-8v-2h8v2ZM440,201.9h-8v-2h8v2ZM424,201.9h-8v-2h8v2ZM408,201.9h-8v-2h8v2ZM392,201.9h-8v-2h8v2ZM376,201.9h-8v-2h8v2ZM360,201.9h-8v-2h8v2ZM344,201.9h-8v-2h8v2ZM328,201.9h-8v-2h8v2ZM312,201.9h-8v-2h8v2ZM296,201.9h-8v-2h8v2ZM280,201.9h-8v-2h8v2ZM264,201.9h-8v-2h8v2ZM248,201.9h-8v-2h8v2ZM232,201.9h-8v-2h8v2ZM216,201.9h-8v-2h8v2ZM200,201.9h-8v-2h8v2ZM184,201.9h-8v-2h8v2ZM168,201.9h-8v-2h8v2ZM152,201.9h-8v-2h8v2ZM136,201.9h-8v-2h8v2ZM120,201.9h-8v-2h8v2ZM104,201.9h-8v-2h8v2ZM88,201.9h-8v-2h8v2ZM72,201.9h-8v-2h8v2ZM56,201.9h-8v-2h8v2ZM40,201.9h-8v-2h8v2ZM24,201.9h-8v-2h8v2ZM8,201.9H0v-2h8v2Z"/>
  <g>
    <path class="st10" d="M679,188.8h-.8v-9.9h.8v9.9Z"/>
    <path class="st10" d="M682.3,181.4v1.3c.3-.5.7-.8,1.1-1,.4-.2.9-.4,1.4-.4.8,0,1.4.2,1.8.7s.6,1.1.6,2v4.9h-.8v-4.9c0-.7-.1-1.1-.4-1.5s-.7-.5-1.3-.5-1,.2-1.3.5c-.4.3-.7.7-.9,1.3v5.1h-.8v-7.4h.8,0Z"/>
    <path class="st10" d="M690.5,179.5v1.9h1.5v.7h-1.5v4.9c0,.4,0,.7.2.9.2.2.4.3.7.3s.4,0,.7,0v.7c-.2,0-.5.1-.8.1-.6,0-1-.2-1.2-.5-.3-.3-.4-.8-.4-1.4v-4.9h-1.4v-.7h1.4v-1.9h.8Z"/>
    <path class="st10" d="M696.6,189c-.6,0-1.2-.2-1.7-.5s-.9-.7-1.2-1.3c-.3-.6-.4-1.2-.4-1.9v-.3c0-.7.1-1.4.4-1.9s.7-1,1.2-1.3c.5-.3,1-.5,1.6-.5.9,0,1.6.3,2.1.9s.8,1.4.8,2.5v.5h-5.3v.2c0,.8.2,1.5.7,2.1.5.6,1.1.8,1.8.8s.8,0,1.2-.2.6-.4.9-.8l.5.4c-.6.9-1.5,1.3-2.6,1.3h0ZM696.5,182c-.6,0-1.1.2-1.5.7s-.7,1.1-.8,1.8h4.4c0-.8-.2-1.4-.6-1.8s-.9-.7-1.5-.7h0Z"/>
    <path class="st10" d="M704.4,182.1c-.2,0-.4,0-.5,0-.5,0-.9.1-1.3.4s-.6.7-.8,1.2v5.1h-.8v-7.4h.8v1.2c.5-.9,1.1-1.3,2.1-1.3s.4,0,.5,0v.8s0,0,0,0Z"/>
    <path class="st10" d="M706.5,181.4v1.3c.3-.5.7-.8,1.1-1,.4-.2.9-.4,1.4-.4.8,0,1.4.2,1.8.7s.6,1.1.6,2v4.9h-.8v-4.9c0-.7-.1-1.1-.4-1.5s-.7-.5-1.3-.5-1,.2-1.3.5c-.4.3-.7.7-.9,1.3v5.1h-.8v-7.4h.8,0Z"/>
    <path class="st10" d="M716.2,189c-.6,0-1.2-.2-1.7-.5s-.9-.7-1.2-1.3c-.3-.6-.4-1.2-.4-1.9v-.3c0-.7.1-1.4.4-1.9s.7-1,1.2-1.3c.5-.3,1-.5,1.6-.5.9,0,1.6.3,2.1.9s.8,1.4.8,2.5v.5h-5.3v.2c0,.8.2,1.5.7,2.1.5.6,1.1.8,1.8.8s.8,0,1.2-.2.6-.4.9-.8l.5.4c-.6.9-1.5,1.3-2.6,1.3h0ZM716.1,182c-.6,0-1.1.2-1.5.7s-.7,1.1-.8,1.8h4.4c0-.8-.2-1.4-.6-1.8s-.9-.7-1.5-.7h0Z"/>
    <path class="st10" d="M721.9,179.5v1.9h1.5v.7h-1.5v4.9c0,.4,0,.7.2.9.2.2.4.3.7.3s.4,0,.7,0v.7c-.2,0-.5.1-.8.1-.6,0-1-.2-1.2-.5-.3-.3-.4-.8-.4-1.4v-4.9h-1.4v-.7h1.4v-1.9h.8Z"/>
  </g>
  <g>
    <path class="st7" d="M682.3,213.7h-4.7v4.1h5.3v.7h-6.2v-9.9h6.2v.7h-5.3v3.8h4.7v.7h0Z"/>
    <path class="st7" d="M685.3,211.1v1.3c.3-.5.7-.8,1.1-1,.4-.2.9-.4,1.4-.4.8,0,1.4.2,1.8.7s.6,1.1.6,2v4.9h-.8v-4.9c0-.7-.1-1.1-.4-1.5s-.7-.5-1.3-.5-1,.2-1.3.5c-.4.3-.7.7-.9,1.3v5.1h-.8v-7.4h.8,0Z"/>
    <path class="st7" d="M693.5,209.2v1.9h1.5v.7h-1.5v4.9c0,.4,0,.7.2.9.2.2.4.3.7.3s.4,0,.7,0v.7c-.2,0-.5.1-.8.1-.6,0-1-.2-1.2-.5-.3-.3-.4-.8-.4-1.4v-4.9h-1.4v-.7h1.4v-1.9h.8Z"/>
    <path class="st7" d="M699.6,218.6c-.6,0-1.2-.2-1.7-.5s-.9-.7-1.2-1.3c-.3-.6-.4-1.2-.4-1.9v-.3c0-.7.1-1.4.4-1.9s.7-1,1.2-1.3c.5-.3,1-.5,1.6-.5.9,0,1.6.3,2.1.9s.8,1.4.8,2.5v.5h-5.3v.2c0,.8.2,1.5.7,2.1.5.6,1.1.8,1.8.8s.8,0,1.2-.2.6-.4.9-.8l.5.4c-.6.9-1.5,1.3-2.6,1.3h0ZM699.4,211.7c-.6,0-1.1.2-1.5.7s-.7,1.1-.8,1.8h4.4c0-.8-.2-1.4-.6-1.8s-.9-.7-1.5-.7h0Z"/>
    <path class="st7" d="M707.4,211.8c-.2,0-.4,0-.5,0-.5,0-.9.1-1.3.4s-.6.7-.8,1.2v5.1h-.8v-7.4h.8v1.2c.5-.9,1.1-1.3,2.1-1.3s.4,0,.5,0v.8s0,0,0,0Z"/>
    <path class="st7" d="M714.6,214.9c0,1.1-.2,2.1-.8,2.7-.5.7-1.2,1-2,1s-1.8-.4-2.3-1.1v3.8h-.8v-10.2h.8v1.1c.6-.8,1.3-1.2,2.4-1.2s1.6.3,2.1,1,.8,1.6.8,2.8h0ZM713.8,214.7c0-.9-.2-1.7-.6-2.2s-.9-.8-1.6-.8-.9.1-1.3.4-.6.6-.8,1.1v3.6c.2.4.5.8.8,1,.4.2.8.3,1.3.3s1.2-.3,1.6-.8.6-1.4.6-2.4h0Z"/>
    <path class="st7" d="M719.8,211.8c-.2,0-.4,0-.5,0-.5,0-.9.1-1.3.4s-.6.7-.8,1.2v5.1h-.8v-7.4h.8v1.2c.5-.9,1.1-1.3,2.1-1.3s.4,0,.5,0v.8s0,0,0,0Z"/>
    <path class="st7" d="M721.1,209c0-.1,0-.3.2-.4,0-.1.2-.2.4-.2s.3,0,.4.2.2.2.2.4,0,.3-.2.4-.2.2-.4.2-.3,0-.4-.2c0-.1-.2-.2-.2-.4ZM722,218.5h-.8v-7.4h.8v7.4Z"/>
    <path class="st7" d="M728.7,216.6c0-.4-.2-.7-.5-1s-.8-.4-1.5-.6c-.7-.1-1.2-.3-1.5-.5-.4-.2-.6-.4-.8-.7s-.3-.6-.3-.9c0-.6.2-1.1.7-1.4.5-.4,1.1-.6,1.9-.6s1.5.2,2,.6.8.9.8,1.6h-.8c0-.4-.2-.8-.5-1.1s-.8-.4-1.4-.4-1,.1-1.3.4-.5.6-.5.9.1.7.4.9c.3.2.8.4,1.5.6s1.3.4,1.6.5.6.4.8.7c.2.3.3.6.3,1,0,.6-.2,1.1-.8,1.5s-1.2.6-2,.6-1.6-.2-2.1-.6c-.5-.4-.8-.9-.8-1.6h.8c0,.5.2.9.6,1.1.4.3.9.4,1.5.4s1-.1,1.4-.4c.3-.2.5-.6.5-.9h0Z"/>
    <path class="st7" d="M734.2,218.6c-.6,0-1.2-.2-1.7-.5s-.9-.7-1.2-1.3c-.3-.6-.4-1.2-.4-1.9v-.3c0-.7.1-1.4.4-1.9s.7-1,1.2-1.3c.5-.3,1-.5,1.6-.5.9,0,1.6.3,2.1.9s.8,1.4.8,2.5v.5h-5.3v.2c0,.8.2,1.5.7,2.1.5.6,1.1.8,1.8.8s.8,0,1.2-.2.6-.4.9-.8l.5.4c-.6.9-1.5,1.3-2.6,1.3h0ZM734.1,211.7c-.6,0-1.1.2-1.6.7s-.7,1.1-.8,1.8h4.4c0-.8-.2-1.4-.6-1.8s-.9-.7-1.5-.7Z"/>
    <path class="st7" d="M749.6,218.5h-.8l-5.7-8.5v8.5h-.8v-9.9h.8l5.7,8.5v-8.5h.8v9.9Z"/>
    <path class="st7" d="M754.8,218.6c-.6,0-1.2-.2-1.7-.5s-.9-.7-1.2-1.3c-.3-.6-.4-1.2-.4-1.9v-.3c0-.7.1-1.4.4-1.9s.7-1,1.2-1.3c.5-.3,1-.5,1.6-.5.9,0,1.6.3,2.1.9s.8,1.4.8,2.5v.5h-5.3v.2c0,.8.2,1.5.7,2.1.5.6,1.1.8,1.8.8s.8,0,1.2-.2.6-.4.9-.8l.5.4c-.6.9-1.5,1.3-2.6,1.3h0ZM754.7,211.7c-.6,0-1.1.2-1.6.7s-.7,1.1-.8,1.8h4.4c0-.8-.2-1.4-.6-1.8s-.9-.7-1.5-.7Z"/>
    <path class="st7" d="M760.4,209.2v1.9h1.5v.7h-1.5v4.9c0,.4,0,.7.2.9.2.2.4.3.7.3s.4,0,.7,0v.7c-.2,0-.5.1-.8.1-.6,0-1-.2-1.2-.5s-.4-.8-.4-1.4v-4.9h-1.4v-.7h1.4v-1.9h.8Z"/>
    <path class="st7" d="M765.4,216.8v.6c.1,0,.3-.7.3-.7l1.8-5.7h.7l1.8,5.6.2.8.2-.7,1.5-5.7h.8l-2.2,7.4h-.7l-1.9-5.9v-.4c0,0-.2.4-.2.4l-1.9,5.9h-.7l-2.2-7.4h.8l1.6,5.7h0Z"/>
    <path class="st7" d="M773.8,214.7c0-.7.1-1.4.4-1.9s.7-1,1.2-1.3,1.1-.5,1.7-.5c1,0,1.8.4,2.4,1,.6.7.9,1.6.9,2.8v.2c0,.7-.1,1.4-.4,1.9-.3.6-.7,1-1.2,1.3-.5.3-1.1.5-1.7.5-1,0-1.8-.4-2.4-1-.6-.7-.9-1.6-.9-2.8v-.2h0ZM774.6,214.9c0,.9.2,1.6.7,2.2.5.6,1.1.9,1.8.9s1.3-.3,1.8-.9c.5-.6.7-1.3.7-2.2v-.2c0-.6-.1-1.1-.3-1.6-.2-.5-.5-.8-.9-1.1s-.8-.4-1.3-.4c-.7,0-1.3.3-1.8.9s-.7,1.3-.7,2.2h0c0,.1,0,.2,0,.2Z"/>
    <path class="st7" d="M785.5,211.8c-.2,0-.4,0-.5,0-.5,0-.9.1-1.3.4s-.6.7-.8,1.2v5.1h-.8v-7.4h.8v1.2c.5-.9,1.1-1.3,2.1-1.3s.4,0,.5,0v.8s0,0,0,0Z"/>
    <path class="st7" d="M788.5,214.8l-.9.9v2.8h-.8v-10.5h.8v6.7l.8-.8,2.8-2.8h1l-3.1,3.1,3.4,4.3h-1l-3-3.7h0Z"/>
  </g>
  <g>
    <path class="st1" d="M508.9,180.9c-.9,0-1.6-.3-2.1-.8s-.8-1.3-.8-2.2v-4.5c0-.9.3-1.7.8-2.2s1.2-.8,2.1-.8,1.6.3,2.1.8.8,1.3.8,2.2v4.5c0,.9-.3,1.7-.8,2.2s-1.2.8-2.1.8h0ZM508.9,179.9c.6,0,1-.2,1.3-.5s.5-.8.5-1.4v-4.7c0-.6-.2-1.1-.5-1.4s-.8-.5-1.3-.5-1,.2-1.3.5-.5.8-.5,1.4v4.7c0,.6.2,1.1.5,1.4s.8.5,1.3.5Z"/>
    <path class="st1" d="M517.3,180.9c-.9,0-1.6-.3-2.1-.8-.5-.5-.8-1.2-.8-2.1v-4.9h1.1v4.9c0,.6.2,1.1.5,1.4.3.4.7.5,1.3.5s1-.2,1.3-.5c.3-.3.5-.8.5-1.4v-4.9h1.1v4.9c0,.9-.3,1.6-.8,2.1s-1.2.8-2.1.8h0Z"/>
    <path class="st1" d="M526.5,180.7c-.6,0-1.1-.2-1.5-.5-.4-.4-.5-.8-.5-1.4v-4.7h-2.2v-1h2.2v-2.2h1.1v2.2h3.2v1h-3.2v4.7c0,.3,0,.5.2.7.2.2.4.2.7.2h2.2v1h-2.2Z"/>
    <path class="st1" d="M534.5,180.9c-.6,0-1-.1-1.4-.4s-.6-.6-.7-1.1v1.4h-1.1v-10.2h1.1v3.9c0-.5.3-.9.7-1.1s.9-.4,1.4-.4,1.4.3,1.8.8c.5.5.7,1.2.7,2.1v2.3c0,.9-.2,1.6-.7,2.1s-1.1.8-1.8.8h0ZM534.1,179.9c.6,0,1-.1,1.3-.5.3-.3.5-.8.5-1.4v-2.3c0-.6-.2-1.1-.5-1.4s-.8-.5-1.3-.5-1,.2-1.3.5-.5.8-.5,1.4v2.2c0,.6.2,1.1.5,1.4s.8.5,1.3.5h0Z"/>
    <path class="st1" d="M542.5,180.8c-.9,0-1.6-.3-2.1-.8s-.8-1.3-.8-2.2v-1.9c0-.9.3-1.7.8-2.2.5-.5,1.2-.8,2.2-.8s1.6.3,2.2.8.8,1.3.8,2.2v1.9c0,.9-.3,1.7-.8,2.2-.5.5-1.2.8-2.1.8ZM542.5,179.9c.6,0,1-.2,1.3-.5s.5-.8.5-1.4v-2.1c0-.6-.2-1.1-.5-1.4s-.8-.5-1.3-.5-1,.2-1.3.5c-.3.3-.5.8-.5,1.4v2.1c0,.6.2,1.1.5,1.4.3.3.8.5,1.3.5Z"/>
    <path class="st1" d="M550.9,180.9c-.9,0-1.6-.3-2.1-.8-.5-.5-.8-1.2-.8-2.1v-4.9h1.1v4.9c0,.6.2,1.1.5,1.4.3.4.7.5,1.3.5s1-.2,1.3-.5c.3-.3.5-.8.5-1.4v-4.9h1.1v4.9c0,.9-.3,1.6-.8,2.1s-1.2.8-2.1.8h0Z"/>
    <path class="st1" d="M556.5,180.7v-7.7h1.1v1.4c0-.5.3-.9.7-1.1s.8-.4,1.4-.4,1.4.2,1.8.7c.5.5.7,1.1.7,1.9v5.2h-1.1v-5c0-.6-.2-1.1-.5-1.4s-.7-.5-1.3-.5-1,.2-1.3.5c-.3.3-.5.8-.5,1.4v4.9h-1.1Z"/>
    <path class="st1" d="M567.3,180.9c-.8,0-1.4-.2-1.8-.8s-.7-1.2-.7-2.1v-2.3c0-.9.2-1.6.7-2.1.5-.5,1.1-.8,1.8-.8s1,.1,1.4.4.6.6.7,1.1v-3.9s1.1,0,1.1,0v10.2h-1.1v-1.4c0,.5-.3.9-.7,1.1s-.8.4-1.4.4h0ZM567.7,179.9c.5,0,1-.2,1.3-.5s.5-.8.5-1.4v-2.2c0-.6-.2-1.1-.5-1.4s-.7-.5-1.3-.5-1,.1-1.3.5c-.3.3-.5.8-.5,1.4v2.3c0,.6.2,1.1.5,1.4s.8.5,1.3.5h0Z"/>
    <path class="st1" d="M506.1,195.7v-10.2h3.2c.9,0,1.7.3,2.2.8.6.5.8,1.3.8,2.2s-.3,1.6-.8,2.2-1.3.8-2.2.8h-2.1v4.3h-1.1ZM507.2,190.4h2.1c.6,0,1.1-.2,1.4-.5s.5-.8.5-1.4-.2-1.1-.5-1.4c-.4-.4-.8-.5-1.4-.5h-2.1v3.9h0Z"/>
    <path class="st1" d="M517.3,195.8c-.9,0-1.6-.3-2.1-.8s-.8-1.3-.8-2.2v-1.9c0-.9.3-1.7.8-2.2.5-.5,1.2-.8,2.2-.8s1.6.3,2.2.8.8,1.3.8,2.2v1.9c0,.9-.3,1.7-.8,2.2-.5.5-1.2.8-2.1.8ZM517.3,194.9c.6,0,1-.2,1.3-.5.3-.3.5-.8.5-1.4v-2.1c0-.6-.2-1.1-.5-1.4-.3-.3-.8-.5-1.3-.5s-1,.2-1.3.5-.5.8-.5,1.4v2.1c0,.6.2,1.1.5,1.4s.8.5,1.3.5Z"/>
    <path class="st1" d="M523.1,195.7v-7.7h1.1v1.4c0-.5.3-.9.7-1.1s.8-.4,1.4-.4,1.4.2,1.9.7.6,1.2.6,2v.7h-1.1v-.7c0-1.2-.6-1.8-1.7-1.8s-1,.2-1.3.5-.5.8-.5,1.4v4.9h-1.1,0Z"/>
    <path class="st1" d="M534.9,195.7c-.6,0-1.1-.2-1.5-.5-.4-.4-.5-.8-.5-1.4v-4.7h-2.2v-1h2.2v-2.2h1.1v2.2h3.2v1h-3.2v4.7c0,.3,0,.5.2.7.2.2.4.2.7.2h2.2v1h-2.2Z"/>
    <path class="st1" d="M553.5,197.4c-1.3-.3-2.3-.9-3-1.9s-1.1-2.1-1.1-3.6v-2.6c0-1.4.4-2.6,1.1-3.6s1.7-1.6,3-1.9v1.1c-.9.2-1.7.7-2.2,1.5s-.8,1.7-.8,2.9v2.6c0,1.1.3,2.1.8,2.9.5.8,1.3,1.3,2.2,1.5v1.1Z"/>
    <path class="st1" d="M560.8,195.7v-2.3h-4.6v-1.8l3.8-6.1h1.3l-4,6.4v.6h3.5v-2.6h1.1v5.9h-1.1Z"/>
    <path class="st1" d="M569.2,195.7v-2.3h-4.6v-1.8l3.8-6.1h1.3l-4,6.4v.6h3.5v-2.6h1.1v5.9h-1.1Z"/>
    <path class="st1" d="M576,195.9c-.9,0-1.7-.3-2.2-.8-.5-.5-.8-1.2-.8-2.1h1.1c0,.6.2,1.1.5,1.4.3.4.8.5,1.4.5s1-.2,1.4-.5c.3-.3.5-.8.5-1.4v-.8c0-.6-.2-1.1-.5-1.4s-.8-.5-1.4-.5h-1v-1l2.6-2.8h-4.3v-1h5.5v1l-2.5,2.8c.8,0,1.5.3,2,.8.5.5.7,1.2.7,2v.8c0,.9-.3,1.6-.8,2.1-.5.5-1.3.8-2.2.8h0Z"/>
    <path class="st1" d="M581.9,197.4v-1.1c.9-.2,1.7-.7,2.2-1.5s.8-1.7.8-2.9v-2.6c0-1.1-.3-2.1-.8-2.9-.5-.8-1.3-1.3-2.2-1.5v-1.1c1.3.3,2.3.9,3,1.9s1.1,2.1,1.1,3.6v2.6c0,1.4-.4,2.6-1.1,3.6s-1.7,1.6-3,1.9Z"/>
  </g>
  <g>
    <g>
      <path class="st12" d="M430,242.4c-9.4,0-17.1-7.6-17.1-16.9v-45.7c0-9.3,7.7-16.9,17.1-16.9h46.3c9.4,0,17.1,7.6,17.1,16.9v45.7c0,9.3-7.7,16.9-17.1,16.9h-46.3Z"/>
      <path class="st5" d="M476.2,164.8c8.4,0,15.2,6.7,15.2,15v45.7c0,8.3-6.8,15-15.2,15h-46.3c-8.4,0-15.2-6.7-15.2-15v-45.7c0-8.3,6.8-15,15.2-15h46.3M476.2,161h-46.3c-10.5,0-19,8.4-19,18.8v45.7c0,10.4,8.5,18.8,19,18.8h46.3c10.5,0,19-8.4,19-18.8v-45.7c0-10.4-8.5-18.8-19-18.8h0Z"/>
    </g>
    <g>
      <path class="st11" d="M435.6,225v1.4h2.2v1.4h-2.2v3.1h-1.5v-7.2h5.2v1.4h-3.8Z"/>
      <path class="st11" d="M441.2,224.9c-.5,0-.8-.4-.8-.8s.4-.8.8-.8.8.4.8.8-.4.8-.8.8ZM440.5,230.8v-5.4h1.4v5.4h-1.4Z"/>
      <path class="st11" d="M446.6,227c-.2-.2-.5-.4-.8-.4-.6,0-.9.2-.9,1.2v2.9h-1.4v-5.4h1.4v.4c.2-.3.6-.5,1.1-.5s.8.2,1,.4l-.4,1.4h0Z"/>
      <path class="st11" d="M452.1,228.5h-3.3c0,.7.6,1,1.1,1s.7-.1.9-.4l1,.9c-.4.6-1.2.9-2,.9-1.6,0-2.6-1.1-2.6-2.8s1.1-2.8,2.4-2.8,2.3,1.3,2.3,2.8,0,.4,0,.4h0ZM449.8,226.5c-.5,0-.9.4-.9,1h1.9c0-.5-.3-1-1-1Z"/>
      <path class="st11" d="M459.8,230.8h-1.4l-.9-3.7c-.1-.4-.2-1-.2-1.2,0,.3-.1.8-.2,1.2l-.9,3.7h-1.4l-1.5-7.2h1.5l.6,3.5c0,.4.1.9.2,1.2,0-.3.2-.8.2-1.2l.9-3.5h1.3l.9,3.5c0,.4.2.9.2,1.2,0-.3.1-.9.2-1.2l.6-3.5h1.5l-1.5,7.2h0Z"/>
      <path class="st11" d="M465,230.8v-.4c-.3.3-.7.5-1.2.5-1,0-2-.6-2-1.9s1-1.8,2.2-1.8.8.1,1.1.2v-.3c0-.4-.3-.7-.8-.7s-1,0-1.5.4l-.5-1c.6-.4,1.2-.6,2.1-.6,1.3,0,2.2.7,2.2,1.9v3.6h-1.5ZM465,228.5c-.2-.1-.5-.2-1-.2s-.8.2-.8.7.2.7.8.7.9-.2,1-.5v-.7h0Z"/>
      <path class="st11" d="M467.8,230.8v-6.8l1.4-.7v7.5h-1.4Z"/>
      <path class="st11" d="M470.8,230.8v-6.8l1.4-.7v7.5h-1.4Z"/>
    </g>
    <path class="st6" d="M469.1,183.8c0,2,0,3.9-.2,5.9-.8,11.1-6,19.1-15.9,24.4-8.8-4.7-13.9-11.6-15.5-21.1-.4-2.1-.4-4.3-.5-6.5,0-2.3,0-4.6,0-6.9,0-.6,0-1.2,0-1.9,1,0,2.1-.2,3.2-.3,4.6-.5,8.9-1.7,12.8-3.4,4.7,2.2,9.9,3.5,15.8,4,.1,0,.2,0,.3,0,0,.8,0,1.7,0,2.5,0,1,0,2.1,0,3.1h0Z"/>
    <path class="st11" d="M473.7,180.7c0-1.4,0-2.7,0-4,0-.4,0-.6,0-.8h0c-.2-1.1-1-1.9-2.1-2h-.7c-.5,0-1.1-.1-1.6-.1-5.5-.4-10.2-1.6-14.5-3.7-1-.5-2-.5-3.1,0-3.6,1.6-7.6,2.7-11.9,3.2-1.1.1-2.2.2-3.5.3-.5,0-1.1,0-1.7.1-1.2.1-2.1,1.1-2.1,2.2v.9c0,1,0,2,0,3,0,2.3,0,4.6,0,7,0,2.3.1,4.7.6,7.1,1.8,10.9,7.9,19,17.9,24.3.7.4,1.4.6,2.1.6s1.4-.2,2.1-.6c11.3-6,17.5-15.5,18.4-28.1.2-3.1.2-6.3.1-9.3h0ZM469,189.7c-.8,11.1-6,19.1-15.9,24.4-8.8-4.7-13.9-11.6-15.5-21.1-.4-2.1-.4-4.3-.5-6.5,0-2.3,0-4.6,0-6.9,0-.6,0-1.2,0-1.9,1,0,2.1-.2,3.2-.3,4.6-.5,8.9-1.7,12.8-3.4,4.7,2.2,9.9,3.5,15.8,4,.1,0,.2,0,.3,0,0,.8,0,1.7,0,2.5,0,1,0,2.1,0,3.1,0,2,0,3.9-.2,5.9h0Z"/>
    <path class="st5" d="M461,191.1c-.3-.5-.6-.9-.9-1.4-.3-.3-.5-.6-.9-.9,0,.3,0,.5.1.8h0c0,.8,0,1.5-.1,2.2,0,.2-.2.5-.3.7-.3.6-.8.9-1.5.8-.7,0-1-.6-1.2-1.1,0,0,0,0,0,0-.2-.7-.2-1.4,0-2.1.1-1.2,0-2.3-.4-3.4-.2-.5-.4-1.1-.7-1.6-.8-1.4-1.9-2.7-3.1-3.9,0,0-.1,0-.2-.1,0,0-.1,0-.1,0,0,0,.5,3.3-3.2,7.3-.5.4-.9.8-1.4,1.3-.3.3-.6.7-.8,1.1h0c-1.4,2-2.3,4.4-2.3,6.6,0,4.3,3.2,7.6,7.4,8.3h0c1.8.5,3.5,0,3.5,0,0,0,0,0,0,0h0c1.2-.2,2.4-.7,3.5-1.4,0,0,0,0,0,0,1.4-.9,2.4-2.1,3.1-3.7,0,0,0,0,0,0,.3-.7.5-1.4.7-2.2.5-2.4.1-4.7-1.2-6.9h0ZM459.7,200.8c-.4.9-1,1.8-1.7,2.5-.6.6-1.2,1.1-2.1,1.3.1-.2.3-.4.5-.5.8-.9,1.1-2,.9-3.2-.2-1.4-1-2.5-1.9-3.5-.6-.7-1.2-1.5-1.6-2.4-.1-.4-.2-.7-.2-1.1,0-.2,0-.2-.2,0-.8.8-1.4,1.8-1.5,3,0,.7.2,1.3.1,2,0,.6-.6,1.1-1.1.9-.4,0-.7-.6-.8-1.1,0-.3,0-.6,0-.9-.4.4-.6.8-.8,1.3-.4.9-.5,1.7-.4,2.6.1.7.3,1.4.8,2.1.3.4.6.6.9,1,0,0,0,0,0,0,0,0,0,0,0,0,0,0,0,0,0,0h0c0,0-.1,0-.2,0-.3-.1-.6-.3-.9-.5-1-.6-1.8-1.4-2.4-2.4-.4-.7-.7-1.6-.8-2.4-.2-1,0-2,.3-3,.3-.9.7-1.8,1.3-2.6.4-.6.9-1.2,1.3-1.7.7-.8,1.4-1.6,2-2.4.6-.8,1.1-1.6,1.6-2.5,0,0,0-.2.2-.2.1,0,.1.1.2.2.4.6.8,1.1,1.1,1.8.3.7.4,1.4.4,2.1,0,.4,0,.8,0,1.1,0,.4,0,.9.2,1.3.4,1.2,1.4,1.9,2.7,1.9.7,0,1.4-.3,1.9-.8.4-.3.3-.3.5.1.3,1.1.5,2.1.5,3.2,0,1-.3,2-.7,3h0Z"/>
    <path class="st11" d="M455.9,204.5c.1-.2.3-.4.5-.5.8-.9,1.1-2,.9-3.2-.2-1.4-1-2.5-1.9-3.5-.6-.7-1.2-1.5-1.6-2.4-.1-.4-.2-.7-.2-1.1,0-.2,0-.2-.2,0-.8.8-1.4,1.8-1.5,3,0,.7.2,1.3.1,2,0,.6-.6,1.1-1.1.9-.4,0-.7-.6-.8-1.1,0-.3,0-.6,0-.9-.4.4-.6.8-.8,1.3-.4.9-.5,1.7-.4,2.6.1.7.3,1.4.8,2.1.3.4.6.6.9,1,0,0,0,0,0,0,0,0,0,0,0,0,0,0,0,0,0,0h0c0,0-.1,0-.2,0-.3-.1-.6-.3-.9-.5-1-.6-1.8-1.4-2.4-2.4-.4-.7-.7-1.6-.8-2.4-.2-1,0-2,.3-3,.3-.9.7-1.8,1.3-2.6.4-.6.9-1.2,1.3-1.7.7-.8,1.4-1.6,2-2.4.6-.8,1.1-1.6,1.6-2.5,0,0,0-.2.2-.2.1,0,.1.1.2.2.4.6.8,1.1,1.1,1.8.3.7.4,1.4.4,2.1,0,.4,0,.8,0,1.1,0,.4,0,.9.2,1.3.4,1.2,1.4,1.9,2.7,1.9.7,0,1.4-.3,1.9-.8.4-.3.3-.3.5.1.3,1.1.5,2.1.5,3.2,0,1-.3,2-.7,3-.4.9-1,1.8-1.7,2.5-.6.6-1.2,1.1-2.1,1.3h0Z"/>
  </g>
  <g>
    <path class="st12" d="M168.4,554.8c-9.4,0-17.1-7.6-17.1-16.9v-42.3c0-9.3,7.7-16.9,17.1-16.9h46.3c9.4,0,17.1,7.6,17.1,16.9v42.3c0,9.3-7.7,16.9-17.1,16.9h-46.3Z"/>
    <path class="st5" d="M214.7,480.6c8.4,0,15.2,6.7,15.2,15v42.3c0,8.3-6.8,15-15.2,15h-46.3c-8.4,0-15.2-6.7-15.2-15v-42.3c0-8.3,6.8-15,15.2-15h46.3M214.7,476.8h-46.3c-10.5,0-19,8.4-19,18.8v42.3c0,10.4,8.5,18.8,19,18.8h46.3c10.5,0,19-8.4,19-18.8v-42.3c0-10.4-8.5-18.8-19-18.8h0Z"/>
  </g>
  <path class="st10" d="M681.7,377.7h-315.8c-11.8,0-21.4-9.6-21.4-21.4v-56c0-11.8,9.6-21.4,21.4-21.4h315.8c11.8,0,21.4,9.6,21.4,21.4v56c0,11.8-9.6,21.4-21.4,21.4ZM365.9,280.8c-10.7,0-19.4,8.7-19.4,19.4v56c0,10.7,8.7,19.4,19.4,19.4h315.8c10.7,0,19.4-8.7,19.4-19.4v-56c0-10.7-8.7-19.4-19.4-19.4h-315.8,0Z"/>
  <g>
    <path class="st1" d="M498.8,394.3c-.8,0-1.4-.2-1.8-.7s-.7-1.1-.7-1.9v-1.7c0-.8.2-1.4.7-1.9.5-.5,1.1-.7,1.8-.7s1.4.2,1.8.7.7,1.1.7,1.9v1.7c0,.8-.2,1.4-.7,1.9s-1.1.7-1.8.7ZM498.8,393.4c.5,0,.9-.1,1.1-.4s.4-.7.4-1.2v-1.8c0-.5-.1-.9-.4-1.2s-.7-.4-1.1-.4-.9.1-1.1.4-.4.7-.4,1.2v1.8c0,.5.1.9.4,1.2s.7.4,1.1.4Z"/>
    <path class="st1" d="M503.5,394.2v-.9h2.4v-4.9h-2.1v-.9h3.1v5.7h2.2v.9h-5.5ZM506.2,386.3c-.2,0-.5,0-.6-.2-.1-.1-.2-.3-.2-.5s0-.4.2-.5c.1-.1.4-.2.6-.2s.5,0,.6.2.2.3.2.5,0,.4-.2.5-.4.2-.6.2Z"/>
    <path class="st1" d="M513.6,394.3c-.5,0-.9-.1-1.2-.4-.3-.2-.5-.6-.6-1v1.2h-1v-8.8h1v3.4c0-.4.3-.7.6-1s.7-.4,1.2-.4,1.2.2,1.6.7.6,1,.6,1.8v2c0,.8-.2,1.4-.6,1.8-.4.4-.9.6-1.6.6h0ZM513.3,393.4c.5,0,.8-.1,1.1-.4s.4-.7.4-1.2v-2c0-.5-.1-1-.4-1.2s-.6-.4-1.1-.4-.8.1-1.1.4c-.3.3-.4.7-.4,1.2v1.9c0,.5.1.9.4,1.2.3.3.6.4,1.1.4Z"/>
    <path class="st1" d="M520.4,394.3c-.8,0-1.3-.2-1.8-.7s-.7-1.1-.7-1.8v-4.2h1v4.2c0,.5.1.9.4,1.2.3.3.6.4,1.1.4s.8-.1,1.1-.4c.3-.3.4-.7.4-1.2v-4.2h1v4.2c0,.8-.2,1.4-.7,1.8s-1,.7-1.8.7h0Z"/>
    <path class="st1" d="M527.3,394.3c-.7,0-1.3-.2-1.7-.5s-.6-.8-.6-1.4h1c0,.3.1.6.4.8.2.2.5.3,1,.3h.6c.4,0,.7,0,1-.3s.3-.5.3-.8,0-.5-.2-.7c-.2-.2-.4-.3-.7-.3l-1.7-.2c-.5,0-.8-.3-1.1-.6s-.4-.7-.4-1.2.2-1,.6-1.3.9-.5,1.6-.5h.6c.6,0,1.2.2,1.5.5.4.3.6.7.7,1.2h-1c0-.2-.2-.5-.4-.6-.2-.2-.5-.2-.9-.2h-.6c-.4,0-.7,0-.9.3-.2.2-.3.4-.3.7,0,.5.3.8.8.9l1.6.2c.5,0,1,.3,1.2.6.3.3.4.8.4,1.3s-.2,1.1-.6,1.4c-.4.3-1,.5-1.7.5h-.6,0Z"/>
    <path class="st1" d="M532.3,394.2v-.9h2.4v-7.1l-2.4,1.8v-1.1l2-1.5h1.3v7.9h2v.9h-5.3,0Z"/>
    <path class="st1" d="M542,394.3c-.3,0-.5,0-.7-.3s-.3-.4-.3-.7,0-.5.3-.7c.2-.2.4-.3.7-.3s.5,0,.7.3.3.4.3.7,0,.5-.3.7-.4.3-.7.3Z"/>
    <path class="st1" d="M548.3,394.2v-4.8h-1.9v-.9h1.9v-1.4c0-.5.2-.9.5-1.2.3-.3.8-.4,1.3-.4h1.9v.9h-1.9c-.5,0-.8.3-.8.8v1.4h2.7v.9h-2.7v4.8h-1,0Z"/>
    <path class="st1" d="M554.2,394.2v-6.6h1v1.2c0-.4.3-.7.6-1,.3-.2.7-.4,1.2-.4s1.2.2,1.6.6.5,1,.5,1.8v.6h-1v-.6c0-1-.5-1.5-1.5-1.5s-.9.1-1.1.4c-.3.3-.4.7-.4,1.2v4.2h-1Z"/>
  </g>
  <g>
    <path class="st5" d="M538.2,348.6v4h-2.3v-11.4h4.4c.8,0,1.6.2,2.2.5s1.2.8,1.5,1.3c.3.6.5,1.2.5,2,0,1.1-.4,2-1.1,2.6-.8.6-1.8,1-3.2,1h-2.1ZM538.2,346.7h2.1c.6,0,1.1-.1,1.4-.4.3-.3.5-.7.5-1.2s-.2-1-.5-1.4-.8-.5-1.4-.5h-2.2v3.6Z"/>
    <path class="st5" d="M550.8,346.3c-.3,0-.6,0-.8,0-.8,0-1.4.3-1.7.9v5.5h-2.3v-8.5h2.1v1c.5-.8,1.1-1.2,1.9-1.2s.5,0,.7.1v2.2s0,0,0,0Z"/>
    <path class="st5" d="M551.2,348.3c0-.8.2-1.6.5-2.2.3-.7.8-1.2,1.4-1.5.6-.4,1.3-.5,2.1-.5,1.1,0,2.1.4,2.8,1,.7.7,1.1,1.6,1.2,2.8v.6c0,1.3-.3,2.3-1.1,3.1-.7.8-1.7,1.2-2.9,1.2s-2.2-.4-2.9-1.2-1.1-1.8-1.1-3.2h0c0-.1,0-.1,0-.1ZM553.5,348.5c0,.8.2,1.4.5,1.8.3.4.7.6,1.3.6s1-.2,1.3-.6c.3-.4.5-1.1.5-2s-.2-1.4-.5-1.8-.7-.6-1.3-.6-1,.2-1.3.6c-.3.4-.5,1.1-.5,2h0Z"/>
    <path class="st5" d="M563.7,346.7l1.4-2.5h2.4l-2.4,4.1,2.5,4.3h-2.4l-1.5-2.7-1.5,2.7h-2.4l2.5-4.3-2.4-4.1h2.4l1.4,2.5h0Z"/>
    <path class="st5" d="M571.7,349.4l1.6-5.3h2.4l-3.4,9.8-.2.5c-.5,1.1-1.3,1.7-2.5,1.7s-.7,0-1-.1v-1.7h.3c.4,0,.8,0,1-.2s.4-.4.5-.6l.3-.7-3-8.5h2.4l1.6,5.3Z"/>
    <path class="st5" d="M588.2,348.5c0,1.3-.3,2.4-.9,3.1-.6.8-1.4,1.2-2.4,1.2s-1.5-.3-2.1-.9v4h-2.3v-11.7h2.1v.8c.6-.7,1.3-1,2.2-1s1.8.4,2.4,1.2.9,1.8.9,3.2h0c0,.1,0,.1,0,.1ZM586,348.3c0-.8-.1-1.4-.4-1.8-.3-.4-.7-.6-1.2-.6s-1.2.3-1.5.8v3.5c.3.6.8.8,1.5.8,1.1,0,1.6-.9,1.6-2.6h0Z"/>
    <path class="st5" d="M589.3,348.3c0-.8.2-1.6.5-2.2.3-.7.8-1.2,1.4-1.5.6-.4,1.3-.5,2.1-.5,1.1,0,2.1.4,2.8,1,.7.7,1.1,1.6,1.2,2.8v.6c0,1.3-.3,2.3-1.1,3.1-.7.8-1.7,1.2-2.9,1.2s-2.2-.4-2.9-1.2-1.1-1.8-1.1-3.2h0c0-.1,0-.1,0-.1ZM591.5,348.5c0,.8.2,1.4.5,1.8.3.4.7.6,1.3.6s1-.2,1.3-.6c.3-.4.5-1.1.5-2s-.2-1.4-.5-1.8-.7-.6-1.3-.6-1,.2-1.3.6c-.3.4-.5,1.1-.5,2h0Z"/>
    <path class="st5" d="M603.4,346.3c-.3,0-.6,0-.8,0-.8,0-1.4.3-1.7.9v5.5h-2.3v-8.5h2.1v1c.5-.8,1.1-1.2,1.9-1.2s.5,0,.7.1v2.2s0,0,0,0Z"/>
    <path class="st5" d="M607.6,342.1v2.1h1.5v1.7h-1.5v4.2c0,.3,0,.5.2.7.1.1.3.2.7.2s.5,0,.7,0v1.7c-.4.1-.9.2-1.4.2-1.6,0-2.4-.8-2.4-2.4v-4.5h-1.2v-1.7h1.2v-2.1h2.3Z"/>
    <path class="st5" d="M610.4,345.1c0-.4.1-.6.4-.9.2-.2.5-.3.9-.3s.7.1.9.3c.2.2.4.5.4.9s-.1.6-.4.9c-.2.2-.5.3-.9.3s-.7-.1-.9-.3-.4-.5-.4-.9ZM610.4,351.5c0-.4.1-.6.4-.9.2-.2.5-.3.9-.3s.7.1.9.3c.2.2.4.5.4.9s-.1.6-.4.9c-.2.2-.5.3-.9.3s-.7-.1-.9-.3-.4-.5-.4-.9Z"/>
  </g>
  <g>
    <path class="st1" d="M535.9,368.4v-.9l3-3.2c.4-.4.7-.8.9-1.2.2-.4.3-.7.3-1.1s-.2-.9-.4-1.2c-.3-.3-.7-.5-1.2-.5s-.9.2-1.2.5-.5.7-.5,1.2h-1c0-.8.3-1.4.7-1.9s1.1-.7,1.9-.7,1.4.2,1.9.7c.5.5.7,1.1.7,1.8s-.1.9-.3,1.4c-.2.5-.6,1-1.1,1.5l-2.5,2.6h4.1v.9h-5.2Z"/>
    <path class="st1" d="M543.1,368.4v-.9l3-3.2c.4-.4.7-.8.9-1.2.2-.4.3-.7.3-1.1s-.2-.9-.4-1.2c-.3-.3-.7-.5-1.2-.5s-.9.2-1.2.5-.5.7-.5,1.2h-1c0-.8.3-1.4.7-1.9s1.1-.7,1.9-.7,1.4.2,1.9.7c.5.5.7,1.1.7,1.8s-.1.9-.3,1.4c-.2.5-.6,1-1.1,1.5l-2.5,2.6h4.1v.9h-5.2Z"/>
    <path class="st1" d="M550.3,368.4v-.9l3-3.2c.4-.4.7-.8.9-1.2.2-.4.3-.7.3-1.1s-.2-.9-.5-1.2c-.3-.3-.7-.5-1.2-.5s-.9.2-1.2.5-.5.7-.5,1.2h-1c0-.8.3-1.4.7-1.9s1.1-.7,1.9-.7,1.4.2,1.9.7c.5.5.7,1.1.7,1.8s-.1.9-.3,1.4c-.2.5-.6,1-1.1,1.5l-2.5,2.6h4.1v.9h-5.2,0Z"/>
    <path class="st1" d="M561.3,368.4v-2h-4v-1.6l3.2-5.2h1.1l-3.4,5.5v.5h3v-2.2h1v5h-1Z"/>
  </g>
  <g>
    <path class="st5" d="M544.7,312l1.5-8.1h2.3l-2.5,11.4h-2.4l-1.8-7.6-1.8,7.6h-2.4l-2.5-11.4h2.3l1.5,8.1,1.9-8.1h2l1.9,8.1h0Z"/>
    <path class="st5" d="M553.3,315.4c-1.2,0-2.2-.4-3-1.1s-1.2-1.8-1.2-3v-.2c0-.9.2-1.6.5-2.3s.8-1.2,1.4-1.5,1.3-.5,2.1-.5c1.2,0,2.1.4,2.7,1.1s1,1.8,1,3.1v.9h-5.4c0,.5.3,1,.7,1.3s.8.5,1.4.5c.9,0,1.5-.3,2-1l1.1,1.2c-.3.5-.8.9-1.4,1.1s-1.2.4-1.9.4h0ZM553.1,308.5c-.5,0-.8.1-1.1.5-.3.3-.5.7-.5,1.3h3.1v-.2c0-.5-.2-.9-.4-1.2-.3-.3-.6-.4-1.1-.4h0Z"/>
    <path class="st5" d="M565.7,311.1c0,1.4-.3,2.4-.9,3.2s-1.4,1.1-2.4,1.1-1.7-.4-2.2-1v.9h-2.1v-12h2.3v4.3c.5-.6,1.2-.9,2-.9s1.8.4,2.4,1.1.9,1.8.9,3.2h0c0,.1,0,.1,0,.1ZM563.4,310.9c0-.9-.1-1.5-.4-1.9-.3-.4-.7-.6-1.2-.6s-1.2.3-1.5.9v3.3c.3.6.8.9,1.5.9s1.2-.4,1.4-1.1c.1-.3.2-.9.2-1.6h0Z"/>
    <path class="st5" d="M575.7,312.9c0-.3-.1-.5-.4-.6-.3-.2-.7-.3-1.3-.4-2-.4-3-1.3-3-2.6s.3-1.4.9-1.9,1.4-.8,2.4-.8,1.9.2,2.6.8c.6.5,1,1.2,1,2h-2.3c0-.3,0-.6-.3-.8s-.5-.3-1-.3-.7,0-.9.3-.3.4-.3.7.1.5.4.6c.2.1.6.3,1.2.4s1,.2,1.4.4c1.2.4,1.8,1.2,1.8,2.3s-.3,1.4-1,1.9c-.7.5-1.5.7-2.6.7s-1.3-.1-1.9-.4c-.5-.2-1-.6-1.3-1s-.5-.9-.5-1.4h2.1c0,.4.2.7.5.9.3.2.7.3,1.1.3s.8,0,1-.2c.2-.2.3-.4.3-.6h0Z"/>
    <path class="st5" d="M583.2,315.4c-1.2,0-2.2-.4-3-1.1s-1.2-1.8-1.2-3v-.2c0-.9.2-1.6.5-2.3s.8-1.2,1.4-1.5,1.3-.5,2.1-.5c1.2,0,2.1.4,2.7,1.1s1,1.8,1,3.1v.9h-5.4c0,.5.3,1,.7,1.3s.8.5,1.4.5c.9,0,1.5-.3,2-1l1.1,1.2c-.3.5-.8.9-1.4,1.1s-1.2.4-1.9.4h0ZM582.9,308.5c-.5,0-.8.1-1.1.5-.3.3-.5.7-.5,1.3h3.1v-.2c0-.5-.2-.9-.4-1.2-.3-.3-.6-.4-1.1-.4h0Z"/>
    <path class="st5" d="M592.7,308.9c-.3,0-.6,0-.8,0-.8,0-1.4.3-1.7.9v5.5h-2.3v-8.5h2.1v1c.5-.8,1.1-1.2,1.9-1.2s.5,0,.7.1v2.2s0,0,0,0Z"/>
    <path class="st5" d="M597.1,312.5l1.6-5.7h2.4l-2.8,8.5h-2.2l-2.8-8.5h2.4l1.6,5.7h0Z"/>
    <path class="st5" d="M605.8,315.4c-1.2,0-2.2-.4-3-1.1s-1.2-1.8-1.2-3v-.2c0-.9.2-1.6.5-2.3s.8-1.2,1.4-1.5,1.3-.5,2.1-.5c1.2,0,2.1.4,2.7,1.1s1,1.8,1,3.1v.9h-5.4c0,.5.3,1,.7,1.3s.8.5,1.4.5c.9,0,1.5-.3,2-1l1.1,1.2c-.3.5-.8.9-1.4,1.1s-1.2.4-1.9.4h0ZM605.5,308.5c-.5,0-.8.1-1.1.5-.3.3-.5.7-.5,1.3h3.1v-.2c0-.5-.2-.9-.4-1.2-.3-.3-.6-.4-1.1-.4h0Z"/>
    <path class="st5" d="M615.3,308.9c-.3,0-.6,0-.8,0-.8,0-1.4.3-1.7.9v5.5h-2.3v-8.5h2.1v1c.5-.8,1.1-1.2,1.9-1.2s.5,0,.7.1v2.2s0,0,0,0Z"/>
    <path class="st5" d="M628,311.1c0,1.3-.3,2.4-.9,3.1-.6.8-1.4,1.2-2.4,1.2s-1.5-.3-2.1-.9v4h-2.3v-11.7h2.1v.8c.6-.7,1.3-1,2.2-1s1.8.4,2.4,1.2.9,1.8.9,3.2h0c0,.1,0,.1,0,.1ZM625.7,310.9c0-.8-.1-1.4-.4-1.8-.3-.4-.7-.6-1.2-.6s-1.2.3-1.5.8v3.5c.3.6.8.8,1.5.8,1.1,0,1.6-.9,1.6-2.6h0Z"/>
    <path class="st5" d="M629,310.9c0-.8.2-1.6.5-2.2.3-.7.8-1.2,1.4-1.5.6-.4,1.3-.5,2.1-.5,1.1,0,2.1.4,2.8,1,.7.7,1.1,1.6,1.2,2.8v.6c0,1.3-.3,2.3-1.1,3.1-.7.8-1.7,1.2-2.9,1.2s-2.2-.4-2.9-1.2-1.1-1.8-1.1-3.2h0c0-.1,0-.1,0-.1ZM631.3,311.1c0,.8.2,1.4.5,1.8.3.4.7.6,1.3.6s1-.2,1.3-.6c.3-.4.5-1.1.5-2s-.2-1.4-.5-1.8-.7-.6-1.3-.6-1,.2-1.3.6c-.3.4-.5,1.1-.5,2h0Z"/>
    <path class="st5" d="M643.2,308.9c-.3,0-.6,0-.8,0-.8,0-1.4.3-1.7.9v5.5h-2.3v-8.5h2.1v1c.5-.8,1.1-1.2,1.9-1.2s.5,0,.7.1v2.2s0,0,0,0Z"/>
    <path class="st5" d="M647.4,304.7v2.1h1.5v1.7h-1.5v4.2c0,.3,0,.5.2.7.1.1.3.2.7.2s.5,0,.7,0v1.7c-.4.1-.9.2-1.4.2-1.6,0-2.4-.8-2.4-2.4v-4.5h-1.2v-1.7h1.2v-2.1h2.3Z"/>
    <path class="st5" d="M650.2,307.7c0-.4.1-.6.4-.9s.5-.3.9-.3.7.1.9.3.4.5.4.9-.1.6-.4.9c-.2.2-.5.3-.9.3s-.7-.1-.9-.3-.4-.5-.4-.9ZM650.2,314.1c0-.4.1-.6.4-.9.2-.2.5-.3.9-.3s.7.1.9.3c.2.2.4.5.4.9s-.1.6-.4.9c-.2.2-.5.3-.9.3s-.7-.1-.9-.3-.4-.5-.4-.9Z"/>
  </g>
  <g>
    <path class="st1" d="M535.9,331.1v-.9l3-3.2c.4-.4.7-.8.9-1.2.2-.4.3-.7.3-1.1s-.2-.9-.4-1.2c-.3-.3-.7-.5-1.2-.5s-.9.2-1.2.5-.5.7-.5,1.2h-1c0-.8.3-1.4.7-1.9s1.1-.7,1.9-.7,1.4.2,1.9.7c.5.5.7,1.1.7,1.8s-.1.9-.3,1.4c-.2.5-.6,1-1.1,1.5l-2.5,2.6h4.1v.9h-5.2Z"/>
    <path class="st1" d="M543.1,331.1v-.9l3-3.2c.4-.4.7-.8.9-1.2.2-.4.3-.7.3-1.1s-.2-.9-.4-1.2c-.3-.3-.7-.5-1.2-.5s-.9.2-1.2.5-.5.7-.5,1.2h-1c0-.8.3-1.4.7-1.9s1.1-.7,1.9-.7,1.4.2,1.9.7c.5.5.7,1.1.7,1.8s-.1.9-.3,1.4c-.2.5-.6,1-1.1,1.5l-2.5,2.6h4.1v.9h-5.2Z"/>
    <path class="st1" d="M550.3,331.1v-.9l3-3.2c.4-.4.7-.8.9-1.2.2-.4.3-.7.3-1.1s-.2-.9-.5-1.2c-.3-.3-.7-.5-1.2-.5s-.9.2-1.2.5-.5.7-.5,1.2h-1c0-.8.3-1.4.7-1.9s1.1-.7,1.9-.7,1.4.2,1.9.7c.5.5.7,1.1.7,1.8s-.1.9-.3,1.4c-.2.5-.6,1-1.1,1.5l-2.5,2.6h4.1v.9h-5.2,0Z"/>
    <path class="st1" d="M559.9,331.2c-.8,0-1.4-.2-1.9-.7-.5-.5-.7-1.1-.7-1.8h1c0,.5.2.9.5,1.2.3.3.7.4,1.2.4s.9-.1,1.2-.4.5-.7.5-1.2v-.6c0-.5-.2-.9-.4-1.2-.3-.3-.7-.4-1.2-.4h-.9v-.8l2.2-2.4h-3.7v-.9h4.7v.9l-2.2,2.4c.7,0,1.3.3,1.7.7.4.4.6,1,.6,1.7v.6c0,.8-.2,1.4-.7,1.8-.5.5-1.1.7-1.9.7h0Z"/>
  </g>
  <g>
    <path class="st10" d="M644.6,295.6v.2s.1-.2.1-.2l3.1-8.7h.9l-3.7,10h-.8l-3.7-10h.9l3.1,8.7h0Z"/>
    <path class="st10" d="M651.3,286.9l3.7,8.8,3.7-8.8h1.1v10h-.8v-8.8c0,0-3.6,8.8-3.6,8.8h-.7l-3.7-8.7v4.4c0,0,0,4.4,0,4.4h-.8v-10h1.1Z"/>
    <path class="st10" d="M665.7,296.9v-10h2.8c.8,0,1.5.2,2.2.6s1.2.9,1.5,1.6.5,1.5.5,2.4v.9c0,.9-.2,1.7-.5,2.4s-.9,1.2-1.5,1.6-1.4.6-2.2.6h-2.7ZM666.6,287.6v8.5h1.9c1,0,1.9-.4,2.5-1,.6-.7,1-1.6,1-2.8v-.9c0-1.1-.3-2.1-.9-2.8-.6-.7-1.5-1-2.5-1h-2,0Z"/>
    <path class="st10" d="M676,286.9l3.7,8.8,3.7-8.8h1.1v10h-.8v-8.8c0,0-3.6,8.8-3.6,8.8h-.7l-3.7-8.7v4.4c0,0,0,4.4,0,4.4h-.8v-10h1.1,0Z"/>
    <path class="st10" d="M687.4,296.1h6.1v.7h-7.2v-.6l5.9-8.6h-5.7v-.7h6.8v.6l-5.9,8.6h0Z"/>
  </g>
  <g>
    <g class="st8">
      <rect class="st12" x="17.5" y="33.9" width="236.5" height="149.1" rx="9.2" ry="9.2"/>
    </g>
    <path class="st5" d="M244.7,184.6H26.7c-5.9,0-10.8-4.8-10.8-10.8V43.2c0-5.9,4.8-10.8,10.8-10.8h218c5.9,0,10.8,4.8,10.8,10.8v130.6c0,5.9-4.8,10.8-10.8,10.8ZM26.7,35.4c-4.3,0-7.8,3.5-7.8,7.8v130.6c0,4.3,3.5,7.8,7.8,7.8h218c4.3,0,7.8-3.5,7.8-7.8V43.2c0-4.3-3.5-7.8-7.8-7.8H26.7Z"/>
  </g>
  <g>
    <g>
      <rect class="st12" x="312.9" y="42.1" width="79.3" height="79.3" rx="16.9" ry="16.9"/>
      <path class="st5" d="M375.3,44.1c8.2,0,14.9,6.7,14.9,14.9v45.5c0,8.2-6.7,14.9-14.9,14.9h-45.5c-8.2,0-14.9-6.7-14.9-14.9v-45.5c0-8.2,6.7-14.9,14.9-14.9h45.5M375.3,40.1h-45.5c-10.4,0-18.9,8.5-18.9,18.9v45.5c0,10.4,8.5,18.9,18.9,18.9h45.5c10.4,0,18.9-8.5,18.9-18.9v-45.5c0-10.4-8.5-18.9-18.9-18.9h0Z"/>
    </g>
    <g>
      <path class="st5" d="M352.6,55.3c-9.1,0-16.5,1.8-16.5,4v7.9c0,1.2,2.3,2.3,5.8,3.1l4.3-7.6c.3-.5.8-.8,1.3-.8s1,.3,1.3.8l4.9,8.5c.3,0,.7,0,1,0v-4.5c0-1.6,1.3-2.9,2.9-2.9s2.9,1.3,2.9,2.9v4c5.1-.7,8.6-2,8.6-3.5v-7.9c0-2.2-7.4-4-16.5-4h0,0ZM362.5,60.2c-2.8.5-6.3.8-9.9.8s-7.1-.3-9.9-.8c-1.4-.3-2.5-.6-3.1-.8.7-.3,1.7-.6,3.1-.9,2.8-.5,6.3-.8,9.9-.8s7.1.3,9.9.8c1.4.3,2.5.6,3.1.9-.7.3-1.7.6-3.1.8Z"/>
      <path class="st5" d="M344.4,73.9c.1,0,.2,0,.3,0v7.9c-5.1-.7-8.6-2-8.6-3.5v-7.9c0,1.2,2,2.2,5.3,2.9h0c.3.3.7.6,1.1.6h1.9Z"/>
      <path class="st5" d="M351.3,75.6c-.1.2-.2.5-.2.8s0,.5.2.8l3,5.3c-.5,0-1.1,0-1.7,0s-1.5,0-2.2,0c0-.1,0-.3,0-.4v-7.5c.7,0,1.4,0,2.1,0s1.5,0,2.1,0v.4h-2.1c-.5,0-1,.3-1.3.8h0Z"/>
      <path class="st5" d="M369.1,70.4v7.9c0,1.5-3.1,2.7-7.8,3.4l2.7-4.7c.3-.5.3-1.1,0-1.5-.3-.5-.8-.8-1.3-.8h-2.1v-.9c5.1-.7,8.6-2,8.6-3.5h0,0Z"/>
      <path class="st5" d="M369.1,81.4v7.9c0,2.2-7.4,4-16.5,4s-16.5-1.8-16.5-4v-7.9c0,2.2,7.4,4,16.5,4s2.3,0,3.4,0l.3.5c.3.5.8.8,1.3.8s1-.3,1.3-.8l.5-.8c5.7-.6,9.7-2,9.7-3.7h0Z"/>
      <path class="st11" d="M362.9,76.5l-3.1,5.5-1.9,3.3h0c0,.2-.2.2-.3.2s-.2,0-.3-.2h0s-1.7-3-1.7-3l-3.3-5.8s0,0,0-.2,0-.1,0-.2c0,0,.2-.2.3-.2h3.3v-9.2c0-.9.8-1.7,1.7-1.7s1.7.8,1.7,1.7v9.2h3.3c.1,0,.2,0,.3.2s0,.2,0,.3h0,0Z"/>
      <path class="st11" d="M352.9,72.6c0,0-.2.2-.3.2h-3.3v9.2c0,.1,0,.2,0,.4-.2.8-.9,1.3-1.7,1.3s-1.7-.7-1.7-1.6v-9.3h-3.3c-.1,0-.2,0-.3-.2,0,0,0-.1,0-.2s0-.1,0-.2l.9-1.6,4.1-7.2c0,0,.2-.2.3-.2s.2,0,.3.2l4.5,7.9.5.9c0,0,0,.2,0,.3h0Z"/>
    </g>
    <g>
      <path class="st11" d="M328.6,109.9h-1.7l2.6-7.5h2l2.6,7.5h-1.7l-1.9-5.8h0l-1.9,5.8h0ZM328.5,107h4v1.2h-4v-1.2Z"/>
      <path class="st11" d="M334.6,109.9v-.9l2.8-3.4h0s-2.7,0-2.7,0v-1.3h4.5v1l-2.6,3.3h0s2.7,0,2.7,0v1.3h-4.8Z"/>
      <path class="st11" d="M343.8,107.6v-3.2h1.6v5.6h-1.5v-1h0c-.1.3-.3.6-.6.8s-.6.3-1.1.3-.7,0-1-.2c-.3-.2-.5-.4-.7-.7-.2-.3-.2-.7-.2-1.1v-3.6h1.6v3.3c0,.3,0,.6.3.8.2.2.4.3.7.3s.4,0,.5-.1.3-.2.4-.4c.1-.2.1-.4.1-.6h0Z"/>
      <path class="st11" d="M346.3,109.9v-5.6h1.5v1h0c.1-.3.3-.6.5-.8s.5-.3.8-.3h.2c0,0,.2,0,.2,0v1.4c0,0-.2,0-.3,0-.1,0-.2,0-.4,0-.2,0-.4,0-.6.2s-.3.2-.4.4c-.1.2-.1.4-.1.6v3.2h-1.6,0Z"/>
      <path class="st11" d="M352.5,110.1c-.6,0-1.1-.1-1.5-.3s-.7-.6-1-1c-.2-.4-.3-.9-.3-1.5s.1-1.1.3-1.5.5-.8.9-1,.9-.4,1.4-.4.7,0,1,.2.6.3.8.5.4.5.6.9.2.8.2,1.3v.4h-4.8v-1h4l-.7.2c0-.3,0-.5-.1-.7,0-.2-.2-.4-.4-.5s-.4-.2-.6-.2-.5,0-.6.2-.3.3-.4.5c-.1.2-.1.4-.1.7v.7c0,.3,0,.6.2.8.1.2.3.4.5.5.2.1.4.2.7.2s.3,0,.5,0,.3-.1.4-.2c.1,0,.2-.2.2-.3h1.4c0,.4-.2.8-.4,1-.2.3-.5.4-.9.6-.4.1-.8.2-1.2.2h0Z"/>
      <path class="st11" d="M357.8,109.9v-7.5h3c.5,0,1,0,1.4.2s.6.4.8.7c.2.3.3.6.3,1s0,.6-.2.8c-.1.2-.3.4-.5.5-.2.1-.4.2-.7.3h0c.3,0,.5.2.8.3.2.2.5.3.6.6.1.3.2.6.2.9s-.1.8-.3,1.1c-.2.3-.5.6-.9.7s-.9.3-1.4.3h-3.2,0ZM359.4,105.6h1.2c.2,0,.4,0,.6-.1s.3-.2.4-.3.1-.3.1-.5-.1-.5-.3-.7-.5-.2-.8-.2h-1.2v1.9h0ZM359.4,108.6h1.3c.4,0,.8,0,1-.2s.3-.4.3-.7,0-.4-.1-.6-.2-.3-.4-.4-.4-.1-.7-.1h-1.3v2Z"/>
      <path class="st11" d="M365.8,102.4v7.5h-1.6v-7.5h1.6Z"/>
      <path class="st11" d="M369.3,110.1c-.6,0-1-.1-1.5-.4-.4-.2-.7-.6-1-1-.2-.4-.3-.9-.3-1.5s.1-1.1.3-1.5.5-.8,1-1,.9-.4,1.5-.4,1.1.1,1.5.4c.4.2.7.6,1,1,.2.4.3.9.3,1.5s-.1,1.1-.3,1.5-.5.8-1,1-.9.4-1.5.4ZM369.3,108.8c.3,0,.5,0,.6-.2.2-.2.3-.3.4-.6,0-.2.1-.5.1-.9s0-.6-.1-.9c0-.2-.2-.4-.4-.6s-.4-.2-.6-.2-.5,0-.6.2c-.2.2-.3.3-.4.6s-.1.5-.1.9,0,.6.1.9c0,.2.2.4.4.6s.4.2.6.2Z"/>
      <path class="st11" d="M376,110c-.3,0-.6,0-.8-.2-.2,0-.4-.2-.5-.4-.1-.2-.2-.3-.3-.5h0v.9h-1.5v-7.5h1.6v2.8h0c0-.2.2-.3.3-.5.1-.2.3-.3.5-.4s.5-.2.8-.2.8,0,1.1.3.6.5.8,1,.3,1,.3,1.6-.1,1.2-.3,1.6-.5.8-.8,1-.7.3-1.2.3h0,0ZM375.5,108.8c.2,0,.5,0,.6-.2s.3-.3.4-.6.1-.5.1-.9,0-.6-.1-.8c0-.2-.2-.4-.4-.6s-.4-.2-.6-.2-.5,0-.6.2-.3.3-.4.6-.1.5-.1.9,0,.6.1.9c0,.2.2.4.4.6s.4.2.6.2h0,0Z"/>
    </g>
  </g>
  <g>
    <path class="st7" d="M167.5,496.2h-1.7l2.6-7.5h2.1l2.6,7.5h-1.7l-1.9-5.8h0l-1.9,5.8h0ZM167.4,493.2h4v1.2h-4v-1.2Z"/>
    <path class="st7" d="M173.5,496.2v-.9l2.8-3.4h0s-2.7,0-2.7,0v-1.3h4.6v1l-2.6,3.4h0s2.7,0,2.7,0v1.3h-4.8Z"/>
    <path class="st7" d="M182.8,493.8v-3.3h1.6v5.7h-1.5v-1h0c-.1.3-.3.6-.6.8s-.7.3-1.1.3-.7,0-1-.2-.5-.4-.7-.7c-.2-.3-.2-.7-.2-1.1v-3.6h1.6v3.3c0,.3,0,.6.3.8.2.2.4.3.7.3s.4,0,.5-.1.3-.2.4-.4c.1-.2.1-.4.1-.6h0Z"/>
    <path class="st7" d="M185.3,496.2v-5.7h1.5v1h0c.1-.4.3-.6.5-.8s.5-.3.8-.3h.2c0,0,.2,0,.2,0v1.4c0,0-.2,0-.3,0-.1,0-.2,0-.4,0-.2,0-.4,0-.6.1s-.3.2-.4.4c-.1.2-.1.4-.1.6v3.2h-1.6,0Z"/>
    <path class="st7" d="M191.5,496.3c-.6,0-1.1-.1-1.5-.4s-.7-.6-1-1c-.2-.4-.3-1-.3-1.5s.1-1.1.3-1.5.5-.8.9-1,.9-.4,1.4-.4.7,0,1.1.2.6.3.9.5.4.5.6.9.2.8.2,1.3v.4h-4.8v-1h4l-.7.2c0-.3,0-.5-.1-.7,0-.2-.2-.4-.4-.5s-.4-.2-.6-.2-.5,0-.7.2-.3.3-.4.5c-.1.2-.1.4-.1.7v.7c0,.3,0,.6.2.8s.3.4.4.5c.2.1.4.2.7.2s.3,0,.5,0,.3-.1.4-.2c.1-.1.2-.2.2-.4h1.4c0,.5-.2.8-.4,1-.2.3-.5.5-.9.6-.4.1-.8.2-1.2.2h0Z"/>
    <path class="st7" d="M196.8,496.2v-7.5h3c.6,0,1,0,1.4.2s.7.4.8.7c.2.3.3.6.3,1s0,.6-.2.8c-.1.2-.3.4-.5.5-.2.1-.4.2-.7.3h0c.3,0,.6.2.8.3.2.1.4.4.6.6.1.3.2.6.2,1s-.1.8-.3,1.1c-.2.3-.5.6-.9.7s-.9.3-1.4.3h-3.2ZM198.4,491.8h1.2c.2,0,.4,0,.6-.1s.3-.2.4-.3c.1-.1.1-.3.1-.5s-.1-.5-.3-.7c-.2-.2-.5-.2-.8-.2h-1.2v1.9h0ZM198.4,494.9h1.3c.4,0,.8,0,1-.2s.3-.4.3-.7,0-.4-.1-.6c-.1-.2-.2-.3-.4-.4s-.4-.1-.7-.1h-1.3v2h0Z"/>
    <path class="st7" d="M204.9,488.6v7.5h-1.6v-7.5h1.6Z"/>
    <path class="st7" d="M208.4,496.3c-.6,0-1.1-.1-1.5-.4s-.7-.6-1-1c-.2-.4-.3-1-.3-1.5s.1-1.1.3-1.5.5-.8,1-1c.4-.2.9-.4,1.5-.4s1.1.1,1.5.4.7.6,1,1c.2.4.3,1,.3,1.5s-.1,1.1-.3,1.5-.5.8-1,1c-.4.2-.9.4-1.5.4ZM208.4,495.1c.3,0,.5,0,.7-.2.2-.1.3-.4.4-.6,0-.2.1-.5.1-.9s0-.6-.1-.9-.2-.5-.4-.6-.4-.2-.7-.2-.5,0-.7.2c-.2.1-.3.3-.4.6s-.1.5-.1.9,0,.6.1.9.2.5.4.6.4.2.7.2Z"/>
    <path class="st7" d="M215.1,496.3c-.3,0-.6,0-.8-.1-.2-.1-.4-.2-.5-.4-.1-.1-.2-.3-.3-.5h0v.9h-1.5v-7.5h1.6v2.8h0c0-.1.2-.3.3-.5.1-.1.3-.3.5-.4s.5-.2.8-.2.8.1,1.1.3.6.5.8,1,.3,1,.3,1.6-.1,1.2-.3,1.6-.5.8-.8,1c-.3.2-.7.3-1.2.3h0ZM214.6,495c.2,0,.5,0,.6-.2s.3-.3.4-.6.1-.5.1-.9,0-.6-.1-.9c0-.2-.2-.4-.4-.6s-.4-.2-.7-.2-.5,0-.6.2-.3.3-.4.6-.1.5-.1.9,0,.6.1.9c0,.2.2.4.4.6s.4.2.6.2h0Z"/>
  </g>
  <g>
    <path class="st12" d="M249,554.7c-9.4,0-17.1-7.6-17.1-16.9v-42.3c0-9.3,7.7-16.9,17.1-16.9h46.3c9.4,0,17.1,7.6,17.1,16.9v42.3c0,9.3-7.7,16.9-17.1,16.9h-46.3Z"/>
    <path class="st5" d="M295.3,480.5c8.4,0,15.2,6.7,15.2,15v42.3c0,8.3-6.8,15-15.2,15h-46.3c-8.4,0-15.2-6.7-15.2-15v-42.3c0-8.3,6.8-15,15.2-15h46.3M295.3,476.7h-46.3c-10.5,0-19,8.4-19,18.8v42.3c0,10.4,8.5,18.8,19,18.8h46.3c10.5,0,19-8.4,19-18.8v-42.3c0-10.4-8.5-18.8-19-18.8h0Z"/>
  </g>
  <g>
    <g>
      <rect class="st12" x="28.1" y="45.2" width="47.8" height="47.8" rx="10.2" ry="10.2"/>
      <path class="st5" d="M65.7,46.4c5,0,9,4,9,9v27.4c0,5-4,9-9,9h-27.4c-5,0-9-4-9-9v-27.4c0-5,4-9,9-9h27.4M65.7,44h-27.4c-6.3,0-11.4,5.1-11.4,11.4v27.4c0,6.3,5.1,11.4,11.4,11.4h27.4c6.3,0,11.4-5.1,11.4-11.4v-27.4c0-6.3-5.1-11.4-11.4-11.4h0Z"/>
    </g>
    <g>
      <path class="st5" d="M52,53.1c-5.5,0-10,1.1-10,2.4v4.8c0,.8,1.4,1.4,3.5,1.9l2.6-4.5c.2-.3.5-.5.8-.5s.6.2.8.5l2.9,5.1c.2,0,.4,0,.6,0v-2.7c0-1,.8-1.7,1.7-1.7s1.7.8,1.7,1.7v2.4c3.1-.4,5.2-1.2,5.2-2.1v-4.8c0-1.3-4.5-2.4-10-2.4h0ZM58,56c-1.7.3-3.8.5-6,.5s-4.3-.2-6-.5c-.8-.2-1.5-.4-1.9-.5.4-.2,1-.3,1.9-.5,1.7-.3,3.8-.5,6-.5s4.3.2,6,.5c.9.2,1.5.4,1.9.5-.4.2-1,.3-1.9.5Z"/>
      <path class="st5" d="M47.1,64.3c0,0,.1,0,.2,0v4.8c-3.1-.4-5.2-1.2-5.2-2.1v-4.8c0,.7,1.2,1.3,3.2,1.8h0c.2.2.4.3.7.3h1.1Z"/>
      <path class="st5" d="M51.2,65.3c0,.1-.1.3-.1.5s0,.3.1.4l1.8,3.2c-.3,0-.7,0-1,0s-.9,0-1.3,0c0,0,0-.2,0-.2v-4.5c.4,0,.8,0,1.3,0s.9,0,1.3,0v.2h-1.3c-.3,0-.6.2-.8.4h0Z"/>
      <path class="st5" d="M62,62.2v4.8c0,.9-1.9,1.6-4.7,2.1l1.6-2.8c.2-.3.2-.6,0-.9-.2-.3-.5-.5-.8-.5h-1.3v-.5c3.1-.4,5.2-1.2,5.2-2.1h0Z"/>
      <path class="st5" d="M62,68.9v4.8c0,1.3-4.5,2.4-10,2.4s-10-1.1-10-2.4v-4.8c0,1.3,4.5,2.4,10,2.4s1.4,0,2.1,0l.2.3c.2.3.5.5.8.5s.6-.2.8-.5l.3-.5c3.4-.4,5.8-1.2,5.8-2.2h0Z"/>
      <path class="st11" d="M58.3,65.9l-1.9,3.3-1.1,2h0c0,.1,0,.2-.2.2s-.1,0-.2,0h0s-1-1.8-1-1.8l-2-3.5s0,0,0,0,0,0,0,0c0,0,.1-.1.2-.1h2v-5.5c0-.6.5-1,1-1s1,.5,1,1v5.5h2c0,0,.1,0,.2.1s0,.1,0,.2h0Z"/>
      <path class="st11" d="M52.2,63.5c0,0-.1,0-.2,0h-2v5.6c0,0,0,.2,0,.2,0,.4-.5.8-1,.8s-1-.4-1-1v-5.6h-2c0,0-.1,0-.2,0,0,0,0,0,0-.1s0,0,0,0l.6-1,2.5-4.3c0,0,.1-.1.2-.1s.1,0,.2.1l2.7,4.8.3.5c0,0,0,.1,0,.2h0Z"/>
    </g>
    <g>
      <path class="st11" d="M37.6,85.9h-1l1.6-4.5h1.2l1.6,4.5h-1l-1.1-3.5h0l-1.1,3.5h0ZM37.5,84.1h2.4v.8h-2.4s0-.8,0-.8Z"/>
      <path class="st11" d="M41.2,85.9v-.6l1.7-2.1h0s-1.6,0-1.6,0v-.8h2.7v.6l-1.6,2h0s1.6,0,1.6,0v.8h-2.9Z"/>
      <path class="st11" d="M46.8,84.5v-1.9h.9v3.4h-.9v-.6h0c0,.2-.2.4-.4.5s-.4.2-.7.2-.4,0-.6-.2c-.2,0-.3-.2-.4-.4,0-.2-.1-.4-.1-.7v-2.2h.9v2c0,.2,0,.4.2.5s.2.2.4.2.2,0,.3,0,.2-.1.2-.2c0-.1,0-.2,0-.4h0Z"/>
      <path class="st11" d="M48.2,85.9v-3.4h.9v.6h0c0-.2.2-.4.3-.5s.3-.2.5-.2h.2s0,0,.1,0v.8s-.1,0-.2,0c0,0-.2,0-.2,0-.1,0-.3,0-.4,0s-.2.1-.3.2c0,.1,0,.2,0,.4v1.9h-.9,0Z"/>
      <path class="st11" d="M52,86c-.3,0-.7,0-.9-.2s-.5-.3-.6-.6c-.1-.3-.2-.6-.2-.9s0-.7.2-.9.3-.5.6-.6.5-.2.9-.2.4,0,.6.1.4.2.5.3.3.3.3.5.1.5.1.8v.3h-2.9v-.6h2.4l-.4.2c0-.2,0-.3,0-.4,0-.1-.1-.2-.2-.3s-.2-.1-.4-.1-.3,0-.4.1-.2.2-.2.3c0,.1,0,.3,0,.4v.4c0,.2,0,.3,0,.5,0,.1.2.2.3.3s.2.1.4.1.2,0,.3,0,.2,0,.2-.1.1-.1.1-.2h.9c0,.3-.1.4-.3.6-.1.2-.3.3-.5.4-.2,0-.5.1-.7.1h0Z"/>
      <path class="st11" d="M55.2,85.9v-4.5h1.8c.3,0,.6,0,.8.2s.4.2.5.4c.1.2.2.4.2.6s0,.3-.1.5c0,.1-.2.2-.3.3-.1,0-.3.1-.4.2h0c.2,0,.3.1.5.2.2,0,.3.2.4.4,0,.2.1.4.1.6s0,.4-.2.6c-.1.2-.3.3-.5.4s-.5.2-.8.2c0,0-1.9,0-1.9,0ZM56.1,83.3h.7c.1,0,.2,0,.3,0s.2-.1.2-.2c0,0,0-.2,0-.3s0-.3-.2-.4c-.1,0-.3-.2-.5-.2h-.7s0,1.1,0,1.1ZM56.1,85.1h.8c.3,0,.5,0,.6-.2s.2-.2.2-.4,0-.2,0-.3-.1-.2-.3-.2-.2,0-.4,0h-.8v1.2h0Z"/>
      <path class="st11" d="M60,81.4v4.5h-.9v-4.5h.9Z"/>
      <path class="st11" d="M62.1,86c-.3,0-.6,0-.9-.2s-.4-.3-.6-.6c-.1-.3-.2-.6-.2-.9s0-.7.2-.9c.1-.3.3-.5.6-.6.2-.1.5-.2.9-.2s.6,0,.9.2.4.3.6.6c.1.3.2.6.2.9s0,.7-.2.9-.3.5-.6.6c-.2.1-.5.2-.9.2ZM62.1,85.3c.2,0,.3,0,.4-.1.1,0,.2-.2.2-.4,0-.2,0-.3,0-.5s0-.4,0-.5c0-.2-.1-.3-.2-.4s-.2-.1-.4-.1-.3,0-.4.1c-.1,0-.2.2-.2.4s0,.3,0,.5,0,.4,0,.5c0,.2.1.3.2.4s.2.1.4.1Z"/>
      <path class="st11" d="M66.1,86c-.2,0-.3,0-.5,0-.1,0-.2-.1-.3-.2,0,0-.1-.2-.2-.3h0v.5h-.9v-4.5h.9v1.7h0c0,0,.1-.2.2-.3,0,0,.2-.2.3-.2s.3,0,.5,0,.5,0,.7.2.4.3.5.6.2.6.2,1,0,.7-.2.9-.3.4-.5.6-.4.2-.7.2h0ZM65.8,85.2c.2,0,.3,0,.4-.1s.2-.2.2-.4,0-.3,0-.5,0-.4,0-.5c0-.2-.1-.3-.2-.3s-.2-.1-.4-.1-.3,0-.4.1-.2.2-.2.3,0,.3,0,.5,0,.4,0,.5c0,.2.1.3.2.3s.2.1.4.1h0Z"/>
    </g>
  </g>
  <g>
    <path class="st5" d="M31.3,154.1v4h-2.3v-11.4h4.4c.8,0,1.6.2,2.2.5s1.2.8,1.5,1.3c.3.6.5,1.2.5,2,0,1.1-.4,2-1.1,2.6-.8.6-1.8,1-3.2,1h-2.1ZM31.3,152.2h2.1c.6,0,1.1-.1,1.4-.4.3-.3.5-.7.5-1.2s-.2-1-.5-1.4-.8-.5-1.4-.5h-2.1s0,3.6,0,3.6Z"/>
    <path class="st5" d="M44,158.1c0-.2-.2-.5-.2-.8-.5.6-1.3.9-2.1.9s-1.5-.2-2.1-.7c-.5-.5-.8-1.1-.8-1.8s.3-1.6,1-2.1,1.6-.7,2.9-.7h1v-.5c0-.4,0-.7-.3-.9-.2-.2-.5-.4-1-.4s-.7,0-.9.3c-.2.2-.3.4-.3.8h-2.3c0-.5.2-.9.5-1.4s.7-.7,1.3-1c.5-.2,1.2-.4,1.9-.4,1,0,1.9.3,2.5.8.6.5.9,1.3.9,2.2v3.7c0,.8.1,1.4.3,1.8h0c0,.1-2.3.1-2.3.1h0ZM42.1,156.5c.3,0,.6,0,.9-.2s.5-.4.6-.6v-1.4h-.8c-1.1,0-1.7.4-1.8,1.2h0c0,.4,0,.6.3.8.2.2.5.3.8.3Z"/>
    <path class="st5" d="M50.3,147.5v2.1h1.5v1.7h-1.5v4.2c0,.3,0,.5.2.7.1.1.3.2.7.2s.5,0,.7,0v1.7c-.4.1-.9.2-1.4.2-1.6,0-2.4-.8-2.4-2.4v-4.6h-1.2v-1.7h1.2v-2.1h2.3Z"/>
    <path class="st5" d="M55.2,150.5c.6-.7,1.3-1.1,2.3-1.1,1.8,0,2.8,1.1,2.8,3.2v5.4h-2.3v-5.4c0-.5,0-.8-.3-1.1-.2-.2-.5-.4-1-.4s-1.1.2-1.4.8v6h-2.3v-12h2.3v4.5h0Z"/>
    <path class="st5" d="M62.1,150.6c0-.4.1-.6.4-.9s.5-.3.9-.3.7.1.9.3.4.5.4.9-.1.6-.4.9-.5.3-.9.3-.7-.1-.9-.3-.4-.5-.4-.9ZM62.1,157c0-.4.1-.6.4-.9s.5-.3.9-.3.7.1.9.3.4.5.4.9-.1.6-.4.9-.5.3-.9.3-.7-.1-.9-.3-.4-.5-.4-.9Z"/>
  </g>
  <g>
    <path class="st5" d="M131.3,118c0,1.2-.5,2.2-1.4,2.9s-1.9,1.1-3.2,1.1-2.6-.5-3.4-1.5-1.2-2.3-1.2-4v-.7c0-1.1.2-2.1.6-2.9s.9-1.5,1.7-1.9c.7-.4,1.6-.7,2.5-.7s2.4.3,3.2,1.1c.8.7,1.3,1.7,1.4,3h-2.3c0-.7-.3-1.3-.6-1.6s-.9-.5-1.6-.5-1.4.3-1.8.8c-.4.6-.6,1.4-.6,2.6v.9c0,1.2.2,2.1.6,2.7.4.6,1,.8,1.8.8s1.3-.2,1.6-.5.6-.8.6-1.5h2.3Z"/>
    <path class="st5" d="M132.4,117.5c0-.8.2-1.6.5-2.2.3-.7.8-1.2,1.4-1.5.6-.4,1.3-.5,2.1-.5,1.1,0,2.1.3,2.8,1.1.7.7,1.1,1.7,1.2,2.8v.6c0,1.3-.3,2.3-1.1,3.1-.7.8-1.7,1.2-2.9,1.2s-2.2-.4-2.9-1.2-1.1-1.8-1.1-3.2h0c0,0,0-.1,0-.1ZM134.6,117.6c0,.8.1,1.4.4,1.8s.7.6,1.3.6,1-.2,1.3-.6.5-1.1.5-2-.1-1.4-.5-1.8c-.3-.4-.7-.7-1.3-.7s-1,.2-1.3.7c-.3.4-.4,1.1-.4,2h0Z"/>
    <path class="st5" d="M143.8,113.3v1c.7-.8,1.5-1.1,2.5-1.1s1.6.3,2,.8.7,1.3.7,2.4v5.5h-2.3v-5.4c0-.5-.1-.8-.3-1-.2-.2-.6-.3-1-.3s-1.1.3-1.4.8v6h-2.3v-8.4h2.1Z"/>
    <path class="st5" d="M153.4,111.2v2.1h1.4v1.7h-1.4v4.2c0,.3,0,.5.2.7.1.1.4.2.7.2s.5,0,.7,0v1.7c-.4.1-.9.2-1.4.2-1.6,0-2.4-.8-2.4-2.4v-4.6h-1.2v-1.7h1.2v-2.1h2.3Z"/>
    <path class="st5" d="M161,121.8c-.1-.2-.2-.5-.2-.8-.6.6-1.3.9-2.1.9s-1.5-.2-2.1-.7c-.5-.5-.8-1.1-.8-1.8s.3-1.6,1-2.1,1.6-.7,2.9-.7h1v-.5c0-.4-.1-.7-.3-.9-.2-.2-.5-.3-.9-.3s-.7,0-.9.3c-.2.2-.3.4-.3.8h-2.3c0-.5.1-.9.4-1.4s.7-.7,1.3-1c.6-.2,1.2-.4,1.9-.4,1,0,1.9.3,2.5.8.6.5.9,1.3.9,2.2v3.7c0,.8.1,1.4.3,1.8h0c0,.1-2.3.1-2.3.1h0ZM159.1,120.2c.3,0,.6,0,.9-.2s.5-.3.6-.6v-1.4h-.8c-1.1,0-1.7.4-1.8,1.2h0c0,.4,0,.6.3.8.2.2.5.3.8.3h0Z"/>
    <path class="st5" d="M164.7,111.1c0-.3.1-.6.3-.8s.5-.3.9-.3.7.1.9.3.3.5.3.8-.1.6-.4.8c-.2.2-.5.3-.9.3s-.7-.1-.9-.3-.4-.5-.4-.8h0ZM167.1,121.8h-2.3v-8.4h2.3v8.4Z"/>
    <path class="st5" d="M171,113.3v1c.7-.8,1.5-1.1,2.5-1.1s1.6.3,2,.8.7,1.3.7,2.4v5.5h-2.3v-5.4c0-.5-.1-.8-.3-1-.2-.2-.6-.3-1-.3s-1.1.3-1.4.8v6h-2.3v-8.4h2.1Z"/>
    <path class="st5" d="M181.8,121.9c-1.2,0-2.2-.4-3-1.1s-1.2-1.8-1.2-3v-.2c0-.8.2-1.6.5-2.3s.8-1.2,1.4-1.6,1.3-.5,2.1-.5c1.2,0,2.1.4,2.7,1.1s1,1.8,1,3.1v.9h-5.4c0,.6.3,1,.7,1.3s.8.5,1.4.5c.9,0,1.6-.3,2-.9l1.1,1.2c-.3.5-.8.8-1.4,1.1s-1.2.4-1.9.4h0ZM181.5,115c-.4,0-.8.2-1.1.5-.3.3-.5.7-.5,1.3h3.1v-.2c0-.5-.1-.9-.4-1.2-.3-.3-.6-.4-1.1-.4h0Z"/>
    <path class="st5" d="M191.3,115.4c-.3,0-.6,0-.8,0-.9,0-1.4.3-1.7.9v5.5h-2.3v-8.4h2.1v1c.5-.8,1.1-1.2,1.9-1.2s.5,0,.7,0v2.2s0,0,0,0Z"/>
    <path class="st5" d="M192.5,114.3c0-.4.1-.7.4-.9s.6-.3.9-.3.7.1.9.3.4.5.4.9-.1.6-.4.9-.6.3-.9.3-.7-.1-.9-.3-.4-.5-.4-.9ZM192.5,120.7c0-.4.1-.7.4-.9s.6-.3.9-.3.7.1.9.3.4.5.4.9-.1.6-.4.9-.6.3-.9.3-.7-.1-.9-.3-.4-.5-.4-.9Z"/>
  </g>
  <g>
    <path class="st5" d="M34.3,119.5h-4.1l-.8,2.3h-2.5l4.2-11.4h2.2l4.3,11.4h-2.5s-.8-2.3-.8-2.3ZM30.8,117.6h2.8l-1.4-4.3-1.4,4.3Z"/>
    <path class="st5" d="M42,120.2c.4,0,.8-.1,1-.3.3-.2.4-.5.4-.9h2.1c0,.6-.2,1.1-.5,1.6-.3.5-.7.8-1.3,1.1s-1.1.4-1.8.4c-1.2,0-2.2-.4-2.9-1.2-.7-.8-1-1.8-1-3.2v-.2c0-1.3.3-2.3,1-3.1.7-.8,1.6-1.2,2.8-1.2s1.9.3,2.5.9,1,1.4,1,2.4h-2.1c0-.4-.2-.8-.4-1.1s-.6-.4-1-.4-.9.2-1.2.6c-.3.4-.4,1-.4,1.9v.2c0,.9.1,1.5.4,1.9s.7.6,1.2.6h0Z"/>
    <path class="st5" d="M50.4,120.2c.4,0,.8-.1,1-.3.3-.2.4-.5.4-.9h2.1c0,.6-.2,1.1-.5,1.6-.3.5-.7.8-1.3,1.1s-1.1.4-1.8.4c-1.2,0-2.2-.4-2.9-1.2-.7-.8-1-1.8-1-3.2v-.2c0-1.3.3-2.3,1-3.1.7-.8,1.6-1.2,2.8-1.2s1.9.3,2.5.9,1,1.4,1,2.4h-2.1c0-.4-.2-.8-.4-1.1s-.6-.4-1-.4-.9.2-1.2.6c-.3.4-.4,1-.4,1.9v.2c0,.9.1,1.5.4,1.9s.7.6,1.2.6h0Z"/>
    <path class="st5" d="M54.8,117.5c0-.8.2-1.6.5-2.2.3-.7.8-1.2,1.4-1.5.6-.4,1.3-.5,2.1-.5,1.1,0,2.1.3,2.8,1.1.7.7,1.1,1.7,1.2,2.8v.6c0,1.3-.3,2.3-1.1,3.1-.7.8-1.7,1.2-2.9,1.2s-2.2-.4-2.9-1.2-1.1-1.8-1.1-3.2h0c0,0,0-.1,0-.1ZM57.1,117.7c0,.8.2,1.4.5,1.8s.7.6,1.3.6,1-.2,1.3-.6c.3-.4.5-1.1.5-2s-.2-1.4-.5-1.8c-.3-.4-.7-.7-1.3-.7s-1,.2-1.3.7c-.3.4-.5,1.1-.5,2h0Z"/>
    <path class="st5" d="M69.3,121c-.6.7-1.3,1-2.3,1s-1.6-.3-2.1-.8-.7-1.3-.7-2.3v-5.5h2.3v5.5c0,.9.4,1.3,1.2,1.3s1.3-.3,1.6-.8v-6h2.3v8.4h-2.1v-.9c0,0,0,0,0,0Z"/>
    <path class="st5" d="M75.3,113.4v1c.7-.8,1.5-1.1,2.5-1.1s1.6.3,2,.8.7,1.3.7,2.4v5.5h-2.3v-5.4c0-.5,0-.8-.3-1-.2-.2-.6-.3-1-.3s-1.1.3-1.4.8v6h-2.3v-8.4h2.1Z"/>
    <path class="st5" d="M84.9,111.3v2.1h1.4v1.7h-1.4v4.2c0,.3,0,.5.2.7.1.1.3.2.7.2s.5,0,.7,0v1.7c-.4.1-.9.2-1.4.2-1.6,0-2.4-.8-2.4-2.4v-4.6h-1.2v-1.7h1.2v-2.1h2.3,0Z"/>
    <path class="st5" d="M87.7,114.3c0-.4.1-.7.4-.9s.6-.3.9-.3.7.1.9.3.4.5.4.9-.1.6-.4.9-.6.3-.9.3-.7-.1-.9-.3c-.2-.2-.4-.5-.4-.9ZM87.7,120.7c0-.4.1-.7.4-.9s.6-.3.9-.3.7.1.9.3.4.5.4.9-.1.6-.4.9-.6.3-.9.3-.7-.1-.9-.3c-.2-.2-.4-.5-.4-.9Z"/>
  </g>
  <g>
    <path class="st1" d="M28.7,172.7v-6.6h.8v.9h0c0-.3.2-.6.4-.7.2-.2.5-.3.8-.3s.5,0,.8.3.4.4.4.7h0c0-.3.2-.5.4-.7s.5-.3.8-.3.8.1,1,.5.4.7.4,1.2v5.1h-.9v-5.1c0-.3,0-.5-.2-.7-.1-.2-.3-.2-.6-.2s-.4,0-.5.2c-.1.2-.2.4-.2.7v5.1h-.8v-5.1c0-.3,0-.5-.2-.7-.1-.2-.3-.2-.5-.2s-.4,0-.6.2c-.1.2-.2.4-.2.7v5.1h-.9Z"/>
    <path class="st1" d="M37.4,174.9l1-2.6-2.5-6.2h1l1.6,4.1c0,.2.1.4.2.6,0,.2.1.4.1.5,0-.1,0-.3.1-.5,0-.2.1-.4.2-.6l1.5-4.1h1l-3.3,8.8h-1,0Z"/>
    <path class="st1" d="M44,169.2v-.8h3.8v.8h-3.8Z"/>
    <path class="st1" d="M52.2,172.7v-4.8h-1.9v-.9h1.9v-1.4c0-.5.2-.9.5-1.2.3-.3.8-.4,1.3-.4h1.9v.9h-1.9c-.5,0-.8.3-.8.8v1.4h2.7v.9h-2.7v4.8h-1,0Z"/>
    <path class="st1" d="M60.4,172.8c-.8,0-1.4-.2-1.8-.7s-.7-1.1-.7-1.9v-1.7c0-.8.2-1.4.7-1.9.5-.5,1.1-.7,1.8-.7s1.4.2,1.8.7.7,1.1.7,1.9v1.7c0,.8-.2,1.4-.7,1.9s-1.1.7-1.8.7ZM60.4,171.9c.5,0,.9-.1,1.2-.4.3-.3.4-.7.4-1.2v-1.8c0-.5-.1-.9-.4-1.2s-.7-.4-1.2-.4-.9.1-1.2.4c-.3.3-.4.7-.4,1.2v1.8c0,.5.1.9.4,1.2s.7.4,1.2.4Z"/>
    <path class="st1" d="M68.5,172.7c-.6,0-1-.2-1.3-.5-.3-.3-.5-.8-.5-1.3v-6.1h-2.3v-.9h3.2v7c0,.3,0,.5.2.7.2.2.4.2.7.2h2v.9h-2,0Z"/>
    <path class="st1" d="M74.4,172.8c-.7,0-1.2-.2-1.6-.6-.4-.4-.6-1-.6-1.8v-2c0-.8.2-1.4.6-1.8.4-.4.9-.7,1.6-.7s.9.1,1.2.4c.3.2.5.6.6,1v-3.4s.9,0,.9,0v8.8h-.9v-1.2c0,.4-.3.7-.6,1s-.7.4-1.2.4h0ZM74.7,172c.5,0,.8-.1,1.1-.4.3-.3.4-.7.4-1.2v-1.9c0-.5-.1-.9-.4-1.2s-.6-.4-1.1-.4-.8.1-1.1.4-.4.7-.4,1.2v2c0,.6.1,1,.4,1.2s.6.4,1.1.4Z"/>
    <path class="st1" d="M82,172.8c-.8,0-1.4-.2-1.8-.7s-.7-1.1-.7-1.9v-1.7c0-.8.2-1.4.7-1.9s1.1-.7,1.8-.7,1.4.2,1.8.7.7,1.1.7,1.8v1.2h-4.1v.7c0,.5.1.9.4,1.2s.7.4,1.2.4.8,0,1-.3.4-.4.5-.7h.9c0,.6-.3,1-.8,1.3-.4.3-1,.5-1.7.5h0ZM80.4,168.9h3.2v-.4c0-.5-.1-.9-.4-1.2s-.7-.4-1.2-.4-.9.1-1.2.4c-.3.3-.4.7-.4,1.2v.4h0Z"/>
    <path class="st1" d="M87,172.7v-6.6h1v1.2c0-.4.3-.7.6-1,.3-.2.7-.4,1.2-.4s1.2.2,1.6.6c.4.4.6,1,.6,1.8v.6h-.9v-.6c0-1-.5-1.5-1.5-1.5s-.9.1-1.1.4-.4.7-.4,1.2v4.2h-1Z"/>
  </g>
  <g>
    <path class="st1" d="M30.5,137.1c-.8,0-1.4-.2-1.8-.7s-.7-1.1-.7-1.9v-1.7c0-.8.2-1.4.7-1.9.5-.5,1.1-.7,1.8-.7s1.4.2,1.8.7.7,1.1.7,1.9v1.7c0,.8-.2,1.4-.7,1.9s-1.1.7-1.8.7ZM30.5,136.3c.5,0,.9-.1,1.1-.4.3-.3.4-.7.4-1.2v-1.8c0-.5-.1-.9-.4-1.2s-.7-.4-1.1-.4-.9.1-1.1.4c-.3.3-.4.7-.4,1.2v1.8c0,.5.1.9.4,1.2s.7.4,1.1.4Z"/>
    <path class="st1" d="M35.1,137v-.9h2.3v-4.9h-2.1v-.9h3.1v5.7h2.2v.9h-5.5ZM37.9,129.2c-.2,0-.5,0-.6-.2s-.2-.3-.2-.5,0-.4.2-.6.3-.2.6-.2.5,0,.6.2c.1.1.2.3.2.6s0,.4-.2.5-.3.2-.6.2Z"/>
    <path class="st1" d="M45.2,137.1c-.5,0-.9-.1-1.2-.4-.3-.2-.5-.6-.6-1v1.2h-1v-8.8h1v3.4c0-.4.3-.7.6-1s.7-.4,1.2-.4,1.2.2,1.6.7c.4.4.6,1,.6,1.8v2c0,.8-.2,1.4-.6,1.8-.4.4-.9.6-1.6.6h0ZM44.9,136.3c.5,0,.8-.1,1.1-.4s.4-.7.4-1.2v-2c0-.6-.1-1-.4-1.2s-.6-.4-1.1-.4-.8.1-1.1.4c-.3.3-.4.7-.4,1.2v1.9c0,.5.1.9.4,1.2.3.3.6.4,1.1.4Z"/>
    <path class="st1" d="M52.1,137.1c-.8,0-1.3-.2-1.8-.7s-.7-1.1-.7-1.8v-4.2h1v4.2c0,.5.1.9.4,1.2.3.3.6.4,1.1.4s.8-.1,1.1-.4.4-.7.4-1.2v-4.2h1v4.2c0,.8-.2,1.4-.7,1.8-.5.4-1,.7-1.8.7h0Z"/>
    <path class="st1" d="M59,137.1c-.7,0-1.3-.2-1.7-.5s-.6-.8-.6-1.4h1c0,.3.1.6.4.8.2.2.5.3,1,.3h.6c.4,0,.7,0,1-.3s.3-.4.3-.8,0-.6-.2-.7-.4-.3-.7-.3l-1.7-.2c-.5,0-.8-.3-1.1-.6-.3-.3-.4-.7-.4-1.2s.2-1,.6-1.3c.4-.3.9-.5,1.6-.5h.6c.6,0,1.2.2,1.5.5.4.3.6.7.7,1.2h-1c0-.2-.2-.5-.4-.6s-.5-.2-.9-.2h-.6c-.4,0-.7,0-.9.3-.2.2-.3.4-.3.7,0,.5.3.8.8.9l1.6.2c.5,0,1,.3,1.2.6.3.3.4.8.4,1.3s-.2,1.1-.6,1.4c-.4.3-1,.5-1.7.5h-.6,0Z"/>
  </g>
  <g>
    <path class="st1" d="M124.6,137.7c-.8,0-1.4-.2-1.8-.7s-.7-1.1-.7-1.9v-1.7c0-.8.2-1.4.7-1.9.4-.5,1.1-.7,1.8-.7s1.4.2,1.8.7.7,1.1.7,1.9v1.7c0,.8-.2,1.4-.7,1.9s-1.1.7-1.8.7ZM124.6,136.8c.5,0,.9-.1,1.2-.4s.4-.7.4-1.2v-1.8c0-.5-.1-.9-.4-1.2s-.7-.4-1.2-.4-.9.1-1.2.4-.4.7-.4,1.2v1.8c0,.5.1.9.4,1.2s.7.4,1.2.4Z"/>
    <path class="st1" d="M129.2,137.6v-.9h2.4v-4.9h-2.1v-.9h3.1v5.7h2.2v.9h-5.5ZM131.9,129.8c-.2,0-.4,0-.6-.2s-.2-.3-.2-.5,0-.4.2-.6.4-.2.6-.2.4,0,.6.2.2.3.2.6,0,.4-.2.5-.4.2-.6.2Z"/>
    <path class="st1" d="M139.3,137.7c-.5,0-.9-.1-1.2-.4-.3-.2-.5-.6-.6-1v1.2h-.9v-8.8h.9v3.4c0-.4.3-.7.6-1s.7-.4,1.2-.4,1.2.2,1.6.7.6,1,.6,1.8v2c0,.8-.2,1.4-.6,1.8-.4.4-.9.6-1.6.6h0ZM139,136.9c.5,0,.9-.1,1.1-.4s.4-.7.4-1.2v-2c0-.6-.1-1-.4-1.2s-.6-.4-1.1-.4-.8.1-1.1.4c-.3.3-.4.7-.4,1.2v1.9c0,.5.1.9.4,1.2.3.3.6.4,1.1.4h0Z"/>
    <path class="st1" d="M146.1,137.7c-.8,0-1.4-.2-1.8-.7s-.7-1.1-.7-1.8v-4.2h.9v4.2c0,.5.1.9.4,1.2.3.3.6.4,1.1.4s.8-.1,1.1-.4.4-.7.4-1.2v-4.2h.9v4.2c0,.8-.2,1.4-.7,1.8-.4.4-1.1.7-1.8.7h0Z"/>
    <path class="st1" d="M153.1,137.7c-.7,0-1.3-.2-1.7-.5-.4-.3-.6-.8-.6-1.4h1c0,.3.1.6.4.8.2.2.6.3.9.3h.6c.4,0,.7,0,1-.3s.3-.4.3-.8,0-.6-.2-.7-.4-.3-.6-.3l-1.7-.2c-.5,0-.9-.3-1.1-.6-.3-.3-.4-.7-.4-1.2s.2-1,.6-1.3c.4-.3.9-.5,1.6-.5h.6c.6,0,1.1.2,1.5.5.4.3.6.7.6,1.2h-1c0-.2-.2-.5-.4-.6s-.5-.2-.9-.2h-.6c-.4,0-.7,0-.9.3-.2.2-.3.4-.3.7,0,.5.3.8.8.9l1.6.2c.5,0,1,.3,1.2.6.3.3.4.8.4,1.3s-.2,1.1-.6,1.4c-.4.3-.9.5-1.6.5h-.6,0Z"/>
    <path class="st1" d="M158.6,134v-.8h3.8v.8h-3.8Z"/>
    <path class="st1" d="M167.9,137.7c-.8,0-1.4-.2-1.9-.7-.5-.4-.7-1.1-.7-1.8v-1.9c0-.8.2-1.4.7-1.8.5-.4,1.1-.7,1.9-.7s1.4.2,1.8.6.7,1,.7,1.7h-1c0-.4-.2-.8-.4-1.1s-.7-.4-1.1-.4-.9.1-1.2.4c-.3.3-.4.7-.4,1.2v1.9c0,.5.1.9.4,1.2.3.3.7.4,1.2.4s.9-.1,1.1-.4.4-.6.4-1.1h1c0,.7-.2,1.3-.7,1.7s-1.1.6-1.8.6h0Z"/>
    <path class="st1" d="M175,137.7c-.8,0-1.4-.2-1.8-.7s-.7-1.1-.7-1.9v-1.7c0-.8.2-1.4.7-1.9.4-.5,1.1-.7,1.8-.7s1.4.2,1.8.7.7,1.1.7,1.9v1.7c0,.8-.2,1.4-.7,1.9s-1.1.7-1.8.7ZM175,136.8c.5,0,.9-.1,1.1-.4s.4-.7.4-1.2v-1.8c0-.5-.1-.9-.4-1.2s-.7-.4-1.1-.4-.9.1-1.1.4-.4.7-.4,1.2v1.8c0,.5.1.9.4,1.2s.7.4,1.1.4Z"/>
    <path class="st1" d="M179.7,137.6v-6.6h.9v1.2c0-.4.3-.8.6-1,.3-.2.7-.4,1.2-.4s1.2.2,1.6.6c.4.4.6,1,.6,1.7v4.4h-.9v-4.3c0-.5-.1-.9-.4-1.2-.3-.3-.6-.4-1.1-.4s-.8.1-1.1.4-.4.7-.4,1.2v4.2h-.9,0Z"/>
    <path class="st1" d="M190,137.6c-.5,0-1-.1-1.3-.4s-.5-.7-.5-1.2v-4.1h-1.9v-.9h1.9v-1.9h1v1.9h2.7v.9h-2.7v4.1c0,.3,0,.5.2.6s.3.2.6.2h1.9v.9h-1.9Z"/>
    <path class="st1" d="M196,137.7c-.7,0-1.2-.2-1.6-.6s-.6-.9-.6-1.5,0-.8.3-1.1c.2-.3.4-.5.8-.7.3-.2.7-.3,1.1-.3h2.1v-.6c0-.9-.5-1.4-1.5-1.4s-.8,0-1.1.3-.4.4-.4.7h-.9c0-.5.3-.9.7-1.3s1-.5,1.7-.5,1.4.2,1.8.6c.4.4.6.9.6,1.6v4.5h-.9v-1.2h0c0,.4-.3.8-.6,1s-.8.4-1.4.4h0ZM196.3,136.9c.5,0,1-.1,1.3-.4.3-.3.5-.6.5-1.1v-1h-2c-.4,0-.7.1-.9.3s-.4.5-.4.9.1.7.4.9c.3.2.6.4,1.1.4h0Z"/>
    <path class="st1" d="M201.2,137.6v-.9h2.4v-4.9h-2.1v-.9h3.1v5.7h2.2v.9h-5.5ZM203.9,129.8c-.2,0-.4,0-.6-.2s-.2-.3-.2-.5,0-.4.2-.6.4-.2.6-.2.4,0,.6.2.2.3.2.6,0,.4-.2.5-.4.2-.6.2Z"/>
    <path class="st1" d="M208.5,137.6v-6.6h.9v1.2c0-.4.3-.8.6-1,.3-.2.7-.4,1.2-.4s1.2.2,1.6.6c.4.4.6,1,.6,1.7v4.4h-.9v-4.3c0-.5-.1-.9-.4-1.2-.3-.3-.6-.4-1.1-.4s-.8.1-1.1.4-.4.7-.4,1.2v4.2h-.9,0Z"/>
    <path class="st1" d="M218.2,137.7c-.8,0-1.4-.2-1.8-.7s-.7-1.1-.7-1.9v-1.7c0-.8.2-1.4.7-1.9s1.1-.7,1.8-.7,1.4.2,1.8.7.7,1.1.7,1.8v1.2h-4.1v.7c0,.5.1.9.4,1.2s.7.4,1.2.4.8,0,1-.3.4-.4.5-.7h.9c0,.6-.3,1-.8,1.3-.4.3-1,.5-1.7.5h0ZM216.6,133.8h3.2v-.4c0-.5-.1-.9-.4-1.2s-.7-.4-1.2-.4-.9.1-1.2.4c-.3.3-.4.7-.4,1.2v.4h0Z"/>
    <path class="st1" d="M223.2,137.6v-6.6h1v1.2c0-.4.3-.7.6-1,.3-.2.7-.4,1.2-.4s1.2.2,1.6.6c.4.4.6,1,.6,1.8v.6h-.9v-.6c0-1-.5-1.5-1.5-1.5s-.9.1-1.1.4-.4.7-.4,1.2v4.2h-1Z"/>
  </g>
  <g>
    <path class="st12" d="M168.6,584.3c-9.5,0-17.1-7.6-17.1-16.9v-45.7c0-9.3,7.7-16.9,17.1-16.9h126.9c9.5,0,17.1,7.6,17.1,16.9v45.7c0,9.3-7.7,16.9-17.1,16.9h-126.9,0Z"/>
    <path class="st5" d="M295.5,506.6c8.4,0,15.2,6.7,15.2,15v45.7c0,8.3-6.8,15-15.2,15h-126.9c-8.4,0-15.2-6.7-15.2-15v-45.7c0-8.3,6.8-15,15.2-15h126.9M295.5,502.8h-126.9c-10.5,0-19.1,8.4-19.1,18.8v45.7c0,10.4,8.6,18.8,19.1,18.8h126.9c10.5,0,19.1-8.4,19.1-18.8v-45.7c0-10.4-8.5-18.8-19.1-18.8h0Z"/>
  </g>
  <g class="st9">
    <g>
      <rect class="st12" x="354.6" y="287.9" width="169.7" height="79.5" rx="17" ry="17"/>
      <path class="st5" d="M507.3,369.4h-135.7c-10.5,0-19-8.5-19-19v-45.5c0-10.5,8.5-19,19-19h135.7c10.5,0,19,8.5,19,19v45.5c0,10.5-8.5,19-19,19h0ZM371.6,289.9c-8.3,0-15,6.7-15,15v45.5c0,8.3,6.7,15,15,15h135.7c8.3,0,15-6.7,15-15v-45.5c0-8.3-6.7-15-15-15h-135.7,0Z"/>
    </g>
  </g>
  <path class="st5" d="M507.3,369.4h-135.7c-10.5,0-19-8.5-19-19v-45.5c0-10.5,8.5-19,19-19h135.7c10.5,0,19,8.5,19,19v45.5c0,10.5-8.5,19-19,19h0ZM371.6,289.9c-8.3,0-15,6.7-15,15v45.5c0,8.3,6.7,15,15,15h135.7c8.3,0,15-6.7,15-15v-45.5c0-8.3-6.7-15-15-15h-135.7,0Z"/>
  <g>
    <path class="st5" d="M507.9,368.4h-8v-2h7.9v2ZM492,368.4h-7.9v-2h7.9v2ZM476.1,368.4h-7.9v-2h7.9v2ZM460.2,368.4h-7.9v-2h7.9v2ZM444.4,368.4h-7.9v-2h7.9v2ZM428.5,368.4h-7.9v-2h7.9v2ZM412.7,368.4h-7.9v-2h7.9v2ZM396.6,368c-2.7-.6-5.3-1.8-7.5-3.6l1.3-1.5c1.9,1.6,4.2,2.7,6.7,3.2l-.4,2h0ZM516,366.5l-.9-1.8c2.2-1.1,4.1-2.8,5.6-4.8l1.6,1.2c-1.6,2.3-3.8,4.1-6.3,5.4h0ZM384.1,357.8c-1-2.3-1.5-4.7-1.5-7.2v-.9h2v.9c0,2.2.5,4.4,1.4,6.4l-1.8.8h0ZM525.5,353.3l-2-.3c.1-.8.2-1.6.2-2.4v-5.3h2v5.3c0,.9,0,1.8-.2,2.7h0ZM384.6,341.8h-2v-7.9h2v7.9ZM525.7,337.3h-2v-7.9h2v7.9ZM384.6,325.9h-2v-7.9h2v7.9ZM525.7,321.5h-2v-7.9h2v7.9ZM384.6,310h-2v-5.3c0-.9,0-1.9.2-2.8l2,.3c-.1.8-.2,1.6-.2,2.5v5.3h0ZM525.7,305.6h-2v-.9c0-2.2-.5-4.4-1.4-6.4l1.8-.8c1,2.3,1.5,4.7,1.5,7.3v.9h0ZM387.6,295.4l-1.6-1.2c1.6-2.3,3.8-4.1,6.3-5.4l.9,1.8c-2.2,1.1-4.1,2.8-5.6,4.8h0ZM517.8,292.4c-1.9-1.6-4.2-2.7-6.7-3.2l.4-2c2.7.6,5.3,1.8,7.5,3.6l-1.3,1.5h0ZM503.4,288.9h-7.9v-2h7.9v2ZM487.6,288.9h-7.9v-2h7.9v2ZM471.7,288.9h-7.9v-2h7.9v2ZM455.9,288.9h-7.9v-2h7.9v2ZM440,288.9h-7.9v-2h7.9v2ZM424.1,288.9h-7.9v-2h7.9v2ZM408.3,288.9h-7.9v-2s7.9,0,7.9,0v2h0Z"/>
    <g>
      <path class="st5" d="M441,323.5h19c.5,0,.9-.4.9-.9s-.4-.9-.9-.9h-4v-4.8l2,2c.3.3.9.3,1.2,0,.3-.3.3-.9,0-1.2h0l-3.4-3.4c-.3-.3-.9-.3-1.2,0l-3.4,3.5c-.3.3-.3.9,0,1.2s.9.3,1.2,0l2-2v4.9h-6.8v-9.1l2,2c.3.3.9.4,1.2,0s.4-.9,0-1.2c0,0,0,0,0,0l-3.4-3.4c-.3-.3-.9-.3-1.2,0l-3.5,3.5c-.3.3-.3.9,0,1.2s.9.3,1.2,0l2-2v9.1h-4.7c-.5,0-.9.4-.9.9s.4.9.9.9h0Z"/>
      <path class="st5" d="M460,324.7h-19c-.5,0-.9.4-.9.9s.4.9.9.9h19c.5,0,.9-.4.9-.9s-.4-.9-.9-.9Z"/>
      <path class="st3" d="M450.5,304.3c8.2,0,14.9,6.7,14.9,14.9s-6.7,14.9-14.9,14.9-14.9-6.7-14.9-14.9h0c0-8.2,6.7-14.9,14.9-14.9M450.5,300.1c-10.6,0-19.1,8.6-19.1,19.1s8.6,19.1,19.1,19.1,19.1-8.6,19.1-19.1h0c0-10.6-8.6-19.1-19.1-19.1h0Z"/>
      <rect class="st3" x="472.7" y="308" width="4.1" height="30.3"/>
      <rect class="st3" x="472.7" y="300.1" width="4.1" height="3.9"/>
    </g>
    <g>
      <path class="st4" d="M439.9,355.2c-.7,0-1.4-.2-1.9-.5s-1-.8-1.4-1.4-.5-1.3-.5-2.2.2-1.6.5-2.2.8-1.1,1.4-1.4,1.2-.5,1.9-.5,1.4.2,1.9.5,1,.8,1.4,1.4.5,1.4.5,2.2-.2,1.6-.5,2.2-.8,1.1-1.4,1.4-1.2.5-1.9.5ZM439.9,353.7c.6,0,1.1-.2,1.5-.7s.6-1.1.6-2-.2-1.5-.6-2-.9-.7-1.5-.7-1.1.2-1.5.7c-.4.5-.6,1.1-.6,2s.2,1.5.6,2c.4.5.9.7,1.5.7h0Z"/>
      <path class="st4" d="M446.6,347.1v8h-1.7v-8h1.7Z"/>
      <path class="st4" d="M448,355.1v-8h3.2c.9,0,1.5.2,2,.6.5.4.7.9.7,1.5s-.1.9-.4,1.1-.6.5-1,.6h0c.3,0,.6.2.9.3s.5.4.7.7.2.6.2,1-.1.8-.3,1.1-.5.6-.9.8-.9.3-1.5.3h-3.4ZM449.7,350.5h1.3c.4,0,.6,0,.9-.3.2-.2.4-.4.4-.8s-.1-.5-.3-.7-.5-.3-.9-.3h-1.3v2h0ZM449.7,353.7h1.4c.5,0,.8,0,1.1-.3.2-.2.3-.4.3-.7s-.1-.6-.4-.8-.6-.3-1-.3h-1.5v2.2h0Z"/>
      <path class="st4" d="M457.4,355.2c-.6,0-1.1-.2-1.5-.6s-.6-1-.6-1.6v-3.8h1.6v3.5c0,.4.1.7.3.9.2.2.5.3.8.3s.6-.1.9-.3.3-.5.3-.9v-3.5h1.6v6h-1.5v-1.2c-.2.4-.4.8-.7,1-.3.2-.7.3-1.2.3h0Z"/>
      <path class="st4" d="M464.7,355.2c-.7,0-1.3-.1-1.8-.5s-.8-.7-.9-1.3l1.5-.3c.2.6.6.8,1.2.8s.6,0,.7-.2c.2-.1.3-.3.3-.4,0-.3-.3-.5-.8-.6l-1-.2c-1.2-.2-1.8-.8-1.8-1.7s.2-1,.7-1.4c.5-.3,1.1-.5,1.9-.5s1.3.1,1.7.4c.4.3.7.7.8,1.2l-1.4.2c0-.2-.2-.4-.4-.5-.2-.1-.4-.2-.7-.2s-.5,0-.7.2c-.2.1-.3.3-.3.4s0,.3.2.4c.1.1.3.2.6.2l1.1.2c1.2.2,1.7.8,1.7,1.6s-.1.7-.4,1-.5.5-1,.7c-.4.2-.9.2-1.4.2h0Z"/>
      <path class="st4" d="M471.9,347.1v8h-1.7v-6.5h0l-1.9,1.3v-1.5l1.8-1.2h1.8,0Z"/>
    </g>
  </g>
  <g>
    <path class="st4" d="M216.7,571.8c-.7,0-1.4-.2-1.9-.5-.6-.3-1-.8-1.4-1.4-.3-.6-.5-1.3-.5-2.2s.2-1.6.5-2.2c.3-.6.8-1.1,1.4-1.4s1.2-.5,1.9-.5,1.4.2,1.9.5c.6.3,1,.8,1.4,1.4.3.6.5,1.3.5,2.2s-.2,1.6-.5,2.2-.8,1.1-1.4,1.4-1.2.5-1.9.5ZM216.7,570.4c.6,0,1.1-.2,1.5-.7.4-.5.6-1.1.6-2s-.2-1.5-.6-2c-.4-.5-.9-.7-1.5-.7s-1.1.2-1.5.7c-.4.5-.6,1.1-.6,2s.2,1.5.6,2c.4.5.9.7,1.5.7h0Z"/>
    <path class="st4" d="M223.4,563.7v8h-1.7v-8h1.7Z"/>
    <path class="st4" d="M224.9,571.7v-8h3.2c.9,0,1.6.2,2,.6.4.4.7.9.7,1.5s-.1.8-.4,1.1c-.3.3-.6.5-1,.6h0c.3,0,.6.2.9.3.3.2.5.4.7.7s.2.6.2,1-.1.8-.3,1.1c-.2.3-.5.6-.9.8-.4.2-.9.3-1.5.3h-3.4ZM226.5,567.1h1.3c.4,0,.6,0,.9-.3.2-.2.4-.4.4-.8s-.1-.5-.3-.7-.5-.3-.9-.3h-1.3v2h0ZM226.5,570.4h1.4c.5,0,.8,0,1.1-.3.2-.2.3-.4.3-.7s-.1-.6-.4-.8-.6-.3-1-.3h-1.5v2.2h0Z"/>
    <path class="st4" d="M234.2,571.8c-.6,0-1.1-.2-1.5-.6s-.6-1-.6-1.7v-3.8h1.6v3.5c0,.4.1.7.3.9.2.2.5.3.8.3s.6-.1.9-.3.3-.5.3-.9v-3.5h1.6v6h-1.5v-1.2c-.2.4-.4.8-.7,1-.3.2-.7.3-1.2.3h0Z"/>
    <path class="st4" d="M241.5,571.8c-.7,0-1.3-.2-1.8-.5s-.8-.7-.9-1.3l1.5-.3c.2.5.6.8,1.2.8s.6,0,.7-.2c.2-.1.3-.3.3-.4,0-.3-.3-.5-.8-.6l-1.1-.2c-1.2-.2-1.8-.8-1.8-1.7s.2-1,.7-1.4,1.1-.5,1.9-.5,1.3.1,1.7.4c.4.3.7.7.8,1.2l-1.4.2c0-.2-.2-.4-.4-.5-.2-.1-.4-.2-.7-.2s-.5,0-.7.2c-.2.1-.3.3-.3.4s0,.3.2.4c.1.1.3.2.6.2l1.1.2c1.2.2,1.7.8,1.7,1.6s-.1.7-.4,1c-.2.3-.6.5-1,.7-.4.2-.9.2-1.4.2h0Z"/>
    <path class="st4" d="M245.3,571.7v-1.2l2.9-2.6c.4-.3.6-.7.8-.9s.3-.5.3-.9-.1-.6-.4-.8c-.2-.2-.5-.3-.9-.3s-.7.1-.9.3c-.2.2-.3.5-.3.9h-1.6c0-.5.1-1,.4-1.3.2-.4.6-.7,1-.9s.9-.3,1.5-.3,1.1,0,1.5.3.8.5,1,.8c.2.3.4.8.4,1.2s0,.6-.2.9-.3.6-.6,1-.7.8-1.3,1.3l-1.2,1.2h0c0,0,3.4,0,3.4,0v1.3h-5.7Z"/>
  </g>
  <g>
    <path class="st5" d="M372.5,341h-7.3v-2.8c0-.5.1-1,.3-1.4.2-.4.5-.7.9-.9.4-.2.8-.3,1.3-.3s.9.1,1.3.3c.4.2.6.5.9.9.2.4.3.9.3,1.4v1.3h2.4v1.5h0ZM369,339.5v-1.1c0-.5-.1-.8-.4-1s-.5-.3-.9-.3-.7.1-.9.3c-.2.2-.3.6-.3,1v1.1h2.5Z"/>
    <path class="st5" d="M372.5,334.5h-5.5v-1.4h1c-.3-.2-.6-.3-.8-.6-.2-.2-.3-.5-.3-.8s0-.3,0-.5h1.3c0,0,0,.2,0,.3,0,.1,0,.2,0,.4,0,.3.1.6.3.8s.5.3.8.3h3.1v1.5h0Z"/>
    <path class="st5" d="M372.6,328.3c0,.5-.1,1-.4,1.4-.2.4-.6.7-1,.9-.4.2-.9.3-1.5.3s-1.1-.1-1.5-.3-.8-.5-1-.9-.4-.9-.4-1.4.1-1,.4-1.4c.2-.4.6-.7,1-.9s.9-.3,1.5-.3,1,.1,1.5.3.8.5,1,.9c.2.4.4.9.4,1.4ZM371.5,328.3c0-.4-.2-.7-.5-.9-.3-.2-.7-.3-1.2-.3s-.9.1-1.2.3c-.3.2-.5.5-.5.9s.2.7.5.9.7.3,1.2.3.9-.1,1.2-.3.5-.5.5-.9Z"/>
    <path class="st5" d="M372.5,325.2l-2.8-1.8-2.7,1.6v-1.6l.9-.5c.2-.1.4-.2.5-.3.2,0,.4-.2.5-.2-.2,0-.4-.2-.5-.2s-.4-.2-.5-.3l-.9-.5v-1.5l2.7,1.7,2.8-1.8v1.6l-1,.6c-.2.1-.4.2-.5.3s-.4.2-.5.2c.2,0,.3.2.5.2s.4.2.5.3l1,.6v1.5h0Z"/>
    <path class="st5" d="M374.5,319l-1.1-.3v-.2c.1-.3.1-.5,0-.7,0-.2-.3-.3-.5-.3h-.3s-5.5,2-5.5,2v-1.6l2.8-.9c.2,0,.5-.1.7-.2s.5-.1.7-.2c-.2,0-.5-.1-.7-.2s-.5-.1-.7-.2l-2.8-1v-1.5l6.1,2.3c.4.2.8.4,1,.7.3.3.4.7.4,1.3s0,.4,0,.5c0,.2,0,.3-.1.4h0Z"/>
  </g>
  <g>
    <rect class="st12" x="509.5" y="42" width="79.5" height="79.5" rx="16.9" ry="16.9"/>
    <path class="st5" d="M572.1,43.9c8.3,0,15,6.7,15,15v45.7c0,8.3-6.7,15-15,15h-45.7c-8.3,0-15-6.7-15-15v-45.7c0-8.3,6.7-15,15-15h45.7M572.1,40.1h-45.7c-10.4,0-18.8,8.4-18.8,18.8v45.7c0,10.4,8.4,18.8,18.8,18.8h45.7c10.4,0,18.8-8.4,18.8-18.8v-45.7c0-10.4-8.4-18.8-18.8-18.8h0Z"/>
  </g>
  <path class="st11" d="M545.7,59.5c8.1,0,14.8,6.6,14.8,14.8s-6.6,14.8-14.8,14.8-14.8-6.6-14.8-14.8,6.6-14.8,14.8-14.8M545.7,55.3c-10.5,0-19,8.5-19,19s8.5,19,19,19,19-8.5,19-19-8.5-19-19-19h0Z"/>
  <rect class="st11" x="567.8" y="63.1" width="4.1" height="30"/>
  <rect class="st11" x="567.8" y="55.2" width="4.1" height="3.8"/>
  <g>
    <path class="st5" d="M554.6,69.2c-.4,0-.8.3-.8.8v10.2c0,.4.3.8.8.8s.8-.3.8-.8v-10.2c0-.4-.3-.8-.8-.8Z"/>
    <path class="st5" d="M539,70.6c-.4,0-.8.3-.8.8v8.8c0,.4.3.8.8.8s.8-.3.8-.8v-8.8c0-.4-.3-.8-.8-.8Z"/>
    <path class="st5" d="M551.5,67.6c-.4,0-.8.3-.8.8v11.8c0,.4.3.8.8.8s.8-.3.8-.8v-11.8c0-.4-.3-.8-.8-.8Z"/>
    <path class="st5" d="M545.2,72.2c-.4,0-.8.3-.8.8v7.2c0,.4.3.8.8.8s.8-.3.8-.8v-7.2c0-.4-.3-.8-.8-.8Z"/>
    <path class="st5" d="M548.3,70.6c-.4,0-.8.3-.8.8v8.8c0,.4.3.8.8.8s.8-.3.8-.8v-8.8c0-.4-.3-.8-.8-.8Z"/>
    <path class="st5" d="M542.1,72.2c-.4,0-.8.3-.8.8v10.3c0,.4.3.8.8.8s.8-.3.8-.8v-10.3c0-.4-.3-.8-.8-.8Z"/>
    <path class="st5" d="M535.8,73.7c-.4,0-.8.3-.8.8v5.7c0,.4.3.8.8.8s.8-.3.8-.8v-5.7c0-.4-.3-.8-.8-.8Z"/>
  </g>
  <path class="st11" d="M525.5,110c-.7,0-1.3-.2-1.8-.4s-1-.7-1.3-1.3c-.3-.6-.5-1.3-.5-2.1s.2-1.5.5-2.1.7-1,1.3-1.3,1.1-.4,1.8-.4,1.3.2,1.8.4,1,.7,1.3,1.3c.3.6.5,1.3.5,2.1s-.2,1.5-.5,2.1c-.3.6-.7,1-1.3,1.3-.5.3-1.1.4-1.8.4ZM525.5,108.6c.4,0,.7,0,1-.3.3-.2.5-.5.7-.8.2-.4.2-.8.2-1.3s0-1-.2-1.3c-.2-.4-.4-.6-.7-.8s-.6-.3-1-.3-.7,0-1,.3c-.3.2-.5.5-.7.8-.2.4-.2.8-.2,1.3s0,1,.2,1.3c.2.4.4.6.7.8s.6.3,1,.3Z"/>
  <path class="st11" d="M531.4,102.4v7.6h-1.6v-7.6h1.6Z"/>
  <path class="st11" d="M533.7,109.9h-1.7l2.6-7.6h2.1l2.6,7.6h-1.7l-1.9-5.8h0l-1.9,5.8h0ZM533.6,107h4v1.2h-4v-1.2Z"/>
  <path class="st11" d="M541.4,106.7v3.3h-1.6v-5.7h1.5v1h0c.1-.3.3-.6.6-.8.3-.2.6-.3,1-.3s.7,0,1,.3.5.4.7.7.2.7.2,1.1v3.6h-1.6v-3.3c0-.3,0-.6-.3-.8-.2-.2-.4-.3-.7-.3s-.4,0-.6.1c-.2,0-.3.2-.4.4s-.1.4-.1.6h0Z"/>
  <path class="st11" d="M547.5,110c-.3,0-.7,0-1-.2-.3-.1-.5-.3-.7-.6s-.2-.6-.2-.9,0-.6.2-.8.3-.4.5-.5c.2-.1.4-.2.7-.3.2,0,.5-.1.8-.1.3,0,.6,0,.8,0s.3,0,.4-.1c0,0,.1-.2.1-.3h0c0-.3,0-.4-.2-.6-.2-.1-.3-.2-.6-.2s-.5,0-.7.2c-.2.1-.3.3-.3.5h-1.5c0-.4.2-.8.4-1,.2-.2.5-.4.8-.6s.7-.2,1.2-.2.6,0,.9.1c.3,0,.5.2.8.3s.4.3.5.6.2.5.2.9v3.8h-1.5v-.8h0c0,.2-.2.3-.4.5-.2.1-.3.2-.5.3s-.5.1-.7.1h0ZM548,108.9c.2,0,.4,0,.6-.1s.3-.2.4-.4c0-.2.2-.3.2-.5v-.6s-.1,0-.2,0-.2,0-.3,0c0,0-.2,0-.3,0s-.2,0-.3,0c-.2,0-.3,0-.5.1-.1,0-.2.1-.3.2s-.1.2-.1.4c0,.2,0,.4.2.5s.3.2.6.2h0Z"/>
  <path class="st11" d="M553.2,102.4v7.6h-1.6v-7.6h1.6Z"/>
  <path class="st11" d="M555.1,112.1c-.2,0-.4,0-.6,0-.2,0-.3,0-.4-.1l.3-1.2h0c.3,0,.5,0,.7,0s.3-.2.4-.4v-.2c0,0-1.9-5.8-1.9-5.8h1.7l1.2,4.2h0l1.2-4.2h1.7l-2.2,6.3c0,.3-.2.6-.4.8s-.4.4-.7.5-.6.2-1,.2h0,0Z"/>
  <path class="st11" d="M562.9,104.3v1.2h-3.4v-1.2h3.4ZM560.2,102.9h1.6v5.3c0,.2,0,.3.1.4s.2.1.4.1.1,0,.2,0c0,0,.1,0,.2,0l.2,1.2c-.2,0-.3,0-.5.1s-.3,0-.5,0c-.6,0-1-.1-1.3-.4-.3-.3-.5-.7-.5-1.2v-5.5h0,0Z"/>
  <path class="st11" d="M564.3,103.5c-.2,0-.4,0-.6-.2s-.2-.3-.2-.6,0-.4.2-.6.4-.2.6-.2.4,0,.6.2.2.3.2.6,0,.4-.2.6c-.2.2-.4.2-.6.2ZM563.6,109.9v-5.7h1.6v5.7h-1.6Z"/>
  <path class="st11" d="M568.6,110c-.6,0-1.1-.1-1.5-.4-.4-.2-.7-.6-1-1-.2-.4-.3-.9-.3-1.5s.1-1.1.3-1.5c.2-.4.5-.8,1-1s.9-.4,1.5-.4.9,0,1.3.3.7.4.9.8.3.7.3,1.2h-1.5c0-.2,0-.3-.2-.5s-.2-.2-.3-.3-.3-.1-.5-.1-.5,0-.6.2c-.2.1-.3.3-.4.6s-.2.6-.2.9,0,.7.2.9c0,.2.2.4.4.6s.4.2.6.2.5,0,.7-.2.3-.4.3-.7h1.5c0,.4-.1.8-.3,1.2-.2.3-.5.6-.9.8-.4.2-.8.3-1.3.3h0s0,0,0,0Z"/>
  <path class="st11" d="M576.5,105.9h-1.4c0,0-.1-.2-.3-.4-.2-.1-.4-.2-.7-.2s-.4,0-.6.2-.2.2-.2.4,0,.2.2.3c0,0,.3.2.6.2l1,.2c.6.1,1,.3,1.2.5.3.2.4.6.4,1s-.1.7-.3,1-.5.5-.9.7c-.4.2-.8.2-1.3.2-.7,0-1.3-.2-1.8-.5s-.7-.7-.8-1.3h1.5c0,.2.2.3.3.4s.4.2.7.2.5,0,.7-.2.2-.2.2-.4c0-.3-.2-.5-.7-.6l-1-.2c-.6-.1-1-.3-1.2-.6-.3-.3-.4-.6-.4-1s0-.7.3-.9.5-.5.8-.6c.4-.1.8-.2,1.3-.2.7,0,1.3.2,1.7.4s.6.7.7,1.2h0Z"/>
  <g>
    <path class="st7" d="M248.4,496c-.7,0-1.3-.1-1.8-.5s-1-.7-1.3-1.3c-.3-.6-.5-1.3-.5-2.1s.1-1.5.5-2.1.7-1,1.3-1.3,1.1-.5,1.8-.5,1.3.1,1.8.5,1,.7,1.3,1.3c.3.6.5,1.3.5,2.1s-.1,1.5-.5,2.1c-.3.6-.7,1-1.3,1.3-.5.3-1.1.5-1.8.5ZM248.4,494.6c.4,0,.7,0,1-.3.3-.2.5-.5.7-.8.1-.4.2-.8.2-1.4s0-1-.2-1.4c-.1-.4-.4-.6-.7-.8-.3-.2-.6-.3-1-.3s-.7.1-1,.3c-.3.2-.5.5-.7.8-.2.4-.2.8-.2,1.4s0,1,.2,1.4.4.6.7.8.6.3,1,.3Z"/>
    <path class="st7" d="M254.3,488.3v7.5h-1.6v-7.5h1.6Z"/>
    <path class="st7" d="M256.6,495.9h-1.7l2.6-7.5h2.1l2.6,7.5h-1.7l-1.9-5.8h0l-1.9,5.8h0ZM256.5,492.9h4v1.2h-4v-1.2Z"/>
    <path class="st7" d="M264.2,492.6v3.3h-1.6v-5.7h1.5v1h0c.1-.3.3-.6.6-.8.3-.2.6-.3,1-.3s.7,0,1,.3.5.4.7.7.2.7.2,1.1v3.6h-1.6v-3.3c0-.3,0-.6-.3-.8-.2-.2-.4-.3-.7-.3s-.4,0-.6.1c-.2,0-.3.2-.4.4s-.1.4-.1.6h0Z"/>
    <path class="st7" d="M270.4,496c-.4,0-.7,0-1-.2-.3-.1-.5-.3-.7-.6s-.2-.6-.2-.9,0-.6.2-.8.3-.4.5-.5c.2-.1.4-.2.7-.3.2,0,.5-.1.8-.1.3,0,.6,0,.8,0s.3,0,.4-.1c0,0,.1-.1.1-.3h0c0-.3,0-.5-.2-.6-.1-.1-.4-.2-.6-.2s-.5,0-.7.2c-.2.1-.3.3-.3.5h-1.5c0-.4.2-.8.4-1,.2-.2.5-.4.8-.6.3-.1.7-.2,1.2-.2s.6,0,.9.1c.3,0,.5.2.8.3s.4.4.5.6.2.5.2.9v3.8h-1.5v-.8h0c0,.2-.2.3-.4.5-.1.1-.3.2-.5.3s-.5.1-.7.1h0ZM270.9,494.9c.2,0,.4,0,.6-.1s.3-.2.4-.4c.1-.1.1-.3.1-.5v-.6s-.1,0-.2,0-.2,0-.3,0c-.1,0-.2,0-.3,0s-.2,0-.3,0c-.2,0-.4,0-.5.1-.1,0-.2.1-.3.2,0,.1-.1.2-.1.4,0,.2,0,.4.2.5s.4.2.6.2h0Z"/>
    <path class="st7" d="M276.1,488.3v7.5h-1.6v-7.5h1.6Z"/>
    <path class="st7" d="M278,498c-.2,0-.4,0-.6,0-.2,0-.3,0-.4-.1l.4-1.2h0c.3,0,.5.1.7,0s.3-.2.4-.5v-.2c0,0-1.9-5.8-1.9-5.8h1.6l1.2,4.2h0l1.2-4.2h1.6l-2.2,6.3c-.1.3-.2.6-.4.8s-.4.4-.7.5-.6.2-1,.2h0,0Z"/>
    <path class="st7" d="M285.8,490.2v1.2h-3.4v-1.2h3.4ZM283.1,488.9h1.6v5.3c0,.2,0,.3.1.4s.2.1.4.1.1,0,.2,0c0,0,.1,0,.2,0l.2,1.2c-.2,0-.3,0-.5.1s-.3,0-.5,0c-.6,0-1-.1-1.3-.4-.3-.3-.5-.7-.5-1.2v-5.5h0,0Z"/>
    <path class="st7" d="M287.2,489.5c-.2,0-.4,0-.6-.2s-.2-.3-.2-.6,0-.4.2-.6.4-.2.6-.2.4,0,.6.2.2.3.2.6,0,.4-.2.6c-.2.1-.4.2-.6.2ZM286.5,495.9v-5.7h1.6v5.7h-1.6Z"/>
    <path class="st7" d="M291.5,496c-.6,0-1.1-.1-1.5-.4-.4-.2-.7-.6-1-1-.2-.4-.3-1-.3-1.5s.1-1.1.3-1.5.5-.8,1-1,.9-.4,1.5-.4.9,0,1.3.3.7.4.9.8c.2.3.3.7.4,1.1h-1.5c0-.2,0-.4-.2-.5s-.2-.2-.4-.3-.3-.1-.5-.1-.5,0-.6.2-.3.3-.4.6-.1.6-.1.9,0,.7.1.9.2.5.4.6c.2.1.4.2.6.2s.5,0,.7-.2.3-.4.3-.7h1.5c0,.4-.1.8-.4,1.1-.2.3-.5.6-.9.8s-.8.3-1.3.3h0s0,0,0,0Z"/>
    <path class="st7" d="M299.4,491.8h-1.4c0,0-.1-.2-.3-.4-.2-.1-.4-.2-.7-.2s-.4,0-.6.1-.2.2-.2.4,0,.2.2.3c.1.1.3.2.6.2l1,.2c.6.1,1,.3,1.2.5.3.2.4.6.4,1s-.1.7-.3,1-.5.5-.9.7c-.4.1-.8.2-1.3.2-.7,0-1.4-.1-1.8-.5s-.7-.7-.8-1.3h1.5c0,.2.2.3.3.4s.4.2.7.2.5,0,.7-.2.2-.2.2-.4c0-.3-.2-.5-.7-.6l-1-.2c-.6-.1-1-.3-1.2-.6-.3-.3-.4-.6-.4-1s.1-.7.3-1,.5-.5.8-.6c.4-.1.8-.2,1.3-.2.7,0,1.3.1,1.7.5s.6.7.7,1.2h0Z"/>
  </g>
  <g>
    <path class="st1" d="M507.3,27v-10.2h1.1v3.9h0c0-.5.3-.9.7-1.1.4-.3.8-.4,1.4-.4s1.4.2,1.8.7.7,1.1.7,2v5.2h-1.1v-5c0-.6-.1-1.1-.5-1.4s-.7-.5-1.3-.5-1,.2-1.3.5c-.3.3-.5.8-.5,1.4v4.9h-1.1,0Z"/>
    <path class="st1" d="M519.3,27c-.6,0-1.1-.2-1.5-.5-.4-.4-.5-.8-.5-1.4v-4.7h-2.2v-1h2.2v-2.2h1.1v2.2h3.2v1h-3.2v4.7c0,.3,0,.5.2.7s.4.2.7.2h2.2v1h-2.2Z"/>
    <path class="st1" d="M527.7,27c-.6,0-1.1-.2-1.5-.5-.4-.4-.5-.8-.5-1.4v-4.7h-2.2v-1h2.2v-2.2h1.1v2.2h3.2v1h-3.2v4.7c0,.3,0,.5.2.7.2.2.4.2.7.2h2.2v1h-2.2Z"/>
    <path class="st1" d="M532.5,29.5v-10.2h1.1v1.4c0-.5.3-.9.7-1.1.4-.3.8-.4,1.4-.4s1.4.2,1.8.8.7,1.2.7,2.1v2.3c0,.9-.2,1.6-.7,2.1-.5.5-1.1.8-1.8.8s-1-.1-1.4-.4c-.4-.3-.6-.7-.7-1.1h0v3.9s-1.1,0-1.1,0h0ZM535.4,26.2c.6,0,1-.1,1.3-.5.3-.3.5-.8.5-1.4v-2.3c0-.6-.2-1.1-.5-1.4s-.8-.5-1.3-.5-1,.2-1.3.5-.5.8-.5,1.4v2.2c0,.6.2,1.1.5,1.4s.8.5,1.3.5h0Z"/>
    <path class="st1" d="M543.4,27.1c-.8,0-1.5-.2-1.9-.6-.5-.4-.7-.9-.7-1.6h1.1c0,.4.2.7.4.9s.6.3,1.1.3h.7c.5,0,.9-.1,1.1-.3s.4-.5.4-.9,0-.6-.3-.9c-.2-.2-.4-.4-.8-.4l-2-.3c-.6,0-1-.3-1.3-.6s-.5-.8-.5-1.4.2-1.2.7-1.6,1.1-.6,1.9-.6h.7c.7,0,1.3.2,1.8.5.5.4.7.8.8,1.4h-1.1c0-.3-.2-.5-.4-.7s-.6-.3-1-.3h-.7c-.5,0-.8.1-1.1.3s-.4.5-.4.9c0,.6.3.9.9,1l1.9.3c.6,0,1.1.3,1.5.7s.5.9.5,1.5-.2,1.3-.7,1.7-1.1.6-1.9.6h-.7Z"/>
    <path class="st1" d="M552.1,21.2c-.4,0-.6,0-.8-.3s-.3-.4-.3-.8,0-.5.3-.7.5-.3.8-.3.6,0,.8.3.3.4.3.7,0,.6-.3.8-.5.3-.8.3ZM552.1,27.1c-.4,0-.6,0-.8-.3s-.3-.4-.3-.7,0-.6.3-.8.5-.3.8-.3.6,0,.8.3.3.4.3.8,0,.6-.3.7-.5.3-.8.3Z"/>
    <path class="st1" d="M558.5,28.5l5-13.2h1.2l-5,13.2h-1.2ZM564.8,28.5l5-13.2h1.2l-5,13.2h-1.2Z"/>
    <path class="st1" d="M574.4,27v-1h2.7v-5.7h-2.5v-1h3.6v6.7h2.6v1h-6.5,0ZM577.5,17.9c-.3,0-.5,0-.7-.2s-.3-.4-.3-.6,0-.5.3-.6c.2-.2.4-.2.7-.2s.5,0,.7.2.3.4.3.6,0,.5-.3.6c-.2.1-.4.2-.7.2Z"/>
    <path class="st1" d="M582.9,27v-7.7h1.1v1.4c0-.5.3-.9.7-1.1s.8-.4,1.4-.4,1.4.2,1.8.7c.5.5.7,1.1.7,2v5.2h-1.1v-5c0-.6-.2-1.1-.5-1.4s-.7-.5-1.3-.5-1,.2-1.3.5c-.3.3-.5.8-.5,1.4v4.9h-1.1Z"/>
    <path class="st1" d="M593.8,27.1c-.8,0-1.5-.2-1.9-.6-.5-.4-.7-.9-.7-1.6h1.1c0,.4.2.7.4.9s.6.3,1.1.3h.7c.5,0,.9-.1,1.1-.3s.4-.5.4-.9,0-.6-.3-.9c-.2-.2-.4-.4-.8-.4l-2-.3c-.6,0-1-.3-1.3-.6s-.5-.8-.5-1.4.2-1.2.7-1.6,1.1-.6,1.9-.6h.7c.7,0,1.3.2,1.8.5.5.4.7.8.8,1.4h-1.1c0-.3-.2-.5-.4-.7-.3-.2-.6-.3-1-.3h-.7c-.5,0-.8.1-1.1.3s-.4.5-.4.9c0,.6.3.9.9,1l1.9.3c.6,0,1.1.3,1.5.7s.5.9.5,1.5-.2,1.3-.7,1.7-1.1.6-1.9.6h-.7Z"/>
    <path class="st1" d="M603.3,27c-.6,0-1.1-.2-1.5-.5-.4-.4-.5-.8-.5-1.4v-4.7h-2.2v-1h2.2v-2.2h1.1v2.2h3.2v1h-3.2v4.7c0,.3,0,.5.2.7s.4.2.7.2h2.2v1h-2.2Z"/>
    <path class="st1" d="M610.3,27.1c-.8,0-1.4-.2-1.9-.7-.5-.4-.7-1-.7-1.7s.1-.9.3-1.2c.2-.4.5-.6.9-.8.4-.2.8-.3,1.3-.3h2.5v-.6c0-1.1-.6-1.6-1.7-1.6s-.9.1-1.2.3-.5.5-.5.8h-1.1c0-.6.3-1.1.8-1.5.5-.4,1.2-.6,2-.6s1.6.2,2.1.7c.5.5.7,1.1.7,1.9v5.3h-1.1v-1.4h0c0,.5-.3.9-.7,1.2-.4.3-1,.4-1.6.4h0ZM610.6,26.2c.6,0,1.1-.2,1.5-.5s.6-.7.6-1.3v-1.2h-2.3c-.4,0-.8.1-1,.4-.3.3-.4.6-.4,1s.2.8.5,1.1.7.4,1.3.4h0Z"/>
    <path class="st1" d="M616.5,27v-7.7h1.1v1.4c0-.5.3-.9.7-1.1s.8-.4,1.4-.4,1.4.2,1.8.7c.5.5.7,1.1.7,2v5.2h-1.1v-5c0-.6-.2-1.1-.5-1.4s-.7-.5-1.3-.5-1,.2-1.3.5c-.3.3-.5.8-.5,1.4v4.9h-1.1Z"/>
    <path class="st1" d="M627.8,27.1c-.9,0-1.6-.3-2.2-.8s-.8-1.2-.8-2.1v-2.2c0-.9.3-1.6.8-2.1.5-.5,1.3-.8,2.2-.8s1.6.2,2.1.7.8,1.1.8,2h-1.1c0-.5-.2-.9-.5-1.2s-.8-.4-1.3-.4-1,.2-1.4.5c-.3.3-.5.8-.5,1.4v2.2c0,.6.2,1.1.5,1.4s.8.5,1.4.5,1-.1,1.3-.4.5-.7.5-1.2h1.1c0,.8-.3,1.5-.8,2-.5.5-1.2.7-2.1.7h0Z"/>
    <path class="st1" d="M636.1,27.1c-.9,0-1.6-.3-2.1-.8-.5-.5-.8-1.3-.8-2.2v-2c0-.9.3-1.7.8-2.2.5-.5,1.2-.8,2.1-.8s1.6.3,2.1.8.8,1.2.8,2.1v1.4h-4.8v.8c0,.6.2,1.1.5,1.4.3.4.8.5,1.4.5s.9-.1,1.2-.3c.3-.2.5-.5.6-.8h1.1c0,.6-.4,1.1-.9,1.5-.5.4-1.2.6-2,.6h0ZM634.3,22.5h3.7v-.5c0-.6-.2-1.1-.5-1.5-.3-.3-.8-.5-1.4-.5s-1,.2-1.4.5c-.3.4-.5.8-.5,1.5v.5Z"/>
    <path class="st1" d="M644.5,27.1c-.3,0-.6-.1-.8-.3-.2-.2-.3-.5-.3-.8s0-.6.3-.8.5-.3.8-.3.6.1.8.3.3.5.3.8,0,.6-.3.8-.5.3-.8.3Z"/>
    <path class="st1" d="M652.9,27.1c-.9,0-1.6-.3-2.1-.8s-.8-1.3-.8-2.2v-1.9c0-.9.3-1.7.8-2.2.5-.5,1.2-.8,2.2-.8s1.6.3,2.2.8c.5.5.8,1.3.8,2.2v1.9c0,.9-.3,1.7-.8,2.2-.5.5-1.2.8-2.1.8ZM652.9,26.1c.6,0,1-.2,1.3-.5.3-.3.5-.8.5-1.4v-2.1c0-.6-.2-1.1-.5-1.4s-.8-.5-1.3-.5-1,.2-1.3.5c-.3.3-.5.8-.5,1.4v2.1c0,.6.2,1.1.5,1.4s.8.5,1.3.5Z"/>
    <path class="st1" d="M658.4,27v-1h2.7v-5.7h-2.5v-1h3.6v6.7h2.6v1h-6.5,0ZM661.5,17.9c-.3,0-.5,0-.7-.2s-.3-.4-.3-.6,0-.5.3-.6c.2-.2.4-.2.7-.2s.5,0,.7.2.3.4.3.6,0,.5-.3.6c-.2.1-.4.2-.7.2Z"/>
    <path class="st1" d="M669.1,27.1c-.8,0-1.4-.2-1.9-.7-.5-.4-.7-1-.7-1.7s.1-.9.3-1.2c.2-.4.5-.6.9-.8.4-.2.8-.3,1.3-.3h2.5v-.6c0-1.1-.6-1.6-1.7-1.6s-.9.1-1.2.3-.5.5-.5.8h-1.1c0-.6.3-1.1.8-1.5.5-.4,1.2-.6,2-.6s1.6.2,2.1.7.7,1.1.7,1.9v5.3h-1.1v-1.4h0c0,.5-.3.9-.7,1.2-.4.3-1,.4-1.6.4h0ZM669.4,26.2c.6,0,1.1-.2,1.5-.5s.6-.7.6-1.3v-1.2h-2.3c-.4,0-.8.1-1,.4-.3.3-.4.6-.4,1s.2.8.5,1.1.7.4,1.3.4h0Z"/>
    <path class="st1" d="M675.3,27v-7.7h1.1v1.4c0-.5.3-.9.7-1.1s.8-.4,1.4-.4,1.4.2,1.8.7c.5.5.7,1.1.7,2v5.2h-1.1v-5c0-.6-.2-1.1-.5-1.4s-.7-.5-1.3-.5-1,.2-1.3.5c-.3.3-.5.8-.5,1.4v4.9h-1.1Z"/>
    <path class="st1" d="M685.9,27.1c-.8,0-1.4-.2-1.9-.7-.5-.4-.7-1-.7-1.7s0-.9.3-1.2c.2-.4.5-.6.9-.8.4-.2.8-.3,1.3-.3h2.5v-.6c0-1.1-.6-1.6-1.7-1.6s-.9.1-1.2.3-.5.5-.5.8h-1.1c0-.6.3-1.1.8-1.5.5-.4,1.2-.6,2-.6s1.6.2,2.1.7.7,1.1.7,1.9v5.3h-1.1v-1.4h0c0,.5-.3.9-.7,1.2-.4.3-1,.4-1.6.4h0ZM686.2,26.2c.6,0,1.1-.2,1.5-.5s.6-.7.6-1.3v-1.2h-2.3c-.4,0-.8.1-1,.4-.3.3-.4.6-.4,1s.2.8.5,1.1.7.4,1.3.4h0Z"/>
    <path class="st1" d="M696,27c-.7,0-1.2-.2-1.6-.6s-.6-.9-.6-1.5v-7.1h-2.6v-1h3.7v8.1c0,.3,0,.6.3.8s.4.3.8.3h2.4v1s-2.4,0-2.4,0Z"/>
    <path class="st1" d="M701.7,29.5l1.1-3-2.9-7.2h1.2l1.8,4.8c0,.2.2.4.2.6,0,.2.1.4.2.5,0-.1,0-.3.2-.5,0-.2.1-.4.2-.6l1.7-4.8h1.2l-3.8,10.2h-1.2,0Z"/>
    <path class="st1" d="M712.5,27c-.6,0-1.1-.2-1.5-.5-.4-.4-.5-.8-.5-1.4v-4.7h-2.2v-1h2.2v-2.2h1.1v2.2h3.2v1h-3.2v4.7c0,.3,0,.5.2.7.2.2.4.2.7.2h2.2v1h-2.2Z"/>
    <path class="st1" d="M717.2,27v-1h2.7v-5.7h-2.5v-1h3.6v6.7h2.6v1h-6.5,0ZM720.3,17.9c-.3,0-.5,0-.7-.2s-.3-.4-.3-.6,0-.5.3-.6c.2-.2.4-.2.7-.2s.5,0,.7.2.3.4.3.6,0,.5-.3.6c-.2.1-.4.2-.7.2Z"/>
    <path class="st1" d="M728.7,27.1c-.9,0-1.6-.3-2.2-.8-.5-.5-.8-1.2-.8-2.1v-2.2c0-.9.3-1.6.8-2.1.5-.5,1.3-.8,2.2-.8s1.6.2,2.1.7.8,1.1.8,2h-1.1c0-.5-.2-.9-.5-1.2-.3-.3-.8-.4-1.3-.4s-1,.2-1.4.5c-.3.3-.5.8-.5,1.4v2.2c0,.6.2,1.1.5,1.4s.8.5,1.4.5,1-.1,1.3-.4.5-.7.5-1.2h1.1c0,.8-.3,1.5-.8,2-.5.5-1.2.7-2.1.7h0Z"/>
    <path class="st1" d="M736.6,27.1c-.8,0-1.5-.2-1.9-.6s-.7-.9-.7-1.6h1.1c0,.4.2.7.4.9s.6.3,1.1.3h.7c.5,0,.9-.1,1.1-.3s.4-.5.4-.9,0-.6-.3-.9c-.2-.2-.4-.4-.8-.4l-2-.3c-.6,0-1-.3-1.3-.6s-.5-.8-.5-1.4.2-1.2.7-1.6,1.1-.6,1.9-.6h.7c.7,0,1.3.2,1.8.5.5.4.7.8.8,1.4h-1.1c0-.3-.2-.5-.4-.7-.3-.2-.6-.3-1-.3h-.7c-.5,0-.8.1-1.1.3s-.4.5-.4.9c0,.6.3.9.9,1l1.9.3c.6,0,1.1.3,1.5.7s.5.9.5,1.5-.2,1.3-.7,1.7-1.1.6-1.9.6h-.7Z"/>
    <path class="st1" d="M745.3,27.1c-.3,0-.6-.1-.8-.3-.2-.2-.3-.5-.3-.8s0-.6.3-.8.5-.3.8-.3.6.1.8.3.3.5.3.8,0,.6-.3.8-.5.3-.8.3Z"/>
    <path class="st1" d="M752.6,27v-5.6h-2.3v-1h2.3v-1.7c0-.6.2-1,.5-1.4s.9-.5,1.5-.5h2.2v1h-2.2c-.6,0-1,.3-1,.9v1.7h3.2v1h-3.2v5.6h-1.1Z"/>
    <path class="st1" d="M759.6,27v-7.7h1.1v1.4c0-.5.3-.9.7-1.1s.8-.4,1.4-.4,1.4.2,1.9.7.6,1.2.6,2v.7h-1.1v-.7c0-1.2-.6-1.8-1.7-1.8s-1,.2-1.3.5c-.3.3-.5.8-.5,1.4v4.9s-1.1,0-1.1,0Z"/>
  </g>
  <g>
    <path class="st2" d="M462.9,160.9h-5v-7c0-5.3,4.3-9.6,9.6-9.6h75.6c2.5,0,4.6-2.1,4.6-4.6v-10.6h5v10.6c0,5.3-4.3,9.6-9.6,9.6h-75.6c-2.5,0-4.6,2.1-4.6,4.6v7h0Z"/>
    <polygon class="st2" points="541.7 139.1 550.1 130.6 558.6 139.1 558.6 131.9 550.1 123.4 541.7 131.9 541.7 139.1"/>
  </g>
  <path class="st10" d="M359.6,597v-2h8.1v2h-8.1ZM351.6,597h-8v-2h8v2ZM335.5,597h-8v-2h8v2ZM319.5,597h-8v-2h8v2ZM303.4,597h-8v-2h8v2ZM287.4,597h-8v-2h8v2ZM271.3,597h-8v-2h8v2ZM255.3,597h-8v-2h8v2ZM239.2,597h-8v-2h8v2ZM223.2,597h-8v-2h8v2ZM207.1,597h-8v-2h8v2ZM191.1,597h-8v-2h8v2ZM175,597h-8v-2h8v2ZM158.9,597h-8v-2h8v2ZM142.9,597h-8v-2h8v2ZM126.8,597h-8v-2h8v2ZM110.8,597h-8v-2h8v2ZM94.7,597h-8v-2h8v2ZM78.7,597h-8v-2h8v2ZM62.6,597h-8v-2h8v2ZM46.6,597h-8v-2h8v2ZM30.3,596.2c-2.7-.7-5.3-1.7-7.7-3.1l1-1.7c2.2,1.3,4.7,2.2,7.2,2.8l-.5,2h0ZM376,595.8l-.6-1.9c2.5-.7,4.8-1.8,7-3.2l1.1,1.7c-2.3,1.5-4.9,2.7-7.5,3.4h0ZM16.1,588.1c-1.9-2-3.6-4.2-4.9-6.7l1.8-.9c1.2,2.3,2.7,4.4,4.5,6.2l-1.4,1.4h0ZM389.8,587l-1.5-1.3c1.7-2,3.1-4.1,4.2-6.5l1.8.8c-1.2,2.5-2.7,4.8-4.5,6.9h0ZM8.5,573.6c-.4-1.9-.6-3.9-.6-5.9v-2.3h2v2.3c0,1.8.2,3.7.6,5.5l-2,.4ZM396.7,572.1l-2-.3c.2-1.4.3-2.7.3-4.1v-3.7h2v3.7c0,1.5-.1,3-.3,4.4h0ZM9.9,557.3h-2v-8h2v8ZM397,555.9h-2v-8h2v8ZM9.9,541.3h-2v-8h2v8ZM397,539.8h-2v-8h2v8ZM9.9,525.2h-2v-8h2v8ZM397,523.8h-2v-8h2v8ZM9.9,509.2h-2v-8h2v8ZM397,507.7h-2v-8h2v8ZM9.9,493.1h-2v-8h2v8ZM397,491.7h-2v-8h2v8ZM9.9,477.1h-2v-8h2v8ZM397,475.6h-2v-8h2v8ZM9.9,461h-2v-8h2v8ZM397,459.6h-2v-8h2v8ZM9.9,445h-2v-8h2v8ZM397,443.5h-2v-8h2v8ZM9.9,428.9h-2v-3.7c0-1.5.1-3,.3-4.5l2,.3c-.2,1.4-.3,2.8-.3,4.2v3.7h0ZM397,427.5h-2v-2.2c0-1.9-.2-3.7-.6-5.5l2-.4c.4,2,.6,4,.6,6v2.2h0ZM12.4,413.7l-1.8-.9c1.2-2.5,2.7-4.8,4.5-6.9l1.5,1.3c-1.7,2-3.1,4.1-4.2,6.5ZM391.8,412.4c-1.2-2.3-2.7-4.4-4.5-6.2l1.4-1.4c1.9,2,3.6,4.2,4.9,6.7l-1.8.9h0ZM22.5,402.2l-1.1-1.7c2.3-1.5,4.9-2.6,7.5-3.4l.6,1.9c-2.5.7-4.8,1.8-7,3.2h0ZM381.2,401.5c-2.2-1.3-4.7-2.2-7.2-2.8l.5-2c2.7.6,5.3,1.7,7.7,3l-1,1.7ZM366.3,397.9h-8v-2h8v2ZM350.2,397.9h-8v-2h8v2ZM334.2,397.9h-8v-2h8v2ZM318.1,397.9h-8v-2h8v2ZM302,397.9h-8v-2h8v2ZM286,397.9h-8v-2h8v2ZM269.9,397.9h-8v-2h8v2ZM253.9,397.9h-8v-2h8v2ZM237.8,397.9h-8v-2h8v2ZM221.8,397.9h-8v-2h8v2ZM205.7,397.9h-8v-2h8v2ZM189.7,397.9h-8v-2h8v2ZM173.6,397.9h-8v-2h8v2ZM157.6,397.9h-8v-2h8v2ZM141.5,397.9h-8v-2h8v2ZM125.4,397.9h-8v-2h8v2ZM109.4,397.9h-8v-2h8v2ZM93.3,397.9h-8v-2h8v2ZM77.3,397.9h-8v-2h8v2ZM61.2,397.9h-8v-2h8v2ZM45.2,397.9h-8v-2c0,0,8,0,8,0,0,0,0,2,0,2Z"/>
  <g>
    <path class="st10" d="M25,419.1h-.8v-10h.8v10Z"/>
    <path class="st10" d="M28.3,411.7v1.3c.3-.5.7-.8,1.1-1,.4-.2.9-.4,1.4-.4.8,0,1.4.2,1.8.7s.6,1.1.6,2v4.9h-.8v-4.9c0-.7-.1-1.1-.4-1.5s-.7-.5-1.3-.5-1,.2-1.3.5c-.4.3-.7.7-.9,1.3v5.1h-.8v-7.4h.8,0Z"/>
    <path class="st10" d="M34.8,415.3c0-1.1.3-2.1.8-2.8.5-.7,1.2-1,2.1-1s1.8.4,2.3,1.2v-4.1h.8v10.5h-.8v-1c-.5.8-1.3,1.1-2.3,1.1s-1.5-.3-2.1-1-.8-1.6-.8-2.8h0c0-.1,0,0,0,0ZM35.7,415.5c0,.9.2,1.7.6,2.2s.9.8,1.6.8c1,0,1.7-.4,2.2-1.3v-3.5c-.4-1-1.1-1.4-2.1-1.4s-1.2.3-1.6.8c-.4.5-.6,1.3-.6,2.4h0Z"/>
    <path class="st10" d="M47.7,418.2c-.5.7-1.3,1.1-2.4,1.1s-1.4-.2-1.8-.7-.6-1.1-.6-2v-4.8h.8v4.7c0,1.4.6,2.1,1.7,2.1s1.9-.5,2.2-1.5v-5.4h.8v7.4h-.8v-.9h0Z"/>
    <path class="st10" d="M55.1,417.2c0-.4-.2-.7-.5-1s-.8-.4-1.5-.6c-.7-.1-1.2-.3-1.5-.5-.4-.2-.6-.4-.8-.7s-.3-.6-.3-.9c0-.6.2-1.1.7-1.5.5-.4,1.1-.6,1.9-.6s1.5.2,2,.6c.5.4.8.9.8,1.6h-.8c0-.4-.2-.8-.5-1.1s-.8-.4-1.4-.4-1,.1-1.3.4c-.3.2-.5.5-.5.9s.1.7.4.9c.3.2.8.4,1.5.6s1.3.4,1.6.5.6.4.8.7.3.6.3,1c0,.6-.2,1.1-.8,1.5s-1.2.6-2,.6-1.6-.2-2.1-.6c-.5-.4-.8-1-.8-1.6h.8c0,.5.2.9.6,1.1s.9.4,1.5.4,1-.1,1.4-.4.5-.6.5-1h0Z"/>
    <path class="st10" d="M59,409.8v1.9h1.5v.7h-1.5v4.9c0,.4,0,.7.2.9s.4.3.7.3.4,0,.7,0v.7c-.2,0-.5.1-.9.1-.6,0-1-.2-1.2-.5-.3-.3-.4-.8-.4-1.4v-4.9h-1.4v-.7h1.4v-1.9h.8Z"/>
    <path class="st10" d="M65.7,412.4c-.2,0-.4,0-.6,0-.5,0-.9.1-1.3.4-.3.3-.6.7-.8,1.2v5.1h-.8v-7.4h.8v1.2c.5-.9,1.1-1.3,2.1-1.3s.4,0,.5,0v.8s0,0,0,0Z"/>
    <path class="st10" d="M66.9,409.6c0-.1,0-.3.2-.4,0-.1.2-.2.4-.2s.3,0,.4.2c0,.1.2.2.2.4s0,.3-.2.4-.2.2-.4.2-.3,0-.4-.2-.2-.2-.2-.4ZM67.9,419.1h-.8v-7.4h.8v7.4Z"/>
    <path class="st10" d="M74.8,419.1c0-.2-.1-.6-.2-1-.3.4-.7.7-1.1.9-.4.2-.9.3-1.4.3-.7,0-1.3-.2-1.7-.6s-.7-.9-.7-1.5.3-1.3.9-1.7,1.4-.6,2.5-.6h1.5v-.8c0-.5-.2-.9-.5-1.2-.3-.3-.8-.5-1.4-.5s-1,.1-1.4.4-.6.6-.6,1h-.8c0-.6.3-1.1.8-1.5s1.2-.6,2-.6,1.5.2,1.9.6c.5.4.7,1,.7,1.7v3.5c0,.7,0,1.2.2,1.6h0c0,0-.9,0-.9,0h0ZM72.2,418.5c.6,0,1-.1,1.5-.4s.7-.6.9-1.1v-1.6h-1.5c-.8,0-1.4.2-1.9.5-.5.3-.7.7-.7,1.2s.2.8.5,1,.7.4,1.2.4h0Z"/>
    <path class="st10" d="M78.5,419.1h-.8v-10.5h.8v10.5Z"/>
    <path class="st10" d="M91.7,419.1h-.8l-5.7-8.5v8.5h-.8v-10h.8l5.7,8.5v-8.5h.8s0,10,0,10Z"/>
    <path class="st10" d="M96.9,419.2c-.6,0-1.2-.2-1.7-.5s-.9-.7-1.2-1.3c-.3-.5-.4-1.2-.4-1.9v-.3c0-.7.1-1.4.4-1.9s.7-1,1.2-1.3c.5-.3,1-.5,1.6-.5.9,0,1.6.3,2.1.9.5.6.8,1.5.8,2.5v.5h-5.3v.2c0,.8.2,1.5.7,2.1s1.1.8,1.8.8.8,0,1.2-.2.6-.4.9-.8l.5.4c-.6.9-1.5,1.3-2.6,1.3h0ZM96.8,412.3c-.6,0-1.1.2-1.6.7s-.7,1.1-.8,1.8h4.4c0-.8-.2-1.4-.6-1.8s-.9-.7-1.5-.7Z"/>
    <path class="st10" d="M102.6,409.8v1.9h1.5v.7h-1.5v4.9c0,.4,0,.7.2.9s.4.3.7.3.4,0,.7,0v.7c-.2,0-.5.1-.8.1-.6,0-1-.2-1.2-.5-.3-.3-.4-.8-.4-1.4v-4.9h-1.4v-.7h1.4v-1.9h.8Z"/>
    <path class="st10" d="M107.6,417.4v.6c.1,0,.3-.7.3-.7l1.8-5.7h.7l1.8,5.6.2.8.2-.7,1.5-5.7h.8l-2.2,7.4h-.7l-1.9-5.9v-.4c0,0-.2.4-.2.4l-1.9,5.9h-.7l-2.2-7.4h.8l1.6,5.7h0Z"/>
    <path class="st10" d="M115.9,415.3c0-.7.1-1.4.4-1.9s.7-1,1.2-1.3c.5-.3,1.1-.5,1.7-.5,1,0,1.8.4,2.4,1s.9,1.6.9,2.8v.2c0,.7-.1,1.4-.4,1.9-.3.6-.7,1-1.2,1.3s-1.1.5-1.7.5c-1,0-1.8-.4-2.4-1s-.9-1.6-.9-2.8v-.2h0ZM116.7,415.5c0,.9.2,1.6.7,2.2s1.1.9,1.8.9,1.3-.3,1.8-.9c.5-.6.7-1.3.7-2.2v-.2c0-.6,0-1.1-.3-1.5s-.5-.8-.9-1.1-.8-.4-1.3-.4c-.7,0-1.3.3-1.8.9-.5.6-.7,1.3-.7,2.2h0c0,.1,0,.2,0,.2Z"/>
    <path class="st10" d="M127.6,412.4c-.2,0-.4,0-.6,0-.5,0-.9.1-1.3.4-.3.3-.6.7-.8,1.2v5.1h-.8v-7.4h.8v1.2c.4-.9,1.1-1.3,2.1-1.3s.4,0,.5,0v.8s0,0,0,0Z"/>
    <path class="st10" d="M130.7,415.4l-.9.9v2.8h-.8v-10.5h.8v6.7l.8-.8,2.8-2.8h1l-3.1,3.1,3.4,4.3h-1l-3-3.7h0Z"/>
  </g>
  <g>
    <g>
      <rect class="st12" x="192.1" y="349.9" width="79.5" height="79.5" rx="16.9" ry="16.9"/>
      <path class="st5" d="M254.8,351.8c8.3,0,15,6.7,15,15v45.7c0,8.3-6.7,15-15,15h-45.7c-8.3,0-15-6.7-15-15v-45.7c0-8.3,6.7-15,15-15h45.7M254.8,348h-45.7c-10.4,0-18.8,8.4-18.8,18.8v45.7c0,10.4,8.4,18.8,18.8,18.8h45.7c10.4,0,18.8-8.4,18.8-18.8v-45.7c0-10.4-8.4-18.8-18.8-18.8h0Z"/>
    </g>
    <path class="st6" d="M247.8,370.9c0,2,0,3.9-.2,5.9-.8,11.1-5.9,19.1-15.7,24.4-8.7-4.7-13.8-11.6-15.3-21.1-.4-2.1-.4-4.3-.5-6.5,0-2.3,0-4.6,0-6.9,0-.6,0-1.2,0-1.9,1,0,2.1-.2,3.1-.3,4.5-.5,8.8-1.7,12.7-3.4,4.7,2.2,9.8,3.5,15.6,4,.1,0,.2,0,.3,0,0,.8,0,1.7,0,2.5,0,1,0,2.1,0,3.1h0Z"/>
    <path class="st4" d="M252.3,367.7c0-1.4,0-2.7,0-4,0-.4,0-.6,0-.8h0c-.2-1.1-1-1.9-2.1-2h-.7c-.5,0-1-.1-1.6-.1-5.4-.4-10.1-1.6-14.4-3.7-1-.5-2-.5-3,0-3.6,1.6-7.5,2.7-11.7,3.2-1.1.1-2.2.2-3.4.3-.5,0-1.1,0-1.6.1-1.2.1-2,1.1-2,2.2v.9c0,1,0,2,0,3,0,2.3,0,4.6,0,7,0,2.3.1,4.7.6,7.1,1.8,10.9,7.8,19,17.7,24.3.7.4,1.4.6,2.1.6s1.4-.2,2-.5c11.2-6,17.3-15.5,18.1-28.1.2-3.1.2-6.3.1-9.3h0ZM247.6,376.8c-.8,11.1-5.9,19.1-15.7,24.4-8.7-4.7-13.8-11.6-15.3-21.1-.4-2.1-.4-4.3-.5-6.5,0-2.3,0-4.6,0-6.9,0-.6,0-1.2,0-1.9,1,0,2.1-.2,3.1-.3,4.5-.5,8.8-1.7,12.7-3.4,4.7,2.2,9.8,3.5,15.6,4,.1,0,.2,0,.3,0,0,.8,0,1.7,0,2.5,0,1,0,2.1,0,3.1,0,2,0,3.9-.2,5.9h0Z"/>
    <path class="st5" d="M239.7,378.2c-.3-.5-.6-.9-.9-1.4-.2-.3-.5-.6-.9-.9,0,.3,0,.5.1.8h0c0,.8,0,1.5-.1,2.2,0,.2-.2.5-.3.7-.3.6-.8.9-1.5.8-.7,0-1-.5-1.2-1.1,0,0,0,0,0,0-.2-.7-.2-1.4,0-2.1.1-1.2,0-2.3-.4-3.4-.2-.5-.4-1.1-.7-1.6-.8-1.5-1.9-2.7-3-3.9,0,0-.1,0-.2-.1,0,0-.1,0-.1,0,0,0,.5,3.3-3.1,7.3-.5.4-.9.8-1.3,1.3-.3.3-.6.7-.8,1.1h0c-1.4,2-2.2,4.4-2.2,6.6,0,4.3,3.2,7.6,7.3,8.3h0c1.8.5,3.4,0,3.4,0,0,0,0,0,0,0h0c1.2-.2,2.4-.7,3.4-1.4,0,0,0,0,0,0,1.3-.9,2.4-2.1,3.1-3.7,0,0,0,0,0,0,.3-.7.5-1.4.7-2.2.5-2.4.1-4.7-1.1-6.9h0ZM238.4,387.9c-.4,1-.9,1.8-1.7,2.5-.6.5-1.2,1.1-2,1.3.1-.2.3-.4.4-.5.8-.9,1.1-2,.9-3.2-.2-1.4-1-2.5-1.9-3.5-.6-.7-1.2-1.5-1.6-2.4-.1-.4-.2-.7-.2-1.1,0-.2,0-.2-.2,0-.8.8-1.4,1.8-1.4,3,0,.7.2,1.3.1,2,0,.6-.6,1-1.1.9-.4,0-.7-.6-.8-1.1,0-.3,0-.6,0-.9-.3.4-.6.8-.8,1.3-.3.9-.5,1.7-.4,2.6.1.7.3,1.4.8,2.1.2.4.6.6.9,1,0,0,0,0,0,0,0,0,0,0,0,0,0,0,0,0,0,0h0c0,0-.1,0-.1,0-.3-.1-.6-.3-.9-.5-1-.6-1.7-1.4-2.3-2.4-.4-.7-.7-1.5-.8-2.4-.1-1,0-2,.3-3,.3-.9.7-1.8,1.2-2.6.4-.6.9-1.2,1.3-1.7.7-.8,1.4-1.6,2-2.4.6-.8,1.1-1.6,1.5-2.5,0,0,0-.2.1-.2.1,0,.1.1.2.2.4.6.8,1.1,1.1,1.8.3.7.4,1.4.4,2.1,0,.4,0,.8,0,1.1,0,.4,0,.9.2,1.3.4,1.2,1.4,1.9,2.7,1.9.7,0,1.3-.3,1.9-.8.4-.3.3-.3.5.1.3,1,.5,2.1.5,3.2,0,1-.3,2-.6,3h0Z"/>
    <path class="st4" d="M234.7,391.6c.1-.2.3-.4.4-.5.8-.9,1.1-2,.9-3.2-.2-1.4-1-2.5-1.9-3.5-.6-.7-1.2-1.5-1.6-2.4-.1-.4-.2-.7-.2-1.1,0-.2,0-.2-.2,0-.8.8-1.4,1.8-1.4,3,0,.7.2,1.3.1,2,0,.6-.6,1-1.1.9-.4,0-.7-.6-.8-1.1,0-.3,0-.6,0-.9-.3.4-.6.8-.8,1.3-.3.9-.5,1.7-.4,2.6.1.7.3,1.4.8,2.1.2.4.6.6.9,1,0,0,0,0,0,0,0,0,0,0,0,0,0,0,0,0,0,0h0c0,0-.1,0-.1,0-.3-.1-.6-.3-.9-.5-1-.6-1.7-1.4-2.3-2.4-.4-.7-.7-1.5-.8-2.4-.1-1,0-2,.3-3,.3-.9.7-1.8,1.2-2.6.4-.6.9-1.2,1.3-1.7.7-.8,1.4-1.6,2-2.4.6-.8,1.1-1.6,1.5-2.5,0,0,0-.2.1-.2.1,0,.1.1.2.2.4.6.8,1.1,1.1,1.8.3.7.4,1.4.4,2.1,0,.4,0,.8,0,1.1,0,.4,0,.9.2,1.3.4,1.2,1.4,1.9,2.7,1.9.7,0,1.3-.3,1.9-.8.4-.3.3-.3.5.1.3,1,.5,2.1.5,3.2,0,1-.3,2-.6,3s-.9,1.8-1.7,2.5c-.6.5-1.2,1.1-2,1.3h0Z"/>
  </g>
  <g>
    <path class="st4" d="M211.7,419.1v-8h5.3v1.4h-3.7v2.2h3.3v1.3h-3.3v3h-1.7Z"/>
    <path class="st4" d="M219,412.4c-.2,0-.5,0-.6-.2s-.3-.4-.3-.6,0-.4.3-.6.4-.2.6-.2.5,0,.6.2c.2.2.3.4.3.6s0,.4-.3.6c-.2.2-.4.2-.6.2ZM218.2,419.1v-6h1.6v6h-1.6Z"/>
    <path class="st4" d="M221.2,419.1v-6h1.6v1h0c.1-.4.3-.6.6-.8s.6-.3.9-.3.4,0,.5,0v1.4c0,0-.2,0-.3,0-.1,0-.3,0-.4,0-.4,0-.7.1-.9.4s-.4.5-.4.9v3.4h-1.6,0Z"/>
    <path class="st4" d="M228.2,419.2c-.6,0-1.1-.1-1.6-.4-.4-.2-.8-.6-1-1.1s-.4-1-.4-1.6.1-1.2.4-1.6.6-.8,1-1.1c.4-.3.9-.4,1.5-.4s1,.1,1.4.3.8.6,1,1c.3.5.4,1,.4,1.7v.5h-4.1c0,.5.2.9.4,1.1s.6.4,1,.4.5,0,.7-.2c.2-.1.4-.3.4-.5l1.5.3c-.1.5-.5.9-.9,1.2s-1.1.5-1.8.5h0ZM226.8,415.5h2.6c0-.4-.2-.7-.4-.9-.2-.2-.5-.3-.9-.3s-.7.1-.9.4c-.2.2-.4.5-.4.9h0Z"/>
    <path class="st4" d="M233.2,419.1l-1.8-6h1.7l.5,2.2c0,.3.1.7.2,1.1,0,.4.2.8.2,1.2,0-.4.2-.8.3-1.2,0-.4.2-.7.3-1.1l.6-2.2h1.5l.5,2.2c0,.3.2.7.2,1.1,0,.4.2.8.3,1.2,0-.4.2-.9.2-1.2s.2-.7.2-1.1l.5-2.2h1.7l-1.8,6h-1.7l-.7-2.3c0-.3-.1-.5-.2-.9s-.1-.6-.2-1c0,.3-.1.6-.2,1s-.1.6-.2.9l-.7,2.3h-1.7,0Z"/>
    <path class="st4" d="M243,419.2c-.6,0-1.1-.1-1.4-.5s-.6-.8-.6-1.3.1-.8.3-1c.2-.2.5-.4.9-.6s.7-.2,1.1-.2c.5,0,.9-.1,1.1-.2.2,0,.3-.2.3-.4h0c0-.3,0-.5-.2-.6-.2-.1-.4-.2-.7-.2s-.6,0-.8.2c-.2.1-.3.3-.4.5l-1.5-.2c.2-.5.5-.9.9-1.2.5-.3,1-.4,1.7-.4s.9,0,1.2.2.7.4,1,.6.4.7.4,1.2v4h-1.5v-.8h0c-.1.3-.4.5-.7.7-.3.2-.7.3-1.1.3h0ZM243.5,418.1c.4,0,.7-.1.9-.3.2-.2.4-.5.4-.8v-.6c0,0-.2,0-.3.1s-.3,0-.5,0-.3,0-.4,0c-.3,0-.5.1-.7.2s-.3.3-.3.5,0,.4.3.5.4.2.7.2h0Z"/>
    <path class="st4" d="M249.4,411.1v8h-1.6v-8h1.6Z"/>
    <path class="st4" d="M252.4,411.1v8h-1.6v-8h1.6Z"/>
  </g>
  <path class="st2" d="M193.9,476.7h-5v-7.3c0-5.3,4.3-9.6,9.6-9.6h26.1c2.5,0,4.6-2.1,4.6-4.6v-.9h5v.9c0,5.3-4.3,9.6-9.6,9.6h-26.1c-2.5,0-4.6,2.1-4.6,4.6v7.3Z"/>
  <g>
    <path class="st2" d="M274.6,476.7h-5v-7.3c0-2.5-2.1-4.6-4.6-4.6h-26.3c-5.3,0-9.6-4.3-9.6-9.6v-18.2h5v18.2c0,2.5,2.1,4.6,4.6,4.6h26.3c5.3,0,9.6,4.3,9.6,9.6v7.3Z"/>
    <polygon class="st2" points="240.1 447 231.7 438.6 223.2 447 223.2 439.8 231.7 431.4 240.1 439.8 240.1 447"/>
  </g>
  <g>
    <path class="st2" d="M448.6,160.9h-5v-7c0-2.5-2-4.6-4.6-4.6h-80.8c-4.5,0-8.2-3.7-8.2-8.2v-12.1h5v12.1c0,1.8,1.4,3.2,3.2,3.2h80.8c5.3,0,9.6,4.3,9.6,9.6v7Z"/>
    <polygon class="st2" points="344.1 139.1 352.6 130.6 361 139.1 361 131.9 352.6 123.4 344.1 131.9 344.1 139.1"/>
  </g>
  <g>
    <path class="st5" d="M218.8,541.8h19.2c.5,0,.9-.4.9-.8s-.4-.8-.9-.8h-4.1v-4.8l2,2c.3.3.9.3,1.2,0,.3-.3.3-.9,0-1.2h0l-3.5-3.4c-.3-.3-.9-.3-1.2,0l-3.5,3.5c-.3.3-.3.9,0,1.2s.9.3,1.2,0l2-2v4.9h-6.9v-9.1l2,2c.3.3.9.3,1.2,0s.4-.9,0-1.2c0,0,0,0,0,0l-3.5-3.4c-.3-.3-.9-.3-1.2,0l-3.5,3.5c-.3.3-.3.9,0,1.2.3.3.9.3,1.2,0l2-2v9.1h-4.8c-.5,0-.9.4-.9.8s.4.8.9.8h0Z"/>
    <path class="st5" d="M238,543.1h-19.2c-.5,0-.9.4-.9.8s.4.8.9.8h19.2c.5,0,.9-.4.9-.8s-.4-.8-.9-.8Z"/>
    <path class="st0" d="M228.4,522.7c8.3,0,15.1,6.7,15.1,14.9s-6.8,14.9-15.1,14.9-15.1-6.7-15.1-14.9h0c0-8.2,6.8-14.9,15.1-14.9M228.4,518.4c-10.7,0-19.4,8.6-19.4,19.1s8.7,19.1,19.4,19.1,19.4-8.6,19.4-19.1h0c0-10.6-8.7-19.1-19.4-19.1h0Z"/>
    <rect class="st0" x="250.9" y="526.4" width="4.2" height="30.3"/>
    <rect class="st0" x="250.9" y="518.4" width="4.2" height="3.8"/>
  </g>
</svg>