<svg xmlns="http://www.w3.org/2000/svg" width="57.68mm" height="39.33mm" viewBox="0 0 163.49 111.48">
  <defs>
    <style>
      .cls-1 {
        fill: #fabb00;
      }

      .cls-2 {
        fill: #2c3c45;
      }
    </style>
  </defs>
  <g id="Calque_2" data-name="Calque 2">
    <g id="Calque_1-2" data-name="Calque 1">
      <g>
        <path class="cls-1" d="M42.56,9.43a32.8,32.8,0,1,1-32.8,32.8,32.83,32.83,0,0,1,32.8-32.8m0-9.32A42.12,42.12,0,1,0,84.67,42.23,42.11,42.11,0,0,0,42.56.11Z"/>
        <rect class="cls-1" x="91.52" y="17.52" width="9.03" height="66.72"/>
        <rect class="cls-1" x="91.52" width="9.03" height="8.47"/>
        <g>
          <g>
            <path class="cls-2" d="M114.22,28.28h3.61c5.57,0,10.6,1.45,9.54,8.12A7.78,7.78,0,0,1,123.3,42v.07c3.39.63,5.29,4,4.74,7.5-.94,5.93-6.38,8.28-11.59,8.28h-6.91Zm-.48,26.29h2.83c3.41,0,7.14-1,7.81-5.22s-3.44-5-6.74-5h-2.28Zm2.09-13.18h.94c3.49,0,6.47-.71,7.14-5s-2-4.86-5.51-4.86h-1Z"/>
            <path class="cls-2" d="M116.44,58.06h-7.13l0-.22,4.72-29.75h3.77c4.24,0,7,.87,8.55,2.64,1.16,1.36,1.56,3.28,1.17,5.7a8.1,8.1,0,0,1-3.8,5.58c3.08.81,5,4.06,4.46,7.61C127.23,55.84,121.48,58.06,116.44,58.06Zm-6.69-.38h6.69c4.89,0,10.46-2.13,11.41-8.12.55-3.5-1.46-6.7-4.59-7.28l-.18,0,0-.35.1,0a7.59,7.59,0,0,0,4-5.48c.36-2.31,0-4.13-1.09-5.4-1.44-1.68-4.15-2.5-8.27-2.5h-3.45Zm6.81-2.92h-3l1.68-10.61h2.44c2,0,4.79.33,6.15,1.93a3.87,3.87,0,0,1,.77,3.3C123.86,53.83,119.82,54.76,116.56,54.76Zm-2.6-.37h2.6c3.12,0,7-.88,7.63-5.06a3.56,3.56,0,0,0-.68-3c-1.27-1.49-3.89-1.8-5.87-1.8h-2.12Zm2.81-12.82h-1.16l1.61-10.18h1.18c1.76,0,3.92.17,5,1.45a4.33,4.33,0,0,1,.68,3.63C123.39,41,120.15,41.57,116.77,41.57Zm-.72-.37h.72c3.72,0,6.33-.81,7-4.79a4,4,0,0,0-.59-3.32c-1-1.18-3.06-1.33-4.74-1.33h-.86Z"/>
          </g>
          <g>
            <path class="cls-2" d="M136.73,39.5l-1.61,10.17c-.47,2.94-.13,5.53,3.36,5.53s4.65-2.59,5.12-5.53l1.61-10.17h3.53l-1.67,10.56c-.8,5-3.7,8.44-9.11,8.44s-7.23-3.42-6.44-8.44L133.2,39.5Z"/>
            <path class="cls-2" d="M138,58.69c-2.44,0-4.25-.69-5.4-2s-1.68-3.72-1.22-6.63L133,39.32H137L135.3,49.7c-.34,2.13-.16,3.52.56,4.36a3.26,3.26,0,0,0,2.62,1c2.82,0,4.34-1.66,4.93-5.38l1.64-10.32H149l-1.71,10.77C146.37,55.63,143.07,58.69,138,58.69Zm-4.6-19-1.65,10.4c-.45,2.8-.06,4.93,1.14,6.33s2.79,1.89,5.11,1.89c4.91,0,8.08-2.94,8.92-8.28l1.64-10.34h-3.16l-1.58,10c-.39,2.44-1.36,5.69-5.3,5.69a3.65,3.65,0,0,1-2.9-1.08c-.8-.94-1-2.42-.64-4.67l1.57-10Z"/>
          </g>
          <g>
            <path class="cls-2" d="M160.16,43.7a2.23,2.23,0,0,0-2.1-1.61,2.32,2.32,0,0,0-2.21,1.81c-.25,1.61,1.75,2.32,3.76,3.3s3.87,2.31,3.41,5.22a7.5,7.5,0,0,1-7.28,6.08A5.59,5.59,0,0,1,150,54.38L153.27,53c.53,1.38,1.28,2.36,3,2.36a3.2,3.2,0,0,0,3.2-2.59,1.86,1.86,0,0,0-1-2l-3.16-1.85c-1.87-1.1-3.2-2.12-2.8-4.63A6.52,6.52,0,0,1,158.75,39a4.52,4.52,0,0,1,4.52,3.22Z"/>
            <path class="cls-2" d="M155.74,58.69a5.79,5.79,0,0,1-5.89-4.27l0-.15,3.56-1.51.07.18c.45,1.16,1.1,2.23,2.79,2.23a3,3,0,0,0,3-2.43c.13-.87-.19-1.28-.91-1.82l-3.14-1.84c-1.9-1.11-3.31-2.17-2.89-4.82a6.74,6.74,0,0,1,6.44-5.49,4.68,4.68,0,0,1,4.69,3.34l.05.16L160.05,44l-.07-.21a2,2,0,0,0-1.92-1.48,2.14,2.14,0,0,0-2,1.65c-.2,1.27,1.25,2,2.92,2.75l.74.35c2,1,4,2.39,3.51,5.42A7.65,7.65,0,0,1,155.74,58.69Zm-5.49-4.2a5.45,5.45,0,0,0,5.49,3.82,7.25,7.25,0,0,0,7.09-5.92c.44-2.78-1.33-4.06-3.31-5l-.73-.35c-1.73-.82-3.37-1.59-3.12-3.14a2.5,2.5,0,0,1,2.39-2,2.41,2.41,0,0,1,2.2,1.53L163,42.08a4.33,4.33,0,0,0-4.29-2.94,6.35,6.35,0,0,0-6.07,5.18c-.39,2.42.88,3.37,2.7,4.44l3.17,1.85a2,2,0,0,1,1.06,2.19,3.38,3.38,0,0,1-3.38,2.75,3.11,3.11,0,0,1-3.06-2.3Z"/>
          </g>
        </g>
        <g>
          <rect class="cls-2" x="50.82" y="33.81" width="3.76" height="15.86"/>
          <path class="cls-2" d="M45.07,42.05a1.87,1.87,0,0,1-1.33-.55,1.89,1.89,0,0,1,0-2.66l7.59-7.58a1.88,1.88,0,0,1,2.65,0l7.57,7.51a1.88,1.88,0,1,1-2.64,2.67l-6.25-6.2L46.4,41.5A1.87,1.87,0,0,1,45.07,42.05Z"/>
        </g>
        <g>
          <rect class="cls-2" x="32.04" y="24.42" width="3.76" height="25.25"/>
          <path class="cls-2" d="M26.29,32.66A1.83,1.83,0,0,1,25,32.11a1.87,1.87,0,0,1,0-2.66l7.58-7.58a1.88,1.88,0,0,1,2.65,0l7.58,7.51A1.88,1.88,0,0,1,40.13,32l-6.24-6.19-6.27,6.26A1.87,1.87,0,0,1,26.29,32.66Z"/>
        </g>
        <path class="cls-2" d="M63.46,51.55H21.67a1.88,1.88,0,0,1,0-3.76H63.46a1.88,1.88,0,1,1,0,3.76Z"/>
        <path class="cls-2" d="M63.46,58.12H21.67a1.88,1.88,0,0,1,0-3.76H63.46a1.88,1.88,0,1,1,0,3.76Z"/>
      </g>
      <g>
        <path class="cls-2" d="M3.77,111.21H0v-10.5H3.84c1.66,0,2.85.83,2.85,2.63a2.12,2.12,0,0,1-1.52,2.14,2.51,2.51,0,0,1,2,2.63C7.18,110.18,6,111.21,3.77,111.21Zm0-9.43H1.17v3.27H3.71a1.58,1.58,0,0,0,1.81-1.67A1.51,1.51,0,0,0,3.79,101.78Zm0,4.32H1.17v4.05H3.84c1.58,0,2.17-.78,2.17-2A2,2,0,0,0,3.78,106.1Z"/>
        <path class="cls-2" d="M12.73,107v4.17H11.56v-4.15L8,100.71H9.3l1.68,3c.42.76.88,1.63,1.18,2.25.3-.62.77-1.5,1.19-2.25l1.68-3h1.3Z"/>
        <path class="cls-2" d="M26.2,111.38c-2.61,0-4.33-2.24-4.33-5.4s1.75-5.43,4.36-5.43,4.35,2.23,4.35,5.4S28.81,111.38,26.2,111.38Zm0-9.77c-1.81,0-3.15,1.7-3.15,4.34s1.38,4.36,3.21,4.36,3.16-1.69,3.16-4.33S28,101.61,26.19,101.61Z"/>
        <path class="cls-2" d="M36.61,107.09H34.06v4.12H32.89v-10.5h3.93c1.91,0,3.35,1,3.35,3.14S38.71,107.09,36.61,107.09Zm.17-5.31H34.06V106h2.57c1.6,0,2.37-.73,2.37-2.13A2,2,0,0,0,36.78,101.78Z"/>
        <path class="cls-2" d="M45.66,101.78v9.43H44.49v-9.43H41.4v-1.07h7.35v1.07Z"/>
        <path class="cls-2" d="M50.94,111.21v-10.5h1.17v10.5Z"/>
        <path class="cls-2" d="M62.88,111.21V103c-.11.4-.41,1.18-.63,1.74l-2.81,6.76-2.76-6.76a16.86,16.86,0,0,1-.61-1.74v8.23H54.94v-10.5h1.31L58.72,107c.26.63.63,1.6.75,2,.14-.45.51-1.43.75-2l2.51-6.29H64v10.5Z"/>
        <path class="cls-2" d="M66.84,111.21v-10.5H68v10.5Z"/>
        <path class="cls-2" d="M73.81,111.38a5,5,0,0,1-3.52-1.46l.78-.87a4,4,0,0,0,2.79,1.26c1.39,0,2.26-.69,2.26-1.8s-.58-1.53-2.5-2.22c-2.27-.81-3-1.54-3-3.06,0-1.68,1.32-2.68,3.28-2.68a4.74,4.74,0,0,1,3.2,1.12l-.75.92a3.67,3.67,0,0,0-2.52-1c-1.44,0-2,.72-2,1.55s.39,1.36,2.49,2.11c2.32.84,3,1.62,3,3.18S76,111.38,73.81,111.38Z"/>
        <path class="cls-2" d="M83,101.78v9.43H81.85v-9.43H78.76v-1.07h7.35v1.07Z"/>
        <path class="cls-2" d="M88.3,111.21v-10.5h1.17v10.5Z"/>
        <path class="cls-2" d="M98.58,111.21l-3.11-5.59-2,2.58v3H92.31v-10.5h1.17v6c.27-.39,1.11-1.52,1.53-2.06l3-3.93h1.28l-3.08,4,3.66,6.55Z"/>
      </g>
    </g>
  </g>
</svg>
