<svg xmlns="http://www.w3.org/2000/svg" viewBox="0 0 60.62 60.62"><defs><style>.cls-1{fill:none;}.cls-2{fill:#fff;}.cls-3,.cls-4{fill:#f9ba00;}.cls-3{stroke:#f9ba00;stroke-linejoin:round;}</style></defs><g id="Calque_2" data-name="Calque 2"><g id="Calque_1-2" data-name="Calque 1"><rect class="cls-1" width="60.62" height="60.62"/><path class="cls-2" d="M48.13,52.88H14.47V41.58a1.5,1.5,0,1,1,3,0v8.3H45.13v-31l-6.46-8.17H17.47v12a1.5,1.5,0,1,1-3,0v-15H40.13l8,10.12Z"/><polygon class="cls-2" points="46.63 19.39 38.4 19.39 38.4 9.24 40.4 9.24 40.4 17.39 46.63 17.39 46.63 19.39"/><polygon class="cls-3" points="7.73 32 20.73 39.41 20.73 24.59 7.73 32"/><line class="cls-2" x1="16.75" y1="32" x2="34.77" y2="32"/><path class="cls-4" d="M34.77,34.5h-18a2.5,2.5,0,0,1,0-5h18a2.5,2.5,0,1,1,0,5Z"/></g></g></svg>