<?xml version="1.0" encoding="UTF-8"?>
<svg id="Calque_2" data-name="Calque 2" xmlns="http://www.w3.org/2000/svg" viewBox="0 0 804 617">
  <defs>
    <style>
      .cls-1 {
        fill: #fab615;
      }

      .cls-1, .cls-2, .cls-3, .cls-4, .cls-5, .cls-6, .cls-7, .cls-8, .cls-9, .cls-10, .cls-11, .cls-12, .cls-13 {
        stroke-width: 0px;
      }

      .cls-2 {
        fill: #fab911;
      }

      .cls-3 {
        fill: #0a9cd8;
      }

      .cls-4 {
        fill: #f9ba15;
      }

      .cls-5 {
        fill: #2c3c45;
      }

      .cls-6 {
        fill: #f8b913;
      }

      .cls-7 {
        fill: #273d46;
      }

      .cls-8 {
        fill: #fab914;
      }

      .cls-9 {
        fill: #c2d1d9;
      }

      .cls-10 {
        fill: #ffe698;
      }

      .cls-11 {
        fill: #fab612;
      }

      .cls-14 {
        opacity: .9;
      }

      .cls-12 {
        fill: #fbba0e;
      }

      .cls-13 {
        fill: #fff;
      }
    </style>
  </defs>
  <g id="Calque_1-2" data-name="Calque 1">
    <rect class="cls-5" x="0" width="804" height="617" rx="14.17" ry="14.17"/>
    <path class="cls-3" d="M804,211.52h-4v-2h4v2ZM792,211.52h-8v-2h8v2ZM776,211.52h-8v-2h8v2ZM760,211.52h-8v-2h8v2ZM744,211.52h-8v-2h8v2ZM728,211.52h-8v-2h8v2ZM712,211.52h-8v-2h8v2ZM696,211.52h-8v-2h8v2ZM680,211.52h-8v-2h8v2ZM664,211.52h-8v-2h8v2ZM648,211.52h-8v-2h8v2ZM632,211.52h-8v-2h8v2ZM616,211.52h-8v-2h8v2ZM600,211.52h-8v-2h8v2ZM584,211.52h-8v-2h8v2ZM568,211.52h-8v-2h8v2ZM552,211.52h-8v-2h8v2ZM536,211.52h-8v-2h8v2ZM520,211.52h-8v-2h8v2ZM504,211.52h-8v-2h8v2ZM488,211.52h-8v-2h8v2ZM472,211.52h-8v-2h8v2ZM456,211.52h-8v-2h8v2ZM440,211.52h-8v-2h8v2ZM424,211.52h-8v-2h8v2ZM408,211.52h-8v-2h8v2ZM392,211.52h-8v-2h8v2ZM376,211.52h-8v-2h8v2ZM360,211.52h-8v-2h8v2ZM344,211.52h-8v-2h8v2ZM328,211.52h-8v-2h8v2ZM312,211.52h-8v-2h8v2ZM296,211.52h-8v-2h8v2ZM280,211.52h-8v-2h8v2ZM264,211.52h-8v-2h8v2ZM248,211.52h-8v-2h8v2ZM232,211.52h-8v-2h8v2ZM216,211.52h-8v-2h8v2ZM200,211.52h-8v-2h8v2ZM184,211.52h-8v-2h8v2ZM168,211.52h-8v-2h8v2ZM152,211.52h-8v-2h8v2ZM136,211.52h-8v-2h8v2ZM120,211.52h-8v-2h8v2ZM104,211.52h-8v-2h8v2ZM88,211.52h-8v-2h8v2ZM72,211.52h-8v-2h8v2ZM56,211.52h-8v-2h8v2ZM40,211.52h-8v-2h8v2ZM24,211.52h-8v-2h8v2ZM8,211.52H0v-2h8v2Z"/>
    <g>
      <path class="cls-9" d="M627.84,201.37h-.84v-9.95h.84v9.95Z"/>
      <path class="cls-9" d="M631.13,193.97l.03,1.26c.28-.46.62-.8,1.04-1.04.41-.24.87-.36,1.37-.36.79,0,1.38.22,1.77.67s.58,1.12.59,2.01v4.85h-.81v-4.86c0-.66-.14-1.15-.42-1.48s-.72-.49-1.32-.49c-.51,0-.95.16-1.34.47-.39.32-.68.74-.86,1.28v5.07h-.81v-7.4h.78Z"/>
      <path class="cls-9" d="M639.31,192.08v1.89h1.53v.67h-1.53v4.93c0,.41.07.72.22.92.15.2.4.3.74.3.14,0,.36-.02.66-.07l.03.66c-.21.08-.51.12-.88.12-.56,0-.97-.16-1.22-.49-.26-.33-.38-.81-.38-1.44v-4.94h-1.36v-.67h1.36v-1.89h.82Z"/>
      <path class="cls-9" d="M645.4,201.5c-.63,0-1.2-.16-1.71-.46s-.9-.74-1.19-1.29c-.28-.55-.42-1.17-.42-1.86v-.29c0-.71.14-1.35.41-1.92s.66-1.02,1.15-1.34c.49-.33,1.03-.49,1.6-.49.9,0,1.61.31,2.14.92.53.61.79,1.45.79,2.51v.46h-5.28v.16c0,.84.24,1.54.72,2.1.48.56,1.09.84,1.81.84.44,0,.82-.08,1.16-.24s.64-.42.91-.77l.51.39c-.6.87-1.47,1.31-2.62,1.31ZM645.25,194.53c-.62,0-1.13.23-1.56.68s-.68,1.06-.77,1.82h4.44v-.09c-.02-.71-.23-1.29-.61-1.74s-.88-.67-1.5-.67Z"/>
      <path class="cls-9" d="M653.19,194.67c-.17-.03-.36-.05-.55-.05-.51,0-.94.14-1.3.43-.35.29-.6.7-.76,1.24v5.08h-.81v-7.4h.8v1.18c.45-.88,1.14-1.31,2.1-1.31.23,0,.41.03.54.09l-.02.75Z"/>
      <path class="cls-9" d="M655.26,193.97l.03,1.26c.28-.46.62-.8,1.04-1.04.41-.24.87-.36,1.37-.36.79,0,1.38.22,1.77.67s.58,1.12.59,2.01v4.85h-.81v-4.86c0-.66-.14-1.15-.42-1.48s-.72-.49-1.32-.49c-.51,0-.95.16-1.34.47-.39.32-.68.74-.86,1.28v5.07h-.81v-7.4h.78Z"/>
      <path class="cls-9" d="M665.03,201.5c-.63,0-1.2-.16-1.71-.46s-.9-.74-1.19-1.29c-.28-.55-.42-1.17-.42-1.86v-.29c0-.71.14-1.35.41-1.92s.66-1.02,1.15-1.34c.49-.33,1.03-.49,1.6-.49.9,0,1.61.31,2.14.92.53.61.79,1.45.79,2.51v.46h-5.28v.16c0,.84.24,1.54.72,2.1.48.56,1.09.84,1.81.84.44,0,.82-.08,1.16-.24s.64-.42.91-.77l.51.39c-.6.87-1.47,1.31-2.62,1.31ZM664.88,194.53c-.62,0-1.13.23-1.56.68s-.68,1.06-.77,1.82h4.44v-.09c-.02-.71-.23-1.29-.61-1.74s-.88-.67-1.5-.67Z"/>
      <path class="cls-9" d="M670.67,192.08v1.89h1.53v.67h-1.53v4.93c0,.41.07.72.22.92.15.2.4.3.74.3.14,0,.36-.02.66-.07l.03.66c-.21.08-.51.12-.88.12-.56,0-.97-.16-1.22-.49-.26-.33-.38-.81-.38-1.44v-4.94h-1.36v-.67h1.36v-1.89h.82Z"/>
    </g>
    <g>
      <path class="cls-3" d="M631.05,223.34h-4.66v4.06h5.35v.71h-6.19v-9.95h6.16v.71h-5.32v3.76h4.66v.71Z"/>
      <path class="cls-3" d="M634.11,220.72l.03,1.26c.28-.46.62-.8,1.04-1.04.41-.24.87-.36,1.37-.36.79,0,1.38.22,1.77.67.39.45.58,1.12.59,2.01v4.85h-.81v-4.86c0-.66-.14-1.15-.42-1.48-.28-.32-.72-.48-1.32-.48-.51,0-.95.16-1.34.47s-.68.74-.86,1.28v5.07h-.81v-7.4h.78Z"/>
      <path class="cls-3" d="M642.29,218.82v1.89h1.53v.67h-1.53v4.93c0,.41.07.72.22.92.15.2.4.3.74.3.14,0,.36-.02.66-.07l.03.66c-.21.08-.51.12-.88.12-.56,0-.97-.16-1.22-.49-.26-.33-.38-.81-.38-1.44v-4.94h-1.36v-.67h1.36v-1.89h.82Z"/>
      <path class="cls-3" d="M648.38,228.25c-.63,0-1.2-.16-1.71-.46-.51-.31-.9-.74-1.19-1.29-.28-.55-.42-1.18-.42-1.86v-.29c0-.71.14-1.35.41-1.92.28-.57.66-1.02,1.15-1.34s1.03-.49,1.6-.49c.9,0,1.61.31,2.14.92.53.61.79,1.45.79,2.51v.46h-5.28v.16c0,.84.24,1.54.72,2.1.48.56,1.09.84,1.81.84.44,0,.82-.08,1.16-.24.33-.16.64-.42.91-.77l.51.39c-.6.87-1.47,1.31-2.62,1.31ZM648.23,221.28c-.62,0-1.13.22-1.56.68s-.68,1.06-.77,1.82h4.44v-.09c-.02-.71-.23-1.29-.61-1.74-.38-.45-.88-.67-1.5-.67Z"/>
      <path class="cls-3" d="M656.17,221.42c-.17-.03-.36-.05-.55-.05-.51,0-.94.14-1.3.43s-.6.7-.76,1.24v5.08h-.81v-7.4h.8v1.18c.45-.88,1.14-1.31,2.1-1.31.23,0,.41.03.54.09l-.02.75Z"/>
      <path class="cls-3" d="M663.41,224.49c0,1.15-.26,2.07-.77,2.74-.51.68-1.19,1.02-2.05,1.02-1.01,0-1.79-.36-2.32-1.07v3.77h-.81v-10.24h.76l.04,1.04c.53-.79,1.31-1.18,2.32-1.18.88,0,1.58.33,2.08,1s.76,1.6.76,2.79v.12ZM662.59,224.35c0-.94-.19-1.69-.58-2.23s-.93-.82-1.62-.82c-.5,0-.93.12-1.29.36-.36.24-.64.59-.83,1.05v3.55c.2.42.48.75.84.97.36.22.8.33,1.29.33.69,0,1.22-.27,1.61-.82.39-.55.58-1.35.58-2.39Z"/>
      <path class="cls-3" d="M668.64,221.42c-.17-.03-.36-.05-.55-.05-.51,0-.94.14-1.3.43s-.6.7-.76,1.24v5.08h-.81v-7.4h.8v1.18c.45-.88,1.14-1.31,2.1-1.31.23,0,.41.03.54.09l-.02.75Z"/>
      <path class="cls-3" d="M669.88,218.58c0-.15.05-.29.15-.39s.24-.16.41-.16.31.05.41.16.15.24.15.39-.05.28-.15.39c-.1.11-.24.16-.41.16s-.31-.05-.41-.16c-.1-.1-.15-.23-.15-.39ZM670.84,228.12h-.82v-7.4h.82v7.4Z"/>
      <path class="cls-3" d="M677.5,226.23c0-.4-.16-.73-.49-.98s-.82-.44-1.47-.58-1.17-.3-1.53-.48-.63-.4-.81-.66-.26-.57-.26-.94c0-.58.24-1.06.73-1.45s1.11-.57,1.87-.57c.82,0,1.49.2,1.99.61s.75.94.75,1.6h-.82c0-.43-.18-.79-.54-1.08s-.82-.43-1.37-.43-.97.12-1.3.36c-.33.24-.49.55-.49.93s.14.66.41.86c.27.2.77.39,1.48.56.72.17,1.26.35,1.61.54s.62.42.8.69c.17.27.26.59.26.98,0,.62-.25,1.12-.76,1.5-.5.37-1.16.56-1.97.56-.86,0-1.56-.21-2.1-.62-.54-.42-.8-.95-.8-1.58h.82c.03.48.23.85.6,1.12.37.27.86.4,1.47.4.57,0,1.03-.12,1.38-.38.35-.25.53-.57.53-.95Z"/>
      <path class="cls-3" d="M683.02,228.25c-.63,0-1.2-.16-1.71-.46-.51-.31-.9-.74-1.19-1.29-.28-.55-.42-1.18-.42-1.86v-.29c0-.71.14-1.35.41-1.92.28-.57.66-1.02,1.15-1.34s1.03-.49,1.6-.49c.9,0,1.61.31,2.14.92.53.61.79,1.45.79,2.51v.46h-5.28v.16c0,.84.24,1.54.72,2.1.48.56,1.09.84,1.81.84.44,0,.82-.08,1.16-.24.33-.16.64-.42.91-.77l.51.39c-.6.87-1.47,1.31-2.62,1.31ZM682.87,221.28c-.62,0-1.13.22-1.56.68s-.68,1.06-.77,1.82h4.44v-.09c-.02-.71-.23-1.29-.61-1.74-.38-.45-.88-.67-1.5-.67Z"/>
      <path class="cls-3" d="M698.39,228.12h-.84l-5.72-8.52v8.52h-.85v-9.95h.85l5.73,8.52v-8.52h.83v9.95Z"/>
      <path class="cls-3" d="M703.6,228.25c-.63,0-1.2-.16-1.71-.46-.51-.31-.9-.74-1.19-1.29-.28-.55-.42-1.18-.42-1.86v-.29c0-.71.14-1.35.41-1.92.28-.57.66-1.02,1.15-1.34s1.03-.49,1.6-.49c.9,0,1.61.31,2.14.92.53.61.79,1.45.79,2.51v.46h-5.28v.16c0,.84.24,1.54.72,2.1.48.56,1.09.84,1.81.84.44,0,.82-.08,1.16-.24.33-.16.64-.42.91-.77l.51.39c-.6.87-1.47,1.31-2.62,1.31ZM703.45,221.28c-.62,0-1.13.22-1.56.68s-.68,1.06-.77,1.82h4.44v-.09c-.02-.71-.23-1.29-.61-1.74-.38-.45-.88-.67-1.5-.67Z"/>
      <path class="cls-3" d="M709.24,218.82v1.89h1.53v.67h-1.53v4.93c0,.41.07.72.22.92.15.2.4.3.74.3.14,0,.36-.02.66-.07l.03.66c-.21.08-.51.12-.88.12-.56,0-.97-.16-1.22-.49-.26-.33-.38-.81-.38-1.44v-4.94h-1.36v-.67h1.36v-1.89h.82Z"/>
      <path class="cls-3" d="M714.23,226.41l.12.64.16-.67,1.78-5.66h.7l1.76,5.61.19.78.16-.72,1.52-5.67h.85l-2.15,7.4h-.7l-1.9-5.87-.09-.4-.09.41-1.87,5.86h-.7l-2.15-7.4h.84l1.57,5.69Z"/>
      <path class="cls-3" d="M722.57,224.31c0-.71.14-1.35.41-1.92.28-.57.67-1.01,1.17-1.33s1.07-.47,1.71-.47c.98,0,1.78.35,2.39,1.04.61.69.92,1.61.92,2.74v.17c0,.71-.14,1.36-.41,1.93-.28.57-.66,1.01-1.17,1.32-.5.31-1.07.46-1.72.46-.98,0-1.78-.35-2.39-1.04-.61-.69-.92-1.61-.92-2.75v-.16ZM723.39,224.53c0,.88.23,1.61.69,2.18.46.57,1.06.85,1.8.85s1.34-.28,1.79-.85c.46-.57.69-1.32.69-2.25v-.16c0-.56-.1-1.08-.31-1.55-.21-.47-.5-.83-.88-1.09-.38-.26-.81-.39-1.3-.39-.73,0-1.32.29-1.78.86s-.69,1.32-.69,2.25v.15Z"/>
      <path class="cls-3" d="M734.28,221.42c-.17-.03-.36-.05-.55-.05-.51,0-.94.14-1.3.43s-.6.7-.76,1.24v5.08h-.81v-7.4h.8v1.18c.45-.88,1.14-1.31,2.1-1.31.23,0,.41.03.54.09l-.02.75Z"/>
      <path class="cls-3" d="M737.32,224.39l-.94.9v2.82h-.82v-10.5h.82v6.72l.77-.83,2.83-2.78h1.03l-3.14,3.12,3.41,4.28h-.98l-2.99-3.73Z"/>
    </g>
    <g>
      <path class="cls-10" d="M516.09,190.47c-.9,0-1.6-.26-2.12-.79-.52-.53-.78-1.27-.78-2.22v-4.48c0-.95.26-1.69.78-2.22.52-.53,1.23-.79,2.12-.79s1.6.26,2.12.79c.52.53.78,1.26.78,2.21v4.49c0,.95-.26,1.69-.78,2.22-.52.53-1.22.79-2.12.79ZM516.09,189.48c.57,0,1.01-.17,1.32-.5.31-.33.47-.8.47-1.41v-4.7c0-.61-.16-1.08-.47-1.41-.31-.33-.75-.5-1.32-.5s-1.01.17-1.32.5c-.31.33-.47.8-.47,1.41v4.7c0,.61.16,1.08.47,1.41.31.33.75.5,1.32.5Z"/>
      <path class="cls-10" d="M524.48,190.47c-.88,0-1.57-.26-2.09-.78-.51-.52-.77-1.23-.77-2.13v-4.93h1.11v4.93c0,.6.16,1.07.47,1.41.31.35.74.52,1.28.52s.98-.17,1.3-.52c.32-.34.48-.82.48-1.41v-4.93h1.11v4.93c0,.9-.26,1.61-.78,2.13-.52.52-1.22.78-2.1.78Z"/>
      <path class="cls-10" d="M533.66,190.33c-.63,0-1.12-.17-1.48-.53-.36-.35-.55-.83-.55-1.43v-4.73h-2.23v-1.01h2.23v-2.17h1.12v2.17h3.16v1.01h-3.16v4.73c0,.3.08.53.25.7.16.17.38.25.67.25h2.18v1.01h-2.18Z"/>
      <path class="cls-10" d="M541.67,190.47c-.57,0-1.04-.14-1.41-.41-.37-.27-.61-.65-.7-1.13v1.4h-1.11v-10.22h1.11v3.92c.07-.48.3-.85.69-1.13s.86-.41,1.43-.41c.77,0,1.39.26,1.85.77.46.51.69,1.21.69,2.09v2.28c0,.88-.23,1.57-.69,2.08s-1.08.76-1.84.76ZM541.32,189.5c.56,0,1-.15,1.31-.46.31-.3.47-.78.47-1.42v-2.28c0-.64-.16-1.12-.47-1.43-.31-.31-.75-.46-1.31-.46s-.98.17-1.29.51c-.31.34-.47.81-.47,1.42v2.18c0,.61.16,1.08.48,1.42s.75.51,1.29.51Z"/>
      <path class="cls-10" d="M549.69,190.45c-.9,0-1.61-.27-2.14-.8-.53-.53-.8-1.27-.8-2.21v-1.93c0-.94.26-1.68.79-2.21.53-.53,1.24-.8,2.15-.8s1.62.27,2.15.8c.53.53.79,1.27.79,2.21v1.93c0,.94-.27,1.68-.8,2.21-.53.53-1.25.8-2.14.8ZM549.69,189.46c.57,0,1.02-.16,1.34-.49.33-.33.49-.8.49-1.43v-2.13c0-.62-.16-1.1-.49-1.43-.33-.33-.77-.49-1.34-.49s-1.02.16-1.34.49c-.33.33-.49.8-.49,1.43v2.13c0,.63.16,1.1.49,1.43.33.33.77.49,1.34.49Z"/>
      <path class="cls-10" d="M558.08,190.47c-.88,0-1.57-.26-2.09-.78-.51-.52-.77-1.23-.77-2.13v-4.93h1.11v4.93c0,.6.16,1.07.47,1.41.31.35.74.52,1.28.52s.98-.17,1.3-.52c.32-.34.48-.82.48-1.41v-4.93h1.11v4.93c0,.9-.26,1.61-.78,2.13-.52.52-1.22.78-2.1.78Z"/>
      <path class="cls-10" d="M563.65,190.33v-7.7h1.11v1.43c.08-.49.31-.88.67-1.15s.83-.41,1.42-.41c.77,0,1.38.24,1.83.72.46.48.69,1.13.69,1.95v5.17h-1.11v-4.98c0-.62-.15-1.09-.46-1.42-.31-.33-.73-.5-1.26-.5s-.98.17-1.3.52c-.32.34-.48.83-.48,1.44v4.94h-1.11Z"/>
      <path class="cls-10" d="M574.51,190.47c-.77,0-1.38-.25-1.84-.76s-.69-1.2-.69-2.08v-2.28c0-.88.23-1.57.69-2.09.46-.51,1.07-.77,1.85-.77.57,0,1.05.14,1.43.41s.62.65.7,1.13v-1.72s-.01-2.2-.01-2.2h1.11v10.22h-1.11v-1.4c-.09.48-.33.85-.7,1.13-.37.28-.84.41-1.41.41ZM574.86,189.5c.54,0,.97-.17,1.29-.51s.48-.81.48-1.42v-2.18c0-.61-.16-1.08-.47-1.42-.31-.34-.74-.51-1.29-.51s-1,.15-1.31.46c-.31.31-.47.78-.47,1.43v2.28c0,.64.16,1.12.47,1.42.31.3.75.46,1.31.46Z"/>
      <path class="cls-10" d="M513.25,205.33v-10.22h3.21c.94,0,1.69.27,2.25.8.56.54.83,1.26.83,2.16s-.28,1.62-.83,2.16c-.56.54-1.3.81-2.25.81h-2.1v4.28h-1.11ZM514.35,200.04h2.1c.59,0,1.06-.18,1.41-.53.35-.35.52-.83.52-1.43s-.17-1.08-.52-1.43c-.35-.35-.82-.53-1.41-.53h-2.1v3.92Z"/>
      <path class="cls-10" d="M524.49,205.45c-.9,0-1.61-.27-2.14-.8-.53-.53-.8-1.27-.8-2.21v-1.93c0-.94.26-1.68.79-2.21.53-.53,1.24-.8,2.15-.8s1.62.27,2.15.8c.53.53.79,1.27.79,2.21v1.93c0,.94-.27,1.68-.8,2.21-.53.53-1.25.8-2.14.8ZM524.49,204.46c.57,0,1.02-.16,1.34-.49.33-.33.49-.8.49-1.43v-2.13c0-.62-.16-1.1-.49-1.43-.33-.33-.77-.49-1.34-.49s-1.02.16-1.34.49c-.33.33-.49.8-.49,1.43v2.13c0,.63.16,1.1.49,1.43.33.33.77.49,1.34.49Z"/>
      <path class="cls-10" d="M530.33,205.33v-7.7h1.12v1.43c.08-.48.31-.87.67-1.15s.83-.42,1.41-.42c.81,0,1.43.24,1.86.72s.64,1.16.64,2.04v.67h-1.11v-.67c0-1.19-.57-1.79-1.72-1.79-.57,0-1,.17-1.3.5-.3.34-.45.81-.45,1.43v4.94h-1.12Z"/>
      <path class="cls-10" d="M542.06,205.33c-.63,0-1.12-.17-1.48-.53-.36-.35-.55-.83-.55-1.43v-4.73h-2.23v-1.01h2.23v-2.17h1.12v2.17h3.16v1.01h-3.16v4.73c0,.3.08.53.25.7.16.17.38.25.67.25h2.18v1.01h-2.18Z"/>
      <path class="cls-10" d="M560.68,207.01c-1.31-.3-2.32-.92-3.03-1.87-.71-.95-1.07-2.13-1.07-3.55v-2.6c0-1.42.36-2.6,1.07-3.55.71-.95,1.72-1.57,3.03-1.87v1.06c-.93.22-1.67.72-2.2,1.5-.53.78-.8,1.73-.8,2.86v2.6c0,1.13.27,2.08.8,2.86.53.77,1.26,1.27,2.2,1.5v1.06Z"/>
      <path class="cls-10" d="M567.96,205.33v-2.28h-4.63v-1.82l3.79-6.12h1.26l-3.95,6.38v.55h3.53v-2.59h1.12v5.88h-1.12Z"/>
      <path class="cls-10" d="M576.36,205.33v-2.28h-4.63v-1.82l3.79-6.12h1.26l-3.95,6.38v.55h3.53v-2.59h1.12v5.88h-1.12Z"/>
      <path class="cls-10" d="M583.14,205.47c-.92,0-1.66-.26-2.2-.79-.54-.53-.81-1.24-.81-2.13h1.11c0,.6.17,1.07.52,1.41.35.35.81.52,1.39.52s1.04-.17,1.39-.52c.35-.34.52-.82.52-1.41v-.76c0-.59-.17-1.05-.52-1.39s-.81-.5-1.4-.5h-1.04v-.97l2.59-2.81h-4.28v-1.01h5.53v1.04l-2.53,2.77c.85.05,1.52.33,2.02.84.49.51.74,1.19.74,2.03v.76c0,.9-.27,1.61-.82,2.13-.55.53-1.29.79-2.22.79Z"/>
      <path class="cls-10" d="M589.1,207.01v-1.06c.93-.22,1.67-.72,2.2-1.5.53-.77.8-1.73.8-2.86v-2.6c0-1.13-.27-2.08-.8-2.86-.53-.77-1.27-1.27-2.2-1.5v-1.06c1.31.3,2.32.92,3.03,1.87.71.95,1.07,2.13,1.07,3.55v2.6c0,1.42-.36,2.6-1.07,3.55-.71.95-1.72,1.57-3.03,1.87Z"/>
    </g>
    <g>
      <g>
        <path class="cls-5" d="M437.15,246.08c-9.43,0-17.1-7.58-17.1-16.9v-45.72c0-9.32,7.67-16.9,17.1-16.9h46.26c9.43,0,17.1,7.58,17.1,16.9v45.72c0,9.32-7.67,16.9-17.1,16.9h-46.26Z"/>
        <path class="cls-13" d="M483.4,168.45c8.39,0,15.18,6.72,15.18,15.01v45.72c0,8.29-6.8,15.01-15.18,15.01h-46.26c-8.39,0-15.18-6.72-15.18-15.01v-45.72c0-8.29,6.8-15.01,15.18-15.01h46.26M483.4,164.66h-46.26c-10.49,0-19.02,8.43-19.02,18.8v45.72c0,10.36,8.53,18.8,19.02,18.8h46.26c10.49,0,19.02-8.43,19.02-18.8v-45.72c0-10.36-8.53-18.8-19.02-18.8h0Z"/>
      </g>
      <g>
        <path class="cls-11" d="M442.79,228.64v1.36h2.2v1.4h-2.2v3.05h-1.46v-7.23h5.23v1.42h-3.77Z"/>
        <path class="cls-11" d="M448.39,228.59c-.45,0-.82-.37-.82-.82s.38-.81.82-.81.82.37.82.81-.38.82-.82.82ZM447.67,234.46v-5.42h1.44v5.42h-1.44Z"/>
        <path class="cls-11" d="M453.77,230.7c-.23-.21-.51-.35-.84-.35-.56,0-.93.24-.93,1.18v2.93h-1.44v-5.42h1.44v.36c.25-.26.62-.47,1.13-.47.47,0,.82.19,1.01.38l-.38,1.39Z"/>
        <path class="cls-11" d="M459.32,232.2h-3.28c.05.74.61,1.02,1.13,1.02.4,0,.73-.14.94-.38l1.02.85c-.44.56-1.23.88-1.96.88-1.58,0-2.58-1.1-2.58-2.82s1.06-2.83,2.44-2.83c1.46,0,2.31,1.28,2.31,2.83,0,.21-.01.35-.02.45ZM456.96,230.16c-.52,0-.85.42-.9.97h1.88c-.04-.48-.33-.97-.98-.97Z"/>
        <path class="cls-11" d="M466.95,234.46h-1.43l-.9-3.72c-.1-.43-.21-.97-.25-1.24-.03.27-.14.82-.24,1.24l-.92,3.72h-1.37l-1.53-7.23h1.53l.64,3.52c.06.35.15.89.18,1.19.05-.3.17-.84.25-1.19l.86-3.52h1.27l.87,3.52c.08.35.2.89.25,1.19.03-.3.11-.85.18-1.19l.64-3.52h1.5l-1.52,7.23Z"/>
        <path class="cls-11" d="M472.19,234.46v-.36c-.26.27-.72.47-1.23.47-1.02,0-2.05-.62-2.05-1.93,0-1.2.98-1.8,2.22-1.8.5,0,.82.1,1.06.22v-.27c0-.38-.26-.69-.78-.69-.66,0-1,.09-1.5.36l-.55-.99c.64-.36,1.17-.55,2.06-.55,1.33,0,2.22.68,2.22,1.9v3.63h-1.44ZM472.19,232.18c-.25-.15-.49-.23-1-.23-.54,0-.84.25-.84.68,0,.38.22.72.84.72.47,0,.85-.24,1-.5v-.68Z"/>
        <path class="cls-11" d="M475.02,234.46v-6.81l1.44-.71v7.53h-1.44Z"/>
        <path class="cls-11" d="M477.97,234.46v-6.81l1.44-.71v7.53h-1.44Z"/>
      </g>
      <path class="cls-7" d="M476.34,187.53c0,1.96-.03,3.93-.16,5.85-.76,11.14-5.96,19.13-15.9,24.43-8.83-4.66-13.92-11.56-15.52-21.08-.36-2.1-.44-4.34-.5-6.46-.06-2.27-.05-4.6-.03-6.85,0-.62.01-1.24.01-1.86,1.04-.08,2.11-.18,3.16-.3,4.59-.53,8.9-1.67,12.82-3.39,4.72,2.23,9.88,3.53,15.77,3.99.1.01.21.02.32.02,0,.84.01,1.67.02,2.51.01,1.04.02,2.09.02,3.14Z"/>
      <path class="cls-11" d="M480.87,184.36c-.02-1.35-.03-2.7-.02-4.04,0-.35-.06-.63-.09-.81l-.02-.07c-.16-1.04-1.03-1.82-2.09-1.89l-.73-.04c-.53-.03-1.06-.07-1.58-.11-5.48-.43-10.24-1.65-14.54-3.74-1.02-.5-2.03-.51-3.07-.04-3.61,1.62-7.6,2.7-11.88,3.19-1.13.13-2.25.23-3.45.33-.55.04-1.1.09-1.66.14-1.17.11-2.07,1.08-2.07,2.23v.91c0,.99,0,1.99-.01,2.99-.01,2.28-.02,4.65.04,6.99.06,2.27.15,4.69.56,7.08,1.83,10.85,7.85,19.03,17.9,24.31.72.38,1.42.57,2.12.57s1.37-.18,2.07-.55c11.32-6,17.5-15.46,18.36-28.12.21-3.13.18-6.28.15-9.33ZM476.18,193.39c-.76,11.14-5.96,19.13-15.9,24.43-8.83-4.66-13.92-11.56-15.52-21.08-.36-2.1-.44-4.34-.5-6.46-.06-2.27-.05-4.6-.03-6.85,0-.62.01-1.24.01-1.86,1.04-.08,2.11-.18,3.16-.3,4.59-.53,8.9-1.67,12.82-3.39,4.72,2.23,9.88,3.53,15.77,3.99.1.01.21.02.32.02,0,.84.01,1.67.02,2.51.01,1.04.02,2.09.02,3.14,0,1.96-.03,3.93-.16,5.85Z"/>
      <path class="cls-13" d="M468.15,194.81c-.27-.46-.58-.92-.93-1.36-.26-.32-.53-.64-.9-.94.04.3.08.53.1.77,0,.02,0,.04,0,.05.06.72.08,1.43-.14,2.12-.07.23-.17.46-.31.67-.33.57-.83.89-1.51.82-.7-.07-1.01-.55-1.19-1.15-.01-.02-.02-.05-.03-.07-.2-.7-.17-1.42-.09-2.14.14-1.2-.01-2.34-.39-3.44-.18-.54-.43-1.07-.73-1.59-.83-1.45-1.91-2.72-3.06-3.93-.09-.06-.12-.09-.21-.14-.02-.01-.11-.05-.12-.07,0,0,.49,3.33-3.16,7.33-.48.39-.93.84-1.35,1.33-.3.34-.58.7-.84,1.08h0c-1.4,2.01-2.27,4.42-2.27,6.6,0,4.32,3.25,7.61,7.42,8.32,0,0,.02,0,.04,0,1.81.48,3.46-.02,3.46-.02,0,0,.01,0,.04-.01h0c1.25-.24,2.43-.71,3.46-1.4,0,0,0-.01.01-.01,1.36-.86,2.44-2.06,3.13-3.67,0-.01.01-.03.01-.04.32-.69.55-1.43.69-2.23.48-2.42.11-4.73-1.16-6.88ZM466.87,204.5c-.39.95-.96,1.78-1.72,2.48-.6.55-1.22,1.09-2.07,1.26.14-.18.29-.35.45-.52.81-.91,1.07-1.98.92-3.17-.17-1.43-.99-2.5-1.91-3.54-.64-.73-1.25-1.5-1.61-2.43-.14-.36-.18-.73-.24-1.1-.04-.18-.09-.17-.2-.06-.82.84-1.38,1.79-1.47,2.99-.05.69.19,1.34.14,2.02-.05.58-.6,1.05-1.15.91-.36-.08-.71-.59-.77-1.06-.03-.29-.07-.58-.04-.88-.35.41-.64.82-.83,1.29-.35.85-.48,1.74-.36,2.63.1.73.33,1.44.76,2.07.26.36.58.65.87.98,0,0,.02.01.03.01-.04,0-.06-.01-.09-.03-.02,0-.04,0-.06-.01-.01,0-.02,0-.03,0h-.01c-.06-.01-.11-.03-.16-.05-.31-.12-.58-.3-.87-.46-.99-.58-1.76-1.39-2.35-2.35-.44-.73-.67-1.55-.8-2.38-.16-1.03,0-2.02.28-2.99.27-.92.73-1.77,1.27-2.57.41-.6.87-1.17,1.33-1.73.68-.81,1.4-1.6,2.05-2.43.6-.78,1.14-1.6,1.56-2.49.04-.09.06-.21.16-.22.11-.01.14.11.19.18.43.56.82,1.14,1.09,1.78.28.66.42,1.36.44,2.07.01.38,0,.76.03,1.14.01.44.08.87.23,1.31.44,1.17,1.44,1.94,2.72,1.9.74-.02,1.36-.34,1.9-.82.36-.33.34-.34.5.11.34,1.05.52,2.12.48,3.23-.04,1.03-.26,2.02-.66,2.97Z"/>
      <path class="cls-11" d="M463.09,208.24c.14-.18.29-.35.45-.52.81-.91,1.07-1.98.92-3.17-.17-1.43-.99-2.5-1.91-3.54-.64-.73-1.25-1.5-1.61-2.43-.14-.36-.18-.73-.24-1.1-.04-.18-.09-.17-.2-.06-.82.84-1.38,1.79-1.47,2.99-.05.69.19,1.34.14,2.02-.05.58-.6,1.05-1.15.91-.36-.08-.71-.59-.77-1.06-.03-.29-.07-.58-.04-.88-.35.41-.64.82-.83,1.29-.35.85-.48,1.74-.36,2.63.1.73.33,1.44.76,2.07.26.36.58.65.87.98,0,0,.02.01.03.01-.04,0-.06-.01-.09-.03-.02,0-.04,0-.06-.01-.01,0-.02,0-.03,0h-.01c-.06-.01-.11-.03-.16-.05-.31-.12-.58-.3-.87-.46-.99-.58-1.76-1.39-2.35-2.35-.44-.73-.67-1.55-.8-2.38-.16-1.03,0-2.02.28-2.99.27-.92.73-1.77,1.27-2.57.41-.6.87-1.17,1.33-1.73.68-.81,1.4-1.6,2.05-2.43.6-.78,1.14-1.6,1.56-2.49.04-.09.06-.21.16-.22.11-.01.14.11.19.18.43.56.82,1.14,1.09,1.78.28.66.42,1.36.44,2.07.01.38,0,.76.03,1.14.01.44.08.87.23,1.31.44,1.17,1.44,1.94,2.72,1.9.74-.02,1.36-.34,1.9-.82.36-.33.34-.34.5.11.34,1.05.52,2.12.48,3.23-.04,1.03-.26,2.02-.66,2.97-.39.95-.96,1.78-1.72,2.48-.6.55-1.22,1.09-2.07,1.26Z"/>
    </g>
    <g>
      <g>
        <path class="cls-5" d="M437.12,364.65c-9.44,0-17.13-7.58-17.13-16.9v-42.32c0-9.32,7.68-16.9,17.13-16.9h46.32c9.44,0,17.13,7.58,17.13,16.9v42.32c0,9.32-7.68,16.9-17.13,16.9h-46.32Z"/>
        <path class="cls-13" d="M483.43,290.42c8.4,0,15.21,6.72,15.21,15.01v42.32c0,8.29-6.81,15.01-15.21,15.01h-46.32c-8.4,0-15.21-6.72-15.21-15.01v-42.32c0-8.29,6.81-15.01,15.21-15.01h46.32M483.43,286.63h-46.32c-10.5,0-19.04,8.43-19.04,18.8v42.32c0,10.37,8.54,18.8,19.04,18.8h46.32c10.5,0,19.04-8.43,19.04-18.8v-42.32c0-10.37-8.54-18.8-19.04-18.8h0Z"/>
      </g>
      <g>
        <rect class="cls-5" x="419.92" y="346.19" width="80.7" height="81.84" rx="16.25" ry="16.25"/>
        <path class="cls-13" d="M484.38,348.08c7.91,0,14.35,6.44,14.35,14.35v49.35c0,7.91-6.44,14.35-14.35,14.35h-48.21c-7.91,0-14.35-6.44-14.35-14.35v-49.35c0-7.91,6.44-14.35,14.35-14.35h48.21M484.38,344.29h-48.21c-10,0-18.14,8.14-18.14,18.14v49.35c0,10,8.14,18.14,18.14,18.14h48.21c10,0,18.14-8.14,18.14-18.14v-49.35c0-10-8.14-18.14-18.14-18.14h0Z"/>
      </g>
      <g>
        <g>
          <path class="cls-5" d="M437.09,399.02c-9.46,0-17.15-7.58-17.15-16.9v-45.72c0-9.32,7.69-16.9,17.15-16.9h46.37c9.46,0,17.15,7.58,17.15,16.9v45.72c0,9.32-7.69,16.9-17.15,16.9h-46.37Z"/>
          <path class="cls-13" d="M483.46,321.39c8.41,0,15.23,6.72,15.23,15.01v45.72c0,8.29-6.82,15.01-15.23,15.01h-46.37c-8.41,0-15.23-6.72-15.23-15.01v-45.72c0-8.29,6.82-15.01,15.23-15.01h46.37M483.46,317.6h-46.37c-10.51,0-19.07,8.43-19.07,18.8v45.72c0,10.37,8.55,18.8,19.07,18.8h46.37c10.51,0,19.07-8.43,19.07-18.8v-45.72c0-10.37-8.55-18.8-19.07-18.8h0Z"/>
        </g>
        <path class="cls-13" d="M447,354.9h19.25c.48,0,.86-.38.86-.85s-.39-.85-.86-.85h-4.09v-4.84l2,1.95c.34.33.89.33,1.22,0,.34-.33.33-.87,0-1.21h0l-3.49-3.41c-.34-.33-.88-.33-1.22,0l-3.49,3.45c-.34.33-.34.87,0,1.21s.89.33,1.22,0l2.04-2.01v4.86h-6.92v-9.11l2,1.95c.33.34.88.35,1.22.03s.36-.87.03-1.21c-.01-.01-.02-.02-.03-.03l-3.49-3.41c-.34-.33-.88-.33-1.22,0l-3.5,3.45c-.34.33-.34.87,0,1.21.34.33.89.33,1.22,0l2.03-2.01v9.13h-4.77c-.48,0-.86.38-.86.85s.39.85.86.85Z"/>
        <path class="cls-13" d="M466.25,356.18h-19.25c-.48,0-.86.38-.86.85s.39.85.86.85h19.25c.48,0,.86-.38.86-.85s-.39-.85-.86-.85Z"/>
        <path class="cls-2" d="M456.62,335.78c8.34,0,15.11,6.67,15.11,14.89,0,8.22-6.76,14.89-15.1,14.89-8.34,0-15.11-6.67-15.11-14.89,0,0,0,0,0,0,0-8.22,6.77-14.88,15.1-14.89M456.62,331.54c-10.72,0-19.4,8.56-19.4,19.13s8.69,19.13,19.4,19.13,19.4-8.56,19.4-19.13h0c0-10.56-8.68-19.13-19.4-19.13,0,0,0,0,0,0Z"/>
        <rect class="cls-2" x="479.17" y="339.45" width="4.16" height="30.3"/>
        <rect class="cls-2" x="479.17" y="331.5" width="4.16" height="3.85"/>
        <g>
          <path class="cls-11" d="M452.72,382.59c0,.82-.16,1.51-.47,2.09-.31.57-.74,1.01-1.28,1.31-.54.3-1.14.45-1.82.45s-1.28-.15-1.82-.45c-.54-.3-.96-.74-1.27-1.32-.31-.57-.47-1.27-.47-2.09s.16-1.51.47-2.09c.31-.57.74-1.01,1.27-1.31s1.15-.45,1.82-.45,1.28.15,1.82.45c.54.3.97.74,1.28,1.31.31.57.47,1.27.47,2.09ZM451.09,382.59c0-.53-.08-.98-.24-1.34-.16-.36-.38-.64-.67-.83-.29-.19-.63-.28-1.02-.28s-.73.09-1.02.28c-.29.19-.52.46-.68.83-.16.36-.24.81-.24,1.34s.08.98.24,1.34c.16.36.39.64.68.83.29.19.63.28,1.02.28s.73-.09,1.02-.28c.29-.19.52-.46.67-.83.16-.36.24-.81.24-1.34Z"/>
          <path class="cls-11" d="M455.52,378.84v7.51h-1.61v-7.51h1.61Z"/>
          <path class="cls-11" d="M456.84,386.34v-7.51h3.05c.56,0,1.03.08,1.4.25.37.16.66.39.84.68s.28.62.28,1c0,.29-.06.55-.18.77-.12.22-.28.4-.49.54s-.44.24-.71.3v.07c.29.01.56.09.82.24s.46.36.62.62.24.59.24.95c0,.4-.1.75-.3,1.07s-.49.56-.88.74c-.39.18-.87.27-1.44.27h-3.25ZM458.45,381.98h1.19c.22,0,.42-.04.59-.12.17-.08.31-.19.41-.33.1-.14.15-.31.15-.51,0-.27-.1-.49-.29-.66-.2-.17-.47-.25-.83-.25h-1.22v1.86ZM458.45,385.05h1.31c.45,0,.78-.08.98-.25s.31-.4.31-.68c0-.21-.05-.39-.15-.55-.1-.16-.25-.28-.43-.37s-.41-.14-.67-.14h-1.35v1.99Z"/>
          <path class="cls-11" d="M467.39,383.95v-3.23h1.58v5.63h-1.52v-1.02h-.06c-.13.33-.34.6-.64.8-.3.2-.66.3-1.09.3-.38,0-.72-.09-1.01-.26-.29-.17-.52-.41-.68-.73-.16-.32-.24-.69-.25-1.13v-3.58h1.58v3.31c0,.33.09.6.27.79.18.19.42.29.72.29.19,0,.37-.04.54-.13.17-.09.3-.22.4-.39.1-.17.15-.38.15-.63Z"/>
          <path class="cls-11" d="M474.99,382.32l-1.45.09c-.02-.12-.08-.23-.16-.33-.08-.1-.19-.18-.32-.24-.13-.06-.29-.09-.47-.09-.25,0-.45.05-.62.15s-.25.24-.25.41c0,.13.05.25.16.34.11.09.3.17.56.22l1.03.21c.56.11.97.29,1.24.54s.41.58.41.98c0,.37-.11.69-.33.97s-.52.5-.9.65c-.38.16-.82.23-1.31.23-.76,0-1.36-.16-1.8-.47-.45-.31-.71-.74-.79-1.27l1.56-.08c.05.23.16.4.34.52s.41.18.7.18.5-.05.67-.16c.17-.11.26-.24.26-.41,0-.14-.06-.26-.18-.35-.12-.09-.3-.16-.55-.21l-.99-.19c-.56-.11-.97-.3-1.24-.57-.27-.27-.41-.62-.41-1.04,0-.36.1-.67.3-.93s.48-.46.84-.61.79-.21,1.28-.21c.72,0,1.29.15,1.7.45.42.3.66.71.73,1.23Z"/>
        </g>
      </g>
    </g>
    <g>
      <path class="cls-12" d="M463.21,164.66h-5v-81.54c0-6.44-5.47-11.67-12.19-11.67h-94.94v-5h94.94c9.48,0,17.19,7.48,17.19,16.67v81.54Z"/>
      <polygon class="cls-12" points="361.04 77.43 352.55 68.95 361.04 60.47 353.84 60.47 345.36 68.95 353.84 77.43 361.04 77.43"/>
    </g>
    <g>
      <path class="cls-3" d="M453.4,413.66c0,.79-.15,1.47-.45,2.02-.3.56-.71.98-1.22,1.27-.52.29-1.09.44-1.73.44s-1.23-.15-1.74-.44c-.51-.29-.92-.72-1.22-1.28-.3-.56-.45-1.23-.45-2.02s.15-1.47.45-2.02c.3-.56.7-.98,1.22-1.27.51-.29,1.09-.44,1.74-.44s1.22.15,1.73.44.92.72,1.22,1.27c.3.56.45,1.23.45,2.02ZM451.84,413.66c0-.51-.08-.95-.23-1.3-.15-.35-.37-.62-.64-.8-.28-.18-.6-.27-.97-.27s-.7.09-.97.27c-.28.18-.49.45-.64.8-.15.35-.23.79-.23,1.3s.08.95.23,1.3c.15.35.37.62.64.8.28.18.6.27.97.27s.7-.09.97-.27.49-.45.64-.8c.15-.35.23-.79.23-1.3Z"/>
      <path class="cls-3" d="M457.11,417.3h-2.58v-7.27h2.6c.73,0,1.36.14,1.89.43s.93.71,1.22,1.25c.29.54.43,1.19.43,1.95s-.14,1.41-.43,1.95c-.29.54-.69.96-1.23,1.25-.53.29-1.17.44-1.9.44ZM456.07,415.98h.98c.45,0,.84-.08,1.15-.24.31-.16.55-.41.7-.76.16-.34.24-.78.24-1.33s-.08-.98-.24-1.32c-.16-.34-.39-.59-.7-.75s-.69-.24-1.15-.24h-.98v4.64Z"/>
      <path class="cls-3" d="M461.81,417.3v-7.27h2.91c.54,0,.98.08,1.34.24.36.16.63.38.81.66.18.28.27.6.27.97,0,.28-.06.53-.17.75-.11.21-.27.39-.47.53-.2.14-.42.23-.68.29v.07c.28.01.54.09.78.23.24.14.44.35.59.61.15.26.23.57.23.92,0,.39-.1.73-.29,1.03s-.47.54-.84.72c-.37.17-.83.26-1.37.26h-3.11ZM463.35,413.07h1.14c.21,0,.4-.04.56-.11.16-.08.29-.18.39-.32.1-.14.14-.3.14-.49,0-.26-.09-.47-.28-.64-.19-.16-.45-.24-.79-.24h-1.17v1.8ZM463.35,416.04h1.25c.43,0,.74-.08.94-.25.2-.16.29-.38.29-.66,0-.2-.05-.38-.15-.53-.1-.15-.23-.27-.41-.36s-.39-.13-.64-.13h-1.29v1.93Z"/>
      <path class="cls-3" d="M474.83,412.57h-1.56c-.03-.2-.09-.38-.17-.54-.09-.16-.2-.29-.34-.4-.14-.11-.3-.2-.47-.25-.18-.06-.37-.09-.58-.09-.38,0-.7.09-.98.28s-.5.46-.65.81c-.15.35-.23.78-.23,1.29s.08.95.23,1.31c.15.35.37.62.65.8s.6.27.97.27c.21,0,.4-.03.57-.08.18-.05.33-.13.47-.24s.25-.23.34-.39c.09-.15.15-.32.19-.52h1.56c-.04.34-.14.66-.3.97s-.37.58-.64.83c-.27.24-.59.43-.96.58-.37.14-.79.21-1.26.21-.65,0-1.23-.15-1.74-.44s-.91-.72-1.21-1.28c-.29-.56-.44-1.23-.44-2.02s.15-1.47.45-2.02c.3-.56.7-.98,1.21-1.27.51-.29,1.09-.44,1.73-.44.42,0,.81.06,1.17.18.36.12.68.29.96.52.28.23.51.5.68.83.18.33.29.7.34,1.12Z"/>
    </g>
    <g>
      <path class="cls-3" d="M443.4,307.41h-1.65l2.51-7.27h1.98l2.51,7.27h-1.65l-1.82-5.61h-.06l-1.83,5.61ZM443.3,304.56h3.89v1.2h-3.89v-1.2Z"/>
      <path class="cls-3" d="M450.52,307.41l-2.08-7.27h1.68l1.2,5.05h.06l1.33-5.05h1.44l1.32,5.06h.06l1.2-5.06h1.68l-2.08,7.27h-1.5l-1.38-4.75h-.06l-1.38,4.75h-1.5Z"/>
      <path class="cls-3" d="M463.12,302.23c-.03-.29-.15-.51-.37-.67-.22-.16-.51-.24-.88-.24-.25,0-.46.04-.64.11-.17.07-.3.17-.4.29-.09.12-.14.26-.14.42,0,.13.02.24.08.34.06.1.14.18.25.25.11.07.23.13.37.18s.29.09.45.13l.65.16c.32.07.61.17.87.28.27.12.49.26.69.44.19.17.35.38.45.61.11.23.16.5.17.81,0,.45-.12.83-.34,1.16-.22.33-.55.58-.97.76-.42.18-.93.27-1.52.27s-1.1-.09-1.53-.27c-.43-.18-.77-.45-1.02-.8-.24-.35-.37-.79-.38-1.32h1.49c.02.24.09.45.21.61.12.16.29.28.5.37s.45.12.71.12.49-.04.68-.11c.19-.08.34-.18.45-.32.11-.13.16-.29.16-.46,0-.16-.05-.3-.14-.41-.1-.11-.24-.21-.42-.28-.18-.08-.41-.15-.67-.21l-.79-.2c-.61-.15-1.1-.38-1.45-.7s-.53-.74-.53-1.28c0-.44.12-.82.35-1.15s.56-.59.98-.77c.42-.19.89-.28,1.42-.28s1.01.09,1.42.28c.4.18.72.44.94.77s.34.71.35,1.14h-1.47Z"/>
      <path class="cls-3" d="M471.99,302.23c-.03-.29-.15-.51-.37-.67-.22-.16-.51-.24-.88-.24-.25,0-.46.04-.64.11-.17.07-.3.17-.4.29-.09.12-.14.26-.14.42,0,.13.02.24.08.34.06.1.14.18.25.25.11.07.23.13.37.18s.29.09.45.13l.65.16c.32.07.61.17.87.28.27.12.49.26.69.44.19.17.35.38.45.61.11.23.16.5.17.81,0,.45-.12.83-.34,1.16-.22.33-.55.58-.97.76-.42.18-.93.27-1.52.27s-1.1-.09-1.53-.27c-.43-.18-.77-.45-1.02-.8-.24-.35-.37-.79-.38-1.32h1.49c.02.24.09.45.21.61.12.16.29.28.5.37s.45.12.71.12.49-.04.68-.11c.19-.08.34-.18.45-.32.11-.13.16-.29.16-.46,0-.16-.05-.3-.14-.41-.1-.11-.24-.21-.42-.28-.18-.08-.41-.15-.67-.21l-.79-.2c-.61-.15-1.1-.38-1.45-.7s-.53-.74-.53-1.28c0-.44.12-.82.35-1.15s.56-.59.98-.77c.42-.19.89-.28,1.42-.28s1.01.09,1.42.28c.4.18.72.44.94.77s.34.71.35,1.14h-1.47Z"/>
      <path class="cls-3" d="M477.24,307.51c-.53,0-1-.09-1.42-.28-.41-.18-.74-.44-.98-.76-.24-.32-.36-.7-.37-1.12h1.55c0,.18.07.33.18.47.11.13.25.24.43.31.18.07.38.11.61.11s.44-.04.62-.12c.18-.08.32-.2.42-.34.1-.15.15-.32.15-.51s-.05-.37-.16-.52-.26-.27-.46-.35c-.2-.09-.44-.13-.71-.13h-.68v-1.13h.68c.23,0,.44-.04.62-.12.18-.08.32-.19.42-.34.1-.14.15-.31.15-.5s-.04-.34-.13-.48-.21-.25-.36-.33c-.16-.08-.34-.12-.54-.12s-.4.04-.57.11c-.17.07-.31.18-.42.32-.1.14-.16.3-.17.48h-1.47c0-.42.13-.79.36-1.11.23-.32.54-.57.94-.75.39-.18.84-.27,1.34-.27s.94.09,1.32.27c.38.18.67.43.88.74.21.31.31.66.31,1.04,0,.41-.12.75-.38,1.02-.25.27-.58.45-.99.52v.06c.53.07.94.25,1.22.56.28.3.42.68.42,1.13,0,.41-.12.78-.36,1.1s-.57.58-.99.76-.9.28-1.45.28Z"/>
    </g>
    <g>
      <path class="cls-10" d="M475.58,267.05v-6h-.11c-.27,0-.45-.03-.55-.09s-.15-.17-.15-.33c0-.14.04-.25.12-.32s.2-.11.35-.11h.89c.11,0,.19.02.25.06s.09.1.09.18v2.65c.29-.27.57-.46.85-.59s.57-.19.87-.19c.59,0,1.05.18,1.39.55s.51.88.51,1.52v2.65h.28c.2,0,.34.03.42.1s.13.17.13.31-.04.25-.12.32c-.08.07-.2.11-.35.11h-1.56c-.18,0-.31-.03-.37-.09-.06-.06-.1-.17-.1-.33s.04-.26.12-.32c.08-.06.23-.08.46-.08h.21v-2.44c0-.46-.1-.81-.31-1.05-.21-.24-.51-.36-.9-.36s-.76.13-1.06.4c-.3.27-.46.6-.46,1v2.44h.21c.23,0,.39.03.47.09s.12.16.12.32c0,.16-.03.27-.1.33s-.19.09-.37.09h-1.56c-.15,0-.27-.04-.34-.11s-.11-.18-.11-.32c0-.16.05-.26.14-.32s.27-.08.54-.08h.12Z"/>
      <path class="cls-10" d="M486.58,262.79c.19,0,.33.03.42.1s.13.17.13.32c0,.14-.04.24-.12.31s-.21.1-.37.1h-2.37v1.96c0,.64.08,1.06.25,1.27s.45.3.85.3c.36,0,.78-.1,1.28-.31s.8-.31.92-.31c.11,0,.2.04.28.12s.11.17.11.29c0,.13-.05.24-.14.34s-.26.19-.49.28c-.38.15-.73.26-1.03.33s-.59.11-.86.11c-.46,0-.84-.07-1.15-.22s-.54-.36-.69-.65c-.08-.14-.13-.3-.17-.49s-.05-.48-.05-.87v-2.14h-1c-.16,0-.28-.03-.36-.1s-.11-.17-.11-.31c0-.16.05-.27.15-.33s.32-.09.65-.09h.66v-1.51c0-.17.04-.29.11-.37s.18-.12.34-.12c.17,0,.29.05.36.15s.1.32.1.67v1.19h2.31Z"/>
      <path class="cls-10" d="M493.78,262.79c.19,0,.33.03.42.1s.13.17.13.32c0,.14-.04.24-.12.31s-.21.1-.37.1h-2.37v1.96c0,.64.08,1.06.25,1.27s.45.3.85.3c.36,0,.78-.1,1.28-.31s.8-.31.92-.31c.11,0,.2.04.28.12s.11.17.11.29c0,.13-.05.24-.14.34s-.26.19-.49.28c-.38.15-.73.26-1.03.33s-.59.11-.86.11c-.46,0-.84-.07-1.15-.22s-.54-.36-.69-.65c-.08-.14-.13-.3-.17-.49s-.05-.48-.05-.87v-2.14h-1c-.16,0-.28-.03-.36-.1s-.11-.17-.11-.31c0-.16.05-.27.15-.33s.32-.09.65-.09h.66v-1.51c0-.17.04-.29.11-.37s.18-.12.34-.12c.17,0,.29.05.36.15s.1.32.1.67v1.19h2.31Z"/>
      <path class="cls-10" d="M497.87,269.37h1.41c.15,0,.26.04.33.11s.11.18.11.32c0,.15-.04.26-.11.32s-.2.09-.38.09h-2.58c-.16,0-.27-.04-.35-.11s-.12-.17-.12-.31c0-.16.05-.27.15-.33s.28-.09.55-.09h.11v-6.08h-.11c-.27,0-.45-.03-.55-.09s-.15-.17-.15-.33c0-.14.04-.24.12-.31s.2-.1.35-.1h.89c.12,0,.2.02.25.06s.08.1.08.18v.57c.27-.27.56-.48.88-.62s.67-.21,1.04-.21c.79,0,1.44.27,1.97.8s.79,1.2.79,2-.25,1.4-.75,1.9-1.14.74-1.92.74c-.41,0-.79-.07-1.14-.22s-.64-.36-.87-.63v2.34ZM499.69,267.03c.54,0,.99-.17,1.34-.51s.52-.78.52-1.33-.17-.97-.52-1.32-.79-.52-1.33-.52-.98.17-1.32.52-.52.78-.52,1.32.17.98.51,1.32.78.52,1.33.52Z"/>
      <path class="cls-10" d="M504.03,267.45v-1.04c0-.17.03-.29.1-.37s.17-.11.31-.11c.16,0,.29.11.38.33.06.13.12.23.17.3.16.21.41.38.73.51s.67.19,1.06.19c.41,0,.75-.08,1-.25s.38-.39.38-.66-.1-.47-.3-.59-.55-.18-1.03-.18h-.32c-.8,0-1.4-.14-1.82-.42s-.63-.68-.63-1.21.2-.92.61-1.2.98-.43,1.72-.43c.3,0,.61.04.92.13s.48.13.49.13c.04,0,.12-.04.25-.11s.24-.11.36-.11c.13,0,.23.05.3.15s.1.24.1.44v.69c0,.21-.03.36-.09.45s-.16.14-.3.14c-.12,0-.26-.1-.43-.3-.12-.14-.22-.24-.3-.31-.21-.19-.43-.33-.66-.41s-.51-.13-.83-.13c-.37,0-.66.08-.89.24s-.34.37-.34.62.12.42.35.53.73.17,1.49.18c.81.02,1.41.16,1.78.42s.56.67.56,1.22-.21.95-.62,1.27-.97.47-1.68.47c-.22,0-.47-.02-.74-.06s-.62-.11-1.03-.21c-.14.09-.25.16-.35.2s-.18.07-.25.07c-.14,0-.24-.05-.31-.14s-.11-.23-.11-.41Z"/>
    </g>
    <g>
      <path class="cls-10" d="M475.58,463.78v-6h-.11c-.27,0-.45-.03-.55-.09s-.15-.17-.15-.33c0-.14.04-.25.12-.32s.2-.11.35-.11h.89c.11,0,.19.02.25.06s.09.1.09.18v2.65c.29-.27.57-.46.85-.59s.57-.19.87-.19c.59,0,1.05.18,1.39.55s.51.88.51,1.52v2.65h.28c.2,0,.34.03.42.1s.13.17.13.31-.04.25-.12.32c-.08.07-.2.11-.35.11h-1.56c-.18,0-.31-.03-.37-.09-.06-.06-.1-.17-.1-.33s.04-.26.12-.32c.08-.06.23-.09.46-.09h.21v-2.44c0-.46-.1-.8-.31-1.04-.21-.24-.51-.36-.9-.36s-.76.13-1.06.4c-.3.27-.46.6-.46,1v2.44h.21c.23,0,.39.03.47.09s.12.16.12.32c0,.16-.03.27-.1.33s-.19.09-.37.09h-1.56c-.15,0-.27-.04-.34-.11s-.11-.18-.11-.32c0-.16.05-.26.14-.32s.27-.09.54-.09h.12Z"/>
      <path class="cls-10" d="M486.58,459.52c.19,0,.33.03.42.1s.13.17.13.32c0,.14-.04.24-.12.31s-.21.1-.37.1h-2.37v1.96c0,.64.08,1.06.25,1.27s.45.3.85.3c.36,0,.78-.1,1.28-.31s.8-.31.92-.31c.11,0,.2.04.28.12s.11.17.11.29c0,.13-.05.24-.14.34s-.26.19-.49.28c-.38.15-.73.26-1.03.33s-.59.11-.86.11c-.46,0-.84-.07-1.15-.22s-.54-.37-.69-.65c-.08-.14-.13-.3-.17-.49s-.05-.48-.05-.87v-2.14h-1c-.16,0-.28-.03-.36-.1s-.11-.17-.11-.31c0-.16.05-.27.15-.33s.32-.09.65-.09h.66v-1.51c0-.17.04-.29.11-.37s.18-.12.34-.12c.17,0,.29.05.36.15s.1.32.1.67v1.19h2.31Z"/>
      <path class="cls-10" d="M493.78,459.52c.19,0,.33.03.42.1s.13.17.13.32c0,.14-.04.24-.12.31s-.21.1-.37.1h-2.37v1.96c0,.64.08,1.06.25,1.27s.45.3.85.3c.36,0,.78-.1,1.28-.31s.8-.31.92-.31c.11,0,.2.04.28.12s.11.17.11.29c0,.13-.05.24-.14.34s-.26.19-.49.28c-.38.15-.73.26-1.03.33s-.59.11-.86.11c-.46,0-.84-.07-1.15-.22s-.54-.37-.69-.65c-.08-.14-.13-.3-.17-.49s-.05-.48-.05-.87v-2.14h-1c-.16,0-.28-.03-.36-.1s-.11-.17-.11-.31c0-.16.05-.27.15-.33s.32-.09.65-.09h.66v-1.51c0-.17.04-.29.11-.37s.18-.12.34-.12c.17,0,.29.05.36.15s.1.32.1.67v1.19h2.31Z"/>
      <path class="cls-10" d="M497.87,466.11h1.41c.15,0,.26.04.33.11s.11.18.11.32c0,.15-.04.26-.11.32s-.2.09-.38.09h-2.58c-.16,0-.27-.04-.35-.11s-.12-.17-.12-.31c0-.16.05-.27.15-.33s.28-.09.55-.09h.11v-6.08h-.11c-.27,0-.45-.03-.55-.09s-.15-.17-.15-.33c0-.14.04-.24.12-.31s.2-.1.35-.1h.89c.12,0,.2.02.25.06s.08.1.08.18v.57c.27-.27.56-.48.88-.62s.67-.21,1.04-.21c.79,0,1.44.27,1.97.8s.79,1.2.79,2-.25,1.4-.75,1.9-1.14.74-1.92.74c-.41,0-.79-.07-1.14-.22s-.64-.36-.87-.63v2.34ZM499.69,463.76c.54,0,.99-.17,1.34-.51s.52-.79.52-1.33-.17-.97-.52-1.31-.79-.52-1.33-.52-.98.17-1.32.52-.52.78-.52,1.32.17.98.51,1.32.78.52,1.33.52Z"/>
    </g>
    <path class="cls-9" d="M491.05,438.21h-153.44c-11.81,0-21.42-9.61-21.42-21.42v-117.82c0-11.81,9.61-21.42,21.42-21.42h153.44c11.81,0,21.42,9.61,21.42,21.42v117.82c0,11.81-9.61,21.42-21.42,21.42ZM337.62,279.56c-10.71,0-19.42,8.71-19.42,19.42v117.82c0,10.71,8.71,19.42,19.42,19.42h153.44c10.71,0,19.42-8.71,19.42-19.42v-117.82c0-10.71-8.71-19.42-19.42-19.42h-153.44Z"/>
    <g>
      <path class="cls-13" d="M331.76,357.89h-2.34v-11.38h2.34v11.38Z"/>
      <path class="cls-13" d="M336.28,353.88v4.01h-2.34v-11.38h4.44c.85,0,1.61.16,2.25.47s1.15.76,1.5,1.33c.35.58.52,1.23.52,1.96,0,1.11-.38,1.99-1.14,2.64-.76.64-1.82.96-3.17.96h-2.05ZM336.28,351.98h2.09c.62,0,1.09-.15,1.42-.44.33-.29.49-.71.49-1.25s-.16-1.01-.49-1.35-.78-.52-1.36-.53h-2.15v3.57Z"/>
      <path class="cls-13" d="M344.21,350.38c0-.36.12-.65.36-.88s.55-.34.91-.34.68.11.92.34.36.52.36.88-.12.64-.36.86c-.24.22-.55.33-.92.33s-.67-.11-.91-.33c-.24-.22-.36-.51-.36-.86ZM344.21,356.78c0-.36.12-.65.36-.88s.55-.34.91-.34.68.11.92.34.36.52.36.88-.12.64-.36.86c-.24.22-.55.33-.92.33s-.67-.11-.91-.33c-.24-.22-.36-.51-.36-.86Z"/>
    </g>
    <g>
      <path class="cls-10" d="M329.37,371.05v-.86h2.4v-7.07l-2.38,1.78v-1.09l2.04-1.51h1.28v7.9h1.98v.86h-5.33Z"/>
      <path class="cls-10" d="M337.85,371.05l2.26-3.85-.04-.02c-.09.13-.25.24-.49.34-.24.1-.51.14-.8.14-.5,0-.93-.11-1.31-.34-.38-.22-.67-.54-.88-.94s-.32-.86-.32-1.39c0-.56.12-1.05.35-1.48s.56-.75.98-.99c.42-.24.9-.35,1.44-.35s1.04.12,1.46.35c.42.24.75.56.98.98.24.42.35.9.35,1.45,0,.38-.07.77-.2,1.17-.14.4-.32.8-.56,1.22l-2.11,3.71h-1.1ZM339.05,366.89c.54,0,.98-.18,1.32-.53.34-.36.51-.82.52-1.4,0-.58-.17-1.04-.51-1.4-.34-.36-.78-.54-1.33-.54s-.98.18-1.32.54c-.34.36-.5.83-.5,1.42s.17,1.03.5,1.39c.34.36.78.53,1.32.53Z"/>
      <path class="cls-10" d="M343.72,371.05v-.88l2.98-3.18c.42-.43.72-.84.9-1.21s.28-.74.28-1.1c0-.5-.15-.91-.44-1.21s-.7-.46-1.2-.46-.92.16-1.23.47c-.31.31-.46.72-.46,1.24h-.95c.02-.78.26-1.39.74-1.85.48-.46,1.11-.69,1.9-.69s1.43.23,1.9.68.71,1.07.71,1.84c0,.43-.12.88-.35,1.36-.23.47-.61.98-1.13,1.54l-2.5,2.6h4.08v.86h-5.23Z"/>
      <path class="cls-10" d="M353.45,371.17c-.29,0-.52-.09-.7-.26-.18-.17-.26-.4-.26-.68s.09-.51.26-.69c.18-.18.41-.27.7-.27s.52.09.7.27.26.41.26.69-.09.51-.26.68-.41.26-.7.26Z"/>
      <path class="cls-10" d="M358.17,371.05v-.86h2.4v-7.07l-2.38,1.78v-1.09l2.04-1.51h1.28v7.9h1.98v.86h-5.33Z"/>
      <path class="cls-10" d="M367.86,371.17c-.56,0-1.05-.12-1.47-.35-.42-.24-.75-.56-.98-.98-.23-.42-.35-.9-.35-1.45,0-.38.07-.77.22-1.17.14-.4.33-.8.56-1.22l2.09-3.71h1.06l-2.23,3.85.04.02c.1-.14.27-.25.5-.34.23-.09.49-.14.78-.14.51,0,.96.11,1.34.34.38.23.68.54.89.94.21.4.32.86.32,1.39s-.12,1.04-.35,1.46c-.23.42-.56.75-.98.99-.42.24-.9.35-1.45.35ZM367.85,370.31c.54,0,.99-.18,1.33-.53.34-.36.51-.82.51-1.4s-.17-1.04-.51-1.4c-.34-.36-.78-.54-1.33-.54s-.99.18-1.33.54c-.34.36-.51.83-.51,1.4,0,.58.16,1.04.5,1.4.34.36.79.53,1.34.53Z"/>
      <path class="cls-10" d="M375.05,371.17c-.54,0-1.02-.11-1.44-.32-.42-.22-.74-.51-.97-.89s-.35-.82-.35-1.33c0-.54.16-1.02.47-1.42.32-.4.73-.65,1.25-.75v-.04c-.45-.1-.81-.33-1.08-.69-.27-.36-.41-.77-.41-1.24s.11-.86.32-1.21c.21-.35.51-.62.89-.82.38-.2.82-.29,1.31-.29s.93.1,1.31.29.68.47.89.82c.21.35.32.75.32,1.21s-.14.89-.41,1.24c-.27.36-.63.59-1.08.69v.04c.52.1.94.35,1.25.75.32.4.47.88.47,1.42,0,.5-.12.95-.35,1.33-.23.38-.56.68-.97.89s-.9.32-1.44.32ZM375.05,370.31c.54,0,.97-.16,1.3-.47.33-.32.5-.73.5-1.23s-.17-.92-.5-1.24-.77-.48-1.3-.48-.97.16-1.3.48-.5.73-.5,1.24.17.91.5,1.23c.33.32.77.47,1.3.47ZM375.05,366.05c.46,0,.84-.14,1.13-.42s.43-.65.43-1.1-.14-.81-.43-1.1c-.29-.28-.66-.43-1.13-.43s-.84.14-1.13.43c-.29.28-.43.65-.43,1.1s.14.82.43,1.1c.29.28.66.42,1.13.42Z"/>
      <path class="cls-10" d="M382.25,371.17c-.29,0-.52-.09-.7-.26-.18-.17-.26-.4-.26-.68s.09-.51.26-.69c.18-.18.41-.27.7-.27s.52.09.7.27.26.41.26.69-.09.51-.26.68-.41.26-.7.26Z"/>
      <path class="cls-10" d="M389.45,371.17c-.79,0-1.42-.23-1.89-.7-.47-.47-.7-1.09-.7-1.88v-3.84c0-.78.23-1.41.7-1.88.47-.47,1.1-.7,1.89-.7s1.43.23,1.9.7c.46.47.7,1.09.7,1.88v3.84c0,.78-.23,1.41-.7,1.88-.47.47-1.1.7-1.89.7ZM389.45,370.35c.5,0,.91-.16,1.21-.49.3-.32.46-.75.46-1.28v-3.84c0-.53-.15-.95-.46-1.28-.3-.32-.71-.49-1.21-.49s-.91.16-1.21.49c-.3.32-.46.75-.46,1.28v3.84c0,.53.15.95.46,1.28.3.32.71.49,1.21.49ZM389.45,367.29c-.21,0-.37-.06-.5-.17s-.19-.28-.19-.49.06-.37.19-.47c.12-.11.29-.16.5-.16s.37.05.5.16c.12.11.19.27.19.47s-.06.37-.19.49c-.12.12-.29.17-.5.17Z"/>
      <path class="cls-10" d="M396.65,371.17c-.29,0-.52-.09-.7-.26-.18-.17-.26-.4-.26-.68s.09-.51.26-.69c.18-.18.41-.27.7-.27s.52.09.7.27.26.41.26.69-.09.51-.26.68-.41.26-.7.26Z"/>
      <path class="cls-10" d="M401.37,371.05v-.86h2.4v-7.07l-2.38,1.78v-1.09l2.04-1.51h1.28v7.9h1.98v.86h-5.33Z"/>
    </g>
    <g>
      <path class="cls-13" d="M333.66,522.28h-2.34v-11.38h2.34v11.38Z"/>
      <path class="cls-13" d="M338.18,518.27v4.01h-2.34v-11.38h4.44c.85,0,1.61.16,2.25.47s1.15.76,1.5,1.33c.35.58.52,1.23.52,1.96,0,1.12-.38,1.99-1.14,2.64-.76.64-1.82.96-3.17.96h-2.05ZM338.18,516.37h2.09c.62,0,1.09-.14,1.42-.44.33-.29.49-.71.49-1.25s-.16-1.01-.49-1.35-.78-.52-1.36-.53h-2.15v3.57Z"/>
      <path class="cls-13" d="M346.11,514.77c0-.36.12-.65.36-.88.24-.22.55-.34.91-.34s.68.11.92.34c.24.22.36.52.36.88s-.12.64-.36.86c-.24.22-.55.33-.92.33s-.67-.11-.91-.33c-.24-.22-.36-.51-.36-.86ZM346.11,521.17c0-.36.12-.65.36-.88.24-.22.55-.34.91-.34s.68.11.92.34c.24.22.36.52.36.88s-.12.64-.36.86c-.24.22-.55.33-.92.33s-.67-.11-.91-.33c-.24-.22-.36-.51-.36-.86Z"/>
    </g>
    <g>
      <path class="cls-10" d="M331.27,535.44v-.86h2.4v-7.07l-2.38,1.78v-1.09l2.04-1.51h1.28v7.9h1.98v.86h-5.33Z"/>
      <path class="cls-10" d="M339.75,535.44l2.26-3.85-.04-.02c-.09.13-.25.24-.49.34-.24.1-.51.14-.8.14-.5,0-.93-.11-1.31-.34-.38-.22-.67-.54-.88-.94s-.32-.86-.32-1.39c0-.56.12-1.05.35-1.48s.56-.75.98-.99.9-.35,1.44-.35,1.04.12,1.46.35.75.56.98.98c.24.42.35.9.35,1.45,0,.38-.07.77-.2,1.17-.14.4-.32.8-.56,1.22l-2.11,3.71h-1.1ZM340.95,531.28c.54,0,.98-.18,1.32-.53s.51-.82.52-1.4c0-.58-.17-1.04-.51-1.4-.34-.36-.78-.54-1.33-.54s-.98.18-1.32.54c-.34.36-.5.83-.5,1.42s.17,1.03.5,1.39c.34.36.78.53,1.32.53Z"/>
      <path class="cls-10" d="M345.62,535.44v-.88l2.98-3.18c.42-.43.72-.84.9-1.21.18-.38.28-.74.28-1.1,0-.5-.15-.91-.44-1.21-.3-.3-.7-.46-1.2-.46s-.92.16-1.23.47c-.31.31-.46.72-.46,1.24h-.95c.02-.78.26-1.39.74-1.85s1.11-.69,1.9-.69,1.43.23,1.9.68c.48.46.71,1.07.71,1.84,0,.43-.12.88-.35,1.36-.23.47-.61.98-1.13,1.54l-2.5,2.6h4.08v.86h-5.23Z"/>
      <path class="cls-10" d="M355.35,535.56c-.29,0-.52-.09-.7-.26-.18-.17-.26-.4-.26-.68s.09-.51.26-.69c.18-.18.41-.27.7-.27s.52.09.7.27.26.41.26.69-.09.51-.26.68-.41.26-.7.26Z"/>
      <path class="cls-10" d="M360.07,535.44v-.86h2.4v-7.07l-2.38,1.78v-1.09l2.04-1.51h1.28v7.9h1.98v.86h-5.33Z"/>
      <path class="cls-10" d="M369.76,535.56c-.56,0-1.05-.12-1.47-.36-.42-.23-.75-.56-.98-.98-.23-.42-.35-.9-.35-1.45,0-.38.07-.77.22-1.17.14-.4.33-.8.56-1.22l2.09-3.71h1.06l-2.23,3.85.04.03c.1-.14.27-.25.5-.34.23-.09.49-.14.78-.14.51,0,.96.11,1.34.34.38.23.68.54.89.94.21.4.32.87.32,1.39s-.12,1.04-.35,1.46c-.23.42-.56.75-.98.99-.42.24-.9.36-1.45.36ZM369.75,534.7c.54,0,.99-.18,1.33-.53.34-.36.51-.82.51-1.4s-.17-1.04-.51-1.4c-.34-.36-.78-.54-1.33-.54s-.99.18-1.33.54c-.34.36-.51.83-.51,1.4,0,.58.16,1.04.5,1.4.34.36.79.53,1.34.53Z"/>
      <path class="cls-10" d="M376.95,535.56c-.54,0-1.02-.11-1.44-.32-.42-.22-.74-.51-.97-.89-.23-.38-.35-.82-.35-1.33,0-.54.16-1.02.47-1.42s.73-.65,1.25-.75v-.04c-.45-.11-.81-.33-1.08-.69-.27-.36-.41-.77-.41-1.24s.11-.86.32-1.21.51-.62.89-.82c.38-.2.82-.29,1.31-.29s.93.1,1.31.29c.38.2.68.47.89.82s.32.75.32,1.21-.14.89-.41,1.24c-.27.36-.63.59-1.08.69v.04c.52.1.94.35,1.25.75.32.4.47.88.47,1.42,0,.5-.12.95-.35,1.33-.23.38-.56.68-.97.89-.42.21-.9.32-1.44.32ZM376.95,534.7c.54,0,.97-.16,1.3-.47s.5-.73.5-1.23-.17-.92-.5-1.24-.77-.48-1.3-.48-.97.16-1.3.48-.5.73-.5,1.24.17.91.5,1.23.77.47,1.3.47ZM376.95,530.45c.46,0,.84-.14,1.13-.42.29-.28.43-.65.43-1.1s-.14-.81-.43-1.1-.66-.43-1.13-.43-.84.14-1.13.43c-.29.28-.43.65-.43,1.1s.14.82.43,1.1c.29.28.66.42,1.13.42Z"/>
      <path class="cls-10" d="M384.15,535.56c-.29,0-.52-.09-.7-.26-.18-.17-.26-.4-.26-.68s.09-.51.26-.69c.18-.18.41-.27.7-.27s.52.09.7.27.26.41.26.69-.09.51-.26.68-.41.26-.7.26Z"/>
      <path class="cls-10" d="M391.35,535.56c-.79,0-1.42-.23-1.89-.7-.47-.47-.7-1.09-.7-1.88v-3.84c0-.79.23-1.41.7-1.88.47-.47,1.1-.7,1.89-.7s1.43.23,1.9.7c.46.47.7,1.09.7,1.88v3.84c0,.78-.23,1.41-.7,1.88-.47.47-1.1.7-1.89.7ZM391.35,534.74c.5,0,.91-.16,1.21-.49.3-.32.46-.75.46-1.28v-3.84c0-.53-.15-.96-.46-1.28-.3-.32-.71-.49-1.21-.49s-.91.16-1.21.49c-.3.32-.46.75-.46,1.28v3.84c0,.53.15.95.46,1.28.3.32.71.49,1.21.49ZM391.35,531.68c-.21,0-.37-.06-.5-.17-.12-.12-.19-.28-.19-.49s.06-.37.19-.47c.12-.11.29-.16.5-.16s.37.05.5.16c.12.11.19.27.19.47s-.06.37-.19.49c-.12.12-.29.17-.5.17Z"/>
      <path class="cls-10" d="M398.55,535.56c-.29,0-.52-.09-.7-.26-.18-.17-.26-.4-.26-.68s.09-.51.26-.69c.18-.18.41-.27.7-.27s.52.09.7.27.26.41.26.69-.09.51-.26.68-.41.26-.7.26Z"/>
      <path class="cls-10" d="M403.22,535.44v-.88l2.98-3.18c.42-.43.72-.84.9-1.21.18-.38.28-.74.28-1.1,0-.5-.15-.91-.44-1.21-.3-.3-.7-.46-1.2-.46s-.92.16-1.23.47c-.31.31-.46.72-.46,1.24h-.95c.02-.78.26-1.39.74-1.85s1.11-.69,1.9-.69,1.43.23,1.9.68c.48.46.71,1.07.71,1.84,0,.43-.12.88-.35,1.36-.23.47-.61.98-1.13,1.54l-2.5,2.6h4.08v.86h-5.23Z"/>
    </g>
    <g>
      <path class="cls-13" d="M332.78,562.02v4.01h-2.34v-11.38h4.44c.85,0,1.61.16,2.25.47s1.15.76,1.5,1.33c.35.58.52,1.23.52,1.96,0,1.11-.38,1.99-1.14,2.64-.76.64-1.82.96-3.17.96h-2.05ZM332.78,560.12h2.09c.62,0,1.09-.15,1.42-.44.33-.29.49-.71.49-1.25s-.16-1.01-.49-1.35-.78-.52-1.36-.53h-2.15v3.57Z"/>
      <path class="cls-13" d="M340.15,561.72c0-.84.16-1.59.48-2.24.32-.66.79-1.16,1.39-1.52.61-.36,1.31-.54,2.11-.54,1.14,0,2.07.35,2.79,1.05.72.7,1.12,1.65,1.21,2.84l.02.58c0,1.3-.36,2.34-1.09,3.12-.72.78-1.7,1.18-2.91,1.18s-2.19-.39-2.92-1.17-1.09-1.84-1.09-3.19v-.1ZM342.41,561.88c0,.8.15,1.42.45,1.84.3.42.73.64,1.3.64s.97-.21,1.28-.63c.31-.42.46-1.09.46-2.01,0-.79-.15-1.4-.46-1.83-.31-.43-.74-.65-1.3-.65s-.98.21-1.28.65c-.3.43-.45,1.1-.45,2Z"/>
      <path class="cls-13" d="M354.3,559.69c-.31-.04-.58-.06-.81-.06-.85,0-1.41.29-1.68.87v5.53h-2.26v-8.45h2.13l.06,1.01c.45-.78,1.08-1.16,1.88-1.16.25,0,.48.03.7.1l-.03,2.17Z"/>
      <path class="cls-13" d="M358.48,555.5v2.08h1.45v1.66h-1.45v4.22c0,.31.06.54.18.67.12.14.35.2.69.2.25,0,.47-.02.66-.05v1.71c-.44.14-.9.2-1.37.2-1.58,0-2.39-.8-2.42-2.4v-4.55h-1.23v-1.66h1.23v-2.08h2.26Z"/>
      <path class="cls-13" d="M361.29,558.52c0-.36.12-.65.36-.88s.55-.34.91-.34.68.11.92.34.36.52.36.88-.12.64-.36.86c-.24.22-.55.33-.92.33s-.67-.11-.91-.33c-.24-.22-.36-.51-.36-.86ZM361.29,564.92c0-.36.12-.65.36-.88s.55-.34.91-.34.68.11.92.34.36.52.36.88-.12.64-.36.86c-.24.22-.55.33-.92.33s-.67-.11-.91-.33c-.24-.22-.36-.51-.36-.86Z"/>
    </g>
    <g>
      <path class="cls-10" d="M369.01,566.03v-.88l2.98-3.18c.42-.43.72-.84.9-1.21s.28-.74.28-1.1c0-.5-.15-.91-.44-1.21s-.7-.46-1.2-.46-.92.16-1.23.47c-.31.31-.46.72-.46,1.24h-.95c.02-.78.26-1.39.74-1.85.48-.46,1.11-.69,1.9-.69s1.43.23,1.9.68.71,1.07.71,1.84c0,.43-.12.88-.35,1.36-.23.47-.61.98-1.13,1.54l-2.5,2.6h4.08v.86h-5.23Z"/>
      <path class="cls-10" d="M376.21,566.03v-.88l2.98-3.18c.42-.43.72-.84.9-1.21s.28-.74.28-1.1c0-.5-.15-.91-.44-1.21s-.7-.46-1.2-.46-.92.16-1.23.47c-.31.31-.46.72-.46,1.24h-.95c.02-.78.26-1.39.74-1.85.48-.46,1.11-.69,1.9-.69s1.43.23,1.9.68.71,1.07.71,1.84c0,.43-.12.88-.35,1.36-.23.47-.61.98-1.13,1.54l-2.5,2.6h4.08v.86h-5.23Z"/>
      <path class="cls-10" d="M383.41,566.03v-.88l2.98-3.18c.42-.43.72-.84.9-1.21s.28-.74.28-1.1c0-.5-.15-.91-.44-1.21s-.7-.46-1.2-.46-.92.16-1.23.47c-.31.31-.46.72-.46,1.24h-.95c.02-.78.26-1.39.74-1.85.48-.46,1.11-.69,1.9-.69s1.43.23,1.9.68.71,1.07.71,1.84c0,.43-.12.88-.35,1.36-.23.47-.61.98-1.13,1.54l-2.5,2.6h4.08v.86h-5.23Z"/>
      <path class="cls-10" d="M394.4,566.03v-1.96h-3.97v-1.56l3.25-5.24h1.08l-3.38,5.47v.47h3.02v-2.22h.96v5.04h-.96Z"/>
    </g>
    <g>
      <path class="cls-9" d="M332.51,299.28l.05.21.06-.21,3.13-8.72h.92l-3.71,9.95h-.81l-3.71-9.95h.92l3.13,8.72Z"/>
      <path class="cls-9" d="M339.26,290.56l3.67,8.79,3.68-8.79h1.12v9.95h-.84v-4.33l.07-4.44-3.71,8.78h-.65l-3.69-8.74.07,4.38v4.36h-.84v-9.95h1.11Z"/>
      <path class="cls-9" d="M353.66,300.51v-9.95h2.78c.82,0,1.55.19,2.19.56.65.37,1.15.9,1.51,1.6.36.69.54,1.48.54,2.37v.92c0,.89-.18,1.68-.54,2.37-.36.69-.87,1.22-1.52,1.59-.65.38-1.4.56-2.25.56h-2.72ZM354.5,291.27v8.53h1.89c1.05,0,1.89-.35,2.52-1.04s.95-1.64.95-2.82v-.88c0-1.14-.31-2.06-.94-2.75-.62-.69-1.45-1.04-2.47-1.04h-1.96Z"/>
      <path class="cls-9" d="M363.94,290.56l3.67,8.79,3.68-8.79h1.12v9.95h-.84v-4.33l.07-4.44-3.71,8.78h-.65l-3.69-8.74.07,4.38v4.36h-.84v-9.95h1.11Z"/>
      <path class="cls-9" d="M375.32,299.8h6.15v.71h-7.16v-.63l5.91-8.61h-5.73v-.71h6.77v.6l-5.93,8.65Z"/>
    </g>
    <g>
      <rect class="cls-12" x="457.81" y="253.69" width="5" height="32.94"/>
      <polygon class="cls-12" points="468.79 263.65 460.31 255.17 451.84 263.65 451.84 256.45 460.31 247.97 468.79 256.45 468.79 263.65"/>
    </g>
    <polygon class="cls-13" points="222.84 177.65 222.42 177.38 271.16 103.78 268.32 32.06 213.39 33.6 213.38 33.1 268.8 31.55 271.66 103.92 271.62 103.99 222.84 177.65"/>
    <g>
      <g class="cls-14">
        <rect class="cls-5" x="24.92" y="33.35" width="197.71" height="149.11" rx="9.25" ry="9.25"/>
      </g>
      <path class="cls-13" d="M213.39,183.96H34.17c-5.92,0-10.75-4.82-10.75-10.75V42.59c0-5.92,4.82-10.75,10.75-10.75h179.22c5.92,0,10.75,4.82,10.75,10.75v130.62c0,5.92-4.82,10.75-10.75,10.75ZM34.17,34.85c-4.27,0-7.75,3.47-7.75,7.75v130.62c0,4.27,3.47,7.75,7.75,7.75h179.22c4.27,0,7.75-3.47,7.75-7.75V42.59c0-4.27-3.47-7.75-7.75-7.75H34.17Z"/>
    </g>
    <g>
      <path class="cls-13" d="M43.27,152.83h-4.5v4.65h-2.34v-11.38h7.41v1.9h-5.06v2.94h4.5v1.89Z"/>
      <path class="cls-13" d="M44.53,153.17c0-.84.16-1.59.48-2.24.32-.66.79-1.16,1.39-1.52.61-.36,1.31-.54,2.11-.54,1.14,0,2.07.35,2.79,1.05.72.7,1.12,1.65,1.21,2.84l.02.58c0,1.3-.36,2.34-1.09,3.12-.72.78-1.7,1.18-2.91,1.18s-2.19-.39-2.92-1.17-1.09-1.84-1.09-3.19v-.1ZM46.78,153.33c0,.8.15,1.42.45,1.84.3.42.73.64,1.3.64s.97-.21,1.28-.63c.31-.42.46-1.09.46-2.01,0-.79-.15-1.4-.46-1.83-.31-.43-.74-.65-1.3-.65s-.98.21-1.28.65c-.3.43-.45,1.1-.45,2Z"/>
      <path class="cls-13" d="M56.31,157.47h-2.27v-12h2.27v12Z"/>
      <path class="cls-13" d="M57.82,153.19c0-1.32.3-2.37.89-3.15.59-.78,1.4-1.17,2.43-1.17.82,0,1.5.31,2.04.92v-4.31h2.27v12h-2.04l-.11-.9c-.56.7-1.29,1.05-2.17,1.05-1,0-1.79-.39-2.39-1.18s-.9-1.87-.9-3.27ZM60.07,153.35c0,.79.14,1.4.41,1.82.28.42.68.63,1.2.63.7,0,1.19-.29,1.48-.88v-3.34c-.28-.59-.77-.88-1.46-.88-1.09,0-1.63.88-1.63,2.65Z"/>
      <path class="cls-13" d="M71.07,157.63c-1.24,0-2.25-.38-3.03-1.14-.78-.76-1.17-1.77-1.17-3.04v-.22c0-.85.16-1.61.49-2.28s.79-1.18,1.39-1.55,1.29-.54,2.06-.54c1.16,0,2.07.36,2.73,1.09s1,1.76,1,3.1v.92h-5.38c.07.55.29,1,.66,1.33s.83.5,1.39.5c.87,0,1.55-.32,2.04-.95l1.11,1.24c-.34.48-.8.85-1.38,1.12s-1.22.4-1.92.4ZM70.82,150.69c-.45,0-.81.15-1.09.46-.28.3-.46.74-.54,1.3h3.14v-.18c-.01-.5-.15-.89-.41-1.17-.26-.27-.63-.41-1.11-.41Z"/>
      <path class="cls-13" d="M80.58,151.14c-.31-.04-.58-.06-.81-.06-.85,0-1.41.29-1.68.87v5.53h-2.26v-8.45h2.13l.06,1.01c.45-.78,1.08-1.16,1.88-1.16.25,0,.48.03.7.1l-.03,2.17Z"/>
      <path class="cls-13" d="M81.78,149.97c0-.36.12-.65.36-.88s.55-.34.91-.34.68.11.92.34.36.52.36.88-.12.64-.36.86c-.24.22-.55.33-.92.33s-.67-.11-.91-.33c-.24-.22-.36-.51-.36-.86ZM81.78,156.37c0-.36.12-.65.36-.88s.55-.34.91-.34.68.11.92.34.36.52.36.88-.12.64-.36.86c-.24.22-.55.33-.92.33s-.67-.11-.91-.33c-.24-.22-.36-.51-.36-.86Z"/>
    </g>
    <g>
      <path class="cls-13" d="M134.04,117.01h-1.87v4.16h-2.34v-11.38h4.23c1.34,0,2.38.3,3.11.9.73.6,1.09,1.45,1.09,2.54,0,.78-.17,1.42-.5,1.94s-.85.93-1.53,1.24l2.46,4.65v.11h-2.52l-2.13-4.16ZM132.17,115.11h1.89c.59,0,1.04-.15,1.37-.45.32-.3.48-.71.48-1.24s-.15-.96-.46-1.27-.77-.46-1.4-.46h-1.88v3.41Z"/>
      <path class="cls-13" d="M143.78,121.33c-1.24,0-2.25-.38-3.03-1.14-.78-.76-1.17-1.77-1.17-3.04v-.22c0-.85.16-1.61.49-2.28s.79-1.18,1.39-1.55,1.29-.54,2.06-.54c1.16,0,2.07.36,2.73,1.09s1,1.76,1,3.1v.92h-5.38c.07.55.29,1,.66,1.33s.83.5,1.39.5c.87,0,1.55-.32,2.04-.95l1.11,1.24c-.34.48-.8.85-1.38,1.12s-1.22.4-1.92.4ZM143.52,114.38c-.45,0-.81.15-1.09.46-.28.3-.46.74-.54,1.3h3.14v-.18c-.01-.5-.15-.89-.41-1.17-.26-.27-.63-.41-1.11-.41Z"/>
      <path class="cls-13" d="M148.21,116.88c0-1.3.31-2.34.93-3.13s1.45-1.19,2.5-1.19c.93,0,1.65.32,2.16.95l.09-.8h2.05v8.17c0,.74-.17,1.38-.5,1.93s-.81.96-1.42,1.25-1.32.43-2.14.43c-.62,0-1.22-.12-1.81-.37-.59-.25-1.03-.57-1.34-.96l1-1.38c.56.63,1.24.95,2.05.95.6,0,1.06-.16,1.4-.48.33-.32.5-.77.5-1.36v-.45c-.52.59-1.21.88-2.05.88-1.02,0-1.84-.4-2.46-1.19-.63-.79-.94-1.85-.94-3.16v-.09ZM150.47,117.05c0,.77.15,1.37.46,1.8.31.44.73.65,1.27.65.69,0,1.18-.26,1.48-.77v-3.56c-.3-.52-.79-.77-1.46-.77-.54,0-.97.22-1.28.67-.31.44-.46,1.11-.46,1.99Z"/>
      <path class="cls-13" d="M157.66,110.53c0-.34.11-.62.34-.84s.54-.33.93-.33.69.11.92.33c.23.22.34.5.34.84s-.12.62-.35.84c-.23.22-.54.33-.92.33s-.69-.11-.92-.33c-.23-.22-.35-.5-.35-.84ZM160.06,121.17h-2.27v-8.45h2.27v8.45Z"/>
      <path class="cls-13" d="M161.56,116.87c0-.84.16-1.59.48-2.24.32-.66.79-1.16,1.39-1.52.61-.36,1.31-.54,2.11-.54,1.14,0,2.07.35,2.79,1.05.72.7,1.12,1.65,1.21,2.84l.02.58c0,1.3-.36,2.34-1.09,3.12-.72.78-1.7,1.18-2.91,1.18s-2.19-.39-2.92-1.17-1.09-1.84-1.09-3.19v-.1ZM163.82,117.03c0,.8.15,1.42.45,1.84.3.42.73.64,1.3.64s.97-.21,1.28-.63c.31-.42.46-1.09.46-2.01,0-.79-.15-1.4-.46-1.83-.31-.43-.74-.65-1.3-.65s-.98.21-1.28.65c-.3.43-.45,1.1-.45,2Z"/>
      <path class="cls-13" d="M173.04,112.72l.07.98c.6-.75,1.41-1.13,2.43-1.13.9,0,1.56.26,2,.79s.66,1.31.67,2.36v5.46h-2.26v-5.41c0-.48-.1-.83-.31-1.04-.21-.22-.55-.32-1.04-.32-.64,0-1.11.27-1.43.81v5.96h-2.26v-8.45h2.12Z"/>
      <path class="cls-13" d="M180.03,113.67c0-.36.12-.65.36-.88s.55-.34.91-.34.68.11.92.34.36.52.36.88-.12.64-.36.86c-.24.22-.55.33-.92.33s-.67-.11-.91-.33c-.24-.22-.36-.51-.36-.86ZM180.03,120.06c0-.36.12-.65.36-.88s.55-.34.91-.34.68.11.92.34.36.52.36.88-.12.64-.36.86c-.24.22-.55.33-.92.33s-.67-.11-.91-.33c-.24-.22-.36-.51-.36-.86Z"/>
    </g>
    <g>
      <path class="cls-13" d="M35.34,121.22v-11.38h3.98c1.38,0,2.43.26,3.14.79.71.53,1.07,1.3,1.07,2.32,0,.56-.14,1.05-.43,1.47-.29.42-.69.74-1.2.93.58.15,1.04.44,1.38.88s.5.98.5,1.62c0,1.09-.35,1.92-1.05,2.48-.7.56-1.69.85-2.98.86h-4.42ZM37.69,114.62h1.73c1.18-.02,1.77-.49,1.77-1.41,0-.52-.15-.89-.45-1.11-.3-.23-.77-.34-1.42-.34h-1.64v2.87ZM37.69,116.27v3.07h2.01c.55,0,.98-.13,1.29-.39.31-.26.46-.63.46-1.09,0-1.04-.54-1.57-1.62-1.59h-2.15Z"/>
      <path class="cls-13" d="M50.47,120.37c-.56.68-1.33,1.02-2.31,1.02-.91,0-1.6-.26-2.07-.78s-.72-1.28-.73-2.29v-5.54h2.26v5.47c0,.88.4,1.32,1.2,1.32s1.29-.27,1.58-.8v-5.99h2.27v8.45h-2.12l-.06-.86Z"/>
      <path class="cls-13" d="M57.88,119.56c.42,0,.75-.11,1.02-.34.26-.23.4-.53.41-.91h2.12c0,.57-.16,1.1-.47,1.57-.31.48-.73.85-1.26,1.11-.53.26-1.12.39-1.77.39-1.21,0-2.16-.38-2.86-1.15-.7-.77-1.05-1.83-1.05-3.18v-.15c0-1.3.35-2.34,1.04-3.12.69-.78,1.64-1.16,2.85-1.16,1.06,0,1.9.3,2.54.9.64.6.96,1.4.97,2.4h-2.12c-.01-.44-.15-.8-.41-1.07-.26-.27-.6-.41-1.03-.41-.53,0-.92.19-1.19.58-.27.38-.4,1-.4,1.87v.23c0,.87.13,1.5.4,1.88s.67.57,1.21.57Z"/>
      <path class="cls-13" d="M65.77,117.83l-.81.81v2.58h-2.26v-12h2.26v6.65l.44-.56,2.16-2.54h2.71l-3.05,3.52,3.32,4.93h-2.59l-2.17-3.39Z"/>
      <path class="cls-13" d="M74.99,121.38c-1.24,0-2.25-.38-3.03-1.14-.78-.76-1.17-1.77-1.17-3.04v-.22c0-.85.16-1.61.49-2.28s.79-1.18,1.39-1.55,1.29-.54,2.06-.54c1.16,0,2.07.36,2.73,1.09s1,1.76,1,3.1v.92h-5.38c.07.55.29,1,.66,1.33s.83.5,1.39.5c.87,0,1.55-.32,2.04-.95l1.11,1.24c-.34.48-.8.85-1.38,1.12s-1.22.4-1.92.4ZM74.73,114.44c-.45,0-.81.15-1.09.46-.28.3-.46.74-.54,1.3h3.14v-.18c-.01-.5-.15-.89-.41-1.17-.26-.27-.63-.41-1.11-.41Z"/>
      <path class="cls-13" d="M82.45,110.69v2.08h1.45v1.66h-1.45v4.22c0,.31.06.54.18.67.12.14.35.2.69.2.25,0,.47-.02.66-.05v1.71c-.44.14-.9.2-1.37.2-1.58,0-2.39-.8-2.42-2.4v-4.55h-1.23v-1.66h1.23v-2.08h2.26Z"/>
      <path class="cls-13" d="M85.26,113.72c0-.36.12-.65.36-.88s.55-.34.91-.34.68.11.92.34.36.52.36.88-.12.64-.36.86c-.24.22-.55.33-.92.33s-.67-.11-.91-.33c-.24-.22-.36-.51-.36-.86ZM85.26,120.12c0-.36.12-.65.36-.88s.55-.34.91-.34.68.11.92.34.36.52.36.88-.12.64-.36.86c-.24.22-.55.33-.92.33s-.67-.11-.91-.33c-.24-.22-.36-.51-.36-.86Z"/>
    </g>
    <g>
      <path class="cls-10" d="M36.57,172.1v-6.6h.95v1.22c.07-.42.26-.75.57-.99.31-.24.71-.35,1.22-.35.66,0,1.18.21,1.57.62.39.41.59.97.59,1.67v4.43h-.95v-4.27c0-.53-.13-.93-.4-1.22-.26-.28-.62-.43-1.08-.43s-.84.15-1.12.45c-.27.29-.41.71-.41,1.23v4.24h-.95Z"/>
      <path class="cls-10" d="M46.21,172.21c-.77,0-1.38-.23-1.84-.69-.46-.46-.68-1.09-.68-1.89v-1.66c0-.81.23-1.44.68-1.9.45-.46,1.07-.68,1.84-.68s1.39.23,1.84.68c.45.46.68,1.09.68,1.9v1.66c0,.81-.23,1.44-.68,1.89-.46.46-1.07.69-1.84.69ZM46.21,171.36c.49,0,.87-.14,1.15-.42.28-.28.42-.69.42-1.22v-1.82c0-.54-.14-.95-.42-1.22-.28-.28-.66-.42-1.15-.42s-.87.14-1.15.42c-.28.28-.42.69-.42,1.22v1.82c0,.54.14.94.42,1.22.28.28.66.42,1.15.42Z"/>
      <path class="cls-10" d="M51.21,172.1v-6.6h.96v1.22c.07-.42.26-.74.57-.98.31-.24.71-.36,1.21-.36.7,0,1.23.21,1.6.62.37.41.55.99.55,1.75v.58h-.95v-.58c0-1.02-.49-1.54-1.48-1.54-.49,0-.86.14-1.12.43-.26.29-.38.7-.38,1.22v4.24h-.96Z"/>
      <path class="cls-10" d="M61.27,172.1c-.54,0-.96-.15-1.27-.45-.31-.3-.47-.71-.47-1.23v-4.06h-1.91v-.86h1.91v-1.86h.96v1.86h2.71v.86h-2.71v4.06c0,.26.07.46.21.6.14.14.33.22.57.22h1.87v.86h-1.87Z"/>
      <path class="cls-10" d="M65.37,172.1v-8.76h.95v3.37h.01c.06-.42.25-.75.56-.98s.72-.35,1.21-.35c.66,0,1.18.21,1.57.62.39.41.59.97.59,1.67v4.43h-.95v-4.27c0-.53-.13-.93-.4-1.22-.26-.28-.62-.43-1.08-.43s-.84.15-1.12.45c-.27.29-.41.71-.41,1.23v4.24h-.95Z"/>
      <path class="cls-10" d="M73.09,168.56v-.84h3.84v.84h-3.84Z"/>
      <path class="cls-10" d="M83.13,172.1c-.57,0-1.02-.16-1.35-.49-.33-.32-.5-.76-.5-1.31v-6.1h-2.26v-.86h3.2v6.96c0,.29.08.53.24.69.16.16.38.25.66.25h2.04v.86h-2.04Z"/>
      <path class="cls-10" d="M89.41,172.21c-.77,0-1.38-.23-1.84-.69-.46-.46-.68-1.09-.68-1.89v-1.66c0-.81.23-1.44.68-1.9.45-.46,1.07-.68,1.84-.68s1.39.23,1.84.68c.45.46.68,1.09.68,1.9v1.66c0,.81-.23,1.44-.68,1.89-.46.46-1.07.69-1.84.69ZM89.41,171.36c.49,0,.87-.14,1.15-.42.28-.28.42-.69.42-1.22v-1.82c0-.54-.14-.95-.42-1.22-.28-.28-.66-.42-1.15-.42s-.87.14-1.15.42c-.28.28-.42.69-.42,1.22v1.82c0,.54.14.94.42,1.22.28.28.66.42,1.15.42Z"/>
      <path class="cls-10" d="M96.71,172.22c-.78,0-1.4-.22-1.87-.67-.47-.45-.7-1.05-.7-1.82v-1.87c0-.77.23-1.37.7-1.82.47-.45,1.09-.67,1.87-.67s1.36.2,1.82.61c.46.41.7.96.71,1.67h-.96c-.02-.45-.16-.8-.44-1.05-.28-.25-.66-.38-1.13-.38s-.88.14-1.17.43-.44.69-.44,1.21v1.87c0,.52.15.92.44,1.21.29.29.68.43,1.17.43s.85-.12,1.13-.38c.28-.25.43-.6.44-1.05h.96c-.02.71-.25,1.26-.71,1.67-.46.41-1.07.61-1.82.61Z"/>
      <path class="cls-10" d="M103.28,172.22c-.69,0-1.23-.19-1.62-.57-.39-.38-.59-.88-.59-1.48,0-.4.09-.75.27-1.05.18-.3.43-.54.75-.71.32-.17.69-.26,1.1-.26h2.1v-.55c0-.93-.49-1.39-1.46-1.39-.44,0-.79.09-1.06.26s-.41.41-.44.71h-.95c.04-.52.28-.95.71-1.29s1.01-.51,1.73-.51c.78,0,1.37.19,1.79.58.42.38.62.92.62,1.62v4.52h-.94v-1.24h-.01c-.06.42-.27.75-.63.99s-.82.37-1.39.37ZM103.52,171.4c.54,0,.98-.13,1.3-.4s.48-.63.48-1.1v-1h-2.02c-.37,0-.67.11-.9.34s-.35.52-.35.88c0,.38.13.69.4.92.26.23.63.35,1.09.35Z"/>
      <path class="cls-10" d="M111.93,172.1c-.57,0-1.02-.16-1.35-.49-.33-.32-.5-.76-.5-1.31v-6.1h-2.26v-.86h3.2v6.96c0,.29.08.53.24.69.16.16.38.25.66.25h2.04v.86h-2.04Z"/>
      <path class="cls-10" d="M116.29,168.56v-.84h3.84v.84h-3.84Z"/>
      <path class="cls-10" d="M125.41,172.21c-.77,0-1.38-.23-1.84-.69-.46-.46-.68-1.09-.68-1.89v-1.66c0-.81.23-1.44.68-1.9.45-.46,1.07-.68,1.84-.68s1.39.23,1.84.68c.45.46.68,1.09.68,1.9v1.66c0,.81-.23,1.44-.68,1.89-.46.46-1.07.69-1.84.69ZM125.41,171.36c.49,0,.87-.14,1.15-.42.28-.28.42-.69.42-1.22v-1.82c0-.54-.14-.95-.42-1.22-.28-.28-.66-.42-1.15-.42s-.87.14-1.15.42c-.28.28-.42.69-.42,1.22v1.82c0,.54.14.94.42,1.22.28.28.66.42,1.15.42Z"/>
      <path class="cls-10" d="M130.07,172.1v-.86h2.35v-4.87h-2.1v-.86h3.06v5.74h2.23v.86h-5.54ZM132.79,164.29c-.25,0-.45-.06-.59-.19-.15-.13-.22-.3-.22-.53s.07-.42.22-.55c.15-.13.35-.2.59-.2s.45.07.59.2c.15.14.22.32.22.55s-.07.4-.22.53c-.15.13-.35.19-.59.19Z"/>
      <path class="cls-10" d="M140.13,172.22c-.49,0-.89-.12-1.21-.36-.32-.23-.52-.56-.6-.96v1.2h-.95v-8.76h.95v3.36c.06-.41.26-.73.59-.96.33-.24.74-.35,1.22-.35.66,0,1.19.22,1.58.66.39.44.59,1.04.59,1.79v1.96c0,.75-.2,1.35-.59,1.78s-.92.65-1.58.65ZM139.83,171.39c.48,0,.85-.13,1.12-.39s.4-.67.4-1.22v-1.96c0-.55-.13-.96-.4-1.22s-.64-.39-1.12-.39-.84.14-1.11.44c-.27.29-.4.7-.4,1.22v1.87c0,.52.14.93.41,1.22.27.29.64.44,1.1.44Z"/>
    </g>
    <g>
      <path class="cls-10" d="M37.93,136.53c-.77,0-1.38-.23-1.84-.69-.46-.46-.68-1.09-.68-1.89v-1.66c0-.81.23-1.44.68-1.9.45-.46,1.07-.68,1.84-.68s1.39.23,1.84.68c.45.46.68,1.09.68,1.9v1.66c0,.81-.23,1.44-.68,1.89-.46.46-1.07.69-1.84.69ZM37.93,135.67c.49,0,.87-.14,1.15-.42.28-.28.42-.69.42-1.22v-1.82c0-.54-.14-.95-.42-1.22-.28-.28-.66-.42-1.15-.42s-.87.14-1.15.42c-.28.28-.42.69-.42,1.22v1.82c0,.54.14.94.42,1.22.28.28.66.42,1.15.42Z"/>
      <path class="cls-10" d="M42.59,136.42v-.86h2.35v-4.87h-2.1v-.86h3.06v5.74h2.23v.86h-5.54ZM45.31,128.61c-.25,0-.45-.06-.59-.19-.15-.13-.22-.3-.22-.53s.07-.42.22-.55c.15-.13.35-.2.59-.2s.45.07.59.2c.15.14.22.32.22.55s-.07.4-.22.53c-.15.13-.35.19-.59.19Z"/>
      <path class="cls-10" d="M52.65,136.54c-.49,0-.89-.12-1.21-.36-.32-.23-.52-.56-.6-.96v1.2h-.95v-8.76h.95v3.36c.06-.41.26-.73.59-.96.33-.24.74-.35,1.22-.35.66,0,1.19.22,1.58.66.39.44.59,1.04.59,1.79v1.96c0,.75-.2,1.35-.59,1.78s-.92.65-1.58.65ZM52.35,135.71c.48,0,.85-.13,1.12-.39s.4-.67.4-1.22v-1.96c0-.55-.13-.96-.4-1.22s-.64-.39-1.12-.39-.84.14-1.11.44c-.27.29-.4.7-.4,1.22v1.87c0,.52.14.93.41,1.22.27.29.64.44,1.1.44Z"/>
      <path class="cls-10" d="M59.52,136.54c-.75,0-1.35-.22-1.79-.67-.44-.45-.66-1.06-.66-1.82v-4.22h.95v4.22c0,.51.13.92.4,1.21.27.3.63.45,1.1.45s.84-.15,1.12-.45c.27-.29.41-.7.41-1.21v-4.22h.95v4.22c0,.77-.22,1.38-.67,1.82-.45.45-1.05.67-1.8.67Z"/>
      <path class="cls-10" d="M66.44,136.53c-.7,0-1.26-.17-1.66-.5-.4-.33-.61-.79-.62-1.38h.96c.02.32.14.57.37.76s.55.28.95.28h.61c.42,0,.74-.09.97-.28s.34-.45.34-.79c0-.3-.07-.55-.22-.74s-.37-.3-.65-.33l-1.73-.24c-.48-.07-.85-.26-1.12-.56-.26-.3-.4-.7-.4-1.21,0-.57.2-1.02.59-1.34.39-.33.93-.49,1.61-.49h.56c.63,0,1.15.16,1.54.47.4.31.61.72.65,1.22h-.96c-.03-.25-.16-.46-.38-.62s-.51-.25-.86-.25h-.56c-.39,0-.7.09-.92.28-.22.18-.34.43-.34.74,0,.51.27.8.8.88l1.63.23c.54.07.96.28,1.25.61.29.34.43.78.43,1.33,0,.61-.2,1.08-.59,1.42-.4.34-.95.51-1.65.51h-.61Z"/>
    </g>
    <g>
      <path class="cls-10" d="M132.01,137.09c-.77,0-1.38-.23-1.84-.69s-.68-1.09-.68-1.89v-1.68c0-.8.23-1.43.68-1.89s1.07-.69,1.84-.69,1.38.23,1.84.68.68,1.05.68,1.81v1.18h-4.12v.7c0,.5.14.91.43,1.21s.68.45,1.16.45c.42,0,.76-.09,1.03-.26s.44-.41.49-.7h.95c-.07.55-.33.99-.78,1.31-.45.32-1.01.48-1.69.48ZM130.41,133.16h3.19v-.42c0-.54-.14-.95-.42-1.25-.28-.3-.67-.44-1.18-.44s-.9.15-1.18.44c-.28.3-.42.71-.42,1.25v.42Z"/>
      <path class="cls-10" d="M139.2,137.09c-.75,0-1.35-.22-1.79-.67s-.66-1.06-.66-1.82v-4.22h.95v4.22c0,.51.13.92.4,1.21.27.3.63.44,1.1.44s.84-.15,1.12-.44.41-.7.41-1.21v-4.22h.95v4.22c0,.77-.22,1.38-.67,1.82-.45.45-1.05.67-1.8.67Z"/>
      <path class="cls-10" d="M144.49,133.43v-.84h3.84v.84h-3.84Z"/>
      <path class="cls-10" d="M151.53,136.97l-1.09-6.6h.84l.71,4.73c.03.21.06.42.08.62.02.21.04.38.05.52,0-.14.03-.31.05-.52.03-.21.06-.42.09-.62l.86-4.73h.96l.86,4.73c.04.2.07.4.1.61s.05.38.07.53c0-.14.02-.32.05-.53s.05-.41.08-.61l.72-4.73h.8l-1.13,6.6h-1.08l-.78-4.6c-.03-.22-.07-.45-.1-.71-.04-.26-.06-.46-.08-.61,0,.14-.03.35-.07.61-.04.26-.08.5-.11.71l-.82,4.6h-1.08Z"/>
      <path class="cls-10" d="M160.81,137.09c-.77,0-1.38-.23-1.84-.69s-.68-1.09-.68-1.89v-1.68c0-.8.23-1.43.68-1.89s1.07-.69,1.84-.69,1.38.23,1.84.68.68,1.05.68,1.81v1.18h-4.12v.7c0,.5.14.91.43,1.21s.68.45,1.16.45c.42,0,.76-.09,1.03-.26s.44-.41.49-.7h.95c-.07.55-.33.99-.78,1.31-.45.32-1.01.48-1.69.48ZM159.21,133.16h3.19v-.42c0-.54-.14-.95-.42-1.25-.28-.3-.67-.44-1.18-.44s-.9.15-1.18.44c-.28.3-.42.71-.42,1.25v.42Z"/>
      <path class="cls-10" d="M167.72,137.08c-.7,0-1.26-.17-1.66-.5-.4-.33-.61-.79-.62-1.37h.96c.02.32.14.57.37.76.23.18.55.28.95.28h.61c.42,0,.74-.09.97-.28.23-.19.34-.45.34-.79,0-.3-.07-.55-.22-.74-.15-.19-.37-.3-.65-.33l-1.73-.24c-.48-.07-.85-.26-1.12-.56-.26-.3-.4-.7-.4-1.21,0-.57.2-1.02.59-1.34.39-.33.93-.49,1.61-.49h.56c.63,0,1.15.16,1.54.47.4.31.61.72.65,1.22h-.96c-.03-.25-.16-.46-.38-.62s-.51-.25-.86-.25h-.56c-.39,0-.7.09-.92.28-.22.18-.34.43-.34.74,0,.51.27.8.8.88l1.63.23c.54.07.96.28,1.25.61.29.34.43.78.43,1.33,0,.61-.2,1.08-.59,1.42-.4.34-.95.51-1.65.51h-.61Z"/>
      <path class="cls-10" d="M175.87,136.97c-.54,0-.96-.15-1.27-.45s-.47-.71-.47-1.23v-4.06h-1.91v-.86h1.91v-1.86h.96v1.86h2.71v.86h-2.71v4.06c0,.26.07.46.21.6.14.14.33.22.57.22h1.87v.86h-1.87Z"/>
      <path class="cls-10" d="M180.49,133.43v-.84h3.84v.84h-3.84Z"/>
      <path class="cls-10" d="M189.48,137.09c-.79,0-1.42-.23-1.88-.68s-.7-1.06-.7-1.83h.95c0,.51.15.92.45,1.21.3.3.7.44,1.19.44s.89-.15,1.19-.44c.3-.3.45-.7.45-1.21v-.65c0-.5-.15-.9-.44-1.19-.3-.29-.7-.43-1.2-.43h-.89v-.83l2.22-2.41h-3.67v-.86h4.74v.89l-2.17,2.38c.73.04,1.3.28,1.73.72.42.44.64,1.02.64,1.74v.65c0,.77-.23,1.38-.7,1.83-.47.45-1.1.68-1.9.68Z"/>
    </g>
    <g>
      <g>
        <path class="cls-5" d="M279.01,29.87h48.88c8.28,0,15.01,6.72,15.01,15.01v48.89c0,8.28-6.72,15-15,15h-48.89c-8.28,0-15-6.72-15-15v-48.89c0-8.28,6.72-15.01,15.01-15.01Z"/>
        <path class="cls-13" d="M327.89,32.22c6.99,0,12.65,5.66,12.65,12.65v48.89c0,6.99-5.66,12.65-12.65,12.65h-48.89c-6.99,0-12.65-5.66-12.65-12.65v-48.89c0-6.99,5.66-12.65,12.65-12.65h48.89M327.89,27.51h-48.89c-9.57,0-17.36,7.79-17.36,17.36v48.89c0,9.57,7.79,17.36,17.36,17.36h48.89c9.57,0,17.36-7.79,17.36-17.36v-48.89c0-9.57-7.79-17.36-17.36-17.36h0Z"/>
      </g>
      <g>
        <path class="cls-13" d="M320.25,46.88c0-.21-.11-.41-.31-.61-1.5-1.55-8.32-2.71-16.49-2.71s-14.96,1.15-16.48,2.7c-.21.21-.32.42-.32.64l.02.17,3.98,30.9c0,.69,1.43,1.34,3.76,1.79,2.31.46,5.51.74,9.05.74,7.07,0,12.81-1.14,12.81-2.53l3.97-30.86v-.04l.02-.16v-.04h-.01ZM303.45,44.7c8.49,0,13.95,1.22,15.44,2.19-1.69.78-4.61,1.47-8.2,1.88-2.05.2-4.46.32-7.23.32s-5.14-.12-7.18-.32c-3.62-.42-6.55-1.11-8.25-1.89,1.42-.94,6.9-2.18,15.43-2.18h-.01ZM315.13,77.71c-.74.59-4.8,1.64-11.68,1.64-3.34,0-6.48-.26-8.83-.72-1.97-.38-2.66-.79-2.86-.93l-3.81-29.51c1.55.73,4.36,1.34,7.93,1.69,2.35.28,4.92.43,7.57.43s5.08-.15,7.38-.42c3.63-.36,6.53-.95,8.1-1.71l-3.8,29.52h0Z"/>
        <path class="cls-13" d="M303.46,80.74c-3.43,0-6.66-.27-9.09-.75-1.8-.35-3.94-.99-3.94-2.02l-4-31.04c0-.31.12-.58.39-.84,1.6-1.63,8.44-2.76,16.64-2.76s15.07,1.14,16.66,2.78c.18.18.29.35.34.54h.04l-.03.46-3.97,30.89c0,1.77-6.72,2.74-13.04,2.74ZM303.45,43.79c-7.96,0-14.82,1.1-16.32,2.63-.17.17-.26.33-.26.48l.02.14,3.98,30.9c0,.43.94,1.08,3.57,1.6,2.41.48,5.61.74,9.01.74,7.41,0,12.58-1.21,12.58-2.3l3.99-31.01v-.08c0-.14-.08-.28-.25-.44-1.48-1.53-8.35-2.64-16.33-2.64ZM303.45,79.58c-3.33,0-6.48-.26-8.87-.72-1.88-.37-2.65-.76-2.94-.96l-.08-.06v-.1s-3.88-29.93-3.88-29.93l.38.18c1.53.72,4.32,1.32,7.85,1.67,2.37.29,4.91.43,7.54.43s4.97-.14,7.35-.42c3.67-.36,6.52-.96,8.03-1.68l.38-.18-3.85,29.94h-.2s.12.14.12.14c-.88.7-5.13,1.7-11.83,1.7ZM291.98,77.57c.29.17,1.02.51,2.69.84,2.36.46,5.48.71,8.78.71,6.55,0,10.6-.98,11.47-1.54l3.73-29.01c-1.62.67-4.36,1.22-7.8,1.56-2.39.28-4.82.42-7.4.42s-5.21-.15-7.59-.43c-3.31-.33-5.98-.88-7.62-1.55l3.74,29ZM303.46,49.32c-2.57,0-4.99-.11-7.21-.32-3.54-.41-6.57-1.11-8.32-1.91l-.38-.17.34-.23c1.35-.89,6.59-2.21,15.54-2.22h.01c7.95,0,13.84,1.12,15.55,2.23l.35.23-.38.17c-1.76.81-4.77,1.5-8.27,1.9-2.23.21-4.67.32-7.26.32ZM288.56,46.85c1.75.71,4.53,1.31,7.75,1.69,2.19.21,4.6.32,7.16.32s5-.11,7.21-.32c3.17-.36,5.94-.97,7.69-1.68-1.8-.85-6.84-1.93-14.91-1.93s-13.14,1.1-14.9,1.92Z"/>
      </g>
      <g>
        <path class="cls-6" d="M298.99,53.82c-1.94,0-3.51,1.57-3.51,3.51s1.57,3.51,3.51,3.51,3.51-1.57,3.51-3.51-1.57-3.51-3.51-3.51Z"/>
        <path class="cls-13" d="M298.99,61.08c-2.06,0-3.74-1.68-3.74-3.74s1.68-3.74,3.74-3.74,3.74,1.68,3.74,3.74-1.68,3.74-3.74,3.74ZM298.99,54.05c-1.81,0-3.28,1.47-3.28,3.28s1.47,3.28,3.28,3.28,3.28-1.47,3.28-3.28-1.47-3.28-3.28-3.28Z"/>
      </g>
      <g>
        <rect class="cls-6" x="304.14" y="68.36" width="6.76" height="6.76" transform="translate(111.93 319.65) rotate(-64.86)"/>
        <path class="cls-13" d="M309.26,76.54l-6.54-3.07,3.07-6.54,6.54,3.07-3.07,6.54ZM303.33,73.25l5.71,2.68,2.68-5.71-5.71-2.68-2.68,5.71Z"/>
      </g>
      <g>
        <polygon class="cls-6" points="295.46 65.32 293.5 68.72 295.46 72.13 299.4 72.13 301.36 68.72 299.4 65.32 295.46 65.32"/>
        <path class="cls-13" d="M299.53,72.37h-4.2l-2.1-3.64,2.1-3.63h4.2l2.1,3.63-2.1,3.64ZM295.6,71.9h3.67l1.83-3.18-1.83-3.17h-3.67l-1.83,3.17,1.83,3.18Z"/>
      </g>
      <g>
        <polygon class="cls-6" points="305.23 61.6 312.02 62.81 309.67 56.33 305.23 61.6"/>
        <path class="cls-13" d="M312.37,63.11l-7.57-1.35,4.95-5.88,2.62,7.23ZM305.66,61.44l6,1.07-2.08-5.73-3.93,4.66Z"/>
      </g>
      <path class="cls-11" d="M286.5,96.9h-1.67l2.55-7.39h2.02l2.55,7.39h-1.67l-1.85-5.71h-.06l-1.85,5.71ZM286.4,93.99h3.96v1.22h-3.96v-1.22Z"/>
      <path class="cls-11" d="M293.4,96.9l-2.11-7.39h1.71l1.22,5.14h.06l1.35-5.14h1.46l1.35,5.16h.06l1.22-5.16h1.71l-2.11,7.39h-1.52l-1.4-4.83h-.06l-1.41,4.83h-1.53.01Z"/>
      <path class="cls-11" d="M304.61,97c-.59,0-1.11-.09-1.56-.27s-.79-.46-1.03-.82-.37-.8-.38-1.34h1.51c.02.25.1.45.22.62.12.16.3.3.51.37.21.09.46.12.73.12s.49-.04.69-.11.35-.19.46-.32c.11-.14.16-.3.16-.48,0-.16-.05-.31-.15-.42s-.23-.21-.43-.28c-.19-.07-.41-.15-.68-.21l-.8-.2c-.62-.15-1.11-.38-1.47-.72-.36-.32-.54-.77-.54-1.31,0-.45.12-.84.37-1.17s.58-.59,1-.78.9-.28,1.45-.28,1.03.1,1.43.28c.41.19.73.45.95.78s.35.72.36,1.16h-1.51c-.02-.28-.15-.52-.37-.68-.22-.16-.52-.25-.89-.25-.25,0-.47.04-.64.11-.17.07-.31.17-.41.3-.09.12-.14.27-.14.43,0,.17.05.32.16.43.11.11.25.21.42.28s.37.14.58.19l.66.16c.32.07.62.17.89.3.27.12.51.27.7.45s.36.38.47.62.16.51.16.82c0,.46-.11.84-.35,1.17-.22.33-.56.59-.98.77-.43.19-.94.27-1.55.27h-.01Z"/>
      <path class="cls-11" d="M312.96,97c-.59,0-1.11-.09-1.56-.27-.45-.19-.79-.46-1.03-.82s-.37-.8-.38-1.34h1.51c.02.25.1.45.22.62.12.16.3.3.51.37.21.09.46.12.73.12s.49-.04.69-.11.35-.19.46-.32c.11-.14.16-.3.16-.48,0-.16-.05-.31-.15-.42-.1-.11-.23-.21-.43-.28-.19-.07-.41-.15-.68-.21l-.8-.2c-.62-.15-1.11-.38-1.47-.72-.36-.32-.54-.77-.54-1.31,0-.45.12-.84.37-1.17s.58-.59,1-.78.9-.28,1.45-.28,1.03.1,1.43.28c.41.19.73.45.95.78s.35.72.36,1.16h-1.51c-.02-.28-.15-.52-.37-.68s-.52-.25-.89-.25c-.25,0-.47.04-.64.11s-.31.17-.41.3c-.09.12-.14.27-.14.43,0,.17.05.32.16.43s.25.21.42.28.37.14.58.19l.66.16c.32.07.62.17.89.3.27.12.51.27.7.45s.36.38.47.62.16.51.16.82c0,.46-.11.84-.35,1.17-.22.33-.56.59-.98.77-.43.19-.94.27-1.55.27h-.01Z"/>
      <path class="cls-11" d="M319.24,97c-.54,0-1.03-.1-1.45-.27-.42-.19-.75-.45-.99-.77-.25-.33-.37-.7-.37-1.14h1.57c0,.17.07.33.17.47.11.14.26.23.45.31s.4.11.62.11.45-.04.63-.12c.19-.09.32-.2.43-.35.1-.15.15-.32.15-.52s-.05-.38-.16-.53-.26-.27-.47-.36c-.2-.09-.45-.12-.73-.12h-.69v-1.15h.69c.23,0,.45-.04.63-.12s.32-.2.42-.35.15-.31.15-.51-.05-.36-.14-.49-.21-.25-.37-.32c-.16-.07-.33-.12-.56-.12s-.41.04-.58.11-.32.19-.42.32c-.11.14-.16.3-.16.49h-1.51c0-.43.12-.8.36-1.13.23-.32.56-.58.95-.77s.85-.27,1.36-.27.96.1,1.35.27c.38.19.68.43.89.75.21.31.32.67.32,1.06s-.12.75-.38,1.04c-.26.27-.59.46-1,.53v.05c.54.07.95.26,1.24.57s.42.69.42,1.15c0,.42-.12.79-.36,1.13-.25.32-.58.58-1,.77s-.91.28-1.47.28h.01Z"/>
      <path class="cls-13" d="M320.1,46.15c-1.6-1.6-8.58-2.73-16.69-2.73s-14.99,1.13-16.59,2.73c-.28.28-.38.57-.38.85l3.96,31.02c0,.94,2.17,1.6,3.96,1.98,2.36.47,5.66.75,9.05.75,6.32,0,13.01-.94,13.1-2.64l3.96-30.92v-.47c-.09-.19-.19-.38-.38-.57ZM303.32,44.93c8.2,0,13.2,1.13,14.99,1.98-1.79.75-4.53,1.32-7.73,1.7-2.17.19-4.62.28-7.17.28s-5-.09-7.17-.28c-3.21-.38-5.94-.94-7.73-1.7,1.7-.85,6.6-1.98,14.8-1.98Z"/>
      <g>
        <circle class="cls-4" cx="298.99" cy="57.37" r="3.3"/>
        <path class="cls-5" d="M298.99,53.13c-2.3,0-4.24,1.94-4.24,4.24s1.94,4.24,4.24,4.24,4.24-1.94,4.24-4.24-1.94-4.24-4.24-4.24ZM298.99,60.67c-1.79,0-3.3-1.51-3.3-3.3s1.51-3.3,3.3-3.3,3.3,1.51,3.3,3.3-1.51,3.3-3.3,3.3Z"/>
      </g>
      <g>
        <polygon class="cls-4" points="311.81 70.29 309.07 76.04 303.32 73.3 306.06 67.65 311.81 70.29"/>
        <path class="cls-5" d="M312.2,69.43l-5.75-2.64-.84-.39-.41.83-2.73,5.66-.41.86.86.41,5.75,2.73.85.41.41-.85,2.73-5.75.41-.87-.87-.4h0ZM303.32,73.3l2.73-5.66,5.75,2.64-2.73,5.75-5.75-2.73h0Z"/>
      </g>
      <g>
        <polygon class="cls-4" points="301.15 68.78 299.27 71.98 295.59 71.98 293.71 68.78 295.59 65.57 299.27 65.57 301.15 68.78"/>
        <path class="cls-5" d="M301.96,68.3l-1.89-3.21-.27-.46h-4.75l-.27.46-1.89,3.21-.28.48.28.48,1.89,3.21.27.46h4.75l.27-.46,1.89-3.21.28-.48-.28-.48ZM295.59,71.98l-1.89-3.21,1.89-3.21h3.68l1.89,3.21-1.89,3.21h-3.68Z"/>
      </g>
      <g>
        <polygon class="cls-5" points="311.62 62.56 305.58 61.52 309.54 56.8 311.62 62.56"/>
        <g>
          <polygon class="cls-4" points="311.62 62.56 305.58 61.52 309.54 56.8 311.62 62.56"/>
          <path class="cls-5" d="M312.5,62.24l-2.07-5.75-.56-1.54-1.06,1.25-3.96,4.71-1.06,1.25,1.62.28,6.03,1.04,1.59.27-.55-1.53h0ZM305.58,61.52l3.96-4.71,2.07,5.75-6.03-1.04h0Z"/>
        </g>
      </g>
    </g>
    <g>
      <g>
        <rect class="cls-5" x="37.2" y="44.69" width="47.53" height="47.53" rx="9.04" ry="9.04"/>
        <path class="cls-13" d="M75.7,46.11c4.21,0,7.62,3.41,7.62,7.62v29.45c0,4.21-3.41,7.62-7.62,7.62h-29.45c-4.21,0-7.62-3.41-7.62-7.62v-29.45c0-4.21,3.41-7.62,7.62-7.62h29.45M75.7,43.27h-29.45c-5.77,0-10.46,4.69-10.46,10.46v29.45c0,5.77,4.69,10.46,10.46,10.46h29.45c5.77,0,10.46-4.69,10.46-10.46v-29.45c0-5.77-4.69-10.46-10.46-10.46h0Z"/>
      </g>
      <g>
        <path class="cls-13" d="M71.09,54.94c0-.13-.07-.25-.19-.36-.9-.93-5.01-1.63-9.94-1.63s-9.01.69-9.93,1.62c-.13.13-.19.25-.19.39v.1s2.41,18.61,2.41,18.61c0,.42.86.8,2.26,1.08,1.39.28,3.32.45,5.45.45,4.26,0,7.72-.69,7.72-1.53l2.39-18.59v-.12s.01-.02.01-.02h0ZM60.97,53.62c5.12,0,8.4.74,9.3,1.32-1.02.47-2.78.89-4.94,1.13-1.24.12-2.69.19-4.36.19s-3.1-.07-4.33-.19c-2.18-.25-3.95-.67-4.97-1.14.86-.57,4.16-1.31,9.3-1.31h0ZM68.01,73.51c-.45.36-2.89.99-7.04.99-2.01,0-3.9-.16-5.32-.43-1.18-.23-1.6-.48-1.72-.56l-2.29-17.78c.93.44,2.63.8,4.77,1.02,1.42.17,2.96.26,4.56.26s3.06-.09,4.45-.25c2.19-.22,3.93-.57,4.88-1.03l-2.29,17.79h0Z"/>
        <path class="cls-13" d="M60.98,75.43c-2.07,0-4.02-.16-5.5-.45-1.63-.32-2.45-.76-2.45-1.31l-2.41-18.69c0-.22.09-.41.26-.58.98-1,5.13-1.69,10.09-1.69s9.13.7,10.1,1.7c.1.1.16.19.21.29h.05l-.02.38-2.39,18.61c0,1.26-4.75,1.73-7.95,1.73ZM60.97,53.17c-5.35,0-9.02.8-9.77,1.55-.13.13-.13.2-.13.23v.07s2.41,18.62,2.41,18.62c0,.15.38.55,2.08.88,1.44.29,3.37.44,5.41.44,4.92,0,7.49-.84,7.49-1.3l2.4-18.68v-.05c0-.06-.04-.12-.12-.2-.74-.76-4.41-1.56-9.77-1.56ZM60.97,74.73c-2.01,0-3.92-.16-5.36-.44-1.15-.22-1.62-.47-1.81-.59l-.08-.06v-.1s-2.36-18.2-2.36-18.2l.38.18c.91.43,2.58.79,4.7,1,1.43.17,2.95.26,4.54.26s2.99-.08,4.42-.25c2.2-.22,3.91-.57,4.81-1.01l.38-.18-2.34,18.21h-.21s.13.14.13.14c-.54.43-3.13,1.04-7.18,1.04ZM54.15,73.37c.19.11.62.29,1.55.47,1.42.28,3.29.43,5.27.43,4.12,0,6.33-.61,6.83-.89l2.22-17.28c-1,.38-2.57.69-4.58.89-1.45.17-2.91.26-4.47.26s-3.14-.09-4.59-.26c-1.9-.19-3.47-.5-4.47-.88l2.23,17.27ZM60.98,56.5c-1.56,0-3.02-.07-4.35-.2-2.18-.25-3.97-.66-5.04-1.16l-.38-.17.34-.23c1.01-.67,4.57-1.35,9.42-1.35h0c5.03,0,8.41.7,9.42,1.36l.35.23-.38.17c-1.07.49-2.89.91-5.01,1.15-1.34.13-2.82.2-4.38.2ZM52.24,54.92c1.05.39,2.63.72,4.44.93,1.31.13,2.76.19,4.3.19s3.01-.06,4.34-.19c1.78-.2,3.35-.53,4.4-.92-1.22-.49-4.16-1.07-8.74-1.07s-7.54.58-8.73,1.06Z"/>
      </g>
      <g>
        <path class="cls-6" d="M58.28,59.12c-1.17,0-2.12.95-2.12,2.12s.95,2.12,2.12,2.12,2.12-.95,2.12-2.12-.95-2.12-2.12-2.12Z"/>
        <path class="cls-13" d="M58.28,63.58c-1.29,0-2.35-1.05-2.35-2.35s1.05-2.35,2.35-2.35,2.35,1.05,2.35,2.35-1.05,2.35-2.35,2.35ZM58.28,59.35c-1.04,0-1.89.85-1.89,1.89s.85,1.88,1.89,1.88,1.89-.85,1.89-1.88-.85-1.89-1.89-1.89Z"/>
      </g>
      <g>
        <rect class="cls-6" x="61.38" y="67.88" width="4.07" height="4.07" transform="translate(-26.81 97.63) rotate(-64.86)"/>
        <path class="cls-13" d="M64.51,72.93l-4.1-1.93,1.93-4.1,4.1,1.93-1.93,4.1ZM61.02,70.78l3.27,1.54,1.54-3.27-3.27-1.54-1.54,3.27Z"/>
      </g>
      <g>
        <polygon class="cls-6" points="56.16 66.05 54.97 68.1 56.16 70.15 58.53 70.15 59.71 68.1 58.53 66.05 56.16 66.05"/>
        <path class="cls-13" d="M58.66,70.38h-2.63l-1.32-2.29,1.32-2.28h2.63l1.32,2.28-1.32,2.29ZM56.29,69.92h2.1l1.05-1.83-1.05-1.82h-2.1l-1.05,1.82,1.05,1.83Z"/>
      </g>
      <g>
        <polygon class="cls-6" points="62.04 63.81 66.13 64.54 64.72 60.63 62.04 63.81"/>
        <path class="cls-13" d="M66.48,64.83l-4.87-.87,3.19-3.78,1.69,4.65ZM62.48,63.65l3.3.59-1.14-3.15-2.16,2.56Z"/>
      </g>
      <path class="cls-11" d="M50.76,85.07h-1.01l1.53-4.45h1.21l1.53,4.45h-1.01l-1.12-3.44h-.04l-1.12,3.44ZM50.7,83.32h2.38v.74h-2.38v-.74Z"/>
      <path class="cls-11" d="M54.91,85.07l-1.27-4.45h1.03l.74,3.1h.04l.81-3.1h.88l.81,3.11h.04l.74-3.11h1.03l-1.27,4.45h-.92l-.84-2.91h-.04l-.85,2.91h-.92,0Z"/>
      <path class="cls-11" d="M61.67,85.13c-.36,0-.67-.05-.94-.16s-.48-.28-.62-.49-.22-.48-.23-.8h.91c.01.15.06.27.13.37.07.1.18.18.31.22.13.05.28.07.44.07s.3-.02.42-.07.21-.11.28-.19c.07-.08.1-.18.1-.29,0-.1-.03-.19-.09-.25s-.14-.13-.26-.17c-.11-.04-.25-.09-.41-.13l-.48-.12c-.37-.09-.67-.23-.89-.43-.22-.19-.33-.46-.33-.79,0-.27.07-.51.22-.71s.35-.36.6-.47.54-.17.87-.17.62.06.86.17c.25.11.44.27.57.47s.21.43.22.7h-.91c-.01-.17-.09-.31-.22-.41-.13-.1-.31-.15-.54-.15-.15,0-.28.02-.39.07-.1.04-.19.1-.25.18-.05.07-.08.16-.08.26,0,.1.03.19.1.26.07.07.15.13.25.17s.22.08.35.11l.39.1c.19.04.37.1.54.18.16.07.31.16.42.27s.22.23.28.37.1.31.1.49c0,.28-.07.51-.21.71-.13.2-.34.36-.59.46-.26.11-.57.16-.93.16h0Z"/>
      <path class="cls-11" d="M66.7,85.13c-.36,0-.67-.05-.94-.16-.27-.11-.48-.28-.62-.49s-.22-.48-.23-.8h.91c.01.15.06.27.13.37.07.1.18.18.31.22.13.05.28.07.44.07s.3-.02.42-.07.21-.11.28-.19c.07-.08.1-.18.1-.29,0-.1-.03-.19-.09-.25-.06-.07-.14-.13-.26-.17-.11-.04-.25-.09-.41-.13l-.48-.12c-.37-.09-.67-.23-.89-.43-.22-.19-.33-.46-.33-.79,0-.27.07-.51.22-.71s.35-.36.6-.47.54-.17.87-.17.62.06.86.17c.25.11.44.27.57.47s.21.43.22.7h-.91c-.01-.17-.09-.31-.22-.41s-.31-.15-.54-.15c-.15,0-.28.02-.39.07s-.19.1-.25.18c-.05.07-.08.16-.08.26,0,.1.03.19.1.26s.15.13.25.17.22.08.35.11l.39.1c.19.04.37.1.54.18.16.07.31.16.42.27s.22.23.28.37.1.31.1.49c0,.28-.07.51-.21.71-.13.2-.34.36-.59.46-.26.11-.57.16-.93.16h0Z"/>
      <path class="cls-11" d="M70.48,85.13c-.33,0-.62-.06-.87-.16-.25-.11-.45-.27-.6-.46-.15-.2-.22-.42-.22-.69h.95c0,.1.04.2.1.28.07.08.16.14.27.19s.24.07.37.07.27-.02.38-.07c.11-.05.19-.12.26-.21.06-.09.09-.19.09-.31s-.03-.23-.1-.32-.16-.16-.28-.22c-.12-.05-.27-.07-.44-.07h-.42v-.69h.42c.14,0,.27-.02.38-.07s.19-.12.25-.21.09-.19.09-.31-.03-.22-.08-.3-.13-.15-.22-.19c-.1-.04-.2-.07-.34-.07s-.25.02-.35.07-.19.11-.25.19c-.07.08-.1.18-.1.3h-.91c0-.26.07-.48.22-.68.14-.19.34-.35.57-.46s.51-.16.82-.16.58.06.81.16c.23.11.41.26.54.45.13.19.19.4.19.64s-.07.45-.23.63c-.16.16-.36.28-.6.32v.03c.33.04.57.16.74.34s.25.42.25.69c0,.25-.07.48-.22.68-.15.19-.35.35-.6.46s-.55.17-.89.17h0Z"/>
      <path class="cls-13" d="M71,54.5c-.97-.97-5.17-1.65-10.05-1.65s-9.03.68-10,1.65c-.17.17-.23.34-.23.51l2.39,18.69c0,.57,1.31.97,2.39,1.19,1.42.28,3.41.45,5.45.45,3.81,0,7.84-.57,7.9-1.59l2.39-18.63v-.28c-.06-.11-.11-.23-.23-.34ZM60.89,53.76c4.94,0,7.95.68,9.03,1.19-1.08.45-2.73.8-4.66,1.02-1.31.11-2.78.17-4.32.17s-3.01-.06-4.32-.17c-1.93-.23-3.58-.57-4.66-1.02,1.02-.51,3.98-1.19,8.92-1.19Z"/>
      <g>
        <circle class="cls-4" cx="58.28" cy="61.26" r="1.99"/>
        <path class="cls-5" d="M58.28,58.7c-1.39,0-2.56,1.17-2.56,2.56s1.17,2.56,2.56,2.56,2.56-1.17,2.56-2.56-1.17-2.56-2.56-2.56ZM58.28,63.25c-1.08,0-1.99-.91-1.99-1.99s.91-1.99,1.99-1.99,1.99.91,1.99,1.99-.91,1.99-1.99,1.99Z"/>
      </g>
      <g>
        <polygon class="cls-4" points="66 69.04 64.36 72.5 60.89 70.86 62.54 67.45 66 69.04"/>
        <path class="cls-5" d="M66.24,68.52l-3.46-1.59-.51-.23-.24.5-1.65,3.41-.25.52.52.24,3.46,1.65.51.24.24-.51,1.65-3.46.25-.52-.52-.24h0ZM60.89,70.86l1.65-3.41,3.46,1.59-1.65,3.46-3.46-1.65h0Z"/>
      </g>
      <g>
        <polygon class="cls-4" points="59.59 68.13 58.45 70.06 56.23 70.06 55.1 68.13 56.23 66.2 58.45 66.2 59.59 68.13"/>
        <path class="cls-5" d="M60.07,67.84l-1.14-1.93-.16-.28h-2.86l-.16.28-1.14,1.93-.17.29.17.29,1.14,1.93.16.28h2.86l.16-.28,1.14-1.93.17-.29-.17-.29ZM56.23,70.06l-1.14-1.93,1.14-1.93h2.22l1.14,1.93-1.14,1.93h-2.22Z"/>
      </g>
      <g>
        <polygon class="cls-5" points="65.89 64.38 62.26 63.76 64.64 60.92 65.89 64.38"/>
        <g>
          <polygon class="cls-4" points="65.89 64.38 62.26 63.76 64.64 60.92 65.89 64.38"/>
          <path class="cls-5" d="M66.42,64.19l-1.25-3.46-.34-.93-.64.76-2.39,2.84-.64.76.98.17,3.64.62.96.16-.33-.92h0ZM62.26,63.76l2.39-2.84,1.25,3.46-3.64-.62h0Z"/>
        </g>
      </g>
    </g>
    <path class="cls-9" d="M612.81,587.06h-267.26c-16.18,0-29.35-13.17-29.35-29.35v-45.58c0-16.18,13.16-29.35,29.35-29.35h267.26c16.18,0,29.35,13.17,29.35,29.35v45.58c0,16.18-13.16,29.35-29.35,29.35ZM345.55,484.79c-15.08,0-27.35,12.27-27.35,27.35v45.58c0,15.08,12.27,27.35,27.35,27.35h267.26c15.08,0,27.35-12.27,27.35-27.35v-45.58c0-15.08-12.27-27.35-27.35-27.35h-267.26Z"/>
    <g>
      <path class="cls-10" d="M516.93,508.23c-.76,0-1.36-.23-1.8-.68s-.66-1.09-.66-1.9v-3.84c0-.82.22-1.45.66-1.9s1.04-.68,1.8-.68,1.36.23,1.8.68c.44.45.66,1.08.66,1.89v3.85c0,.82-.22,1.45-.66,1.9-.44.45-1.04.68-1.8.68ZM516.93,507.38c.48,0,.86-.14,1.12-.43.27-.28.4-.69.4-1.21v-4.03c0-.52-.13-.92-.4-1.21-.27-.28-.64-.43-1.12-.43s-.86.14-1.12.43c-.27.28-.4.69-.4,1.21v4.03c0,.52.13.92.4,1.21.26.28.64.43,1.12.43Z"/>
      <path class="cls-10" d="M521.64,508.11v-8.76h2.15c.55,0,1.03.11,1.44.32.41.22.72.52.94.92.22.4.33.86.33,1.39v3.49c0,.54-.11,1-.33,1.4-.22.4-.54.7-.94.92-.41.22-.89.32-1.44.32h-2.15ZM522.58,507.26h1.21c.55,0,.98-.16,1.3-.48s.48-.76.48-1.31v-3.49c0-.54-.16-.98-.48-1.3-.32-.32-.75-.48-1.3-.48h-1.21v7.06Z"/>
      <path class="cls-10" d="M528.78,508.11v-8.76h2.39c.78,0,1.38.2,1.83.61.44.4.67.96.67,1.66,0,.3-.06.58-.19.85-.13.27-.3.49-.53.68-.23.18-.49.3-.79.36v.04c.34.05.64.17.89.37.25.2.45.45.6.76.15.31.22.65.22,1.01,0,.74-.23,1.33-.68,1.77-.46.44-1.08.65-1.87.65h-2.53ZM529.69,503.16h1.47c.48,0,.86-.13,1.14-.4.28-.26.42-.62.42-1.08s-.14-.81-.42-1.07c-.28-.26-.66-.39-1.14-.39h-1.47v2.94ZM529.69,507.25h1.53c.53,0,.95-.14,1.25-.43.3-.28.46-.67.46-1.16s-.15-.91-.46-1.22c-.3-.31-.72-.46-1.25-.46h-1.53v3.26Z"/>
      <path class="cls-10" d="M538.4,508.23c-.78,0-1.39-.22-1.84-.67-.45-.44-.68-1.05-.68-1.82v-4.03c0-.77.23-1.37.68-1.82.45-.44,1.06-.67,1.84-.67s1.37.23,1.82.68c.45.45.68,1.07.68,1.84h-.94c0-.53-.14-.94-.42-1.23-.28-.29-.66-.44-1.15-.44s-.89.14-1.16.43c-.28.28-.42.69-.42,1.21v4.03c0,.52.14.92.42,1.21.28.28.67.43,1.16.43s.87-.15,1.15-.44.42-.7.42-1.23h.94c0,.78-.23,1.39-.68,1.84-.46.45-1.06.68-1.82.68Z"/>
    </g>
    <g>
      <g>
        <path class="cls-5" d="M438.11,495.5h45.72c9.33,0,16.9,7.57,16.9,16.9v45.72c0,9.33-7.57,16.9-16.9,16.9h-45.71c-9.33,0-16.9-7.57-16.9-16.9v-45.72c0-9.33,7.57-16.9,16.9-16.9Z"/>
        <path class="cls-13" d="M483.82,497.39c8.29,0,15.01,6.72,15.01,15.01v45.72c0,8.29-6.72,15.01-15.01,15.01h-45.72c-8.29,0-15.01-6.72-15.01-15.01v-45.72c0-8.29,6.72-15.01,15.01-15.01h45.72M483.82,493.61h-45.72c-10.37,0-18.8,8.43-18.8,18.8v45.72c0,10.37,8.43,18.8,18.8,18.8h45.72c10.37,0,18.8-8.43,18.8-18.8v-45.72c0-10.37-8.43-18.8-18.8-18.8h0Z"/>
      </g>
      <path class="cls-13" d="M447.88,530.91h18.97c.47,0,.85-.38.85-.85s-.38-.85-.85-.85h-4.03s0-4.84,0-4.84l1.97,1.95c.33.33.87.33,1.21,0,.33-.33.33-.87,0-1.21h0l-3.44-3.41c-.33-.33-.87-.33-1.2,0l-3.44,3.45c-.33.33-.33.87,0,1.21s.87.33,1.21,0l2.01-2.01v4.86s-6.82,0-6.82,0v-9.11s1.97,1.95,1.97,1.95c.33.34.87.35,1.21.03s.35-.87.03-1.21c0-.01-.02-.02-.03-.03l-3.44-3.41c-.33-.33-.87-.33-1.2,0l-3.45,3.45c-.33.33-.33.87,0,1.21s.87.33,1.21,0l2.01-2.01v9.13s-4.71,0-4.71,0c-.47,0-.85.38-.85.85s.38.85.85.85Z"/>
      <path class="cls-13" d="M466.85,532.19h-18.97c-.47,0-.85.38-.85.85s.38.85.85.85h18.97c.47,0,.85-.38.85-.85s-.38-.85-.85-.85Z"/>
      <path class="cls-8" d="M457.36,511.78c8.22,0,14.89,6.67,14.89,14.89,0,8.22-6.67,14.89-14.89,14.89-8.22,0-14.89-6.67-14.89-14.89,0,0,0,0,0,0,0-8.22,6.67-14.88,14.89-14.89M457.36,507.55c-10.56,0-19.13,8.56-19.13,19.13,0,10.56,8.56,19.13,19.13,19.13,10.56,0,19.13-8.56,19.13-19.13h0c0-10.56-8.56-19.13-19.12-19.13,0,0,0,0,0,0Z"/>
      <rect class="cls-8" x="479.59" y="515.45" width="4.1" height="30.3"/>
      <rect class="cls-8" x="479.59" y="507.5" width="4.1" height="3.85"/>
    </g>
    <g>
      <path class="cls-1" d="M434.76,559.73c0,.87-.17,1.6-.5,2.21-.33.61-.79,1.07-1.36,1.39-.57.32-1.22.48-1.93.48s-1.36-.16-1.93-.48c-.57-.32-1.02-.79-1.35-1.39-.33-.61-.5-1.35-.5-2.21s.17-1.61.5-2.21c.33-.61.78-1.07,1.35-1.39.57-.32,1.21-.48,1.93-.48s1.36.16,1.93.48c.57.32,1.02.78,1.36,1.39s.5,1.35.5,2.21ZM433.02,559.73c0-.56-.08-1.04-.25-1.42s-.41-.68-.72-.88c-.31-.2-.67-.3-1.08-.3s-.77.1-1.08.3c-.31.2-.55.49-.72.88s-.25.86-.25,1.42.08,1.04.25,1.42.41.68.72.88c.31.2.67.3,1.08.3s.77-.1,1.08-.3c.31-.2.55-.49.72-.88s.25-.86.25-1.42Z"/>
      <path class="cls-1" d="M437.73,555.75v7.95h-1.71v-7.95h1.71Z"/>
      <path class="cls-1" d="M439.14,563.7v-7.95h3.24c.59,0,1.09.09,1.49.26.4.17.7.41.9.72.2.31.3.66.3,1.06,0,.31-.06.58-.19.82-.13.23-.3.43-.52.58-.22.15-.47.25-.75.32v.08c.31.01.6.1.87.26s.49.38.66.66c.17.28.25.62.25,1.01,0,.42-.11.8-.32,1.13s-.52.59-.94.78-.92.29-1.53.29h-3.45ZM440.85,559.08h1.27c.23,0,.44-.04.63-.12.18-.08.33-.2.43-.35.11-.15.16-.33.16-.54,0-.29-.1-.52-.31-.69-.21-.18-.5-.26-.88-.26h-1.3v1.97ZM440.85,562.33h1.39c.48,0,.82-.09,1.04-.27.22-.18.33-.42.33-.72,0-.22-.05-.41-.16-.58-.11-.17-.26-.3-.46-.4-.2-.1-.43-.14-.71-.14h-1.43v2.11Z"/>
      <path class="cls-1" d="M450.34,561.16v-3.43h1.68v5.97h-1.61v-1.08h-.06c-.14.35-.36.63-.68.84-.32.21-.7.32-1.16.32-.41,0-.76-.09-1.07-.27-.31-.18-.55-.44-.72-.77-.17-.33-.26-.73-.26-1.2v-3.8h1.68v3.5c0,.35.1.63.29.83.19.2.44.31.76.31.2,0,.39-.05.57-.14.18-.09.32-.23.43-.41.11-.18.16-.41.16-.67Z"/>
      <path class="cls-1" d="M458.41,559.44l-1.54.09c-.03-.13-.08-.25-.17-.35-.09-.1-.2-.19-.34-.25s-.31-.09-.5-.09c-.26,0-.48.05-.66.16-.18.11-.27.25-.27.43,0,.14.06.26.17.36.12.1.31.18.6.24l1.1.22c.59.12,1.03.31,1.32.57.29.26.43.61.43,1.04,0,.39-.12.73-.35,1.03-.23.29-.55.52-.96.69-.4.16-.87.25-1.4.25-.8,0-1.44-.17-1.92-.5s-.75-.78-.83-1.35l1.65-.08c.05.24.17.42.36.55.19.12.44.19.74.19s.53-.06.71-.17c.18-.11.27-.26.27-.44,0-.15-.07-.27-.19-.37-.13-.1-.32-.17-.58-.22l-1.05-.21c-.59-.12-1.03-.32-1.32-.61-.29-.29-.43-.65-.43-1.1,0-.38.11-.71.32-.99.21-.28.51-.49.9-.64.39-.15.84-.23,1.36-.23.77,0,1.37.16,1.81.48.44.32.7.75.77,1.3Z"/>
      <path class="cls-1" d="M463.61,563.7h-1.83l2.79-7.95h2.2l2.79,7.95h-1.83l-2.03-6.14h-.06l-2.03,6.14ZM463.49,560.58h4.33v1.31h-4.33v-1.31Z"/>
      <path class="cls-1" d="M472.94,566.07c-.54,0-1.01-.07-1.4-.22-.39-.15-.7-.34-.93-.6-.23-.25-.38-.53-.45-.85l1.55-.21c.05.12.12.23.23.33.1.1.24.19.41.25s.38.09.62.09c.37,0,.67-.09.91-.26s.36-.47.36-.88v-1.09h-.07c-.07.17-.18.32-.33.47-.15.15-.34.27-.57.36-.23.09-.51.14-.83.14-.46,0-.87-.1-1.24-.31-.37-.21-.67-.53-.89-.96-.22-.43-.33-.98-.33-1.64s.11-1.24.33-1.69.52-.79.89-1.02c.37-.23.78-.34,1.23-.34.34,0,.62.06.85.17.23.11.41.25.55.42s.25.33.33.49h.06v-1h1.67v6.02c0,.51-.13.93-.38,1.27-.25.34-.6.6-1.05.77-.45.17-.96.26-1.54.26ZM472.98,562.38c.27,0,.5-.07.69-.2.19-.13.33-.33.43-.58.1-.25.15-.55.15-.9s-.05-.65-.15-.91c-.1-.26-.24-.46-.43-.6s-.42-.21-.69-.21-.51.07-.7.22-.33.35-.43.61c-.1.26-.15.56-.15.9s.05.64.15.89c.1.25.24.44.43.58s.42.2.7.2Z"/>
      <path class="cls-1" d="M480.01,563.82c-.62,0-1.16-.12-1.61-.37-.45-.25-.79-.6-1.04-1.06s-.36-1-.36-1.63.12-1.15.36-1.62c.24-.46.58-.82,1.02-1.08.44-.26.96-.39,1.55-.39.4,0,.77.06,1.12.19.35.12.65.31.91.56.26.25.46.57.61.95.14.38.22.82.22,1.33v.45h-5.12v-1.03h3.54c0-.24-.05-.45-.16-.63-.1-.18-.25-.33-.44-.43-.19-.11-.4-.16-.65-.16s-.48.06-.68.17-.35.27-.46.46c-.11.19-.17.41-.17.64v.97c0,.29.06.55.17.77.11.21.27.38.48.5.21.12.45.17.73.17.19,0,.36-.03.51-.08s.29-.13.4-.23c.11-.1.2-.23.25-.38l1.56.1c-.08.37-.24.69-.48.96-.24.27-.56.49-.94.64-.38.15-.82.23-1.32.23Z"/>
      <path class="cls-1" d="M485.57,560.25v3.45h-1.68v-5.97h1.6v1.05h.07c.13-.35.36-.62.67-.83s.7-.3,1.15-.3c.42,0,.79.09,1.1.27.31.18.56.44.73.78.17.33.26.73.26,1.2v3.8h-1.68v-3.5c0-.37-.09-.65-.28-.86-.19-.21-.46-.31-.79-.31-.23,0-.43.05-.6.14-.17.1-.31.23-.4.42-.1.18-.15.4-.15.66Z"/>
      <path class="cls-1" d="M494.03,557.74v1.24h-3.65v-1.24h3.65ZM491.21,556.31h1.68v5.56c0,.15.02.27.07.36.05.08.11.14.2.18.09.03.18.05.3.05.08,0,.16,0,.24-.02.08-.01.14-.03.18-.03l.26,1.23c-.08.03-.2.06-.35.09-.15.04-.34.06-.56.06-.41.01-.76-.04-1.06-.16-.3-.12-.54-.31-.71-.57-.17-.26-.25-.58-.25-.97v-5.78Z"/>
    </g>
    <g>
      <rect class="cls-12" x="508.33" y="533.18" width="33.8" height="5"/>
      <polygon class="cls-12" points="518.29 544.16 509.81 535.68 518.29 527.21 511.1 527.21 502.62 535.68 511.1 544.16 518.29 544.16"/>
      <polygon class="cls-12" points="532.18 544.16 540.66 535.68 532.18 527.21 539.38 527.21 547.85 535.68 539.38 544.16 532.18 544.16"/>
    </g>
    <g>
      <g>
        <path class="cls-5" d="M567.29,574.04c-9.33,0-16.92-7.48-16.92-16.67v-44.83c0-9.19,7.59-16.67,16.92-16.67h45.56c9.33,0,16.92,7.48,16.92,16.67v44.83c0,9.19-7.59,16.67-16.92,16.67h-45.56Z"/>
        <path class="cls-13" d="M612.85,497.83c8.26,0,14.96,6.59,14.96,14.72v44.82c0,8.13-6.7,14.72-14.96,14.72h-45.56c-8.26,0-14.96-6.59-14.96-14.72v-44.82c0-8.13,6.7-14.72,14.96-14.72h45.56M612.85,493.9h-45.56c-10.41,0-18.88,8.36-18.88,18.64v44.82c0,10.28,8.47,18.64,18.88,18.64h45.56c10.41,0,18.88-8.36,18.88-18.64v-44.82c0-10.28-8.47-18.64-18.88-18.64h0Z"/>
      </g>
      <g>
        <path class="cls-1" d="M581.27,554.77v7.8h-1.67v-7.8h1.67Z"/>
        <path class="cls-1" d="M582.66,562.56v-7.8h3.13c.6,0,1.11.11,1.54.34s.75.54.97.93c.22.4.33.85.33,1.37s-.11.97-.34,1.37c-.23.4-.56.71-.99.93-.43.22-.95.33-1.56.33h-1.99v-1.32h1.72c.32,0,.59-.05.8-.17.21-.11.37-.26.47-.46.1-.2.16-.42.16-.68s-.05-.49-.16-.68c-.1-.2-.26-.35-.47-.45-.21-.11-.48-.16-.8-.16h-1.13v6.45h-1.68Z"/>
        <path class="cls-1" d="M589.67,562.56v-1.19l2.82-2.57c.24-.23.44-.43.61-.62.16-.18.29-.36.37-.54.08-.18.13-.37.13-.57,0-.23-.05-.43-.16-.59-.11-.17-.25-.29-.43-.38-.18-.09-.39-.13-.62-.13s-.45.05-.63.14c-.18.1-.32.23-.42.41-.1.18-.15.39-.15.64h-1.59c0-.51.12-.95.35-1.33.23-.38.56-.67.99-.87.42-.21.91-.31,1.46-.31s1.06.1,1.48.29.75.47.99.82c.23.35.35.75.35,1.2,0,.29-.06.59-.18.87s-.33.61-.62.95c-.3.35-.72.77-1.27,1.26l-1.16,1.12v.05h3.33v1.35h-5.65Z"/>
        <path class="cls-1" d="M599.98,554.77v7.8h-1.67v-6.23h-.05l-1.82,1.12v-1.46l1.96-1.22h1.57Z"/>
      </g>
      <g>
        <circle class="cls-13" cx="597.24" cy="520.65" r="1.8"/>
        <path class="cls-13" d="M590.07,507.88h-16.98c-1.16,0-2.1.94-2.1,2.1v16.98c0,10.54,8.54,19.08,19.08,19.08h0c10.54,0,19.08-8.54,19.08-19.08h0c0-10.54-8.54-19.08-19.08-19.08ZM601.51,524.18c0,.11-.01.22-.03.32h0s-.18,1.51-2.14,3.47l-11.35,11.35c-1.11,1.11-2.9,1.11-4,0l-5.4-5.4c-1.11-1.11-1.11-2.9,0-4l11.35-11.35s1.51-1.93,3.73-1.93h6c1.02,0,1.85.83,1.85,1.85v5.68Z"/>
      </g>
    </g>
    <g>
      <rect class="cls-12" x="458.3" y="436.11" width="5" height="51.79"/>
      <polygon class="cls-12" points="469.27 477.93 460.8 486.42 452.32 477.93 452.32 485.13 460.8 493.61 469.27 485.13 469.27 477.93"/>
      <polygon class="cls-12" points="469.27 446.07 460.8 437.58 452.32 446.07 452.32 438.87 460.8 430.39 469.27 438.87 469.27 446.07"/>
    </g>
  </g>
</svg>