<?xml version="1.0" encoding="UTF-8"?>
<svg id="Calque_2" data-name="Calque 2" xmlns="http://www.w3.org/2000/svg" viewBox="0 0 804 617">
  <defs>
    <style>
      .cls-1 {
        fill: #fab615;
      }

      .cls-1, .cls-2, .cls-3, .cls-4, .cls-5, .cls-6, .cls-7, .cls-8, .cls-9, .cls-10, .cls-11 {
        stroke-width: 0px;
      }

      .cls-2 {
        fill: #fab911;
      }

      .cls-3 {
        fill: #0a9cd8;
      }

      .cls-4 {
        fill: #2c3c45;
      }

      .cls-5 {
        fill: #273d46;
      }

      .cls-6 {
        fill: #fab914;
      }

      .cls-7 {
        fill: #c2d1d9;
      }

      .cls-8 {
        fill: #ffe698;
      }

      .cls-9 {
        fill: #fab612;
      }

      .cls-10 {
        fill: #fbba0e;
      }

      .cls-11 {
        fill: #fff;
      }
    </style>
  </defs>
  <g id="Calque_1-2" data-name="Calque 1">
    <rect class="cls-4" x="0" width="804" height="617" rx="14.17" ry="14.17"/>
    <path class="cls-3" d="M804,224.49h-4v-2h4v2ZM792,224.49h-8v-2h8v2ZM776,224.49h-8v-2h8v2ZM760,224.49h-8v-2h8v2ZM744,224.49h-8v-2h8v2ZM728,224.49h-8v-2h8v2ZM712,224.49h-8v-2h8v2ZM696,224.49h-8v-2h8v2ZM680,224.49h-8v-2h8v2ZM664,224.49h-8v-2h8v2ZM648,224.49h-8v-2h8v2ZM632,224.49h-8v-2h8v2ZM616,224.49h-8v-2h8v2ZM600,224.49h-8v-2h8v2ZM584,224.49h-8v-2h8v2ZM568,224.49h-8v-2h8v2ZM552,224.49h-8v-2h8v2ZM536,224.49h-8v-2h8v2ZM520,224.49h-8v-2h8v2ZM504,224.49h-8v-2h8v2ZM488,224.49h-8v-2h8v2ZM472,224.49h-8v-2h8v2ZM456,224.49h-8v-2h8v2ZM440,224.49h-8v-2h8v2ZM424,224.49h-8v-2h8v2ZM408,224.49h-8v-2h8v2ZM392,224.49h-8v-2h8v2ZM376,224.49h-8v-2h8v2ZM360,224.49h-8v-2h8v2ZM344,224.49h-8v-2h8v2ZM328,224.49h-8v-2h8v2ZM312,224.49h-8v-2h8v2ZM296,224.49h-8v-2h8v2ZM280,224.49h-8v-2h8v2ZM264,224.49h-8v-2h8v2ZM248,224.49h-8v-2h8v2ZM232,224.49h-8v-2h8v2ZM216,224.49h-8v-2h8v2ZM200,224.49h-8v-2h8v2ZM184,224.49h-8v-2h8v2ZM168,224.49h-8v-2h8v2ZM152,224.49h-8v-2h8v2ZM136,224.49h-8v-2h8v2ZM120,224.49h-8v-2h8v2ZM104,224.49h-8v-2h8v2ZM88,224.49h-8v-2h8v2ZM72,224.49h-8v-2h8v2ZM56,224.49h-8v-2h8v2ZM40,224.49h-8v-2h8v2ZM24,224.49h-8v-2h8v2ZM8,224.49H0v-2h8v2Z"/>
    <g>
      <path class="cls-7" d="M627.84,214.33h-.84v-9.95h.84v9.95Z"/>
      <path class="cls-7" d="M631.13,206.94l.03,1.27c.28-.46.62-.8,1.04-1.04.41-.24.87-.36,1.37-.36.79,0,1.38.22,1.77.67.39.45.58,1.12.59,2.01v4.85h-.81v-4.86c0-.66-.14-1.15-.42-1.48-.28-.32-.72-.49-1.32-.49-.51,0-.95.16-1.34.47-.39.32-.68.74-.86,1.28v5.06h-.81v-7.4h.78Z"/>
      <path class="cls-7" d="M639.31,205.04v1.89h1.53v.67h-1.53v4.94c0,.41.07.71.22.92s.4.3.74.3c.14,0,.36-.02.66-.07l.03.66c-.21.08-.51.12-.88.12-.56,0-.97-.16-1.22-.49s-.38-.8-.38-1.44v-4.94h-1.36v-.67h1.36v-1.89h.82Z"/>
      <path class="cls-7" d="M645.4,214.47c-.63,0-1.2-.15-1.71-.46-.51-.31-.9-.74-1.19-1.29-.28-.55-.42-1.17-.42-1.86v-.29c0-.71.14-1.35.41-1.92.28-.57.66-1.02,1.15-1.34.49-.32,1.03-.49,1.6-.49.9,0,1.61.31,2.14.92s.79,1.45.79,2.51v.46h-5.28v.16c0,.84.24,1.54.72,2.1s1.09.84,1.81.84c.44,0,.82-.08,1.16-.24.33-.16.64-.41.91-.77l.51.39c-.6.87-1.47,1.3-2.62,1.3ZM645.25,207.5c-.62,0-1.13.23-1.56.68s-.68,1.06-.77,1.82h4.44v-.09c-.02-.71-.23-1.29-.61-1.74-.38-.45-.88-.67-1.5-.67Z"/>
      <path class="cls-7" d="M653.19,207.63c-.17-.03-.36-.05-.55-.05-.51,0-.94.14-1.3.43-.35.29-.6.7-.76,1.24v5.08h-.81v-7.4h.8v1.18c.45-.88,1.14-1.31,2.1-1.31.23,0,.41.03.54.09l-.02.74Z"/>
      <path class="cls-7" d="M655.26,206.94l.03,1.27c.28-.46.62-.8,1.04-1.04.41-.24.87-.36,1.37-.36.79,0,1.38.22,1.77.67.39.45.58,1.12.59,2.01v4.85h-.81v-4.86c0-.66-.14-1.15-.42-1.48-.28-.32-.72-.49-1.32-.49-.51,0-.95.16-1.34.47-.39.32-.68.74-.86,1.28v5.06h-.81v-7.4h.78Z"/>
      <path class="cls-7" d="M665.03,214.47c-.63,0-1.2-.15-1.71-.46-.51-.31-.9-.74-1.19-1.29-.28-.55-.42-1.17-.42-1.86v-.29c0-.71.14-1.35.41-1.92.28-.57.66-1.02,1.15-1.34.49-.32,1.03-.49,1.6-.49.9,0,1.61.31,2.14.92s.79,1.45.79,2.51v.46h-5.28v.16c0,.84.24,1.54.72,2.1s1.09.84,1.81.84c.44,0,.82-.08,1.16-.24.33-.16.64-.41.91-.77l.51.39c-.6.87-1.47,1.3-2.62,1.3ZM664.88,207.5c-.62,0-1.13.23-1.56.68s-.68,1.06-.77,1.82h4.44v-.09c-.02-.71-.23-1.29-.61-1.74-.38-.45-.88-.67-1.5-.67Z"/>
      <path class="cls-7" d="M670.67,205.04v1.89h1.53v.67h-1.53v4.94c0,.41.07.71.22.92s.4.3.74.3c.14,0,.36-.02.66-.07l.03.66c-.21.08-.51.12-.88.12-.56,0-.97-.16-1.22-.49s-.38-.8-.38-1.44v-4.94h-1.36v-.67h1.36v-1.89h.82Z"/>
    </g>
    <g>
      <path class="cls-3" d="M631.05,236.31h-4.66v4.06h5.35v.71h-6.19v-9.95h6.16v.71h-5.32v3.76h4.66v.71Z"/>
      <path class="cls-3" d="M634.11,233.68l.03,1.26c.28-.46.62-.8,1.04-1.04.41-.24.87-.36,1.37-.36.79,0,1.38.22,1.77.67s.58,1.12.59,2.01v4.85h-.81v-4.86c0-.66-.14-1.15-.42-1.48s-.72-.49-1.32-.49c-.51,0-.95.16-1.34.47-.39.32-.68.74-.86,1.28v5.07h-.81v-7.4h.78Z"/>
      <path class="cls-3" d="M642.29,231.79v1.89h1.53v.67h-1.53v4.93c0,.41.07.72.22.92.15.2.4.3.74.3.14,0,.36-.02.66-.07l.03.66c-.21.08-.51.12-.88.12-.56,0-.97-.16-1.22-.49-.26-.33-.38-.81-.38-1.44v-4.94h-1.36v-.67h1.36v-1.89h.82Z"/>
      <path class="cls-3" d="M648.38,241.22c-.63,0-1.2-.16-1.71-.46s-.9-.74-1.19-1.29c-.28-.55-.42-1.17-.42-1.86v-.29c0-.71.14-1.35.41-1.92s.66-1.02,1.15-1.34c.49-.33,1.03-.49,1.6-.49.9,0,1.61.31,2.14.92.53.61.79,1.45.79,2.51v.46h-5.28v.16c0,.84.24,1.54.72,2.1.48.56,1.09.84,1.81.84.44,0,.82-.08,1.16-.24s.64-.42.91-.77l.51.39c-.6.87-1.47,1.31-2.62,1.31ZM648.23,234.25c-.62,0-1.13.23-1.56.68s-.68,1.06-.77,1.82h4.44v-.09c-.02-.71-.23-1.29-.61-1.74s-.88-.67-1.5-.67Z"/>
      <path class="cls-3" d="M656.17,234.38c-.17-.03-.36-.05-.55-.05-.51,0-.94.14-1.3.43-.35.29-.6.7-.76,1.24v5.08h-.81v-7.4h.8v1.18c.45-.88,1.14-1.31,2.1-1.31.23,0,.41.03.54.09l-.02.75Z"/>
      <path class="cls-3" d="M663.41,237.46c0,1.15-.26,2.07-.77,2.74-.51.68-1.19,1.02-2.05,1.02-1.01,0-1.79-.36-2.32-1.07v3.77h-.81v-10.24h.76l.04,1.05c.53-.79,1.31-1.18,2.32-1.18.88,0,1.58.33,2.08,1s.76,1.6.76,2.79v.12ZM662.59,237.31c0-.94-.19-1.69-.58-2.24s-.93-.82-1.62-.82c-.5,0-.93.12-1.29.36s-.64.59-.83,1.05v3.55c.2.42.48.75.84.97s.8.33,1.29.33c.69,0,1.22-.27,1.61-.82.39-.55.58-1.35.58-2.39Z"/>
      <path class="cls-3" d="M668.64,234.38c-.17-.03-.36-.05-.55-.05-.51,0-.94.14-1.3.43-.35.29-.6.7-.76,1.24v5.08h-.81v-7.4h.8v1.18c.45-.88,1.14-1.31,2.1-1.31.23,0,.41.03.54.09l-.02.75Z"/>
      <path class="cls-3" d="M669.88,231.55c0-.15.05-.28.15-.39.1-.11.24-.16.41-.16s.31.05.41.16c.1.11.15.24.15.39s-.05.28-.15.39-.24.16-.41.16-.31-.05-.41-.16-.15-.23-.15-.39ZM670.84,241.08h-.82v-7.4h.82v7.4Z"/>
      <path class="cls-3" d="M677.5,239.2c0-.41-.16-.73-.49-.98s-.82-.44-1.47-.58c-.66-.14-1.17-.3-1.53-.48-.36-.18-.63-.4-.81-.66s-.26-.57-.26-.94c0-.58.24-1.07.73-1.45.49-.38,1.11-.57,1.87-.57.82,0,1.49.2,1.99.61.5.41.75.94.75,1.6h-.82c0-.43-.18-.79-.54-1.08s-.82-.43-1.37-.43-.97.12-1.3.36c-.33.24-.49.55-.49.93s.14.66.41.86c.27.2.77.39,1.48.56s1.26.35,1.61.54.62.42.8.69.26.59.26.98c0,.62-.25,1.12-.76,1.5s-1.16.56-1.97.56c-.86,0-1.56-.21-2.1-.62-.54-.42-.8-.95-.8-1.58h.82c.03.48.23.85.6,1.12.37.27.86.4,1.47.4.57,0,1.03-.12,1.38-.38s.53-.57.53-.95Z"/>
      <path class="cls-3" d="M683.02,241.22c-.63,0-1.2-.16-1.71-.46s-.9-.74-1.19-1.29c-.28-.55-.42-1.17-.42-1.86v-.29c0-.71.14-1.35.41-1.92s.66-1.02,1.15-1.34c.49-.33,1.03-.49,1.6-.49.9,0,1.61.31,2.14.92.53.61.79,1.45.79,2.51v.46h-5.28v.16c0,.84.24,1.54.72,2.1.48.56,1.09.84,1.81.84.44,0,.82-.08,1.16-.24s.64-.42.91-.77l.51.39c-.6.87-1.47,1.31-2.62,1.31ZM682.87,234.25c-.62,0-1.13.23-1.56.68s-.68,1.06-.77,1.82h4.44v-.09c-.02-.71-.23-1.29-.61-1.74s-.88-.67-1.5-.67Z"/>
      <path class="cls-3" d="M698.39,241.08h-.84l-5.72-8.52v8.52h-.85v-9.95h.85l5.73,8.52v-8.52h.83v9.95Z"/>
      <path class="cls-3" d="M703.6,241.22c-.63,0-1.2-.16-1.71-.46s-.9-.74-1.19-1.29c-.28-.55-.42-1.17-.42-1.86v-.29c0-.71.14-1.35.41-1.92s.66-1.02,1.15-1.34c.49-.33,1.03-.49,1.6-.49.9,0,1.61.31,2.14.92.53.61.79,1.45.79,2.51v.46h-5.28v.16c0,.84.24,1.54.72,2.1.48.56,1.09.84,1.81.84.44,0,.82-.08,1.16-.24s.64-.42.91-.77l.51.39c-.6.87-1.47,1.31-2.62,1.31ZM703.44,234.25c-.62,0-1.13.23-1.56.68s-.68,1.06-.77,1.82h4.44v-.09c-.02-.71-.23-1.29-.61-1.74s-.88-.67-1.5-.67Z"/>
      <path class="cls-3" d="M709.23,231.79v1.89h1.53v.67h-1.53v4.93c0,.41.07.72.22.92.15.2.4.3.74.3.14,0,.36-.02.66-.07l.03.66c-.21.08-.51.12-.88.12-.56,0-.97-.16-1.22-.49-.26-.33-.38-.81-.38-1.44v-4.94h-1.36v-.67h1.36v-1.89h.82Z"/>
      <path class="cls-3" d="M714.23,239.38l.12.64.16-.67,1.78-5.66h.7l1.76,5.61.19.78.16-.72,1.52-5.67h.85l-2.15,7.4h-.7l-1.9-5.87-.09-.4-.09.41-1.87,5.86h-.7l-2.15-7.4h.84l1.57,5.69Z"/>
      <path class="cls-3" d="M722.56,237.27c0-.71.14-1.35.41-1.92s.67-1.01,1.17-1.33c.5-.32,1.07-.47,1.71-.47.98,0,1.78.35,2.39,1.04.61.69.92,1.61.92,2.75v.17c0,.72-.14,1.36-.41,1.93-.28.57-.66,1.01-1.17,1.32s-1.07.46-1.72.46c-.98,0-1.78-.35-2.39-1.04-.61-.69-.92-1.61-.92-2.75v-.16ZM723.39,237.5c0,.88.23,1.61.69,2.18.46.57,1.06.85,1.8.85s1.34-.28,1.79-.85c.46-.57.69-1.32.69-2.25v-.16c0-.57-.1-1.08-.31-1.55s-.5-.83-.88-1.09c-.38-.26-.81-.39-1.3-.39-.73,0-1.32.29-1.78.86-.46.57-.69,1.32-.69,2.25v.15Z"/>
      <path class="cls-3" d="M734.27,234.38c-.17-.03-.36-.05-.55-.05-.51,0-.94.14-1.3.43-.35.29-.6.7-.76,1.24v5.08h-.81v-7.4h.8v1.18c.45-.88,1.14-1.31,2.1-1.31.23,0,.41.03.54.09l-.02.75Z"/>
      <path class="cls-3" d="M737.32,237.36l-.94.9v2.82h-.82v-10.5h.82v6.72l.77-.83,2.83-2.78h1.03l-3.14,3.12,3.41,4.28h-.98l-2.99-3.73Z"/>
    </g>
    <g>
      <path class="cls-8" d="M415.55,203.44c-.9,0-1.6-.26-2.12-.79s-.78-1.27-.78-2.22v-4.48c0-.95.26-1.69.78-2.22s1.23-.79,2.12-.79,1.6.26,2.12.79c.52.53.78,1.26.78,2.21v4.49c0,.95-.26,1.69-.78,2.22-.52.53-1.22.79-2.12.79ZM415.55,202.44c.57,0,1.01-.17,1.32-.5.31-.33.47-.8.47-1.41v-4.7c0-.61-.16-1.08-.47-1.41-.31-.33-.75-.5-1.32-.5s-1.01.17-1.32.5c-.31.33-.47.8-.47,1.41v4.7c0,.61.16,1.08.47,1.41.31.33.75.5,1.32.5Z"/>
      <path class="cls-8" d="M423.94,203.44c-.88,0-1.57-.26-2.09-.78-.51-.52-.77-1.23-.77-2.13v-4.93h1.11v4.93c0,.6.16,1.07.47,1.41.31.35.74.52,1.28.52s.98-.17,1.3-.52.48-.82.48-1.41v-4.93h1.11v4.93c0,.9-.26,1.61-.78,2.13-.52.52-1.22.78-2.1.78Z"/>
      <path class="cls-8" d="M433.12,203.29c-.63,0-1.12-.17-1.48-.53-.36-.35-.55-.83-.55-1.43v-4.73h-2.23v-1.01h2.23v-2.17h1.12v2.17h3.16v1.01h-3.16v4.73c0,.3.08.53.25.7.16.17.38.25.67.25h2.18v1.01h-2.18Z"/>
      <path class="cls-8" d="M441.13,203.44c-.57,0-1.04-.14-1.41-.41-.37-.27-.61-.65-.7-1.13v1.4h-1.11v-10.22h1.11v3.92c.07-.48.3-.85.69-1.13s.86-.41,1.43-.41c.77,0,1.39.26,1.85.77.46.51.69,1.21.69,2.09v2.28c0,.88-.23,1.57-.69,2.08-.46.51-1.08.76-1.84.76ZM440.78,202.47c.56,0,1-.15,1.31-.46.31-.3.47-.78.47-1.42v-2.28c0-.64-.16-1.12-.47-1.43-.31-.31-.75-.46-1.31-.46s-.98.17-1.29.51c-.31.34-.47.81-.47,1.42v2.18c0,.61.16,1.08.48,1.42.32.34.75.51,1.29.51Z"/>
      <path class="cls-8" d="M449.15,203.42c-.9,0-1.61-.27-2.14-.8-.53-.53-.8-1.27-.8-2.21v-1.93c0-.94.26-1.68.79-2.21s1.24-.8,2.15-.8,1.62.27,2.15.8c.53.53.79,1.27.79,2.21v1.93c0,.94-.27,1.68-.8,2.21-.53.53-1.25.8-2.14.8ZM449.15,202.43c.57,0,1.02-.16,1.34-.49s.49-.8.49-1.43v-2.13c0-.62-.16-1.1-.49-1.43s-.77-.49-1.34-.49-1.02.16-1.34.49-.49.8-.49,1.43v2.13c0,.62.16,1.1.49,1.43s.77.49,1.34.49Z"/>
      <path class="cls-8" d="M457.54,203.44c-.88,0-1.57-.26-2.09-.78-.51-.52-.77-1.23-.77-2.13v-4.93h1.11v4.93c0,.6.16,1.07.47,1.41.31.35.74.52,1.28.52s.98-.17,1.3-.52.48-.82.48-1.41v-4.93h1.11v4.93c0,.9-.26,1.61-.78,2.13-.52.52-1.22.78-2.1.78Z"/>
      <path class="cls-8" d="M463.11,203.29v-7.7h1.11v1.43c.08-.49.31-.88.67-1.15s.83-.41,1.42-.41c.77,0,1.38.24,1.83.72.46.48.69,1.13.69,1.95v5.17h-1.11v-4.98c0-.62-.15-1.09-.46-1.42s-.73-.5-1.26-.5-.98.17-1.3.52c-.32.34-.48.83-.48,1.44v4.94h-1.11Z"/>
      <path class="cls-8" d="M473.97,203.44c-.77,0-1.38-.25-1.84-.76-.46-.51-.69-1.2-.69-2.08v-2.28c0-.88.23-1.57.69-2.09.46-.51,1.07-.77,1.85-.77.57,0,1.05.14,1.43.41s.62.65.7,1.13v-1.72s-.01-2.2-.01-2.2h1.11v10.22h-1.11v-1.4c-.09.48-.33.85-.7,1.13-.37.28-.84.41-1.41.41ZM474.32,202.47c.54,0,.97-.17,1.29-.51.32-.34.48-.81.48-1.42v-2.18c0-.61-.16-1.08-.47-1.42-.31-.34-.74-.51-1.29-.51s-1,.15-1.31.46c-.31.31-.47.79-.47,1.43v2.28c0,.64.16,1.12.47,1.42.31.3.75.46,1.31.46Z"/>
      <path class="cls-8" d="M412.71,218.29v-10.22h3.21c.94,0,1.69.27,2.25.8.56.54.83,1.26.83,2.16s-.28,1.62-.83,2.16c-.56.54-1.3.81-2.25.81h-2.1v4.28h-1.11ZM413.81,213h2.1c.59,0,1.06-.18,1.41-.53.35-.35.52-.83.52-1.43s-.17-1.08-.52-1.43c-.35-.35-.82-.53-1.41-.53h-2.1v3.92Z"/>
      <path class="cls-8" d="M423.95,218.42c-.9,0-1.61-.27-2.14-.8-.53-.53-.8-1.27-.8-2.21v-1.93c0-.94.26-1.68.79-2.21s1.24-.8,2.15-.8,1.62.27,2.15.8c.53.53.79,1.27.79,2.21v1.93c0,.94-.27,1.68-.8,2.21-.53.53-1.25.8-2.14.8ZM423.95,217.43c.57,0,1.02-.16,1.34-.49s.49-.8.49-1.43v-2.13c0-.62-.16-1.1-.49-1.43s-.77-.49-1.34-.49-1.02.16-1.34.49-.49.8-.49,1.43v2.13c0,.62.16,1.1.49,1.43s.77.49,1.34.49Z"/>
      <path class="cls-8" d="M429.79,218.29v-7.7h1.12v1.43c.08-.48.31-.87.67-1.15.36-.28.83-.42,1.41-.42.81,0,1.43.24,1.86.72s.64,1.16.64,2.04v.67h-1.11v-.67c0-1.19-.57-1.79-1.72-1.79-.57,0-1,.17-1.3.5-.3.34-.45.81-.45,1.43v4.94h-1.12Z"/>
      <path class="cls-8" d="M441.52,218.29c-.63,0-1.12-.17-1.48-.53-.36-.35-.55-.83-.55-1.43v-4.73h-2.23v-1.01h2.23v-2.17h1.12v2.17h3.16v1.01h-3.16v4.73c0,.3.08.53.25.7.16.17.38.25.67.25h2.18v1.01h-2.18Z"/>
      <path class="cls-8" d="M460.14,219.97c-1.31-.3-2.32-.92-3.03-1.87-.71-.95-1.07-2.13-1.07-3.55v-2.6c0-1.42.36-2.6,1.07-3.55.71-.95,1.72-1.57,3.03-1.87v1.06c-.93.22-1.67.72-2.2,1.5-.53.78-.8,1.73-.8,2.86v2.6c0,1.13.27,2.08.8,2.86.53.77,1.26,1.27,2.2,1.5v1.06Z"/>
      <path class="cls-8" d="M467.42,218.29v-2.28h-4.63v-1.82l3.79-6.12h1.26l-3.95,6.38v.55h3.53v-2.59h1.12v5.88h-1.12Z"/>
      <path class="cls-8" d="M475.82,218.29v-2.28h-4.63v-1.82l3.79-6.12h1.26l-3.95,6.38v.55h3.53v-2.59h1.12v5.88h-1.12Z"/>
      <path class="cls-8" d="M482.59,218.44c-.92,0-1.66-.26-2.2-.79-.54-.53-.81-1.24-.81-2.13h1.11c0,.6.17,1.07.52,1.41s.81.52,1.39.52,1.04-.17,1.39-.52.52-.82.52-1.41v-.76c0-.59-.17-1.05-.52-1.39s-.81-.5-1.4-.5h-1.04v-.97l2.59-2.81h-4.28v-1.01h5.53v1.04l-2.53,2.77c.85.05,1.52.33,2.02.84.49.51.74,1.19.74,2.03v.76c0,.9-.27,1.61-.82,2.13s-1.29.79-2.22.79Z"/>
      <path class="cls-8" d="M488.56,219.97v-1.06c.93-.22,1.67-.72,2.2-1.5.53-.78.8-1.73.8-2.86v-2.6c0-1.13-.27-2.08-.8-2.86-.53-.78-1.27-1.27-2.2-1.5v-1.06c1.31.3,2.32.92,3.03,1.87.71.95,1.07,2.13,1.07,3.55v2.6c0,1.42-.36,2.6-1.07,3.55-.71.95-1.72,1.57-3.03,1.87Z"/>
    </g>
    <g>
      <g>
        <path class="cls-4" d="M336.61,259.05c-9.43,0-17.1-7.58-17.1-16.9v-45.72c0-9.32,7.67-16.9,17.1-16.9h46.26c9.43,0,17.1,7.58,17.1,16.9v45.72c0,9.32-7.67,16.9-17.1,16.9h-46.26Z"/>
        <path class="cls-11" d="M382.86,181.42c8.39,0,15.18,6.72,15.18,15.01v45.72c0,8.29-6.8,15.01-15.18,15.01h-46.26c-8.39,0-15.18-6.72-15.18-15.01v-45.72c0-8.29,6.8-15.01,15.18-15.01h46.26M382.86,177.63h-46.26c-10.49,0-19.02,8.43-19.02,18.8v45.72c0,10.36,8.53,18.8,19.02,18.8h46.26c10.49,0,19.02-8.43,19.02-18.8v-45.72c0-10.36-8.53-18.8-19.02-18.8h0Z"/>
      </g>
      <g>
        <path class="cls-9" d="M342.25,241.61v1.36h2.2v1.4h-2.2v3.05h-1.46v-7.23h5.23v1.42h-3.77Z"/>
        <path class="cls-9" d="M347.85,241.56c-.45,0-.82-.37-.82-.82s.38-.81.82-.81.82.37.82.81-.38.82-.82.82ZM347.13,247.42v-5.42h1.44v5.42h-1.44Z"/>
        <path class="cls-9" d="M353.23,243.66c-.23-.21-.51-.35-.84-.35-.56,0-.93.24-.93,1.18v2.93h-1.44v-5.42h1.44v.36c.25-.26.62-.47,1.13-.47.47,0,.82.19,1.01.38l-.38,1.39Z"/>
        <path class="cls-9" d="M358.78,245.17h-3.28c.05.74.61,1.02,1.13,1.02.4,0,.73-.14.94-.38l1.02.85c-.44.56-1.23.88-1.96.88-1.58,0-2.58-1.1-2.58-2.82s1.06-2.83,2.44-2.83c1.46,0,2.31,1.28,2.31,2.83,0,.21-.01.35-.02.45ZM356.42,243.13c-.52,0-.85.42-.9.97h1.88c-.04-.48-.33-.97-.98-.97Z"/>
        <path class="cls-9" d="M366.41,247.42h-1.43l-.9-3.72c-.1-.43-.21-.97-.25-1.24-.03.27-.14.82-.24,1.24l-.92,3.72h-1.37l-1.53-7.23h1.53l.64,3.52c.06.35.15.89.18,1.19.05-.3.17-.84.25-1.19l.86-3.52h1.27l.87,3.52c.08.35.2.89.25,1.19.03-.3.11-.85.18-1.19l.64-3.52h1.5l-1.52,7.23Z"/>
        <path class="cls-9" d="M371.65,247.42v-.36c-.26.27-.72.47-1.23.47-1.02,0-2.05-.62-2.05-1.93,0-1.2.98-1.8,2.22-1.8.5,0,.82.1,1.06.22v-.27c0-.38-.26-.69-.78-.69-.66,0-1,.09-1.5.36l-.55-.99c.64-.36,1.17-.55,2.06-.55,1.33,0,2.22.68,2.22,1.9v3.63h-1.44ZM371.65,245.15c-.25-.15-.49-.23-1-.23-.54,0-.84.25-.84.68,0,.38.22.72.84.72.47,0,.85-.24,1-.5v-.68Z"/>
        <path class="cls-9" d="M374.48,247.42v-6.81l1.44-.71v7.53h-1.44Z"/>
        <path class="cls-9" d="M377.43,247.42v-6.81l1.44-.71v7.53h-1.44Z"/>
      </g>
      <path class="cls-5" d="M375.8,200.5c0,1.96-.03,3.93-.16,5.85-.76,11.14-5.96,19.13-15.9,24.43-8.83-4.66-13.92-11.56-15.52-21.08-.36-2.1-.44-4.34-.5-6.46-.06-2.27-.05-4.6-.03-6.85,0-.62.01-1.24.01-1.86,1.04-.08,2.11-.18,3.16-.3,4.59-.53,8.9-1.67,12.82-3.39,4.72,2.23,9.88,3.53,15.77,3.99.1.01.21.02.32.02,0,.84.01,1.67.02,2.51.01,1.04.02,2.09.02,3.14Z"/>
      <path class="cls-9" d="M380.33,197.33c-.02-1.35-.03-2.7-.02-4.04,0-.35-.06-.63-.09-.81l-.02-.07c-.16-1.04-1.03-1.82-2.09-1.89l-.73-.04c-.53-.03-1.06-.07-1.58-.11-5.48-.43-10.24-1.65-14.54-3.74-1.02-.5-2.03-.51-3.07-.04-3.61,1.62-7.6,2.7-11.88,3.19-1.13.13-2.25.23-3.45.33-.55.04-1.1.09-1.66.14-1.17.11-2.07,1.08-2.07,2.23v.91c0,.99,0,1.99-.01,2.99-.01,2.28-.02,4.65.04,6.99.06,2.27.15,4.69.56,7.08,1.83,10.85,7.85,19.03,17.9,24.31.72.38,1.42.57,2.12.57s1.37-.18,2.07-.55c11.32-6,17.5-15.46,18.36-28.12.21-3.13.18-6.28.15-9.33ZM375.64,206.36c-.76,11.14-5.96,19.13-15.9,24.43-8.83-4.66-13.92-11.56-15.52-21.08-.36-2.1-.44-4.34-.5-6.46-.06-2.27-.05-4.6-.03-6.85,0-.62.01-1.24.01-1.86,1.04-.08,2.11-.18,3.16-.3,4.59-.53,8.9-1.67,12.82-3.39,4.72,2.23,9.88,3.53,15.77,3.99.1.01.21.02.32.02,0,.84.01,1.67.02,2.51.01,1.04.02,2.09.02,3.14,0,1.96-.03,3.93-.16,5.85Z"/>
      <path class="cls-11" d="M367.61,207.78c-.27-.46-.58-.92-.93-1.36-.26-.32-.53-.64-.9-.94.04.3.08.53.1.77,0,.02,0,.04,0,.05.06.72.08,1.43-.14,2.12-.07.23-.17.46-.31.67-.33.57-.83.89-1.51.82-.7-.07-1.01-.55-1.19-1.15-.01-.02-.02-.05-.03-.07-.2-.7-.17-1.42-.09-2.14.14-1.2-.01-2.34-.39-3.44-.18-.54-.43-1.07-.73-1.59-.83-1.45-1.91-2.72-3.06-3.93-.09-.06-.12-.09-.21-.14-.02-.01-.11-.05-.12-.07,0,0,.49,3.33-3.16,7.33-.48.39-.93.84-1.35,1.33-.3.34-.58.7-.84,1.08h0c-1.4,2.01-2.27,4.42-2.27,6.6,0,4.32,3.25,7.61,7.42,8.32,0,0,.02,0,.04,0,1.81.48,3.46-.02,3.46-.02,0,0,.01,0,.04-.01h0c1.25-.24,2.43-.71,3.46-1.4,0,0,0-.01.01-.01,1.36-.86,2.44-2.06,3.13-3.67,0-.01.01-.03.01-.04.32-.69.55-1.43.69-2.23.48-2.42.11-4.73-1.16-6.88ZM366.33,217.47c-.39.95-.96,1.78-1.72,2.48-.6.55-1.22,1.09-2.07,1.26.14-.18.29-.35.45-.52.81-.91,1.07-1.98.92-3.17-.17-1.43-.99-2.5-1.91-3.54-.64-.73-1.25-1.5-1.61-2.43-.14-.36-.18-.73-.24-1.1-.04-.18-.09-.17-.2-.06-.82.84-1.38,1.79-1.47,2.99-.05.69.19,1.34.14,2.02-.05.58-.6,1.05-1.15.91-.36-.08-.71-.59-.77-1.06-.03-.29-.07-.58-.04-.88-.35.41-.64.82-.83,1.29-.35.85-.48,1.74-.36,2.63.1.73.33,1.44.76,2.07.26.36.58.65.87.98,0,0,.02.01.03.01-.04,0-.06-.01-.09-.03-.02,0-.04,0-.06-.01-.01,0-.02,0-.03,0h-.01c-.06-.01-.11-.03-.16-.05-.31-.12-.58-.3-.87-.46-.99-.58-1.76-1.39-2.35-2.35-.44-.73-.67-1.55-.8-2.38-.16-1.03,0-2.02.28-2.99.27-.92.73-1.77,1.27-2.57.41-.6.87-1.17,1.33-1.73.68-.81,1.4-1.6,2.05-2.43.6-.78,1.14-1.6,1.56-2.49.04-.09.06-.21.16-.22.11-.01.14.11.19.18.43.56.82,1.14,1.09,1.78.28.66.42,1.36.44,2.07.01.38,0,.76.03,1.14.01.44.08.87.23,1.31.44,1.17,1.44,1.94,2.72,1.9.74-.02,1.36-.34,1.9-.82.36-.33.34-.34.5.11.34,1.05.52,2.12.48,3.23-.04,1.03-.26,2.02-.66,2.97Z"/>
      <path class="cls-9" d="M362.55,221.2c.14-.18.29-.35.45-.52.81-.91,1.07-1.98.92-3.17-.17-1.43-.99-2.5-1.91-3.54-.64-.73-1.25-1.5-1.61-2.43-.14-.36-.18-.73-.24-1.1-.04-.18-.09-.17-.2-.06-.82.84-1.38,1.79-1.47,2.99-.05.69.19,1.34.14,2.02-.05.58-.6,1.05-1.15.91-.36-.08-.71-.59-.77-1.06-.03-.29-.07-.58-.04-.88-.35.41-.64.82-.83,1.29-.35.85-.48,1.74-.36,2.63.1.73.33,1.44.76,2.07.26.36.58.65.87.98,0,0,.02.01.03.01-.04,0-.06-.01-.09-.03-.02,0-.04,0-.06-.01-.01,0-.02,0-.03,0h-.01c-.06-.01-.11-.03-.16-.05-.31-.12-.58-.3-.87-.46-.99-.58-1.76-1.39-2.35-2.35-.44-.73-.67-1.55-.8-2.38-.16-1.03,0-2.02.28-2.99.27-.92.73-1.77,1.27-2.57.41-.6.87-1.17,1.33-1.73.68-.81,1.4-1.6,2.05-2.43.6-.78,1.14-1.6,1.56-2.49.04-.09.06-.21.16-.22.11-.01.14.11.19.18.43.56.82,1.14,1.09,1.78.28.66.42,1.36.44,2.07.01.38,0,.76.03,1.14.01.44.08.87.23,1.31.44,1.17,1.44,1.94,2.72,1.9.74-.02,1.36-.34,1.9-.82.36-.33.34-.34.5.11.34,1.05.52,2.12.48,3.23-.04,1.03-.26,2.02-.66,2.97-.39.95-.96,1.78-1.72,2.48-.6.55-1.22,1.09-2.07,1.26Z"/>
    </g>
    <g>
      <g>
        <path class="cls-4" d="M336.58,377.62c-9.44,0-17.13-7.58-17.13-16.9v-42.32c0-9.32,7.68-16.9,17.13-16.9h46.32c9.44,0,17.13,7.58,17.13,16.9v42.32c0,9.32-7.68,16.9-17.13,16.9h-46.32Z"/>
        <path class="cls-11" d="M382.89,303.38c8.4,0,15.21,6.72,15.21,15.01v42.32c0,8.29-6.81,15.01-15.21,15.01h-46.32c-8.4,0-15.21-6.72-15.21-15.01v-42.32c0-8.29,6.81-15.01,15.21-15.01h46.32M382.89,299.6h-46.32c-10.5,0-19.04,8.43-19.04,18.8v42.32c0,10.37,8.54,18.8,19.04,18.8h46.32c10.5,0,19.04-8.43,19.04-18.8v-42.32c0-10.37-8.54-18.8-19.04-18.8h0Z"/>
      </g>
      <g>
        <rect class="cls-4" x="319.38" y="359.15" width="80.7" height="81.84" rx="16.25" ry="16.25"/>
        <path class="cls-11" d="M383.84,361.05c7.91,0,14.35,6.44,14.35,14.35v49.35c0,7.91-6.44,14.35-14.35,14.35h-48.21c-7.91,0-14.35-6.44-14.35-14.35v-49.35c0-7.91,6.44-14.35,14.35-14.35h48.21M383.84,357.26h-48.21c-10,0-18.14,8.14-18.14,18.14v49.35c0,10,8.14,18.14,18.14,18.14h48.21c10,0,18.14-8.14,18.14-18.14v-49.35c0-10-8.14-18.14-18.14-18.14h0Z"/>
      </g>
      <g>
        <g>
          <path class="cls-4" d="M336.55,411.99c-9.46,0-17.15-7.58-17.15-16.9v-45.72c0-9.32,7.69-16.9,17.15-16.9h46.37c9.46,0,17.15,7.58,17.15,16.9v45.72c0,9.32-7.69,16.9-17.15,16.9h-46.37Z"/>
          <path class="cls-11" d="M382.92,334.36c8.41,0,15.23,6.72,15.23,15.01v45.72c0,8.29-6.82,15.01-15.23,15.01h-46.37c-8.41,0-15.23-6.72-15.23-15.01v-45.72c0-8.29,6.82-15.01,15.23-15.01h46.37M382.92,330.57h-46.37c-10.51,0-19.07,8.43-19.07,18.8v45.72c0,10.37,8.55,18.8,19.07,18.8h46.37c10.51,0,19.07-8.43,19.07-18.8v-45.72c0-10.37-8.55-18.8-19.07-18.8h0Z"/>
        </g>
        <path class="cls-11" d="M346.46,367.87h19.25c.48,0,.86-.38.86-.85s-.39-.85-.86-.85h-4.09v-4.84l2,1.95c.34.33.89.33,1.22,0,.34-.33.33-.87,0-1.21h0l-3.49-3.41c-.34-.33-.88-.33-1.22,0l-3.49,3.45c-.34.33-.34.87,0,1.21s.89.33,1.22,0l2.04-2.01v4.86h-6.92v-9.11l2,1.95c.33.34.88.35,1.22.03s.36-.87.03-1.21c-.01-.01-.02-.02-.03-.03l-3.49-3.41c-.34-.33-.88-.33-1.22,0l-3.5,3.45c-.34.33-.34.87,0,1.21.34.33.89.33,1.22,0l2.03-2.01v9.13h-4.77c-.48,0-.86.38-.86.85s.39.85.86.85Z"/>
        <path class="cls-11" d="M365.71,369.15h-19.25c-.48,0-.86.38-.86.85s.39.85.86.85h19.25c.48,0,.86-.38.86-.85s-.39-.85-.86-.85Z"/>
        <path class="cls-2" d="M356.08,348.75c8.34,0,15.11,6.67,15.11,14.89,0,8.22-6.76,14.89-15.1,14.89-8.34,0-15.11-6.67-15.11-14.89,0,0,0,0,0,0,0-8.22,6.77-14.88,15.1-14.89M356.08,344.51c-10.72,0-19.4,8.56-19.4,19.13s8.69,19.13,19.4,19.13,19.4-8.56,19.4-19.13h0c0-10.56-8.68-19.13-19.4-19.13,0,0,0,0,0,0Z"/>
        <rect class="cls-2" x="378.63" y="352.42" width="4.16" height="30.3"/>
        <rect class="cls-2" x="378.63" y="344.46" width="4.16" height="3.85"/>
        <g>
          <path class="cls-9" d="M352.18,395.56c0,.82-.16,1.51-.47,2.09-.31.57-.74,1.01-1.28,1.31-.54.3-1.14.45-1.82.45s-1.28-.15-1.82-.45c-.54-.3-.96-.74-1.27-1.32-.31-.57-.47-1.27-.47-2.09s.16-1.51.47-2.09c.31-.57.74-1.01,1.27-1.31s1.15-.45,1.82-.45,1.28.15,1.82.45c.54.3.97.74,1.28,1.31.31.57.47,1.27.47,2.09ZM350.55,395.56c0-.53-.08-.98-.24-1.34-.16-.36-.38-.64-.67-.83-.29-.19-.63-.28-1.02-.28s-.73.09-1.02.28c-.29.19-.52.46-.68.83-.16.36-.24.81-.24,1.34s.08.98.24,1.34c.16.36.39.64.68.83.29.19.63.28,1.02.28s.73-.09,1.02-.28c.29-.19.52-.46.67-.83.16-.36.24-.81.24-1.34Z"/>
          <path class="cls-9" d="M354.98,391.81v7.51h-1.61v-7.51h1.61Z"/>
          <path class="cls-9" d="M356.3,399.31v-7.51h3.05c.56,0,1.03.08,1.4.25.37.16.66.39.84.68s.28.62.28,1c0,.29-.06.55-.18.77-.12.22-.28.4-.49.54s-.44.24-.71.3v.07c.29.01.56.09.82.24s.46.36.62.62.24.59.24.95c0,.4-.1.75-.3,1.07s-.49.56-.88.74c-.39.18-.87.27-1.44.27h-3.25ZM357.91,394.95h1.19c.22,0,.42-.04.59-.12.17-.08.31-.19.41-.33.1-.14.15-.31.15-.51,0-.27-.1-.49-.29-.66-.2-.17-.47-.25-.83-.25h-1.22v1.86ZM357.91,398.01h1.31c.45,0,.78-.08.98-.25s.31-.4.31-.68c0-.21-.05-.39-.15-.55-.1-.16-.25-.28-.43-.37s-.41-.14-.67-.14h-1.35v1.99Z"/>
          <path class="cls-9" d="M366.85,396.92v-3.23h1.58v5.63h-1.52v-1.02h-.06c-.13.33-.34.6-.64.8-.3.2-.66.3-1.09.3-.38,0-.72-.09-1.01-.26-.29-.17-.52-.41-.68-.73-.16-.32-.24-.69-.25-1.13v-3.58h1.58v3.31c0,.33.09.6.27.79.18.19.42.29.72.29.19,0,.37-.04.54-.13.17-.09.3-.22.4-.39.1-.17.15-.38.15-.63Z"/>
          <path class="cls-9" d="M374.45,395.29l-1.45.09c-.02-.12-.08-.23-.16-.33-.08-.1-.19-.18-.32-.24-.13-.06-.29-.09-.47-.09-.25,0-.45.05-.62.15s-.25.24-.25.41c0,.13.05.25.16.34.11.09.3.17.56.22l1.03.21c.56.11.97.29,1.24.54s.41.58.41.98c0,.37-.11.69-.33.97s-.52.5-.9.65c-.38.16-.82.23-1.31.23-.76,0-1.36-.16-1.8-.47-.45-.31-.71-.74-.79-1.27l1.56-.08c.05.23.16.4.34.52s.41.18.7.18.5-.05.67-.16c.17-.11.26-.24.26-.41,0-.14-.06-.26-.18-.35-.12-.09-.3-.16-.55-.21l-.99-.19c-.56-.11-.97-.3-1.24-.57-.27-.27-.41-.62-.41-1.04,0-.36.1-.67.3-.93s.48-.46.84-.61.79-.21,1.28-.21c.72,0,1.29.15,1.7.45.42.3.66.71.73,1.23Z"/>
        </g>
      </g>
    </g>
    <g>
      <path class="cls-3" d="M345.01,426.63c0,.79-.15,1.47-.45,2.02-.3.56-.71.98-1.22,1.27-.52.29-1.09.44-1.73.44s-1.23-.15-1.74-.44c-.51-.29-.92-.72-1.22-1.28-.3-.56-.45-1.23-.45-2.02s.15-1.47.45-2.02c.3-.56.7-.98,1.22-1.27.51-.29,1.09-.44,1.74-.44s1.22.15,1.73.44.92.72,1.22,1.27c.3.56.45,1.23.45,2.02ZM343.45,426.63c0-.51-.08-.95-.23-1.3-.15-.35-.37-.62-.64-.8-.28-.18-.6-.27-.97-.27s-.7.09-.97.27c-.28.18-.49.45-.64.8-.15.35-.23.79-.23,1.3s.08.95.23,1.3c.15.35.37.62.64.8.28.18.6.27.97.27s.7-.09.97-.27.49-.45.64-.8c.15-.35.23-.79.23-1.3Z"/>
      <path class="cls-3" d="M350.09,425.09c-.03-.29-.15-.51-.37-.67-.22-.16-.51-.24-.88-.24-.25,0-.46.04-.64.11-.17.07-.3.17-.4.29-.09.12-.14.26-.14.42,0,.13.02.24.08.34.06.1.14.18.25.25.11.07.23.13.37.18s.29.09.45.13l.65.16c.32.07.61.17.87.28.27.12.49.26.69.44.19.17.35.38.45.61.11.23.16.5.17.81,0,.45-.12.83-.34,1.16-.22.33-.55.58-.97.76-.42.18-.93.27-1.52.27s-1.1-.09-1.53-.27c-.43-.18-.77-.45-1.02-.8-.24-.35-.37-.79-.38-1.32h1.49c.02.24.09.45.21.61.12.16.29.28.5.37s.45.12.71.12.49-.04.68-.11c.19-.08.34-.18.45-.32.11-.13.16-.29.16-.46,0-.16-.05-.3-.14-.41-.1-.11-.24-.21-.42-.28-.18-.08-.41-.15-.67-.21l-.79-.2c-.61-.15-1.1-.38-1.45-.7s-.53-.74-.53-1.28c0-.44.12-.82.35-1.15s.56-.59.98-.77c.42-.19.89-.28,1.42-.28s1.01.09,1.42.28c.4.18.72.44.94.77s.34.71.35,1.14h-1.47Z"/>
      <path class="cls-3" d="M354.23,423v7.27h-1.54v-7.27h1.54Z"/>
      <path class="cls-3" d="M360.01,426.37l-1.38.09c-.02-.12-.07-.23-.15-.32-.08-.1-.18-.17-.31-.23-.13-.06-.28-.09-.45-.09-.23,0-.43.05-.59.15s-.24.23-.24.39c0,.13.05.24.16.33.1.09.28.16.54.22l.99.2c.53.11.93.28,1.19.53.26.24.39.56.39.95,0,.36-.1.67-.31.94-.21.27-.5.48-.86.63s-.78.23-1.26.23c-.72,0-1.3-.15-1.72-.45-.43-.3-.68-.71-.75-1.23l1.49-.08c.04.22.15.39.33.5.17.12.39.17.66.17s.48-.05.64-.15c.16-.1.24-.24.25-.4,0-.14-.06-.25-.17-.34s-.29-.16-.53-.2l-.94-.19c-.53-.11-.93-.29-1.19-.55s-.39-.6-.39-1c0-.35.1-.65.29-.91.19-.25.46-.45.81-.59.35-.14.75-.21,1.22-.21.69,0,1.23.15,1.63.44s.63.69.69,1.19Z"/>
      <path class="cls-3" d="M363.55,430.37c-.55,0-1.03-.12-1.43-.35-.4-.24-.71-.56-.93-.99-.22-.42-.33-.91-.33-1.47s.11-1.06.33-1.48c.22-.42.53-.75.93-.99.4-.24.88-.35,1.43-.35s1.03.12,1.43.35c.4.24.71.56.93.99.22.42.33.92.33,1.48s-.11,1.05-.33,1.47c-.22.42-.53.75-.93.99-.4.24-.88.35-1.43.35ZM363.56,429.2c.25,0,.46-.07.63-.21.17-.14.3-.34.38-.59.09-.25.13-.53.13-.85s-.04-.6-.13-.85c-.09-.25-.21-.45-.38-.59-.17-.14-.38-.22-.63-.22s-.47.07-.64.22c-.17.14-.3.34-.39.59-.09.25-.13.53-.13.85s.04.6.13.85c.09.25.22.44.39.59.17.14.38.21.64.21Z"/>
      <path class="cls-3" d="M370.15,424.81v1.14h-3.37v-1.14h3.37ZM367.56,430.27v-5.85c0-.4.08-.72.23-.98.15-.26.37-.46.64-.59.27-.13.58-.2.92-.2.23,0,.44.02.64.05.19.04.34.07.43.1l-.27,1.14c-.06-.02-.13-.04-.22-.05-.09-.02-.17-.02-.26-.02-.22,0-.38.05-.47.15-.09.1-.13.25-.13.43v5.82h-1.51Z"/>
      <path class="cls-3" d="M373.98,424.81v1.14h-3.28v-1.14h3.28ZM371.44,423.51h1.51v5.09c0,.14.02.25.06.32.04.08.1.13.18.16.08.03.17.05.27.05.07,0,.14,0,.21-.02s.13-.02.16-.03l.24,1.13c-.08.02-.18.05-.32.08-.14.03-.3.05-.5.06-.36.01-.68-.03-.96-.15s-.49-.28-.64-.52c-.15-.23-.23-.53-.22-.89v-5.28Z"/>
      <path class="cls-3" d="M377.31,430.27v-7.27h2.87c.55,0,1.02.1,1.41.31.39.21.69.5.89.87.2.37.31.8.31,1.28s-.1.91-.31,1.28c-.21.37-.51.66-.9.86s-.87.31-1.43.31h-1.83v-1.23h1.58c.3,0,.54-.05.73-.16.19-.1.34-.25.43-.43.1-.18.14-.39.14-.63s-.05-.45-.14-.63c-.1-.18-.24-.32-.44-.42s-.44-.15-.74-.15h-1.04v6.02h-1.54Z"/>
      <path class="cls-3" d="M385.33,423v7.27h-1.54v-7.27h1.54Z"/>
    </g>
    <g>
      <path class="cls-3" d="M342.86,320.38h-1.65l2.51-7.27h1.98l2.51,7.27h-1.65l-1.82-5.61h-.06l-1.83,5.61ZM342.76,317.52h3.89v1.2h-3.89v-1.2Z"/>
      <path class="cls-3" d="M349.98,320.38l-2.08-7.27h1.68l1.2,5.05h.06l1.33-5.05h1.44l1.32,5.06h.06l1.2-5.06h1.68l-2.08,7.27h-1.5l-1.38-4.75h-.06l-1.38,4.75h-1.5Z"/>
      <path class="cls-3" d="M362.58,315.2c-.03-.29-.15-.51-.37-.67-.22-.16-.51-.24-.88-.24-.25,0-.46.04-.64.11-.17.07-.3.17-.4.29-.09.12-.14.26-.14.42,0,.13.02.24.08.34.06.1.14.18.25.25.11.07.23.13.37.18s.29.09.45.13l.65.16c.32.07.61.17.87.28.27.12.49.26.69.44.19.17.35.38.45.61.11.23.16.5.17.81,0,.45-.12.83-.34,1.16-.22.33-.55.58-.97.76-.42.18-.93.27-1.52.27s-1.1-.09-1.53-.27c-.43-.18-.77-.45-1.02-.8-.24-.35-.37-.79-.38-1.32h1.49c.02.24.09.45.21.61.12.16.29.28.5.37s.45.12.71.12.49-.04.68-.11c.19-.08.34-.18.45-.32.11-.13.16-.29.16-.46,0-.16-.05-.3-.14-.41-.1-.11-.24-.21-.42-.28-.18-.08-.41-.15-.67-.21l-.79-.2c-.61-.15-1.1-.38-1.45-.7s-.53-.74-.53-1.28c0-.44.12-.82.35-1.15s.56-.59.98-.77c.42-.19.89-.28,1.42-.28s1.01.09,1.42.28c.4.18.72.44.94.77s.34.71.35,1.14h-1.47Z"/>
      <path class="cls-3" d="M371.45,315.2c-.03-.29-.15-.51-.37-.67-.22-.16-.51-.24-.88-.24-.25,0-.46.04-.64.11-.17.07-.3.17-.4.29-.09.12-.14.26-.14.42,0,.13.02.24.08.34.06.1.14.18.25.25.11.07.23.13.37.18s.29.09.45.13l.65.16c.32.07.61.17.87.28.27.12.49.26.69.44.19.17.35.38.45.61.11.23.16.5.17.81,0,.45-.12.83-.34,1.16-.22.33-.55.58-.97.76-.42.18-.93.27-1.52.27s-1.1-.09-1.53-.27c-.43-.18-.77-.45-1.02-.8-.24-.35-.37-.79-.38-1.32h1.49c.02.24.09.45.21.61.12.16.29.28.5.37s.45.12.71.12.49-.04.68-.11c.19-.08.34-.18.45-.32.11-.13.16-.29.16-.46,0-.16-.05-.3-.14-.41-.1-.11-.24-.21-.42-.28-.18-.08-.41-.15-.67-.21l-.79-.2c-.61-.15-1.1-.38-1.45-.7s-.53-.74-.53-1.28c0-.44.12-.82.35-1.15s.56-.59.98-.77c.42-.19.89-.28,1.42-.28s1.01.09,1.42.28c.4.18.72.44.94.77s.34.71.35,1.14h-1.47Z"/>
      <path class="cls-3" d="M376.7,320.48c-.53,0-1-.09-1.42-.28-.41-.18-.74-.44-.98-.76-.24-.32-.36-.7-.37-1.12h1.55c0,.18.07.33.18.47.11.13.25.24.43.31.18.07.38.11.61.11s.44-.04.62-.12c.18-.08.32-.2.42-.34.1-.15.15-.32.15-.51s-.05-.37-.16-.52-.26-.27-.46-.35c-.2-.09-.44-.13-.71-.13h-.68v-1.13h.68c.23,0,.44-.04.62-.12.18-.08.32-.19.42-.34.1-.14.15-.31.15-.5s-.04-.34-.13-.48-.21-.25-.36-.33c-.16-.08-.34-.12-.54-.12s-.4.04-.57.11c-.17.07-.31.18-.42.32-.1.14-.16.3-.17.48h-1.47c0-.42.13-.79.36-1.11.23-.32.54-.57.94-.75.39-.18.84-.27,1.34-.27s.94.09,1.32.27c.38.18.67.43.88.74.21.31.31.66.31,1.04,0,.41-.12.75-.38,1.02-.25.27-.58.45-.99.52v.06c.53.07.94.25,1.22.56.28.3.42.68.42,1.13,0,.41-.12.78-.36,1.1s-.57.58-.99.76-.9.28-1.45.28Z"/>
    </g>
    <g>
      <path class="cls-8" d="M375.04,280.02v-6h-.11c-.27,0-.45-.03-.55-.09s-.15-.17-.15-.33c0-.14.04-.25.12-.32s.2-.11.35-.11h.89c.11,0,.19.02.25.06s.09.1.09.18v2.65c.29-.27.57-.46.85-.59s.57-.19.87-.19c.59,0,1.05.18,1.39.55s.51.88.51,1.52v2.65h.28c.2,0,.34.03.42.1s.13.17.13.31-.04.25-.12.32c-.08.07-.2.11-.35.11h-1.56c-.18,0-.31-.03-.37-.09-.06-.06-.1-.17-.1-.33s.04-.26.12-.32c.08-.06.23-.08.46-.08h.21v-2.44c0-.46-.1-.81-.31-1.05-.21-.24-.51-.36-.9-.36s-.76.13-1.06.4c-.3.27-.46.6-.46,1v2.44h.21c.23,0,.39.03.47.09s.12.16.12.32c0,.16-.03.27-.1.33s-.19.09-.37.09h-1.56c-.15,0-.27-.04-.34-.11s-.11-.18-.11-.32c0-.16.05-.26.14-.32s.27-.08.54-.08h.12Z"/>
      <path class="cls-8" d="M386.04,275.76c.19,0,.33.03.42.1s.13.17.13.32c0,.14-.04.24-.12.31s-.21.1-.37.1h-2.37v1.96c0,.64.08,1.06.25,1.27s.45.3.85.3c.36,0,.78-.1,1.28-.31s.8-.31.92-.31c.11,0,.2.04.28.12s.11.17.11.29c0,.13-.05.24-.14.34s-.26.19-.49.28c-.38.15-.73.26-1.03.33s-.59.11-.86.11c-.46,0-.84-.07-1.15-.22s-.54-.36-.69-.65c-.08-.14-.13-.3-.17-.49s-.05-.48-.05-.87v-2.14h-1c-.16,0-.28-.03-.36-.1s-.11-.17-.11-.31c0-.16.05-.27.15-.33s.32-.09.65-.09h.66v-1.51c0-.17.04-.29.11-.37s.18-.12.34-.12c.17,0,.29.05.36.15s.1.32.1.67v1.19h2.31Z"/>
      <path class="cls-8" d="M393.24,275.76c.19,0,.33.03.42.1s.13.17.13.32c0,.14-.04.24-.12.31s-.21.1-.37.1h-2.37v1.96c0,.64.08,1.06.25,1.27s.45.3.85.3c.36,0,.78-.1,1.28-.31s.8-.31.92-.31c.11,0,.2.04.28.12s.11.17.11.29c0,.13-.05.24-.14.34s-.26.19-.49.28c-.38.15-.73.26-1.03.33s-.59.11-.86.11c-.46,0-.84-.07-1.15-.22s-.54-.36-.69-.65c-.08-.14-.13-.3-.17-.49s-.05-.48-.05-.87v-2.14h-1c-.16,0-.28-.03-.36-.1s-.11-.17-.11-.31c0-.16.05-.27.15-.33s.32-.09.65-.09h.66v-1.51c0-.17.04-.29.11-.37s.18-.12.34-.12c.17,0,.29.05.36.15s.1.32.1.67v1.19h2.31Z"/>
      <path class="cls-8" d="M397.33,282.34h1.41c.15,0,.26.04.33.11s.11.18.11.32c0,.15-.04.26-.11.32s-.2.09-.38.09h-2.58c-.16,0-.27-.04-.35-.11s-.12-.17-.12-.31c0-.16.05-.27.15-.33s.28-.09.55-.09h.11v-6.08h-.11c-.27,0-.45-.03-.55-.09s-.15-.17-.15-.33c0-.14.04-.24.12-.31s.2-.1.35-.1h.89c.12,0,.2.02.25.06s.08.1.08.18v.57c.27-.27.56-.48.88-.62s.67-.21,1.04-.21c.79,0,1.44.27,1.97.8s.79,1.2.79,2-.25,1.4-.75,1.9-1.14.74-1.92.74c-.41,0-.79-.07-1.14-.22s-.64-.36-.87-.63v2.34ZM399.15,279.99c.54,0,.99-.17,1.34-.51s.52-.78.52-1.33-.17-.97-.52-1.32-.79-.52-1.33-.52-.98.17-1.32.52-.52.78-.52,1.32.17.98.51,1.32.78.52,1.33.52Z"/>
      <path class="cls-8" d="M403.49,280.42v-1.04c0-.17.03-.29.1-.37s.17-.11.31-.11c.16,0,.29.11.38.33.06.13.12.23.17.3.16.21.41.38.73.51s.67.19,1.06.19c.41,0,.75-.08,1-.25s.38-.39.38-.66-.1-.47-.3-.59-.55-.18-1.03-.18h-.32c-.8,0-1.4-.14-1.82-.42s-.63-.68-.63-1.21.2-.92.61-1.2.98-.43,1.72-.43c.3,0,.61.04.92.12s.48.13.49.13c.04,0,.12-.04.25-.12s.24-.11.36-.11c.13,0,.23.05.3.15s.1.24.1.44v.69c0,.21-.03.36-.09.45s-.16.14-.3.14c-.12,0-.26-.1-.43-.3-.12-.14-.22-.24-.3-.31-.21-.19-.43-.33-.66-.41s-.51-.12-.83-.12c-.37,0-.66.08-.89.24s-.34.37-.34.62.12.42.35.53.73.17,1.49.18c.81.02,1.41.16,1.78.42s.56.67.56,1.22-.21.95-.62,1.27-.97.47-1.68.47c-.22,0-.47-.02-.74-.06s-.62-.11-1.03-.21c-.14.09-.25.16-.35.2s-.18.07-.25.07c-.14,0-.24-.05-.31-.14s-.11-.23-.11-.41Z"/>
    </g>
    <g>
      <path class="cls-8" d="M310.92,460.13v-6h-.11c-.27,0-.45-.03-.55-.09s-.15-.17-.15-.33c0-.14.04-.25.12-.32s.2-.11.35-.11h.89c.11,0,.19.02.25.06s.09.1.09.18v2.65c.29-.27.57-.46.85-.59s.57-.19.87-.19c.59,0,1.05.18,1.39.55s.51.88.51,1.52v2.65h.28c.2,0,.34.03.42.1s.13.17.13.31-.04.25-.12.32c-.08.07-.2.11-.35.11h-1.56c-.18,0-.31-.03-.37-.09-.06-.06-.1-.17-.1-.33s.04-.26.12-.32c.08-.06.23-.08.46-.08h.21v-2.44c0-.46-.1-.81-.31-1.05-.21-.24-.51-.36-.9-.36s-.76.13-1.06.4c-.3.27-.46.6-.46,1v2.44h.21c.23,0,.39.03.47.09s.12.16.12.32c0,.16-.03.27-.1.33s-.19.09-.37.09h-1.56c-.15,0-.27-.04-.34-.11s-.11-.18-.11-.32c0-.16.05-.26.14-.32s.27-.08.54-.08h.12Z"/>
      <path class="cls-8" d="M321.93,455.87c.19,0,.33.03.42.1s.13.17.13.32c0,.14-.04.24-.12.31s-.21.1-.37.1h-2.37v1.96c0,.64.08,1.06.25,1.27s.45.3.85.3c.36,0,.78-.1,1.28-.31s.8-.31.92-.31c.11,0,.2.04.28.12s.11.17.11.29c0,.13-.05.24-.14.34s-.26.19-.49.28c-.38.15-.73.26-1.03.33s-.59.11-.86.11c-.46,0-.84-.07-1.15-.22s-.54-.36-.69-.65c-.08-.14-.13-.3-.17-.49s-.05-.48-.05-.87v-2.14h-1c-.16,0-.28-.03-.36-.1s-.11-.17-.11-.31c0-.16.05-.27.15-.33s.32-.09.65-.09h.66v-1.51c0-.17.04-.29.11-.37s.18-.12.34-.12c.17,0,.29.05.36.15s.1.32.1.67v1.19h2.31Z"/>
      <path class="cls-8" d="M329.13,455.87c.19,0,.33.03.42.1s.13.17.13.32c0,.14-.04.24-.12.31s-.21.1-.37.1h-2.37v1.96c0,.64.08,1.06.25,1.27s.45.3.85.3c.36,0,.78-.1,1.28-.31s.8-.31.92-.31c.11,0,.2.04.28.12s.11.17.11.29c0,.13-.05.24-.14.34s-.26.19-.49.28c-.38.15-.73.26-1.03.33s-.59.11-.86.11c-.46,0-.84-.07-1.15-.22s-.54-.36-.69-.65c-.08-.14-.13-.3-.17-.49s-.05-.48-.05-.87v-2.14h-1c-.16,0-.28-.03-.36-.1s-.11-.17-.11-.31c0-.16.05-.27.15-.33s.32-.09.65-.09h.66v-1.51c0-.17.04-.29.11-.37s.18-.12.34-.12c.17,0,.29.05.36.15s.1.32.1.67v1.19h2.31Z"/>
      <path class="cls-8" d="M333.22,462.46h1.41c.15,0,.26.04.33.11s.11.18.11.32c0,.15-.04.26-.11.32s-.2.09-.38.09h-2.58c-.16,0-.27-.04-.35-.11s-.12-.17-.12-.31c0-.16.05-.27.15-.33s.28-.09.55-.09h.11v-6.08h-.11c-.27,0-.45-.03-.55-.09s-.15-.17-.15-.33c0-.14.04-.24.12-.31s.2-.1.35-.1h.89c.12,0,.2.02.25.06s.08.1.08.18v.57c.27-.27.56-.48.88-.62s.67-.21,1.04-.21c.79,0,1.44.27,1.97.8s.79,1.2.79,2-.25,1.4-.75,1.9-1.14.74-1.92.74c-.41,0-.79-.07-1.14-.22s-.64-.36-.87-.63v2.34ZM335.03,460.11c.54,0,.99-.17,1.34-.51s.52-.78.52-1.33-.17-.97-.52-1.32-.79-.52-1.33-.52-.98.17-1.32.52-.52.78-.52,1.32.17.98.51,1.32.78.52,1.33.52Z"/>
    </g>
    <path class="cls-7" d="M390.52,570.46h-153.44c-11.81,0-21.42-9.61-21.42-21.42v-237.1c0-11.81,9.61-21.42,21.42-21.42h153.44c11.81,0,21.42,9.61,21.42,21.42v237.1c0,11.81-9.61,21.42-21.42,21.42ZM237.08,292.53c-10.71,0-19.42,8.71-19.42,19.42v237.1c0,10.71,8.71,19.42,19.42,19.42h153.44c10.71,0,19.42-8.71,19.42-19.42v-237.1c0-10.71-8.71-19.42-19.42-19.42h-153.44Z"/>
    <g>
      <path class="cls-11" d="M231.22,353.56h-2.34v-11.38h2.34v11.38Z"/>
      <path class="cls-11" d="M235.74,349.55v4.01h-2.34v-11.38h4.44c.85,0,1.61.16,2.25.47s1.15.76,1.5,1.33c.35.58.52,1.23.52,1.96,0,1.11-.38,1.99-1.14,2.64-.76.64-1.82.96-3.17.96h-2.05ZM235.74,347.65h2.09c.62,0,1.09-.15,1.42-.44.33-.29.49-.71.49-1.25s-.16-1.01-.49-1.35-.78-.52-1.36-.53h-2.15v3.57Z"/>
      <path class="cls-11" d="M243.67,346.05c0-.36.12-.65.36-.88s.55-.34.91-.34.68.11.92.34.36.52.36.88-.12.64-.36.86c-.24.22-.55.33-.92.33s-.67-.11-.91-.33c-.24-.22-.36-.51-.36-.86ZM243.67,352.45c0-.36.12-.65.36-.88s.55-.34.91-.34.68.11.92.34.36.52.36.88-.12.64-.36.86c-.24.22-.55.33-.92.33s-.67-.11-.91-.33c-.24-.22-.36-.51-.36-.86Z"/>
    </g>
    <g>
      <path class="cls-8" d="M228.83,366.72v-.86h2.4v-7.07l-2.38,1.78v-1.09l2.04-1.51h1.28v7.9h1.98v.86h-5.33Z"/>
      <path class="cls-8" d="M237.31,366.72l2.26-3.85-.04-.02c-.09.13-.25.24-.49.34-.24.1-.51.14-.8.14-.5,0-.93-.11-1.31-.34-.38-.22-.67-.54-.88-.94s-.32-.86-.32-1.39c0-.56.12-1.05.35-1.48s.56-.75.98-.99c.42-.24.9-.35,1.44-.35s1.04.12,1.46.35c.42.24.75.56.98.98.24.42.35.9.35,1.45,0,.38-.07.77-.2,1.17-.14.4-.32.8-.56,1.22l-2.11,3.71h-1.1ZM238.51,362.56c.54,0,.98-.18,1.32-.53.34-.36.51-.82.52-1.4,0-.58-.17-1.04-.51-1.4-.34-.36-.78-.54-1.33-.54s-.98.18-1.32.54c-.34.36-.5.83-.5,1.42s.17,1.03.5,1.39c.34.36.78.53,1.32.53Z"/>
      <path class="cls-8" d="M243.18,366.72v-.88l2.98-3.18c.42-.43.72-.84.9-1.21s.28-.74.28-1.1c0-.5-.15-.91-.44-1.21s-.7-.46-1.2-.46-.92.16-1.23.47c-.31.31-.46.72-.46,1.24h-.95c.02-.78.26-1.39.74-1.85.48-.46,1.11-.69,1.9-.69s1.43.23,1.9.68.71,1.07.71,1.84c0,.43-.12.88-.35,1.36-.23.47-.61.98-1.13,1.54l-2.5,2.6h4.08v.86h-5.23Z"/>
      <path class="cls-8" d="M252.91,366.84c-.29,0-.52-.09-.7-.26-.18-.17-.26-.4-.26-.68s.09-.51.26-.69c.18-.18.41-.27.7-.27s.52.09.7.27.26.41.26.69-.09.51-.26.68-.41.26-.7.26Z"/>
      <path class="cls-8" d="M257.63,366.72v-.86h2.4v-7.07l-2.38,1.78v-1.09l2.04-1.51h1.28v7.9h1.98v.86h-5.33Z"/>
      <path class="cls-8" d="M267.32,366.84c-.56,0-1.05-.12-1.47-.35-.42-.24-.75-.56-.98-.98-.23-.42-.35-.9-.35-1.45,0-.38.07-.77.22-1.17.14-.4.33-.8.56-1.22l2.09-3.71h1.06l-2.23,3.85.04.02c.1-.14.27-.25.5-.34.23-.09.49-.14.78-.14.51,0,.96.11,1.34.34.38.23.68.54.89.94.21.4.32.86.32,1.39s-.12,1.04-.35,1.46c-.23.42-.56.75-.98.99-.42.24-.9.35-1.45.35ZM267.31,365.98c.54,0,.99-.18,1.33-.53.34-.36.51-.82.51-1.4s-.17-1.04-.51-1.4c-.34-.36-.78-.54-1.33-.54s-.99.18-1.33.54c-.34.36-.51.83-.51,1.4,0,.58.16,1.04.5,1.4.34.36.79.53,1.34.53Z"/>
      <path class="cls-8" d="M274.51,366.84c-.54,0-1.02-.11-1.44-.32-.42-.22-.74-.51-.97-.89s-.35-.82-.35-1.33c0-.54.16-1.02.47-1.42.32-.4.73-.65,1.25-.75v-.04c-.45-.1-.81-.33-1.08-.69-.27-.36-.41-.77-.41-1.24s.11-.86.32-1.21c.21-.35.51-.62.89-.82.38-.2.82-.29,1.31-.29s.93.1,1.31.29.68.47.89.82c.21.35.32.75.32,1.21s-.14.89-.41,1.24c-.27.36-.63.59-1.08.69v.04c.52.1.94.35,1.25.75.32.4.47.88.47,1.42,0,.5-.12.95-.35,1.33-.23.38-.56.68-.97.89s-.9.32-1.44.32ZM274.51,365.98c.54,0,.97-.16,1.3-.47.33-.32.5-.73.5-1.23s-.17-.92-.5-1.24-.77-.48-1.3-.48-.97.16-1.3.48-.5.73-.5,1.24.17.91.5,1.23c.33.32.77.47,1.3.47ZM274.51,361.72c.46,0,.84-.14,1.13-.42s.43-.65.43-1.1-.14-.81-.43-1.1c-.29-.28-.66-.43-1.13-.43s-.84.14-1.13.43c-.29.28-.43.65-.43,1.1s.14.82.43,1.1c.29.28.66.42,1.13.42Z"/>
      <path class="cls-8" d="M281.71,366.84c-.29,0-.52-.09-.7-.26-.18-.17-.26-.4-.26-.68s.09-.51.26-.69c.18-.18.41-.27.7-.27s.52.09.7.27.26.41.26.69-.09.51-.26.68-.41.26-.7.26Z"/>
      <path class="cls-8" d="M288.91,366.84c-.79,0-1.42-.23-1.89-.7-.47-.47-.7-1.09-.7-1.88v-3.84c0-.78.23-1.41.7-1.88.47-.47,1.1-.7,1.89-.7s1.43.23,1.9.7c.46.47.7,1.09.7,1.88v3.84c0,.78-.23,1.41-.7,1.88-.47.47-1.1.7-1.89.7ZM288.91,366.02c.5,0,.91-.16,1.21-.49.3-.32.46-.75.46-1.28v-3.84c0-.53-.15-.95-.46-1.28-.3-.32-.71-.49-1.21-.49s-.91.16-1.21.49c-.3.32-.46.75-.46,1.28v3.84c0,.53.15.95.46,1.28.3.32.71.49,1.21.49ZM288.91,362.96c-.21,0-.37-.06-.5-.17s-.19-.28-.19-.49.06-.37.19-.47c.12-.11.29-.16.5-.16s.37.05.5.16c.12.11.19.27.19.47s-.06.37-.19.49c-.12.12-.29.17-.5.17Z"/>
      <path class="cls-8" d="M296.11,366.84c-.29,0-.52-.09-.7-.26-.18-.17-.26-.4-.26-.68s.09-.51.26-.69c.18-.18.41-.27.7-.27s.52.09.7.27.26.41.26.69-.09.51-.26.68-.41.26-.7.26Z"/>
      <path class="cls-8" d="M300.83,366.72v-.86h2.4v-7.07l-2.38,1.78v-1.09l2.04-1.51h1.28v7.9h1.98v.86h-5.33Z"/>
    </g>
    <g>
      <path class="cls-11" d="M576.29,511.8h-2.34v-11.38h2.34v11.38Z"/>
      <path class="cls-11" d="M580.81,507.8v4.01h-2.34v-11.38h4.44c.85,0,1.61.16,2.25.47s1.15.76,1.5,1.33c.35.58.52,1.23.52,1.96,0,1.11-.38,1.99-1.14,2.64-.76.64-1.82.96-3.17.96h-2.05ZM580.81,505.9h2.09c.62,0,1.09-.15,1.42-.44.33-.29.49-.71.49-1.25s-.16-1.01-.49-1.35-.78-.52-1.36-.53h-2.15v3.57Z"/>
      <path class="cls-11" d="M588.74,504.3c0-.36.12-.65.36-.88s.55-.34.91-.34.68.11.92.34.36.52.36.88-.12.64-.36.86c-.24.22-.55.33-.92.33s-.67-.11-.91-.33c-.24-.22-.36-.51-.36-.86ZM588.74,510.7c0-.36.12-.65.36-.88s.55-.34.91-.34.68.11.92.34.36.52.36.88-.12.64-.36.86c-.24.22-.55.33-.92.33s-.67-.11-.91-.33c-.24-.22-.36-.51-.36-.86Z"/>
    </g>
    <g>
      <path class="cls-8" d="M573.9,524.96v-.87h2.4v-7.07l-2.38,1.78v-1.09l2.04-1.51h1.28v7.89h1.98v.87h-5.33Z"/>
      <path class="cls-8" d="M582.38,524.96l2.26-3.85-.04-.03c-.09.13-.25.24-.49.34-.24.1-.51.14-.8.14-.5,0-.93-.11-1.31-.34-.38-.22-.67-.54-.88-.94s-.32-.87-.32-1.39c0-.56.12-1.05.35-1.48s.56-.75.98-.99c.42-.23.9-.35,1.44-.35s1.04.12,1.46.35c.42.24.75.56.98.98.24.42.35.9.35,1.45,0,.38-.07.77-.2,1.17-.14.39-.32.8-.56,1.22l-2.11,3.71h-1.1ZM583.58,520.81c.54,0,.98-.18,1.32-.53.34-.36.51-.82.52-1.4,0-.58-.17-1.04-.51-1.4-.34-.36-.78-.54-1.33-.54s-.98.18-1.32.54c-.34.36-.5.83-.5,1.42s.17,1.03.5,1.39c.34.36.78.53,1.32.53Z"/>
      <path class="cls-8" d="M588.25,524.96v-.88l2.98-3.18c.42-.43.72-.84.9-1.21.18-.38.28-.74.28-1.11,0-.5-.15-.91-.44-1.21-.3-.3-.7-.46-1.2-.46s-.92.16-1.23.47c-.31.31-.46.72-.46,1.24h-.95c.02-.78.26-1.39.74-1.86.48-.46,1.11-.69,1.9-.69s1.43.23,1.9.68c.48.46.71,1.07.71,1.84,0,.43-.12.88-.35,1.36-.23.47-.61.98-1.13,1.54l-2.5,2.6h4.08v.87h-5.23Z"/>
      <path class="cls-8" d="M597.98,525.08c-.29,0-.52-.09-.7-.26-.18-.17-.26-.4-.26-.68s.09-.51.26-.69c.18-.18.41-.27.7-.27s.52.09.7.27.26.41.26.69-.09.51-.26.68-.41.26-.7.26Z"/>
      <path class="cls-8" d="M602.7,524.96v-.87h2.4v-7.07l-2.38,1.78v-1.09l2.04-1.51h1.28v7.89h1.98v.87h-5.33Z"/>
      <path class="cls-8" d="M612.39,525.08c-.56,0-1.05-.12-1.47-.35s-.75-.56-.98-.98c-.23-.42-.35-.9-.35-1.45,0-.38.07-.78.22-1.17.14-.4.33-.8.56-1.22l2.09-3.71h1.06l-2.23,3.85.04.02c.1-.13.27-.25.5-.34s.49-.14.78-.14c.51,0,.96.12,1.34.34.38.23.68.54.89.94s.32.86.32,1.39-.12,1.04-.35,1.46c-.23.42-.56.75-.98.99s-.9.35-1.45.35ZM612.38,524.23c.54,0,.99-.18,1.33-.53.34-.36.51-.82.51-1.4s-.17-1.04-.51-1.4c-.34-.36-.78-.54-1.33-.54s-.99.18-1.33.54-.51.83-.51,1.4c0,.58.16,1.04.5,1.4.34.36.79.53,1.34.53Z"/>
      <path class="cls-8" d="M619.58,525.08c-.54,0-1.02-.11-1.44-.32-.42-.21-.74-.51-.97-.89-.23-.38-.35-.82-.35-1.33,0-.54.16-1.02.47-1.42.32-.4.73-.65,1.25-.75v-.04c-.45-.1-.81-.33-1.08-.69s-.41-.77-.41-1.24.11-.86.32-1.21c.21-.35.51-.62.89-.82.38-.2.82-.29,1.31-.29s.93.1,1.31.29c.38.2.68.47.89.82.21.35.32.75.32,1.21s-.14.89-.41,1.24-.63.59-1.08.69v.04c.52.1.94.35,1.25.75.32.4.47.88.47,1.42,0,.5-.12.95-.35,1.33-.23.38-.56.68-.97.89-.42.22-.9.32-1.44.32ZM619.58,524.23c.54,0,.97-.16,1.3-.47.33-.31.5-.72.5-1.23s-.17-.92-.5-1.24-.77-.48-1.3-.48-.97.16-1.3.48-.5.73-.5,1.24.17.91.5,1.23c.33.32.77.47,1.3.47ZM619.58,519.97c.46,0,.84-.14,1.13-.42.29-.28.43-.65.43-1.1s-.14-.81-.43-1.1c-.29-.28-.66-.43-1.13-.43s-.84.14-1.13.43c-.29.29-.43.65-.43,1.1s.14.82.43,1.1c.29.28.66.42,1.13.42Z"/>
      <path class="cls-8" d="M626.78,525.08c-.29,0-.52-.09-.7-.26-.18-.17-.26-.4-.26-.68s.09-.51.26-.69c.18-.18.41-.27.7-.27s.52.09.7.27.26.41.26.69-.09.51-.26.68-.41.26-.7.26Z"/>
      <path class="cls-8" d="M633.98,525.08c-.79,0-1.42-.23-1.89-.7-.47-.47-.7-1.09-.7-1.88v-3.84c0-.78.23-1.41.7-1.88.47-.47,1.1-.7,1.89-.7s1.43.23,1.9.7c.46.47.7,1.09.7,1.88v3.84c0,.79-.23,1.41-.7,1.88-.47.47-1.1.7-1.89.7ZM633.98,524.27c.5,0,.91-.16,1.21-.48.3-.32.46-.75.46-1.28v-3.84c0-.53-.15-.95-.46-1.28-.3-.32-.71-.49-1.21-.49s-.91.16-1.21.49c-.3.32-.46.75-.46,1.28v3.84c0,.53.15.96.46,1.28.3.32.71.48,1.21.48ZM633.98,521.21c-.21,0-.37-.06-.5-.17-.12-.12-.19-.28-.19-.49s.06-.37.19-.47.29-.16.5-.16.37.05.5.16c.12.11.19.27.19.47s-.06.37-.19.49c-.12.12-.29.17-.5.17Z"/>
      <path class="cls-8" d="M641.18,525.08c-.29,0-.52-.09-.7-.26-.18-.17-.26-.4-.26-.68s.09-.51.26-.69c.18-.18.41-.27.7-.27s.52.09.7.27.26.41.26.69-.09.51-.26.68-.41.26-.7.26Z"/>
      <path class="cls-8" d="M645.85,524.96v-.88l2.98-3.18c.42-.43.72-.84.9-1.21.18-.38.28-.74.28-1.11,0-.5-.15-.91-.44-1.21-.3-.3-.7-.46-1.2-.46s-.92.16-1.23.47c-.31.31-.46.72-.46,1.24h-.95c.02-.78.26-1.39.74-1.86.48-.46,1.11-.69,1.9-.69s1.43.23,1.9.68c.48.46.71,1.07.71,1.84,0,.43-.12.88-.35,1.36-.23.47-.61.98-1.13,1.54l-2.5,2.6h4.08v.87h-5.23Z"/>
    </g>
    <g>
      <path class="cls-11" d="M232.69,521.51v4.01h-2.34v-11.38h4.44c.85,0,1.61.16,2.25.47s1.15.76,1.5,1.33c.35.58.52,1.23.52,1.96,0,1.11-.38,1.99-1.14,2.64-.76.64-1.82.96-3.17.96h-2.05ZM232.69,519.61h2.09c.62,0,1.09-.15,1.42-.44.33-.29.49-.71.49-1.25s-.16-1.01-.49-1.35-.78-.52-1.36-.53h-2.15v3.57Z"/>
      <path class="cls-11" d="M240.07,521.21c0-.84.16-1.59.48-2.24.32-.66.79-1.16,1.39-1.52.61-.36,1.31-.54,2.11-.54,1.14,0,2.07.35,2.79,1.05.72.7,1.12,1.65,1.21,2.84l.02.58c0,1.3-.36,2.34-1.09,3.12-.72.78-1.7,1.18-2.91,1.18s-2.19-.39-2.92-1.17-1.09-1.84-1.09-3.19v-.1ZM242.33,521.38c0,.8.15,1.42.45,1.84.3.42.73.64,1.3.64s.97-.21,1.28-.63c.31-.42.46-1.09.46-2.01,0-.79-.15-1.4-.46-1.83-.31-.43-.74-.65-1.3-.65s-.98.21-1.28.65c-.3.43-.45,1.1-.45,2Z"/>
      <path class="cls-11" d="M254.22,519.18c-.31-.04-.58-.06-.81-.06-.85,0-1.41.29-1.68.87v5.53h-2.26v-8.45h2.13l.06,1.01c.45-.78,1.08-1.16,1.88-1.16.25,0,.48.03.7.1l-.03,2.17Z"/>
      <path class="cls-11" d="M258.4,514.99v2.08h1.45v1.66h-1.45v4.22c0,.31.06.54.18.67.12.14.35.2.69.2.25,0,.47-.02.66-.05v1.71c-.44.14-.9.2-1.37.2-1.58,0-2.39-.8-2.42-2.4v-4.55h-1.23v-1.66h1.23v-2.08h2.26Z"/>
      <path class="cls-11" d="M261.21,518.01c0-.36.12-.65.36-.88s.55-.34.91-.34.68.11.92.34.36.52.36.88-.12.64-.36.86c-.24.22-.55.33-.92.33s-.67-.11-.91-.33c-.24-.22-.36-.51-.36-.86ZM261.21,524.41c0-.36.12-.65.36-.88s.55-.34.91-.34.68.11.92.34.36.52.36.88-.12.64-.36.86c-.24.22-.55.33-.92.33s-.67-.11-.91-.33c-.24-.22-.36-.51-.36-.86Z"/>
    </g>
    <g>
      <path class="cls-8" d="M271.3,525.52v-.88l2.98-3.18c.42-.43.72-.84.9-1.21s.28-.74.28-1.1c0-.5-.15-.91-.44-1.21s-.7-.46-1.2-.46-.92.16-1.23.47c-.31.31-.46.72-.46,1.24h-.95c.02-.78.26-1.39.74-1.85.48-.46,1.11-.69,1.9-.69s1.43.23,1.9.68.71,1.07.71,1.84c0,.43-.12.88-.35,1.36-.23.47-.61.98-1.13,1.54l-2.5,2.6h4.08v.86h-5.23Z"/>
      <path class="cls-8" d="M278.5,525.52v-.88l2.98-3.18c.42-.43.72-.84.9-1.21s.28-.74.28-1.1c0-.5-.15-.91-.44-1.21s-.7-.46-1.2-.46-.92.16-1.23.47c-.31.31-.46.72-.46,1.24h-.95c.02-.78.26-1.39.74-1.85.48-.46,1.11-.69,1.9-.69s1.43.23,1.9.68.71,1.07.71,1.84c0,.43-.12.88-.35,1.36-.23.47-.61.98-1.13,1.54l-2.5,2.6h4.08v.86h-5.23Z"/>
      <path class="cls-8" d="M285.7,525.52v-.88l2.98-3.18c.42-.43.72-.84.9-1.21s.28-.74.28-1.1c0-.5-.15-.91-.44-1.21s-.7-.46-1.2-.46-.92.16-1.23.47c-.31.31-.46.72-.46,1.24h-.95c.02-.78.26-1.39.74-1.85.48-.46,1.11-.69,1.9-.69s1.43.23,1.9.68.71,1.07.71,1.84c0,.43-.12.88-.35,1.36-.23.47-.61.98-1.13,1.54l-2.5,2.6h4.08v.86h-5.23Z"/>
      <path class="cls-8" d="M296.69,525.52v-1.96h-3.97v-1.56l3.25-5.24h1.08l-3.38,5.47v.47h3.02v-2.22h.96v5.04h-.96Z"/>
    </g>
    <g>
      <path class="cls-7" d="M231.97,312.25l.05.21.06-.21,3.13-8.72h.92l-3.71,9.95h-.81l-3.71-9.95h.92l3.13,8.72Z"/>
      <path class="cls-7" d="M238.72,303.52l3.67,8.78,3.68-8.78h1.12v9.95h-.84v-4.33l.07-4.44-3.71,8.78h-.65l-3.69-8.74.07,4.38v4.36h-.84v-9.95h1.11Z"/>
      <path class="cls-7" d="M253.12,313.48v-9.95h2.78c.82,0,1.55.19,2.19.56.65.37,1.15.9,1.51,1.6s.54,1.48.54,2.37v.92c0,.89-.18,1.68-.54,2.37s-.87,1.22-1.52,1.59-1.4.56-2.25.56h-2.72ZM253.96,304.23v8.53h1.89c1.05,0,1.89-.35,2.52-1.04.63-.7.95-1.64.95-2.82v-.88c0-1.14-.31-2.06-.94-2.75s-1.45-1.04-2.47-1.04h-1.96Z"/>
      <path class="cls-7" d="M263.4,303.52l3.67,8.78,3.68-8.78h1.12v9.95h-.84v-4.33l.07-4.44-3.71,8.78h-.65l-3.69-8.74.07,4.38v4.36h-.84v-9.95h1.11Z"/>
      <path class="cls-7" d="M274.78,312.77h6.15v.71h-7.16v-.64l5.91-8.61h-5.73v-.71h6.77v.6l-5.93,8.65Z"/>
    </g>
    <g>
      <rect class="cls-10" x="358.02" y="266.66" width="5" height="32.94"/>
      <polygon class="cls-10" points="368.99 276.62 360.52 268.13 352.04 276.62 352.04 269.42 360.52 260.94 368.99 269.42 368.99 276.62"/>
    </g>
    <path class="cls-7" d="M644.57,570.46h-154.71c-16.18,0-29.35-13.17-29.35-29.35v-47.34c0-16.18,13.16-29.35,29.35-29.35h154.71c16.18,0,29.35,13.17,29.35,29.35v47.34c0,16.18-13.16,29.35-29.35,29.35ZM489.86,466.43c-15.08,0-27.35,12.27-27.35,27.35v47.34c0,15.08,12.27,27.35,27.35,27.35h154.71c15.08,0,27.35-12.27,27.35-27.35v-47.34c0-15.08-12.27-27.35-27.35-27.35h-154.71Z"/>
    <g>
      <g>
        <g>
          <path class="cls-4" d="M337.57,476.93h45.72c9.33,0,16.9,7.57,16.9,16.9v45.72c0,9.33-7.57,16.9-16.9,16.9h-45.72c-9.33,0-16.9-7.57-16.9-16.9v-45.72c0-9.33,7.57-16.9,16.9-16.9Z"/>
          <path class="cls-11" d="M383.28,478.82c8.29,0,15.01,6.72,15.01,15.01v45.72c0,8.29-6.72,15.01-15.01,15.01h-45.72c-8.29,0-15.01-6.72-15.01-15.01v-45.72c0-8.29,6.72-15.01,15.01-15.01h45.72M383.28,475.03h-45.72c-10.37,0-18.8,8.43-18.8,18.8v45.72c0,10.37,8.43,18.8,18.8,18.8h45.72c10.37,0,18.8-8.43,18.8-18.8v-45.72c0-10.37-8.43-18.8-18.8-18.8h0Z"/>
        </g>
        <path class="cls-11" d="M347.34,512.33h18.97c.47,0,.85-.38.85-.85s-.38-.85-.85-.85h-4.03s0-4.84,0-4.84l1.97,1.95c.33.33.87.33,1.21,0,.33-.33.33-.87,0-1.21h0l-3.44-3.41c-.33-.33-.87-.33-1.2,0l-3.44,3.45c-.33.33-.33.87,0,1.21.33.33.87.33,1.21,0l2.01-2.01v4.86s-6.82,0-6.82,0v-9.11s1.97,1.95,1.97,1.95c.33.34.87.35,1.21.03s.35-.87.03-1.21c0-.01-.02-.02-.03-.03l-3.44-3.41c-.33-.33-.87-.33-1.2,0l-3.45,3.45c-.33.33-.33.87,0,1.21s.87.33,1.21,0l2.01-2.01v9.13s-4.71,0-4.71,0c-.47,0-.85.38-.85.85s.38.85.85.85Z"/>
        <path class="cls-11" d="M366.31,513.61h-18.97c-.47,0-.85.38-.85.85s.38.85.85.85h18.97c.47,0,.85-.38.85-.85s-.38-.85-.85-.85Z"/>
        <path class="cls-6" d="M356.82,493.21c8.22,0,14.89,6.67,14.89,14.89,0,8.22-6.67,14.89-14.89,14.89-8.22,0-14.89-6.67-14.89-14.89,0,0,0,0,0,0,0-8.22,6.67-14.88,14.89-14.89M356.82,488.97c-10.56,0-19.13,8.56-19.13,19.13,0,10.56,8.56,19.13,19.13,19.13,10.56,0,19.13-8.56,19.13-19.13h0c0-10.56-8.56-19.13-19.12-19.13,0,0,0,0,0,0Z"/>
        <rect class="cls-6" x="379.05" y="496.88" width="4.1" height="30.3"/>
        <rect class="cls-6" x="379.05" y="488.92" width="4.1" height="3.85"/>
      </g>
      <g>
        <path class="cls-1" d="M334.22,541.15c0,.87-.17,1.61-.5,2.21-.33.61-.79,1.07-1.36,1.39-.57.32-1.22.48-1.93.48s-1.36-.16-1.93-.48c-.57-.32-1.02-.79-1.35-1.39-.33-.61-.5-1.35-.5-2.21s.17-1.61.5-2.21c.33-.61.78-1.07,1.35-1.39.57-.32,1.21-.48,1.93-.48s1.36.16,1.93.48c.57.32,1.02.78,1.36,1.39.33.61.5,1.35.5,2.21ZM332.48,541.15c0-.56-.08-1.04-.25-1.42-.17-.38-.41-.68-.72-.88-.31-.2-.67-.3-1.08-.3s-.77.1-1.08.3c-.31.2-.55.49-.72.88-.17.39-.25.86-.25,1.42s.08,1.04.25,1.42c.17.38.41.68.72.88.31.2.67.3,1.08.3s.77-.1,1.08-.3c.31-.2.55-.49.72-.88.17-.39.25-.86.25-1.42Z"/>
        <path class="cls-1" d="M337.19,537.17v7.95h-1.71v-7.95h1.71Z"/>
        <path class="cls-1" d="M338.6,545.13v-7.95h3.24c.59,0,1.09.09,1.49.26.4.17.7.41.9.72s.3.66.3,1.06c0,.31-.06.58-.19.82-.13.23-.3.43-.52.58-.22.15-.47.25-.75.32v.08c.31.01.6.1.87.26s.49.38.66.66c.17.28.25.62.25,1.01,0,.42-.11.8-.32,1.13s-.52.59-.94.78-.92.29-1.53.29h-3.45ZM340.31,540.5h1.27c.23,0,.44-.04.63-.12.18-.08.33-.2.43-.35.11-.15.16-.33.16-.54,0-.29-.1-.52-.31-.7-.21-.18-.5-.26-.88-.26h-1.3v1.97ZM340.31,543.75h1.39c.48,0,.82-.09,1.04-.27.22-.18.33-.42.33-.72,0-.22-.05-.41-.16-.58-.11-.17-.26-.3-.46-.4-.2-.1-.43-.14-.71-.14h-1.43v2.11Z"/>
        <path class="cls-1" d="M349.8,542.59v-3.43h1.68v5.96h-1.61v-1.08h-.06c-.14.35-.36.63-.68.84s-.7.32-1.16.32c-.41,0-.76-.09-1.07-.27-.31-.18-.55-.44-.72-.77-.17-.33-.26-.73-.26-1.2v-3.8h1.68v3.5c0,.35.1.63.29.83s.44.31.76.31c.2,0,.39-.04.57-.14.18-.09.32-.23.43-.41.11-.18.16-.41.16-.67Z"/>
        <path class="cls-1" d="M357.87,540.86l-1.54.09c-.03-.13-.08-.25-.17-.35-.09-.11-.2-.19-.34-.25-.14-.06-.31-.09-.5-.09-.26,0-.48.05-.66.16-.18.11-.27.25-.27.43,0,.14.06.26.17.36.12.1.31.18.6.24l1.1.22c.59.12,1.03.31,1.32.57.29.26.43.61.43,1.04,0,.39-.12.73-.35,1.03-.23.29-.55.52-.96.69-.4.16-.87.25-1.4.25-.8,0-1.44-.17-1.92-.5s-.75-.78-.83-1.35l1.65-.08c.05.24.17.42.36.55.19.12.44.19.74.19s.53-.05.71-.17.27-.26.27-.44c0-.15-.07-.27-.19-.37-.13-.1-.32-.17-.58-.22l-1.05-.21c-.59-.12-1.03-.32-1.32-.61-.29-.29-.43-.65-.43-1.1,0-.38.11-.71.32-.99.21-.28.51-.49.9-.64.39-.15.84-.23,1.36-.23.77,0,1.37.16,1.81.48.44.32.7.75.77,1.3Z"/>
        <path class="cls-1" d="M363.07,545.13h-1.83l2.79-7.95h2.2l2.79,7.95h-1.83l-2.03-6.14h-.06l-2.03,6.14ZM362.96,542h4.33v1.31h-4.33v-1.31Z"/>
        <path class="cls-1" d="M372.4,547.49c-.54,0-1.01-.07-1.4-.22-.39-.15-.7-.35-.93-.6-.23-.25-.38-.53-.45-.85l1.55-.21c.05.12.12.23.23.33.1.1.24.19.41.25.17.06.38.1.62.1.37,0,.67-.09.91-.26.24-.18.36-.47.36-.88v-1.09h-.07c-.07.17-.18.32-.33.47s-.34.27-.57.36c-.23.09-.51.14-.83.14-.46,0-.87-.11-1.24-.31-.37-.21-.67-.53-.89-.96-.22-.43-.33-.98-.33-1.64s.11-1.24.33-1.69.52-.79.89-1.02c.37-.22.78-.34,1.23-.34.34,0,.62.06.85.17.23.11.41.25.55.42.14.17.25.33.33.49h.06v-1h1.67v6.02c0,.51-.13.93-.38,1.27-.25.34-.6.6-1.05.77-.45.17-.96.26-1.54.26ZM372.44,543.8c.27,0,.5-.07.69-.2.19-.13.33-.33.43-.58.1-.25.15-.55.15-.9s-.05-.65-.15-.91c-.1-.26-.24-.46-.43-.6s-.42-.21-.69-.21-.51.07-.7.22-.33.35-.43.61c-.1.26-.15.56-.15.9s.05.64.15.89c.1.25.24.44.43.58.19.13.42.2.7.2Z"/>
        <path class="cls-1" d="M379.47,545.24c-.62,0-1.16-.12-1.61-.38-.45-.25-.79-.6-1.04-1.06-.24-.46-.36-1-.36-1.63s.12-1.15.36-1.62.58-.82,1.02-1.08c.44-.26.96-.39,1.55-.39.4,0,.77.06,1.12.19.35.12.65.31.91.56.26.25.46.57.61.95.14.38.22.82.22,1.33v.46h-5.12v-1.03h3.54c0-.24-.05-.45-.16-.63-.1-.18-.25-.33-.44-.43s-.4-.16-.65-.16-.48.06-.68.17-.35.27-.46.46c-.11.19-.17.41-.17.64v.97c0,.29.06.55.17.77.11.21.27.38.48.5s.45.18.73.18c.19,0,.36-.03.51-.08.16-.05.29-.13.4-.23.11-.1.2-.23.25-.38l1.56.1c-.08.37-.24.69-.48.96-.24.27-.56.49-.94.64-.38.15-.82.23-1.32.23Z"/>
        <path class="cls-1" d="M385.04,541.68v3.45h-1.68v-5.96h1.6v1.05h.07c.13-.35.36-.62.67-.83s.7-.3,1.15-.3c.42,0,.79.09,1.1.27.31.18.56.44.73.78.17.34.26.73.26,1.2v3.8h-1.68v-3.5c0-.37-.09-.65-.28-.86-.19-.21-.46-.31-.79-.31-.23,0-.43.05-.6.14-.17.1-.31.23-.4.42-.1.18-.15.4-.15.66Z"/>
        <path class="cls-1" d="M393.49,539.16v1.24h-3.65v-1.24h3.65ZM390.67,537.73h1.68v5.56c0,.15.02.27.07.36.05.08.11.14.2.18s.18.05.3.05c.08,0,.16,0,.24-.02s.14-.03.18-.03l.26,1.23c-.08.03-.2.06-.35.09-.15.04-.34.06-.56.06-.41.02-.76-.04-1.06-.16-.3-.12-.54-.31-.71-.57s-.25-.58-.25-.97v-5.78Z"/>
      </g>
    </g>
    <g>
      <rect class="cls-10" x="407.79" y="514.19" width="57.34" height="5"/>
      <polygon class="cls-10" points="417.75 525.16 409.27 516.69 417.75 508.21 410.56 508.21 402.08 516.69 410.56 525.16 417.75 525.16"/>
      <polygon class="cls-10" points="455.18 525.16 463.66 516.69 455.18 508.21 462.38 508.21 470.85 516.69 462.38 525.16 455.18 525.16"/>
    </g>
    <g>
      <rect class="cls-10" x="357.76" y="448.6" width="5" height="20.72"/>
      <polygon class="cls-10" points="368.73 459.36 360.26 467.84 351.78 459.36 351.78 466.56 360.26 475.03 368.73 466.56 368.73 459.36"/>
      <polygon class="cls-10" points="368.73 458.56 360.26 450.08 351.78 458.56 351.78 451.36 360.26 442.88 368.73 451.36 368.73 458.56"/>
    </g>
    <g>
      <g>
        <path class="cls-4" d="M489.73,554.63c-9.33,0-16.92-7.48-16.92-16.67v-44.83c0-9.19,7.59-16.67,16.92-16.67h45.56c9.33,0,16.92,7.48,16.92,16.67v44.83c0,9.19-7.59,16.67-16.92,16.67h-45.56Z"/>
        <path class="cls-11" d="M535.29,478.42c8.26,0,14.96,6.59,14.96,14.72v44.82c0,8.13-6.7,14.72-14.96,14.72h-45.56c-8.26,0-14.96-6.59-14.96-14.72v-44.82c0-8.13,6.7-14.72,14.96-14.72h45.56M535.29,474.5h-45.56c-10.41,0-18.88,8.36-18.88,18.64v44.82c0,10.28,8.47,18.64,18.88,18.64h45.56c10.41,0,18.88-8.36,18.88-18.64v-44.82c0-10.28-8.47-18.64-18.88-18.64h0Z"/>
      </g>
      <g>
        <path class="cls-1" d="M495.17,539.26c0,.85-.16,1.57-.49,2.17s-.77,1.05-1.33,1.37c-.56.31-1.19.47-1.89.47s-1.34-.16-1.9-.47c-.56-.32-1-.77-1.33-1.37s-.49-1.32-.49-2.17.16-1.57.49-2.17.77-1.05,1.33-1.37c.56-.31,1.19-.47,1.9-.47s1.33.16,1.89.47c.56.31,1,.77,1.33,1.37s.49,1.32.49,2.17ZM493.47,539.26c0-.55-.08-1.01-.25-1.39-.17-.38-.4-.67-.7-.86-.3-.2-.66-.29-1.06-.29s-.76.1-1.06.29c-.3.2-.54.48-.7.86-.17.38-.25.84-.25,1.39s.08,1.02.25,1.39c.17.38.4.67.7.86.3.2.66.29,1.06.29s.76-.1,1.06-.29c.3-.2.54-.48.7-.86.17-.38.25-.84.25-1.39Z"/>
        <path class="cls-1" d="M500.71,537.6c-.03-.31-.16-.55-.4-.72-.23-.17-.55-.25-.96-.25-.27,0-.5.04-.69.11-.19.08-.33.18-.43.31-.1.13-.15.28-.15.45,0,.14.02.26.09.37.07.1.16.19.27.27.12.08.25.14.4.19s.31.1.49.14l.71.17c.35.08.66.18.95.3.29.13.54.28.75.47.21.19.38.4.49.66.12.25.18.54.18.86,0,.48-.13.89-.37,1.24-.24.35-.59.62-1.05.81-.46.19-1.01.29-1.65.29s-1.2-.1-1.67-.29c-.47-.19-.84-.48-1.11-.86-.26-.38-.4-.85-.42-1.41h1.62c.02.26.1.48.23.65s.32.3.55.39c.23.09.49.13.78.13s.53-.04.74-.12c.21-.08.37-.19.49-.34s.17-.31.17-.5c0-.17-.05-.32-.16-.44s-.26-.22-.46-.3c-.2-.08-.44-.16-.73-.23l-.86-.21c-.67-.16-1.2-.41-1.58-.75-.39-.34-.58-.8-.58-1.38,0-.47.13-.88.38-1.24.26-.35.62-.63,1.07-.83.45-.2.97-.3,1.55-.3s1.1.1,1.54.3c.44.2.78.47,1.03.83.25.35.37.76.38,1.23h-1.61Z"/>
        <path class="cls-1" d="M505.22,535.36v7.8h-1.68v-7.8h1.68Z"/>
        <path class="cls-1" d="M511.51,538.97l-1.51.09c-.03-.13-.08-.24-.17-.34-.08-.1-.2-.19-.33-.25-.14-.06-.3-.09-.49-.09-.26,0-.47.05-.65.16-.18.11-.26.25-.26.42,0,.14.06.26.17.35.11.1.31.17.58.23l1.08.21c.58.12,1.01.3,1.29.56.28.26.43.6.43,1.02,0,.38-.11.72-.34,1.01-.23.29-.54.51-.94.68s-.85.24-1.37.24c-.79,0-1.41-.16-1.88-.49-.47-.32-.74-.76-.82-1.32l1.62-.08c.05.24.17.42.36.54.19.12.43.18.72.18s.52-.06.7-.17.27-.25.27-.43c0-.15-.07-.27-.19-.36-.12-.09-.31-.17-.57-.22l-1.03-.2c-.58-.11-1.01-.31-1.29-.59-.28-.28-.42-.64-.42-1.08,0-.38.1-.7.31-.97.21-.27.5-.48.88-.63s.82-.22,1.33-.22c.75,0,1.34.16,1.77.47.43.31.68.74.76,1.28Z"/>
        <path class="cls-1" d="M515.38,543.27c-.6,0-1.12-.13-1.56-.38-.44-.25-.77-.61-1.01-1.06s-.36-.98-.36-1.58.12-1.13.36-1.59.57-.81,1.01-1.06c.44-.25.96-.38,1.56-.38s1.12.13,1.56.38c.44.25.77.61,1.01,1.06s.36.98.36,1.59-.12,1.12-.36,1.58-.57.81-1.01,1.06c-.44.25-.96.38-1.56.38ZM515.38,542.01c.27,0,.5-.08.69-.23.18-.15.32-.36.42-.63s.14-.57.14-.91-.05-.64-.14-.91-.23-.48-.42-.63c-.18-.15-.41-.23-.69-.23s-.51.08-.69.23c-.19.16-.33.37-.42.63s-.14.57-.14.91.05.64.14.91.23.48.42.63c.19.15.42.23.69.23Z"/>
        <path class="cls-1" d="M522.57,537.31v1.22h-3.67v-1.22h3.67ZM519.75,543.16v-6.27c0-.42.08-.78.25-1.05s.4-.49.69-.63.63-.21,1-.21c.25,0,.48.02.69.06.21.04.37.07.47.1l-.29,1.22c-.06-.02-.14-.04-.24-.06-.09-.02-.19-.03-.29-.03-.24,0-.41.06-.51.17-.1.11-.14.26-.14.46v6.24h-1.65Z"/>
        <path class="cls-1" d="M526.74,537.31v1.22h-3.58v-1.22h3.58ZM523.98,535.91h1.65v5.45c0,.15.02.27.07.35.05.08.11.14.2.17s.18.05.29.05c.08,0,.15,0,.23-.02.08-.01.14-.02.18-.03l.26,1.21c-.08.03-.2.05-.35.09-.15.03-.33.05-.55.06-.4.01-.75-.04-1.04-.16-.3-.12-.53-.3-.69-.56-.17-.25-.25-.57-.24-.95v-5.67Z"/>
        <path class="cls-1" d="M530.37,543.16v-7.8h3.13c.6,0,1.11.11,1.54.34.42.22.75.54.97.93s.33.85.33,1.37-.11.97-.34,1.37c-.23.4-.56.71-.98.93-.43.22-.95.33-1.56.33h-1.99v-1.32h1.72c.32,0,.59-.06.8-.17.21-.11.37-.26.47-.46.1-.2.16-.42.16-.68s-.05-.49-.16-.68-.26-.35-.47-.45c-.21-.11-.48-.16-.8-.16h-1.13v6.45h-1.68Z"/>
        <path class="cls-1" d="M539.11,535.36v7.8h-1.68v-7.8h1.68Z"/>
      </g>
      <g>
        <circle class="cls-11" cx="519.68" cy="501.24" r="1.8"/>
        <path class="cls-11" d="M512.51,488.48h-16.98c-1.16,0-2.1.94-2.1,2.1v16.98c0,10.54,8.54,19.08,19.08,19.08h0c10.54,0,19.08-8.54,19.08-19.08h0c0-10.54-8.54-19.08-19.08-19.08ZM523.94,504.77c0,.11-.01.22-.03.32h0s-.18,1.51-2.14,3.47l-11.35,11.35c-1.11,1.11-2.9,1.11-4,0l-5.4-5.4c-1.11-1.11-1.11-2.9,0-4l11.35-11.35s1.51-1.93,3.73-1.93h6c1.02,0,1.85.83,1.85,1.85v5.68Z"/>
      </g>
    </g>
    <g>
      <g>
        <rect class="cls-4" x="163.4" y="41.85" width="79.52" height="79.52" rx="16.9" ry="16.9"/>
        <path class="cls-11" d="M226.02,43.75c8.29,0,15.01,6.72,15.01,15.01v45.72c0,8.29-6.72,15.01-15.01,15.01h-45.72c-8.29,0-15.01-6.72-15.01-15.01v-45.72c0-8.29,6.72-15.01,15.01-15.01h45.72M226.02,39.96h-45.72c-10.37,0-18.8,8.43-18.8,18.8v45.72c0,10.37,8.43,18.8,18.8,18.8h45.72c10.37,0,18.8-8.43,18.8-18.8v-45.72c0-10.37-8.43-18.8-18.8-18.8h0Z"/>
      </g>
      <path class="cls-9" d="M199.59,59.3c8.14,0,14.77,6.63,14.77,14.77s-6.63,14.77-14.77,14.77-14.77-6.63-14.77-14.77,6.63-14.77,14.77-14.77M199.59,55.09c-10.48,0-18.97,8.5-18.97,18.97s8.5,18.97,18.97,18.97,18.97-8.5,18.97-18.97-8.5-18.97-18.97-18.97h0Z"/>
      <rect class="cls-9" x="221.64" y="62.93" width="4.06" height="30.05"/>
      <rect class="cls-9" x="221.64" y="55.04" width="4.06" height="3.81"/>
      <g>
        <path class="cls-11" d="M208.47,68.99c-.43,0-.77.34-.77.77v10.25c0,.43.34.77.77.77s.77-.34.77-.77v-10.25c0-.43-.34-.77-.77-.77Z"/>
        <path class="cls-11" d="M192.83,70.48c-.43,0-.77.34-.77.77v8.77c0,.43.34.77.77.77s.77-.34.77-.77v-8.77c0-.43-.34-.77-.77-.77Z"/>
        <path class="cls-11" d="M205.34,67.4c-.43,0-.77.34-.77.77v11.85c0,.43.34.77.77.77s.77-.34.77-.77v-11.85c0-.43-.34-.77-.77-.77Z"/>
        <path class="cls-11" d="M199.07,72.02c-.43,0-.77.34-.77.77v7.23c0,.43.34.77.77.77s.77-.34.77-.77v-7.23c0-.43-.34-.77-.77-.77Z"/>
        <path class="cls-11" d="M202.2,70.48c-.43,0-.77.34-.77.77v8.77c0,.43.34.77.77.77s.77-.34.77-.77v-8.77c0-.43-.34-.77-.77-.77Z"/>
        <path class="cls-11" d="M195.96,72.02c-.43,0-.77.34-.77.77v10.31c0,.43.34.77.77.77s.77-.34.77-.77v-10.31c0-.43-.34-.77-.77-.77Z"/>
        <path class="cls-11" d="M189.7,73.56c-.43,0-.77.34-.77.77v5.69c0,.43.34.77.77.77s.77-.34.77-.77v-5.69c0-.43-.34-.77-.77-.77Z"/>
      </g>
      <path class="cls-9" d="M179.34,109.87c-.67,0-1.27-.15-1.81-.45-.53-.3-.96-.74-1.26-1.33-.32-.58-.47-1.27-.47-2.1s.15-1.53.47-2.11.73-1.02,1.26-1.33,1.14-.45,1.81-.45,1.27.15,1.81.45.96.74,1.26,1.33c.32.58.47,1.29.47,2.11s-.15,1.53-.47,2.1c-.3.58-.73,1.02-1.26,1.33-.53.3-1.14.45-1.81.45ZM179.34,108.45c.39,0,.73-.09,1.01-.28.29-.19.5-.47.67-.83.15-.37.24-.82.24-1.35s-.08-.98-.24-1.35c-.15-.37-.38-.64-.67-.83-.29-.19-.63-.28-1.01-.28s-.72.1-1.01.28c-.29.19-.5.47-.67.83s-.24.82-.24,1.35.08.98.24,1.35c.16.37.38.64.67.83.29.19.62.28,1.01.28Z"/>
      <path class="cls-9" d="M185.3,102.22v7.55h-1.59v-7.55h1.59Z"/>
      <path class="cls-9" d="M187.57,109.76h-1.7l2.6-7.55h2.06l2.6,7.55h-1.7l-1.89-5.83h-.06l-1.89,5.83ZM187.47,106.8h4.04v1.25h-4.04v-1.25Z"/>
      <path class="cls-9" d="M195.24,106.49v3.27h-1.57v-5.67h1.54v1.01h.05c.13-.33.33-.59.62-.8.28-.19.63-.29,1.05-.29.39,0,.73.09,1.02.27s.52.42.68.73.24.69.24,1.14v3.6h-1.57v-3.32c0-.34-.09-.62-.27-.81-.18-.2-.43-.29-.74-.29-.21,0-.39.05-.56.14-.16.09-.29.23-.38.4s-.14.38-.14.62h.01Z"/>
      <path class="cls-9" d="M201.42,109.87c-.35,0-.68-.06-.96-.19-.29-.13-.5-.32-.67-.57s-.24-.56-.24-.93c0-.32.06-.58.18-.8s.28-.38.47-.52c.2-.13.43-.23.68-.3.25-.06.52-.11.81-.14.33-.03.59-.06.8-.09s.34-.08.44-.14c.09-.06.14-.15.14-.27v-.03c0-.23-.08-.42-.21-.54-.15-.13-.35-.19-.62-.19s-.5.06-.67.19c-.16.13-.28.28-.33.47l-1.45-.11c.08-.34.21-.64.44-.9.21-.25.49-.44.83-.58s.74-.2,1.2-.2c.32,0,.62.04.9.11.29.08.54.19.77.34s.4.35.53.59c.13.24.2.53.2.87v3.82h-1.49v-.8h-.04c-.09.18-.21.34-.37.47-.15.14-.33.24-.54.32s-.45.11-.74.11h-.05ZM201.88,108.78c.23,0,.43-.05.61-.14s.32-.21.42-.38c.1-.15.15-.33.15-.53v-.61s-.11.06-.2.09-.18.05-.29.08c-.1.03-.21.04-.32.05s-.2.03-.28.04c-.19.03-.35.08-.49.13-.14.06-.24.14-.32.24-.08.1-.11.23-.11.37,0,.21.08.38.23.49s.35.16.59.16h.01Z"/>
      <path class="cls-9" d="M207.09,102.22v7.55h-1.57v-7.55h1.57Z"/>
      <path class="cls-9" d="M208.97,111.88c-.2,0-.39,0-.56-.04-.18-.03-.32-.08-.43-.11l.35-1.17h.05c.27.09.49.1.68.06.19-.04.33-.19.43-.45l.09-.24-2.03-5.83h1.65l1.17,4.17h.06l1.19-4.17h1.65l-2.2,6.27c-.1.3-.25.57-.43.8s-.4.4-.68.53-.61.19-1,.19h-.01Z"/>
      <path class="cls-9" d="M216.76,104.1v1.19h-3.41v-1.19h3.41ZM214.12,102.75h1.57v5.28c0,.19.04.33.13.42s.21.14.4.14c.06,0,.13,0,.2-.01.08,0,.14-.03.19-.04l.25,1.17c-.18.05-.34.09-.5.11s-.32.04-.48.04c-.57,0-1-.14-1.31-.43-.3-.28-.47-.68-.47-1.2v-5.48h.03Z"/>
      <path class="cls-9" d="M218.22,103.38c-.23,0-.43-.08-.59-.23s-.25-.34-.25-.57.09-.4.25-.56.37-.23.59-.23.44.08.61.23.25.34.25.56-.09.4-.25.57c-.16.15-.37.23-.61.23ZM217.44,109.76v-5.67h1.57v5.67h-1.57Z"/>
      <path class="cls-9" d="M222.48,109.88c-.58,0-1.07-.13-1.49-.37-.42-.25-.73-.59-.96-1.02-.23-.44-.34-.95-.34-1.51s.11-1.09.34-1.53c.23-.44.54-.78.96-1.04s.91-.37,1.49-.37c.49,0,.92.09,1.3.27.38.18.67.43.88.76.21.33.34.71.35,1.15h-1.48c-.03-.19-.09-.35-.18-.49s-.2-.25-.35-.33-.32-.11-.5-.11c-.24,0-.45.06-.63.19-.18.13-.32.32-.42.57s-.15.56-.15.91.05.67.15.92c.1.25.24.45.42.59.18.14.39.2.63.2.27,0,.49-.09.68-.25s.3-.4.34-.71h1.48c-.03.43-.14.81-.35,1.15-.21.33-.5.58-.87.77-.37.19-.81.28-1.31.28v-.03Z"/>
      <path class="cls-9" d="M230.39,105.71l-1.44.09c-.04-.18-.14-.33-.3-.47-.16-.13-.38-.19-.66-.19-.24,0-.44.05-.61.15s-.24.24-.24.4c0,.14.05.25.16.34.1.1.29.18.56.23l1.02.2c.56.11.96.29,1.24.54.27.25.4.58.4.98,0,.38-.11.71-.33.98s-.52.49-.9.66c-.38.15-.81.24-1.3.24-.74,0-1.35-.15-1.79-.47s-.71-.74-.78-1.27l1.54-.08c.05.23.16.4.34.52s.4.18.69.18.49-.05.67-.16.25-.24.25-.42c0-.28-.24-.47-.73-.57l-.97-.2c-.56-.11-.96-.3-1.24-.57-.27-.27-.4-.62-.4-1.04,0-.37.1-.68.3-.95s.48-.47.83-.61c.37-.14.78-.21,1.26-.21.72,0,1.27.15,1.69.45s.64.72.72,1.24h0Z"/>
    </g>
    <g>
      <path class="cls-8" d="M267.72,59.3v-10.22h1.11v3.93h.01c.07-.49.29-.88.66-1.15.36-.27.83-.41,1.41-.41.77,0,1.38.24,1.83.72.46.48.69,1.13.69,1.95v5.17h-1.11v-4.98c0-.62-.15-1.09-.46-1.42-.31-.33-.73-.5-1.26-.5s-.98.17-1.3.52c-.32.34-.48.83-.48,1.44v4.94h-1.11Z"/>
      <path class="cls-8" d="M279.73,59.3c-.63,0-1.12-.17-1.48-.53-.36-.35-.55-.83-.55-1.43v-4.73h-2.23v-1.01h2.23v-2.17h1.12v2.17h3.16v1.01h-3.16v4.73c0,.3.08.53.25.7.16.17.38.25.67.25h2.18v1.01h-2.18Z"/>
      <path class="cls-8" d="M288.13,59.3c-.63,0-1.12-.17-1.48-.53-.36-.35-.55-.83-.55-1.43v-4.73h-2.23v-1.01h2.23v-2.17h1.12v2.17h3.16v1.01h-3.16v4.73c0,.3.08.53.25.7.16.17.38.25.67.25h2.18v1.01h-2.18Z"/>
      <path class="cls-8" d="M292.92,61.82v-10.22h1.11v1.4c.09-.48.33-.85.7-1.13.37-.28.84-.41,1.41-.41.77,0,1.38.25,1.84.76s.69,1.2.69,2.08v2.28c0,.88-.23,1.57-.69,2.09-.46.51-1.07.77-1.85.77-.57,0-1.04-.14-1.42-.43-.38-.28-.61-.67-.69-1.14h-.01v1.64s.01,2.31.01,2.31h-1.11ZM295.79,58.47c.56,0,1-.15,1.31-.46.31-.3.47-.78.47-1.43v-2.28c0-.64-.16-1.12-.47-1.42-.31-.3-.75-.46-1.31-.46s-.97.17-1.29.51c-.32.34-.48.81-.48,1.42v2.18c0,.61.16,1.08.48,1.42s.75.51,1.29.51Z"/>
      <path class="cls-8" d="M303.82,59.42c-.82,0-1.47-.19-1.93-.58-.47-.39-.71-.92-.73-1.6h1.12c.02.37.16.67.43.88.27.21.64.32,1.11.32h.71c.48,0,.86-.11,1.13-.33.27-.22.4-.53.4-.92,0-.36-.09-.64-.26-.86-.17-.22-.43-.35-.76-.38l-2.02-.28c-.56-.08-.99-.3-1.3-.65-.31-.35-.46-.82-.46-1.41,0-.66.23-1.19.69-1.57.46-.38,1.08-.57,1.88-.57h.66c.74,0,1.34.18,1.8.55.46.36.72.84.76,1.43h-1.12c-.04-.29-.18-.53-.44-.73s-.59-.29-1-.29h-.66c-.46,0-.82.11-1.08.32-.26.21-.39.5-.39.87,0,.6.31.94.94,1.02l1.9.27c.63.08,1.12.32,1.46.71.34.39.5.91.5,1.55,0,.71-.23,1.26-.69,1.66s-1.1.59-1.92.59h-.71Z"/>
      <path class="cls-8" d="M312.56,53.52c-.36,0-.64-.09-.83-.28-.19-.19-.29-.44-.29-.76s.1-.55.29-.74c.19-.19.47-.28.83-.28s.64.09.83.28c.19.19.29.43.29.74s-.1.57-.29.76c-.19.19-.47.28-.83.28ZM312.56,59.44c-.36,0-.64-.09-.83-.28-.19-.19-.29-.43-.29-.74s.1-.57.29-.76c.19-.19.47-.28.83-.28s.64.09.83.28c.19.19.29.44.29.76s-.1.56-.29.74c-.19.19-.47.28-.83.28Z"/>
      <path class="cls-8" d="M318.93,60.84l4.98-13.16h1.18l-4.98,13.16h-1.18ZM325.23,60.84l4.98-13.16h1.18l-4.98,13.16h-1.18Z"/>
      <path class="cls-8" d="M334.79,59.3v-1.01h2.74v-5.68h-2.45v-1.01h3.57v6.69h2.6v1.01h-6.47ZM337.97,50.18c-.29,0-.52-.07-.69-.22s-.26-.35-.26-.62.09-.49.26-.64c.17-.16.4-.24.69-.24s.52.08.69.24c.17.16.26.37.26.64s-.09.47-.26.62c-.17.15-.4.22-.69.22Z"/>
      <path class="cls-8" d="M343.32,59.3v-7.7h1.11v1.43c.08-.49.31-.88.67-1.15s.83-.41,1.42-.41c.77,0,1.38.24,1.83.72.46.48.69,1.13.69,1.95v5.17h-1.11v-4.98c0-.62-.15-1.09-.46-1.42-.31-.33-.73-.5-1.26-.5s-.98.17-1.3.52c-.32.34-.48.83-.48,1.44v4.94h-1.11Z"/>
      <path class="cls-8" d="M354.22,59.42c-.82,0-1.47-.19-1.93-.58-.47-.39-.71-.92-.73-1.6h1.12c.02.37.16.67.43.88.27.21.64.32,1.11.32h.71c.48,0,.86-.11,1.13-.33.27-.22.4-.53.4-.92,0-.36-.09-.64-.26-.86-.17-.22-.43-.35-.76-.38l-2.02-.28c-.56-.08-.99-.3-1.3-.65-.31-.35-.46-.82-.46-1.41,0-.66.23-1.19.69-1.57.46-.38,1.08-.57,1.88-.57h.66c.74,0,1.34.18,1.8.55.46.36.72.84.76,1.43h-1.12c-.04-.29-.18-.53-.44-.73s-.59-.29-1-.29h-.66c-.46,0-.82.11-1.08.32-.26.21-.39.5-.39.87,0,.6.31.94.94,1.02l1.9.27c.63.08,1.12.32,1.46.71.34.39.5.91.5,1.55,0,.71-.23,1.26-.69,1.66s-1.1.59-1.92.59h-.71Z"/>
      <path class="cls-8" d="M363.73,59.3c-.63,0-1.12-.17-1.48-.53-.36-.35-.55-.83-.55-1.43v-4.73h-2.23v-1.01h2.23v-2.17h1.12v2.17h3.16v1.01h-3.16v4.73c0,.3.08.53.25.7.16.17.38.25.67.25h2.18v1.01h-2.18Z"/>
      <path class="cls-8" d="M370.74,59.44c-.8,0-1.43-.22-1.89-.67-.46-.44-.69-1.02-.69-1.73,0-.47.1-.88.32-1.22.21-.35.5-.63.88-.83.37-.2.8-.3,1.29-.3h2.45v-.64c0-1.08-.57-1.62-1.71-1.62-.51,0-.93.1-1.24.31-.31.21-.48.48-.51.83h-1.11c.05-.61.32-1.11.83-1.5.51-.4,1.18-.59,2.02-.59.91,0,1.6.22,2.09.67s.73,1.08.73,1.89v5.28h-1.09v-1.44h-.01c-.07.49-.32.87-.73,1.16-.42.29-.95.43-1.62.43ZM371.02,58.49c.63,0,1.14-.16,1.51-.47.37-.31.56-.74.56-1.28v-1.16h-2.35c-.43,0-.78.13-1.05.4-.27.27-.41.61-.41,1.03,0,.45.15.81.46,1.08.31.27.73.41,1.27.41Z"/>
      <path class="cls-8" d="M376.92,59.3v-7.7h1.11v1.43c.08-.49.31-.88.67-1.15s.83-.41,1.42-.41c.77,0,1.38.24,1.83.72.46.48.69,1.13.69,1.95v5.17h-1.11v-4.98c0-.62-.15-1.09-.46-1.42-.31-.33-.73-.5-1.26-.5s-.98.17-1.3.52c-.32.34-.48.83-.48,1.44v4.94h-1.11Z"/>
      <path class="cls-8" d="M388.27,59.44c-.91,0-1.63-.26-2.18-.78-.55-.52-.82-1.23-.82-2.12v-2.18c0-.9.27-1.6.82-2.12.55-.52,1.27-.78,2.18-.78s1.58.24,2.12.71c.54.48.81,1.12.83,1.95h-1.12c-.02-.52-.19-.93-.52-1.23s-.77-.44-1.32-.44-1.02.17-1.37.5c-.34.33-.51.8-.51,1.41v2.18c0,.61.17,1.08.51,1.41.34.33.8.5,1.37.5s.99-.15,1.32-.44.5-.7.52-1.22h1.12c-.02.82-.3,1.47-.83,1.95-.54.48-1.24.71-2.12.71Z"/>
      <path class="cls-8" d="M396.56,59.44c-.9,0-1.61-.27-2.14-.8-.53-.54-.8-1.27-.8-2.21v-1.96c0-.93.27-1.67.8-2.21.53-.54,1.25-.8,2.14-.8s1.61.26,2.14.79c.53.53.8,1.23.8,2.11v1.37h-4.8v.81c0,.59.17,1.06.5,1.41.34.35.79.52,1.36.52.48,0,.89-.1,1.2-.3.32-.2.51-.47.57-.82h1.11c-.08.64-.39,1.15-.91,1.53-.52.37-1.18.56-1.97.56ZM394.7,54.85h3.72v-.49c0-.62-.16-1.11-.49-1.46-.33-.34-.78-.52-1.37-.52s-1.05.17-1.37.52c-.33.35-.49.83-.49,1.46v.49Z"/>
      <path class="cls-8" d="M404.96,59.44c-.34,0-.61-.1-.81-.3-.21-.2-.31-.46-.31-.79s.1-.59.31-.8c.21-.21.48-.32.81-.32s.61.11.81.32c.21.21.31.48.31.8s-.1.59-.31.79c-.21.2-.48.3-.81.3Z"/>
      <path class="cls-8" d="M413.36,59.42c-.9,0-1.61-.27-2.14-.8-.53-.53-.8-1.27-.8-2.21v-1.93c0-.94.26-1.68.79-2.21.53-.53,1.24-.8,2.15-.8s1.62.27,2.15.8c.53.53.79,1.27.79,2.21v1.93c0,.94-.27,1.68-.8,2.21-.53.53-1.25.8-2.14.8ZM413.36,58.43c.57,0,1.02-.16,1.34-.49.33-.33.49-.8.49-1.43v-2.13c0-.62-.16-1.1-.49-1.43-.33-.33-.77-.49-1.34-.49s-1.02.16-1.34.49c-.33.33-.49.8-.49,1.43v2.13c0,.63.16,1.1.49,1.43.33.33.77.49,1.34.49Z"/>
      <path class="cls-8" d="M418.79,59.3v-1.01h2.74v-5.68h-2.45v-1.01h3.57v6.69h2.6v1.01h-6.47ZM421.97,50.18c-.29,0-.52-.07-.69-.22s-.26-.35-.26-.62.09-.49.26-.64c.17-.16.4-.24.69-.24s.52.08.69.24c.17.16.26.37.26.64s-.09.47-.26.62c-.17.15-.4.22-.69.22Z"/>
      <path class="cls-8" d="M429.54,59.44c-.8,0-1.43-.22-1.89-.67-.46-.44-.69-1.02-.69-1.73,0-.47.1-.88.32-1.22.21-.35.5-.63.88-.83.37-.2.8-.3,1.29-.3h2.45v-.64c0-1.08-.57-1.62-1.71-1.62-.51,0-.93.1-1.24.31-.31.21-.48.48-.51.83h-1.11c.05-.61.32-1.11.83-1.5.51-.4,1.18-.59,2.02-.59.91,0,1.6.22,2.09.67s.73,1.08.73,1.89v5.28h-1.09v-1.44h-.01c-.07.49-.32.87-.73,1.16-.42.29-.95.43-1.62.43ZM429.82,58.49c.63,0,1.14-.16,1.51-.47.37-.31.56-.74.56-1.28v-1.16h-2.35c-.43,0-.78.13-1.05.4-.27.27-.41.61-.41,1.03,0,.45.15.81.46,1.08.31.27.73.41,1.27.41Z"/>
      <path class="cls-8" d="M435.72,59.3v-7.7h1.11v1.43c.08-.49.31-.88.67-1.15s.83-.41,1.42-.41c.77,0,1.38.24,1.83.72.46.48.69,1.13.69,1.95v5.17h-1.11v-4.98c0-.62-.15-1.09-.46-1.42-.31-.33-.73-.5-1.26-.5s-.98.17-1.3.52c-.32.34-.48.83-.48,1.44v4.94h-1.11Z"/>
      <path class="cls-8" d="M446.34,59.44c-.8,0-1.43-.22-1.89-.67-.46-.44-.69-1.02-.69-1.73,0-.47.1-.88.32-1.22.21-.35.5-.63.88-.83.37-.2.8-.3,1.29-.3h2.45v-.64c0-1.08-.57-1.62-1.71-1.62-.51,0-.93.1-1.24.31-.31.21-.48.48-.51.83h-1.11c.05-.61.32-1.11.83-1.5.51-.4,1.18-.59,2.02-.59.91,0,1.6.22,2.09.67s.73,1.08.73,1.89v5.28h-1.09v-1.44h-.01c-.07.49-.32.87-.73,1.16-.42.29-.95.43-1.62.43ZM446.62,58.49c.63,0,1.14-.16,1.51-.47.37-.31.56-.74.56-1.28v-1.16h-2.35c-.43,0-.78.13-1.05.4-.27.27-.41.61-.41,1.03,0,.45.15.81.46,1.08.31.27.73.41,1.27.41Z"/>
      <path class="cls-8" d="M456.44,59.3c-.66,0-1.19-.19-1.57-.57-.39-.38-.58-.89-.58-1.53v-7.11h-2.63v-1.01h3.74v8.12c0,.34.09.61.28.8.19.19.44.29.77.29h2.38v1.01h-2.38Z"/>
      <path class="cls-8" d="M462.13,61.82l1.13-3.01-2.87-7.21h1.2l1.85,4.8c.07.21.15.42.22.64.07.22.13.4.17.55.04-.15.09-.33.16-.55.07-.22.14-.44.22-.65l1.72-4.79h1.18l-3.84,10.22h-1.15Z"/>
      <path class="cls-8" d="M472.93,59.3c-.63,0-1.12-.17-1.48-.53-.36-.35-.55-.83-.55-1.43v-4.73h-2.23v-1.01h2.23v-2.17h1.12v2.17h3.16v1.01h-3.16v4.73c0,.3.08.53.25.7.16.17.38.25.67.25h2.18v1.01h-2.18Z"/>
      <path class="cls-8" d="M477.59,59.3v-1.01h2.74v-5.68h-2.45v-1.01h3.57v6.69h2.6v1.01h-6.47ZM480.77,50.18c-.29,0-.52-.07-.69-.22s-.26-.35-.26-.62.09-.49.26-.64c.17-.16.4-.24.69-.24s.52.08.69.24c.17.16.26.37.26.64s-.09.47-.26.62c-.17.15-.4.22-.69.22Z"/>
      <path class="cls-8" d="M489.07,59.44c-.91,0-1.63-.26-2.18-.78-.55-.52-.82-1.23-.82-2.12v-2.18c0-.9.27-1.6.82-2.12.55-.52,1.27-.78,2.18-.78s1.58.24,2.12.71c.54.48.81,1.12.83,1.95h-1.12c-.02-.52-.19-.93-.52-1.23s-.77-.44-1.32-.44-1.02.17-1.37.5c-.34.33-.51.8-.51,1.41v2.18c0,.61.17,1.08.51,1.41.34.33.8.5,1.37.5s.99-.15,1.32-.44.5-.7.52-1.22h1.12c-.02.82-.3,1.47-.83,1.95-.54.48-1.24.71-2.12.71Z"/>
      <path class="cls-8" d="M497.02,59.42c-.82,0-1.47-.19-1.93-.58-.47-.39-.71-.92-.73-1.6h1.12c.02.37.16.67.43.88.27.21.64.32,1.11.32h.71c.48,0,.86-.11,1.13-.33.27-.22.4-.53.4-.92,0-.36-.09-.64-.26-.86-.17-.22-.43-.35-.76-.38l-2.02-.28c-.56-.08-.99-.3-1.3-.65-.31-.35-.46-.82-.46-1.41,0-.66.23-1.19.69-1.57.46-.38,1.08-.57,1.88-.57h.66c.74,0,1.34.18,1.8.55.46.36.72.84.76,1.43h-1.12c-.04-.29-.18-.53-.44-.73s-.59-.29-1-.29h-.66c-.46,0-.82.11-1.08.32-.26.21-.39.5-.39.87,0,.6.31.94.94,1.02l1.9.27c.63.08,1.12.32,1.46.71.34.39.5.91.5,1.55,0,.71-.23,1.26-.69,1.66s-1.1.59-1.92.59h-.71Z"/>
      <path class="cls-8" d="M505.76,59.44c-.34,0-.61-.1-.81-.3-.21-.2-.31-.46-.31-.79s.1-.59.31-.8c.21-.21.48-.32.81-.32s.61.11.81.32c.21.21.31.48.31.8s-.1.59-.31.79c-.21.2-.48.3-.81.3Z"/>
      <path class="cls-8" d="M513.04,59.3v-5.64h-2.27v-1.01h2.27v-1.67c0-.59.18-1.05.55-1.39s.88-.51,1.52-.51h2.23v1.01h-2.23c-.63,0-.95.3-.95.9v1.67h3.18v1.01h-3.18v5.64h-1.12Z"/>
      <path class="cls-8" d="M520,59.3v-7.7h1.12v1.43c.08-.48.31-.87.67-1.15s.83-.42,1.41-.42c.81,0,1.43.24,1.86.72s.64,1.16.64,2.04v.67h-1.11v-.67c0-1.19-.57-1.79-1.72-1.79-.57,0-1,.17-1.3.5-.3.34-.45.81-.45,1.43v4.94h-1.12Z"/>
    </g>
    <g>
      <path class="cls-8" d="M415.75,504.19v-8.76h2.72c.8,0,1.43.23,1.9.69s.71,1.08.71,1.85-.24,1.38-.71,1.85-1.11.7-1.9.7h-1.78v3.67h-.94ZM416.68,499.65h1.78c.5,0,.9-.15,1.19-.46.3-.3.44-.71.44-1.22s-.15-.93-.44-1.23c-.29-.3-.69-.45-1.2-.45h-1.78v3.36Z"/>
      <path class="cls-8" d="M423.01,504.19v-.86h1.79v-7.03h-1.79v-.86h4.53v.86h-1.78v7.03h1.78v.86h-4.53Z"/>
      <path class="cls-8" d="M439.56,504.31c-.81,0-1.47-.23-1.97-.68s-.75-1.07-.75-1.84h.95c0,.51.16.92.49,1.22.32.3.75.45,1.28.45s.93-.15,1.23-.44.46-.68.46-1.16c0-.38-.1-.72-.3-1s-.48-.47-.85-.58l-1.29-.37c-.54-.16-.96-.44-1.28-.85-.31-.41-.47-.89-.47-1.45,0-.46.1-.86.31-1.2.21-.34.49-.61.85-.8.36-.19.79-.29,1.27-.29s.91.1,1.28.29c.37.2.66.47.87.82.21.35.31.75.31,1.22h-.94c0-.44-.14-.8-.43-1.07-.28-.28-.65-.41-1.1-.41s-.81.13-1.09.4c-.28.26-.42.61-.42,1.03,0,.34.09.64.27.89s.44.42.77.53l1.32.38c.57.16,1.02.46,1.34.91.32.44.49.97.49,1.57,0,.5-.11.93-.33,1.3-.22.37-.52.65-.91.86-.39.2-.85.31-1.38.31Z"/>
      <path class="cls-8" d="M444.23,504.19v-8.76h2.15c.55,0,1.03.11,1.44.32.41.22.72.52.94.92.22.4.33.86.33,1.39v3.49c0,.54-.11,1-.33,1.4-.22.4-.54.7-.94.92-.41.22-.89.32-1.44.32h-2.15ZM445.17,503.34h1.21c.55,0,.98-.16,1.3-.48s.48-.76.48-1.31v-3.49c0-.54-.16-.98-.48-1.3-.32-.32-.75-.48-1.3-.48h-1.21v7.06Z"/>
      <path class="cls-8" d="M451.35,504.19v-8.76h.94v3.82h1.42l1.92-3.82h1.03l-2.12,4.21,2.24,4.55h-1.09l-2.01-4.1h-1.4v4.1h-.94Z"/>
    </g>
    <g>
      <path class="cls-11" d="M230.98,388.79v4.01h-2.34v-11.38h4.44c.85,0,1.61.16,2.25.47s1.15.76,1.5,1.33c.35.58.52,1.23.52,1.96,0,1.11-.38,1.99-1.14,2.64-.76.64-1.82.96-3.17.96h-2.05ZM230.98,386.89h2.09c.62,0,1.09-.15,1.42-.44.33-.29.49-.71.49-1.25s-.16-1.01-.49-1.35-.78-.52-1.36-.53h-2.15v3.57Z"/>
      <path class="cls-11" d="M238.36,388.49c0-.84.16-1.59.48-2.24.32-.66.79-1.16,1.39-1.52.61-.36,1.31-.54,2.11-.54,1.14,0,2.07.35,2.79,1.05.72.7,1.12,1.65,1.21,2.84l.02.58c0,1.3-.36,2.34-1.09,3.12-.72.78-1.7,1.18-2.91,1.18s-2.19-.39-2.92-1.17-1.09-1.84-1.09-3.19v-.1ZM240.62,388.65c0,.8.15,1.42.45,1.84.3.42.73.64,1.3.64s.97-.21,1.28-.63c.31-.42.46-1.09.46-2.01,0-.79-.15-1.4-.46-1.83-.31-.43-.74-.65-1.3-.65s-.98.21-1.28.65c-.3.43-.45,1.1-.45,2Z"/>
      <path class="cls-11" d="M252.51,386.46c-.31-.04-.58-.06-.81-.06-.85,0-1.41.29-1.68.87v5.53h-2.26v-8.45h2.13l.06,1.01c.45-.78,1.08-1.16,1.88-1.16.25,0,.48.03.7.1l-.03,2.17Z"/>
      <path class="cls-11" d="M256.69,382.26v2.08h1.45v1.66h-1.45v4.22c0,.31.06.54.18.67.12.14.35.2.69.2.25,0,.47-.02.66-.05v1.71c-.44.14-.9.2-1.37.2-1.58,0-2.39-.8-2.42-2.4v-4.55h-1.23v-1.66h1.23v-2.08h2.26Z"/>
      <path class="cls-11" d="M259.5,385.29c0-.36.12-.65.36-.88s.55-.34.91-.34.68.11.92.34.36.52.36.88-.12.64-.36.86c-.24.22-.55.33-.92.33s-.67-.11-.91-.33c-.24-.22-.36-.51-.36-.86ZM259.5,391.69c0-.36.12-.65.36-.88s.55-.34.91-.34.68.11.92.34.36.52.36.88-.12.64-.36.86c-.24.22-.55.33-.92.33s-.67-.11-.91-.33c-.24-.22-.36-.51-.36-.86Z"/>
    </g>
    <g>
      <path class="cls-8" d="M269.59,392.8v-.88l2.98-3.18c.42-.43.72-.84.9-1.21s.28-.74.28-1.1c0-.5-.15-.91-.44-1.21s-.7-.46-1.2-.46-.92.16-1.23.47c-.31.31-.46.72-.46,1.24h-.95c.02-.78.26-1.39.74-1.85.48-.46,1.11-.69,1.9-.69s1.43.23,1.9.68.71,1.07.71,1.84c0,.43-.12.88-.35,1.36-.23.47-.61.98-1.13,1.54l-2.5,2.6h4.08v.86h-5.23Z"/>
      <path class="cls-8" d="M276.79,392.8v-.88l2.98-3.18c.42-.43.72-.84.9-1.21s.28-.74.28-1.1c0-.5-.15-.91-.44-1.21s-.7-.46-1.2-.46-.92.16-1.23.47c-.31.31-.46.72-.46,1.24h-.95c.02-.78.26-1.39.74-1.85.48-.46,1.11-.69,1.9-.69s1.43.23,1.9.68.71,1.07.71,1.84c0,.43-.12.88-.35,1.36-.23.47-.61.98-1.13,1.54l-2.5,2.6h4.08v.86h-5.23Z"/>
      <path class="cls-8" d="M283.99,392.8v-.88l2.98-3.18c.42-.43.72-.84.9-1.21s.28-.74.28-1.1c0-.5-.15-.91-.44-1.21s-.7-.46-1.2-.46-.92.16-1.23.47c-.31.31-.46.72-.46,1.24h-.95c.02-.78.26-1.39.74-1.85.48-.46,1.11-.69,1.9-.69s1.43.23,1.9.68.71,1.07.71,1.84c0,.43-.12.88-.35,1.36-.23.47-.61.98-1.13,1.54l-2.5,2.6h4.08v.86h-5.23Z"/>
      <path class="cls-8" d="M293.59,392.92c-.79,0-1.42-.23-1.88-.68s-.7-1.06-.7-1.83h.95c0,.51.15.92.45,1.21.3.3.7.44,1.19.44s.89-.15,1.19-.44c.3-.3.45-.7.45-1.21v-.65c0-.5-.15-.9-.44-1.19-.3-.29-.7-.43-1.2-.43h-.89v-.83l2.22-2.41h-3.67v-.86h4.74v.89l-2.17,2.38c.73.04,1.3.28,1.73.72.42.44.64,1.02.64,1.74v.65c0,.77-.23,1.38-.7,1.83-.47.45-1.1.68-1.9.68Z"/>
    </g>
    <g>
      <path class="cls-10" d="M363.02,177.63h-5v-81.71c0-6.44-5.47-11.67-12.19-11.67h-94.94v-5h94.94c9.48,0,17.19,7.48,17.19,16.67v81.71Z"/>
      <polygon class="cls-10" points="260.84 90.22 252.36 81.75 260.84 73.27 253.64 73.27 245.17 81.75 253.64 90.22 260.84 90.22"/>
    </g>
  </g>
</svg>