<?xml version="1.0" encoding="UTF-8"?>
<svg id="Calque_2" data-name="Calque 2" xmlns="http://www.w3.org/2000/svg" viewBox="0 0 804.05 617">
  <defs>
    <style>
      .cls-1 {
        fill: #fab911;
      }

      .cls-1, .cls-2, .cls-3, .cls-4, .cls-5, .cls-6, .cls-7, .cls-8, .cls-9 {
        stroke-width: 0px;
      }

      .cls-2 {
        fill: #0a9cd8;
      }

      .cls-3 {
        fill: #2c3c45;
      }

      .cls-4 {
        fill: #273d46;
      }

      .cls-5 {
        fill: #c2d1d9;
      }

      .cls-6 {
        fill: #ffe698;
      }

      .cls-7 {
        fill: #fab612;
      }

      .cls-10 {
        opacity: .9;
      }

      .cls-8 {
        fill: #fbba0e;
      }

      .cls-9 {
        fill: #fff;
      }
    </style>
  </defs>
  <g id="Calque_1-2" data-name="Calque 1">
    <rect class="cls-3" width="804" height="617" rx="14.17" ry="14.17"/>
    <path class="cls-2" d="M804.05,152.09h-4v-2h4v2ZM792.05,152.09h-8v-2h8v2ZM776.05,152.09h-8v-2h8v2ZM760.05,152.09h-8v-2h8v2ZM744.05,152.09h-8v-2h8v2ZM728.05,152.09h-8v-2h8v2ZM712.05,152.09h-8v-2h8v2ZM696.05,152.09h-8v-2h8v2ZM680.05,152.09h-8v-2h8v2ZM664.05,152.09h-8v-2h8v2ZM648.05,152.09h-8v-2h8v2ZM632.05,152.09h-8v-2h8v2ZM616.05,152.09h-8v-2h8v2ZM600.05,152.09h-8v-2h8v2ZM584.05,152.09h-8v-2h8v2ZM568.05,152.09h-8v-2h8v2ZM552.05,152.09h-8v-2h8v2ZM536.05,152.09h-8v-2h8v2ZM520.05,152.09h-8v-2h8v2ZM504.05,152.09h-8v-2h8v2ZM488.05,152.09h-8v-2h8v2ZM472.05,152.09h-8v-2h8v2ZM456.05,152.09h-8v-2h8v2ZM440.05,152.09h-8v-2h8v2ZM424.05,152.09h-8v-2h8v2ZM408.05,152.09h-8v-2h8v2ZM392.05,152.09h-8v-2h8v2ZM376.05,152.09h-8v-2h8v2ZM360.05,152.09h-8v-2h8v2ZM344.05,152.09h-8v-2h8v2ZM328.05,152.09h-8v-2h8v2ZM312.05,152.09h-8v-2h8v2ZM296.05,152.09h-8v-2h8v2ZM280.05,152.09h-8v-2h8v2ZM264.05,152.09h-8v-2h8v2ZM248.05,152.09h-8v-2h8v2ZM232.05,152.09h-8v-2h8v2ZM216.05,152.09h-8v-2h8v2ZM200.05,152.09h-8v-2h8v2ZM184.05,152.09h-8v-2h8v2ZM168.05,152.09h-8v-2h8v2ZM152.05,152.09h-8v-2h8v2ZM136.05,152.09h-8v-2h8v2ZM120.05,152.09h-8v-2h8v2ZM104.05,152.09h-8v-2h8v2ZM88.05,152.09h-8v-2h8v2ZM72.05,152.09h-8v-2h8v2ZM56.05,152.09h-8v-2h8v2ZM40.05,152.09h-8v-2h8v2ZM24.05,152.09h-8v-2h8v2ZM8.05,152.09H.05v-2h8v2Z"/>
    <g>
      <path class="cls-5" d="M632.93,138.99h-.84v-9.95h.84v9.95Z"/>
      <path class="cls-5" d="M636.22,131.59l.03,1.26c.28-.46.62-.8,1.04-1.04.41-.24.87-.36,1.37-.36.79,0,1.38.22,1.77.67s.58,1.12.59,2.01v4.85h-.81v-4.86c0-.66-.14-1.15-.42-1.48s-.72-.49-1.32-.49c-.51,0-.95.16-1.34.47-.39.32-.68.74-.86,1.28v5.07h-.81v-7.4h.78Z"/>
      <path class="cls-5" d="M644.4,129.7v1.89h1.53v.67h-1.53v4.93c0,.41.07.72.22.92.15.2.4.3.74.3.14,0,.36-.02.66-.07l.03.66c-.21.08-.51.12-.88.12-.56,0-.97-.16-1.22-.49-.26-.33-.38-.81-.38-1.44v-4.94h-1.36v-.67h1.36v-1.89h.82Z"/>
      <path class="cls-5" d="M650.49,139.13c-.63,0-1.2-.16-1.71-.46s-.9-.74-1.19-1.29c-.28-.55-.42-1.17-.42-1.86v-.29c0-.71.14-1.35.41-1.92s.66-1.02,1.15-1.34c.49-.33,1.03-.49,1.6-.49.9,0,1.61.31,2.14.92.53.61.79,1.45.79,2.51v.46h-5.28v.16c0,.84.24,1.54.72,2.1.48.56,1.09.84,1.81.84.44,0,.82-.08,1.16-.24s.64-.42.91-.77l.51.39c-.6.87-1.47,1.31-2.62,1.31ZM650.34,132.15c-.62,0-1.13.23-1.56.68s-.68,1.06-.77,1.82h4.44v-.09c-.02-.71-.23-1.29-.61-1.74s-.88-.67-1.5-.67Z"/>
      <path class="cls-5" d="M658.28,132.29c-.17-.03-.36-.05-.55-.05-.51,0-.94.14-1.3.43-.35.29-.6.7-.76,1.24v5.08h-.81v-7.4h.8v1.18c.45-.88,1.14-1.31,2.1-1.31.23,0,.41.03.54.09l-.02.75Z"/>
      <path class="cls-5" d="M660.35,131.59l.03,1.26c.28-.46.62-.8,1.04-1.04.41-.24.87-.36,1.37-.36.79,0,1.38.22,1.77.67s.58,1.12.59,2.01v4.85h-.81v-4.86c0-.66-.14-1.15-.42-1.48s-.72-.49-1.32-.49c-.51,0-.95.16-1.34.47-.39.32-.68.74-.86,1.28v5.07h-.81v-7.4h.78Z"/>
      <path class="cls-5" d="M670.12,139.13c-.63,0-1.2-.16-1.71-.46s-.9-.74-1.19-1.29c-.28-.55-.42-1.17-.42-1.86v-.29c0-.71.14-1.35.41-1.92s.66-1.02,1.15-1.34c.49-.33,1.03-.49,1.6-.49.9,0,1.61.31,2.14.92.53.61.79,1.45.79,2.51v.46h-5.28v.16c0,.84.24,1.54.72,2.1.48.56,1.09.84,1.81.84.44,0,.82-.08,1.16-.24s.64-.42.91-.77l.51.39c-.6.87-1.47,1.31-2.62,1.31ZM669.97,132.15c-.62,0-1.13.23-1.56.68s-.68,1.06-.77,1.82h4.44v-.09c-.02-.71-.23-1.29-.61-1.74s-.88-.67-1.5-.67Z"/>
      <path class="cls-5" d="M675.76,129.7v1.89h1.53v.67h-1.53v4.93c0,.41.07.72.22.92.15.2.4.3.74.3.14,0,.36-.02.66-.07l.03.66c-.21.08-.51.12-.88.12-.56,0-.97-.16-1.22-.49-.26-.33-.38-.81-.38-1.44v-4.94h-1.36v-.67h1.36v-1.89h.82Z"/>
    </g>
    <g>
      <path class="cls-2" d="M636.14,163.91h-4.66v4.06h5.35v.71h-6.19v-9.95h6.16v.71h-5.32v3.76h4.66v.71Z"/>
      <path class="cls-2" d="M639.2,161.28l.03,1.26c.28-.46.62-.8,1.04-1.04.41-.24.87-.36,1.37-.36.79,0,1.38.22,1.77.67s.58,1.12.59,2.01v4.85h-.81v-4.86c0-.66-.14-1.15-.42-1.48s-.72-.49-1.32-.49c-.51,0-.95.16-1.34.47-.39.32-.68.74-.86,1.28v5.07h-.81v-7.4h.78Z"/>
      <path class="cls-2" d="M647.38,159.39v1.89h1.53v.67h-1.53v4.93c0,.41.07.72.22.92.15.2.4.3.74.3.14,0,.36-.02.66-.07l.03.66c-.21.08-.51.12-.88.12-.56,0-.97-.16-1.22-.49-.26-.33-.38-.81-.38-1.44v-4.94h-1.36v-.67h1.36v-1.89h.82Z"/>
      <path class="cls-2" d="M653.47,168.82c-.63,0-1.2-.16-1.71-.46s-.9-.74-1.19-1.29c-.28-.55-.42-1.17-.42-1.86v-.29c0-.71.14-1.35.41-1.92s.66-1.02,1.15-1.34c.49-.33,1.03-.49,1.6-.49.9,0,1.61.31,2.14.92.53.61.79,1.45.79,2.51v.46h-5.28v.16c0,.84.24,1.54.72,2.1.48.56,1.09.84,1.81.84.44,0,.82-.08,1.16-.24s.64-.42.91-.77l.51.39c-.6.87-1.47,1.31-2.62,1.31ZM653.32,161.84c-.62,0-1.13.23-1.56.68s-.68,1.06-.77,1.82h4.44v-.09c-.02-.71-.23-1.29-.61-1.74s-.88-.67-1.5-.67Z"/>
      <path class="cls-2" d="M661.26,161.98c-.17-.03-.36-.05-.55-.05-.51,0-.94.14-1.3.43-.35.29-.6.7-.76,1.24v5.08h-.81v-7.4h.8v1.18c.45-.88,1.14-1.31,2.1-1.31.23,0,.41.03.54.09l-.02.75Z"/>
      <path class="cls-2" d="M668.5,165.06c0,1.15-.26,2.07-.77,2.74-.51.68-1.19,1.02-2.05,1.02-1.01,0-1.79-.36-2.32-1.07v3.77h-.81v-10.24h.76l.04,1.05c.53-.79,1.31-1.18,2.32-1.18.88,0,1.58.33,2.08,1s.76,1.6.76,2.79v.12ZM667.68,164.91c0-.94-.19-1.69-.58-2.24s-.93-.82-1.62-.82c-.5,0-.93.12-1.29.36s-.64.59-.83,1.05v3.55c.2.42.48.75.84.97s.8.33,1.29.33c.69,0,1.22-.27,1.61-.82.39-.55.58-1.35.58-2.39Z"/>
      <path class="cls-2" d="M673.73,161.98c-.17-.03-.36-.05-.55-.05-.51,0-.94.14-1.3.43-.35.29-.6.7-.76,1.24v5.08h-.81v-7.4h.8v1.18c.45-.88,1.14-1.31,2.1-1.31.23,0,.41.03.54.09l-.02.75Z"/>
      <path class="cls-2" d="M674.97,159.15c0-.15.05-.28.15-.39.1-.11.24-.16.41-.16s.31.05.41.16c.1.11.15.24.15.39s-.05.28-.15.39-.24.16-.41.16-.31-.05-.41-.16-.15-.23-.15-.39ZM675.93,168.68h-.82v-7.4h.82v7.4Z"/>
      <path class="cls-2" d="M682.58,166.8c0-.41-.16-.73-.49-.98s-.82-.44-1.47-.58c-.66-.14-1.17-.3-1.53-.48-.36-.18-.63-.4-.81-.66s-.26-.57-.26-.94c0-.58.24-1.07.73-1.45.49-.38,1.11-.57,1.87-.57.82,0,1.49.2,1.99.61.5.41.75.94.75,1.6h-.82c0-.43-.18-.79-.54-1.08s-.82-.43-1.37-.43-.97.12-1.3.36c-.33.24-.49.55-.49.93s.14.66.41.86c.27.2.77.39,1.48.56s1.26.35,1.61.54.62.42.8.69.26.59.26.98c0,.62-.25,1.12-.76,1.5s-1.16.56-1.97.56c-.86,0-1.56-.21-2.1-.62-.54-.42-.8-.95-.8-1.58h.82c.03.48.23.85.6,1.12.37.27.86.4,1.47.4.57,0,1.03-.12,1.38-.38s.53-.57.53-.95Z"/>
      <path class="cls-2" d="M688.11,168.82c-.63,0-1.2-.16-1.71-.46s-.9-.74-1.19-1.29c-.28-.55-.42-1.17-.42-1.86v-.29c0-.71.14-1.35.41-1.92s.66-1.02,1.15-1.34c.49-.33,1.03-.49,1.6-.49.9,0,1.61.31,2.14.92.53.61.79,1.45.79,2.51v.46h-5.28v.16c0,.84.24,1.54.72,2.1.48.56,1.09.84,1.81.84.44,0,.82-.08,1.16-.24s.64-.42.91-.77l.51.39c-.6.87-1.47,1.31-2.62,1.31ZM687.96,161.84c-.62,0-1.13.23-1.56.68s-.68,1.06-.77,1.82h4.44v-.09c-.02-.71-.23-1.29-.61-1.74s-.88-.67-1.5-.67Z"/>
      <path class="cls-2" d="M703.48,168.68h-.84l-5.72-8.52v8.52h-.85v-9.95h.85l5.73,8.52v-8.52h.83v9.95Z"/>
      <path class="cls-2" d="M708.68,168.82c-.63,0-1.2-.16-1.71-.46s-.9-.74-1.19-1.29c-.28-.55-.42-1.17-.42-1.86v-.29c0-.71.14-1.35.41-1.92s.66-1.02,1.15-1.34c.49-.33,1.03-.49,1.6-.49.9,0,1.61.31,2.14.92.53.61.79,1.45.79,2.51v.46h-5.28v.16c0,.84.24,1.54.72,2.1.48.56,1.09.84,1.81.84.44,0,.82-.08,1.16-.24s.64-.42.91-.77l.51.39c-.6.87-1.47,1.31-2.62,1.31ZM708.53,161.84c-.62,0-1.13.23-1.56.68s-.68,1.06-.77,1.82h4.44v-.09c-.02-.71-.23-1.29-.61-1.74s-.88-.67-1.5-.67Z"/>
      <path class="cls-2" d="M714.32,159.39v1.89h1.53v.67h-1.53v4.93c0,.41.07.72.22.92.15.2.4.3.74.3.14,0,.36-.02.66-.07l.03.66c-.21.08-.51.12-.88.12-.56,0-.97-.16-1.22-.49-.26-.33-.38-.81-.38-1.44v-4.94h-1.36v-.67h1.36v-1.89h.82Z"/>
      <path class="cls-2" d="M719.32,166.98l.12.64.16-.67,1.78-5.66h.7l1.76,5.61.19.78.16-.72,1.52-5.67h.85l-2.15,7.4h-.7l-1.9-5.87-.09-.4-.09.41-1.87,5.86h-.7l-2.15-7.4h.84l1.57,5.69Z"/>
      <path class="cls-2" d="M727.65,164.87c0-.71.14-1.35.41-1.92s.67-1.01,1.17-1.33c.5-.32,1.07-.47,1.71-.47.98,0,1.78.35,2.39,1.04.61.69.92,1.61.92,2.75v.17c0,.72-.14,1.36-.41,1.93-.28.57-.66,1.01-1.17,1.32s-1.07.46-1.72.46c-.98,0-1.78-.35-2.39-1.04-.61-.69-.92-1.61-.92-2.75v-.16ZM728.47,165.1c0,.88.23,1.61.69,2.18.46.57,1.06.85,1.8.85s1.34-.28,1.79-.85c.46-.57.69-1.32.69-2.25v-.16c0-.57-.1-1.08-.31-1.55s-.5-.83-.88-1.09c-.38-.26-.81-.39-1.3-.39-.73,0-1.32.29-1.78.86-.46.57-.69,1.32-.69,2.25v.15Z"/>
      <path class="cls-2" d="M739.36,161.98c-.17-.03-.36-.05-.55-.05-.51,0-.94.14-1.3.43-.35.29-.6.7-.76,1.24v5.08h-.81v-7.4h.8v1.18c.45-.88,1.14-1.31,2.1-1.31.23,0,.41.03.54.09l-.02.75Z"/>
      <path class="cls-2" d="M742.41,164.95l-.94.9v2.82h-.82v-10.5h.82v6.72l.77-.83,2.83-2.78h1.03l-3.14,3.12,3.41,4.28h-.98l-2.99-3.73Z"/>
    </g>
    <g>
      <g>
        <rect class="cls-3" x="78.77" y="39.73" width="79.52" height="79.52" rx="16.9" ry="16.9"/>
        <path class="cls-9" d="M141.39,41.63c8.29,0,15.01,6.72,15.01,15.01v45.72c0,8.29-6.72,15.01-15.01,15.01h-45.72c-8.29,0-15.01-6.72-15.01-15.01v-45.72c0-8.29,6.72-15.01,15.01-15.01h45.72M141.39,37.84h-45.72c-10.37,0-18.8,8.43-18.8,18.8v45.72c0,10.37,8.43,18.8,18.8,18.8h45.72c10.37,0,18.8-8.43,18.8-18.8v-45.72c0-10.37-8.43-18.8-18.8-18.8h0Z"/>
      </g>
      <path class="cls-7" d="M114.96,57.18c8.14,0,14.77,6.63,14.77,14.77s-6.63,14.77-14.77,14.77-14.77-6.63-14.77-14.77,6.63-14.77,14.77-14.77M114.96,52.97c-10.48,0-18.97,8.5-18.97,18.97s8.5,18.97,18.97,18.97,18.97-8.5,18.97-18.97-8.5-18.97-18.97-18.97h0Z"/>
      <rect class="cls-7" x="137.01" y="60.81" width="4.06" height="30.05"/>
      <rect class="cls-7" x="137.01" y="52.92" width="4.06" height="3.81"/>
      <g>
        <path class="cls-9" d="M123.83,66.87c-.43,0-.77.34-.77.77v10.25c0,.43.34.77.77.77s.77-.34.77-.77v-10.25c0-.43-.34-.77-.77-.77Z"/>
        <path class="cls-9" d="M108.19,68.36c-.43,0-.77.34-.77.77v8.77c0,.43.34.77.77.77s.77-.34.77-.77v-8.77c0-.43-.34-.77-.77-.77Z"/>
        <path class="cls-9" d="M120.7,65.28c-.43,0-.77.34-.77.77v11.85c0,.43.34.77.77.77s.77-.34.77-.77v-11.85c0-.43-.34-.77-.77-.77Z"/>
        <path class="cls-9" d="M114.44,69.9c-.43,0-.77.34-.77.77v7.23c0,.43.34.77.77.77s.77-.34.77-.77v-7.23c0-.43-.34-.77-.77-.77Z"/>
        <path class="cls-9" d="M117.57,68.36c-.43,0-.77.34-.77.77v8.77c0,.43.34.77.77.77s.77-.34.77-.77v-8.77c0-.43-.34-.77-.77-.77Z"/>
        <path class="cls-9" d="M111.32,69.9c-.43,0-.77.34-.77.77v10.31c0,.43.34.77.77.77s.77-.34.77-.77v-10.31c0-.43-.34-.77-.77-.77Z"/>
        <path class="cls-9" d="M105.06,71.44c-.43,0-.77.34-.77.77v5.69c0,.43.34.77.77.77s.77-.34.77-.77v-5.69c0-.43-.34-.77-.77-.77Z"/>
      </g>
      <path class="cls-7" d="M94.71,107.75c-.67,0-1.27-.15-1.81-.45-.53-.3-.96-.74-1.26-1.33-.32-.58-.47-1.27-.47-2.1s.15-1.53.47-2.11.73-1.02,1.26-1.33,1.14-.45,1.81-.45,1.27.15,1.81.45.96.74,1.26,1.33c.32.58.47,1.29.47,2.11s-.15,1.53-.47,2.1c-.3.58-.73,1.02-1.26,1.33-.53.3-1.14.45-1.81.45ZM94.71,106.33c.39,0,.73-.09,1.01-.28.29-.19.5-.47.67-.83.15-.37.24-.82.24-1.35s-.08-.98-.24-1.35c-.15-.37-.38-.64-.67-.83-.29-.19-.63-.28-1.01-.28s-.72.1-1.01.28c-.29.19-.5.47-.67.83-.16.37-.24.82-.24,1.35s.08.98.24,1.35c.16.37.38.64.67.83.29.19.62.28,1.01.28Z"/>
      <path class="cls-7" d="M100.67,100.1v7.55h-1.59v-7.55h1.59Z"/>
      <path class="cls-7" d="M102.94,107.64h-1.7l2.6-7.55h2.06l2.6,7.55h-1.7l-1.89-5.83h-.06l-1.89,5.83ZM102.84,104.68h4.04v1.25h-4.04v-1.25Z"/>
      <path class="cls-7" d="M110.6,104.37v3.27h-1.57v-5.67h1.54v1.01h.05c.13-.33.33-.59.62-.8.28-.19.63-.29,1.05-.29.39,0,.73.09,1.02.27s.52.42.68.73.24.69.24,1.14v3.6h-1.57v-3.32c0-.34-.09-.62-.27-.81-.18-.2-.43-.29-.74-.29-.21,0-.39.05-.56.14-.16.09-.29.23-.38.4s-.14.38-.14.62h.01Z"/>
      <path class="cls-7" d="M116.79,107.75c-.35,0-.68-.06-.96-.19-.29-.13-.5-.32-.67-.57s-.24-.56-.24-.93c0-.32.06-.58.18-.8s.28-.38.47-.52c.2-.13.43-.23.68-.3.25-.06.52-.11.81-.14.33-.03.59-.06.8-.09s.34-.08.44-.14c.09-.06.14-.15.14-.27v-.03c0-.23-.08-.42-.21-.54-.15-.13-.35-.19-.62-.19s-.5.06-.67.19c-.16.13-.28.28-.33.47l-1.45-.11c.08-.34.21-.64.44-.9.21-.25.49-.44.83-.58s.74-.2,1.2-.2c.32,0,.62.04.9.11.29.08.54.19.77.34s.4.35.53.59c.13.24.2.53.2.87v3.82h-1.49v-.8h-.04c-.09.18-.21.34-.37.47-.15.14-.33.24-.54.32s-.45.11-.74.11h-.05ZM117.24,106.66c.23,0,.43-.05.61-.14s.32-.21.42-.38c.1-.15.15-.33.15-.53v-.61s-.11.06-.2.09-.18.05-.29.08c-.1.03-.21.04-.32.05s-.2.03-.28.04c-.19.03-.35.08-.49.13-.14.06-.24.14-.32.24-.08.1-.11.23-.11.37,0,.21.08.38.23.49s.35.16.59.16h.01Z"/>
      <path class="cls-7" d="M122.45,100.1v7.55h-1.57v-7.55h1.57Z"/>
      <path class="cls-7" d="M124.33,109.76c-.2,0-.39,0-.56-.04-.18-.03-.32-.08-.43-.11l.35-1.17h.05c.27.09.49.1.68.06.19-.04.33-.19.43-.45l.09-.24-2.03-5.83h1.65l1.17,4.17h.06l1.19-4.17h1.65l-2.2,6.27c-.1.3-.25.57-.43.8s-.4.4-.68.53-.61.19-1,.19h-.01Z"/>
      <path class="cls-7" d="M132.12,101.98v1.19h-3.41v-1.19h3.41ZM129.48,100.63h1.57v5.28c0,.19.04.33.13.42s.21.14.4.14c.06,0,.13,0,.2-.01.08,0,.14-.03.19-.04l.25,1.17c-.18.05-.34.09-.5.11s-.32.04-.48.04c-.57,0-1-.14-1.31-.43-.3-.28-.47-.68-.47-1.2v-5.48h.03Z"/>
      <path class="cls-7" d="M133.59,101.26c-.23,0-.43-.08-.59-.23s-.25-.34-.25-.57.09-.4.25-.56.37-.23.59-.23.44.08.61.23.25.34.25.56-.09.4-.25.57c-.16.15-.37.23-.61.23ZM132.8,107.64v-5.67h1.57v5.67h-1.57Z"/>
      <path class="cls-7" d="M137.84,107.76c-.58,0-1.07-.13-1.49-.37-.42-.25-.73-.59-.96-1.02-.23-.44-.34-.95-.34-1.51s.11-1.09.34-1.53c.23-.44.54-.78.96-1.04s.91-.37,1.49-.37c.49,0,.92.09,1.3.27s.67.43.88.76c.21.33.34.71.35,1.15h-1.48c-.03-.19-.09-.35-.18-.49s-.2-.25-.35-.33-.32-.11-.5-.11c-.24,0-.45.06-.63.19-.18.13-.32.32-.42.57s-.15.56-.15.91.05.67.15.92c.1.25.24.45.42.59.18.14.39.2.63.2.27,0,.49-.09.68-.25s.3-.4.34-.71h1.48c-.03.43-.14.81-.35,1.15-.21.33-.5.58-.87.77-.37.19-.81.28-1.31.28v-.03Z"/>
      <path class="cls-7" d="M145.76,103.59l-1.44.09c-.04-.18-.14-.33-.3-.47-.16-.13-.38-.19-.66-.19-.24,0-.44.05-.61.15s-.24.24-.24.4c0,.14.05.25.16.34.1.1.29.18.56.23l1.02.2c.56.11.96.29,1.24.54.27.25.4.58.4.98,0,.38-.11.71-.33.98s-.52.49-.9.66c-.38.15-.81.24-1.3.24-.74,0-1.35-.15-1.79-.47s-.71-.74-.78-1.27l1.54-.08c.05.23.16.4.34.52s.4.18.69.18.49-.05.67-.16.25-.24.25-.42c0-.28-.24-.47-.73-.57l-.97-.2c-.56-.11-.96-.3-1.24-.57-.27-.27-.4-.62-.4-1.04,0-.37.1-.68.3-.95s.48-.47.83-.61c.37-.14.78-.21,1.26-.21.72,0,1.27.15,1.69.45s.64.72.72,1.24h0Z"/>
    </g>
    <path class="cls-5" d="M417.12,532.25h-142.27c-11.81,0-21.42-9.61-21.42-21.42V239.16c0-11.81,9.61-21.42,21.42-21.42h142.27c11.81,0,21.42,9.61,21.42,21.42v271.67c0,11.81-9.61,21.42-21.42,21.42ZM274.85,219.74c-10.71,0-19.42,8.71-19.42,19.42v271.67c0,10.71,8.71,19.42,19.42,19.42h142.27c10.71,0,19.42-8.71,19.42-19.42V239.16c0-10.71-8.71-19.42-19.42-19.42h-142.27Z"/>
    <polygon class="cls-9" points="548.58 524.98 405.89 520.36 405.89 520.11 406.85 436.27 407.03 436.22 545.07 394.49 545.22 394.97 407.35 436.64 406.4 519.87 548.6 524.48 548.58 524.98"/>
    <g>
      <g class="cls-10">
        <rect class="cls-3" x="539.66" y="393.93" width="187.3" height="129.59" rx="9.25" ry="9.25"/>
      </g>
      <path class="cls-9" d="M717.71,525.02h-168.81c-5.92,0-10.75-4.82-10.75-10.75v-111.1c0-5.92,4.82-10.75,10.75-10.75h168.81c5.92,0,10.75,4.82,10.75,10.75v111.1c0,5.92-4.82,10.75-10.75,10.75ZM548.9,395.43c-4.27,0-7.75,3.47-7.75,7.75v111.1c0,4.27,3.47,7.75,7.75,7.75h168.81c4.27,0,7.75-3.47,7.75-7.75v-111.1c0-4.27-3.47-7.75-7.75-7.75h-168.81Z"/>
    </g>
    <g>
      <path class="cls-6" d="M440.38,126.01c-.9,0-1.6-.26-2.12-.79-.52-.53-.78-1.27-.78-2.22v-4.48c0-.95.26-1.69.78-2.22.52-.53,1.23-.79,2.12-.79s1.6.26,2.12.79c.52.53.78,1.26.78,2.21v4.49c0,.95-.26,1.69-.78,2.22-.52.53-1.22.79-2.12.79ZM440.38,125.02c.57,0,1.01-.17,1.32-.5.31-.33.47-.8.47-1.41v-4.7c0-.61-.16-1.08-.47-1.41-.31-.33-.75-.5-1.32-.5s-1.01.17-1.32.5c-.31.33-.47.8-.47,1.41v4.7c0,.61.16,1.08.47,1.41.31.33.75.5,1.32.5Z"/>
      <path class="cls-6" d="M448.77,126.01c-.88,0-1.57-.26-2.09-.78-.51-.52-.77-1.23-.77-2.13v-4.93h1.11v4.93c0,.6.16,1.07.47,1.41.31.35.74.52,1.28.52s.98-.17,1.3-.52c.32-.34.48-.82.48-1.41v-4.93h1.11v4.93c0,.9-.26,1.61-.78,2.13-.52.52-1.22.78-2.1.78Z"/>
      <path class="cls-6" d="M457.95,125.87c-.63,0-1.12-.17-1.48-.53-.36-.35-.55-.83-.55-1.43v-4.73h-2.23v-1.01h2.23v-2.17h1.12v2.17h3.16v1.01h-3.16v4.73c0,.3.08.53.25.7.16.17.38.25.67.25h2.18v1.01h-2.18Z"/>
      <path class="cls-6" d="M465.96,126.01c-.57,0-1.04-.14-1.41-.41-.37-.27-.61-.65-.7-1.13v1.4h-1.11v-10.22h1.11v3.92c.07-.48.3-.85.69-1.13s.86-.41,1.43-.41c.77,0,1.39.26,1.85.77.46.51.69,1.21.69,2.09v2.28c0,.88-.23,1.57-.69,2.08s-1.08.76-1.84.76ZM465.61,125.05c.56,0,1-.15,1.31-.46.31-.3.47-.78.47-1.42v-2.28c0-.64-.16-1.12-.47-1.43-.31-.31-.75-.46-1.31-.46s-.98.17-1.29.51c-.31.34-.47.81-.47,1.42v2.18c0,.61.16,1.08.48,1.42s.75.51,1.29.51Z"/>
      <path class="cls-6" d="M473.98,126c-.9,0-1.61-.27-2.14-.8-.53-.53-.8-1.27-.8-2.21v-1.93c0-.94.26-1.68.79-2.21.53-.53,1.24-.8,2.15-.8s1.62.27,2.15.8c.53.53.79,1.27.79,2.21v1.93c0,.94-.27,1.68-.8,2.21-.53.53-1.25.8-2.14.8ZM473.98,125c.57,0,1.02-.16,1.34-.49.33-.33.49-.8.49-1.43v-2.13c0-.62-.16-1.1-.49-1.43-.33-.33-.77-.49-1.34-.49s-1.02.16-1.34.49c-.33.33-.49.8-.49,1.43v2.13c0,.63.16,1.1.49,1.43.33.33.77.49,1.34.49Z"/>
      <path class="cls-6" d="M482.37,126.01c-.88,0-1.57-.26-2.09-.78-.51-.52-.77-1.23-.77-2.13v-4.93h1.11v4.93c0,.6.16,1.07.47,1.41.31.35.74.52,1.28.52s.98-.17,1.3-.52c.32-.34.48-.82.48-1.41v-4.93h1.11v4.93c0,.9-.26,1.61-.78,2.13-.52.52-1.22.78-2.1.78Z"/>
      <path class="cls-6" d="M487.94,125.87v-7.7h1.11v1.43c.08-.49.31-.88.67-1.15s.83-.41,1.42-.41c.77,0,1.38.24,1.83.72.46.48.69,1.13.69,1.95v5.17h-1.11v-4.98c0-.62-.15-1.09-.46-1.42-.31-.33-.73-.5-1.26-.5s-.98.17-1.3.52c-.32.34-.48.83-.48,1.44v4.94h-1.11Z"/>
      <path class="cls-6" d="M498.8,126.01c-.77,0-1.38-.25-1.84-.76s-.69-1.2-.69-2.08v-2.28c0-.88.23-1.57.69-2.09.46-.51,1.07-.77,1.85-.77.57,0,1.05.14,1.43.41s.62.65.7,1.13v-1.72s-.01-2.2-.01-2.2h1.11v10.22h-1.11v-1.4c-.09.48-.33.85-.7,1.13-.37.28-.84.41-1.41.41ZM499.15,125.05c.54,0,.97-.17,1.29-.51s.48-.81.48-1.42v-2.18c0-.61-.16-1.08-.47-1.42-.31-.34-.74-.51-1.29-.51s-1,.15-1.31.46c-.31.31-.47.78-.47,1.43v2.28c0,.64.16,1.12.47,1.42.31.3.75.46,1.31.46Z"/>
      <path class="cls-6" d="M437.54,142.67v-10.22h3.21c.94,0,1.69.27,2.25.8.56.54.83,1.26.83,2.16s-.28,1.62-.83,2.16c-.56.54-1.3.81-2.25.81h-2.1v4.28h-1.11ZM438.65,137.38h2.1c.59,0,1.06-.18,1.41-.53.35-.35.52-.83.52-1.43s-.17-1.08-.52-1.43c-.35-.35-.82-.53-1.41-.53h-2.1v3.92Z"/>
      <path class="cls-6" d="M448.78,142.8c-.9,0-1.61-.27-2.14-.8-.53-.53-.8-1.27-.8-2.21v-1.93c0-.94.26-1.68.79-2.21.53-.53,1.24-.8,2.15-.8s1.62.27,2.15.8c.53.53.79,1.27.79,2.21v1.93c0,.94-.27,1.68-.8,2.21-.53.53-1.25.8-2.14.8ZM448.78,141.8c.57,0,1.02-.16,1.34-.49.33-.33.49-.8.49-1.43v-2.13c0-.62-.16-1.1-.49-1.43-.33-.33-.77-.49-1.34-.49s-1.02.16-1.34.49c-.33.33-.49.8-.49,1.43v2.13c0,.63.16,1.1.49,1.43.33.33.77.49,1.34.49Z"/>
      <path class="cls-6" d="M454.62,142.67v-7.7h1.12v1.43c.08-.48.31-.87.67-1.15s.83-.42,1.41-.42c.81,0,1.43.24,1.86.72s.64,1.16.64,2.04v.67h-1.11v-.67c0-1.19-.57-1.79-1.72-1.79-.57,0-1,.17-1.3.5-.3.34-.45.81-.45,1.43v4.94h-1.12Z"/>
      <path class="cls-6" d="M466.35,142.67c-.63,0-1.12-.17-1.48-.53-.36-.35-.55-.83-.55-1.43v-4.73h-2.23v-1.01h2.23v-2.17h1.12v2.17h3.16v1.01h-3.16v4.73c0,.3.08.53.25.7.16.17.38.25.67.25h2.18v1.01h-2.18Z"/>
      <path class="cls-6" d="M484.97,144.35c-1.31-.3-2.32-.92-3.03-1.87-.71-.95-1.07-2.13-1.07-3.55v-2.6c0-1.42.36-2.6,1.07-3.55.71-.95,1.72-1.57,3.03-1.87v1.06c-.93.22-1.67.72-2.2,1.5-.53.78-.8,1.73-.8,2.86v2.6c0,1.13.27,2.08.8,2.86.53.77,1.26,1.27,2.2,1.5v1.06Z"/>
      <path class="cls-6" d="M492.25,142.67v-2.28h-4.63v-1.82l3.79-6.12h1.26l-3.95,6.38v.55h3.53v-2.59h1.12v5.88h-1.12Z"/>
      <path class="cls-6" d="M500.65,142.67v-2.28h-4.63v-1.82l3.79-6.12h1.26l-3.95,6.38v.55h3.53v-2.59h1.12v5.88h-1.12Z"/>
      <path class="cls-6" d="M507.43,142.81c-.92,0-1.66-.26-2.2-.79-.54-.53-.81-1.24-.81-2.13h1.11c0,.6.17,1.07.52,1.41.35.35.81.52,1.39.52s1.04-.17,1.39-.52c.35-.34.52-.82.52-1.41v-.76c0-.59-.17-1.05-.52-1.39s-.81-.5-1.4-.5h-1.04v-.97l2.59-2.81h-4.28v-1.01h5.53v1.04l-2.53,2.77c.85.05,1.52.33,2.02.84.49.51.74,1.19.74,2.03v.76c0,.9-.27,1.61-.82,2.13-.55.53-1.29.79-2.22.79Z"/>
      <path class="cls-6" d="M513.39,144.35v-1.06c.93-.22,1.67-.72,2.2-1.5.53-.77.8-1.73.8-2.86v-2.6c0-1.13-.27-2.08-.8-2.86-.53-.77-1.27-1.27-2.2-1.5v-1.06c1.31.3,2.32.92,3.03,1.87.71.95,1.07,2.13,1.07,3.55v2.6c0,1.42-.36,2.6-1.07,3.55-.71.95-1.72,1.57-3.03,1.87Z"/>
    </g>
    <g>
      <g>
        <path class="cls-3" d="M360.36,189.36c-9.43,0-17.1-7.58-17.1-16.9v-45.72c0-9.32,7.67-16.9,17.1-16.9h46.26c9.43,0,17.1,7.58,17.1,16.9v45.72c0,9.32-7.67,16.9-17.1,16.9h-46.26Z"/>
        <path class="cls-9" d="M406.61,111.73c8.39,0,15.18,6.72,15.18,15.01v45.72c0,8.29-6.8,15.01-15.18,15.01h-46.26c-8.39,0-15.18-6.72-15.18-15.01v-45.72c0-8.29,6.8-15.01,15.18-15.01h46.26M406.61,107.95h-46.26c-10.49,0-19.02,8.43-19.02,18.8v45.72c0,10.36,8.53,18.8,19.02,18.8h46.26c10.49,0,19.02-8.43,19.02-18.8v-45.72c0-10.36-8.53-18.8-19.02-18.8h0Z"/>
      </g>
      <g>
        <path class="cls-7" d="M366,171.93v1.36h2.2v1.4h-2.2v3.05h-1.46v-7.23h5.23v1.42h-3.77Z"/>
        <path class="cls-7" d="M371.6,171.87c-.45,0-.82-.37-.82-.82s.38-.81.82-.81.82.37.82.81-.38.82-.82.82ZM370.88,177.74v-5.42h1.44v5.42h-1.44Z"/>
        <path class="cls-7" d="M376.98,173.98c-.23-.21-.51-.35-.84-.35-.56,0-.93.24-.93,1.18v2.93h-1.44v-5.42h1.44v.36c.25-.26.62-.47,1.13-.47.47,0,.82.19,1.01.38l-.38,1.39Z"/>
        <path class="cls-7" d="M382.53,175.49h-3.28c.05.74.61,1.02,1.13,1.02.4,0,.73-.14.94-.38l1.02.85c-.44.56-1.23.88-1.96.88-1.58,0-2.58-1.1-2.58-2.82s1.06-2.83,2.44-2.83c1.46,0,2.31,1.28,2.31,2.83,0,.21-.01.35-.02.45ZM380.17,173.44c-.52,0-.85.42-.9.97h1.88c-.04-.48-.33-.97-.98-.97Z"/>
        <path class="cls-7" d="M390.16,177.74h-1.43l-.9-3.72c-.1-.43-.21-.97-.25-1.24-.03.27-.14.82-.24,1.24l-.92,3.72h-1.37l-1.53-7.23h1.53l.64,3.52c.06.35.15.89.18,1.19.05-.3.17-.84.25-1.19l.86-3.52h1.27l.87,3.52c.08.35.2.89.25,1.19.03-.3.11-.85.18-1.19l.64-3.52h1.5l-1.52,7.23Z"/>
        <path class="cls-7" d="M395.4,177.74v-.36c-.26.27-.72.47-1.23.47-1.02,0-2.05-.62-2.05-1.93,0-1.2.98-1.8,2.22-1.8.5,0,.82.1,1.06.22v-.27c0-.38-.26-.69-.78-.69-.66,0-1,.09-1.5.36l-.55-.99c.64-.36,1.17-.55,2.06-.55,1.33,0,2.22.68,2.22,1.9v3.63h-1.44ZM395.4,175.47c-.25-.15-.49-.23-1-.23-.54,0-.84.25-.84.68,0,.38.22.72.84.72.47,0,.85-.24,1-.5v-.68Z"/>
        <path class="cls-7" d="M398.24,177.74v-6.81l1.44-.71v7.53h-1.44Z"/>
        <path class="cls-7" d="M401.18,177.74v-6.81l1.44-.71v7.53h-1.44Z"/>
      </g>
      <path class="cls-4" d="M399.55,130.82c0,1.96-.03,3.93-.16,5.85-.76,11.14-5.96,19.13-15.9,24.43-8.83-4.66-13.92-11.56-15.52-21.08-.36-2.1-.44-4.34-.5-6.46-.06-2.27-.05-4.6-.03-6.85,0-.62.01-1.24.01-1.86,1.04-.08,2.11-.18,3.16-.3,4.59-.53,8.9-1.67,12.82-3.39,4.72,2.23,9.88,3.53,15.77,3.99.1.01.21.02.32.02,0,.84.01,1.67.02,2.51.01,1.04.02,2.09.02,3.14Z"/>
      <path class="cls-7" d="M404.08,127.64c-.02-1.35-.03-2.7-.02-4.04,0-.35-.06-.63-.09-.81l-.02-.07c-.16-1.04-1.03-1.82-2.09-1.89l-.73-.04c-.53-.03-1.06-.07-1.58-.11-5.48-.43-10.24-1.65-14.54-3.74-1.02-.5-2.03-.51-3.07-.04-3.61,1.62-7.6,2.7-11.88,3.19-1.13.13-2.25.23-3.45.33-.55.04-1.1.09-1.66.14-1.17.11-2.07,1.08-2.07,2.23v.91c0,.99,0,1.99-.01,2.99-.01,2.28-.02,4.65.04,6.99.06,2.27.15,4.69.56,7.08,1.83,10.85,7.85,19.03,17.9,24.31.72.38,1.42.57,2.12.57s1.37-.18,2.07-.55c11.32-6,17.5-15.46,18.36-28.12.21-3.13.18-6.28.15-9.33ZM399.39,136.67c-.76,11.14-5.96,19.13-15.9,24.43-8.83-4.66-13.92-11.56-15.52-21.08-.36-2.1-.44-4.34-.5-6.46-.06-2.27-.05-4.6-.03-6.85,0-.62.01-1.24.01-1.86,1.04-.08,2.11-.18,3.16-.3,4.59-.53,8.9-1.67,12.82-3.39,4.72,2.23,9.88,3.53,15.77,3.99.1.01.21.02.32.02,0,.84.01,1.67.02,2.51.01,1.04.02,2.09.02,3.14,0,1.96-.03,3.93-.16,5.85Z"/>
      <path class="cls-9" d="M391.37,138.09c-.27-.46-.58-.92-.93-1.36-.26-.32-.53-.64-.9-.94.04.3.08.53.1.77,0,.02,0,.04,0,.05.06.72.08,1.43-.14,2.12-.07.23-.17.46-.31.67-.33.57-.83.89-1.51.82-.7-.07-1.01-.55-1.19-1.15-.01-.02-.02-.05-.03-.07-.2-.7-.17-1.42-.09-2.14.14-1.2-.01-2.34-.39-3.44-.18-.54-.43-1.07-.73-1.59-.83-1.45-1.91-2.72-3.06-3.93-.09-.06-.12-.09-.21-.14-.02-.01-.11-.05-.12-.07,0,0,.49,3.33-3.16,7.33-.48.39-.93.84-1.35,1.33-.3.34-.58.7-.84,1.08h0c-1.4,2.01-2.27,4.42-2.27,6.6,0,4.32,3.25,7.61,7.42,8.32,0,0,.02,0,.04,0,1.81.48,3.46-.02,3.46-.02,0,0,.01,0,.04-.01h0c1.25-.24,2.43-.71,3.46-1.4,0,0,0-.01.01-.01,1.36-.86,2.44-2.06,3.13-3.67,0-.01.01-.03.01-.04.32-.69.55-1.43.69-2.23.48-2.42.11-4.73-1.16-6.88ZM390.09,147.78c-.39.95-.96,1.78-1.72,2.48-.6.55-1.22,1.09-2.07,1.26.14-.18.29-.35.45-.52.81-.91,1.07-1.98.92-3.17-.17-1.43-.99-2.5-1.91-3.54-.64-.73-1.25-1.5-1.61-2.43-.14-.36-.18-.73-.24-1.1-.04-.18-.09-.17-.2-.06-.82.84-1.38,1.79-1.47,2.99-.05.69.19,1.34.14,2.02-.05.58-.6,1.05-1.15.91-.36-.08-.71-.59-.77-1.06-.03-.29-.07-.58-.04-.88-.35.41-.64.82-.83,1.29-.35.85-.48,1.74-.36,2.63.1.73.33,1.44.76,2.07.26.36.58.65.87.98,0,0,.02.01.03.01-.04,0-.06-.01-.09-.03-.02,0-.04,0-.06-.01-.01,0-.02,0-.03,0h-.01c-.06-.01-.11-.03-.16-.05-.31-.12-.58-.3-.87-.46-.99-.58-1.76-1.39-2.35-2.35-.44-.73-.67-1.55-.8-2.38-.16-1.03,0-2.02.28-2.99.27-.92.73-1.77,1.27-2.57.41-.6.87-1.17,1.33-1.73.68-.81,1.4-1.6,2.05-2.43.6-.78,1.14-1.6,1.56-2.49.04-.09.06-.21.16-.22.11-.01.14.11.19.18.43.56.82,1.14,1.09,1.78.28.66.42,1.36.44,2.07.01.38,0,.76.03,1.14.01.44.08.87.23,1.31.44,1.17,1.44,1.94,2.72,1.9.74-.02,1.36-.34,1.9-.82.36-.33.34-.34.5.11.34,1.05.52,2.12.48,3.23-.04,1.03-.26,2.02-.66,2.97Z"/>
      <path class="cls-7" d="M386.3,151.52c.14-.18.29-.35.45-.52.81-.91,1.07-1.98.92-3.17-.17-1.43-.99-2.5-1.91-3.54-.64-.73-1.25-1.5-1.61-2.43-.14-.36-.18-.73-.24-1.1-.04-.18-.09-.17-.2-.06-.82.84-1.38,1.79-1.47,2.99-.05.69.19,1.34.14,2.02-.05.58-.6,1.05-1.15.91-.36-.08-.71-.59-.77-1.06-.03-.29-.07-.58-.04-.88-.35.41-.64.82-.83,1.29-.35.85-.48,1.74-.36,2.63.1.73.33,1.44.76,2.07.26.36.58.65.87.98,0,0,.02.01.03.01-.04,0-.06-.01-.09-.03-.02,0-.04,0-.06-.01-.01,0-.02,0-.03,0h-.01c-.06-.01-.11-.03-.16-.05-.31-.12-.58-.3-.87-.46-.99-.58-1.76-1.39-2.35-2.35-.44-.73-.67-1.55-.8-2.38-.16-1.03,0-2.02.28-2.99.27-.92.73-1.77,1.27-2.57.41-.6.87-1.17,1.33-1.73.68-.81,1.4-1.6,2.05-2.43.6-.78,1.14-1.6,1.56-2.49.04-.09.06-.21.16-.22.11-.01.14.11.19.18.43.56.82,1.14,1.09,1.78.28.66.42,1.36.44,2.07.01.38,0,.76.03,1.14.01.44.08.87.23,1.31.44,1.17,1.44,1.94,2.72,1.9.74-.02,1.36-.34,1.9-.82.36-.33.34-.34.5.11.34,1.05.52,2.12.48,3.23-.04,1.03-.26,2.02-.66,2.97-.39.95-.96,1.78-1.72,2.48-.6.55-1.22,1.09-2.07,1.26Z"/>
    </g>
    <g>
      <g>
        <g>
          <path class="cls-3" d="M359.93,304.84c-9.44,0-17.13-7.58-17.13-16.9v-42.32c0-9.32,7.68-16.9,17.13-16.9h46.32c9.44,0,17.13,7.58,17.13,16.9v42.32c0,9.32-7.68,16.9-17.13,16.9h-46.32Z"/>
          <path class="cls-9" d="M406.24,230.6c8.4,0,15.21,6.72,15.21,15.01v42.32c0,8.29-6.81,15.01-15.21,15.01h-46.32c-8.4,0-15.21-6.72-15.21-15.01v-42.32c0-8.29,6.81-15.01,15.21-15.01h46.32M406.24,226.81h-46.32c-10.5,0-19.04,8.43-19.04,18.8v42.32c0,10.37,8.54,18.8,19.04,18.8h46.32c10.5,0,19.04-8.43,19.04-18.8v-42.32c0-10.37-8.54-18.8-19.04-18.8h0Z"/>
        </g>
        <path class="cls-2" d="M358.95,247.43c-.68,0-1.29-.15-1.83-.45s-.97-.74-1.28-1.33c-.32-.58-.47-1.27-.47-2.1s.15-1.53.47-2.11.74-1.02,1.28-1.33,1.15-.45,1.83-.45,1.29.15,1.83.45c.54.3.97.74,1.28,1.33.32.58.47,1.29.47,2.11s-.15,1.53-.47,2.1c-.31.58-.74,1.02-1.28,1.33-.54.3-1.15.45-1.83.45ZM358.95,246.01c.4,0,.74-.09,1.02-.28.29-.19.51-.47.68-.83.15-.37.24-.82.24-1.35s-.08-.98-.24-1.35c-.15-.37-.38-.64-.68-.83s-.64-.28-1.02-.28-.73.1-1.02.28c-.29.19-.51.47-.68.83s-.24.82-.24,1.35.08.98.24,1.35c.17.37.38.64.68.83s.63.28,1.02.28Z"/>
        <path class="cls-2" d="M364.99,239.78v7.55h-1.61v-7.55h1.61Z"/>
        <path class="cls-2" d="M367.29,247.32h-1.73l2.63-7.55h2.08l2.63,7.55h-1.73l-1.92-5.83h-.06l-1.92,5.83ZM367.19,244.36h4.09v1.25h-4.09v-1.25Z"/>
        <path class="cls-2" d="M375.05,244.06v3.27h-1.59v-5.67h1.56v1.01h.05c.13-.33.33-.59.63-.8.28-.19.64-.29,1.06-.29.4,0,.74.09,1.04.27s.52.42.69.73c.17.32.24.69.24,1.14v3.6h-1.59v-3.32c0-.34-.09-.62-.27-.81-.18-.2-.43-.29-.75-.29-.22,0-.4.05-.56.14-.17.09-.29.23-.38.4s-.14.38-.14.62h.01Z"/>
        <path class="cls-2" d="M381.32,247.43c-.36,0-.69-.06-.97-.19-.29-.13-.51-.32-.68-.57s-.24-.56-.24-.93c0-.32.06-.58.18-.8s.28-.38.47-.52c.2-.13.43-.23.69-.3.26-.06.52-.11.82-.14.33-.03.6-.06.81-.09s.35-.08.45-.14c.09-.06.14-.15.14-.27v-.03c0-.23-.08-.42-.22-.54-.15-.13-.36-.19-.63-.19s-.51.06-.68.19c-.17.13-.28.28-.33.47l-1.47-.11c.08-.34.22-.64.45-.9.22-.25.5-.44.84-.58s.75-.2,1.21-.2c.32,0,.63.04.91.11.29.08.55.19.78.34s.41.35.54.59c.13.24.2.53.2.87v3.82h-1.51v-.8h-.04c-.09.18-.22.34-.37.47-.15.14-.33.24-.55.32s-.46.11-.75.11h-.05ZM381.78,246.34c.23,0,.43-.05.61-.14s.32-.21.42-.38c.1-.15.15-.33.15-.53v-.61s-.12.06-.2.09-.18.05-.29.08c-.1.03-.22.04-.32.05s-.2.03-.28.04c-.19.03-.36.08-.5.13-.14.06-.24.14-.32.24-.08.1-.12.23-.12.37,0,.21.08.38.23.49s.36.16.6.16h.01Z"/>
        <path class="cls-2" d="M387.06,239.78v7.55h-1.59v-7.55h1.59Z"/>
        <path class="cls-2" d="M388.97,249.45c-.2,0-.4,0-.56-.04-.18-.03-.32-.08-.43-.11l.36-1.17h.05c.27.09.5.1.69.06.19-.04.33-.19.43-.45l.09-.24-2.06-5.83h1.68l1.19,4.17h.06l1.2-4.17h1.68l-2.23,6.27c-.1.3-.26.57-.43.8s-.41.4-.69.53-.61.19-1.01.19h-.01Z"/>
        <path class="cls-2" d="M396.86,241.66v1.19h-3.45v-1.19h3.45ZM394.18,240.31h1.59v5.28c0,.19.04.33.13.42s.22.14.41.14c.06,0,.13,0,.2-.01.08,0,.14-.03.19-.04l.26,1.17c-.18.05-.35.09-.51.11s-.32.04-.49.04c-.58,0-1.01-.14-1.33-.43-.31-.28-.47-.68-.47-1.2v-5.48h.03Z"/>
        <path class="cls-2" d="M398.34,240.94c-.23,0-.43-.08-.6-.23s-.26-.34-.26-.57.09-.4.26-.56.37-.23.6-.23.45.08.61.23.26.34.26.56-.09.4-.26.57c-.17.15-.37.23-.61.23ZM397.55,247.32v-5.67h1.59v5.67h-1.59Z"/>
        <path class="cls-2" d="M402.65,247.44c-.59,0-1.09-.13-1.51-.37-.42-.25-.74-.59-.97-1.02-.23-.44-.35-.95-.35-1.51s.12-1.09.35-1.53.55-.78.97-1.04.92-.37,1.51-.37c.5,0,.93.09,1.32.27s.68.43.9.76c.22.33.35.71.36,1.15h-1.5c-.03-.19-.09-.35-.18-.49s-.2-.25-.36-.33-.32-.11-.51-.11c-.24,0-.46.06-.64.19-.18.13-.32.32-.42.57s-.15.56-.15.91.05.67.15.92c.1.25.24.45.42.59.18.14.4.2.64.2.27,0,.5-.09.69-.25s.31-.4.35-.71h1.5c-.03.43-.14.81-.36,1.15-.22.33-.51.58-.88.77-.37.19-.82.28-1.33.28v-.03Z"/>
        <path class="cls-2" d="M410.67,243.27l-1.46.09c-.04-.18-.14-.33-.31-.47-.17-.13-.38-.19-.67-.19-.24,0-.45.05-.61.15s-.24.24-.24.4c0,.14.05.25.17.34.1.1.29.18.56.23l1.04.2c.56.11.97.29,1.25.54.27.25.41.58.41.98,0,.38-.12.71-.33.98s-.52.49-.91.66c-.38.15-.82.24-1.32.24-.75,0-1.37-.15-1.82-.47s-.72-.74-.79-1.27l1.56-.08c.05.23.17.4.35.52s.41.18.7.18.5-.05.68-.16.26-.24.26-.42c0-.28-.24-.47-.74-.57l-.98-.2c-.56-.11-.97-.3-1.25-.57-.27-.27-.41-.62-.41-1.04,0-.37.1-.68.31-.95s.49-.47.84-.61c.37-.14.79-.21,1.28-.21.73,0,1.29.15,1.71.45s.65.72.73,1.24h0Z"/>
      </g>
      <g>
        <rect class="cls-3" x="342.73" y="286.37" width="80.7" height="81.84" rx="16.25" ry="16.25"/>
        <path class="cls-9" d="M407.19,288.26c7.91,0,14.35,6.44,14.35,14.35v49.35c0,7.91-6.44,14.35-14.35,14.35h-48.21c-7.91,0-14.35-6.44-14.35-14.35v-49.35c0-7.91,6.44-14.35,14.35-14.35h48.21M407.19,284.47h-48.21c-10,0-18.14,8.14-18.14,18.14v49.35c0,10,8.14,18.14,18.14,18.14h48.21c10,0,18.14-8.14,18.14-18.14v-49.35c0-10-8.14-18.14-18.14-18.14h0Z"/>
      </g>
      <g>
        <g>
          <path class="cls-3" d="M359.9,339.2c-9.46,0-17.15-7.58-17.15-16.9v-45.72c0-9.32,7.69-16.9,17.15-16.9h46.37c9.46,0,17.15,7.58,17.15,16.9v45.72c0,9.32-7.69,16.9-17.15,16.9h-46.37Z"/>
          <path class="cls-9" d="M406.27,261.57c8.41,0,15.23,6.72,15.23,15.01v45.72c0,8.29-6.82,15.01-15.23,15.01h-46.37c-8.41,0-15.23-6.72-15.23-15.01v-45.72c0-8.29,6.82-15.01,15.23-15.01h46.37M406.27,257.78h-46.37c-10.51,0-19.07,8.43-19.07,18.8v45.72c0,10.37,8.55,18.8,19.07,18.8h46.37c10.51,0,19.07-8.43,19.07-18.8v-45.72c0-10.37-8.55-18.8-19.07-18.8h0Z"/>
        </g>
        <path class="cls-9" d="M369.81,295.09h19.25c.48,0,.86-.38.86-.85s-.39-.85-.86-.85h-4.09v-4.84l2,1.95c.34.33.89.33,1.22,0,.34-.33.33-.87,0-1.21h0l-3.49-3.41c-.34-.33-.88-.33-1.22,0l-3.49,3.45c-.34.33-.34.87,0,1.21.34.33.89.33,1.22,0l2.04-2.01v4.86h-6.92v-9.11l2,1.95c.33.34.88.35,1.22.03s.36-.87.03-1.21c-.01-.01-.02-.02-.03-.03l-3.49-3.41c-.34-.33-.88-.33-1.22,0l-3.5,3.45c-.34.33-.34.87,0,1.21s.89.33,1.22,0l2.03-2.01v9.13h-4.77c-.48,0-.86.38-.86.85s.39.85.86.85Z"/>
        <path class="cls-9" d="M389.06,296.36h-19.25c-.48,0-.86.38-.86.85s.39.85.86.85h19.25c.48,0,.86-.38.86-.85s-.39-.85-.86-.85Z"/>
        <path class="cls-1" d="M379.43,275.96c8.34,0,15.11,6.67,15.11,14.89,0,8.22-6.76,14.89-15.1,14.89-8.34,0-15.11-6.67-15.11-14.89,0,0,0,0,0,0,0-8.22,6.77-14.88,15.1-14.89M379.43,271.72c-10.72,0-19.4,8.56-19.4,19.13s8.69,19.13,19.4,19.13,19.4-8.56,19.4-19.13h0c0-10.56-8.68-19.13-19.4-19.13,0,0,0,0,0,0Z"/>
        <rect class="cls-1" x="401.98" y="279.63" width="4.16" height="30.3"/>
        <rect class="cls-1" x="401.98" y="271.68" width="4.16" height="3.85"/>
        <g>
          <path class="cls-7" d="M375.53,322.77c0,.82-.16,1.51-.47,2.09-.31.57-.74,1.01-1.28,1.31-.54.3-1.14.45-1.82.45s-1.28-.15-1.82-.45c-.54-.3-.96-.74-1.27-1.32-.31-.57-.47-1.27-.47-2.09s.16-1.51.47-2.09c.31-.57.74-1.01,1.27-1.31s1.15-.45,1.82-.45,1.28.15,1.82.45c.54.3.97.74,1.28,1.31.31.57.47,1.27.47,2.09ZM373.89,322.77c0-.53-.08-.98-.24-1.34-.16-.36-.38-.64-.67-.83-.29-.19-.63-.28-1.02-.28s-.73.09-1.02.28c-.29.19-.52.46-.68.83-.16.36-.24.81-.24,1.34s.08.98.24,1.34c.16.36.39.64.68.83.29.19.63.28,1.02.28s.73-.09,1.02-.28c.29-.19.52-.46.67-.83.16-.36.24-.81.24-1.34Z"/>
          <path class="cls-7" d="M378.33,319.02v7.51h-1.61v-7.51h1.61Z"/>
          <path class="cls-7" d="M379.65,326.53v-7.51h3.05c.56,0,1.03.08,1.4.25.37.16.66.39.84.68s.28.62.28,1c0,.29-.06.55-.18.77-.12.22-.28.4-.49.54s-.44.24-.71.3v.07c.29.01.56.09.82.24s.46.36.62.62.24.59.24.95c0,.4-.1.75-.3,1.07s-.49.56-.88.74c-.39.18-.87.27-1.44.27h-3.25ZM381.26,322.16h1.19c.22,0,.42-.04.59-.12.17-.08.31-.19.41-.33.1-.14.15-.31.15-.51,0-.27-.1-.49-.29-.66-.2-.17-.47-.25-.83-.25h-1.22v1.86ZM381.26,325.23h1.31c.45,0,.78-.08.98-.25s.31-.4.31-.68c0-.21-.05-.39-.15-.55-.1-.16-.25-.28-.43-.37s-.41-.14-.67-.14h-1.35v1.99Z"/>
          <path class="cls-7" d="M390.2,324.13v-3.23h1.58v5.63h-1.52v-1.02h-.06c-.13.33-.34.6-.64.8-.3.2-.66.3-1.09.3-.38,0-.72-.09-1.01-.26-.29-.17-.52-.41-.68-.73-.16-.32-.24-.69-.25-1.13v-3.58h1.58v3.31c0,.33.09.6.27.79.18.19.42.29.72.29.19,0,.37-.04.54-.13.17-.09.3-.22.4-.39.1-.17.15-.38.15-.63Z"/>
          <path class="cls-7" d="M397.8,322.5l-1.45.09c-.02-.12-.08-.23-.16-.33-.08-.1-.19-.18-.32-.24-.13-.06-.29-.09-.47-.09-.25,0-.45.05-.62.15s-.25.24-.25.41c0,.13.05.25.16.34.11.09.3.17.56.22l1.03.21c.56.11.97.29,1.24.54s.41.58.41.98c0,.37-.11.69-.33.97s-.52.5-.9.65c-.38.16-.82.23-1.31.23-.76,0-1.36-.16-1.8-.47-.45-.31-.71-.74-.79-1.27l1.56-.08c.05.23.16.4.34.52s.41.18.7.18.5-.05.67-.16c.17-.11.26-.24.26-.41,0-.14-.06-.26-.18-.35-.12-.09-.3-.16-.55-.21l-.99-.19c-.56-.11-.97-.3-1.24-.57-.27-.27-.41-.62-.41-1.04,0-.36.1-.67.3-.93s.48-.46.84-.61.79-.21,1.28-.21c.72,0,1.29.15,1.7.45.42.3.66.71.73,1.23Z"/>
        </g>
      </g>
    </g>
    <g>
      <path class="cls-9" d="M672.33,484.55v4.01h-2.34v-11.38h4.44c.85,0,1.61.16,2.25.47s1.15.76,1.5,1.33c.35.58.52,1.23.52,1.96,0,1.11-.38,1.99-1.14,2.64-.76.64-1.82.96-3.17.96h-2.05ZM672.33,482.65h2.09c.62,0,1.09-.15,1.42-.44.33-.29.49-.71.49-1.25s-.16-1.01-.49-1.35-.78-.52-1.36-.53h-2.15v3.57Z"/>
      <path class="cls-9" d="M679.7,484.25c0-.84.16-1.59.48-2.24.32-.66.79-1.16,1.39-1.52.61-.36,1.31-.54,2.11-.54,1.14,0,2.07.35,2.79,1.05.72.7,1.12,1.65,1.21,2.84l.02.58c0,1.3-.36,2.34-1.09,3.12-.72.78-1.7,1.18-2.91,1.18s-2.19-.39-2.92-1.17-1.09-1.84-1.09-3.19v-.1ZM681.96,484.41c0,.8.15,1.42.45,1.84.3.42.73.64,1.3.64s.97-.21,1.28-.63c.31-.42.46-1.09.46-2.01,0-.79-.15-1.4-.46-1.83-.31-.43-.74-.65-1.3-.65s-.98.21-1.28.65c-.3.43-.45,1.1-.45,2Z"/>
      <path class="cls-9" d="M693.85,482.22c-.31-.04-.58-.06-.81-.06-.85,0-1.41.29-1.68.87v5.53h-2.26v-8.45h2.13l.06,1.01c.45-.78,1.08-1.16,1.88-1.16.25,0,.48.03.7.1l-.03,2.17Z"/>
      <path class="cls-9" d="M698.03,478.03v2.08h1.45v1.66h-1.45v4.22c0,.31.06.54.18.67.12.14.35.2.69.2.25,0,.47-.02.66-.05v1.71c-.44.14-.9.2-1.37.2-1.58,0-2.39-.8-2.42-2.4v-4.55h-1.23v-1.66h1.23v-2.08h2.26Z"/>
      <path class="cls-9" d="M700.85,481.05c0-.36.12-.65.36-.88s.55-.34.91-.34.68.11.92.34.36.52.36.88-.12.64-.36.86c-.24.22-.55.33-.92.33s-.67-.11-.91-.33c-.24-.22-.36-.51-.36-.86ZM700.85,487.45c0-.36.12-.65.36-.88s.55-.34.91-.34.68.11.92.34.36.52.36.88-.12.64-.36.86c-.24.22-.55.33-.92.33s-.67-.11-.91-.33c-.24-.22-.36-.51-.36-.86Z"/>
    </g>
    <g>
      <path class="cls-9" d="M565.84,488.75h-2.34l-4.56-7.48v7.48h-2.34v-11.38h2.34l4.57,7.5v-7.5h2.34v11.38Z"/>
      <path class="cls-9" d="M571.63,488.91c-1.24,0-2.25-.38-3.03-1.14-.78-.76-1.17-1.77-1.17-3.04v-.22c0-.85.16-1.61.49-2.28s.79-1.18,1.39-1.55,1.29-.54,2.06-.54c1.16,0,2.07.36,2.73,1.09s1,1.76,1,3.1v.92h-5.38c.07.55.29,1,.66,1.33s.83.5,1.39.5c.87,0,1.55-.32,2.04-.95l1.11,1.24c-.34.48-.8.85-1.38,1.12s-1.22.4-1.92.4ZM571.37,481.96c-.45,0-.81.15-1.09.46-.28.3-.46.74-.54,1.3h3.14v-.18c-.01-.5-.15-.89-.41-1.17-.26-.27-.63-.41-1.11-.41Z"/>
      <path class="cls-9" d="M579.09,478.22v2.08h1.45v1.66h-1.45v4.22c0,.31.06.54.18.67.12.14.35.2.69.2.25,0,.47-.02.66-.05v1.71c-.44.14-.9.2-1.37.2-1.58,0-2.39-.8-2.42-2.4v-4.55h-1.23v-1.66h1.23v-2.08h2.26Z"/>
      <path class="cls-9" d="M584.43,488.75h-2.34v-11.38h2.34v11.38Z"/>
      <path class="cls-9" d="M586.6,488.75v-11.38h3.5c1,0,1.89.23,2.68.68s1.4,1.09,1.85,1.92c.44.83.66,1.77.66,2.83v.52c0,1.06-.22,2-.65,2.82-.44.82-1.05,1.46-1.84,1.91-.79.45-1.69.68-2.68.69h-3.52ZM588.95,479.28v7.59h1.13c.92,0,1.62-.3,2.1-.9s.73-1.46.74-2.57v-.6c0-1.16-.24-2.03-.72-2.63-.48-.6-1.18-.89-2.1-.89h-1.16Z"/>
      <path class="cls-9" d="M596.96,481.25c0-.36.12-.65.36-.88s.55-.34.91-.34.68.11.92.34.36.52.36.88-.12.64-.36.86c-.24.22-.55.33-.92.33s-.67-.11-.91-.33c-.24-.22-.36-.51-.36-.86ZM596.96,487.64c0-.36.12-.65.36-.88s.55-.34.91-.34.68.11.92.34.36.52.36.88-.12.64-.36.86c-.24.22-.55.33-.92.33s-.67-.11-.91-.33c-.24-.22-.36-.51-.36-.86Z"/>
    </g>
    <g>
      <path class="cls-6" d="M556.69,503.95v-.86h2.4v-7.07l-2.38,1.78v-1.09l2.04-1.51h1.28v7.9h1.98v.86h-5.33Z"/>
      <path class="cls-6" d="M563.84,503.95v-.88l2.98-3.18c.42-.43.72-.84.9-1.21s.28-.74.28-1.1c0-.5-.15-.91-.44-1.21s-.7-.46-1.2-.46-.92.16-1.23.47c-.31.31-.46.72-.46,1.24h-.95c.02-.78.26-1.39.74-1.85.48-.46,1.11-.69,1.9-.69s1.43.23,1.9.68.71,1.07.71,1.84c0,.43-.12.88-.35,1.36-.23.47-.61.98-1.13,1.54l-2.5,2.6h4.08v.86h-5.23Z"/>
      <path class="cls-6" d="M572.31,503.95l3.17-7.9h-3.55v1.54h-.95v-2.4h5.51v.9l-3.14,7.86h-1.03Z"/>
      <path class="cls-6" d="M580.77,504.07c-.29,0-.52-.09-.7-.26-.18-.17-.26-.4-.26-.68s.09-.51.26-.69c.18-.18.41-.27.7-.27s.52.09.7.27.26.41.26.69-.09.51-.26.68-.41.26-.7.26Z"/>
      <path class="cls-6" d="M587.97,504.07c-.79,0-1.42-.23-1.89-.7-.47-.47-.7-1.09-.7-1.88v-3.84c0-.78.23-1.41.7-1.88.47-.47,1.1-.7,1.89-.7s1.43.23,1.9.7c.46.47.7,1.09.7,1.88v3.84c0,.78-.23,1.41-.7,1.88-.47.47-1.1.7-1.89.7ZM587.97,503.25c.5,0,.91-.16,1.21-.49.3-.32.46-.75.46-1.28v-3.84c0-.53-.15-.95-.46-1.28-.3-.32-.71-.49-1.21-.49s-.91.16-1.21.49c-.3.32-.46.75-.46,1.28v3.84c0,.53.15.95.46,1.28.3.32.71.49,1.21.49ZM587.97,500.19c-.21,0-.37-.06-.5-.17s-.19-.28-.19-.49.06-.37.19-.47c.12-.11.29-.16.5-.16s.37.05.5.16c.12.11.19.27.19.47s-.06.37-.19.49c-.12.12-.29.17-.5.17Z"/>
      <path class="cls-6" d="M595.17,504.07c-.29,0-.52-.09-.7-.26-.18-.17-.26-.4-.26-.68s.09-.51.26-.69c.18-.18.41-.27.7-.27s.52.09.7.27.26.41.26.69-.09.51-.26.68-.41.26-.7.26Z"/>
      <path class="cls-6" d="M602.37,504.07c-.79,0-1.42-.23-1.89-.7-.47-.47-.7-1.09-.7-1.88v-3.84c0-.78.23-1.41.7-1.88.47-.47,1.1-.7,1.89-.7s1.43.23,1.9.7c.46.47.7,1.09.7,1.88v3.84c0,.78-.23,1.41-.7,1.88-.47.47-1.1.7-1.89.7ZM602.37,503.25c.5,0,.91-.16,1.21-.49.3-.32.46-.75.46-1.28v-3.84c0-.53-.15-.95-.46-1.28-.3-.32-.71-.49-1.21-.49s-.91.16-1.21.49c-.3.32-.46.75-.46,1.28v3.84c0,.53.15.95.46,1.28.3.32.71.49,1.21.49ZM602.37,500.19c-.21,0-.37-.06-.5-.17s-.19-.28-.19-.49.06-.37.19-.47c.12-.11.29-.16.5-.16s.37.05.5.16c.12.11.19.27.19.47s-.06.37-.19.49c-.12.12-.29.17-.5.17Z"/>
      <path class="cls-6" d="M609.57,504.07c-.29,0-.52-.09-.7-.26-.18-.17-.26-.4-.26-.68s.09-.51.26-.69c.18-.18.41-.27.7-.27s.52.09.7.27.26.41.26.69-.09.51-.26.68-.41.26-.7.26Z"/>
      <path class="cls-6" d="M614.29,503.95v-.86h2.4v-7.07l-2.38,1.78v-1.09l2.04-1.51h1.28v7.9h1.98v.86h-5.33Z"/>
      <path class="cls-6" d="M623.97,504.07c-.29,0-.52-.09-.7-.26-.18-.17-.26-.4-.26-.68s.09-.51.26-.69c.18-.18.41-.27.7-.27s.52.09.7.27.26.41.26.69-.09.51-.26.68-.41.26-.7.26Z"/>
      <path class="cls-6" d="M628.69,503.95v-.86h2.4v-7.07l-2.38,1.78v-1.09l2.04-1.51h1.28v7.9h1.98v.86h-5.33Z"/>
      <path class="cls-6" d="M638.37,504.07c-.29,0-.52-.09-.7-.26-.18-.17-.26-.4-.26-.68s.09-.51.26-.69c.18-.18.41-.27.7-.27s.52.09.7.27.26.41.26.69-.09.51-.26.68-.41.26-.7.26Z"/>
      <path class="cls-6" d="M643.09,503.95v-.86h2.4v-7.07l-2.38,1.78v-1.09l2.04-1.51h1.28v7.9h1.98v.86h-5.33Z"/>
    </g>
    <g>
      <path class="cls-6" d="M672.16,504.48c-.54,0-1.02-.11-1.44-.32-.42-.22-.74-.51-.97-.89s-.35-.82-.35-1.33c0-.54.16-1.02.47-1.42.32-.4.73-.65,1.25-.75v-.04c-.45-.1-.81-.33-1.08-.69-.27-.36-.41-.77-.41-1.24s.11-.86.32-1.21c.21-.35.51-.62.89-.82.38-.2.82-.29,1.31-.29s.93.1,1.31.29.68.47.89.82c.21.35.32.75.32,1.21s-.14.89-.41,1.24c-.27.36-.63.59-1.08.69v.04c.52.1.94.35,1.25.75.32.4.47.88.47,1.42,0,.5-.12.95-.35,1.33-.23.38-.56.68-.97.89s-.9.32-1.44.32ZM672.16,503.63c.54,0,.97-.16,1.3-.47.33-.32.5-.73.5-1.23s-.17-.92-.5-1.24-.77-.48-1.3-.48-.97.16-1.3.48-.5.73-.5,1.24.17.91.5,1.23c.33.32.77.47,1.3.47ZM672.16,499.37c.46,0,.84-.14,1.13-.42s.43-.65.43-1.1-.14-.81-.43-1.1c-.29-.28-.66-.43-1.13-.43s-.84.14-1.13.43c-.29.28-.43.65-.43,1.1s.14.82.43,1.1c.29.28.66.42,1.13.42Z"/>
      <path class="cls-6" d="M679.29,504.48c-.79,0-1.42-.23-1.88-.68s-.7-1.06-.7-1.83h.95c0,.51.15.92.45,1.21.3.3.7.44,1.19.44s.89-.15,1.19-.44c.3-.3.45-.7.45-1.21v-.54c0-.52-.14-.93-.43-1.23s-.68-.45-1.18-.45h-2.33v-4.15h4.6v.86h-3.71l.02,2.42h1.46c.79,0,1.41.22,1.85.67.44.44.66,1.07.66,1.88v.54c0,.77-.23,1.38-.7,1.83-.47.45-1.1.68-1.9.68Z"/>
      <path class="cls-6" d="M684.08,504.36v-.86h2.4v-7.07l-2.38,1.78v-1.09l2.04-1.51h1.28v7.9h1.98v.86h-5.33Z"/>
    </g>
    <g>
      <path class="cls-6" d="M173.23,63.96v-10.22h1.11v3.93h.01c.07-.49.29-.88.66-1.15.36-.27.83-.41,1.41-.41.77,0,1.38.24,1.83.72.46.48.69,1.13.69,1.95v5.17h-1.11v-4.98c0-.62-.15-1.09-.46-1.42-.31-.33-.73-.5-1.26-.5s-.98.17-1.3.52c-.32.34-.48.83-.48,1.44v4.94h-1.11Z"/>
      <path class="cls-6" d="M185.24,63.96c-.63,0-1.12-.17-1.48-.53-.36-.35-.55-.83-.55-1.43v-4.73h-2.23v-1.01h2.23v-2.17h1.12v2.17h3.16v1.01h-3.16v4.73c0,.3.08.53.25.7.16.17.38.25.67.25h2.18v1.01h-2.18Z"/>
      <path class="cls-6" d="M193.64,63.96c-.63,0-1.12-.17-1.48-.53-.36-.35-.55-.83-.55-1.43v-4.73h-2.23v-1.01h2.23v-2.17h1.12v2.17h3.16v1.01h-3.16v4.73c0,.3.08.53.25.7.16.17.38.25.67.25h2.18v1.01h-2.18Z"/>
      <path class="cls-6" d="M198.43,66.48v-10.22h1.11v1.4c.09-.48.33-.85.7-1.13.37-.28.84-.41,1.41-.41.77,0,1.38.25,1.84.76s.69,1.2.69,2.08v2.28c0,.88-.23,1.57-.69,2.09-.46.51-1.07.77-1.85.77-.57,0-1.04-.14-1.42-.43-.38-.28-.61-.67-.69-1.14h-.01v1.64s.01,2.31.01,2.31h-1.11ZM201.3,63.13c.56,0,1-.15,1.31-.46.31-.3.47-.78.47-1.43v-2.28c0-.64-.16-1.12-.47-1.42-.31-.3-.75-.46-1.31-.46s-.97.17-1.29.51c-.32.34-.48.81-.48,1.42v2.18c0,.61.16,1.08.48,1.42s.75.51,1.29.51Z"/>
      <path class="cls-6" d="M209.34,64.08c-.82,0-1.47-.19-1.93-.58-.47-.39-.71-.92-.73-1.6h1.12c.02.37.16.67.43.88.27.21.64.32,1.11.32h.71c.48,0,.86-.11,1.13-.33.27-.22.4-.53.4-.92,0-.36-.09-.64-.26-.86-.17-.22-.43-.35-.76-.38l-2.02-.28c-.56-.08-.99-.3-1.3-.65-.31-.35-.46-.82-.46-1.41,0-.66.23-1.19.69-1.57.46-.38,1.08-.57,1.88-.57h.66c.74,0,1.34.18,1.8.55.46.36.72.84.76,1.43h-1.12c-.04-.29-.18-.53-.44-.73s-.59-.29-1-.29h-.66c-.46,0-.82.11-1.08.32-.26.21-.39.5-.39.87,0,.6.31.94.94,1.02l1.9.27c.63.08,1.12.32,1.46.71.34.39.5.91.5,1.55,0,.71-.23,1.26-.69,1.66s-1.1.59-1.92.59h-.71Z"/>
      <path class="cls-6" d="M218.07,58.18c-.36,0-.64-.09-.83-.28-.19-.19-.29-.44-.29-.76s.1-.55.29-.74c.19-.19.47-.28.83-.28s.64.09.83.28c.19.19.29.43.29.74s-.1.57-.29.76c-.19.19-.47.28-.83.28ZM218.07,64.1c-.36,0-.64-.09-.83-.28-.19-.19-.29-.43-.29-.74s.1-.57.29-.76c.19-.19.47-.28.83-.28s.64.09.83.28c.19.19.29.44.29.76s-.1.56-.29.74c-.19.19-.47.28-.83.28Z"/>
      <path class="cls-6" d="M224.44,65.5l4.98-13.16h1.18l-4.98,13.16h-1.18ZM230.74,65.5l4.98-13.16h1.18l-4.98,13.16h-1.18Z"/>
      <path class="cls-6" d="M240.3,63.96v-1.01h2.74v-5.68h-2.45v-1.01h3.57v6.69h2.6v1.01h-6.47ZM243.48,54.84c-.29,0-.52-.07-.69-.22s-.26-.35-.26-.62.09-.49.26-.64c.17-.16.4-.24.69-.24s.52.08.69.24c.17.16.26.37.26.64s-.09.47-.26.62c-.17.15-.4.22-.69.22Z"/>
      <path class="cls-6" d="M248.83,63.96v-7.7h1.11v1.43c.08-.49.31-.88.67-1.15s.83-.41,1.42-.41c.77,0,1.38.24,1.83.72.46.48.69,1.13.69,1.95v5.17h-1.11v-4.98c0-.62-.15-1.09-.46-1.42-.31-.33-.73-.5-1.26-.5s-.98.17-1.3.52c-.32.34-.48.83-.48,1.44v4.94h-1.11Z"/>
      <path class="cls-6" d="M259.73,64.08c-.82,0-1.47-.19-1.93-.58-.47-.39-.71-.92-.73-1.6h1.12c.02.37.16.67.43.88.27.21.64.32,1.11.32h.71c.48,0,.86-.11,1.13-.33.27-.22.4-.53.4-.92,0-.36-.09-.64-.26-.86-.17-.22-.43-.35-.76-.38l-2.02-.28c-.56-.08-.99-.3-1.3-.65-.31-.35-.46-.82-.46-1.41,0-.66.23-1.19.69-1.57.46-.38,1.08-.57,1.88-.57h.66c.74,0,1.34.18,1.8.55.46.36.72.84.76,1.43h-1.12c-.04-.29-.18-.53-.44-.73s-.59-.29-1-.29h-.66c-.46,0-.82.11-1.08.32-.26.21-.39.5-.39.87,0,.6.31.94.94,1.02l1.9.27c.63.08,1.12.32,1.46.71.34.39.5.91.5,1.55,0,.71-.23,1.26-.69,1.66s-1.1.59-1.92.59h-.71Z"/>
      <path class="cls-6" d="M269.24,63.96c-.63,0-1.12-.17-1.48-.53-.36-.35-.55-.83-.55-1.43v-4.73h-2.23v-1.01h2.23v-2.17h1.12v2.17h3.16v1.01h-3.16v4.73c0,.3.08.53.25.7.16.17.38.25.67.25h2.18v1.01h-2.18Z"/>
      <path class="cls-6" d="M276.25,64.1c-.8,0-1.43-.22-1.89-.67-.46-.44-.69-1.02-.69-1.73,0-.47.1-.88.32-1.22.21-.35.5-.63.88-.83.37-.2.8-.3,1.29-.3h2.45v-.64c0-1.08-.57-1.62-1.71-1.62-.51,0-.93.1-1.24.31-.31.21-.48.48-.51.83h-1.11c.05-.61.32-1.11.83-1.5.51-.4,1.18-.59,2.02-.59.91,0,1.6.22,2.09.67s.73,1.08.73,1.89v5.28h-1.09v-1.44h-.01c-.07.49-.32.87-.73,1.16-.42.29-.95.43-1.62.43ZM276.53,63.15c.63,0,1.14-.16,1.51-.47.37-.31.56-.74.56-1.28v-1.16h-2.35c-.43,0-.78.13-1.05.4-.27.27-.41.61-.41,1.03,0,.45.15.81.46,1.08.31.27.73.41,1.27.41Z"/>
      <path class="cls-6" d="M282.43,63.96v-7.7h1.11v1.43c.08-.49.31-.88.67-1.15s.83-.41,1.42-.41c.77,0,1.38.24,1.83.72.46.48.69,1.13.69,1.95v5.17h-1.11v-4.98c0-.62-.15-1.09-.46-1.42-.31-.33-.73-.5-1.26-.5s-.98.17-1.3.52c-.32.34-.48.83-.48,1.44v4.94h-1.11Z"/>
      <path class="cls-6" d="M293.78,64.1c-.91,0-1.63-.26-2.18-.78-.55-.52-.82-1.23-.82-2.12v-2.18c0-.9.27-1.6.82-2.12.55-.52,1.27-.78,2.18-.78s1.58.24,2.12.71c.54.48.81,1.12.83,1.95h-1.12c-.02-.52-.19-.93-.52-1.23s-.77-.44-1.32-.44-1.02.17-1.37.5c-.34.33-.51.8-.51,1.41v2.18c0,.61.17,1.08.51,1.41.34.33.8.5,1.37.5s.99-.15,1.32-.44.5-.7.52-1.22h1.12c-.02.82-.3,1.47-.83,1.95-.54.48-1.24.71-2.12.71Z"/>
      <path class="cls-6" d="M302.07,64.1c-.9,0-1.61-.27-2.14-.8-.53-.54-.8-1.27-.8-2.21v-1.96c0-.93.27-1.67.8-2.21.53-.54,1.25-.8,2.14-.8s1.61.26,2.14.79c.53.53.8,1.23.8,2.11v1.37h-4.8v.81c0,.59.17,1.06.5,1.41.34.35.79.52,1.36.52.48,0,.89-.1,1.2-.3.32-.2.51-.47.57-.82h1.11c-.08.64-.39,1.15-.91,1.53-.52.37-1.18.56-1.97.56ZM300.21,59.51h3.72v-.49c0-.62-.16-1.11-.49-1.46-.33-.34-.78-.52-1.37-.52s-1.05.17-1.37.52c-.33.35-.49.83-.49,1.46v.49Z"/>
      <path class="cls-6" d="M310.47,64.1c-.34,0-.61-.1-.81-.3-.21-.2-.31-.46-.31-.79s.1-.59.31-.8c.21-.21.48-.32.81-.32s.61.11.81.32c.21.21.31.48.31.8s-.1.59-.31.79c-.21.2-.48.3-.81.3Z"/>
      <path class="cls-6" d="M318.87,64.08c-.9,0-1.61-.27-2.14-.8-.53-.53-.8-1.27-.8-2.21v-1.93c0-.94.26-1.68.79-2.21.53-.53,1.24-.8,2.15-.8s1.62.27,2.15.8c.53.53.79,1.27.79,2.21v1.93c0,.94-.27,1.68-.8,2.21-.53.53-1.25.8-2.14.8ZM318.87,63.09c.57,0,1.02-.16,1.34-.49.33-.33.49-.8.49-1.43v-2.13c0-.62-.16-1.1-.49-1.43-.33-.33-.77-.49-1.34-.49s-1.02.16-1.34.49c-.33.33-.49.8-.49,1.43v2.13c0,.63.16,1.1.49,1.43.33.33.77.49,1.34.49Z"/>
      <path class="cls-6" d="M324.3,63.96v-1.01h2.74v-5.68h-2.45v-1.01h3.57v6.69h2.6v1.01h-6.47ZM327.48,54.84c-.29,0-.52-.07-.69-.22s-.26-.35-.26-.62.09-.49.26-.64c.17-.16.4-.24.69-.24s.52.08.69.24c.17.16.26.37.26.64s-.09.47-.26.62c-.17.15-.4.22-.69.22Z"/>
      <path class="cls-6" d="M335.05,64.1c-.8,0-1.43-.22-1.89-.67-.46-.44-.69-1.02-.69-1.73,0-.47.1-.88.32-1.22.21-.35.5-.63.88-.83.37-.2.8-.3,1.29-.3h2.45v-.64c0-1.08-.57-1.62-1.71-1.62-.51,0-.93.1-1.24.31-.31.21-.48.48-.51.83h-1.11c.05-.61.32-1.11.83-1.5.51-.4,1.18-.59,2.02-.59.91,0,1.6.22,2.09.67s.73,1.08.73,1.89v5.28h-1.09v-1.44h-.01c-.07.49-.32.87-.73,1.16-.42.29-.95.43-1.62.43ZM335.33,63.15c.63,0,1.14-.16,1.51-.47.37-.31.56-.74.56-1.28v-1.16h-2.35c-.43,0-.78.13-1.05.4-.27.27-.41.61-.41,1.03,0,.45.15.81.46,1.08.31.27.73.41,1.27.41Z"/>
      <path class="cls-6" d="M341.23,63.96v-7.7h1.11v1.43c.08-.49.31-.88.67-1.15s.83-.41,1.42-.41c.77,0,1.38.24,1.83.72.46.48.69,1.13.69,1.95v5.17h-1.11v-4.98c0-.62-.15-1.09-.46-1.42-.31-.33-.73-.5-1.26-.5s-.98.17-1.3.52c-.32.34-.48.83-.48,1.44v4.94h-1.11Z"/>
      <path class="cls-6" d="M351.85,64.1c-.8,0-1.43-.22-1.89-.67-.46-.44-.69-1.02-.69-1.73,0-.47.1-.88.32-1.22.21-.35.5-.63.88-.83.37-.2.8-.3,1.29-.3h2.45v-.64c0-1.08-.57-1.62-1.71-1.62-.51,0-.93.1-1.24.31-.31.21-.48.48-.51.83h-1.11c.05-.61.32-1.11.83-1.5.51-.4,1.18-.59,2.02-.59.91,0,1.6.22,2.09.67s.73,1.08.73,1.89v5.28h-1.09v-1.44h-.01c-.07.49-.32.87-.73,1.16-.42.29-.95.43-1.62.43ZM352.13,63.15c.63,0,1.14-.16,1.51-.47.37-.31.56-.74.56-1.28v-1.16h-2.35c-.43,0-.78.13-1.05.4-.27.27-.41.61-.41,1.03,0,.45.15.81.46,1.08.31.27.73.41,1.27.41Z"/>
      <path class="cls-6" d="M361.95,63.96c-.66,0-1.19-.19-1.57-.57-.39-.38-.58-.89-.58-1.53v-7.11h-2.63v-1.01h3.74v8.12c0,.34.09.61.28.8.19.19.44.29.77.29h2.38v1.01h-2.38Z"/>
      <path class="cls-6" d="M367.65,66.48l1.13-3.01-2.87-7.21h1.2l1.85,4.8c.07.21.15.42.22.64.07.22.13.4.17.55.04-.15.09-.33.16-.55.07-.22.14-.44.22-.65l1.72-4.79h1.18l-3.84,10.22h-1.15Z"/>
      <path class="cls-6" d="M378.44,63.96c-.63,0-1.12-.17-1.48-.53-.36-.35-.55-.83-.55-1.43v-4.73h-2.23v-1.01h2.23v-2.17h1.12v2.17h3.16v1.01h-3.16v4.73c0,.3.08.53.25.7.16.17.38.25.67.25h2.18v1.01h-2.18Z"/>
      <path class="cls-6" d="M383.1,63.96v-1.01h2.74v-5.68h-2.45v-1.01h3.57v6.69h2.6v1.01h-6.47ZM386.28,54.84c-.29,0-.52-.07-.69-.22s-.26-.35-.26-.62.09-.49.26-.64c.17-.16.4-.24.69-.24s.52.08.69.24c.17.16.26.37.26.64s-.09.47-.26.62c-.17.15-.4.22-.69.22Z"/>
      <path class="cls-6" d="M394.58,64.1c-.91,0-1.63-.26-2.18-.78-.55-.52-.82-1.23-.82-2.12v-2.18c0-.9.27-1.6.82-2.12.55-.52,1.27-.78,2.18-.78s1.58.24,2.12.71c.54.48.81,1.12.83,1.95h-1.12c-.02-.52-.19-.93-.52-1.23s-.77-.44-1.32-.44-1.02.17-1.37.5c-.34.33-.51.8-.51,1.41v2.18c0,.61.17,1.08.51,1.41.34.33.8.5,1.37.5s.99-.15,1.32-.44.5-.7.52-1.22h1.12c-.02.82-.3,1.47-.83,1.95-.54.48-1.24.71-2.12.71Z"/>
      <path class="cls-6" d="M402.53,64.08c-.82,0-1.47-.19-1.93-.58-.47-.39-.71-.92-.73-1.6h1.12c.02.37.16.67.43.88.27.21.64.32,1.11.32h.71c.48,0,.86-.11,1.13-.33.27-.22.4-.53.4-.92,0-.36-.09-.64-.26-.86-.17-.22-.43-.35-.76-.38l-2.02-.28c-.56-.08-.99-.3-1.3-.65-.31-.35-.46-.82-.46-1.41,0-.66.23-1.19.69-1.57.46-.38,1.08-.57,1.88-.57h.66c.74,0,1.34.18,1.8.55.46.36.72.84.76,1.43h-1.12c-.04-.29-.18-.53-.44-.73s-.59-.29-1-.29h-.66c-.46,0-.82.11-1.08.32-.26.21-.39.5-.39.87,0,.6.31.94.94,1.02l1.9.27c.63.08,1.12.32,1.46.71.34.39.5.91.5,1.55,0,.71-.23,1.26-.69,1.66s-1.1.59-1.92.59h-.71Z"/>
      <path class="cls-6" d="M411.27,64.1c-.34,0-.61-.1-.81-.3-.21-.2-.31-.46-.31-.79s.1-.59.31-.8c.21-.21.48-.32.81-.32s.61.11.81.32c.21.21.31.48.31.8s-.1.59-.31.79c-.21.2-.48.3-.81.3Z"/>
      <path class="cls-6" d="M418.55,63.96v-5.64h-2.27v-1.01h2.27v-1.67c0-.59.18-1.05.55-1.39s.88-.51,1.52-.51h2.23v1.01h-2.23c-.63,0-.95.3-.95.9v1.67h3.18v1.01h-3.18v5.64h-1.12Z"/>
      <path class="cls-6" d="M425.51,63.96v-7.7h1.12v1.43c.08-.48.31-.87.67-1.15s.83-.42,1.41-.42c.81,0,1.43.24,1.86.72s.64,1.16.64,2.04v.67h-1.11v-.67c0-1.19-.57-1.79-1.72-1.79-.57,0-1,.17-1.3.5-.3.34-.45.81-.45,1.43v4.94h-1.12Z"/>
    </g>
    <g>
      <path class="cls-8" d="M387.2,107.93h-5v-14.26c0-6.44-5.47-11.67-12.19-11.67h-203.51v-5h203.51c9.48,0,17.19,7.48,17.19,16.67v14.26Z"/>
      <polygon class="cls-8" points="176.45 87.97 167.97 79.5 176.45 71.02 169.26 71.02 160.78 79.5 169.26 87.97 176.45 87.97"/>
    </g>
    <g>
      <path class="cls-2" d="M374.32,355.9h-1.65l2.51-7.27h1.98l2.51,7.27h-1.65l-1.82-5.61h-.06l-1.83,5.61ZM374.22,353.04h3.89v1.2h-3.89v-1.2Z"/>
      <path class="cls-2" d="M383.12,355.9h-2.58v-7.27h2.6c.73,0,1.36.14,1.89.43s.93.71,1.22,1.25c.29.54.43,1.19.43,1.95s-.14,1.41-.43,1.95c-.29.54-.69.96-1.23,1.25-.53.29-1.17.44-1.9.44ZM382.08,354.58h.98c.45,0,.84-.08,1.15-.24.31-.16.55-.41.7-.76.16-.34.24-.78.24-1.33s-.08-.98-.24-1.32c-.16-.34-.39-.59-.7-.75s-.69-.24-1.15-.24h-.98v4.64Z"/>
      <path class="cls-2" d="M391.76,350.72c-.03-.29-.15-.51-.37-.67-.22-.16-.51-.24-.88-.24-.25,0-.46.04-.64.11-.17.07-.3.17-.4.29-.09.12-.14.26-.14.42,0,.13.02.24.08.34.06.1.14.18.25.25.11.07.23.13.37.18s.29.09.45.13l.65.16c.32.07.61.17.87.28.27.12.49.26.69.44.19.17.35.38.45.61.11.23.16.5.17.81,0,.45-.12.83-.34,1.16-.22.33-.55.58-.97.76-.42.18-.93.27-1.52.27s-1.1-.09-1.53-.27c-.43-.18-.77-.45-1.02-.8-.24-.35-.37-.79-.38-1.32h1.49c.02.24.09.45.21.61.12.16.29.28.5.37s.45.12.71.12.49-.04.68-.11c.19-.08.34-.18.45-.32.11-.13.16-.29.16-.46,0-.16-.05-.3-.14-.41-.1-.11-.24-.21-.42-.28-.18-.08-.41-.15-.67-.21l-.79-.2c-.61-.15-1.1-.38-1.45-.7s-.53-.74-.53-1.28c0-.44.12-.82.35-1.15s.56-.59.98-.77c.42-.19.89-.28,1.42-.28s1.01.09,1.42.28c.4.18.72.44.94.77s.34.71.35,1.14h-1.47Z"/>
    </g>
    <g>
      <rect class="cls-8" x="380.58" y="375.81" width="5" height="61.69"/>
      <polygon class="cls-8" points="391.56 385.77 383.08 377.29 374.61 385.77 374.61 378.57 383.08 370.1 391.56 378.57 391.56 385.77"/>
    </g>
    <g>
      <rect class="cls-8" x="380.58" y="196.98" width="5" height="29.83"/>
      <polygon class="cls-8" points="391.56 206.94 383.08 198.46 374.61 206.94 374.61 199.75 383.08 191.27 391.56 199.75 391.56 206.94"/>
    </g>
    <g>
      <g>
        <path class="cls-3" d="M360.06,438.96h46.05c9.39,0,17.02,7.63,17.02,17.02v46.03c0,9.39-7.63,17.02-17.02,17.02h-46.05c-9.39,0-17.02-7.63-17.02-17.02v-46.04c0-9.39,7.63-17.02,17.02-17.02Z"/>
        <path class="cls-9" d="M406.11,440.87c8.35,0,15.11,6.77,15.11,15.11v46.04c0,8.35-6.77,15.11-15.11,15.11h-46.04c-8.35,0-15.11-6.77-15.11-15.11v-46.04c0-8.35,6.77-15.11,15.11-15.11h46.04M406.11,437.05h-46.04c-10.44,0-18.93,8.49-18.93,18.93v46.04c0,10.44,8.49,18.93,18.93,18.93h46.04c10.44,0,18.93-8.49,18.93-18.93v-46.04c0-10.44-8.49-18.93-18.93-18.93h0Z"/>
      </g>
      <g>
        <path class="cls-7" d="M376.98,504.75h-1.6v2.58h-1.46v-7.28h3.18c1.37,0,2.51.76,2.51,2.31,0,1.68-1.12,2.39-2.63,2.39ZM377.05,501.47h-1.67v1.87h1.69c.68,0,1.04-.31,1.04-.95s-.42-.92-1.06-.92Z"/>
        <path class="cls-7" d="M380.99,507.33v-7.28h1.46v5.84h3.65v1.43h-5.11Z"/>
        <path class="cls-7" d="M391.31,502.18c-.26-.5-.68-.79-1.33-.79-1.09,0-1.72.96-1.72,2.31s.63,2.31,1.73,2.31c.65,0,1.04-.28,1.42-.92l1.23.73c-.5,1.03-1.37,1.64-2.69,1.64-1.9,0-3.18-1.45-3.18-3.75s1.33-3.75,3.23-3.75c1.37,0,2.2.67,2.66,1.61l-1.35.62Z"/>
      </g>
      <rect class="cls-7" x="358.02" y="458.66" width="50.12" height="28.03" rx="1.43" ry="1.43"/>
      <rect class="cls-7" x="381.45" y="453.25" width="2.43" height="5.4" rx=".95" ry=".95"/>
      <rect class="cls-7" x="386.86" y="453.25" width="2.43" height="5.4" rx=".95" ry=".95"/>
      <rect class="cls-7" x="392.26" y="453.25" width="2.43" height="5.4" rx=".95" ry=".95"/>
      <rect class="cls-7" x="397.67" y="453.25" width="2.43" height="5.4" rx=".95" ry=".95"/>
      <rect class="cls-7" x="403.08" y="453.25" width="2.43" height="5.4" rx=".95" ry=".95"/>
      <rect class="cls-7" x="381.35" y="486.72" width="2.45" height="5.4" rx=".95" ry=".95"/>
      <rect class="cls-7" x="386.8" y="486.72" width="2.45" height="5.4" rx=".95" ry=".95"/>
      <rect class="cls-7" x="392.25" y="486.72" width="2.45" height="5.4" rx=".95" ry=".95"/>
      <rect class="cls-7" x="360.82" y="486.72" width="2.45" height="5.4" rx=".95" ry=".95"/>
      <rect class="cls-7" x="366.27" y="486.72" width="2.45" height="5.4" rx=".95" ry=".95"/>
      <rect class="cls-7" x="371.72" y="486.72" width="2.45" height="5.4" rx=".95" ry=".95"/>
      <rect class="cls-7" x="397.7" y="486.72" width="2.45" height="5.4" rx=".95" ry=".95"/>
      <path class="cls-9" d="M360.82,486.69h44.66v1.36c0,.78-.63,1.41-1.41,1.41h-43.25v-2.77h0Z"/>
      <rect class="cls-9" x="361.48" y="462.22" width="13.35" height="16.02" rx=".57" ry=".57"/>
      <rect class="cls-4" x="396.44" y="469.24" width="4.23" height="8.99" rx=".29" ry=".29"/>
      <rect class="cls-9" x="361.48" y="479.49" width="2.74" height="2.74" rx=".29" ry=".29"/>
      <rect class="cls-4" x="365.01" y="479.49" width="2.74" height="2.74" rx=".29" ry=".29"/>
      <rect class="cls-9" x="368.55" y="479.49" width="2.74" height="2.74" rx=".29" ry=".29"/>
      <rect class="cls-4" x="372.08" y="479.49" width="2.74" height="2.74" rx=".29" ry=".29"/>
      <rect class="cls-4" x="380.79" y="471.49" width="2.74" height="2.74" rx=".29" ry=".29"/>
      <rect class="cls-9" x="384.32" y="471.49" width="2.74" height="2.74" rx=".29" ry=".29"/>
      <rect class="cls-4" x="387.86" y="471.49" width="2.74" height="2.74" rx=".29" ry=".29"/>
      <rect class="cls-4" x="391.39" y="471.49" width="2.74" height="2.74" rx=".29" ry=".29"/>
      <rect class="cls-9" x="380.79" y="475.49" width="2.74" height="2.74" rx=".29" ry=".29"/>
      <rect class="cls-4" x="384.32" y="475.49" width="2.74" height="2.74" rx=".29" ry=".29"/>
      <rect class="cls-9" x="387.86" y="475.49" width="2.74" height="2.74" rx=".29" ry=".29"/>
      <rect class="cls-9" x="391.39" y="475.49" width="2.74" height="2.74" rx=".29" ry=".29"/>
      <path class="cls-4" d="M401.94,469.24h3.66v3.37c0,.16-.13.29-.29.29h-3.37v-3.66h0Z"/>
      <rect class="cls-9" x="401.94" y="474.58" width="3.66" height="3.66" rx=".29" ry=".29"/>
      <rect class="cls-4" x="402.97" y="475.6" width="1.6" height="1.6"/>
      <path class="cls-9" d="M397.49,476.84v-6.21l1.94.97c.12.06.19.18.19.31v3.64c0,.13-.08.25-.19.31l-1.94.97Z"/>
      <polygon class="cls-9" points="402.89 472.21 402.89 469.93 404.66 470.33 404.66 471.82 402.89 472.21"/>
      <g>
        <path class="cls-4" d="M381.26,468.26v-4.48h1.77c.34,0,.63.06.87.19.24.13.42.31.55.54s.19.49.19.79-.06.56-.19.79c-.13.23-.31.4-.56.53-.24.13-.54.19-.88.19h-1.13v-.76h.97c.18,0,.33-.03.45-.09.12-.06.21-.15.27-.27.06-.11.09-.24.09-.39s-.03-.28-.09-.39-.15-.2-.27-.26-.27-.09-.46-.09h-.64v3.71h-.95Z"/>
        <path class="cls-4" d="M385.26,468.26v-4.48h.95v3.7h1.92v.78h-2.87Z"/>
        <path class="cls-4" d="M392.53,465.35h-.96c-.02-.12-.05-.23-.11-.33-.05-.1-.12-.18-.21-.25-.08-.07-.18-.12-.29-.16-.11-.04-.23-.05-.36-.05-.23,0-.43.06-.61.17-.17.11-.31.28-.4.5-.09.22-.14.48-.14.79s.05.59.14.81.23.38.4.49.37.17.6.17c.13,0,.24-.02.35-.05.11-.03.21-.08.29-.15.08-.06.15-.14.21-.24s.1-.2.12-.32h.96c-.02.21-.09.41-.18.6-.1.19-.23.36-.4.51-.17.15-.36.27-.59.35s-.49.13-.77.13c-.4,0-.76-.09-1.07-.27-.31-.18-.56-.44-.74-.79-.18-.34-.27-.76-.27-1.25s.09-.9.28-1.25c.18-.34.43-.6.75-.78.32-.18.67-.27,1.06-.27.26,0,.5.04.72.11.22.07.42.18.59.32.17.14.31.31.42.51.11.2.18.43.21.69Z"/>
      </g>
      <path class="cls-9" d="M362.23,455.89h43.25v2.77h-44.66v-1.36c0-.78.63-1.41,1.41-1.41Z"/>
    </g>
    <g>
      <g>
        <path class="cls-3" d="M566.69,407.17h27.53c5.62,0,10.18,4.56,10.18,10.18v27.52c0,5.62-4.56,10.18-10.18,10.18h-27.53c-5.62,0-10.18-4.56-10.18-10.18v-27.52c0-5.62,4.56-10.18,10.18-10.18Z"/>
        <path class="cls-9" d="M594.22,408.31c4.99,0,9.04,4.05,9.04,9.04v27.53c0,4.99-4.05,9.04-9.04,9.04h-27.53c-4.99,0-9.04-4.05-9.04-9.04v-27.53c0-4.99,4.05-9.04,9.04-9.04h27.53M594.22,406.03h-27.53c-6.24,0-11.32,5.08-11.32,11.32v27.53c0,6.24,5.08,11.32,11.32,11.32h27.53c6.24,0,11.32-5.08,11.32-11.32v-27.53c0-6.24-5.08-11.32-11.32-11.32h0Z"/>
      </g>
      <g>
        <path class="cls-7" d="M576.8,446.5h-.96v1.54h-.87v-4.35h1.9c.82,0,1.5.45,1.5,1.38,0,1.01-.67,1.43-1.57,1.43ZM576.84,444.54h-1v1.12h1.01c.4,0,.62-.19.62-.57s-.25-.55-.63-.55Z"/>
        <path class="cls-7" d="M579.2,448.05v-4.35h.87v3.49h2.18v.86h-3.05Z"/>
        <path class="cls-7" d="M585.37,444.96c-.16-.3-.4-.47-.8-.47-.65,0-1.03.57-1.03,1.38s.38,1.38,1.03,1.38c.39,0,.62-.17.85-.55l.73.43c-.3.62-.82.98-1.61.98-1.14,0-1.9-.87-1.9-2.24s.8-2.24,1.93-2.24c.82,0,1.32.4,1.59.96l-.81.37Z"/>
      </g>
      <rect class="cls-7" x="565.47" y="418.94" width="29.97" height="16.76" rx="1.43" ry="1.43"/>
      <rect class="cls-7" x="579.47" y="415.71" width="1.45" height="3.23" rx=".73" ry=".73"/>
      <rect class="cls-7" x="582.71" y="415.71" width="1.45" height="3.23" rx=".73" ry=".73"/>
      <rect class="cls-7" x="585.94" y="415.71" width="1.45" height="3.23" rx=".73" ry=".73"/>
      <rect class="cls-7" x="589.17" y="415.71" width="1.45" height="3.23" rx=".73" ry=".73"/>
      <rect class="cls-7" x="592.4" y="415.71" width="1.45" height="3.23" rx=".73" ry=".73"/>
      <rect class="cls-7" x="579.42" y="435.72" width="1.46" height="3.23" rx=".73" ry=".73"/>
      <rect class="cls-7" x="582.67" y="435.72" width="1.46" height="3.23" rx=".73" ry=".73"/>
      <rect class="cls-7" x="585.93" y="435.72" width="1.46" height="3.23" rx=".73" ry=".73"/>
      <rect class="cls-7" x="567.14" y="435.72" width="1.46" height="3.23" rx=".73" ry=".73"/>
      <rect class="cls-7" x="570.4" y="435.72" width="1.46" height="3.23" rx=".73" ry=".73"/>
      <rect class="cls-7" x="573.66" y="435.72" width="1.46" height="3.23" rx=".73" ry=".73"/>
      <rect class="cls-7" x="589.19" y="435.72" width="1.46" height="3.23" rx=".73" ry=".73"/>
      <path class="cls-9" d="M567.14,435.7h26.7v.25c0,.78-.63,1.41-1.41,1.41h-25.29v-1.65h0Z"/>
      <rect class="cls-9" x="567.53" y="421.07" width="7.98" height="9.58" rx=".57" ry=".57"/>
      <rect class="cls-4" x="588.44" y="425.27" width="2.53" height="5.37" rx=".29" ry=".29"/>
      <rect class="cls-9" x="567.53" y="431.4" width="1.64" height="1.64" rx=".29" ry=".29"/>
      <rect class="cls-4" x="569.64" y="431.4" width="1.64" height="1.64" rx=".29" ry=".29"/>
      <rect class="cls-9" x="571.76" y="431.4" width="1.64" height="1.64" rx=".29" ry=".29"/>
      <rect class="cls-4" x="573.87" y="431.4" width="1.64" height="1.64" rx=".29" ry=".29"/>
      <rect class="cls-4" x="579.08" y="426.62" width="1.64" height="1.64" rx=".29" ry=".29"/>
      <rect class="cls-9" x="581.19" y="426.62" width="1.64" height="1.64" rx=".29" ry=".29"/>
      <rect class="cls-4" x="583.3" y="426.62" width="1.64" height="1.64" rx=".29" ry=".29"/>
      <rect class="cls-4" x="585.42" y="426.62" width="1.64" height="1.64" rx=".29" ry=".29"/>
      <rect class="cls-9" x="579.08" y="429.01" width="1.64" height="1.64" rx=".29" ry=".29"/>
      <rect class="cls-4" x="581.19" y="429.01" width="1.64" height="1.64" rx=".29" ry=".29"/>
      <rect class="cls-9" x="583.3" y="429.01" width="1.64" height="1.64" rx=".29" ry=".29"/>
      <rect class="cls-9" x="585.42" y="429.01" width="1.64" height="1.64" rx=".29" ry=".29"/>
      <path class="cls-4" d="M591.73,425.27h2.19v1.9c0,.16-.13.29-.29.29h-1.9v-2.19h0Z"/>
      <rect class="cls-9" x="591.73" y="428.46" width="2.19" height="2.19" rx=".29" ry=".29"/>
      <rect class="cls-4" x="592.34" y="429.07" width=".96" height=".96"/>
      <path class="cls-9" d="M589.06,429.82v-3.71l1.16.58c.07.04.12.11.12.19v2.18c0,.08-.04.15-.12.19l-1.16.58Z"/>
      <polygon class="cls-9" points="592.29 427.05 592.29 425.69 593.35 425.92 593.35 426.81 592.29 427.05"/>
      <g>
        <path class="cls-4" d="M579.36,424.69v-2.68h1.06c.2,0,.38.04.52.12.14.08.25.18.33.32s.11.29.11.47-.04.33-.12.47c-.08.14-.19.24-.33.32-.15.08-.32.11-.53.11h-.67v-.45h.58c.11,0,.2-.02.27-.06.07-.04.12-.09.16-.16.04-.07.05-.15.05-.23s-.02-.17-.05-.23-.09-.12-.16-.16-.16-.06-.27-.06h-.38v2.22h-.57Z"/>
        <path class="cls-4" d="M581.75,424.69v-2.68h.57v2.21h1.15v.47h-1.72Z"/>
        <path class="cls-4" d="M586.1,422.94h-.57c-.01-.07-.03-.14-.06-.2-.03-.06-.07-.11-.12-.15-.05-.04-.11-.07-.17-.09-.07-.02-.14-.03-.21-.03-.14,0-.26.03-.36.1-.1.07-.18.17-.24.3-.06.13-.09.29-.09.47s.03.35.09.48.14.23.24.29.22.1.36.1c.08,0,.15,0,.21-.03.06-.02.12-.05.17-.09.05-.04.09-.09.13-.14s.06-.12.07-.19h.57c-.01.13-.05.24-.11.36-.06.11-.14.22-.24.31-.1.09-.22.16-.35.21s-.29.08-.46.08c-.24,0-.45-.05-.64-.16-.19-.11-.34-.26-.44-.47-.11-.21-.16-.45-.16-.74s.05-.54.16-.75c.11-.2.26-.36.45-.47.19-.11.4-.16.64-.16.16,0,.3.02.43.07.13.04.25.11.35.19.1.08.19.19.25.31.06.12.11.26.12.41Z"/>
      </g>
      <path class="cls-9" d="M568.55,417.29h25.29v1.65h-26.7v-.24c0-.78.63-1.41,1.41-1.41Z"/>
    </g>
    <g>
      <path class="cls-6" d="M399.88,207.28v-6h-.11c-.27,0-.45-.03-.55-.09s-.15-.17-.15-.33c0-.14.04-.25.12-.32s.2-.11.35-.11h.89c.11,0,.19.02.25.06s.09.1.09.18v2.65c.29-.27.57-.46.85-.59s.57-.19.87-.19c.59,0,1.05.18,1.39.55s.51.88.51,1.52v2.65h.28c.2,0,.34.03.42.1s.13.17.13.31-.04.25-.12.32c-.08.07-.2.11-.35.11h-1.56c-.18,0-.31-.03-.37-.09-.06-.06-.1-.17-.1-.33s.04-.26.12-.32c.08-.06.23-.08.46-.08h.21v-2.44c0-.46-.1-.81-.31-1.05-.21-.24-.51-.36-.9-.36s-.76.13-1.06.4c-.3.27-.46.6-.46,1v2.44h.21c.23,0,.39.03.47.09s.12.16.12.32c0,.16-.03.27-.1.33s-.19.09-.37.09h-1.56c-.15,0-.27-.04-.34-.11s-.11-.18-.11-.32c0-.16.05-.26.14-.32s.27-.08.54-.08h.12Z"/>
      <path class="cls-6" d="M410.88,203.02c.19,0,.33.03.42.1s.13.17.13.32c0,.14-.04.24-.12.31s-.21.1-.37.1h-2.37v1.96c0,.64.08,1.06.25,1.27s.45.3.85.3c.36,0,.78-.1,1.28-.31s.8-.31.92-.31c.11,0,.2.04.28.12s.11.17.11.29c0,.13-.05.24-.14.34s-.26.19-.49.28c-.38.15-.73.26-1.03.33s-.59.11-.86.11c-.46,0-.84-.07-1.15-.22s-.54-.36-.69-.65c-.08-.14-.13-.3-.17-.49s-.05-.48-.05-.87v-2.14h-1c-.16,0-.28-.03-.36-.1s-.11-.17-.11-.31c0-.16.05-.27.15-.33s.32-.09.65-.09h.66v-1.51c0-.17.04-.29.11-.37s.18-.12.34-.12c.17,0,.29.05.36.15s.1.32.1.67v1.19h2.31Z"/>
      <path class="cls-6" d="M418.08,203.02c.19,0,.33.03.42.1s.13.17.13.32c0,.14-.04.24-.12.31s-.21.1-.37.1h-2.37v1.96c0,.64.08,1.06.25,1.27s.45.3.85.3c.36,0,.78-.1,1.28-.31s.8-.31.92-.31c.11,0,.2.04.28.12s.11.17.11.29c0,.13-.05.24-.14.34s-.26.19-.49.28c-.38.15-.73.26-1.03.33s-.59.11-.86.11c-.46,0-.84-.07-1.15-.22s-.54-.36-.69-.65c-.08-.14-.13-.3-.17-.49s-.05-.48-.05-.87v-2.14h-1c-.16,0-.28-.03-.36-.1s-.11-.17-.11-.31c0-.16.05-.27.15-.33s.32-.09.65-.09h.66v-1.51c0-.17.04-.29.11-.37s.18-.12.34-.12c.17,0,.29.05.36.15s.1.32.1.67v1.19h2.31Z"/>
      <path class="cls-6" d="M422.17,209.61h1.41c.15,0,.26.04.33.11s.11.18.11.32c0,.15-.04.26-.11.32s-.2.09-.38.09h-2.58c-.16,0-.27-.04-.35-.11s-.12-.17-.12-.31c0-.16.05-.27.15-.33s.28-.09.55-.09h.11v-6.08h-.11c-.27,0-.45-.03-.55-.09s-.15-.17-.15-.33c0-.14.04-.24.12-.31s.2-.1.35-.1h.89c.12,0,.2.02.25.06s.08.1.08.18v.57c.27-.27.56-.48.88-.62s.67-.21,1.04-.21c.79,0,1.44.27,1.97.8s.79,1.2.79,2-.25,1.4-.75,1.9-1.14.74-1.92.74c-.41,0-.79-.07-1.14-.22s-.64-.36-.87-.63v2.34ZM423.99,207.26c.54,0,.99-.17,1.34-.51s.52-.78.52-1.33-.17-.97-.52-1.32-.79-.52-1.33-.52-.98.17-1.32.52-.52.78-.52,1.32.17.98.51,1.32.78.52,1.33.52Z"/>
      <path class="cls-6" d="M428.33,207.68v-1.04c0-.17.03-.29.1-.37s.17-.11.31-.11c.16,0,.29.11.38.33.06.13.12.23.17.3.16.21.41.38.73.51s.67.19,1.06.19c.41,0,.75-.08,1-.25s.38-.39.38-.66-.1-.47-.3-.59-.55-.18-1.03-.18h-.32c-.8,0-1.4-.14-1.82-.42s-.63-.68-.63-1.21.2-.92.61-1.2.98-.43,1.72-.43c.3,0,.61.04.92.13s.48.13.49.13c.04,0,.12-.04.25-.11s.24-.11.36-.11c.13,0,.23.05.3.15s.1.24.1.44v.69c0,.21-.03.36-.09.45s-.16.14-.3.14c-.12,0-.26-.1-.43-.3-.12-.14-.22-.24-.3-.31-.21-.19-.43-.33-.66-.41s-.51-.13-.83-.13c-.37,0-.66.08-.89.24s-.34.37-.34.62.12.42.35.53.73.17,1.49.18c.81.02,1.41.16,1.78.42s.56.67.56,1.22-.21.95-.62,1.27-.97.47-1.68.47c-.22,0-.47-.02-.74-.06s-.62-.11-1.03-.21c-.14.09-.25.16-.35.2s-.18.07-.25.07c-.14,0-.24-.05-.31-.14s-.11-.23-.11-.41Z"/>
    </g>
    <g>
      <path class="cls-5" d="M270.16,238.79v4.05h-.84v-9.95h3.39c1.03,0,1.85.26,2.45.79s.9,1.26.9,2.18-.29,1.66-.86,2.16c-.58.51-1.41.76-2.51.76h-2.53ZM270.16,238.08h2.55c.82,0,1.44-.19,1.87-.58s.64-.93.64-1.62-.21-1.24-.64-1.65c-.43-.41-1.03-.62-1.81-.63h-2.6v4.48Z"/>
      <path class="cls-5" d="M278.78,242.13h4.92v.71h-5.76v-9.95h.85v9.24Z"/>
      <path class="cls-5" d="M291.91,239.74c-.11,1.05-.49,1.85-1.12,2.41s-1.48.83-2.54.83c-.74,0-1.39-.18-1.96-.55s-1.01-.89-1.32-1.57c-.31-.68-.47-1.45-.47-2.32v-1.29c0-.88.15-1.67.46-2.35s.76-1.21,1.34-1.58c.58-.37,1.25-.56,2.01-.56,1.07,0,1.91.29,2.53.86s.98,1.37,1.08,2.39h-.85c-.21-1.69-1.13-2.54-2.75-2.54-.9,0-1.62.34-2.16,1.01s-.8,1.61-.8,2.8v1.22c0,1.15.26,2.07.78,2.75.52.68,1.23,1.03,2.12,1.03s1.54-.21,1.99-.63c.45-.42.72-1.05.83-1.9h.85Z"/>
    </g>
    <path class="cls-5" d="M416.88,567.19h-8.11v-2h8.11v2ZM400.77,567.19h-8v-2h8v2ZM384.77,567.19h-8v-2h8v2ZM368.77,567.19h-8v-2h8v2ZM352.77,567.19h-8v-2h8v2ZM336.78,567.19h-8v-2h8v2ZM320.78,567.19h-8v-2h8v2ZM304.78,567.19h-8v-2h8v2ZM288.79,567.19h-8v-2h8v2ZM272.7,567.06c-2.76-.25-5.46-.9-8.03-1.91l.73-1.86c2.39.94,4.91,1.54,7.48,1.78l-.18,1.99ZM425.05,566l-.56-1.92c2.47-.72,4.82-1.8,6.99-3.19l1.08,1.68c-2.33,1.49-4.86,2.64-7.51,3.42ZM257.5,561.08c-2.19-1.69-4.13-3.68-5.76-5.91l1.61-1.18c1.52,2.08,3.33,3.93,5.37,5.51l-1.22,1.58ZM438.82,557.2l-1.5-1.32c1.7-1.94,3.12-4.1,4.22-6.43l1.81.85c-1.17,2.5-2.7,4.82-4.52,6.9ZM247.84,547.9c-.94-2.59-1.52-5.31-1.7-8.07l2-.13c.17,2.58.71,5.11,1.59,7.52l-1.88.69ZM445.76,542.41l-1.98-.31c.22-1.4.33-2.83.33-4.26v-3.56h2v3.56c0,1.53-.12,3.07-.35,4.57ZM248.08,531.76h-2v-8h2v8ZM446.11,526.28h-2v-8h2v8ZM248.08,515.76h-2v-8h2v8ZM446.11,510.28h-2v-8h2v8ZM248.08,499.77h-2v-8h2v8ZM446.11,494.28h-2v-8h2v8ZM248.08,483.77h-2v-8h2v8ZM446.11,478.29h-2v-8h2v8ZM248.08,467.77h-2v-8h2v8ZM446.11,462.29h-2v-8h2v8ZM248.08,451.77h-2v-8h2v8ZM446.11,446.29h-2v-8h2v8ZM248.08,435.78h-2v-8h2v8ZM446.11,430.3h-2v-8h2v8ZM248.08,419.78h-2v-8h2v8ZM446.11,414.3h-2v-8h2v8ZM248.08,403.78h-2v-8h2v8ZM446.11,398.3h-2v-8h2v8ZM248.08,387.79h-2v-8h2v8ZM446.11,382.31h-2v-8h2v8ZM248.08,371.79h-2v-8h2v8ZM446.11,366.31h-2v-8h2v8ZM248.08,355.79h-2v-8h2v8ZM446.11,350.31h-2v-8h2v8ZM248.08,339.8h-2v-8h2v8ZM446.11,334.31h-2v-8h2v8ZM248.08,323.8h-2v-8h2v8ZM446.11,318.32h-2v-8h2v8ZM248.08,307.8h-2v-8h2v8ZM446.11,302.32h-2v-8h2v8ZM248.08,291.8h-2v-8h2v8ZM446.11,286.32h-2v-8h2v8ZM248.08,275.81h-2v-8h2v8ZM446.11,270.33h-2v-8h2v8ZM248.08,259.81h-2v-8h2v8ZM446.11,254.33h-2v-8h2v8ZM248.08,243.81h-2v-3.5c0-1.55.12-3.11.36-4.63l1.98.31c-.23,1.42-.34,2.87-.34,4.32v3.5ZM444.04,238.4c-.18-2.58-.72-5.11-1.6-7.52l1.88-.69c.95,2.59,1.53,5.3,1.72,8.07l-2,.14ZM250.68,228.65l-1.81-.85c1.18-2.5,2.71-4.81,4.54-6.89l1.5,1.32c-1.71,1.94-3.13,4.1-4.23,6.42ZM438.8,224.11c-1.53-2.08-3.34-3.92-5.38-5.5l1.22-1.58c2.19,1.69,4.13,3.67,5.77,5.9l-1.61,1.19ZM260.75,217.22l-1.07-1.69c2.34-1.49,4.86-2.63,7.52-3.41l.56,1.92c-2.47.72-4.83,1.79-7,3.17ZM426.73,214.83c-2.39-.94-4.91-1.53-7.48-1.76l.18-1.99c2.76.25,5.46.88,8.03,1.89l-.73,1.86ZM411.34,212.96h-8v-2h8v2ZM395.34,212.96h-8v-2h8v2ZM379.35,212.96h-8v-2h8v2ZM363.35,212.96h-8v-2h8v2ZM347.35,212.96h-8v-2h8v2ZM331.36,212.96h-8v-2h8v2ZM315.36,212.96h-8v-2h8v2ZM299.36,212.96h-8v-2h8v2ZM283.36,212.96h-7.94l-.06-2h.08s7.92,0,7.92,0v2Z"/>
    <g>
      <path class="cls-5" d="M263.28,554.55h-.84v-9.95h.84v9.95Z"/>
      <path class="cls-5" d="M266.57,547.15l.03,1.26c.28-.46.62-.8,1.04-1.04.41-.24.87-.36,1.37-.36.79,0,1.38.22,1.77.67s.58,1.12.59,2.01v4.85h-.81v-4.86c0-.66-.14-1.15-.42-1.48s-.72-.49-1.32-.49c-.51,0-.95.16-1.34.47-.39.32-.68.74-.86,1.28v5.07h-.81v-7.4h.78Z"/>
      <path class="cls-5" d="M273.15,550.78c0-1.15.26-2.06.77-2.75.51-.68,1.21-1.02,2.09-1.02,1,0,1.76.39,2.28,1.18v-4.15h.81v10.5h-.77l-.03-.98c-.52.75-1.29,1.12-2.31,1.12-.85,0-1.54-.34-2.06-1.03-.52-.69-.78-1.61-.78-2.78v-.1ZM273.98,550.92c0,.94.19,1.69.57,2.23.38.54.91.82,1.6.82,1.01,0,1.72-.44,2.15-1.33v-3.47c-.42-.96-1.13-1.44-2.13-1.44-.69,0-1.22.27-1.61.81-.38.54-.57,1.34-.57,2.39Z"/>
      <path class="cls-5" d="M286.02,553.61c-.49.72-1.28,1.07-2.36,1.07-.79,0-1.39-.23-1.8-.69-.41-.46-.62-1.14-.63-2.03v-4.81h.81v4.71c0,1.41.57,2.11,1.71,2.11s1.93-.49,2.25-1.47v-5.35h.82v7.4h-.79v-.94Z"/>
      <path class="cls-5" d="M293.38,552.67c0-.41-.16-.73-.49-.98s-.82-.44-1.47-.58c-.66-.14-1.17-.3-1.53-.48-.36-.18-.63-.4-.81-.66s-.26-.57-.26-.94c0-.58.24-1.07.73-1.45.49-.38,1.11-.57,1.87-.57.82,0,1.49.2,1.99.61.5.41.75.94.75,1.6h-.82c0-.43-.18-.79-.54-1.08s-.82-.43-1.37-.43-.97.12-1.3.36c-.33.24-.49.55-.49.93s.14.66.41.86c.27.2.77.39,1.48.56s1.26.35,1.61.54.62.42.8.69.26.59.26.98c0,.62-.25,1.12-.76,1.5s-1.16.56-1.97.56c-.86,0-1.56-.21-2.1-.62-.54-.42-.8-.95-.8-1.58h.82c.03.48.23.85.6,1.12.37.27.86.4,1.47.4.57,0,1.03-.12,1.38-.38s.53-.57.53-.95Z"/>
      <path class="cls-5" d="M297.31,545.26v1.89h1.53v.67h-1.53v4.93c0,.41.07.72.22.92.15.2.4.3.74.3.14,0,.36-.02.66-.07l.03.66c-.21.08-.51.12-.88.12-.56,0-.97-.16-1.22-.49-.26-.33-.38-.81-.38-1.44v-4.94h-1.36v-.67h1.36v-1.89h.82Z"/>
      <path class="cls-5" d="M303.95,547.85c-.17-.03-.36-.05-.55-.05-.51,0-.94.14-1.3.43-.35.29-.6.7-.76,1.24v5.08h-.81v-7.4h.8v1.18c.45-.88,1.14-1.31,2.1-1.31.23,0,.41.03.54.09l-.02.75Z"/>
      <path class="cls-5" d="M305.2,545.01c0-.15.05-.28.15-.39.1-.11.24-.16.41-.16s.31.05.41.16c.1.11.15.24.15.39s-.05.28-.15.39-.24.16-.41.16-.31-.05-.41-.16-.15-.23-.15-.39ZM306.16,554.55h-.82v-7.4h.82v7.4Z"/>
      <path class="cls-5" d="M313.05,554.55c-.08-.23-.13-.58-.16-1.03-.29.37-.65.66-1.1.86-.44.2-.92.3-1.41.3-.71,0-1.29-.2-1.73-.59s-.66-.9-.66-1.5c0-.72.3-1.29.9-1.71s1.43-.63,2.51-.63h1.48v-.84c0-.53-.16-.94-.49-1.25-.33-.3-.8-.45-1.43-.45-.57,0-1.04.15-1.42.44s-.56.64-.56,1.05h-.82c0-.59.27-1.1.82-1.53.55-.43,1.22-.65,2.02-.65s1.48.21,1.95.62c.48.41.72.99.73,1.73v3.5c0,.72.08,1.25.23,1.61v.08h-.88ZM310.48,553.96c.55,0,1.04-.13,1.47-.4s.74-.62.94-1.06v-1.63h-1.46c-.82,0-1.45.16-1.91.45-.46.29-.69.69-.69,1.19,0,.42.15.76.46,1.03s.71.41,1.2.41Z"/>
      <path class="cls-5" d="M316.8,554.55h-.82v-10.5h.82v10.5Z"/>
      <path class="cls-5" d="M330.03,554.55h-.84l-5.72-8.52v8.52h-.85v-9.95h.85l5.73,8.52v-8.52h.83v9.95Z"/>
      <path class="cls-5" d="M335.23,554.68c-.63,0-1.2-.16-1.71-.46s-.9-.74-1.19-1.29c-.28-.55-.42-1.17-.42-1.86v-.29c0-.71.14-1.35.41-1.92s.66-1.02,1.15-1.34c.49-.33,1.03-.49,1.6-.49.9,0,1.61.31,2.14.92.53.61.79,1.45.79,2.51v.46h-5.28v.16c0,.84.24,1.54.72,2.1.48.56,1.09.84,1.81.84.44,0,.82-.08,1.16-.24s.64-.42.91-.77l.51.39c-.6.87-1.47,1.31-2.62,1.31ZM335.08,547.71c-.62,0-1.13.23-1.56.68s-.68,1.06-.77,1.82h4.44v-.09c-.02-.71-.23-1.29-.61-1.74s-.88-.67-1.5-.67Z"/>
      <path class="cls-5" d="M340.87,545.26v1.89h1.53v.67h-1.53v4.93c0,.41.07.72.22.92.15.2.4.3.74.3.14,0,.36-.02.66-.07l.03.66c-.21.08-.51.12-.88.12-.56,0-.97-.16-1.22-.49-.26-.33-.38-.81-.38-1.44v-4.94h-1.36v-.67h1.36v-1.89h.82Z"/>
      <path class="cls-5" d="M345.86,552.84l.12.64.16-.67,1.78-5.66h.7l1.76,5.61.19.78.16-.72,1.52-5.67h.85l-2.15,7.4h-.7l-1.9-5.87-.09-.4-.09.41-1.87,5.86h-.7l-2.15-7.4h.84l1.57,5.69Z"/>
      <path class="cls-5" d="M354.2,550.74c0-.71.14-1.35.41-1.92s.67-1.01,1.17-1.33c.5-.32,1.07-.47,1.71-.47.98,0,1.78.35,2.39,1.04.61.69.92,1.61.92,2.75v.17c0,.72-.14,1.36-.41,1.93-.28.57-.66,1.01-1.17,1.32s-1.07.46-1.72.46c-.98,0-1.78-.35-2.39-1.04-.61-.69-.92-1.61-.92-2.75v-.16ZM355.02,550.96c0,.88.23,1.61.69,2.18.46.57,1.06.85,1.8.85s1.34-.28,1.79-.85c.46-.57.69-1.32.69-2.25v-.16c0-.57-.1-1.08-.31-1.55s-.5-.83-.88-1.09c-.38-.26-.81-.39-1.3-.39-.73,0-1.32.29-1.78.86-.46.57-.69,1.32-.69,2.25v.15Z"/>
      <path class="cls-5" d="M365.91,547.85c-.17-.03-.36-.05-.55-.05-.51,0-.94.14-1.3.43-.35.29-.6.7-.76,1.24v5.08h-.81v-7.4h.8v1.18c.45-.88,1.14-1.31,2.1-1.31.23,0,.41.03.54.09l-.02.75Z"/>
      <path class="cls-5" d="M368.96,550.82l-.94.9v2.82h-.82v-10.5h.82v6.72l.77-.83,2.83-2.78h1.03l-3.14,3.12,3.41,4.28h-.98l-2.99-3.73Z"/>
    </g>
  </g>
</svg>