<svg xmlns="http://www.w3.org/2000/svg" viewBox="0 0 60.62 60.62"><defs><style>.cls-1{fill:none;}.cls-2{fill:#fff;}.cls-3,.cls-4{fill:#f9ba00;}.cls-3{stroke:#f9ba00;stroke-linejoin:round;}</style></defs><g id="Calque_2" data-name="Calque 2"><g id="Calque_1-2" data-name="Calque 1"><rect class="cls-1" width="60.62" height="60.62"/><path class="cls-2" d="M37.42,23.85c-8,0-14.1-3.06-14.1-7.12s6.06-7.12,14.1-7.12,14.1,3.06,14.1,7.12S45.46,23.85,37.42,23.85Zm0-11.24c-6.77,0-11.1,2.44-11.1,4.12s4.33,4.12,11.1,4.12,11.1-2.44,11.1-4.12S44.2,12.61,37.42,12.61Z"/><path class="cls-2" d="M37.38,33.45c-8,0-14.06-3.06-14.06-7.12h3c0,1.68,4.31,4.12,11.06,4.12s11-2.44,11-4.12h3C51.43,30.39,45.39,33.45,37.38,33.45Z"/><path class="cls-2" d="M37.38,43.06a28.27,28.27,0,0,1-4.46-.35,1.5,1.5,0,1,1,.48-3,25.68,25.68,0,0,0,4,.31c6.74,0,11-2.45,11-4.13a1.5,1.5,0,0,1,3,0C51.43,40,45.39,43.06,37.38,43.06Z"/><path class="cls-2" d="M37.38,52.66c-8,0-14.06-3.06-14.06-7.13h3c0,1.69,4.31,4.13,11.06,4.13s11-2.44,11-4.13h3C51.43,49.6,45.39,52.66,37.38,52.66Z"/><path class="cls-2" d="M24.82,47a1.5,1.5,0,0,1-1.5-1.5V16.73a1.5,1.5,0,1,1,3,0v28.8A1.5,1.5,0,0,1,24.82,47Z"/><path class="cls-2" d="M49.93,47h0a1.5,1.5,0,0,1-1.5-1.5l.09-28.81A1.5,1.5,0,0,1,50,15.23h0a1.5,1.5,0,0,1,1.49,1.5l-.09,28.81A1.49,1.49,0,0,1,49.93,47Z"/><polygon class="cls-3" points="31.11 37.74 18.11 30.34 18.11 45.15 31.11 37.74"/><line class="cls-2" x1="22.1" y1="37.74" x2="4.07" y2="37.74"/><path class="cls-4" d="M22.1,40.24h-18a2.5,2.5,0,0,1,0-5h18a2.5,2.5,0,0,1,0,5Z"/></g></g></svg>