<svg xmlns="http://www.w3.org/2000/svg" viewBox="0 0 60.62 60.62"><defs><style>.cls-1{fill:none;}.cls-2{fill:#fff;}.cls-3,.cls-4{fill:#f9ba00;}.cls-3{stroke:#f9ba00;stroke-linejoin:round;}</style></defs><g id="Calque_2" data-name="Calque 2"><g id="Calque_1-2" data-name="Calque 1"><rect class="cls-1" width="60.62" height="60.62"/><path class="cls-2" d="M14.68,51C8,51,5,47.49,5,40.75V37.31C5,35,4.28,34,2.86,34h-.8V28.52h.8c1.42,0,2.18-1,2.18-3.34V21.69c0-6.75,3-10.24,9.64-10.24v4.41c-3.63.49-4.54,2.33-4.54,6.31v1.5c0,5.24-1.1,6.65-3.46,7.57,2.36.92,3.46,2.33,3.46,7.57v1.45c0,4,.91,5.83,4.54,6.31Z"/><polygon class="cls-3" points="45.94 23.81 32.93 16.4 32.93 31.22 45.94 23.81"/><line class="cls-2" x1="36.92" y1="23.81" x2="18.89" y2="23.81"/><path class="cls-4" d="M36.92,26.31h-18a2.5,2.5,0,0,1,0-5h18a2.5,2.5,0,0,1,0,5Z"/><polygon class="cls-3" points="14.12 38.62 27.12 46.03 27.12 31.22 14.12 38.62"/><line class="cls-2" x1="23.13" y1="38.62" x2="41.16" y2="38.62"/><path class="cls-4" d="M41.16,41.12h-18a2.5,2.5,0,0,1,0-5h18a2.5,2.5,0,0,1,0,5Z"/><path class="cls-2" d="M45.94,11.45c6.69,0,9.64,3.49,9.64,10.23v3.45c0,2.33.76,3.34,2.18,3.34h.8v5.44h-.8c-1.42,0-2.18,1-2.18,3.34v3.5c0,6.74-2.95,10.23-9.64,10.23V46.57c3.64-.49,4.54-2.33,4.54-6.31v-1.5c0-5.24,1.1-6.65,3.46-7.57-2.36-.92-3.46-2.33-3.46-7.57V22.17c0-4-.9-5.82-4.54-6.31Z"/></g></g></svg>