<svg xmlns="http://www.w3.org/2000/svg" viewBox="0 0 60.62 60.62"><defs><style>.cls-1{fill:none;}.cls-2{fill:#f9ba00;}.cls-3{fill:#fff;}</style></defs><g id="Calque_2" data-name="Calque 2"><g id="Calque_1-2" data-name="Calque 1"><rect class="cls-1" width="60.62" height="60.62"/><path class="cls-2" d="M26.66,15.25A15.09,15.09,0,1,1,11.57,30.33,15.11,15.11,0,0,1,26.66,15.25m0-4.3A19.38,19.38,0,1,0,46,30.33,19.38,19.38,0,0,0,26.66,11Z"/><rect class="cls-2" x="49.19" y="18.97" width="4.16" height="30.7"/><rect class="cls-2" x="49.19" y="10.91" width="4.16" height="3.9"/><path class="cls-3" d="M35.72,25.15a.8.8,0,0,0-.79.79V36.42a.79.79,0,0,0,1.58,0V25.94A.79.79,0,0,0,35.72,25.15Z"/><path class="cls-3" d="M19.75,26.67a.79.79,0,0,0-.79.79v9a.79.79,0,0,0,1.58,0v-9A.79.79,0,0,0,19.75,26.67Z"/><path class="cls-3" d="M32.53,23.53a.78.78,0,0,0-.79.78V36.42a.79.79,0,0,0,1.58,0V24.31A.79.79,0,0,0,32.53,23.53Z"/><path class="cls-3" d="M26.14,28.24a.79.79,0,0,0-.79.79v7.39a.79.79,0,0,0,1.58,0V29A.8.8,0,0,0,26.14,28.24Z"/><path class="cls-3" d="M29.33,26.67a.79.79,0,0,0-.79.79v9a.79.79,0,0,0,1.58,0v-9A.79.79,0,0,0,29.33,26.67Z"/><path class="cls-3" d="M22.94,28.24a.8.8,0,0,0-.79.79V39.56a.79.79,0,0,0,1.58,0V29A.79.79,0,0,0,22.94,28.24Z"/><path class="cls-3" d="M16.55,29.82a.79.79,0,0,0-.79.78v5.82a.79.79,0,0,0,1.58,0V30.6A.78.78,0,0,0,16.55,29.82Z"/></g></g></svg>